# Blender v2.79 (sub 0) OBJ File: '3DObjectDecoderObjects.blend'
# www.blender.org
o Cube.003_Cube.001
v -0.566195 0.556147 1.598610
v -0.267338 0.401595 1.823320
v -0.537899 0.905278 1.801104
v -0.239041 0.750726 2.025813
v 0.104244 0.886993 0.934493
v 0.403102 0.732441 1.159203
v 0.431399 1.081571 1.361696
v 0.132541 1.236123 1.136987
v 0.082697 -1.638168 0.489315
v 0.068459 -1.436308 0.138961
v 0.487018 -1.627294 0.479147
v 0.472779 -1.425435 0.128794
v 0.071961 -0.771934 0.988839
v 0.057722 -0.570075 0.638485
v 0.462043 -0.559201 0.628317
v 0.476282 -0.761060 0.978671
v 0.668435 1.277358 0.182026
v 1.002995 1.143342 0.365890
v 0.697013 1.626480 0.384496
v 1.031573 1.492464 0.568359
v 0.028755 0.085623 0.207822
v 0.031927 -0.207507 -0.071037
v 0.433066 0.098138 0.199265
v 0.436237 -0.194992 -0.079595
v 0.110544 0.895652 0.918952
v 0.445022 0.761084 1.103791
v 0.472926 1.106564 1.312704
v 0.141888 1.245700 1.119416
v 0.068222 -0.659313 0.972912
v 0.067418 -0.858303 0.654646
v 0.471762 -0.847027 0.645891
v 0.472484 -0.646518 0.962845
v -0.215786 0.628139 0.886894
v -0.455447 0.308168 0.949231
v -0.490804 0.868133 1.061434
v -0.730465 0.548162 1.123771
v -0.648333 0.778953 -0.002022
v -0.887993 0.458981 0.060315
v -1.163011 0.698975 0.234855
v -0.923351 1.018946 0.172518
v -0.082262 -2.072809 -0.288243
v -0.069001 -1.952347 -0.674262
v -0.486577 -2.062093 -0.298789
v -0.473316 -1.941631 -0.684807
v -0.064755 -1.118527 0.010154
v -0.051493 -0.998065 -0.375864
v -0.455808 -0.987349 -0.386410
v -0.469070 -1.107811 -0.000392
v -0.464969 1.397255 -0.563741
v -0.756006 1.219773 -0.781696
v -0.740986 1.636932 -0.390346
v -1.032022 1.459450 -0.608300
v -0.036867 -0.036006 0.068435
v -0.026208 -0.016084 -0.335528
v -0.441186 -0.025075 0.058307
v -0.430528 -0.005154 -0.345657
v -0.596100 0.721479 0.161613
v -0.888773 0.539410 -0.052547
v -1.175125 0.748983 0.146403
v -0.878408 0.966593 0.317433
v -0.063143 -1.047975 0.022811
v -0.051800 -1.007275 -0.382739
v -0.456124 -0.996572 -0.392986
v -0.467450 -1.036893 0.012408
v 0.313209 0.079915 0.689348
v 0.313209 1.479915 0.689348
v 0.756786 0.079915 -0.023982
v 0.756786 1.479915 -0.023982
v -0.756786 0.079915 0.023982
v -0.756786 1.479915 0.023982
v -0.313209 0.079915 -0.689348
v -0.313209 1.479915 -0.689348
v 0.096532 1.579652 0.413215
v 0.095970 2.179651 0.413725
v 0.412995 1.580381 -0.096541
v 0.412433 2.180381 -0.096031
v -0.413224 1.579443 0.096752
v -0.413786 2.179442 0.097261
v -0.096761 1.580173 -0.413004
v -0.097323 2.180172 -0.412494
vt 0.151712 0.164304
vt 0.128453 0.121671
vt 0.152804 0.123501
vt 0.067175 0.157952
vt 0.127361 0.162474
vt 0.210807 0.209629
vt 0.150620 0.205107
vt 0.211899 0.168826
vt 0.214083 0.087220
vt 0.153896 0.082698
vt 0.120318 0.196104
vt 0.141703 0.159716
vt 0.141869 0.195827
vt 0.194969 0.159030
vt 0.120152 0.159993
vt 0.066721 0.124568
vt 0.119987 0.123882
vt 0.066887 0.160679
vt 0.067218 0.232901
vt 0.120483 0.232215
vt 0.893013 0.803206
vt 0.953247 0.844041
vt 0.893013 0.844041
vt 0.953247 0.884875
vt 0.893013 0.884875
vt 0.893013 0.925710
vt 0.868643 0.884875
vt 0.808410 0.844041
vt 0.868643 0.844041
vt 0.977617 0.844041
vt 0.977617 0.884875
vt 0.741845 0.545283
vt 0.663028 0.598717
vt 0.663028 0.545283
vt 0.741845 0.652150
vt 0.663028 0.652150
vt 0.741845 0.705584
vt 0.663028 0.705584
vt 0.631139 0.652150
vt 0.552321 0.598717
vt 0.631139 0.598717
vt 0.741845 0.598717
vt 0.773734 0.652150
vt 0.237342 0.129853
vt 0.236250 0.170656
vt 0.045336 0.160957
vt 0.067052 0.196790
vt 0.045501 0.197068
vt 0.113861 0.154921
vt 0.095990 0.121280
vt 0.114964 0.123128
vt 0.047991 0.148506
vt 0.049093 0.116713
vt 0.116067 0.091335
vt 0.161861 0.127695
vt 0.160758 0.159488
vt 0.112759 0.186714
vt 0.159655 0.191281
vt 0.153193 0.158992
vt 0.134495 0.188340
vt 0.135087 0.158002
vt 0.197352 0.191779
vt 0.152601 0.189330
vt 0.133904 0.218678
vt 0.089745 0.185892
vt 0.090336 0.155553
vt 0.135678 0.127663
vt 0.090927 0.125215
vt 0.893013 0.809899
vt 0.820174 0.859280
vt 0.820174 0.809899
vt 0.893013 0.859280
vt 0.820174 0.908661
vt 0.893013 0.958041
vt 0.893013 0.908661
vt 0.922484 0.908660
vt 0.995323 0.859280
vt 0.995323 0.908660
vt 0.790703 0.908661
vt 0.668850 0.601598
vt 0.627314 0.573439
vt 0.668850 0.573439
vt 0.627314 0.629757
vt 0.627314 0.601598
vt 0.668850 0.629757
vt 0.627314 0.657916
vt 0.685655 0.629757
vt 0.727191 0.601598
vt 0.727191 0.629757
vt 0.610509 0.601598
vt 0.114767 0.168293
vt 0.095916 0.220936
vt 0.095916 0.168293
vt 0.143042 0.220936
vt 0.114767 0.220936
vt 0.161893 0.168293
vt 0.143042 0.168293
vt 0.114767 0.136707
vt 0.143042 0.084063
vt 0.143042 0.136707
vt 0.143042 0.252523
vt 0.679363 0.612195
vt 0.705410 0.568551
vt 0.705410 0.612195
vt 0.653316 0.612195
vt 0.679363 0.568551
vt 0.627270 0.612195
vt 0.653316 0.568551
vt 0.679363 0.655839
vt 0.653316 0.699483
vt 0.653316 0.655839
vt 0.653316 0.524907
vt 0.922484 0.859280
vt 0.180835 0.129543
vt 0.072230 0.154563
vt 0.071639 0.184901
vt 0.685655 0.601598
vt 0.068267 0.117149
vt 0.212991 0.128023
vt 0.195135 0.195141
vt 0.953247 0.803206
vt 0.953247 0.925710
vt 0.808410 0.884875
vt 0.552321 0.652150
vt 0.773734 0.598717
vt 0.094887 0.153073
vt 0.162963 0.095902
vt 0.197943 0.161440
vt 0.089154 0.216230
vt 0.820174 0.958041
vt 0.790703 0.859280
vt 0.668850 0.657916
vt 0.610509 0.629757
vt 0.161893 0.220936
vt 0.114767 0.084063
vt 0.114767 0.252523
vt 0.627270 0.568551
vt 0.679363 0.699483
vt 0.679363 0.524907
vt 0.179732 0.161336
vn -0.6704 -0.3308 0.6641
vn -0.7387 0.3820 -0.5554
vn 0.0699 0.8629 0.5005
vn 0.7387 -0.3820 0.5554
vn -0.0699 -0.8629 -0.5005
vn 0.0107 -0.8662 -0.4995
vn 0.0352 -0.4989 0.8659
vn 0.9993 0.0269 -0.0251
vn -0.0352 0.4989 -0.8659
vn -0.9993 -0.0269 0.0251
vn -0.0706 -0.8629 -0.5004
vn 0.8285 -0.3372 0.4470
vn 0.0706 0.8629 0.5003
vn -0.8267 0.3335 -0.4531
vn 0.5579 0.3817 -0.7369
vn -0.9993 -0.0307 0.0217
vn 0.0063 -0.7436 -0.6686
vn 0.9993 0.0307 -0.0217
vn -0.0053 0.7163 0.6977
vn -0.0366 0.6886 -0.7242
vn -0.5808 -0.3864 0.7165
vn 0.6704 0.3308 -0.6641
vn -0.0107 0.8662 0.4995
vn 0.0351 -0.8446 0.5342
vn 0.4325 -0.1508 0.8889
vn 0.5923 0.7908 -0.1541
vn -0.6797 0.5932 0.4314
vn -0.5923 -0.7908 0.1541
vn 0.6797 -0.5932 -0.4314
vn -0.0175 -0.9543 -0.2984
vn -0.0328 -0.2977 0.9541
vn -0.9993 0.0265 -0.0261
vn 0.0328 0.2977 -0.9541
vn 0.9993 -0.0265 0.0261
vn 0.6822 -0.5924 -0.4286
vn -0.7192 -0.4379 -0.5395
vn -0.6818 0.5927 0.4287
vn 0.7177 0.4306 0.5472
vn 0.1311 0.6758 -0.7254
vn 0.9993 -0.0271 0.0252
vn 0.0263 0.0469 -0.9986
vn -0.9993 0.0270 -0.0250
vn -0.0262 -0.0446 0.9987
vn 0.0257 0.9984 0.0499
vn 0.8492 0.0000 0.5281
vn 0.5281 0.0000 -0.8492
vn -0.8492 -0.0000 -0.5281
vn -0.5281 -0.0000 0.8492
vn 0.0000 -1.0000 -0.0000
vn 0.0000 1.0000 0.0000
vn 0.8496 0.0003 0.5274
vn 0.5274 0.0012 -0.8496
vn -0.8496 -0.0003 -0.5274
vn -0.5274 -0.0012 0.8496
vn 0.0009 -1.0000 -0.0008
vn -0.0009 1.0000 0.0008
vn -0.1468 -0.6455 0.7495
vn -0.4325 0.1508 -0.8889
vn 0.0175 0.9543 0.2984
vn -0.0247 -0.9946 -0.1005
vn 0.8272 -0.3310 0.4540
vn 0.0706 0.8629 0.5004
vn -0.8275 0.3308 -0.4536
vn -0.9993 -0.0309 0.0211
vn 0.0089 -0.7442 -0.6679
vn 0.9993 0.0309 -0.0211
vn -0.0074 0.7157 0.6984
vn -0.5593 -0.3737 0.7400
vn 0.0400 -0.8473 0.5296
vn -0.7071 -0.4430 -0.5511
vn -0.6822 0.5924 0.4286
vn 0.6994 0.4555 0.5508
vn 0.9993 -0.0270 0.0250
vn 0.0265 0.0470 -0.9985
vn -0.9993 0.0271 -0.0252
vn -0.0269 -0.0443 0.9987
vn 0.0452 -0.6546 0.7546
vn -0.0238 -0.9947 -0.0996
s off
f 4/1/1 1/2/1 2/3/1
f 8/4/2 1/2/2 3/5/2
f 4/1/3 8/6/3 3/7/3
f 2/3/4 7/8/4 4/1/4
f 5/9/5 2/3/5 1/10/5
f 10/11/6 11/12/6 9/13/6
f 16/14/7 9/13/7 11/12/7
f 12/15/8 16/16/8 11/17/8
f 10/11/9 15/18/9 12/15/9
f 13/19/10 10/11/10 9/20/10
f 25/21/11 18/22/11 26/23/11
f 26/23/12 20/24/12 27/25/12
f 20/24/13 28/26/13 27/25/13
f 28/27/14 17/28/14 25/29/14
f 20/24/15 17/30/15 19/31/15
f 21/32/16 30/33/16 29/34/16
f 30/33/17 24/35/17 31/36/17
f 31/36/18 23/37/18 32/38/18
f 32/39/19 21/40/19 29/41/19
f 22/42/20 23/43/20 24/35/20
f 28/27/21 26/23/21 27/25/21
f 7/8/22 5/44/22 8/45/22
f 16/46/23 14/47/23 13/48/23
f 32/39/24 30/33/24 31/36/24
f 34/49/25 35/50/25 36/51/25
f 35/50/26 37/52/26 40/53/26
f 35/54/27 39/55/27 36/51/27
f 36/51/28 38/56/28 34/49/28
f 33/57/29 38/56/29 37/58/29
f 41/59/30 44/60/30 42/61/30
f 41/59/31 48/62/31 43/63/31
f 43/64/32 47/65/32 44/60/32
f 44/60/33 46/66/33 42/61/33
f 41/67/34 46/66/34 45/68/34
f 57/69/35 50/70/35 49/71/35
f 58/72/36 52/73/36 50/70/36
f 60/74/37 52/73/37 59/75/37
f 60/76/38 49/77/38 51/78/38
f 51/79/39 50/70/39 52/73/39
f 62/80/40 53/81/40 61/82/40
f 62/80/41 56/83/41 54/84/41
f 63/85/42 55/86/42 56/83/42
f 64/87/43 53/88/43 55/89/43
f 56/83/44 53/90/44 54/84/44
f 67/91/45 66/92/45 65/93/45
f 67/91/46 72/94/46 68/95/46
f 69/96/47 72/94/47 71/97/47
f 65/98/48 70/99/48 69/100/48
f 65/98/49 71/97/49 67/91/49
f 70/101/50 68/95/50 72/94/50
f 75/102/51 74/103/51 73/104/51
f 79/105/52 76/106/52 75/102/52
f 77/107/53 80/108/53 79/105/53
f 73/109/54 78/110/54 77/111/54
f 73/109/55 79/105/55 75/102/55
f 78/112/56 76/106/56 80/108/56
f 60/76/57 58/72/57 57/113/57
f 40/114/58 38/56/58 39/55/58
f 45/115/59 47/65/59 48/116/59
f 64/87/60 62/80/60 61/117/60
f 4/1/1 3/5/1 1/2/1
f 8/4/2 5/118/2 1/2/2
f 4/1/3 7/8/3 8/6/3
f 2/3/4 6/119/4 7/8/4
f 5/9/5 6/119/5 2/3/5
f 10/11/6 12/15/6 11/12/6
f 16/14/7 13/120/7 9/13/7
f 12/15/8 15/18/8 16/16/8
f 10/11/9 14/47/9 15/18/9
f 13/19/10 14/47/10 10/11/10
f 25/21/11 17/121/11 18/22/11
f 26/23/61 18/22/61 20/24/61
f 20/24/62 19/122/62 28/26/62
f 28/27/63 19/123/63 17/28/63
f 20/24/15 18/22/15 17/30/15
f 21/32/64 22/42/64 30/33/64
f 30/33/65 22/42/65 24/35/65
f 31/36/66 24/35/66 23/37/66
f 32/39/67 23/124/67 21/40/67
f 22/42/20 21/125/20 23/43/20
f 28/27/68 25/29/68 26/23/68
f 7/8/22 6/119/22 5/44/22
f 16/46/23 15/18/23 14/47/23
f 32/39/69 29/41/69 30/33/69
f 34/49/25 33/126/25 35/50/25
f 35/50/26 33/126/26 37/52/26
f 35/54/27 40/127/27 39/55/27
f 36/51/28 39/55/28 38/56/28
f 33/57/29 34/49/29 38/56/29
f 41/59/30 43/63/30 44/60/30
f 41/59/31 45/128/31 48/62/31
f 43/64/32 48/129/32 47/65/32
f 44/60/33 47/65/33 46/66/33
f 41/67/34 42/61/34 46/66/34
f 57/69/35 58/72/35 50/70/35
f 58/72/70 59/75/70 52/73/70
f 60/74/71 51/130/71 52/73/71
f 60/76/72 57/113/72 49/77/72
f 51/79/39 49/131/39 50/70/39
f 62/80/73 54/84/73 53/81/73
f 62/80/74 63/85/74 56/83/74
f 63/85/75 64/132/75 55/86/75
f 64/87/76 61/117/76 53/88/76
f 56/83/44 55/133/44 53/90/44
f 67/91/45 68/95/45 66/92/45
f 67/91/46 71/97/46 72/94/46
f 69/96/47 70/134/47 72/94/47
f 65/98/48 66/135/48 70/99/48
f 65/98/49 69/100/49 71/97/49
f 70/101/50 66/136/50 68/95/50
f 75/102/51 76/106/51 74/103/51
f 79/105/52 80/108/52 76/106/52
f 77/107/53 78/137/53 80/108/53
f 73/109/54 74/138/54 78/110/54
f 73/109/55 77/111/55 79/105/55
f 78/112/56 74/139/56 76/106/56
f 60/76/77 59/75/77 58/72/77
f 40/114/58 37/140/58 38/56/58
f 45/115/59 46/66/59 47/65/59
f 64/87/78 63/85/78 62/80/78
