# Blender v2.79 (sub 0) OBJ File: '3DObjectDecoderObjects.blend'
# www.blender.org
o Cube.003_Cube.001
v -0.549960 0.588289 1.596964
v -0.264114 0.452814 1.849223
v -0.538336 0.949930 1.778010
v -0.252489 0.814454 2.030270
v 0.157169 0.886519 0.955850
v 0.443015 0.751043 1.208109
v 0.454640 1.112683 1.389156
v 0.168793 1.248159 1.136896
v 0.082075 -1.539182 1.145347
v 0.069061 -1.552455 0.741179
v 0.486432 -1.534836 1.132185
v 0.473418 -1.548109 0.728016
v 0.070276 -0.539778 1.112905
v 0.057263 -0.553051 0.708736
v 0.461620 -0.548705 0.695574
v 0.474633 -0.535432 1.099742
v 0.667613 1.253787 0.188528
v 1.012044 1.149677 0.373527
v 0.679697 1.615426 0.369547
v 1.024128 1.511316 0.554546
v 0.031282 0.096469 0.160845
v 0.029923 -0.249496 -0.048927
v 0.435639 0.102453 0.148356
v 0.434280 -0.243513 -0.061416
v 0.143786 0.886565 0.957133
v 0.488076 0.781649 1.143771
v 0.499015 1.137972 1.335615
v 0.160401 1.249669 1.134893
v 0.067363 -0.450210 1.060868
v 0.063241 -0.740374 0.795701
v 0.467619 -0.735333 0.783430
v 0.471682 -0.444464 1.047220
v -0.218339 0.678494 0.881544
v -0.453335 0.359047 0.961760
v -0.493388 0.923033 1.049607
v -0.728385 0.603585 1.129823
v -0.666124 0.784985 -0.006240
v -0.901121 0.465538 0.073976
v -1.176170 0.710076 0.242039
v -0.941173 1.029523 0.161823
v -0.083012 -2.006935 -0.629124
v -0.068271 -1.807780 -0.981001
v -0.487285 -1.994017 -0.638749
v -0.472545 -1.794863 -0.990625
v -0.066954 -1.137057 -0.136118
v -0.052214 -0.937902 -0.487994
v -0.456487 -0.924984 -0.497619
v -0.471228 -1.124139 -0.145742
v -0.463456 1.393535 -0.560278
v -0.753193 1.216009 -0.779922
v -0.739560 1.637703 -0.393412
v -1.029297 1.460177 -0.613056
v -0.037067 -0.067780 0.080085
v -0.025667 0.009732 -0.316853
v -0.441348 -0.054688 0.071030
v -0.429948 0.022824 -0.325907
v -0.610121 0.727726 0.171293
v -0.901575 0.545472 -0.044209
v -1.188519 0.758631 0.150524
v -0.892894 0.977100 0.319464
v -0.065236 -1.066624 -0.109941
v -0.052940 -0.962781 -0.504184
v -0.457225 -0.949947 -0.513438
v -0.469500 -1.053281 -0.119304
v 0.313209 0.079915 0.689348
v 0.313209 1.479915 0.689348
v 0.756786 0.079915 -0.023982
v 0.756786 1.479915 -0.023982
v -0.756786 0.079915 0.023982
v -0.756786 1.479915 0.023982
v -0.313209 0.079915 -0.689348
v -0.313209 1.479915 -0.689348
v 0.096532 1.579652 0.413215
v 0.095970 2.179651 0.413725
v 0.412995 1.580381 -0.096541
v 0.412433 2.180381 -0.096031
v -0.413224 1.579443 0.096752
v -0.413786 2.179442 0.097261
v -0.096761 1.580173 -0.413004
v -0.097323 2.180172 -0.412494
vt 0.151712 0.164304
vt 0.128453 0.121671
vt 0.152804 0.123501
vt 0.067175 0.157952
vt 0.127361 0.162474
vt 0.210807 0.209629
vt 0.150620 0.205107
vt 0.211899 0.168826
vt 0.214083 0.087220
vt 0.153896 0.082698
vt 0.120318 0.196104
vt 0.141703 0.159716
vt 0.141869 0.195827
vt 0.194969 0.159030
vt 0.120152 0.159993
vt 0.066721 0.124568
vt 0.119987 0.123882
vt 0.066887 0.160679
vt 0.067218 0.232901
vt 0.120483 0.232215
vt 0.893013 0.803206
vt 0.953247 0.844041
vt 0.893013 0.844041
vt 0.953247 0.884875
vt 0.893013 0.884875
vt 0.893013 0.925710
vt 0.868643 0.884875
vt 0.808410 0.844041
vt 0.868643 0.844041
vt 0.977617 0.844041
vt 0.977617 0.884875
vt 0.741845 0.545283
vt 0.663028 0.598717
vt 0.663028 0.545283
vt 0.741845 0.652150
vt 0.663028 0.652150
vt 0.741845 0.705584
vt 0.663028 0.705584
vt 0.631139 0.652150
vt 0.552321 0.598717
vt 0.631139 0.598717
vt 0.741845 0.598717
vt 0.773734 0.652150
vt 0.237342 0.129853
vt 0.236250 0.170656
vt 0.045336 0.160957
vt 0.067052 0.196790
vt 0.045501 0.197068
vt 0.113861 0.154921
vt 0.095990 0.121280
vt 0.114964 0.123128
vt 0.047991 0.148506
vt 0.049093 0.116713
vt 0.116067 0.091335
vt 0.161861 0.127695
vt 0.160758 0.159488
vt 0.112759 0.186714
vt 0.159655 0.191281
vt 0.153193 0.158992
vt 0.134495 0.188340
vt 0.135087 0.158002
vt 0.152601 0.189330
vt 0.197943 0.161440
vt 0.197352 0.191779
vt 0.133904 0.218678
vt 0.089745 0.185892
vt 0.090336 0.155553
vt 0.135678 0.127663
vt 0.090927 0.125215
vt 0.893013 0.809899
vt 0.820174 0.859280
vt 0.820174 0.809899
vt 0.893013 0.859280
vt 0.820174 0.908661
vt 0.893013 0.958041
vt 0.893013 0.908661
vt 0.922484 0.908660
vt 0.995323 0.859280
vt 0.995323 0.908660
vt 0.790703 0.908661
vt 0.668850 0.601598
vt 0.627314 0.573439
vt 0.668850 0.573439
vt 0.627314 0.629757
vt 0.627314 0.601598
vt 0.668850 0.629757
vt 0.627314 0.657916
vt 0.685655 0.629757
vt 0.727191 0.601598
vt 0.727191 0.629757
vt 0.610509 0.601598
vt 0.114767 0.168293
vt 0.095916 0.220936
vt 0.095916 0.168293
vt 0.143042 0.220936
vt 0.114767 0.220936
vt 0.161893 0.168293
vt 0.143042 0.168293
vt 0.114767 0.136707
vt 0.143042 0.084063
vt 0.143042 0.136707
vt 0.143042 0.252523
vt 0.679363 0.612195
vt 0.705410 0.568551
vt 0.705410 0.612195
vt 0.653316 0.612195
vt 0.679363 0.568551
vt 0.627270 0.612195
vt 0.653316 0.568551
vt 0.679363 0.655839
vt 0.653316 0.699483
vt 0.653316 0.655839
vt 0.653316 0.524907
vt 0.922484 0.859280
vt 0.180835 0.129543
vt 0.072230 0.154563
vt 0.071639 0.184901
vt 0.685655 0.601598
vt 0.068267 0.117149
vt 0.212991 0.128023
vt 0.195135 0.195141
vt 0.953247 0.803206
vt 0.953247 0.925710
vt 0.808410 0.884875
vt 0.552321 0.652150
vt 0.773734 0.598717
vt 0.094887 0.153073
vt 0.162963 0.095902
vt 0.089154 0.216230
vt 0.820174 0.958041
vt 0.790703 0.859280
vt 0.668850 0.657916
vt 0.610509 0.629757
vt 0.161893 0.220936
vt 0.114767 0.084063
vt 0.114767 0.252523
vt 0.627270 0.568551
vt 0.679363 0.699483
vt 0.679363 0.524907
vt 0.179732 0.161336
vn -0.7071 -0.2982 0.6411
vn -0.7065 0.3348 -0.6235
vn 0.0287 0.8938 0.4475
vn 0.7065 -0.3348 0.6235
vn -0.0287 -0.8938 -0.4475
vn 0.0118 -0.9994 0.0324
vn 0.0322 0.0328 0.9989
vn 0.9994 0.0107 -0.0325
vn -0.0322 -0.0328 -0.9989
vn -0.9994 -0.0107 0.0325
vn -0.0299 -0.8938 -0.4474
vn 0.8540 -0.2667 0.4467
vn 0.0297 0.8939 0.4473
vn -0.8511 0.2617 -0.4550
vn 0.5238 0.3672 -0.7686
vn -0.9994 -0.0144 0.0313
vn -0.0045 -0.8643 -0.5030
vn 0.9994 0.0144 -0.0313
vn 0.0054 0.8548 0.5190
vn -0.0341 0.5183 -0.8545
vn -0.5612 -0.3789 0.7358
vn 0.7071 0.2982 -0.6411
vn -0.0118 0.9994 -0.0324
vn 0.0308 -0.6717 0.7402
vn 0.4478 -0.1065 0.8878
vn 0.5808 0.7895 -0.1982
vn -0.6798 0.6044 0.4154
vn -0.5808 -0.7895 0.1982
vn 0.6798 -0.6044 -0.4154
vn -0.0161 -0.8699 -0.4930
vn -0.0364 -0.4922 0.8697
vn -0.9992 0.0319 -0.0238
vn 0.0364 0.4922 -0.8697
vn 0.9992 -0.0319 0.0238
vn 0.6824 -0.6035 -0.4124
vn -0.7159 -0.4381 -0.5436
vn -0.6820 0.6038 0.4126
vn 0.7141 0.4302 0.5522
vn 0.1467 0.6658 -0.7316
vn 0.9992 -0.0325 0.0226
vn 0.0281 0.1883 -0.9817
vn -0.9992 0.0323 -0.0224
vn -0.0280 -0.1864 0.9821
vn 0.0275 0.9809 0.1923
vn 0.8492 0.0000 0.5281
vn 0.5281 0.0000 -0.8492
vn -0.8492 -0.0000 -0.5281
vn -0.5281 -0.0000 0.8492
vn 0.0000 -1.0000 -0.0000
vn 0.0000 1.0000 0.0000
vn 0.8496 0.0003 0.5274
vn 0.5274 0.0012 -0.8496
vn -0.8496 -0.0003 -0.5274
vn -0.5274 -0.0012 0.8496
vn 0.0009 -1.0000 -0.0008
vn -0.0009 1.0000 0.0008
vn -0.1628 -0.6338 0.7562
vn -0.4478 0.1065 -0.8878
vn 0.0161 0.8699 0.4930
vn -0.0260 -0.9665 -0.2554
vn 0.8517 -0.2570 0.4566
vn 0.0299 0.8938 0.4474
vn -0.8523 0.2566 -0.4557
vn -0.9994 -0.0148 0.0308
vn -0.0027 -0.8646 -0.5024
vn 0.9994 0.0148 -0.0308
vn 0.0034 0.8543 0.5197
vn -0.5268 -0.3542 0.7727
vn 0.0345 -0.6745 0.7375
vn -0.7050 -0.4429 -0.5539
vn -0.6824 0.6035 0.4124
vn 0.6944 0.4574 0.5555
vn 0.9992 -0.0323 0.0224
vn 0.0285 0.1884 -0.9817
vn -0.9992 0.0325 -0.0226
vn -0.0289 -0.1860 0.9821
vn 0.0397 -0.6443 0.7637
vn -0.0249 -0.9668 -0.2543
s off
f 4/1/1 1/2/1 2/3/1
f 8/4/2 1/2/2 3/5/2
f 4/1/3 8/6/3 3/7/3
f 2/3/4 7/8/4 4/1/4
f 5/9/5 2/3/5 1/10/5
f 10/11/6 11/12/6 9/13/6
f 16/14/7 9/13/7 11/12/7
f 12/15/8 16/16/8 11/17/8
f 10/11/9 15/18/9 12/15/9
f 13/19/10 10/11/10 9/20/10
f 25/21/11 18/22/11 26/23/11
f 26/23/12 20/24/12 27/25/12
f 20/24/13 28/26/13 27/25/13
f 28/27/14 17/28/14 25/29/14
f 20/24/15 17/30/15 19/31/15
f 21/32/16 30/33/16 29/34/16
f 30/33/17 24/35/17 31/36/17
f 31/36/18 23/37/18 32/38/18
f 32/39/19 21/40/19 29/41/19
f 22/42/20 23/43/20 24/35/20
f 28/27/21 26/23/21 27/25/21
f 7/8/22 5/44/22 8/45/22
f 16/46/23 14/47/23 13/48/23
f 32/39/24 30/33/24 31/36/24
f 34/49/25 35/50/25 36/51/25
f 35/50/26 37/52/26 40/53/26
f 35/54/27 39/55/27 36/51/27
f 36/51/28 38/56/28 34/49/28
f 33/57/29 38/56/29 37/58/29
f 41/59/30 44/60/30 42/61/30
f 43/62/31 45/63/31 48/64/31
f 43/65/32 47/66/32 44/60/32
f 44/60/33 46/67/33 42/61/33
f 41/68/34 46/67/34 45/69/34
f 57/70/35 50/71/35 49/72/35
f 58/73/36 52/74/36 50/71/36
f 60/75/37 52/74/37 59/76/37
f 60/77/38 49/78/38 51/79/38
f 51/80/39 50/71/39 52/74/39
f 62/81/40 53/82/40 61/83/40
f 62/81/41 56/84/41 54/85/41
f 63/86/42 55/87/42 56/84/42
f 64/88/43 53/89/43 55/90/43
f 56/84/44 53/91/44 54/85/44
f 67/92/45 66/93/45 65/94/45
f 67/92/46 72/95/46 68/96/46
f 69/97/47 72/95/47 71/98/47
f 65/99/48 70/100/48 69/101/48
f 65/99/49 71/98/49 67/92/49
f 70/102/50 68/96/50 72/95/50
f 75/103/51 74/104/51 73/105/51
f 79/106/52 76/107/52 75/103/52
f 77/108/53 80/109/53 79/106/53
f 73/110/54 78/111/54 77/112/54
f 73/110/55 79/106/55 75/103/55
f 78/113/56 76/107/56 80/109/56
f 60/77/57 58/73/57 57/114/57
f 40/115/58 38/56/58 39/55/58
f 45/116/59 47/66/59 48/117/59
f 64/88/60 62/81/60 61/118/60
f 4/1/1 3/5/1 1/2/1
f 8/4/2 5/119/2 1/2/2
f 4/1/3 7/8/3 8/6/3
f 2/3/4 6/120/4 7/8/4
f 5/9/5 6/120/5 2/3/5
f 10/11/6 12/15/6 11/12/6
f 16/14/7 13/121/7 9/13/7
f 12/15/8 15/18/8 16/16/8
f 10/11/9 14/47/9 15/18/9
f 13/19/10 14/47/10 10/11/10
f 25/21/11 17/122/11 18/22/11
f 26/23/61 18/22/61 20/24/61
f 20/24/62 19/123/62 28/26/62
f 28/27/63 19/124/63 17/28/63
f 20/24/15 18/22/15 17/30/15
f 21/32/64 22/42/64 30/33/64
f 30/33/65 22/42/65 24/35/65
f 31/36/66 24/35/66 23/37/66
f 32/39/67 23/125/67 21/40/67
f 22/42/20 21/126/20 23/43/20
f 28/27/68 25/29/68 26/23/68
f 7/8/22 6/120/22 5/44/22
f 16/46/23 15/18/23 14/47/23
f 32/39/69 29/41/69 30/33/69
f 34/49/25 33/127/25 35/50/25
f 35/50/26 33/127/26 37/52/26
f 35/54/27 40/128/27 39/55/27
f 36/51/28 39/55/28 38/56/28
f 33/57/29 34/49/29 38/56/29
f 41/59/30 43/62/30 44/60/30
f 43/62/31 41/59/31 45/63/31
f 43/65/32 48/129/32 47/66/32
f 44/60/33 47/66/33 46/67/33
f 41/68/34 42/61/34 46/67/34
f 57/70/35 58/73/35 50/71/35
f 58/73/70 59/76/70 52/74/70
f 60/75/71 51/130/71 52/74/71
f 60/77/72 57/114/72 49/78/72
f 51/80/39 49/131/39 50/71/39
f 62/81/73 54/85/73 53/82/73
f 62/81/74 63/86/74 56/84/74
f 63/86/75 64/132/75 55/87/75
f 64/88/76 61/118/76 53/89/76
f 56/84/44 55/133/44 53/91/44
f 67/92/45 68/96/45 66/93/45
f 67/92/46 71/98/46 72/95/46
f 69/97/47 70/134/47 72/95/47
f 65/99/48 66/135/48 70/100/48
f 65/99/49 69/101/49 71/98/49
f 70/102/50 66/136/50 68/96/50
f 75/103/51 76/107/51 74/104/51
f 79/106/52 80/109/52 76/107/52
f 77/108/53 78/137/53 80/109/53
f 73/110/54 74/138/54 78/111/54
f 73/110/55 77/112/55 79/106/55
f 78/113/56 74/139/56 76/107/56
f 60/77/77 59/76/77 58/73/77
f 40/115/58 37/140/58 38/56/58
f 45/116/59 46/67/59 47/66/59
f 64/88/78 63/86/78 62/81/78
