# Blender v2.79 (sub 0) OBJ File: '3DObjectDecoderObjects.blend'
# www.blender.org
o Cube.003_Cube.001
v -0.558914 0.567207 1.597660
v -0.265182 0.421440 1.834662
v -0.538771 0.922071 1.790952
v -0.245039 0.776304 2.027955
v 0.126986 0.884882 0.942966
v 0.420718 0.739114 1.179969
v 0.440861 1.093978 1.373261
v 0.147129 1.239746 1.136259
v 0.081938 -1.528677 1.044656
v 0.069197 -1.497881 0.641436
v 0.486302 -1.522770 1.032330
v 0.473561 -1.491974 0.629109
v 0.069706 -0.531684 1.121186
v 0.056965 -0.500889 0.717965
v 0.461329 -0.494982 0.705639
v 0.474070 -0.525778 1.108859
v 0.668541 1.266878 0.184499
v 1.007543 1.146465 0.369634
v 0.689040 1.621736 0.377765
v 1.028042 1.501323 0.562900
v 0.030118 0.095799 0.154964
v 0.031073 -0.254980 -0.046657
v 0.434476 0.103506 0.143470
v 0.435431 -0.247273 -0.058151
v 0.125044 0.889824 0.934460
v 0.463940 0.768743 1.120846
v 0.483576 1.119201 1.322374
v 0.149049 1.245845 1.125196
v 0.066500 -0.436131 1.071029
v 0.064297 -0.721819 0.810092
v 0.468681 -0.715177 0.798796
v 0.470819 -0.428634 1.058227
v -0.215762 0.660457 0.889143
v -0.443098 0.331957 0.953257
v -0.501950 0.891428 1.057798
v -0.729286 0.562929 1.121913
v -0.644665 0.782596 -0.005919
v -0.872001 0.454097 0.058195
v -1.158189 0.685068 0.226851
v -0.930853 1.013568 0.162736
v -0.082823 -2.026433 -0.568766
v -0.068459 -1.844549 -0.929887
v -0.487106 -2.013951 -0.578559
v -0.472742 -1.832067 -0.939681
v -0.066168 -1.133709 -0.118468
v -0.051805 -0.951825 -0.479590
v -0.456088 -0.939343 -0.489383
v -0.470452 -1.121227 -0.128262
v -0.464997 1.407013 -0.556562
v -0.745365 1.221141 -0.781400
v -0.752177 1.637618 -0.389095
v -1.032545 1.451746 -0.613932
v -0.037129 -0.064095 0.079071
v -0.025755 0.007122 -0.319045
v -0.441419 -0.051439 0.069785
v -0.430045 0.019778 -0.328331
v -0.591588 0.725753 0.164456
v -0.873530 0.535143 -0.056493
v -1.170637 0.734667 0.137166
v -0.885110 0.961606 0.313773
v -0.064500 -1.064011 -0.095093
v -0.052328 -0.969044 -0.491549
v -0.456621 -0.956626 -0.501006
v -0.468775 -1.051139 -0.104664
v 0.313209 0.079915 0.689348
v 0.313209 1.479915 0.689348
v 0.756786 0.079915 -0.023982
v 0.756786 1.479915 -0.023982
v -0.756786 0.079915 0.023982
v -0.756786 1.479915 0.023982
v -0.313209 0.079915 -0.689348
v -0.313209 1.479915 -0.689348
v 0.096532 1.579652 0.413215
v 0.095970 2.179651 0.413725
v 0.412995 1.580381 -0.096541
v 0.412433 2.180381 -0.096031
v -0.413224 1.579443 0.096752
v -0.413786 2.179442 0.097261
v -0.096761 1.580173 -0.413004
v -0.097323 2.180172 -0.412494
vt 0.151712 0.164304
vt 0.128453 0.121671
vt 0.152804 0.123501
vt 0.067175 0.157952
vt 0.127361 0.162474
vt 0.211899 0.168826
vt 0.150620 0.205107
vt 0.214083 0.087220
vt 0.153896 0.082698
vt 0.120318 0.196104
vt 0.141703 0.159716
vt 0.141869 0.195827
vt 0.194969 0.159030
vt 0.120152 0.159993
vt 0.066721 0.124568
vt 0.119987 0.123882
vt 0.066887 0.160679
vt 0.067218 0.232901
vt 0.120483 0.232215
vt 0.893013 0.803206
vt 0.953247 0.844041
vt 0.893013 0.844041
vt 0.953247 0.884875
vt 0.893013 0.884875
vt 0.893013 0.925710
vt 0.868643 0.884875
vt 0.808410 0.844041
vt 0.868643 0.844041
vt 0.977617 0.884875
vt 0.741845 0.545283
vt 0.663028 0.598717
vt 0.663028 0.545283
vt 0.741845 0.652150
vt 0.663028 0.652150
vt 0.741845 0.705584
vt 0.663028 0.705584
vt 0.631139 0.652150
vt 0.552321 0.598717
vt 0.631139 0.598717
vt 0.741845 0.598717
vt 0.773734 0.652150
vt 0.236250 0.170656
vt 0.212991 0.128023
vt 0.237342 0.129853
vt 0.045336 0.160957
vt 0.067052 0.196790
vt 0.045501 0.197068
vt 0.113861 0.154921
vt 0.095990 0.121280
vt 0.114964 0.123128
vt 0.047991 0.148506
vt 0.049093 0.116713
vt 0.116067 0.091335
vt 0.161861 0.127695
vt 0.160758 0.159488
vt 0.112759 0.186714
vt 0.159655 0.191281
vt 0.153193 0.158992
vt 0.134495 0.188340
vt 0.135087 0.158002
vt 0.197352 0.191779
vt 0.152601 0.189330
vt 0.133904 0.218678
vt 0.089745 0.185892
vt 0.090336 0.155553
vt 0.135678 0.127663
vt 0.090927 0.125215
vt 0.893013 0.809899
vt 0.820174 0.859280
vt 0.820174 0.809899
vt 0.893013 0.859280
vt 0.820174 0.908661
vt 0.893013 0.958041
vt 0.893013 0.908661
vt 0.922484 0.908660
vt 0.995323 0.859280
vt 0.995323 0.908660
vt 0.790703 0.908661
vt 0.668850 0.601598
vt 0.627314 0.573439
vt 0.668850 0.573439
vt 0.627314 0.629757
vt 0.627314 0.601598
vt 0.668850 0.629757
vt 0.627314 0.657916
vt 0.685655 0.629757
vt 0.727191 0.601598
vt 0.727191 0.629757
vt 0.610509 0.629757
vt 0.114767 0.168293
vt 0.095916 0.220936
vt 0.095916 0.168293
vt 0.143042 0.220936
vt 0.114767 0.220936
vt 0.161893 0.168293
vt 0.143042 0.168293
vt 0.114767 0.136707
vt 0.143042 0.084063
vt 0.143042 0.136707
vt 0.143042 0.252523
vt 0.679363 0.612195
vt 0.705410 0.568551
vt 0.705410 0.612195
vt 0.653316 0.612195
vt 0.679363 0.568551
vt 0.627270 0.612195
vt 0.653316 0.568551
vt 0.679363 0.655839
vt 0.653316 0.699483
vt 0.653316 0.655839
vt 0.653316 0.524907
vt 0.922484 0.859280
vt 0.180835 0.129543
vt 0.072230 0.154563
vt 0.071639 0.184901
vt 0.685655 0.601598
vt 0.068267 0.117149
vt 0.210807 0.209629
vt 0.195135 0.195141
vt 0.953247 0.803206
vt 0.953247 0.925710
vt 0.808410 0.884875
vt 0.977617 0.844041
vt 0.552321 0.652150
vt 0.773734 0.598717
vt 0.094887 0.153073
vt 0.162963 0.095902
vt 0.197943 0.161440
vt 0.089154 0.216230
vt 0.820174 0.958041
vt 0.790703 0.859280
vt 0.668850 0.657916
vt 0.610509 0.601598
vt 0.161893 0.220936
vt 0.114767 0.084063
vt 0.114767 0.252523
vt 0.627270 0.568551
vt 0.679363 0.699483
vt 0.679363 0.524907
vt 0.179732 0.161336
vn -0.6859 -0.3177 0.6547
vn -0.7260 0.3603 -0.5858
vn 0.0498 0.8771 0.4777
vn 0.7260 -0.3603 0.5858
vn -0.0498 -0.8771 -0.4777
vn 0.0122 -0.9970 -0.0765
vn 0.0315 -0.0761 0.9966
vn 0.9994 0.0146 -0.0305
vn -0.0315 0.0761 -0.9966
vn -0.9994 -0.0146 0.0305
vn -0.0507 -0.8771 -0.4777
vn 0.8400 -0.3051 0.4487
vn 0.0506 0.8771 0.4776
vn -0.8377 0.3007 -0.4559
vn 0.5435 0.3771 -0.7500
vn -0.9994 -0.0187 0.0289
vn 0.0010 -0.8777 -0.4793
vn 0.9994 0.0187 -0.0288
vn -0.0001 0.8648 0.5022
vn -0.0341 0.4980 -0.8665
vn -0.5724 -0.3844 0.7243
vn 0.6859 0.3177 -0.6547
vn -0.0122 0.9970 0.0765
vn 0.0317 -0.6710 0.7408
vn 0.4289 -0.1221 0.8951
vn 0.5619 0.8119 -0.1585
vn -0.7073 0.5709 0.4169
vn -0.5619 -0.8119 0.1585
vn 0.7073 -0.5709 -0.4169
vn -0.0167 -0.8927 -0.4503
vn -0.0355 -0.4495 0.8926
vn -0.9992 0.0309 -0.0242
vn 0.0355 0.4495 -0.8926
vn 0.9992 -0.0309 0.0242
vn 0.7098 -0.5700 -0.4139
vn -0.6928 -0.4586 -0.5565
vn -0.7094 0.5703 0.4141
vn 0.6913 0.4510 0.5645
vn 0.1266 0.6812 -0.7210
vn 0.9992 -0.0314 0.0232
vn 0.0280 0.1732 -0.9845
vn -0.9992 0.0313 -0.0230
vn -0.0280 -0.1711 0.9849
vn 0.0267 0.9839 0.1768
vn 0.8492 0.0000 0.5281
vn 0.5281 0.0000 -0.8492
vn -0.8492 -0.0000 -0.5281
vn -0.5281 -0.0000 0.8492
vn 0.0000 -1.0000 -0.0000
vn 0.0000 1.0000 0.0000
vn 0.8496 0.0003 0.5274
vn 0.5274 0.0012 -0.8496
vn -0.8496 -0.0003 -0.5274
vn -0.5274 -0.0012 0.8496
vn 0.0009 -1.0000 -0.0008
vn -0.0009 1.0000 0.0008
vn -0.1440 -0.6510 0.7453
vn -0.4289 0.1221 -0.8951
vn 0.0167 0.8927 0.4503
vn -0.0254 -0.9720 -0.2336
vn 0.8383 -0.2974 0.4571
vn 0.0507 0.8771 0.4777
vn -0.8387 0.2971 -0.4565
vn -0.9994 -0.0190 0.0284
vn 0.0031 -0.8780 -0.4786
vn 0.9994 0.0190 -0.0284
vn -0.0022 0.8643 0.5029
vn -0.5455 -0.3669 0.7535
vn 0.0359 -0.6741 0.7378
vn 0.7097 -0.5700 -0.4139
vn -0.6809 -0.4632 -0.5674
vn -0.7098 0.5700 0.4139
vn 0.6715 0.4762 0.5678
vn 0.9992 -0.0313 0.0230
vn 0.0284 0.1733 -0.9845
vn -0.9992 0.0314 -0.0232
vn -0.0288 -0.1708 0.9849
vn 0.0529 -0.6539 0.7548
vn -0.0244 -0.9723 -0.2326
s off
f 4/1/1 1/2/1 2/3/1
f 8/4/2 1/2/2 3/5/2
f 7/6/3 3/7/3 4/1/3
f 2/3/4 7/6/4 4/1/4
f 5/8/5 2/3/5 1/9/5
f 10/10/6 11/11/6 9/12/6
f 16/13/7 9/12/7 11/11/7
f 12/14/8 16/15/8 11/16/8
f 10/10/9 15/17/9 12/14/9
f 13/18/10 10/10/10 9/19/10
f 25/20/11 18/21/11 26/22/11
f 26/22/12 20/23/12 27/24/12
f 20/23/13 28/25/13 27/24/13
f 28/26/14 17/27/14 25/28/14
f 18/21/15 19/29/15 20/23/15
f 21/30/16 30/31/16 29/32/16
f 30/31/17 24/33/17 31/34/17
f 31/34/18 23/35/18 32/36/18
f 32/37/19 21/38/19 29/39/19
f 22/40/20 23/41/20 24/33/20
f 28/26/21 26/22/21 27/24/21
f 8/42/22 6/43/22 5/44/22
f 16/45/23 14/46/23 13/47/23
f 32/37/24 30/31/24 31/34/24
f 34/48/25 35/49/25 36/50/25
f 35/49/26 37/51/26 40/52/26
f 35/53/27 39/54/27 36/50/27
f 36/50/28 38/55/28 34/48/28
f 33/56/29 38/55/29 37/57/29
f 41/58/30 44/59/30 42/60/30
f 41/58/31 48/61/31 43/62/31
f 43/63/32 47/64/32 44/59/32
f 44/59/33 46/65/33 42/60/33
f 41/66/34 46/65/34 45/67/34
f 57/68/35 50/69/35 49/70/35
f 58/71/36 52/72/36 50/69/36
f 60/73/37 52/72/37 59/74/37
f 60/75/38 49/76/38 51/77/38
f 51/78/39 50/69/39 52/72/39
f 62/79/40 53/80/40 61/81/40
f 62/79/41 56/82/41 54/83/41
f 63/84/42 55/85/42 56/82/42
f 64/86/43 53/87/43 55/88/43
f 55/89/44 54/83/44 56/82/44
f 67/90/45 66/91/45 65/92/45
f 67/90/46 72/93/46 68/94/46
f 69/95/47 72/93/47 71/96/47
f 65/97/48 70/98/48 69/99/48
f 65/97/49 71/96/49 67/90/49
f 70/100/50 68/94/50 72/93/50
f 75/101/51 74/102/51 73/103/51
f 79/104/52 76/105/52 75/101/52
f 77/106/53 80/107/53 79/104/53
f 73/108/54 78/109/54 77/110/54
f 73/108/55 79/104/55 75/101/55
f 78/111/56 76/105/56 80/107/56
f 60/75/57 58/71/57 57/112/57
f 40/113/58 38/55/58 39/54/58
f 45/114/59 47/64/59 48/115/59
f 64/86/60 62/79/60 61/116/60
f 4/1/1 3/5/1 1/2/1
f 8/4/2 5/117/2 1/2/2
f 7/6/3 8/118/3 3/7/3
f 2/3/4 6/43/4 7/6/4
f 5/8/5 6/43/5 2/3/5
f 10/10/6 12/14/6 11/11/6
f 16/13/7 13/119/7 9/12/7
f 12/14/8 15/17/8 16/15/8
f 10/10/9 14/46/9 15/17/9
f 13/18/10 14/46/10 10/10/10
f 25/20/11 17/120/11 18/21/11
f 26/22/61 18/21/61 20/23/61
f 20/23/62 19/121/62 28/25/62
f 28/26/63 19/122/63 17/27/63
f 18/21/15 17/123/15 19/29/15
f 21/30/64 22/40/64 30/31/64
f 30/31/65 22/40/65 24/33/65
f 31/34/66 24/33/66 23/35/66
f 32/37/67 23/124/67 21/38/67
f 22/40/20 21/125/20 23/41/20
f 28/26/68 25/28/68 26/22/68
f 8/42/22 7/6/22 6/43/22
f 16/45/23 15/17/23 14/46/23
f 32/37/69 29/39/69 30/31/69
f 34/48/25 33/126/25 35/49/25
f 35/49/26 33/126/26 37/51/26
f 35/53/27 40/127/27 39/54/27
f 36/50/28 39/54/28 38/55/28
f 33/56/29 34/48/29 38/55/29
f 41/58/30 43/62/30 44/59/30
f 41/58/31 45/128/31 48/61/31
f 43/63/32 48/129/32 47/64/32
f 44/59/33 47/64/33 46/65/33
f 41/66/34 42/60/34 46/65/34
f 57/68/70 58/71/70 50/69/70
f 58/71/71 59/74/71 52/72/71
f 60/73/72 51/130/72 52/72/72
f 60/75/73 57/112/73 49/76/73
f 51/78/39 49/131/39 50/69/39
f 62/79/74 54/83/74 53/80/74
f 62/79/75 63/84/75 56/82/75
f 63/84/76 64/132/76 55/85/76
f 64/86/77 61/116/77 53/87/77
f 55/89/44 53/133/44 54/83/44
f 67/90/45 68/94/45 66/91/45
f 67/90/46 71/96/46 72/93/46
f 69/95/47 70/134/47 72/93/47
f 65/97/48 66/135/48 70/98/48
f 65/97/49 69/99/49 71/96/49
f 70/100/50 66/136/50 68/94/50
f 75/101/51 76/105/51 74/102/51
f 79/104/52 80/107/52 76/105/52
f 77/106/53 78/137/53 80/107/53
f 73/108/54 74/138/54 78/109/54
f 73/108/55 77/110/55 79/104/55
f 78/111/56 74/139/56 76/105/56
f 60/75/78 59/74/78 58/71/78
f 40/113/58 37/140/58 38/55/58
f 45/114/59 46/65/59 47/64/59
f 64/86/79 63/84/79 62/79/79
