# Blender v2.79 (sub 0) OBJ File: '3DObjectDecoderObjects.blend'
# www.blender.org
o Cube.003_Cube.001
v -0.510636 0.746515 1.608320
v -0.265485 0.673791 1.921862
v -0.531111 1.136325 1.714742
v -0.285960 1.063601 2.028284
v 0.283280 0.945109 1.033639
v 0.528431 0.872385 1.347182
v 0.507957 1.262195 1.453604
v 0.262805 1.334919 1.140061
v 0.083862 -1.870292 -0.598817
v 0.067408 -1.587824 -0.888022
v 0.488092 -1.855301 -0.607174
v 0.471638 -1.572833 -0.896378
v 0.071795 -1.155296 0.100209
v 0.055342 -0.872829 -0.188995
v 0.459572 -0.857838 -0.197351
v 0.476025 -1.140306 0.091853
v 0.664858 1.186916 0.219270
v 1.026774 1.156436 0.397553
v 0.645276 1.576777 0.325676
v 1.007192 1.546296 0.503958
v 0.036158 -0.076726 0.369588
v 0.025544 0.014986 -0.024334
v 0.440402 -0.061585 0.362220
v 0.429788 0.030127 -0.031702
v 0.220448 0.930338 1.077564
v 0.582012 0.898924 1.259262
v 0.559703 1.282608 1.388202
v 0.209806 1.322372 1.177573
v 0.069714 -1.080250 0.141567
v 0.057528 -0.945510 -0.241403
v 0.461780 -0.930749 -0.249164
v 0.473929 -1.064618 0.133748
v -0.380290 0.651004 0.827439
v -0.691604 0.646712 1.085836
v -0.294918 1.031123 0.936607
v -0.606233 1.026831 1.195004
v -0.983154 0.993372 0.106781
v -1.294469 0.989080 0.365178
v -1.209097 1.369199 0.474346
v -0.897783 1.373492 0.215949
v -0.081884 -1.879142 0.671787
v -0.069331 -1.939795 0.271961
v -0.486229 -1.874480 0.658385
v -0.473677 -1.935133 0.258559
v -0.065533 -0.890509 0.522327
v -0.052981 -0.951161 0.122501
v -0.457326 -0.946500 0.109100
v -0.469879 -0.885847 0.508925
v -0.588851 1.111894 -0.613378
v -0.963186 1.224114 -0.718191
v -0.505043 1.492608 -0.505073
v -0.879378 1.604828 -0.609886
v -0.035686 0.063224 -0.017390
v -0.027018 -0.138885 -0.367781
v -0.440036 0.068460 -0.030412
v -0.431369 -0.133649 -0.380803
v -0.906876 0.917896 0.314649
v -1.284222 1.028890 0.216586
v -1.219549 1.401244 0.369805
v -0.832106 1.306378 0.402590
v -0.063737 -0.817203 0.496810
v -0.054076 -0.993889 0.129432
v -0.458433 -0.989029 0.116422
v -0.468071 -0.811971 0.483328
v 0.313209 0.079915 0.689348
v 0.313209 1.479915 0.689348
v 0.756786 0.079915 -0.023982
v 0.756786 1.479915 -0.023982
v -0.756786 0.079915 0.023982
v -0.756786 1.479915 0.023982
v -0.313209 0.079915 -0.689348
v -0.313209 1.479915 -0.689348
v 0.096532 1.579652 0.413215
v 0.095970 2.179651 0.413725
v 0.412995 1.580381 -0.096541
v 0.412433 2.180381 -0.096031
v -0.413224 1.579443 0.096752
v -0.413786 2.179442 0.097261
v -0.096761 1.580173 -0.413004
v -0.097323 2.180172 -0.412494
vt 0.151712 0.164304
vt 0.128453 0.121671
vt 0.152804 0.123501
vt 0.067175 0.157952
vt 0.127361 0.162474
vt 0.211899 0.168826
vt 0.150620 0.205107
vt 0.212991 0.128023
vt 0.214083 0.087220
vt 0.153896 0.082698
vt 0.120318 0.196104
vt 0.141703 0.159716
vt 0.141869 0.195827
vt 0.194969 0.159030
vt 0.066887 0.160679
vt 0.119987 0.123882
vt 0.120152 0.159993
vt 0.067218 0.232901
vt 0.120483 0.232215
vt 0.893013 0.803206
vt 0.953247 0.844041
vt 0.893013 0.844041
vt 0.953247 0.884875
vt 0.893013 0.884875
vt 0.893013 0.925710
vt 0.868643 0.884875
vt 0.808410 0.844041
vt 0.868643 0.844041
vt 0.977617 0.844041
vt 0.977617 0.884875
vt 0.741845 0.545283
vt 0.663028 0.598717
vt 0.663028 0.545283
vt 0.741845 0.652150
vt 0.663028 0.652150
vt 0.741845 0.705584
vt 0.663028 0.705584
vt 0.631139 0.652150
vt 0.552321 0.598717
vt 0.631139 0.598717
vt 0.741845 0.598717
vt 0.773734 0.652150
vt 0.237342 0.129853
vt 0.236250 0.170656
vt 0.045336 0.160957
vt 0.067052 0.196790
vt 0.045501 0.197068
vt 0.094887 0.153073
vt 0.114964 0.123128
vt 0.113861 0.154921
vt 0.095990 0.121280
vt 0.047991 0.148506
vt 0.049093 0.116713
vt 0.116067 0.091335
vt 0.161861 0.127695
vt 0.160758 0.159488
vt 0.112759 0.186714
vt 0.159655 0.191281
vt 0.153193 0.158992
vt 0.134495 0.188340
vt 0.135087 0.158002
vt 0.197352 0.191779
vt 0.152601 0.189330
vt 0.133904 0.218678
vt 0.089745 0.185892
vt 0.090336 0.155553
vt 0.135678 0.127663
vt 0.090927 0.125215
vt 0.893013 0.809899
vt 0.820174 0.859280
vt 0.820174 0.809899
vt 0.893013 0.859280
vt 0.820174 0.908661
vt 0.893013 0.958041
vt 0.893013 0.908661
vt 0.922484 0.908660
vt 0.995323 0.859280
vt 0.995323 0.908660
vt 0.790703 0.859280
vt 0.668850 0.601598
vt 0.627314 0.573439
vt 0.668850 0.573439
vt 0.627314 0.629757
vt 0.627314 0.601598
vt 0.668850 0.629757
vt 0.627314 0.657916
vt 0.685655 0.629757
vt 0.727191 0.601598
vt 0.727191 0.629757
vt 0.610509 0.601598
vt 0.114767 0.168293
vt 0.095916 0.220936
vt 0.095916 0.168293
vt 0.143042 0.220936
vt 0.114767 0.220936
vt 0.161893 0.168293
vt 0.143042 0.168293
vt 0.114767 0.136707
vt 0.143042 0.084063
vt 0.143042 0.136707
vt 0.143042 0.252523
vt 0.679363 0.612195
vt 0.705410 0.568551
vt 0.705410 0.612195
vt 0.653316 0.612195
vt 0.679363 0.568551
vt 0.627270 0.612195
vt 0.653316 0.568551
vt 0.679363 0.655839
vt 0.653316 0.699483
vt 0.653316 0.655839
vt 0.653316 0.524907
vt 0.922484 0.859280
vt 0.179732 0.161336
vt 0.180835 0.129543
vt 0.072230 0.154563
vt 0.071639 0.184901
vt 0.685655 0.601598
vt 0.068267 0.117149
vt 0.210807 0.209629
vt 0.195135 0.195141
vt 0.066721 0.124568
vt 0.953247 0.803206
vt 0.953247 0.925710
vt 0.808410 0.884875
vt 0.552321 0.652150
vt 0.773734 0.598717
vt 0.162963 0.095902
vt 0.197943 0.161440
vt 0.089154 0.216230
vt 0.820174 0.958041
vt 0.790703 0.908661
vt 0.668850 0.657916
vt 0.610509 0.629757
vt 0.161893 0.220936
vt 0.114767 0.084063
vt 0.114767 0.252523
vt 0.627270 0.568551
vt 0.679363 0.699483
vt 0.679363 0.524907
vn -0.7939 -0.1986 0.5747
vn -0.6059 0.1797 -0.7750
vn -0.0506 0.9635 0.2630
vn 0.6059 -0.1797 0.7750
vn 0.0506 -0.9635 -0.2630
vn 0.0121 -0.7150 -0.6990
vn 0.0407 -0.6981 0.7148
vn 0.9991 0.0371 -0.0207
vn -0.0407 0.6981 -0.7148
vn -0.9991 -0.0371 0.0207
vn 0.0484 -0.9636 -0.2630
vn 0.8992 -0.0915 0.4278
vn -0.0487 0.9636 0.2627
vn -0.8950 0.0873 -0.4374
vn 0.4444 0.2566 -0.8583
vn -0.9991 -0.0376 0.0186
vn -0.0267 0.2198 -0.9752
vn 0.9991 0.0376 -0.0185
vn 0.0274 -0.2206 0.9750
vn -0.0323 0.9733 0.2275
vn -0.5168 -0.2996 0.8020
vn 0.7939 0.1986 -0.5747
vn -0.0121 0.7150 0.6990
vn 0.0281 -0.9433 -0.3307
vn 0.6029 -0.3424 0.7206
vn 0.7694 0.0106 -0.6386
vn 0.2110 0.9395 0.2698
vn -0.7694 -0.0106 0.6386
vn -0.2110 -0.9395 -0.2698
vn -0.0164 -0.9886 0.1495
vn -0.0310 0.1499 0.9882
vn -0.9994 0.0115 -0.0331
vn 0.0310 -0.1499 -0.9882
vn 0.9994 -0.0115 0.0331
vn -0.2071 -0.9410 -0.2677
vn -0.9250 0.2775 -0.2597
vn 0.2077 0.9409 0.2676
vn 0.9199 -0.2804 0.2739
vn 0.3180 0.1940 -0.9280
vn 0.9994 -0.0129 0.0325
vn 0.0213 -0.5031 -0.8640
vn -0.9994 0.0129 -0.0322
vn -0.0213 0.5044 0.8632
vn 0.0273 0.8662 -0.4990
vn 0.8492 0.0000 0.5281
vn 0.5281 0.0000 -0.8492
vn -0.8492 -0.0000 -0.5281
vn -0.5281 -0.0000 0.8492
vn 0.0000 -1.0000 -0.0000
vn 0.0000 1.0000 0.0000
vn 0.8496 0.0003 0.5274
vn 0.5274 0.0012 -0.8496
vn -0.8496 -0.0003 -0.5274
vn -0.5274 -0.0012 0.8496
vn 0.0009 -1.0000 -0.0008
vn -0.0009 1.0000 0.0008
vn -0.2915 -0.1575 0.9435
vn -0.6029 0.3424 -0.7206
vn 0.0164 0.9886 -0.1495
vn -0.0261 -0.9012 0.4327
vn 0.8951 -0.0750 0.4396
vn -0.0484 0.9636 0.2630
vn -0.8968 0.0740 -0.4363
vn -0.9991 -0.0374 0.0182
vn -0.0260 0.2195 -0.9753
vn 0.9991 0.0374 -0.0182
vn 0.0261 -0.2212 0.9749
vn -0.4528 -0.2319 0.8609
vn 0.0300 -0.9426 -0.3326
vn -0.2072 -0.9410 -0.2677
vn -0.9256 0.2699 -0.2653
vn 0.2071 0.9410 0.2677
vn 0.9326 -0.2405 0.2693
vn 0.9994 -0.0129 0.0322
vn 0.0218 -0.5029 -0.8640
vn -0.9994 0.0129 -0.0325
vn -0.0222 0.5047 0.8630
vn -0.1639 -0.3509 0.9220
vn -0.0248 -0.9006 0.4340
s off
f 4/1/1 1/2/1 2/3/1
f 8/4/2 1/2/2 3/5/2
f 7/6/3 3/7/3 4/1/3
f 6/8/4 4/1/4 2/3/4
f 5/9/5 2/3/5 1/10/5
f 10/11/6 11/12/6 9/13/6
f 16/14/7 9/13/7 11/12/7
f 15/15/8 11/16/8 12/17/8
f 10/11/9 15/15/9 12/17/9
f 13/18/10 10/11/10 9/19/10
f 25/20/11 18/21/11 26/22/11
f 26/22/12 20/23/12 27/24/12
f 20/23/13 28/25/13 27/24/13
f 28/26/14 17/27/14 25/28/14
f 20/23/15 17/29/15 19/30/15
f 21/31/16 30/32/16 29/33/16
f 30/32/17 24/34/17 31/35/17
f 31/35/18 23/36/18 32/37/18
f 32/38/19 21/39/19 29/40/19
f 22/41/20 23/42/20 24/34/20
f 28/26/21 26/22/21 27/24/21
f 7/6/22 5/43/22 8/44/22
f 16/45/23 14/46/23 13/47/23
f 32/38/24 30/32/24 31/35/24
f 33/48/25 36/49/25 34/50/25
f 35/51/26 37/52/26 40/53/26
f 35/54/27 39/55/27 36/49/27
f 36/49/28 38/56/28 34/50/28
f 33/57/29 38/56/29 37/58/29
f 41/59/30 44/60/30 42/61/30
f 41/59/31 48/62/31 43/63/31
f 43/64/32 47/65/32 44/60/32
f 44/60/33 46/66/33 42/61/33
f 41/67/34 46/66/34 45/68/34
f 57/69/35 50/70/35 49/71/35
f 58/72/36 52/73/36 50/70/36
f 60/74/37 52/73/37 59/75/37
f 60/76/38 49/77/38 51/78/38
f 52/73/39 49/79/39 50/70/39
f 62/80/40 53/81/40 61/82/40
f 62/80/41 56/83/41 54/84/41
f 63/85/42 55/86/42 56/83/42
f 64/87/43 53/88/43 55/89/43
f 56/83/44 53/90/44 54/84/44
f 67/91/45 66/92/45 65/93/45
f 67/91/46 72/94/46 68/95/46
f 69/96/47 72/94/47 71/97/47
f 65/98/48 70/99/48 69/100/48
f 65/98/49 71/97/49 67/91/49
f 70/101/50 68/95/50 72/94/50
f 75/102/51 74/103/51 73/104/51
f 79/105/52 76/106/52 75/102/52
f 77/107/53 80/108/53 79/105/53
f 73/109/54 78/110/54 77/111/54
f 73/109/55 79/105/55 75/102/55
f 78/112/56 76/106/56 80/108/56
f 60/76/57 58/72/57 57/113/57
f 37/114/58 39/55/58 40/115/58
f 45/116/59 47/65/59 48/117/59
f 64/87/60 62/80/60 61/118/60
f 4/1/1 3/5/1 1/2/1
f 8/4/2 5/119/2 1/2/2
f 7/6/3 8/120/3 3/7/3
f 6/8/4 7/6/4 4/1/4
f 5/9/5 6/8/5 2/3/5
f 10/11/6 12/17/6 11/12/6
f 16/14/7 13/121/7 9/13/7
f 15/15/8 16/122/8 11/16/8
f 10/11/9 14/46/9 15/15/9
f 13/18/10 14/46/10 10/11/10
f 25/20/11 17/123/11 18/21/11
f 26/22/61 18/21/61 20/23/61
f 20/23/62 19/124/62 28/25/62
f 28/26/63 19/125/63 17/27/63
f 20/23/15 18/21/15 17/29/15
f 21/31/64 22/41/64 30/32/64
f 30/32/65 22/41/65 24/34/65
f 31/35/66 24/34/66 23/36/66
f 32/38/67 23/126/67 21/39/67
f 22/41/20 21/127/20 23/42/20
f 28/26/68 25/28/68 26/22/68
f 7/6/22 6/8/22 5/43/22
f 16/45/23 15/15/23 14/46/23
f 32/38/69 29/40/69 30/32/69
f 33/48/25 35/51/25 36/49/25
f 35/51/26 33/48/26 37/52/26
f 35/54/27 40/128/27 39/55/27
f 36/49/28 39/55/28 38/56/28
f 33/57/29 34/50/29 38/56/29
f 41/59/30 43/63/30 44/60/30
f 41/59/31 45/129/31 48/62/31
f 43/64/32 48/130/32 47/65/32
f 44/60/33 47/65/33 46/66/33
f 41/67/34 42/61/34 46/66/34
f 57/69/70 58/72/70 50/70/70
f 58/72/71 59/75/71 52/73/71
f 60/74/72 51/131/72 52/73/72
f 60/76/73 57/113/73 49/77/73
f 52/73/39 51/132/39 49/79/39
f 62/80/74 54/84/74 53/81/74
f 62/80/75 63/85/75 56/83/75
f 63/85/76 64/133/76 55/86/76
f 64/87/77 61/118/77 53/88/77
f 56/83/44 55/134/44 53/90/44
f 67/91/45 68/95/45 66/92/45
f 67/91/46 71/97/46 72/94/46
f 69/96/47 70/135/47 72/94/47
f 65/98/48 66/136/48 70/99/48
f 65/98/49 69/100/49 71/97/49
f 70/101/50 66/137/50 68/95/50
f 75/102/51 76/106/51 74/103/51
f 79/105/52 80/108/52 76/106/52
f 77/107/53 78/138/53 80/108/53
f 73/109/54 74/139/54 78/110/54
f 73/109/55 77/111/55 79/105/55
f 78/112/56 74/140/56 76/106/56
f 60/76/78 59/75/78 58/72/78
f 37/114/58 38/56/58 39/55/58
f 45/116/59 46/66/59 47/65/59
f 64/87/79 63/85/79 62/80/79
