# Blender v2.79 (sub 0) OBJ File: '3DObjectDecoderObjects.blend'
# www.blender.org
o Cube.003_Cube.001
v -0.533805 0.651029 1.597972
v -0.266090 0.535299 1.878386
v -0.533865 1.025003 1.752372
v -0.266149 0.909274 2.032786
v 0.215974 0.903642 0.986402
v 0.483690 0.787913 1.266816
v 0.483630 1.161887 1.421216
v 0.215914 1.277617 1.140802
v 0.082827 -1.981910 -0.487787
v 0.068496 -1.782099 -0.839310
v 0.487099 -1.968344 -0.496558
v 0.472768 -1.768533 -0.848081
v 0.064401 -1.113012 0.006863
v 0.050070 -0.913201 -0.344660
v 0.454341 -0.899635 -0.353431
v 0.468672 -1.099446 -0.001908
v 0.663624 1.228178 0.199171
v 1.017531 1.152872 0.380211
v 0.664234 1.602164 0.353543
v 1.018141 1.526858 0.534583
v 0.037991 -0.102679 0.375797
v 0.025388 0.035019 -0.004439
v 0.442267 -0.089045 0.367333
v 0.429664 0.048653 -0.012902
v 0.178999 0.895105 1.007999
v 0.532679 0.818798 1.191500
v 0.531477 1.186170 1.362114
v 0.186250 1.271028 1.157608
v 0.062915 -1.051889 0.035161
v 0.049844 -0.900455 -0.342572
v 0.454122 -0.886948 -0.351151
v 0.467182 -1.038110 0.026545
v -0.238726 0.690438 0.852603
v -0.519375 0.435274 0.993429
v -0.437308 1.000949 1.019469
v -0.717957 0.745785 1.160295
v -0.765943 0.805689 0.010717
v -1.046592 0.550525 0.151544
v -1.245174 0.861037 0.318410
v -0.964525 1.116200 0.177583
v -0.082402 -1.517267 0.493653
v -0.068763 -1.385288 0.111432
v -0.486737 -1.508159 0.482370
v -0.473098 -1.376179 0.100150
v -0.070231 -0.572235 0.820404
v -0.056592 -0.440255 0.438184
v -0.460926 -0.431147 0.426901
v -0.474565 -0.563126 0.809121
v -0.467591 1.316154 -0.584030
v -0.806548 1.197251 -0.770247
v -0.667484 1.626431 -0.418298
v -1.006441 1.507528 -0.604514
v -0.028284 0.094002 -0.130251
v -0.032689 -0.253659 -0.337155
v -0.432602 0.105088 -0.140269
v -0.437007 -0.242573 -0.347173
v -0.700183 0.745595 0.203608
v -1.041522 0.622510 0.022417
v -1.256524 0.905314 0.221810
v -0.907907 1.061341 0.349619
v -0.066402 -0.464514 0.781397
v -0.066765 -0.726368 0.515357
v -0.471119 -0.716562 0.505401
v -0.470675 -0.453465 0.769811
v 0.313209 0.079915 0.689348
v 0.313209 1.479915 0.689348
v 0.756786 0.079915 -0.023982
v 0.756786 1.479915 -0.023982
v -0.756786 0.079915 0.023982
v -0.756786 1.479915 0.023982
v -0.313209 0.079915 -0.689348
v -0.313209 1.479915 -0.689348
v 0.096532 1.579652 0.413215
v 0.095970 2.179651 0.413725
v 0.412995 1.580381 -0.096541
v 0.412433 2.180381 -0.096031
v -0.413224 1.579443 0.096752
v -0.413786 2.179442 0.097261
v -0.096761 1.580173 -0.413004
v -0.097323 2.180172 -0.412494
vt 0.151712 0.164304
vt 0.128453 0.121671
vt 0.152804 0.123501
vt 0.067175 0.157952
vt 0.127361 0.162474
vt 0.211899 0.168826
vt 0.150620 0.205107
vt 0.212991 0.128023
vt 0.214083 0.087220
vt 0.153896 0.082698
vt 0.120318 0.196104
vt 0.141703 0.159716
vt 0.141869 0.195827
vt 0.194969 0.159030
vt 0.066887 0.160679
vt 0.119987 0.123882
vt 0.120152 0.159993
vt 0.120483 0.232215
vt 0.067052 0.196790
vt 0.893013 0.803206
vt 0.953247 0.844041
vt 0.893013 0.844041
vt 0.953247 0.884875
vt 0.893013 0.884875
vt 0.893013 0.925710
vt 0.868643 0.884875
vt 0.808410 0.844041
vt 0.868643 0.844041
vt 0.977617 0.884875
vt 0.741845 0.545283
vt 0.663028 0.598717
vt 0.663028 0.545283
vt 0.741845 0.652150
vt 0.663028 0.652150
vt 0.741845 0.705584
vt 0.663028 0.705584
vt 0.631139 0.652150
vt 0.552321 0.598717
vt 0.631139 0.598717
vt 0.741845 0.598717
vt 0.773734 0.652150
vt 0.237342 0.129853
vt 0.236250 0.170656
vt 0.045336 0.160957
vt 0.045501 0.197068
vt 0.094887 0.153073
vt 0.114964 0.123128
vt 0.113861 0.154921
vt 0.095990 0.121280
vt 0.047991 0.148506
vt 0.049093 0.116713
vt 0.116067 0.091335
vt 0.161861 0.127695
vt 0.160758 0.159488
vt 0.112759 0.186714
vt 0.159655 0.191281
vt 0.153193 0.158992
vt 0.134495 0.188340
vt 0.135087 0.158002
vt 0.152601 0.189330
vt 0.197943 0.161440
vt 0.197352 0.191779
vt 0.133904 0.218678
vt 0.089745 0.185892
vt 0.090336 0.155553
vt 0.090927 0.125215
vt 0.135678 0.127663
vt 0.893013 0.809899
vt 0.820174 0.859280
vt 0.820174 0.809899
vt 0.893013 0.859280
vt 0.820174 0.908661
vt 0.893013 0.958041
vt 0.893013 0.908661
vt 0.922484 0.908660
vt 0.995323 0.859280
vt 0.995323 0.908660
vt 0.790703 0.908661
vt 0.668850 0.601598
vt 0.627314 0.573439
vt 0.668850 0.573439
vt 0.627314 0.629757
vt 0.627314 0.601598
vt 0.668850 0.629757
vt 0.627314 0.657916
vt 0.685655 0.629757
vt 0.727191 0.601598
vt 0.727191 0.629757
vt 0.610509 0.629757
vt 0.114767 0.168293
vt 0.095916 0.220936
vt 0.095916 0.168293
vt 0.143042 0.220936
vt 0.114767 0.220936
vt 0.161893 0.168293
vt 0.143042 0.168293
vt 0.114767 0.136707
vt 0.143042 0.084063
vt 0.143042 0.136707
vt 0.143042 0.252523
vt 0.679363 0.612195
vt 0.705410 0.568551
vt 0.705410 0.612195
vt 0.653316 0.612195
vt 0.679363 0.568551
vt 0.627270 0.612195
vt 0.653316 0.568551
vt 0.679363 0.655839
vt 0.653316 0.699483
vt 0.653316 0.655839
vt 0.653316 0.524907
vt 0.922484 0.859280
vt 0.179732 0.161336
vt 0.180835 0.129543
vt 0.072230 0.154563
vt 0.071639 0.184901
vt 0.685655 0.601598
vt 0.068267 0.117149
vt 0.210807 0.209629
vt 0.195135 0.195141
vt 0.066721 0.124568
vt 0.067218 0.232901
vt 0.953247 0.803206
vt 0.953247 0.925710
vt 0.808410 0.884875
vt 0.977617 0.844041
vt 0.552321 0.652150
vt 0.773734 0.598717
vt 0.162963 0.095902
vt 0.089154 0.216230
vt 0.820174 0.958041
vt 0.790703 0.859280
vt 0.668850 0.657916
vt 0.610509 0.601598
vt 0.161893 0.220936
vt 0.114767 0.084063
vt 0.114767 0.252523
vt 0.627270 0.568551
vt 0.679363 0.699483
vt 0.679363 0.524907
vn -0.7498 -0.2526 0.6116
vn -0.6617 0.2860 -0.6931
vn -0.0001 0.9243 0.3816
vn 0.6617 -0.2860 0.6931
vn 0.0001 -0.9243 -0.3816
vn 0.0184 -0.8689 -0.4946
vn 0.0354 -0.4939 0.8688
vn 0.9992 0.0335 -0.0217
vn -0.0354 0.4939 -0.8688
vn -0.9992 -0.0335 0.0217
vn -0.0015 -0.9244 -0.3815
vn 0.8784 -0.1990 0.4346
vn 0.0013 0.9244 0.3814
vn -0.8747 0.1937 -0.4443
vn 0.4846 0.3331 -0.8088
vn -0.9992 -0.0338 0.0210
vn -0.0313 0.3391 -0.9402
vn 0.9992 0.0338 -0.0210
vn 0.0315 -0.3369 0.9410
vn -0.0245 0.9397 0.3411
vn -0.5395 -0.3561 0.7630
vn 0.7498 0.2526 -0.6116
vn -0.0184 0.8689 0.4946
vn 0.0231 -0.9279 -0.3722
vn 0.5272 -0.1152 0.8419
vn 0.6936 0.6306 -0.3481
vn -0.4908 0.7675 0.4124
vn -0.6936 -0.6306 0.3481
vn 0.4908 -0.7675 -0.4124
vn -0.0122 -0.9450 -0.3268
vn -0.0337 -0.3262 0.9447
vn -0.9994 0.0225 -0.0279
vn 0.0337 0.3262 -0.9447
vn 0.9994 -0.0225 0.0279
vn 0.4941 -0.7669 -0.4096
vn -0.8375 -0.2933 -0.4610
vn -0.4936 0.7672 0.4097
vn 0.8343 0.2857 0.4714
vn 0.2326 0.5705 -0.7876
vn 0.9993 -0.0270 0.0252
vn -0.0119 -0.8743 -0.4853
vn -0.9993 0.0274 -0.0248
vn 0.0104 0.8520 0.5234
vn 0.0353 0.5108 -0.8590
vn 0.8492 0.0000 0.5281
vn 0.5281 0.0000 -0.8492
vn -0.8492 -0.0000 -0.5281
vn -0.5281 -0.0000 0.8492
vn 0.0000 -1.0000 -0.0000
vn 0.0000 1.0000 0.0000
vn 0.8496 0.0003 0.5274
vn 0.5274 0.0012 -0.8496
vn -0.8496 -0.0003 -0.5274
vn -0.5274 -0.0012 0.8496
vn 0.0009 -1.0000 -0.0008
vn -0.0009 1.0000 0.0008
vn -0.2389 -0.5326 0.8119
vn -0.5272 0.1152 -0.8419
vn 0.0122 0.9450 0.3268
vn -0.0396 -0.7121 0.7010
vn -0.0015 -0.9243 -0.3815
vn 0.8752 -0.1858 0.4466
vn 0.0015 0.9243 0.3816
vn -0.8763 0.1850 -0.4448
vn -0.9992 -0.0337 0.0209
vn -0.0311 0.3390 -0.9403
vn 0.9992 0.0337 -0.0209
vn 0.0311 -0.3371 0.9410
vn -0.4897 -0.3142 0.8133
vn 0.0237 -0.9276 -0.3727
vn 0.4940 -0.7669 -0.4096
vn -0.8302 -0.2999 -0.4698
vn -0.4941 0.7669 0.4096
vn 0.8201 0.3203 0.4742
vn 0.9993 -0.0274 0.0248
vn -0.0092 -0.8738 -0.4862
vn -0.9993 0.0270 -0.0252
vn 0.0083 0.8525 0.5226
vn -0.0307 -0.5914 0.8058
vn -0.0345 -0.7084 0.7050
s off
f 4/1/1 1/2/1 2/3/1
f 8/4/2 1/2/2 3/5/2
f 7/6/3 3/7/3 4/1/3
f 6/8/4 4/1/4 2/3/4
f 5/9/5 2/3/5 1/10/5
f 10/11/6 11/12/6 9/13/6
f 16/14/7 9/13/7 11/12/7
f 15/15/8 11/16/8 12/17/8
f 10/11/9 15/15/9 12/17/9
f 9/18/10 14/19/10 10/11/10
f 25/20/11 18/21/11 26/22/11
f 26/22/12 20/23/12 27/24/12
f 20/23/13 28/25/13 27/24/13
f 28/26/14 17/27/14 25/28/14
f 18/21/15 19/29/15 20/23/15
f 21/30/16 30/31/16 29/32/16
f 30/31/17 24/33/17 31/34/17
f 31/34/18 23/35/18 32/36/18
f 32/37/19 21/38/19 29/39/19
f 22/40/20 23/41/20 24/33/20
f 28/26/21 26/22/21 27/24/21
f 7/6/22 5/42/22 8/43/22
f 16/44/23 14/19/23 13/45/23
f 32/37/24 30/31/24 31/34/24
f 33/46/25 36/47/25 34/48/25
f 35/49/26 37/50/26 40/51/26
f 35/52/27 39/53/27 36/47/27
f 36/47/28 38/54/28 34/48/28
f 33/55/29 38/54/29 37/56/29
f 41/57/30 44/58/30 42/59/30
f 43/60/31 45/61/31 48/62/31
f 43/63/32 47/64/32 44/58/32
f 44/58/33 46/65/33 42/59/33
f 42/59/34 45/66/34 41/67/34
f 57/68/35 50/69/35 49/70/35
f 58/71/36 52/72/36 50/69/36
f 60/73/37 52/72/37 59/74/37
f 60/75/38 49/76/38 51/77/38
f 51/78/39 50/69/39 52/72/39
f 62/79/40 53/80/40 61/81/40
f 62/79/41 56/82/41 54/83/41
f 63/84/42 55/85/42 56/82/42
f 64/86/43 53/87/43 55/88/43
f 55/89/44 54/83/44 56/82/44
f 67/90/45 66/91/45 65/92/45
f 67/90/46 72/93/46 68/94/46
f 69/95/47 72/93/47 71/96/47
f 65/97/48 70/98/48 69/99/48
f 65/97/49 71/96/49 67/90/49
f 70/100/50 68/94/50 72/93/50
f 75/101/51 74/102/51 73/103/51
f 79/104/52 76/105/52 75/101/52
f 77/106/53 80/107/53 79/104/53
f 73/108/54 78/109/54 77/110/54
f 73/108/55 79/104/55 75/101/55
f 78/111/56 76/105/56 80/107/56
f 60/75/57 58/71/57 57/112/57
f 37/113/58 39/53/58 40/114/58
f 45/115/59 47/64/59 48/116/59
f 64/86/60 62/79/60 61/117/60
f 4/1/1 3/5/1 1/2/1
f 8/4/2 5/118/2 1/2/2
f 7/6/3 8/119/3 3/7/3
f 6/8/4 7/6/4 4/1/4
f 5/9/5 6/8/5 2/3/5
f 10/11/6 12/17/6 11/12/6
f 16/14/7 13/120/7 9/13/7
f 15/15/8 16/121/8 11/16/8
f 10/11/9 14/19/9 15/15/9
f 9/18/10 13/122/10 14/19/10
f 25/20/61 17/123/61 18/21/61
f 26/22/62 18/21/62 20/23/62
f 20/23/63 19/124/63 28/25/63
f 28/26/64 19/125/64 17/27/64
f 18/21/15 17/126/15 19/29/15
f 21/30/65 22/40/65 30/31/65
f 30/31/66 22/40/66 24/33/66
f 31/34/67 24/33/67 23/35/67
f 32/37/68 23/127/68 21/38/68
f 22/40/20 21/128/20 23/41/20
f 28/26/69 25/28/69 26/22/69
f 7/6/22 6/8/22 5/42/22
f 16/44/23 15/15/23 14/19/23
f 32/37/70 29/39/70 30/31/70
f 33/46/25 35/49/25 36/47/25
f 35/49/26 33/46/26 37/50/26
f 35/52/27 40/129/27 39/53/27
f 36/47/28 39/53/28 38/54/28
f 33/55/29 34/48/29 38/54/29
f 41/57/30 43/60/30 44/58/30
f 43/60/31 41/57/31 45/61/31
f 43/63/32 48/130/32 47/64/32
f 44/58/33 47/64/33 46/65/33
f 42/59/34 46/65/34 45/66/34
f 57/68/71 58/71/71 50/69/71
f 58/71/72 59/74/72 52/72/72
f 60/73/73 51/131/73 52/72/73
f 60/75/74 57/112/74 49/76/74
f 51/78/39 49/132/39 50/69/39
f 62/79/75 54/83/75 53/80/75
f 62/79/76 63/84/76 56/82/76
f 63/84/77 64/133/77 55/85/77
f 64/86/78 61/117/78 53/87/78
f 55/89/44 53/134/44 54/83/44
f 67/90/45 68/94/45 66/91/45
f 67/90/46 71/96/46 72/93/46
f 69/95/47 70/135/47 72/93/47
f 65/97/48 66/136/48 70/98/48
f 65/97/49 69/99/49 71/96/49
f 70/100/50 66/137/50 68/94/50
f 75/101/51 76/105/51 74/102/51
f 79/104/52 80/107/52 76/105/52
f 77/106/53 78/138/53 80/107/53
f 73/108/54 74/139/54 78/109/54
f 73/108/55 77/110/55 79/104/55
f 78/111/56 74/140/56 76/105/56
f 60/75/79 59/74/79 58/71/79
f 37/113/58 38/54/58 39/53/58
f 45/115/59 46/65/59 47/64/59
f 64/86/80 63/84/80 62/79/80
