# Blender v2.79 (sub 0) OBJ File: '3DObjectDecoderObjects.blend'
# www.blender.org
o Cube.003_Cube.001
v -0.507526 0.753002 1.610281
v -0.264182 0.687065 1.926718
v -0.531949 1.144206 1.710578
v -0.288605 1.078269 2.027015
v 0.289100 0.949311 1.038572
v 0.532444 0.883374 1.355010
v 0.508020 1.274578 1.455307
v 0.264677 1.340515 1.138870
v 0.084507 -1.750132 -0.908435
v 0.066856 -1.444197 -1.172614
v 0.488675 -1.733011 -0.915613
v 0.471024 -1.427077 -1.179792
v 0.070291 -1.097100 -0.151236
v 0.052640 -0.791166 -0.415416
v 0.456808 -0.774045 -0.422594
v 0.474459 -1.079979 -0.158414
v 0.666479 1.181723 0.221759
v 1.028656 1.157680 0.400496
v 0.642963 1.572986 0.322042
v 1.005140 1.548943 0.500779
v 0.038122 -0.138394 0.377461
v 0.024257 0.053931 0.021769
v 0.442302 -0.121291 0.370953
v 0.428437 0.071035 0.015261
v 0.224540 0.934171 1.083971
v 0.586354 0.909230 1.266192
v 0.560034 1.294543 1.389466
v 0.210116 1.327626 1.177752
v 0.068506 -1.037087 -0.102779
v 0.053577 -0.817649 -0.446190
v 0.457762 -0.800750 -0.453002
v 0.472665 -1.019606 -0.109527
v -0.398459 0.657633 0.829616
v -0.702582 0.678613 1.095648
v -0.286379 1.033717 0.928083
v -0.590502 1.054697 1.194115
v -0.997014 1.022710 0.116552
v -1.301137 1.043690 0.382584
v -1.189057 1.419774 0.481050
v -0.884934 1.398794 0.215018
v -0.082168 -1.746770 0.951656
v -0.069104 -1.900222 0.577519
v -0.486485 -1.744926 0.936782
v -0.473421 -1.898379 0.562644
v -0.064012 -0.821496 0.572790
v -0.050947 -0.974948 0.198653
v -0.455264 -0.973104 0.183778
v -0.468329 -0.819652 0.557916
v -0.606819 1.097104 -0.610642
v -0.974762 1.231341 -0.712150
v -0.496293 1.473869 -0.513027
v -0.864236 1.608106 -0.614536
v -0.037092 0.073086 -0.031495
v -0.026159 -0.154442 -0.365874
v -0.441413 0.075280 -0.046210
v -0.430479 -0.152246 -0.380588
v -0.920512 0.946240 0.326826
v -1.291415 1.079591 0.232211
v -1.199695 1.450199 0.375685
v -0.819021 1.330959 0.403918
v -0.062469 -0.760345 0.540026
v -0.050974 -0.975267 0.194012
v -0.455297 -0.973279 0.179337
v -0.466779 -0.758192 0.525057
v 0.313209 0.079915 0.689348
v 0.313209 1.479915 0.689348
v 0.756786 0.079915 -0.023982
v 0.756786 1.479915 -0.023982
v -0.756786 0.079915 0.023982
v -0.756786 1.479915 0.023982
v -0.313209 0.079915 -0.689348
v -0.313209 1.479915 -0.689348
v 0.096532 1.579652 0.413215
v 0.095970 2.179651 0.413725
v 0.412995 1.580381 -0.096541
v 0.412433 2.180381 -0.096031
v -0.413224 1.579443 0.096752
v -0.413786 2.179442 0.097261
v -0.096761 1.580173 -0.413004
v -0.097323 2.180172 -0.412494
vt 0.151712 0.164304
vt 0.128453 0.121671
vt 0.152804 0.123501
vt 0.067175 0.157952
vt 0.127361 0.162474
vt 0.211899 0.168826
vt 0.150620 0.205107
vt 0.212991 0.128023
vt 0.153896 0.082698
vt 0.120318 0.196104
vt 0.141703 0.159716
vt 0.141869 0.195827
vt 0.194969 0.159030
vt 0.066887 0.160679
vt 0.119987 0.123882
vt 0.120152 0.159993
vt 0.120483 0.232215
vt 0.067052 0.196790
vt 0.893013 0.803206
vt 0.953247 0.844041
vt 0.893013 0.844041
vt 0.953247 0.884875
vt 0.893013 0.884875
vt 0.893013 0.925710
vt 0.868643 0.884875
vt 0.808410 0.844041
vt 0.868643 0.844041
vt 0.977617 0.844041
vt 0.977617 0.884875
vt 0.741845 0.545283
vt 0.663028 0.598717
vt 0.663028 0.545283
vt 0.741845 0.652150
vt 0.663028 0.652150
vt 0.741845 0.705584
vt 0.663028 0.705584
vt 0.631139 0.652150
vt 0.552321 0.598717
vt 0.631139 0.598717
vt 0.741845 0.598717
vt 0.773734 0.652150
vt 0.237342 0.129853
vt 0.236250 0.170656
vt 0.045336 0.160957
vt 0.045501 0.197068
vt 0.094887 0.153073
vt 0.114964 0.123128
vt 0.113861 0.154921
vt 0.095990 0.121280
vt 0.047991 0.148506
vt 0.049093 0.116713
vt 0.116067 0.091335
vt 0.161861 0.127695
vt 0.160758 0.159488
vt 0.112759 0.186714
vt 0.159655 0.191281
vt 0.153193 0.158992
vt 0.134495 0.188340
vt 0.135087 0.158002
vt 0.197352 0.191779
vt 0.152601 0.189330
vt 0.133904 0.218678
vt 0.089745 0.185892
vt 0.090336 0.155553
vt 0.135678 0.127663
vt 0.090927 0.125215
vt 0.893013 0.809899
vt 0.820174 0.859280
vt 0.820174 0.809899
vt 0.893013 0.859280
vt 0.820174 0.908661
vt 0.893013 0.958041
vt 0.893013 0.908661
vt 0.922484 0.908660
vt 0.995323 0.859280
vt 0.995323 0.908660
vt 0.790703 0.859280
vt 0.668850 0.601598
vt 0.627314 0.573439
vt 0.668850 0.573439
vt 0.627314 0.629757
vt 0.627314 0.601598
vt 0.668850 0.629757
vt 0.627314 0.657916
vt 0.685655 0.629757
vt 0.727191 0.601598
vt 0.727191 0.629757
vt 0.610509 0.601598
vt 0.114767 0.168293
vt 0.095916 0.220936
vt 0.095916 0.168293
vt 0.143042 0.220936
vt 0.114767 0.220936
vt 0.161893 0.168293
vt 0.143042 0.168293
vt 0.114767 0.136707
vt 0.143042 0.084063
vt 0.143042 0.136707
vt 0.143042 0.252523
vt 0.679363 0.612195
vt 0.705410 0.568551
vt 0.705410 0.612195
vt 0.653316 0.612195
vt 0.679363 0.568551
vt 0.627270 0.612195
vt 0.653316 0.568551
vt 0.679363 0.655839
vt 0.653316 0.699483
vt 0.653316 0.655839
vt 0.653316 0.524907
vt 0.922484 0.859280
vt 0.179732 0.161336
vt 0.180835 0.129543
vt 0.072230 0.154563
vt 0.071639 0.184901
vt 0.685655 0.601598
vt 0.068267 0.117149
vt 0.210807 0.209629
vt 0.214083 0.087220
vt 0.195135 0.195141
vt 0.066721 0.124568
vt 0.067218 0.232901
vt 0.953247 0.803206
vt 0.953247 0.925710
vt 0.808410 0.884875
vt 0.552321 0.652150
vt 0.773734 0.598717
vt 0.162963 0.095902
vt 0.197943 0.161440
vt 0.089154 0.216230
vt 0.820174 0.958041
vt 0.790703 0.908661
vt 0.668850 0.657916
vt 0.610509 0.629757
vt 0.161893 0.220936
vt 0.114767 0.084063
vt 0.114767 0.252523
vt 0.627270 0.568551
vt 0.679363 0.699483
vt 0.679363 0.524907
vn -0.7966 -0.1963 0.5717
vn -0.6015 0.1630 -0.7821
vn -0.0604 0.9669 0.2479
vn 0.6015 -0.1630 0.7821
vn 0.0604 -0.9669 -0.2479
vn 0.0142 -0.6530 -0.7572
vn 0.0436 -0.7561 0.6529
vn 0.9989 0.0423 -0.0177
vn -0.0436 0.7561 -0.6529
vn -0.9989 -0.0423 0.0177
vn 0.0582 -0.9671 -0.2478
vn 0.9001 -0.0758 0.4291
vn -0.0584 0.9671 0.2476
vn -0.8958 0.0717 -0.4386
vn 0.4419 0.2476 -0.8622
vn -0.9990 -0.0425 0.0163
vn -0.0346 0.4720 -0.8809
vn 0.9990 0.0425 -0.0163
vn 0.0351 -0.4701 0.8819
vn -0.0295 0.8788 0.4763
vn -0.5151 -0.2929 0.8055
vn 0.7966 0.1963 -0.5717
vn -0.0142 0.6530 0.7572
vn 0.0262 -0.8425 -0.5380
vn 0.5986 -0.3651 0.7131
vn 0.7517 -0.0519 -0.6575
vn 0.2770 0.9295 0.2434
vn -0.7517 0.0519 0.6575
vn -0.2770 -0.9295 -0.2434
vn -0.0182 -0.9253 0.3789
vn -0.0323 0.3793 0.9247
vn -0.9993 0.0046 -0.0368
vn 0.0323 -0.3793 -0.9247
vn 0.9993 -0.0046 0.0368
vn -0.2732 -0.9312 -0.2413
vn -0.9092 0.3319 -0.2515
vn 0.2738 0.9311 0.2412
vn 0.9041 -0.3342 0.2661
vn 0.3137 0.1509 -0.9375
vn 0.9993 -0.0054 0.0365
vn 0.0270 -0.5638 -0.8254
vn -0.9993 0.0054 -0.0364
vn -0.0269 0.5657 0.8242
vn 0.0249 0.8269 -0.5618
vn 0.8492 0.0000 0.5281
vn 0.5281 0.0000 -0.8492
vn -0.8492 -0.0000 -0.5281
vn -0.5281 -0.0000 0.8492
vn 0.0000 -1.0000 -0.0000
vn 0.0000 1.0000 0.0000
vn 0.8496 0.0003 0.5274
vn 0.5274 0.0012 -0.8496
vn -0.8496 -0.0003 -0.5274
vn -0.5274 -0.0012 0.8496
vn 0.0009 -1.0000 -0.0008
vn -0.0009 1.0000 0.0008
vn -0.2844 -0.1157 0.9517
vn -0.5986 0.3651 -0.7131
vn 0.0182 0.9253 -0.3789
vn -0.0240 -0.8496 0.5269
vn 0.0581 -0.9671 -0.2479
vn 0.8957 -0.0591 0.4407
vn -0.0581 0.9670 0.2479
vn -0.8974 0.0581 -0.4373
vn -0.9990 -0.0422 0.0161
vn -0.0342 0.4719 -0.8810
vn 0.9990 0.0422 -0.0161
vn 0.0341 -0.4705 0.8818
vn -0.4507 -0.2226 0.8645
vn 0.0274 -0.8418 -0.5391
vn -0.2733 -0.9312 -0.2413
vn -0.9104 0.3246 -0.2566
vn 0.2732 0.9312 0.2413
vn 0.9195 -0.2947 0.2602
vn 0.9993 -0.0054 0.0364
vn 0.0272 -0.5638 -0.8255
vn -0.9993 0.0054 -0.0365
vn -0.0275 0.5659 0.8240
vn -0.1691 -0.3191 0.9325
vn -0.0233 -0.8492 0.5276
s off
f 4/1/1 1/2/1 2/3/1
f 8/4/2 1/2/2 3/5/2
f 7/6/3 3/7/3 4/1/3
f 6/8/4 4/1/4 2/3/4
f 1/9/5 6/8/5 2/3/5
f 10/10/6 11/11/6 9/12/6
f 16/13/7 9/12/7 11/11/7
f 15/14/8 11/15/8 12/16/8
f 10/10/9 15/14/9 12/16/9
f 9/17/10 14/18/10 10/10/10
f 25/19/11 18/20/11 26/21/11
f 26/21/12 20/22/12 27/23/12
f 20/22/13 28/24/13 27/23/13
f 28/25/14 17/26/14 25/27/14
f 20/22/15 17/28/15 19/29/15
f 21/30/16 30/31/16 29/32/16
f 30/31/17 24/33/17 31/34/17
f 31/34/18 23/35/18 32/36/18
f 32/37/19 21/38/19 29/39/19
f 22/40/20 23/41/20 24/33/20
f 28/25/21 26/21/21 27/23/21
f 7/6/22 5/42/22 8/43/22
f 16/44/23 14/18/23 13/45/23
f 32/37/24 30/31/24 31/34/24
f 33/46/25 36/47/25 34/48/25
f 35/49/26 37/50/26 40/51/26
f 35/52/27 39/53/27 36/47/27
f 36/47/28 38/54/28 34/48/28
f 33/55/29 38/54/29 37/56/29
f 41/57/30 44/58/30 42/59/30
f 41/57/31 48/60/31 43/61/31
f 43/62/32 47/63/32 44/58/32
f 44/58/33 46/64/33 42/59/33
f 41/65/34 46/64/34 45/66/34
f 57/67/35 50/68/35 49/69/35
f 58/70/36 52/71/36 50/68/36
f 60/72/37 52/71/37 59/73/37
f 60/74/38 49/75/38 51/76/38
f 52/71/39 49/77/39 50/68/39
f 62/78/40 53/79/40 61/80/40
f 62/78/41 56/81/41 54/82/41
f 63/83/42 55/84/42 56/81/42
f 64/85/43 53/86/43 55/87/43
f 56/81/44 53/88/44 54/82/44
f 67/89/45 66/90/45 65/91/45
f 67/89/46 72/92/46 68/93/46
f 69/94/47 72/92/47 71/95/47
f 65/96/48 70/97/48 69/98/48
f 65/96/49 71/95/49 67/89/49
f 70/99/50 68/93/50 72/92/50
f 75/100/51 74/101/51 73/102/51
f 79/103/52 76/104/52 75/100/52
f 77/105/53 80/106/53 79/103/53
f 73/107/54 78/108/54 77/109/54
f 73/107/55 79/103/55 75/100/55
f 78/110/56 76/104/56 80/106/56
f 60/74/57 58/70/57 57/111/57
f 37/112/58 39/53/58 40/113/58
f 45/114/59 47/63/59 48/115/59
f 64/85/60 62/78/60 61/116/60
f 4/1/1 3/5/1 1/2/1
f 8/4/2 5/117/2 1/2/2
f 7/6/3 8/118/3 3/7/3
f 6/8/4 7/6/4 4/1/4
f 1/9/5 5/119/5 6/8/5
f 10/10/6 12/16/6 11/11/6
f 16/13/7 13/120/7 9/12/7
f 15/14/8 16/121/8 11/15/8
f 10/10/9 14/18/9 15/14/9
f 9/17/10 13/122/10 14/18/10
f 25/19/61 17/123/61 18/20/61
f 26/21/62 18/20/62 20/22/62
f 20/22/63 19/124/63 28/24/63
f 28/25/64 19/125/64 17/26/64
f 20/22/15 18/20/15 17/28/15
f 21/30/65 22/40/65 30/31/65
f 30/31/66 22/40/66 24/33/66
f 31/34/67 24/33/67 23/35/67
f 32/37/68 23/126/68 21/38/68
f 22/40/20 21/127/20 23/41/20
f 28/25/69 25/27/69 26/21/69
f 7/6/22 6/8/22 5/42/22
f 16/44/23 15/14/23 14/18/23
f 32/37/70 29/39/70 30/31/70
f 33/46/25 35/49/25 36/47/25
f 35/49/26 33/46/26 37/50/26
f 35/52/27 40/128/27 39/53/27
f 36/47/28 39/53/28 38/54/28
f 33/55/29 34/48/29 38/54/29
f 41/57/30 43/61/30 44/58/30
f 41/57/31 45/129/31 48/60/31
f 43/62/32 48/130/32 47/63/32
f 44/58/33 47/63/33 46/64/33
f 41/65/34 42/59/34 46/64/34
f 57/67/71 58/70/71 50/68/71
f 58/70/72 59/73/72 52/71/72
f 60/72/73 51/131/73 52/71/73
f 60/74/74 57/111/74 49/75/74
f 52/71/39 51/132/39 49/77/39
f 62/78/75 54/82/75 53/79/75
f 62/78/76 63/83/76 56/81/76
f 63/83/77 64/133/77 55/84/77
f 64/85/78 61/116/78 53/86/78
f 56/81/44 55/134/44 53/88/44
f 67/89/45 68/93/45 66/90/45
f 67/89/46 71/95/46 72/92/46
f 69/94/47 70/135/47 72/92/47
f 65/96/48 66/136/48 70/97/48
f 65/96/49 69/98/49 71/95/49
f 70/99/50 66/137/50 68/93/50
f 75/100/51 76/104/51 74/101/51
f 79/103/52 80/106/52 76/104/52
f 77/105/53 78/138/53 80/106/53
f 73/107/54 74/139/54 78/108/54
f 73/107/55 77/109/55 79/103/55
f 78/110/56 74/140/56 76/104/56
f 60/74/79 59/73/79 58/70/79
f 37/112/58 38/54/58 39/53/58
f 45/114/59 46/64/59 47/63/59
f 64/85/80 63/83/80 62/78/80
