# Blender v2.79 (sub 0) OBJ File: '3DObjectDecoderObjects.blend'
# www.blender.org
o Cube.003_Cube.001
v -0.544332 0.637752 1.595715
v -0.271257 0.503137 1.862184
v -0.530451 1.004215 1.766619
v -0.257377 0.869601 2.033089
v 0.192749 0.900254 0.972975
v 0.465823 0.765640 1.239445
v 0.479704 1.132104 1.410349
v 0.206629 1.266718 1.143879
v 0.082503 -1.911617 0.313768
v 0.068652 -1.745642 -0.054957
v 0.486834 -1.901756 0.303017
v 0.472983 -1.735781 -0.065708
v 0.071189 -0.999957 0.724558
v 0.057338 -0.833982 0.355832
v 0.461669 -0.824120 0.345082
v 0.475520 -0.990095 0.713807
v 0.659367 1.245082 0.194517
v 1.010281 1.148748 0.371368
v 0.673854 1.611538 0.365385
v 1.024768 1.515205 0.542237
v 0.032695 0.048412 0.286709
v 0.028526 -0.120132 -0.081087
v 0.437033 0.059209 0.277178
v 0.432864 -0.109334 -0.090618
v 0.162908 0.894444 0.988609
v 0.513620 0.797110 1.167651
v 0.526504 1.156968 1.352984
v 0.183398 1.262666 1.155144
v 0.068557 -0.901452 0.724506
v 0.062005 -1.003956 0.339447
v 0.466359 -0.993961 0.329669
v 0.472859 -0.890328 0.714002
v -0.235980 0.642881 0.855315
v -0.520757 0.384492 0.981179
v -0.435327 0.948085 1.030836
v -0.720104 0.689695 1.156700
v -0.747684 0.794958 0.009713
v -1.032461 0.536569 0.135577
v -1.231808 0.841773 0.311098
v -0.947031 1.100162 0.185234
v -0.081904 -2.086438 -0.136915
v -0.069365 -2.011914 -0.534390
v -0.486233 -2.076666 -0.147838
v -0.473694 -2.002142 -0.545312
v -0.063148 -1.103845 0.047908
v -0.050609 -1.029321 -0.349566
v -0.454938 -1.019549 -0.360489
v -0.467477 -1.094073 0.036986
v -0.468738 1.321162 -0.588595
v -0.809009 1.202610 -0.772627
v -0.669340 1.626172 -0.414170
v -1.009611 1.507620 -0.598202
v -0.037092 -0.028108 0.064947
v -0.026308 -0.022754 -0.339469
v -0.441424 -0.018168 0.054296
v -0.430640 -0.012815 -0.350119
v -0.685327 0.733077 0.190670
v -1.027887 0.610370 0.011334
v -1.243015 0.888064 0.217234
v -0.893412 1.043878 0.346321
v -0.061659 -1.036689 0.054689
v -0.050416 -1.017316 -0.351887
v -0.454750 -1.007537 -0.362605
v -0.465983 -1.026661 0.043844
v 0.313209 0.079915 0.689348
v 0.313209 1.479915 0.689348
v 0.756786 0.079915 -0.023982
v 0.756786 1.479915 -0.023982
v -0.756786 0.079915 0.023982
v -0.756786 1.479915 0.023982
v -0.313209 0.079915 -0.689348
v -0.313209 1.479915 -0.689348
v 0.096532 1.579652 0.413215
v 0.095970 2.179651 0.413725
v 0.412995 1.580381 -0.096541
v 0.412433 2.180381 -0.096031
v -0.413224 1.579443 0.096752
v -0.413786 2.179442 0.097261
v -0.096761 1.580173 -0.413004
v -0.097323 2.180172 -0.412494
vt 0.151712 0.164304
vt 0.128453 0.121671
vt 0.152804 0.123501
vt 0.127361 0.162474
vt 0.068267 0.117149
vt 0.211899 0.168826
vt 0.150620 0.205107
vt 0.212991 0.128023
vt 0.214083 0.087220
vt 0.153896 0.082698
vt 0.120318 0.196104
vt 0.141703 0.159716
vt 0.141869 0.195827
vt 0.194969 0.159030
vt 0.120152 0.159993
vt 0.066721 0.124568
vt 0.119987 0.123882
vt 0.066887 0.160679
vt 0.067218 0.232901
vt 0.120483 0.232215
vt 0.893013 0.803206
vt 0.953247 0.844041
vt 0.893013 0.844041
vt 0.953247 0.884875
vt 0.893013 0.884875
vt 0.893013 0.925710
vt 0.868643 0.884875
vt 0.808410 0.844041
vt 0.868643 0.844041
vt 0.977617 0.884875
vt 0.741845 0.545283
vt 0.663028 0.598717
vt 0.663028 0.545283
vt 0.741845 0.652150
vt 0.663028 0.652150
vt 0.741845 0.705584
vt 0.663028 0.705584
vt 0.631139 0.652150
vt 0.552321 0.598717
vt 0.631139 0.598717
vt 0.741845 0.598717
vt 0.773734 0.652150
vt 0.237342 0.129853
vt 0.236250 0.170656
vt 0.045336 0.160957
vt 0.067052 0.196790
vt 0.045501 0.197068
vt 0.094887 0.153073
vt 0.114964 0.123128
vt 0.113861 0.154921
vt 0.095990 0.121280
vt 0.047991 0.148506
vt 0.049093 0.116713
vt 0.116067 0.091335
vt 0.161861 0.127695
vt 0.160758 0.159488
vt 0.112759 0.186714
vt 0.159655 0.191281
vt 0.153193 0.158992
vt 0.134495 0.188340
vt 0.135087 0.158002
vt 0.197352 0.191779
vt 0.152601 0.189330
vt 0.133904 0.218678
vt 0.089745 0.185892
vt 0.090336 0.155553
vt 0.135678 0.127663
vt 0.090927 0.125215
vt 0.893013 0.809899
vt 0.820174 0.859280
vt 0.820174 0.809899
vt 0.893013 0.859280
vt 0.820174 0.908661
vt 0.893013 0.958041
vt 0.893013 0.908661
vt 0.922484 0.908660
vt 0.995323 0.859280
vt 0.995323 0.908660
vt 0.790703 0.908661
vt 0.668850 0.601598
vt 0.627314 0.573439
vt 0.668850 0.573439
vt 0.627314 0.629757
vt 0.627314 0.601598
vt 0.668850 0.629757
vt 0.627314 0.657916
vt 0.685655 0.629757
vt 0.727191 0.601598
vt 0.727191 0.629757
vt 0.610509 0.601598
vt 0.114767 0.168293
vt 0.095916 0.220936
vt 0.095916 0.168293
vt 0.143042 0.220936
vt 0.114767 0.220936
vt 0.161893 0.168293
vt 0.143042 0.168293
vt 0.114767 0.136707
vt 0.143042 0.084063
vt 0.143042 0.136707
vt 0.143042 0.252523
vt 0.679363 0.612195
vt 0.705410 0.568551
vt 0.705410 0.612195
vt 0.653316 0.612195
vt 0.679363 0.568551
vt 0.627270 0.612195
vt 0.653316 0.568551
vt 0.679363 0.655839
vt 0.653316 0.699483
vt 0.653316 0.655839
vt 0.653316 0.524907
vt 0.922484 0.859280
vt 0.179732 0.161336
vt 0.180835 0.129543
vt 0.072230 0.154563
vt 0.071639 0.184901
vt 0.685655 0.601598
vt 0.067175 0.157952
vt 0.210807 0.209629
vt 0.195135 0.195141
vt 0.953247 0.803206
vt 0.953247 0.925710
vt 0.808410 0.884875
vt 0.977617 0.844041
vt 0.552321 0.652150
vt 0.773734 0.598717
vt 0.162963 0.095902
vt 0.197943 0.161440
vt 0.089154 0.216230
vt 0.820174 0.958041
vt 0.790703 0.859280
vt 0.668850 0.657916
vt 0.610509 0.629757
vt 0.161893 0.220936
vt 0.114767 0.084063
vt 0.114767 0.252523
vt 0.627270 0.568551
vt 0.679363 0.699483
vt 0.679363 0.524907
vn -0.7371 -0.2625 0.6227
vn -0.6749 0.3327 -0.6586
vn 0.0343 0.9058 0.4224
vn 0.6749 -0.3327 0.6586
vn -0.0343 -0.9058 -0.4224
vn 0.0113 -0.9117 -0.4108
vn 0.0342 -0.4102 0.9113
vn 0.9993 0.0244 -0.0266
vn -0.0342 0.4102 -0.9113
vn -0.9993 -0.0244 0.0266
vn -0.0358 -0.9057 -0.4223
vn 0.8703 -0.2498 0.4245
vn 0.0356 0.9058 0.4221
vn -0.8670 0.2446 -0.4341
vn 0.4965 0.3506 -0.7941
vn -0.9994 -0.0266 0.0241
vn -0.0112 -0.4295 -0.9030
vn 0.9994 0.0266 -0.0241
vn 0.0121 0.4189 0.9079
vn -0.0341 0.9087 -0.4160
vn -0.5469 -0.3677 0.7521
vn 0.7371 0.2625 -0.6227
vn -0.0113 0.9117 0.4108
vn 0.0301 -0.9652 0.2598
vn 0.5117 -0.1521 0.8456
vn 0.7038 0.6386 -0.3111
vn -0.4927 0.7543 0.4338
vn -0.7038 -0.6386 0.3111
vn 0.4927 -0.7543 -0.4338
vn -0.0188 -0.9826 -0.1848
vn -0.0310 -0.1842 0.9824
vn -0.9993 0.0242 -0.0270
vn 0.0310 0.1842 -0.9824
vn 0.9993 -0.0242 0.0270
vn 0.4958 -0.7539 -0.4311
vn -0.8408 -0.2924 -0.4556
vn -0.4953 0.7541 0.4312
vn 0.8380 0.2851 0.4652
vn 0.2166 0.5881 -0.7793
vn 0.9993 -0.0246 0.0265
vn 0.0266 0.0118 -0.9996
vn -0.9994 0.0246 -0.0263
vn -0.0266 -0.0097 0.9996
vn 0.0242 0.9996 0.0139
vn 0.8492 0.0000 0.5281
vn 0.5281 0.0000 -0.8492
vn -0.8492 -0.0000 -0.5281
vn -0.5281 -0.0000 0.8492
vn 0.0000 -1.0000 -0.0000
vn 0.0000 1.0000 0.0000
vn 0.8496 0.0003 0.5274
vn 0.5274 0.0012 -0.8496
vn -0.8496 -0.0003 -0.5274
vn -0.5274 -0.0012 0.8496
vn 0.0009 -1.0000 -0.0008
vn -0.0009 1.0000 0.0008
vn -0.2230 -0.5518 0.8036
vn -0.5117 0.1521 -0.8456
vn 0.0188 0.9826 0.1848
vn -0.0235 -0.9986 -0.0482
vn 0.8678 -0.2377 0.4363
vn 0.0358 0.9057 0.4223
vn -0.8688 0.2371 -0.4348
vn -0.9994 -0.0267 0.0235
vn -0.0098 -0.4299 -0.9028
vn 0.9994 0.0267 -0.0235
vn 0.0102 0.4182 0.9083
vn -0.5004 -0.3335 0.7990
vn 0.0332 -0.9660 0.2566
vn 0.4957 -0.7539 -0.4311
vn -0.8326 -0.2995 -0.4659
vn -0.4958 0.7539 0.4311
vn 0.8245 0.3173 0.4686
vn 0.9994 -0.0246 0.0263
vn 0.0268 0.0119 -0.9996
vn -0.9993 0.0246 -0.0265
vn -0.0270 -0.0095 0.9996
vn -0.0229 -0.6068 0.7945
vn -0.0229 -0.9986 -0.0476
s off
f 4/1/1 1/2/1 2/3/1
f 3/4/2 5/5/2 1/2/2
f 7/6/3 3/7/3 4/1/3
f 6/8/4 4/1/4 2/3/4
f 5/9/5 2/3/5 1/10/5
f 10/11/6 11/12/6 9/13/6
f 16/14/7 9/13/7 11/12/7
f 12/15/8 16/16/8 11/17/8
f 10/11/9 15/18/9 12/15/9
f 13/19/10 10/11/10 9/20/10
f 25/21/11 18/22/11 26/23/11
f 26/23/12 20/24/12 27/25/12
f 20/24/13 28/26/13 27/25/13
f 28/27/14 17/28/14 25/29/14
f 18/22/15 19/30/15 20/24/15
f 21/31/16 30/32/16 29/33/16
f 30/32/17 24/34/17 31/35/17
f 31/35/18 23/36/18 32/37/18
f 32/38/19 21/39/19 29/40/19
f 22/41/20 23/42/20 24/34/20
f 28/27/21 26/23/21 27/25/21
f 7/6/22 5/43/22 8/44/22
f 16/45/23 14/46/23 13/47/23
f 32/38/24 30/32/24 31/35/24
f 33/48/25 36/49/25 34/50/25
f 35/51/26 37/52/26 40/53/26
f 35/54/27 39/55/27 36/49/27
f 36/49/28 38/56/28 34/50/28
f 33/57/29 38/56/29 37/58/29
f 41/59/30 44/60/30 42/61/30
f 41/59/31 48/62/31 43/63/31
f 43/64/32 47/65/32 44/60/32
f 44/60/33 46/66/33 42/61/33
f 41/67/34 46/66/34 45/68/34
f 57/69/35 50/70/35 49/71/35
f 58/72/36 52/73/36 50/70/36
f 60/74/37 52/73/37 59/75/37
f 60/76/38 49/77/38 51/78/38
f 51/79/39 50/70/39 52/73/39
f 62/80/40 53/81/40 61/82/40
f 62/80/41 56/83/41 54/84/41
f 63/85/42 55/86/42 56/83/42
f 64/87/43 53/88/43 55/89/43
f 56/83/44 53/90/44 54/84/44
f 67/91/45 66/92/45 65/93/45
f 67/91/46 72/94/46 68/95/46
f 69/96/47 72/94/47 71/97/47
f 65/98/48 70/99/48 69/100/48
f 65/98/49 71/97/49 67/91/49
f 70/101/50 68/95/50 72/94/50
f 75/102/51 74/103/51 73/104/51
f 79/105/52 76/106/52 75/102/52
f 77/107/53 80/108/53 79/105/53
f 73/109/54 78/110/54 77/111/54
f 73/109/55 79/105/55 75/102/55
f 78/112/56 76/106/56 80/108/56
f 60/76/57 58/72/57 57/113/57
f 37/114/58 39/55/58 40/115/58
f 45/116/59 47/65/59 48/117/59
f 64/87/60 62/80/60 61/118/60
f 4/1/1 3/4/1 1/2/1
f 3/4/2 8/119/2 5/5/2
f 7/6/3 8/120/3 3/7/3
f 6/8/4 7/6/4 4/1/4
f 5/9/5 6/8/5 2/3/5
f 10/11/6 12/15/6 11/12/6
f 16/14/7 13/121/7 9/13/7
f 12/15/8 15/18/8 16/16/8
f 10/11/9 14/46/9 15/18/9
f 13/19/10 14/46/10 10/11/10
f 25/21/11 17/122/11 18/22/11
f 26/23/61 18/22/61 20/24/61
f 20/24/62 19/123/62 28/26/62
f 28/27/63 19/124/63 17/28/63
f 18/22/15 17/125/15 19/30/15
f 21/31/64 22/41/64 30/32/64
f 30/32/65 22/41/65 24/34/65
f 31/35/66 24/34/66 23/36/66
f 32/38/67 23/126/67 21/39/67
f 22/41/20 21/127/20 23/42/20
f 28/27/68 25/29/68 26/23/68
f 7/6/22 6/8/22 5/43/22
f 16/45/23 15/18/23 14/46/23
f 32/38/69 29/40/69 30/32/69
f 33/48/25 35/51/25 36/49/25
f 35/51/26 33/48/26 37/52/26
f 35/54/27 40/128/27 39/55/27
f 36/49/28 39/55/28 38/56/28
f 33/57/29 34/50/29 38/56/29
f 41/59/30 43/63/30 44/60/30
f 41/59/31 45/129/31 48/62/31
f 43/64/32 48/130/32 47/65/32
f 44/60/33 47/65/33 46/66/33
f 41/67/34 42/61/34 46/66/34
f 57/69/70 58/72/70 50/70/70
f 58/72/71 59/75/71 52/73/71
f 60/74/72 51/131/72 52/73/72
f 60/76/73 57/113/73 49/77/73
f 51/79/39 49/132/39 50/70/39
f 62/80/74 54/84/74 53/81/74
f 62/80/75 63/85/75 56/83/75
f 63/85/76 64/133/76 55/86/76
f 64/87/77 61/118/77 53/88/77
f 56/83/44 55/134/44 53/90/44
f 67/91/45 68/95/45 66/92/45
f 67/91/46 71/97/46 72/94/46
f 69/96/47 70/135/47 72/94/47
f 65/98/48 66/136/48 70/99/48
f 65/98/49 69/100/49 71/97/49
f 70/101/50 66/137/50 68/95/50
f 75/102/51 76/106/51 74/103/51
f 79/105/52 80/108/52 76/106/52
f 77/107/53 78/138/53 80/108/53
f 73/109/54 74/139/54 78/110/54
f 73/109/55 77/111/55 79/105/55
f 78/112/56 74/140/56 76/106/56
f 60/76/78 59/75/78 58/72/78
f 37/114/58 38/56/58 39/55/58
f 45/116/59 46/66/59 47/65/59
f 64/87/79 63/85/79 62/80/79
