# Blender v2.79 (sub 0) OBJ File: '3DObjectDecoderObjects.blend'
# www.blender.org
o Cube.003_Cube.001
v -0.566020 0.550589 1.599072
v -0.265584 0.398246 1.823186
v -0.539595 0.900071 1.801211
v -0.239159 0.747729 2.025325
v 0.100569 0.885400 0.933068
v 0.401004 0.733057 1.157182
v 0.427429 1.082540 1.359321
v 0.126994 1.234882 1.135207
v 0.081974 -1.533082 0.897689
v 0.069179 -1.445882 0.502810
v 0.486333 -1.525286 0.886308
v 0.473538 -1.438086 0.491428
v 0.069229 -0.556774 1.113697
v 0.056434 -0.469574 0.718817
v 0.460793 -0.461778 0.707435
v 0.473589 -0.548978 1.102315
v 0.670320 1.276702 0.181509
v 1.004074 1.143638 0.367517
v 0.697008 1.626177 0.383626
v 1.030762 1.493113 0.569634
v 0.029039 0.094729 0.156961
v 0.032157 -0.253755 -0.048579
v 0.433386 0.104431 0.146644
v 0.436504 -0.244053 -0.058896
v 0.108917 0.894940 0.915733
v 0.442594 0.761360 1.102652
v 0.468657 1.107440 1.310789
v 0.138187 1.245289 1.115980
v 0.065706 -0.454201 1.069469
v 0.065238 -0.726277 0.804268
v 0.469616 -0.717760 0.794080
v 0.470012 -0.444619 1.057698
v -0.214209 0.644571 0.894450
v -0.437433 0.311254 0.947134
v -0.506616 0.867151 1.063721
v -0.729840 0.533834 1.116405
v -0.630499 0.781294 -0.004451
v -0.853723 0.447977 0.048233
v -1.146129 0.670557 0.217504
v -0.922906 1.003875 0.164820
v -0.082707 -2.038915 -0.504335
v -0.068567 -1.868353 -0.870949
v -0.486998 -2.026838 -0.514309
v -0.472858 -1.856275 -0.880923
v -0.066051 -1.132608 -0.082043
v -0.051911 -0.962045 -0.448657
v -0.456202 -0.949968 -0.458631
v -0.470342 -1.120530 -0.092017
v -0.466291 1.415061 -0.554639
v -0.741143 1.224421 -0.782277
v -0.759647 1.637283 -0.386543
v -1.034499 1.446643 -0.614182
v -0.036982 -0.055935 0.076341
v -0.025892 0.000620 -0.324128
v -0.441279 -0.043663 0.066878
v -0.430189 0.012892 -0.333591
v -0.579562 0.724888 0.160092
v -0.855897 0.529534 -0.063841
v -1.158601 0.720830 0.129232
v -0.879028 0.952394 0.310491
v -0.064374 -1.061888 -0.060965
v -0.052473 -0.981082 -0.460565
v -0.456774 -0.969059 -0.470195
v -0.468657 -1.049406 -0.070726
v 0.313209 0.079915 0.689348
v 0.313209 1.479915 0.689348
v 0.756786 0.079915 -0.023982
v 0.756786 1.479915 -0.023982
v -0.756786 0.079915 0.023982
v -0.756786 1.479915 0.023982
v -0.313209 0.079915 -0.689348
v -0.313209 1.479915 -0.689348
v 0.096532 1.579652 0.413215
v 0.095970 2.179651 0.413725
v 0.412995 1.580381 -0.096541
v 0.412433 2.180381 -0.096031
v -0.413224 1.579443 0.096752
v -0.413786 2.179442 0.097261
v -0.096761 1.580173 -0.413004
v -0.097323 2.180172 -0.412494
vt 0.151712 0.164304
vt 0.128453 0.121671
vt 0.152804 0.123501
vt 0.067175 0.157952
vt 0.127361 0.162474
vt 0.210807 0.209629
vt 0.150620 0.205107
vt 0.212991 0.128023
vt 0.214083 0.087220
vt 0.153896 0.082698
vt 0.120318 0.196104
vt 0.141703 0.159716
vt 0.141869 0.195827
vt 0.194969 0.159030
vt 0.120152 0.159993
vt 0.066721 0.124568
vt 0.119987 0.123882
vt 0.066887 0.160679
vt 0.067218 0.232901
vt 0.120483 0.232215
vt 0.893013 0.803206
vt 0.953247 0.844041
vt 0.893013 0.844041
vt 0.953247 0.884875
vt 0.893013 0.884875
vt 0.893013 0.925710
vt 0.868643 0.884875
vt 0.808410 0.844041
vt 0.868643 0.844041
vt 0.977617 0.884875
vt 0.741845 0.545283
vt 0.663028 0.598717
vt 0.663028 0.545283
vt 0.741845 0.652150
vt 0.663028 0.652150
vt 0.741845 0.705584
vt 0.663028 0.705584
vt 0.631139 0.652150
vt 0.552321 0.598717
vt 0.631139 0.598717
vt 0.741845 0.598717
vt 0.773734 0.652150
vt 0.236250 0.170656
vt 0.237342 0.129853
vt 0.045336 0.160957
vt 0.067052 0.196790
vt 0.045501 0.197068
vt 0.113861 0.154921
vt 0.095990 0.121280
vt 0.114964 0.123128
vt 0.047991 0.148506
vt 0.049093 0.116713
vt 0.116067 0.091335
vt 0.161861 0.127695
vt 0.160758 0.159488
vt 0.112759 0.186714
vt 0.159655 0.191281
vt 0.153193 0.158992
vt 0.134495 0.188340
vt 0.135087 0.158002
vt 0.197352 0.191779
vt 0.152601 0.189330
vt 0.133904 0.218678
vt 0.089745 0.185892
vt 0.090336 0.155553
vt 0.135678 0.127663
vt 0.090927 0.125215
vt 0.893013 0.809899
vt 0.820174 0.859280
vt 0.820174 0.809899
vt 0.893013 0.859280
vt 0.820174 0.908661
vt 0.893013 0.958041
vt 0.893013 0.908661
vt 0.922484 0.908660
vt 0.995323 0.859280
vt 0.995323 0.908660
vt 0.790703 0.908661
vt 0.668850 0.601598
vt 0.627314 0.573439
vt 0.668850 0.573439
vt 0.627314 0.629757
vt 0.627314 0.601598
vt 0.668850 0.629757
vt 0.627314 0.657916
vt 0.685655 0.629757
vt 0.727191 0.601598
vt 0.727191 0.629757
vt 0.610509 0.601598
vt 0.114767 0.168293
vt 0.095916 0.220936
vt 0.095916 0.168293
vt 0.143042 0.220936
vt 0.114767 0.220936
vt 0.161893 0.168293
vt 0.143042 0.168293
vt 0.114767 0.136707
vt 0.143042 0.084063
vt 0.143042 0.136707
vt 0.143042 0.252523
vt 0.679363 0.612195
vt 0.705410 0.568551
vt 0.705410 0.612195
vt 0.653316 0.612195
vt 0.679363 0.568551
vt 0.627270 0.612195
vt 0.653316 0.568551
vt 0.679363 0.655839
vt 0.653316 0.699483
vt 0.653316 0.655839
vt 0.653316 0.524907
vt 0.922484 0.859280
vt 0.180835 0.129543
vt 0.072230 0.154563
vt 0.071639 0.184901
vt 0.685655 0.601598
vt 0.068267 0.117149
vt 0.211899 0.168826
vt 0.195135 0.195141
vt 0.953247 0.803206
vt 0.953247 0.925710
vt 0.808410 0.884875
vt 0.977617 0.844041
vt 0.552321 0.652150
vt 0.773734 0.598717
vt 0.094887 0.153073
vt 0.162963 0.095902
vt 0.197943 0.161440
vt 0.089154 0.216230
vt 0.820174 0.958041
vt 0.790703 0.859280
vt 0.668850 0.657916
vt 0.610509 0.629757
vt 0.161893 0.220936
vt 0.114767 0.084063
vt 0.114767 0.252523
vt 0.627270 0.568551
vt 0.679363 0.699483
vt 0.679363 0.524907
vt 0.179732 0.161336
vn -0.6666 -0.3348 0.6660
vn -0.7426 0.3765 -0.5539
vn 0.0653 0.8638 0.4996
vn 0.7426 -0.3765 0.5539
vn -0.0653 -0.8638 -0.4996
vn 0.0127 -0.9763 -0.2160
vn 0.0316 -0.2155 0.9760
vn 0.9994 0.0193 -0.0281
vn -0.0316 0.2155 -0.9760
vn -0.9994 -0.0193 0.0281
vn -0.0660 -0.8638 -0.4995
vn 0.8265 -0.3345 0.4528
vn 0.0659 0.8638 0.4995
vn -0.8247 0.3310 -0.4585
vn 0.5614 0.3818 -0.7342
vn -0.9994 -0.0236 0.0260
vn 0.0062 -0.8741 -0.4857
vn 0.9994 0.0236 -0.0260
vn -0.0053 0.8568 0.5156
vn -0.0341 0.5075 -0.8610
vn -0.5826 -0.3862 0.7151
vn 0.6666 0.3348 -0.6660
vn -0.0127 0.9763 0.2160
vn 0.0327 -0.6941 0.7191
vn 0.4163 -0.1367 0.8989
vn 0.5517 0.8238 -0.1302
vn -0.7227 0.5501 0.4184
vn -0.5517 -0.8238 0.1302
vn 0.7227 -0.5501 -0.4184
vn -0.0167 -0.9063 -0.4223
vn -0.0349 -0.4216 0.9061
vn -0.9993 0.0299 -0.0247
vn 0.0349 0.4216 -0.9061
vn 0.9993 -0.0299 0.0247
vn 0.7251 -0.5492 -0.4155
vn -0.6792 -0.4704 -0.5634
vn -0.7247 0.5496 0.4156
vn 0.6779 0.4630 0.5710
vn 0.1133 0.6902 -0.7147
vn 0.9993 -0.0304 0.0236
vn 0.0273 0.1369 -0.9902
vn -0.9993 0.0303 -0.0234
vn -0.0273 -0.1348 0.9905
vn 0.0268 0.9897 0.1405
vn 0.8492 0.0000 0.5281
vn 0.5281 0.0000 -0.8492
vn -0.8492 -0.0000 -0.5281
vn -0.5281 -0.0000 0.8492
vn 0.0000 -1.0000 -0.0000
vn 0.0000 1.0000 0.0000
vn 0.8496 0.0003 0.5274
vn 0.5274 0.0012 -0.8496
vn -0.8496 -0.0003 -0.5274
vn -0.5274 -0.0012 0.8496
vn 0.0009 -1.0000 -0.0008
vn -0.0009 1.0000 0.0008
vn -0.1313 -0.6611 0.7387
vn -0.4163 0.1367 -0.8989
vn 0.0167 0.9063 0.4223
vn -0.0254 -0.9797 -0.1989
vn -0.0660 -0.8638 -0.4996
vn 0.8252 -0.3287 0.4594
vn 0.0660 0.8638 0.4996
vn -0.8255 0.3285 -0.4590
vn -0.9994 -0.0240 0.0255
vn 0.0086 -0.8745 -0.4849
vn 0.9994 0.0240 -0.0255
vn -0.0074 0.8563 0.5164
vn -0.5627 -0.3743 0.7371
vn 0.0374 -0.6975 0.7156
vn 0.7250 -0.5493 -0.4155
vn -0.6666 -0.4747 -0.5747
vn -0.7251 0.5492 0.4155
vn 0.6582 0.4867 0.5743
vn 0.9993 -0.0303 0.0234
vn 0.0277 0.1370 -0.9902
vn -0.9993 0.0304 -0.0236
vn -0.0281 -0.1344 0.9905
vn 0.0608 -0.6597 0.7490
vn -0.0244 -0.9799 -0.1978
s off
f 4/1/1 1/2/1 2/3/1
f 8/4/2 1/2/2 3/5/2
f 4/1/3 8/6/3 3/7/3
f 6/8/4 4/1/4 2/3/4
f 5/9/5 2/3/5 1/10/5
f 10/11/6 11/12/6 9/13/6
f 16/14/7 9/13/7 11/12/7
f 12/15/8 16/16/8 11/17/8
f 10/11/9 15/18/9 12/15/9
f 13/19/10 10/11/10 9/20/10
f 25/21/11 18/22/11 26/23/11
f 26/23/12 20/24/12 27/25/12
f 20/24/13 28/26/13 27/25/13
f 28/27/14 17/28/14 25/29/14
f 18/22/15 19/30/15 20/24/15
f 21/31/16 30/32/16 29/33/16
f 30/32/17 24/34/17 31/35/17
f 31/35/18 23/36/18 32/37/18
f 32/38/19 21/39/19 29/40/19
f 22/41/20 23/42/20 24/34/20
f 28/27/21 26/23/21 27/25/21
f 8/43/22 6/8/22 5/44/22
f 16/45/23 14/46/23 13/47/23
f 32/38/24 30/32/24 31/35/24
f 34/48/25 35/49/25 36/50/25
f 35/49/26 37/51/26 40/52/26
f 35/53/27 39/54/27 36/50/27
f 36/50/28 38/55/28 34/48/28
f 33/56/29 38/55/29 37/57/29
f 41/58/30 44/59/30 42/60/30
f 41/58/31 48/61/31 43/62/31
f 43/63/32 47/64/32 44/59/32
f 44/59/33 46/65/33 42/60/33
f 41/66/34 46/65/34 45/67/34
f 57/68/35 50/69/35 49/70/35
f 58/71/36 52/72/36 50/69/36
f 60/73/37 52/72/37 59/74/37
f 60/75/38 49/76/38 51/77/38
f 51/78/39 50/69/39 52/72/39
f 62/79/40 53/80/40 61/81/40
f 62/79/41 56/82/41 54/83/41
f 63/84/42 55/85/42 56/82/42
f 64/86/43 53/87/43 55/88/43
f 56/82/44 53/89/44 54/83/44
f 67/90/45 66/91/45 65/92/45
f 67/90/46 72/93/46 68/94/46
f 69/95/47 72/93/47 71/96/47
f 65/97/48 70/98/48 69/99/48
f 65/97/49 71/96/49 67/90/49
f 70/100/50 68/94/50 72/93/50
f 75/101/51 74/102/51 73/103/51
f 79/104/52 76/105/52 75/101/52
f 77/106/53 80/107/53 79/104/53
f 73/108/54 78/109/54 77/110/54
f 73/108/55 79/104/55 75/101/55
f 78/111/56 76/105/56 80/107/56
f 60/75/57 58/71/57 57/112/57
f 40/113/58 38/55/58 39/54/58
f 45/114/59 47/64/59 48/115/59
f 64/86/60 62/79/60 61/116/60
f 4/1/1 3/5/1 1/2/1
f 8/4/2 5/117/2 1/2/2
f 4/1/3 7/118/3 8/6/3
f 6/8/4 7/118/4 4/1/4
f 5/9/5 6/8/5 2/3/5
f 10/11/6 12/15/6 11/12/6
f 16/14/7 13/119/7 9/13/7
f 12/15/8 15/18/8 16/16/8
f 10/11/9 14/46/9 15/18/9
f 13/19/10 14/46/10 10/11/10
f 25/21/61 17/120/61 18/22/61
f 26/23/62 18/22/62 20/24/62
f 20/24/63 19/121/63 28/26/63
f 28/27/64 19/122/64 17/28/64
f 18/22/15 17/123/15 19/30/15
f 21/31/65 22/41/65 30/32/65
f 30/32/66 22/41/66 24/34/66
f 31/35/67 24/34/67 23/36/67
f 32/38/68 23/124/68 21/39/68
f 22/41/20 21/125/20 23/42/20
f 28/27/69 25/29/69 26/23/69
f 8/43/22 7/118/22 6/8/22
f 16/45/23 15/18/23 14/46/23
f 32/38/70 29/40/70 30/32/70
f 34/48/25 33/126/25 35/49/25
f 35/49/26 33/126/26 37/51/26
f 35/53/27 40/127/27 39/54/27
f 36/50/28 39/54/28 38/55/28
f 33/56/29 34/48/29 38/55/29
f 41/58/30 43/62/30 44/59/30
f 41/58/31 45/128/31 48/61/31
f 43/63/32 48/129/32 47/64/32
f 44/59/33 47/64/33 46/65/33
f 41/66/34 42/60/34 46/65/34
f 57/68/71 58/71/71 50/69/71
f 58/71/72 59/74/72 52/72/72
f 60/73/73 51/130/73 52/72/73
f 60/75/74 57/112/74 49/76/74
f 51/78/39 49/131/39 50/69/39
f 62/79/75 54/83/75 53/80/75
f 62/79/76 63/84/76 56/82/76
f 63/84/77 64/132/77 55/85/77
f 64/86/78 61/116/78 53/87/78
f 56/82/44 55/133/44 53/89/44
f 67/90/45 68/94/45 66/91/45
f 67/90/46 71/96/46 72/93/46
f 69/95/47 70/134/47 72/93/47
f 65/97/48 66/135/48 70/98/48
f 65/97/49 69/99/49 71/96/49
f 70/100/50 66/136/50 68/94/50
f 75/101/51 76/105/51 74/102/51
f 79/104/52 80/107/52 76/105/52
f 77/106/53 78/137/53 80/107/53
f 73/108/54 74/138/54 78/109/54
f 73/108/55 77/110/55 79/104/55
f 78/111/56 74/139/56 76/105/56
f 60/75/79 59/74/79 58/71/79
f 40/113/58 37/140/58 38/55/58
f 45/114/59 46/65/59 47/64/59
f 64/86/80 63/84/80 62/79/80
