# Blender v2.79 (sub 0) OBJ File: '3DObjectDecoderObjects.blend'
# www.blender.org
o Cube.003_Cube.001
v -0.507927 0.748549 1.609883
v -0.263840 0.681659 1.925547
v -0.532335 1.139393 1.711577
v -0.288248 1.072503 2.027242
v 0.287312 0.947252 1.037072
v 0.531399 0.880362 1.352737
v 0.506991 1.271206 1.454431
v 0.262904 1.338096 1.138767
v 0.084543 -1.712687 -0.999597
v 0.066879 -1.412715 -1.270526
v 0.488694 -1.694995 -1.006359
v 0.471030 -1.395023 -1.277288
v 0.067651 -1.043064 -0.257087
v 0.049987 -0.743092 -0.528016
v 0.454138 -0.725400 -0.534778
v 0.471802 -1.025372 -0.263848
v 0.666768 1.182714 0.221025
v 1.028697 1.157885 0.400156
v 0.643260 1.573617 0.322705
v 1.005189 1.548787 0.501836
v 0.039289 -0.167654 0.375618
v 0.023821 0.067908 0.047030
v 0.443448 -0.149993 0.369252
v 0.427979 0.085569 0.040664
v 0.223585 0.932177 1.081734
v 0.585156 0.906444 1.264320
v 0.558877 1.291363 1.388793
v 0.209096 1.325278 1.176967
v 0.066097 -0.991180 -0.210575
v 0.050001 -0.739953 -0.531059
v 0.454162 -0.722403 -0.537611
v 0.470243 -0.973288 -0.217071
v -0.387058 0.658180 0.828612
v -0.695547 0.663748 1.090352
v -0.291914 1.037408 0.932681
v -0.600404 1.042976 1.194420
v -0.989857 1.006421 0.110719
v -1.298347 1.011989 0.372458
v -1.203203 1.391217 0.476527
v -0.894714 1.385649 0.214787
v -0.083013 -1.610085 1.107299
v -0.068270 -1.781925 0.741306
v -0.487286 -1.610477 1.091198
v -0.472544 -1.782317 0.725206
v -0.066987 -0.704761 0.682879
v -0.052245 -0.876601 0.316887
v -0.456518 -0.876992 0.300786
v -0.471261 -0.705152 0.666779
v -0.595199 1.105840 -0.611380
v -0.967213 1.225860 -0.715811
v -0.501621 1.485693 -0.508175
v -0.873636 1.605713 -0.612606
v -0.037052 0.088646 -0.066173
v -0.025673 -0.190968 -0.358379
v -0.441333 0.088824 -0.082086
v -0.429954 -0.190789 -0.374291
v -0.913210 0.931003 0.320451
v -1.288226 1.049940 0.222846
v -1.213727 1.422359 0.371469
v -0.828699 1.318647 0.403155
v -0.065265 -0.642623 0.640436
v -0.052985 -0.904711 0.328153
v -0.457271 -0.904846 0.312337
v -0.469530 -0.642553 0.624137
v 0.313209 0.079915 0.689348
v 0.313209 1.479915 0.689348
v 0.756786 0.079915 -0.023982
v 0.756786 1.479915 -0.023982
v -0.756786 0.079915 0.023982
v -0.756786 1.479915 0.023982
v -0.313209 0.079915 -0.689348
v -0.313209 1.479915 -0.689348
v 0.096532 1.579652 0.413215
v 0.095970 2.179651 0.413725
v 0.412995 1.580381 -0.096541
v 0.412433 2.180381 -0.096031
v -0.413224 1.579443 0.096752
v -0.413786 2.179442 0.097261
v -0.096761 1.580173 -0.413004
v -0.097323 2.180172 -0.412494
vt 0.152804 0.123501
vt 0.127361 0.162474
vt 0.128453 0.121671
vt 0.068267 0.117149
vt 0.211899 0.168826
vt 0.150620 0.205107
vt 0.151712 0.164304
vt 0.212991 0.128023
vt 0.214083 0.087220
vt 0.153896 0.082698
vt 0.120318 0.196104
vt 0.141703 0.159716
vt 0.141869 0.195827
vt 0.194969 0.159030
vt 0.066887 0.160679
vt 0.119987 0.123882
vt 0.120152 0.159993
vt 0.120483 0.232215
vt 0.067052 0.196790
vt 0.893013 0.803206
vt 0.953247 0.844041
vt 0.893013 0.844041
vt 0.953247 0.884875
vt 0.893013 0.884875
vt 0.893013 0.925710
vt 0.868643 0.884875
vt 0.808410 0.844041
vt 0.868643 0.844041
vt 0.977617 0.884875
vt 0.741845 0.545283
vt 0.663028 0.598717
vt 0.663028 0.545283
vt 0.741845 0.652150
vt 0.663028 0.652150
vt 0.741845 0.705584
vt 0.663028 0.705584
vt 0.631139 0.652150
vt 0.552321 0.598717
vt 0.631139 0.598717
vt 0.741845 0.598717
vt 0.773734 0.652150
vt 0.237342 0.129853
vt 0.236250 0.170656
vt 0.045336 0.160957
vt 0.045501 0.197068
vt 0.094887 0.153073
vt 0.114964 0.123128
vt 0.113861 0.154921
vt 0.095990 0.121280
vt 0.047991 0.148506
vt 0.049093 0.116713
vt 0.116067 0.091335
vt 0.161861 0.127695
vt 0.160758 0.159488
vt 0.112759 0.186714
vt 0.159655 0.191281
vt 0.153193 0.158992
vt 0.134495 0.188340
vt 0.135087 0.158002
vt 0.152601 0.189330
vt 0.197943 0.161440
vt 0.197352 0.191779
vt 0.133904 0.218678
vt 0.089745 0.185892
vt 0.090336 0.155553
vt 0.135678 0.127663
vt 0.090927 0.125215
vt 0.893013 0.809899
vt 0.820174 0.859280
vt 0.820174 0.809899
vt 0.893013 0.859280
vt 0.820174 0.908661
vt 0.893013 0.958041
vt 0.893013 0.908661
vt 0.922484 0.908660
vt 0.995323 0.859280
vt 0.995323 0.908660
vt 0.790703 0.859280
vt 0.668850 0.601598
vt 0.627314 0.573439
vt 0.668850 0.573439
vt 0.627314 0.629757
vt 0.627314 0.601598
vt 0.668850 0.629757
vt 0.627314 0.657916
vt 0.685655 0.629757
vt 0.727191 0.601598
vt 0.727191 0.629757
vt 0.610509 0.601598
vt 0.114767 0.168293
vt 0.095916 0.220936
vt 0.095916 0.168293
vt 0.143042 0.220936
vt 0.114767 0.220936
vt 0.161893 0.168293
vt 0.143042 0.168293
vt 0.114767 0.136707
vt 0.143042 0.084063
vt 0.143042 0.136707
vt 0.143042 0.252523
vt 0.679363 0.612195
vt 0.705410 0.568551
vt 0.705410 0.612195
vt 0.653316 0.612195
vt 0.679363 0.568551
vt 0.627270 0.612195
vt 0.653316 0.568551
vt 0.679363 0.655839
vt 0.653316 0.699483
vt 0.653316 0.655839
vt 0.653316 0.524907
vt 0.922484 0.859280
vt 0.179732 0.161336
vt 0.180835 0.129543
vt 0.072230 0.154563
vt 0.071639 0.184901
vt 0.685655 0.601598
vt 0.067175 0.157952
vt 0.210807 0.209629
vt 0.195135 0.195141
vt 0.066721 0.124568
vt 0.067218 0.232901
vt 0.953247 0.803206
vt 0.953247 0.925710
vt 0.808410 0.884875
vt 0.977617 0.844041
vt 0.552321 0.652150
vt 0.773734 0.598717
vt 0.162963 0.095902
vt 0.089154 0.216230
vt 0.820174 0.958041
vt 0.790703 0.908661
vt 0.668850 0.657916
vt 0.610509 0.629757
vt 0.161893 0.220936
vt 0.114767 0.084063
vt 0.114767 0.252523
vt 0.627270 0.568551
vt 0.679363 0.699483
vt 0.679363 0.524907
vn -0.7952 -0.1987 0.5728
vn -0.6033 0.1653 -0.7802
vn -0.0603 0.9660 0.2513
vn 0.6033 -0.1653 0.7802
vn 0.0603 -0.9660 -0.2513
vn 0.0169 -0.6696 -0.7425
vn 0.0437 -0.7414 0.6696
vn 0.9989 0.0437 -0.0167
vn -0.0437 0.7414 -0.6696
vn -0.9989 -0.0437 0.0167
vn 0.0581 -0.9662 -0.2513
vn 0.8995 -0.0777 0.4301
vn -0.0584 0.9662 0.2511
vn -0.8952 0.0735 -0.4396
vn 0.4432 0.2505 -0.8607
vn -0.9989 -0.0438 0.0158
vn -0.0384 0.5808 -0.8132
vn 0.9989 0.0438 -0.0158
vn 0.0387 -0.5786 0.8147
vn -0.0263 0.8119 0.5833
vn -0.5157 -0.2953 0.8043
vn 0.7952 0.1987 -0.5728
vn -0.0169 0.6696 0.7425
vn 0.0242 -0.7867 -0.6169
vn 0.6028 -0.3482 0.7179
vn 0.7625 -0.0138 -0.6469
vn 0.2352 0.9373 0.2572
vn -0.7625 0.0138 0.6469
vn -0.2352 -0.9373 -0.2572
vn -0.0160 -0.9053 0.4244
vn -0.0364 0.4247 0.9046
vn -0.9992 -0.0010 -0.0398
vn 0.0364 -0.4247 -0.9046
vn 0.9992 0.0010 0.0398
vn -0.2313 -0.9388 -0.2551
vn -0.9192 0.2968 -0.2588
vn 0.2319 0.9387 0.2550
vn 0.9142 -0.2994 0.2732
vn 0.3180 0.1748 -0.9318
vn 0.9992 -0.0003 0.0396
vn 0.0280 -0.6935 -0.7199
vn -0.9992 0.0004 -0.0393
vn -0.0280 0.6949 0.7185
vn 0.0275 0.7228 -0.6905
vn 0.8492 0.0000 0.5281
vn 0.5281 0.0000 -0.8492
vn -0.8492 -0.0000 -0.5281
vn -0.5281 -0.0000 0.8492
vn 0.0000 -1.0000 -0.0000
vn 0.0000 1.0000 0.0000
vn 0.8496 0.0003 0.5274
vn 0.5274 0.0012 -0.8496
vn -0.8496 -0.0003 -0.5274
vn -0.5274 -0.0012 0.8496
vn 0.0009 -1.0000 -0.0008
vn -0.0009 1.0000 0.0008
vn -0.2904 -0.1387 0.9468
vn -0.6028 0.3482 -0.7179
vn 0.0160 0.9053 -0.4244
vn -0.0260 -0.7662 0.6420
vn 0.8951 -0.0611 0.4417
vn -0.0581 0.9662 0.2513
vn -0.8968 0.0601 -0.4383
vn -0.9989 -0.0436 0.0157
vn -0.0382 0.5807 -0.8132
vn 0.9989 0.0436 -0.0157
vn 0.0381 -0.5788 0.8145
vn -0.4519 -0.2257 0.8630
vn 0.0249 -0.7862 -0.6175
vn -0.2314 -0.9388 -0.2551
vn -0.9201 0.2894 -0.2640
vn 0.2313 0.9388 0.2551
vn 0.9278 -0.2595 0.2680
vn 0.9992 -0.0004 0.0393
vn 0.0284 -0.6934 -0.7200
vn -0.9992 0.0003 -0.0396
vn -0.0288 0.6952 0.7183
vn -0.1669 -0.3365 0.9268
vn -0.0249 -0.7655 0.6430
s off
f 2/1/1 3/2/1 1/3/1
f 3/2/2 5/4/2 1/3/2
f 7/5/3 3/6/3 4/7/3
f 6/8/4 4/7/4 2/1/4
f 5/9/5 2/1/5 1/10/5
f 10/11/6 11/12/6 9/13/6
f 16/14/7 9/13/7 11/12/7
f 15/15/8 11/16/8 12/17/8
f 10/11/9 15/15/9 12/17/9
f 9/18/10 14/19/10 10/11/10
f 25/20/11 18/21/11 26/22/11
f 26/22/12 20/23/12 27/24/12
f 20/23/13 28/25/13 27/24/13
f 28/26/14 17/27/14 25/28/14
f 18/21/15 19/29/15 20/23/15
f 21/30/16 30/31/16 29/32/16
f 30/31/17 24/33/17 31/34/17
f 31/34/18 23/35/18 32/36/18
f 32/37/19 21/38/19 29/39/19
f 22/40/20 23/41/20 24/33/20
f 28/26/21 26/22/21 27/24/21
f 7/5/22 5/42/22 8/43/22
f 16/44/23 14/19/23 13/45/23
f 32/37/24 30/31/24 31/34/24
f 33/46/25 36/47/25 34/48/25
f 35/49/26 37/50/26 40/51/26
f 35/52/27 39/53/27 36/47/27
f 36/47/28 38/54/28 34/48/28
f 33/55/29 38/54/29 37/56/29
f 41/57/30 44/58/30 42/59/30
f 43/60/31 45/61/31 48/62/31
f 43/63/32 47/64/32 44/58/32
f 44/58/33 46/65/33 42/59/33
f 41/66/34 46/65/34 45/67/34
f 57/68/35 50/69/35 49/70/35
f 58/71/36 52/72/36 50/69/36
f 60/73/37 52/72/37 59/74/37
f 60/75/38 49/76/38 51/77/38
f 52/72/39 49/78/39 50/69/39
f 62/79/40 53/80/40 61/81/40
f 62/79/41 56/82/41 54/83/41
f 63/84/42 55/85/42 56/82/42
f 64/86/43 53/87/43 55/88/43
f 56/82/44 53/89/44 54/83/44
f 67/90/45 66/91/45 65/92/45
f 67/90/46 72/93/46 68/94/46
f 69/95/47 72/93/47 71/96/47
f 65/97/48 70/98/48 69/99/48
f 65/97/49 71/96/49 67/90/49
f 70/100/50 68/94/50 72/93/50
f 75/101/51 74/102/51 73/103/51
f 79/104/52 76/105/52 75/101/52
f 77/106/53 80/107/53 79/104/53
f 73/108/54 78/109/54 77/110/54
f 73/108/55 79/104/55 75/101/55
f 78/111/56 76/105/56 80/107/56
f 60/75/57 58/71/57 57/112/57
f 37/113/58 39/53/58 40/114/58
f 45/115/59 47/64/59 48/116/59
f 64/86/60 62/79/60 61/117/60
f 2/1/1 4/7/1 3/2/1
f 3/2/2 8/118/2 5/4/2
f 7/5/3 8/119/3 3/6/3
f 6/8/4 7/5/4 4/7/4
f 5/9/5 6/8/5 2/1/5
f 10/11/6 12/17/6 11/12/6
f 16/14/7 13/120/7 9/13/7
f 15/15/8 16/121/8 11/16/8
f 10/11/9 14/19/9 15/15/9
f 9/18/10 13/122/10 14/19/10
f 25/20/11 17/123/11 18/21/11
f 26/22/61 18/21/61 20/23/61
f 20/23/62 19/124/62 28/25/62
f 28/26/63 19/125/63 17/27/63
f 18/21/15 17/126/15 19/29/15
f 21/30/64 22/40/64 30/31/64
f 30/31/65 22/40/65 24/33/65
f 31/34/66 24/33/66 23/35/66
f 32/37/67 23/127/67 21/38/67
f 22/40/20 21/128/20 23/41/20
f 28/26/68 25/28/68 26/22/68
f 7/5/22 6/8/22 5/42/22
f 16/44/23 15/15/23 14/19/23
f 32/37/69 29/39/69 30/31/69
f 33/46/25 35/49/25 36/47/25
f 35/49/26 33/46/26 37/50/26
f 35/52/27 40/129/27 39/53/27
f 36/47/28 39/53/28 38/54/28
f 33/55/29 34/48/29 38/54/29
f 41/57/30 43/60/30 44/58/30
f 43/60/31 41/57/31 45/61/31
f 43/63/32 48/130/32 47/64/32
f 44/58/33 47/64/33 46/65/33
f 41/66/34 42/59/34 46/65/34
f 57/68/70 58/71/70 50/69/70
f 58/71/71 59/74/71 52/72/71
f 60/73/72 51/131/72 52/72/72
f 60/75/73 57/112/73 49/76/73
f 52/72/39 51/132/39 49/78/39
f 62/79/74 54/83/74 53/80/74
f 62/79/75 63/84/75 56/82/75
f 63/84/76 64/133/76 55/85/76
f 64/86/77 61/117/77 53/87/77
f 56/82/44 55/134/44 53/89/44
f 67/90/45 68/94/45 66/91/45
f 67/90/46 71/96/46 72/93/46
f 69/95/47 70/135/47 72/93/47
f 65/97/48 66/136/48 70/98/48
f 65/97/49 69/99/49 71/96/49
f 70/100/50 66/137/50 68/94/50
f 75/101/51 76/105/51 74/102/51
f 79/104/52 80/107/52 76/105/52
f 77/106/53 78/138/53 80/107/53
f 73/108/54 74/139/54 78/109/54
f 73/108/55 77/110/55 79/104/55
f 78/111/56 74/140/56 76/105/56
f 60/75/78 59/74/78 58/71/78
f 37/113/58 38/54/58 39/53/58
f 45/115/59 46/65/59 47/64/59
f 64/86/79 63/84/79 62/79/79
