# Blender v2.79 (sub 0) OBJ File: '3DObjectDecoderObjects.blend'
# www.blender.org
o Cube.003_Cube.001
v -0.530228 0.634264 1.599380
v -0.260205 0.527666 1.881198
v -0.539072 1.009724 1.749872
v -0.269050 0.903126 2.031691
v 0.214160 0.897733 0.985807
v 0.484182 0.791135 1.267626
v 0.475338 1.166595 1.418118
v 0.205315 1.273194 1.136300
v 0.082190 -1.605301 1.177680
v 0.068960 -1.648873 0.775655
v 0.486538 -1.601842 1.163998
v 0.473308 -1.645413 0.761973
v 0.070051 -0.611154 1.070333
v 0.056821 -0.654725 0.668307
v 0.461169 -0.651266 0.654626
v 0.474399 -0.607694 1.056651
v 0.669535 1.223315 0.198935
v 1.022273 1.156284 0.385430
v 0.661334 1.598799 0.349405
v 1.014071 1.531768 0.535899
v 0.032688 0.094984 0.182945
v 0.028733 -0.229488 -0.058717
v 0.437042 0.099812 0.169843
v 0.433086 -0.224659 -0.071820
v 0.180145 0.889735 1.004678
v 0.532666 0.821762 1.193546
v 0.522741 1.191015 1.359680
v 0.178319 1.267164 1.150596
v 0.067478 -0.526499 1.022251
v 0.061257 -0.803663 0.734565
v 0.465626 -0.799628 0.721637
v 0.471798 -0.521860 1.008175
v -0.228067 0.709700 0.863420
v -0.486427 0.422431 0.983549
v -0.465552 0.992447 1.028803
v -0.723912 0.705178 1.148933
v -0.725775 0.796450 0.000418
v -0.984135 0.509182 0.120548
v -1.221621 0.791928 0.285931
v -0.963261 1.079197 0.165802
v -0.083633 -1.933455 -0.730452
v -0.067625 -1.680337 -1.045685
v -0.487879 -1.919462 -0.739743
v -0.471871 -1.666344 -1.054977
v -0.071054 -1.154085 -0.104013
v -0.055046 -0.900967 -0.419246
v -0.459291 -0.886973 -0.428538
v -0.475299 -1.140091 -0.113305
v -0.462640 1.352082 -0.571621
v -0.779125 1.202579 -0.774578
v -0.701344 1.634494 -0.407424
v -1.017829 1.484991 -0.610382
v -0.036090 -0.058591 0.076437
v -0.025729 0.001090 -0.323598
v -0.440348 -0.044368 0.068088
v -0.429987 0.015313 -0.331947
v -0.662835 0.738683 0.192363
v -0.981435 0.584661 -0.005829
v -1.233526 0.837429 0.190342
v -0.909003 1.026241 0.336815
v -0.069001 -1.076342 -0.069782
v -0.057128 -0.974120 -0.462937
v -0.461394 -0.960297 -0.471634
v -0.473231 -1.061682 -0.078610
v 0.313209 0.079915 0.689348
v 0.313209 1.479915 0.689348
v 0.756786 0.079915 -0.023982
v 0.756786 1.479915 -0.023982
v -0.756786 0.079915 0.023982
v -0.756786 1.479915 0.023982
v -0.313209 0.079915 -0.689348
v -0.313209 1.479915 -0.689348
v 0.096532 1.579652 0.413215
v 0.095970 2.179651 0.413725
v 0.412995 1.580381 -0.096541
v 0.412433 2.180381 -0.096031
v -0.413224 1.579443 0.096752
v -0.413786 2.179442 0.097261
v -0.096761 1.580173 -0.413004
v -0.097323 2.180172 -0.412494
vt 0.152804 0.123501
vt 0.127361 0.162474
vt 0.128453 0.121671
vt 0.068267 0.117149
vt 0.211899 0.168826
vt 0.150620 0.205107
vt 0.151712 0.164304
vt 0.212991 0.128023
vt 0.214083 0.087220
vt 0.153896 0.082698
vt 0.120318 0.196104
vt 0.141703 0.159716
vt 0.141869 0.195827
vt 0.194969 0.159030
vt 0.120152 0.159993
vt 0.066721 0.124568
vt 0.119987 0.123882
vt 0.066887 0.160679
vt 0.067218 0.232901
vt 0.120483 0.232215
vt 0.893013 0.803206
vt 0.953247 0.844041
vt 0.893013 0.844041
vt 0.953247 0.884875
vt 0.893013 0.884875
vt 0.893013 0.925710
vt 0.868643 0.884875
vt 0.808410 0.844041
vt 0.868643 0.844041
vt 0.977617 0.884875
vt 0.741845 0.545283
vt 0.663028 0.598717
vt 0.663028 0.545283
vt 0.741845 0.652150
vt 0.663028 0.652150
vt 0.741845 0.705584
vt 0.663028 0.705584
vt 0.631139 0.652150
vt 0.552321 0.598717
vt 0.631139 0.598717
vt 0.741845 0.598717
vt 0.773734 0.652150
vt 0.236250 0.170656
vt 0.237342 0.129853
vt 0.045336 0.160957
vt 0.067052 0.196790
vt 0.045501 0.197068
vt 0.094887 0.153073
vt 0.114964 0.123128
vt 0.113861 0.154921
vt 0.095990 0.121280
vt 0.047991 0.148506
vt 0.049093 0.116713
vt 0.116067 0.091335
vt 0.161861 0.127695
vt 0.160758 0.159488
vt 0.112759 0.186714
vt 0.159655 0.191281
vt 0.153193 0.158992
vt 0.134495 0.188340
vt 0.135087 0.158002
vt 0.197352 0.191779
vt 0.152601 0.189330
vt 0.133904 0.218678
vt 0.089745 0.185892
vt 0.090336 0.155553
vt 0.135678 0.127663
vt 0.090927 0.125215
vt 0.893013 0.809899
vt 0.820174 0.859280
vt 0.820174 0.809899
vt 0.893013 0.859280
vt 0.820174 0.908661
vt 0.893013 0.958041
vt 0.893013 0.908661
vt 0.922484 0.908660
vt 0.995323 0.859280
vt 0.995323 0.908660
vt 0.790703 0.908661
vt 0.668850 0.601598
vt 0.627314 0.573439
vt 0.668850 0.573439
vt 0.627314 0.629757
vt 0.627314 0.601598
vt 0.668850 0.629757
vt 0.627314 0.657916
vt 0.685655 0.629757
vt 0.727191 0.601598
vt 0.727191 0.629757
vt 0.610509 0.601598
vt 0.114767 0.168293
vt 0.095916 0.220936
vt 0.095916 0.168293
vt 0.143042 0.220936
vt 0.114767 0.220936
vt 0.161893 0.168293
vt 0.143042 0.168293
vt 0.114767 0.136707
vt 0.143042 0.084063
vt 0.143042 0.136707
vt 0.143042 0.252523
vt 0.679363 0.612195
vt 0.705410 0.568551
vt 0.705410 0.612195
vt 0.653316 0.612195
vt 0.679363 0.568551
vt 0.627270 0.612195
vt 0.653316 0.568551
vt 0.679363 0.655839
vt 0.653316 0.699483
vt 0.653316 0.655839
vt 0.653316 0.524907
vt 0.922484 0.859280
vt 0.180835 0.129543
vt 0.072230 0.154563
vt 0.071639 0.184901
vt 0.685655 0.601598
vt 0.067175 0.157952
vt 0.210807 0.209629
vt 0.195135 0.195141
vt 0.953247 0.803206
vt 0.953247 0.925710
vt 0.808410 0.884875
vt 0.977617 0.844041
vt 0.552321 0.652150
vt 0.773734 0.598717
vt 0.162963 0.095902
vt 0.197943 0.161440
vt 0.089154 0.216230
vt 0.820174 0.958041
vt 0.790703 0.859280
vt 0.668850 0.657916
vt 0.610509 0.629757
vt 0.161893 0.220936
vt 0.114767 0.084063
vt 0.114767 0.252523
vt 0.627270 0.568551
vt 0.679363 0.699483
vt 0.679363 0.524907
vt 0.179732 0.161336
vn -0.7444 -0.2635 0.6136
vn -0.6674 0.2635 -0.6965
vn -0.0219 0.9280 0.3720
vn 0.6674 -0.2635 0.6965
vn 0.0219 -0.9280 -0.3720
vn 0.0121 -0.9941 0.1073
vn 0.0327 0.1077 0.9936
vn 0.9994 0.0086 -0.0338
vn -0.0327 -0.1077 -0.9936
vn -0.9994 -0.0086 0.0338
vn 0.0203 -0.9281 -0.3719
vn 0.8758 -0.1783 0.4486
vn -0.0205 0.9281 0.3717
vn -0.8720 0.1729 -0.4580
vn 0.4894 0.3336 -0.8057
vn -0.9994 -0.0116 0.0328
vn -0.0107 -0.8099 -0.5865
vn 0.9994 0.0116 -0.0328
vn 0.0115 0.8038 0.5947
vn -0.0331 0.5973 -0.8014
vn -0.5411 -0.3571 0.7614
vn 0.7444 0.2635 -0.6136
vn -0.0121 0.9941 -0.1073
vn 0.0294 -0.7180 0.6954
vn 0.4977 -0.0867 0.8630
vn 0.6386 0.7100 -0.2969
vn -0.5870 0.6988 0.4088
vn -0.6386 -0.7100 0.2969
vn 0.5870 -0.6988 -0.4088
vn -0.0126 -0.7794 -0.6264
vn -0.0396 -0.6256 0.7791
vn -0.9991 0.0346 -0.0230
vn 0.0396 0.6256 -0.7791
vn 0.9991 -0.0346 0.0230
vn 0.5900 -0.6980 -0.4058
vn -0.7820 -0.3689 -0.5023
vn -0.5895 0.6983 0.4060
vn 0.7793 0.3608 0.5123
vn 0.2002 0.6134 -0.7640
vn 0.9992 -0.0353 0.0210
vn 0.0254 0.1406 -0.9897
vn -0.9992 0.0351 -0.0206
vn -0.0254 -0.1419 0.9896
vn 0.0317 0.9884 0.1483
vn 0.8492 0.0000 0.5281
vn 0.5281 0.0000 -0.8492
vn -0.8492 -0.0000 -0.5281
vn -0.5281 -0.0000 0.8492
vn 0.0000 -1.0000 -0.0000
vn 0.0000 1.0000 0.0000
vn 0.8496 0.0003 0.5274
vn 0.5274 0.0012 -0.8496
vn -0.8496 -0.0003 -0.5274
vn -0.5274 -0.0012 0.8496
vn 0.0009 -1.0000 -0.0008
vn -0.0009 1.0000 0.0008
vn -0.2115 -0.5773 0.7887
vn -0.4977 0.0867 -0.8630
vn 0.0126 0.7794 0.6264
vn -0.0296 -0.9672 -0.2524
vn 0.8723 -0.1653 0.4601
vn -0.0203 0.9280 0.3719
vn -0.8734 0.1646 -0.4584
vn -0.9994 -0.0119 0.0324
vn -0.0093 -0.8102 -0.5861
vn 0.9994 0.0119 -0.0324
vn 0.0097 0.8034 0.5954
vn -0.4947 -0.3155 0.8098
vn 0.0324 -0.7201 0.6931
vn 0.5899 -0.6981 -0.4058
vn -0.7735 -0.3746 -0.5113
vn -0.5900 0.6980 0.4058
vn 0.7616 0.3931 0.5152
vn 0.9992 -0.0351 0.0206
vn 0.0261 0.1409 -0.9897
vn -0.9992 0.0353 -0.0210
vn -0.0267 -0.1413 0.9896
vn 0.0001 -0.6131 0.7900
vn -0.0277 -0.9677 -0.2505
s off
f 2/1/1 3/2/1 1/3/1
f 3/2/2 5/4/2 1/3/2
f 7/5/3 3/6/3 4/7/3
f 6/8/4 4/7/4 2/1/4
f 5/9/5 2/1/5 1/10/5
f 10/11/6 11/12/6 9/13/6
f 16/14/7 9/13/7 11/12/7
f 12/15/8 16/16/8 11/17/8
f 10/11/9 15/18/9 12/15/9
f 13/19/10 10/11/10 9/20/10
f 25/21/11 18/22/11 26/23/11
f 26/23/12 20/24/12 27/25/12
f 20/24/13 28/26/13 27/25/13
f 28/27/14 17/28/14 25/29/14
f 18/22/15 19/30/15 20/24/15
f 21/31/16 30/32/16 29/33/16
f 30/32/17 24/34/17 31/35/17
f 31/35/18 23/36/18 32/37/18
f 32/38/19 21/39/19 29/40/19
f 22/41/20 23/42/20 24/34/20
f 28/27/21 26/23/21 27/25/21
f 8/43/22 6/8/22 5/44/22
f 16/45/23 14/46/23 13/47/23
f 32/38/24 30/32/24 31/35/24
f 33/48/25 36/49/25 34/50/25
f 35/51/26 37/52/26 40/53/26
f 35/54/27 39/55/27 36/49/27
f 36/49/28 38/56/28 34/50/28
f 33/57/29 38/56/29 37/58/29
f 41/59/30 44/60/30 42/61/30
f 41/59/31 48/62/31 43/63/31
f 43/64/32 47/65/32 44/60/32
f 44/60/33 46/66/33 42/61/33
f 41/67/34 46/66/34 45/68/34
f 57/69/35 50/70/35 49/71/35
f 58/72/36 52/73/36 50/70/36
f 60/74/37 52/73/37 59/75/37
f 60/76/38 49/77/38 51/78/38
f 51/79/39 50/70/39 52/73/39
f 62/80/40 53/81/40 61/82/40
f 62/80/41 56/83/41 54/84/41
f 63/85/42 55/86/42 56/83/42
f 64/87/43 53/88/43 55/89/43
f 56/83/44 53/90/44 54/84/44
f 67/91/45 66/92/45 65/93/45
f 67/91/46 72/94/46 68/95/46
f 69/96/47 72/94/47 71/97/47
f 65/98/48 70/99/48 69/100/48
f 65/98/49 71/97/49 67/91/49
f 70/101/50 68/95/50 72/94/50
f 75/102/51 74/103/51 73/104/51
f 79/105/52 76/106/52 75/102/52
f 77/107/53 80/108/53 79/105/53
f 73/109/54 78/110/54 77/111/54
f 73/109/55 79/105/55 75/102/55
f 78/112/56 76/106/56 80/108/56
f 60/76/57 58/72/57 57/113/57
f 40/114/58 38/56/58 39/55/58
f 45/115/59 47/65/59 48/116/59
f 64/87/60 62/80/60 61/117/60
f 2/1/1 4/7/1 3/2/1
f 3/2/2 8/118/2 5/4/2
f 7/5/3 8/119/3 3/6/3
f 6/8/4 7/5/4 4/7/4
f 5/9/5 6/8/5 2/1/5
f 10/11/6 12/15/6 11/12/6
f 16/14/7 13/120/7 9/13/7
f 12/15/8 15/18/8 16/16/8
f 10/11/9 14/46/9 15/18/9
f 13/19/10 14/46/10 10/11/10
f 25/21/11 17/121/11 18/22/11
f 26/23/61 18/22/61 20/24/61
f 20/24/62 19/122/62 28/26/62
f 28/27/63 19/123/63 17/28/63
f 18/22/15 17/124/15 19/30/15
f 21/31/64 22/41/64 30/32/64
f 30/32/65 22/41/65 24/34/65
f 31/35/66 24/34/66 23/36/66
f 32/38/67 23/125/67 21/39/67
f 22/41/20 21/126/20 23/42/20
f 28/27/68 25/29/68 26/23/68
f 8/43/22 7/5/22 6/8/22
f 16/45/23 15/18/23 14/46/23
f 32/38/69 29/40/69 30/32/69
f 33/48/25 35/51/25 36/49/25
f 35/51/26 33/48/26 37/52/26
f 35/54/27 40/127/27 39/55/27
f 36/49/28 39/55/28 38/56/28
f 33/57/29 34/50/29 38/56/29
f 41/59/30 43/63/30 44/60/30
f 41/59/31 45/128/31 48/62/31
f 43/64/32 48/129/32 47/65/32
f 44/60/33 47/65/33 46/66/33
f 41/67/34 42/61/34 46/66/34
f 57/69/70 58/72/70 50/70/70
f 58/72/71 59/75/71 52/73/71
f 60/74/72 51/130/72 52/73/72
f 60/76/73 57/113/73 49/77/73
f 51/79/39 49/131/39 50/70/39
f 62/80/74 54/84/74 53/81/74
f 62/80/75 63/85/75 56/83/75
f 63/85/76 64/132/76 55/86/76
f 64/87/77 61/117/77 53/88/77
f 56/83/44 55/133/44 53/90/44
f 67/91/45 68/95/45 66/92/45
f 67/91/46 71/97/46 72/94/46
f 69/96/47 70/134/47 72/94/47
f 65/98/48 66/135/48 70/99/48
f 65/98/49 69/100/49 71/97/49
f 70/101/50 66/136/50 68/95/50
f 75/102/51 76/106/51 74/103/51
f 79/105/52 80/108/52 76/106/52
f 77/107/53 78/137/53 80/108/53
f 73/109/54 74/138/54 78/110/54
f 73/109/55 77/111/55 79/105/55
f 78/112/56 74/139/56 76/106/56
f 60/76/78 59/75/78 58/72/78
f 40/114/58 37/140/58 38/56/58
f 45/115/59 46/66/59 47/65/59
f 64/87/79 63/85/79 62/80/79
