# Blender v2.79 (sub 0) OBJ File: '3DObjectDecoderObjects.blend'
# www.blender.org
o Cube.003_Cube.001
v -0.527601 0.676525 1.599681
v -0.266394 0.570665 1.889959
v -0.532641 1.055122 1.742285
v -0.271434 0.949261 2.032563
v 0.235971 0.913014 0.998823
v 0.497178 0.807154 1.289100
v 0.492138 1.185750 1.431705
v 0.230930 1.291610 1.141427
v 0.082921 -1.958807 -0.559495
v 0.068421 -1.751938 -0.906904
v 0.487183 -1.944784 -0.568018
v 0.472683 -1.737916 -0.915428
v 0.063933 -1.100103 -0.047374
v 0.049433 -0.893234 -0.394783
v 0.453695 -0.879212 -0.403307
v 0.468195 -1.086081 -0.055897
v 0.663135 1.217536 0.203953
v 1.019797 1.153779 0.384019
v 0.658832 1.596151 0.346530
v 1.015495 1.532394 0.526597
v 0.038352 -0.116142 0.377328
v 0.025189 0.043359 0.005730
v 0.442617 -0.102076 0.369044
v 0.429454 0.057425 -0.002553
v 0.191126 0.902154 1.027204
v 0.547527 0.837375 1.210016
v 0.541159 1.209241 1.370710
v 0.194166 1.282815 1.164520
v 0.062504 -1.041899 -0.017620
v 0.048977 -0.871807 -0.386857
v 0.453243 -0.857836 -0.395234
v 0.466762 -1.027716 -0.026017
v -0.261423 0.678958 0.839518
v -0.565436 0.476724 1.013822
v -0.398443 1.023845 1.000684
v -0.702456 0.821611 1.174988
v -0.827748 0.832377 0.029735
v -1.131761 0.630143 0.204039
v -1.268781 0.975030 0.365205
v -0.964768 1.177264 0.190901
v -0.082122 -1.432138 0.695504
v -0.069037 -1.362592 0.297146
v -0.486471 -1.424768 0.683508
v -0.473386 -1.355222 0.285150
v -0.069284 -0.447191 0.867881
v -0.056198 -0.377644 0.469523
v -0.460548 -0.370274 0.457527
v -0.473633 -0.439821 0.855885
v -0.482099 1.262945 -0.597558
v -0.845572 1.192834 -0.760891
v -0.620555 1.607755 -0.437457
v -0.984028 1.537644 -0.600790
v -0.028472 0.094159 -0.157926
v -0.032684 -0.276176 -0.320809
v -0.432805 0.103616 -0.168970
v -0.437017 -0.266720 -0.331854
v -0.757585 0.769313 0.227333
v -1.123780 0.695589 0.069497
v -1.279529 1.016609 0.266351
v -0.904412 1.120008 0.367482
v -0.065563 -0.346837 0.814542
v -0.065912 -0.642292 0.582667
v -0.470279 -0.634066 0.571859
v -0.469853 -0.337631 0.801987
v 0.313209 0.079915 0.689348
v 0.313209 1.479915 0.689348
v 0.756786 0.079915 -0.023982
v 0.756786 1.479915 -0.023982
v -0.756786 0.079915 0.023982
v -0.756786 1.479915 0.023982
v -0.313209 0.079915 -0.689348
v -0.313209 1.479915 -0.689348
v 0.096532 1.579652 0.413215
v 0.095970 2.179651 0.413725
v 0.412995 1.580381 -0.096541
v 0.412433 2.180381 -0.096031
v -0.413224 1.579443 0.096752
v -0.413786 2.179442 0.097261
v -0.096761 1.580173 -0.413004
v -0.097323 2.180172 -0.412494
vt 0.151712 0.164304
vt 0.128453 0.121671
vt 0.152804 0.123501
vt 0.067175 0.157952
vt 0.127361 0.162474
vt 0.211899 0.168826
vt 0.150620 0.205107
vt 0.212991 0.128023
vt 0.214083 0.087220
vt 0.153896 0.082698
vt 0.120318 0.196104
vt 0.141703 0.159716
vt 0.141869 0.195827
vt 0.194969 0.159030
vt 0.066887 0.160679
vt 0.119987 0.123882
vt 0.120152 0.159993
vt 0.120483 0.232215
vt 0.067052 0.196790
vt 0.893013 0.803206
vt 0.953247 0.844041
vt 0.893013 0.844041
vt 0.953247 0.884875
vt 0.893013 0.884875
vt 0.893013 0.925710
vt 0.868643 0.884875
vt 0.808410 0.844041
vt 0.868643 0.844041
vt 0.977617 0.844041
vt 0.977617 0.884875
vt 0.741845 0.545283
vt 0.663028 0.598717
vt 0.663028 0.545283
vt 0.741845 0.652150
vt 0.663028 0.652150
vt 0.741845 0.705584
vt 0.663028 0.705584
vt 0.631139 0.652150
vt 0.552321 0.598717
vt 0.631139 0.598717
vt 0.741845 0.598717
vt 0.773734 0.652150
vt 0.237342 0.129853
vt 0.236250 0.170656
vt 0.045336 0.160957
vt 0.045501 0.197068
vt 0.094887 0.153073
vt 0.114964 0.123128
vt 0.113861 0.154921
vt 0.095990 0.121280
vt 0.047991 0.148506
vt 0.049093 0.116713
vt 0.116067 0.091335
vt 0.161861 0.127695
vt 0.160758 0.159488
vt 0.112759 0.186714
vt 0.159655 0.191281
vt 0.153193 0.158992
vt 0.134495 0.188340
vt 0.135087 0.158002
vt 0.152601 0.189330
vt 0.197943 0.161440
vt 0.197352 0.191779
vt 0.133904 0.218678
vt 0.089745 0.185892
vt 0.090336 0.155553
vt 0.135678 0.127663
vt 0.090927 0.125215
vt 0.893013 0.809899
vt 0.820174 0.859280
vt 0.820174 0.809899
vt 0.893013 0.859280
vt 0.820174 0.908661
vt 0.893013 0.958041
vt 0.893013 0.908661
vt 0.922484 0.908660
vt 0.995323 0.859280
vt 0.995323 0.908660
vt 0.790703 0.859280
vt 0.668850 0.601598
vt 0.627314 0.573439
vt 0.668850 0.573439
vt 0.627314 0.629757
vt 0.627314 0.601598
vt 0.668850 0.629757
vt 0.627314 0.657916
vt 0.685655 0.629757
vt 0.727191 0.601598
vt 0.727191 0.629757
vt 0.610509 0.601598
vt 0.114767 0.168293
vt 0.095916 0.220936
vt 0.095916 0.168293
vt 0.143042 0.220936
vt 0.114767 0.220936
vt 0.161893 0.168293
vt 0.143042 0.168293
vt 0.114767 0.136707
vt 0.143042 0.084063
vt 0.143042 0.136707
vt 0.143042 0.252523
vt 0.679363 0.612195
vt 0.705410 0.568551
vt 0.705410 0.612195
vt 0.653316 0.612195
vt 0.679363 0.568551
vt 0.627270 0.612195
vt 0.653316 0.568551
vt 0.679363 0.655839
vt 0.653316 0.699483
vt 0.653316 0.655839
vt 0.653316 0.524907
vt 0.922484 0.859280
vt 0.179732 0.161336
vt 0.180835 0.129543
vt 0.072230 0.154563
vt 0.071639 0.184901
vt 0.685655 0.601598
vt 0.068267 0.117149
vt 0.210807 0.209629
vt 0.195135 0.195141
vt 0.066721 0.124568
vt 0.067218 0.232901
vt 0.953247 0.803206
vt 0.953247 0.925710
vt 0.808410 0.884875
vt 0.552321 0.652150
vt 0.773734 0.598717
vt 0.162963 0.095902
vt 0.089154 0.216230
vt 0.820174 0.958041
vt 0.790703 0.908661
vt 0.668850 0.657916
vt 0.610509 0.629757
vt 0.161893 0.220936
vt 0.114767 0.084063
vt 0.114767 0.252523
vt 0.627270 0.568551
vt 0.679363 0.699483
vt 0.679363 0.524907
vn -0.7636 -0.2365 0.6009
vn -0.6456 0.2616 -0.7175
vn -0.0125 0.9357 0.3525
vn 0.6456 -0.2616 0.7175
vn 0.0125 -0.9357 -0.3525
vn 0.0190 -0.8587 -0.5121
vn 0.0358 -0.5113 0.8587
vn 0.9992 0.0347 -0.0211
vn -0.0358 0.5113 -0.8587
vn -0.9992 -0.0347 0.0211
vn 0.0107 -0.9358 -0.3524
vn 0.8855 -0.1715 0.4319
vn -0.0108 0.9359 0.3522
vn -0.8816 0.1664 -0.4417
vn 0.4720 0.3154 -0.8233
vn -0.9992 -0.0348 0.0206
vn -0.0326 0.3934 -0.9188
vn 0.9992 0.0348 -0.0206
vn 0.0328 -0.3915 0.9196
vn -0.0239 0.9184 0.3950
vn -0.5325 -0.3434 0.7736
vn 0.7636 0.2365 -0.6009
vn -0.0190 0.8587 0.5121
vn 0.0227 -0.9079 -0.4186
vn 0.5663 -0.1534 0.8098
vn 0.7514 0.4998 -0.4308
vn -0.3387 0.8524 0.3983
vn -0.7514 -0.4998 0.4308
vn 0.3387 -0.8524 -0.3983
vn -0.0128 -0.9849 -0.1724
vn -0.0323 -0.1719 0.9846
vn -0.9994 0.0182 -0.0296
vn 0.0323 0.1719 -0.9846
vn 0.9994 -0.0182 0.0296
vn 0.3422 -0.8522 -0.3957
vn -0.8981 -0.1729 -0.4044
vn -0.3417 0.8524 0.3958
vn 0.8942 0.1659 0.4159
vn 0.2755 0.4936 -0.8249
vn 0.9994 -0.0229 0.0277
vn -0.0114 -0.9266 -0.3759
vn -0.9994 0.0234 -0.0273
vn 0.0100 0.9102 0.4140
vn 0.0344 0.4020 -0.9150
vn 0.8492 0.0000 0.5281
vn 0.5281 0.0000 -0.8492
vn -0.8492 -0.0000 -0.5281
vn -0.5281 -0.0000 0.8492
vn 0.0000 -1.0000 -0.0000
vn 0.0000 1.0000 0.0000
vn 0.8496 0.0003 0.5274
vn 0.5274 0.0012 -0.8496
vn -0.8496 -0.0003 -0.5274
vn -0.5274 -0.0012 0.8496
vn 0.0009 -1.0000 -0.0008
vn -0.0009 1.0000 0.0008
vn -0.2742 -0.4537 0.8480
vn -0.5663 0.1534 -0.8098
vn 0.0128 0.9849 0.1724
vn -0.0385 -0.6169 0.7861
vn 0.0106 -0.9358 -0.3524
vn 0.8821 -0.1572 0.4441
vn -0.0106 0.9358 0.3524
vn -0.8833 0.1564 -0.4419
vn -0.9992 -0.0348 0.0205
vn -0.0325 0.3933 -0.9188
vn 0.9992 0.0348 -0.0205
vn 0.0325 -0.3916 0.9196
vn -0.4780 -0.2947 0.8275
vn 0.0231 -0.9077 -0.4190
vn 0.3421 -0.8523 -0.3957
vn -0.8929 -0.1802 -0.4126
vn -0.3422 0.8522 0.3957
vn 0.8854 0.2038 0.4177
vn 0.9994 -0.0234 0.0273
vn -0.0088 -0.9262 -0.3768
vn -0.9994 0.0229 -0.0277
vn 0.0079 0.9106 0.4132
vn -0.0740 -0.5472 0.8338
vn -0.0336 -0.6128 0.7895
s off
f 4/1/1 1/2/1 2/3/1
f 8/4/2 1/2/2 3/5/2
f 7/6/3 3/7/3 4/1/3
f 6/8/4 4/1/4 2/3/4
f 5/9/5 2/3/5 1/10/5
f 10/11/6 11/12/6 9/13/6
f 16/14/7 9/13/7 11/12/7
f 15/15/8 11/16/8 12/17/8
f 10/11/9 15/15/9 12/17/9
f 9/18/10 14/19/10 10/11/10
f 25/20/11 18/21/11 26/22/11
f 26/22/12 20/23/12 27/24/12
f 20/23/13 28/25/13 27/24/13
f 28/26/14 17/27/14 25/28/14
f 20/23/15 17/29/15 19/30/15
f 21/31/16 30/32/16 29/33/16
f 30/32/17 24/34/17 31/35/17
f 31/35/18 23/36/18 32/37/18
f 32/38/19 21/39/19 29/40/19
f 22/41/20 23/42/20 24/34/20
f 28/26/21 26/22/21 27/24/21
f 7/6/22 5/43/22 8/44/22
f 16/45/23 14/19/23 13/46/23
f 32/38/24 30/32/24 31/35/24
f 33/47/25 36/48/25 34/49/25
f 35/50/26 37/51/26 40/52/26
f 35/53/27 39/54/27 36/48/27
f 36/48/28 38/55/28 34/49/28
f 33/56/29 38/55/29 37/57/29
f 41/58/30 44/59/30 42/60/30
f 43/61/31 45/62/31 48/63/31
f 43/64/32 47/65/32 44/59/32
f 44/59/33 46/66/33 42/60/33
f 41/67/34 46/66/34 45/68/34
f 57/69/35 50/70/35 49/71/35
f 58/72/36 52/73/36 50/70/36
f 60/74/37 52/73/37 59/75/37
f 60/76/38 49/77/38 51/78/38
f 52/73/39 49/79/39 50/70/39
f 62/80/40 53/81/40 61/82/40
f 62/80/41 56/83/41 54/84/41
f 63/85/42 55/86/42 56/83/42
f 64/87/43 53/88/43 55/89/43
f 56/83/44 53/90/44 54/84/44
f 67/91/45 66/92/45 65/93/45
f 67/91/46 72/94/46 68/95/46
f 69/96/47 72/94/47 71/97/47
f 65/98/48 70/99/48 69/100/48
f 65/98/49 71/97/49 67/91/49
f 70/101/50 68/95/50 72/94/50
f 75/102/51 74/103/51 73/104/51
f 79/105/52 76/106/52 75/102/52
f 77/107/53 80/108/53 79/105/53
f 73/109/54 78/110/54 77/111/54
f 73/109/55 79/105/55 75/102/55
f 78/112/56 76/106/56 80/108/56
f 60/76/57 58/72/57 57/113/57
f 37/114/58 39/54/58 40/115/58
f 45/116/59 47/65/59 48/117/59
f 64/87/60 62/80/60 61/118/60
f 4/1/1 3/5/1 1/2/1
f 8/4/2 5/119/2 1/2/2
f 7/6/3 8/120/3 3/7/3
f 6/8/4 7/6/4 4/1/4
f 5/9/5 6/8/5 2/3/5
f 10/11/6 12/17/6 11/12/6
f 16/14/7 13/121/7 9/13/7
f 15/15/8 16/122/8 11/16/8
f 10/11/9 14/19/9 15/15/9
f 9/18/10 13/123/10 14/19/10
f 25/20/61 17/124/61 18/21/61
f 26/22/62 18/21/62 20/23/62
f 20/23/63 19/125/63 28/25/63
f 28/26/64 19/126/64 17/27/64
f 20/23/15 18/21/15 17/29/15
f 21/31/65 22/41/65 30/32/65
f 30/32/66 22/41/66 24/34/66
f 31/35/67 24/34/67 23/36/67
f 32/38/68 23/127/68 21/39/68
f 22/41/20 21/128/20 23/42/20
f 28/26/69 25/28/69 26/22/69
f 7/6/22 6/8/22 5/43/22
f 16/45/23 15/15/23 14/19/23
f 32/38/70 29/40/70 30/32/70
f 33/47/25 35/50/25 36/48/25
f 35/50/26 33/47/26 37/51/26
f 35/53/27 40/129/27 39/54/27
f 36/48/28 39/54/28 38/55/28
f 33/56/29 34/49/29 38/55/29
f 41/58/30 43/61/30 44/59/30
f 43/61/31 41/58/31 45/62/31
f 43/64/32 48/130/32 47/65/32
f 44/59/33 47/65/33 46/66/33
f 41/67/34 42/60/34 46/66/34
f 57/69/71 58/72/71 50/70/71
f 58/72/72 59/75/72 52/73/72
f 60/74/73 51/131/73 52/73/73
f 60/76/74 57/113/74 49/77/74
f 52/73/39 51/132/39 49/79/39
f 62/80/75 54/84/75 53/81/75
f 62/80/76 63/85/76 56/83/76
f 63/85/77 64/133/77 55/86/77
f 64/87/78 61/118/78 53/88/78
f 56/83/44 55/134/44 53/90/44
f 67/91/45 68/95/45 66/92/45
f 67/91/46 71/97/46 72/94/46
f 69/96/47 70/135/47 72/94/47
f 65/98/48 66/136/48 70/99/48
f 65/98/49 69/100/49 71/97/49
f 70/101/50 66/137/50 68/95/50
f 75/102/51 76/106/51 74/103/51
f 79/105/52 80/108/52 76/106/52
f 77/107/53 78/138/53 80/108/53
f 73/109/54 74/139/54 78/110/54
f 73/109/55 77/111/55 79/105/55
f 78/112/56 74/140/56 76/106/56
f 60/76/79 59/75/79 58/72/79
f 37/114/58 38/55/58 39/54/58
f 45/116/59 46/66/59 47/65/59
f 64/87/80 63/85/80 62/80/80
