# Blender v2.79 (sub 0) OBJ File: '3DObjectDecoderObjects.blend'
# www.blender.org
o Cube.003_Cube.001
v -0.537538 0.665218 1.596638
v -0.271721 0.540286 1.874901
v -0.528949 1.037238 1.755459
v -0.263132 0.912306 2.033722
v 0.216058 0.908517 0.985983
v 0.481874 0.783585 1.264246
v 0.490463 1.155605 1.423067
v 0.224647 1.280537 1.144804
v 0.082272 -1.996557 0.280719
v 0.068910 -1.864823 -0.101597
v 0.486609 -1.987053 0.269861
v 0.473247 -1.855319 -0.112455
v 0.068813 -1.051337 0.606880
v 0.055451 -0.919604 0.224564
v 0.459787 -0.910100 0.213706
v 0.473150 -1.041833 0.596022
v 0.658262 1.233658 0.199147
v 1.012788 1.149713 0.375105
v 0.667539 1.605675 0.357933
v 1.022065 1.521731 0.533892
v 0.034273 0.027161 0.311779
v 0.027608 -0.087217 -0.076256
v 0.438617 0.037329 0.301837
v 0.431952 -0.077048 -0.086199
v 0.176952 0.899737 1.009602
v 0.531240 0.814737 1.188080
v 0.538636 1.179795 1.363496
v 0.193060 1.273666 1.163467
v 0.066611 -0.962411 0.609108
v 0.058259 -1.027875 0.209638
v 0.462614 -1.018292 0.199498
v 0.470928 -0.951983 0.598456
v -0.249355 0.643134 0.845348
v -0.548938 0.416279 0.995319
v -0.411648 0.971309 1.017565
v -0.711232 0.744454 1.167536
v -0.788657 0.809629 0.019852
v -1.088241 0.582774 0.169823
v -1.250534 0.910949 0.342040
v -0.950950 1.137804 0.192069
v -0.081812 -2.087828 -0.099812
v -0.069459 -2.025586 -0.499400
v -0.486144 -2.078282 -0.110825
v -0.473791 -2.016040 -0.510413
v -0.062699 -1.100013 0.054647
v -0.050346 -1.037771 -0.344941
v -0.454678 -1.028226 -0.355954
v -0.467031 -1.090467 0.043634
v -0.476234 1.288006 -0.597335
v -0.832562 1.198766 -0.766962
v -0.639872 1.616069 -0.426181
v -0.996199 1.526829 -0.595808
v -0.037173 -0.026691 0.064321
v -0.026322 -0.023913 -0.340119
v -0.441508 -0.016997 0.053539
v -0.430656 -0.014220 -0.350901
v -0.722887 0.745888 0.205957
v -1.081736 0.652792 0.041376
v -1.261387 0.955478 0.246291
v -0.894413 1.079957 0.358016
v -0.061247 -1.034020 0.060066
v -0.050002 -1.019247 -0.346450
v -0.454339 -1.009693 -0.357289
v -0.465574 -1.024254 0.049116
v 0.313209 0.079915 0.689348
v 0.313209 1.479915 0.689348
v 0.756786 0.079915 -0.023982
v 0.756786 1.479915 -0.023982
v -0.756786 0.079915 0.023982
v -0.756786 1.479915 0.023982
v -0.313209 0.079915 -0.689348
v -0.313209 1.479915 -0.689348
v 0.096532 1.579652 0.413215
v 0.095970 2.179651 0.413725
v 0.412995 1.580381 -0.096541
v 0.412433 2.180381 -0.096031
v -0.413224 1.579443 0.096752
v -0.413786 2.179442 0.097261
v -0.096761 1.580173 -0.413004
v -0.097323 2.180172 -0.412494
vt 0.151712 0.164304
vt 0.128453 0.121671
vt 0.152804 0.123501
vt 0.067175 0.157952
vt 0.127361 0.162474
vt 0.211899 0.168826
vt 0.150620 0.205107
vt 0.214083 0.087220
vt 0.153896 0.082698
vt 0.120318 0.196104
vt 0.141703 0.159716
vt 0.141869 0.195827
vt 0.194969 0.159030
vt 0.120152 0.159993
vt 0.066721 0.124568
vt 0.119987 0.123882
vt 0.066887 0.160679
vt 0.067218 0.232901
vt 0.120483 0.232215
vt 0.893013 0.803206
vt 0.953247 0.844041
vt 0.893013 0.844041
vt 0.953247 0.884875
vt 0.893013 0.884875
vt 0.893013 0.925710
vt 0.868643 0.884875
vt 0.808410 0.844041
vt 0.868643 0.844041
vt 0.977617 0.844041
vt 0.977617 0.884875
vt 0.741845 0.545283
vt 0.663028 0.598717
vt 0.663028 0.545283
vt 0.741845 0.652150
vt 0.663028 0.652150
vt 0.741845 0.705584
vt 0.663028 0.705584
vt 0.631139 0.652150
vt 0.552321 0.598717
vt 0.631139 0.598717
vt 0.741845 0.598717
vt 0.773734 0.652150
vt 0.237342 0.129853
vt 0.236250 0.170656
vt 0.045336 0.160957
vt 0.067052 0.196790
vt 0.045501 0.197068
vt 0.094887 0.153073
vt 0.114964 0.123128
vt 0.113861 0.154921
vt 0.095990 0.121280
vt 0.047991 0.148506
vt 0.049093 0.116713
vt 0.116067 0.091335
vt 0.161861 0.127695
vt 0.160758 0.159488
vt 0.112759 0.186714
vt 0.159655 0.191281
vt 0.153193 0.158992
vt 0.134495 0.188340
vt 0.135087 0.158002
vt 0.197352 0.191779
vt 0.152601 0.189330
vt 0.133904 0.218678
vt 0.089745 0.185892
vt 0.090336 0.155553
vt 0.135678 0.127663
vt 0.090927 0.125215
vt 0.893013 0.809899
vt 0.820174 0.859280
vt 0.820174 0.809899
vt 0.893013 0.859280
vt 0.820174 0.908661
vt 0.893013 0.958041
vt 0.893013 0.908661
vt 0.922484 0.908660
vt 0.995323 0.859280
vt 0.995323 0.908660
vt 0.790703 0.908661
vt 0.668850 0.601598
vt 0.627314 0.573439
vt 0.668850 0.573439
vt 0.627314 0.629757
vt 0.627314 0.601598
vt 0.668850 0.629757
vt 0.627314 0.657916
vt 0.685655 0.629757
vt 0.727191 0.601598
vt 0.727191 0.629757
vt 0.610509 0.629757
vt 0.114767 0.168293
vt 0.095916 0.220936
vt 0.095916 0.168293
vt 0.143042 0.220936
vt 0.114767 0.220936
vt 0.161893 0.168293
vt 0.143042 0.168293
vt 0.114767 0.136707
vt 0.143042 0.084063
vt 0.143042 0.136707
vt 0.143042 0.252523
vt 0.679363 0.612195
vt 0.705410 0.568551
vt 0.705410 0.612195
vt 0.653316 0.612195
vt 0.679363 0.568551
vt 0.627270 0.612195
vt 0.653316 0.568551
vt 0.679363 0.655839
vt 0.653316 0.699483
vt 0.653316 0.655839
vt 0.653316 0.524907
vt 0.922484 0.859280
vt 0.179732 0.161336
vt 0.180835 0.129543
vt 0.072230 0.154563
vt 0.071639 0.184901
vt 0.685655 0.601598
vt 0.068267 0.117149
vt 0.210807 0.209629
vt 0.212991 0.128023
vt 0.195135 0.195141
vt 0.953247 0.803206
vt 0.953247 0.925710
vt 0.808410 0.884875
vt 0.552321 0.652150
vt 0.773734 0.598717
vt 0.162963 0.095902
vt 0.197943 0.161440
vt 0.089154 0.216230
vt 0.820174 0.958041
vt 0.790703 0.859280
vt 0.668850 0.657916
vt 0.610509 0.601598
vt 0.161893 0.220936
vt 0.114767 0.084063
vt 0.114767 0.252523
vt 0.627270 0.568551
vt 0.679363 0.699483
vt 0.679363 0.524907
vn -0.7536 -0.2433 0.6107
vn -0.6570 0.3088 -0.6878
vn 0.0212 0.9195 0.3925
vn 0.6570 -0.3088 0.6878
vn -0.0212 -0.9195 -0.3925
vn 0.0135 -0.9452 -0.3262
vn 0.0330 -0.3256 0.9449
vn 0.9994 0.0235 -0.0268
vn -0.0330 0.3256 -0.9449
vn -0.9994 -0.0235 0.0268
vn -0.0229 -0.9195 -0.3924
vn 0.8795 -0.2204 0.4217
vn 0.0227 0.9196 0.3923
vn -0.8760 0.2153 -0.4315
vn 0.4813 0.3339 -0.8105
vn -0.9994 -0.0251 0.0250
vn -0.0171 -0.2909 -0.9566
vn 0.9994 0.0251 -0.0250
vn 0.0178 0.2882 0.9574
vn -0.0311 0.9589 -0.2821
vn -0.5387 -0.3560 0.7636
vn 0.7536 0.2433 -0.6107
vn -0.0135 0.9452 0.3262
vn 0.0275 -0.9862 0.1633
vn 0.5393 -0.1665 0.8255
vn 0.7404 0.5607 -0.3707
vn -0.4011 0.8111 0.4257
vn -0.7404 -0.5607 0.3707
vn 0.4011 -0.8111 -0.4257
vn -0.0191 -0.9878 -0.1545
vn -0.0305 -0.1538 0.9876
vn -0.9994 0.0236 -0.0272
vn 0.0305 0.1538 -0.9876
vn 0.9994 -0.0236 0.0272
vn 0.4044 -0.8108 -0.4230
vn -0.8804 -0.2200 -0.4200
vn -0.4039 0.8111 0.4231
vn 0.8772 0.2130 0.4303
vn 0.2466 0.5421 -0.8033
vn 0.9994 -0.0240 0.0268
vn 0.0268 0.0057 -0.9996
vn -0.9994 0.0239 -0.0266
vn -0.0267 -0.0038 0.9996
vn 0.0238 0.9997 0.0075
vn 0.8492 0.0000 0.5281
vn 0.5281 0.0000 -0.8492
vn -0.8492 -0.0000 -0.5281
vn -0.5281 -0.0000 0.8492
vn 0.0000 -1.0000 -0.0000
vn 0.0000 1.0000 0.0000
vn 0.8496 0.0003 0.5274
vn 0.5274 0.0012 -0.8496
vn -0.8496 -0.0003 -0.5274
vn -0.5274 -0.0012 0.8496
vn 0.0009 -1.0000 -0.0008
vn -0.0009 1.0000 0.0008
vn -0.2486 -0.5041 0.8271
vn -0.5393 0.1665 -0.8255
vn 0.0191 0.9878 0.1545
vn -0.0231 -0.9990 -0.0369
vn -0.0229 -0.9195 -0.3925
vn 0.8768 -0.2071 0.4340
vn 0.0229 0.9195 0.3925
vn -0.8779 0.2063 -0.4321
vn -0.9994 -0.0251 0.0246
vn -0.0162 -0.2912 -0.9565
vn 0.9994 0.0251 -0.0246
vn 0.0163 0.2876 0.9576
vn -0.4862 -0.3145 0.8153
vn 0.0297 -0.9865 0.1610
vn 0.4044 -0.8109 -0.4230
vn -0.8738 -0.2277 -0.4297
vn -0.4045 0.8108 0.4230
vn 0.8666 0.2477 0.4333
vn 0.9994 -0.0239 0.0267
vn 0.0269 0.0058 -0.9996
vn -0.9994 0.0240 -0.0268
vn -0.0272 -0.0036 0.9996
vn -0.0506 -0.5803 0.8128
vn -0.0226 -0.9991 -0.0364
s off
f 4/1/1 1/2/1 2/3/1
f 8/4/2 1/2/2 3/5/2
f 7/6/3 3/7/3 4/1/3
f 2/3/4 7/6/4 4/1/4
f 5/8/5 2/3/5 1/9/5
f 10/10/6 11/11/6 9/12/6
f 16/13/7 9/12/7 11/11/7
f 12/14/8 16/15/8 11/16/8
f 10/10/9 15/17/9 12/14/9
f 13/18/10 10/10/10 9/19/10
f 25/20/11 18/21/11 26/22/11
f 26/22/12 20/23/12 27/24/12
f 20/23/13 28/25/13 27/24/13
f 28/26/14 17/27/14 25/28/14
f 20/23/15 17/29/15 19/30/15
f 21/31/16 30/32/16 29/33/16
f 30/32/17 24/34/17 31/35/17
f 31/35/18 23/36/18 32/37/18
f 32/38/19 21/39/19 29/40/19
f 22/41/20 23/42/20 24/34/20
f 28/26/21 26/22/21 27/24/21
f 7/6/22 5/43/22 8/44/22
f 16/45/23 14/46/23 13/47/23
f 32/38/24 30/32/24 31/35/24
f 33/48/25 36/49/25 34/50/25
f 35/51/26 37/52/26 40/53/26
f 35/54/27 39/55/27 36/49/27
f 36/49/28 38/56/28 34/50/28
f 33/57/29 38/56/29 37/58/29
f 41/59/30 44/60/30 42/61/30
f 41/59/31 48/62/31 43/63/31
f 43/64/32 47/65/32 44/60/32
f 44/60/33 46/66/33 42/61/33
f 41/67/34 46/66/34 45/68/34
f 57/69/35 50/70/35 49/71/35
f 58/72/36 52/73/36 50/70/36
f 60/74/37 52/73/37 59/75/37
f 60/76/38 49/77/38 51/78/38
f 51/79/39 50/70/39 52/73/39
f 62/80/40 53/81/40 61/82/40
f 62/80/41 56/83/41 54/84/41
f 63/85/42 55/86/42 56/83/42
f 64/87/43 53/88/43 55/89/43
f 55/90/44 54/84/44 56/83/44
f 67/91/45 66/92/45 65/93/45
f 67/91/46 72/94/46 68/95/46
f 69/96/47 72/94/47 71/97/47
f 65/98/48 70/99/48 69/100/48
f 65/98/49 71/97/49 67/91/49
f 70/101/50 68/95/50 72/94/50
f 75/102/51 74/103/51 73/104/51
f 79/105/52 76/106/52 75/102/52
f 77/107/53 80/108/53 79/105/53
f 73/109/54 78/110/54 77/111/54
f 73/109/55 79/105/55 75/102/55
f 78/112/56 76/106/56 80/108/56
f 60/76/57 58/72/57 57/113/57
f 37/114/58 39/55/58 40/115/58
f 45/116/59 47/65/59 48/117/59
f 64/87/60 62/80/60 61/118/60
f 4/1/1 3/5/1 1/2/1
f 8/4/2 5/119/2 1/2/2
f 7/6/3 8/120/3 3/7/3
f 2/3/4 6/121/4 7/6/4
f 5/8/5 6/121/5 2/3/5
f 10/10/6 12/14/6 11/11/6
f 16/13/7 13/122/7 9/12/7
f 12/14/8 15/17/8 16/15/8
f 10/10/9 14/46/9 15/17/9
f 13/18/10 14/46/10 10/10/10
f 25/20/61 17/123/61 18/21/61
f 26/22/62 18/21/62 20/23/62
f 20/23/63 19/124/63 28/25/63
f 28/26/64 19/125/64 17/27/64
f 20/23/15 18/21/15 17/29/15
f 21/31/65 22/41/65 30/32/65
f 30/32/66 22/41/66 24/34/66
f 31/35/67 24/34/67 23/36/67
f 32/38/68 23/126/68 21/39/68
f 22/41/20 21/127/20 23/42/20
f 28/26/69 25/28/69 26/22/69
f 7/6/22 6/121/22 5/43/22
f 16/45/23 15/17/23 14/46/23
f 32/38/70 29/40/70 30/32/70
f 33/48/25 35/51/25 36/49/25
f 35/51/26 33/48/26 37/52/26
f 35/54/27 40/128/27 39/55/27
f 36/49/28 39/55/28 38/56/28
f 33/57/29 34/50/29 38/56/29
f 41/59/30 43/63/30 44/60/30
f 41/59/31 45/129/31 48/62/31
f 43/64/32 48/130/32 47/65/32
f 44/60/33 47/65/33 46/66/33
f 41/67/34 42/61/34 46/66/34
f 57/69/71 58/72/71 50/70/71
f 58/72/72 59/75/72 52/73/72
f 60/74/73 51/131/73 52/73/73
f 60/76/74 57/113/74 49/77/74
f 51/79/39 49/132/39 50/70/39
f 62/80/75 54/84/75 53/81/75
f 62/80/76 63/85/76 56/83/76
f 63/85/77 64/133/77 55/86/77
f 64/87/78 61/118/78 53/88/78
f 55/90/44 53/134/44 54/84/44
f 67/91/45 68/95/45 66/92/45
f 67/91/46 71/97/46 72/94/46
f 69/96/47 70/135/47 72/94/47
f 65/98/48 66/136/48 70/99/48
f 65/98/49 69/100/49 71/97/49
f 70/101/50 66/137/50 68/95/50
f 75/102/51 76/106/51 74/103/51
f 79/105/52 80/108/52 76/106/52
f 77/107/53 78/138/53 80/108/53
f 73/109/54 74/139/54 78/110/54
f 73/109/55 77/111/55 79/105/55
f 78/112/56 74/140/56 76/106/56
f 60/76/79 59/75/79 58/72/79
f 37/114/58 38/56/58 39/55/58
f 45/116/59 46/66/59 47/65/59
f 64/87/80 63/85/80 62/80/80
