# Blender v2.79 (sub 0) OBJ File: '3DObjectDecoderObjects.blend'
# www.blender.org
o Cube.003_Cube.001
v -0.532281 0.658151 1.598307
v -0.266367 0.544629 1.881326
v -0.533365 1.033309 1.749806
v -0.267452 0.919787 2.032825
v 0.221400 0.906126 0.989642
v 0.487314 0.792604 1.272660
v 0.486230 1.167762 1.424160
v 0.220316 1.281284 1.141141
v 0.082837 -1.979389 -0.496288
v 0.068488 -1.778788 -0.847360
v 0.487108 -1.965770 -0.505030
v 0.472759 -1.765169 -0.856102
v 0.064342 -1.111609 0.000318
v 0.049993 -0.911008 -0.350754
v 0.454263 -0.897390 -0.359496
v 0.468612 -1.097991 -0.008424
v 0.663273 1.225566 0.200391
v 1.017977 1.153021 0.381000
v 0.662878 1.600737 0.351862
v 1.017581 1.528192 0.532471
v 0.038035 -0.104290 0.376022
v 0.025364 0.036052 -0.003243
v 0.442310 -0.090606 0.367578
v 0.429639 0.049736 -0.011687
v 0.182216 0.896917 1.013149
v 0.536683 0.823361 1.196297
v 0.534406 1.191852 1.364530
v 0.188659 1.274056 1.159716
v 0.062864 -1.050840 0.028792
v 0.049738 -0.897155 -0.347979
v 0.454015 -0.883595 -0.356535
v 0.467130 -1.037015 0.020201
v -0.244097 0.687134 0.848640
v -0.531958 0.445623 0.998682
v -0.426643 1.007812 1.014589
v -0.714504 0.766301 1.164631
v -0.782844 0.811642 0.015418
v -1.070705 0.570131 0.165460
v -1.253251 0.890809 0.331409
v -0.965389 1.132320 0.181366
v -0.082332 -1.470247 0.534160
v -0.068846 -1.345508 0.149511
v -0.486668 -1.461107 0.522947
v -0.473181 -1.336368 0.138298
v -0.069399 -0.519227 0.843022
v -0.055912 -0.394489 0.458372
v -0.460248 -0.385348 0.447160
v -0.473735 -0.510087 0.831809
v -0.470605 1.301756 -0.588079
v -0.817081 1.195477 -0.767982
v -0.654498 1.622239 -0.423245
v -1.000975 1.515960 -0.603148
v -0.027874 0.094051 -0.143765
v -0.033233 -0.265125 -0.329939
v -0.432190 0.105265 -0.153763
v -0.437549 -0.253911 -0.339936
v -0.715811 0.750780 0.209611
v -1.064770 0.640462 0.034861
v -1.264419 0.934393 0.234194
v -0.907693 1.076836 0.354658
v -0.065456 -0.412229 0.799518
v -0.066642 -0.685936 0.549413
v -0.470996 -0.676030 0.539530
v -0.469727 -0.401114 0.787919
v 0.313209 0.079915 0.689348
v 0.313209 1.479915 0.689348
v 0.756786 0.079915 -0.023982
v 0.756786 1.479915 -0.023982
v -0.756786 0.079915 0.023982
v -0.756786 1.479915 0.023982
v -0.313209 0.079915 -0.689348
v -0.313209 1.479915 -0.689348
v 0.096532 1.579652 0.413215
v 0.095970 2.179651 0.413725
v 0.412995 1.580381 -0.096541
v 0.412433 2.180381 -0.096031
v -0.413224 1.579443 0.096752
v -0.413786 2.179442 0.097261
v -0.096761 1.580173 -0.413004
v -0.097323 2.180172 -0.412494
vt 0.151712 0.164304
vt 0.128453 0.121671
vt 0.152804 0.123501
vt 0.067175 0.157952
vt 0.127361 0.162474
vt 0.211899 0.168826
vt 0.150620 0.205107
vt 0.212991 0.128023
vt 0.214083 0.087220
vt 0.153896 0.082698
vt 0.120318 0.196104
vt 0.141703 0.159716
vt 0.141869 0.195827
vt 0.194969 0.159030
vt 0.066887 0.160679
vt 0.119987 0.123882
vt 0.120152 0.159993
vt 0.120483 0.232215
vt 0.067052 0.196790
vt 0.893013 0.803206
vt 0.953247 0.844041
vt 0.893013 0.844041
vt 0.953247 0.884875
vt 0.893013 0.884875
vt 0.893013 0.925710
vt 0.868643 0.884875
vt 0.808410 0.844041
vt 0.868643 0.844041
vt 0.977617 0.844041
vt 0.977617 0.884875
vt 0.741845 0.545283
vt 0.663028 0.598717
vt 0.663028 0.545283
vt 0.741845 0.652150
vt 0.663028 0.652150
vt 0.741845 0.705584
vt 0.663028 0.705584
vt 0.631139 0.652150
vt 0.552321 0.598717
vt 0.631139 0.598717
vt 0.741845 0.598717
vt 0.773734 0.652150
vt 0.236250 0.170656
vt 0.237342 0.129853
vt 0.045336 0.160957
vt 0.045501 0.197068
vt 0.094887 0.153073
vt 0.114964 0.123128
vt 0.113861 0.154921
vt 0.095990 0.121280
vt 0.047991 0.148506
vt 0.049093 0.116713
vt 0.116067 0.091335
vt 0.161861 0.127695
vt 0.160758 0.159488
vt 0.112759 0.186714
vt 0.159655 0.191281
vt 0.153193 0.158992
vt 0.134495 0.188340
vt 0.135087 0.158002
vt 0.152601 0.189330
vt 0.197943 0.161440
vt 0.197352 0.191779
vt 0.133904 0.218678
vt 0.089745 0.185892
vt 0.090336 0.155553
vt 0.135678 0.127663
vt 0.090927 0.125215
vt 0.893013 0.809899
vt 0.820174 0.859280
vt 0.820174 0.809899
vt 0.893013 0.859280
vt 0.820174 0.908661
vt 0.893013 0.958041
vt 0.893013 0.908661
vt 0.922484 0.908660
vt 0.995323 0.859280
vt 0.995323 0.908660
vt 0.790703 0.908661
vt 0.668850 0.601598
vt 0.627314 0.573439
vt 0.668850 0.573439
vt 0.627314 0.629757
vt 0.627314 0.601598
vt 0.668850 0.629757
vt 0.627314 0.657916
vt 0.685655 0.629757
vt 0.727191 0.601598
vt 0.727191 0.629757
vt 0.610509 0.629757
vt 0.114767 0.168293
vt 0.095916 0.220936
vt 0.095916 0.168293
vt 0.143042 0.220936
vt 0.114767 0.220936
vt 0.161893 0.168293
vt 0.143042 0.168293
vt 0.114767 0.136707
vt 0.143042 0.084063
vt 0.143042 0.136707
vt 0.143042 0.252523
vt 0.679363 0.612195
vt 0.705410 0.568551
vt 0.705410 0.612195
vt 0.653316 0.612195
vt 0.679363 0.568551
vt 0.627270 0.612195
vt 0.653316 0.568551
vt 0.679363 0.655839
vt 0.653316 0.699483
vt 0.653316 0.655839
vt 0.653316 0.524907
vt 0.922484 0.859280
vt 0.179732 0.161336
vt 0.180835 0.129543
vt 0.072230 0.154563
vt 0.071639 0.184901
vt 0.685655 0.601598
vt 0.068267 0.117149
vt 0.210807 0.209629
vt 0.195135 0.195141
vt 0.066721 0.124568
vt 0.067218 0.232901
vt 0.953247 0.803206
vt 0.953247 0.925710
vt 0.808410 0.884875
vt 0.552321 0.652150
vt 0.773734 0.598717
vt 0.162963 0.095902
vt 0.089154 0.216230
vt 0.820174 0.958041
vt 0.790703 0.859280
vt 0.668850 0.657916
vt 0.610509 0.601598
vt 0.161893 0.220936
vt 0.114767 0.084063
vt 0.114767 0.252523
vt 0.627270 0.568551
vt 0.679363 0.699483
vt 0.679363 0.524907
vn -0.7537 -0.2480 0.6087
vn -0.6572 0.2806 -0.6995
vn -0.0027 0.9272 0.3744
vn 0.6572 -0.2806 0.6995
vn 0.0027 -0.9272 -0.3744
vn 0.0185 -0.8678 -0.4966
vn 0.0355 -0.4958 0.8677
vn 0.9992 0.0337 -0.0216
vn -0.0355 0.4958 -0.8677
vn -0.9992 -0.0337 0.0216
vn 0.0010 -0.9273 -0.3744
vn 0.8804 -0.1924 0.4334
vn -0.0012 0.9274 0.3742
vn -0.8767 0.1872 -0.4432
vn 0.4811 0.3286 -0.8128
vn -0.9992 -0.0339 0.0210
vn -0.0314 0.3457 -0.9378
vn 0.9992 0.0339 -0.0210
vn 0.0317 -0.3435 0.9386
vn -0.0245 0.9373 0.3477
vn -0.5376 -0.3529 0.7658
vn 0.7537 0.2480 -0.6087
vn -0.0185 0.8678 0.4966
vn 0.0231 -0.9256 -0.3777
vn 0.5388 -0.1245 0.8332
vn 0.7115 0.5969 -0.3708
vn -0.4512 0.7926 0.4102
vn -0.7115 -0.5969 0.3708
vn 0.4512 -0.7926 -0.4102
vn -0.0129 -0.9510 -0.3089
vn -0.0333 -0.3083 0.9507
vn -0.9994 0.0226 -0.0277
vn 0.0333 0.3083 -0.9507
vn 0.9994 -0.0226 0.0277
vn 0.4545 -0.7921 -0.4074
vn -0.8561 -0.2622 -0.4454
vn -0.4540 0.7924 0.4075
vn 0.8527 0.2547 0.4561
vn 0.2452 0.5510 -0.7977
vn 0.9993 -0.0273 0.0252
vn -0.0143 -0.9017 -0.4321
vn -0.9993 0.0277 -0.0247
vn 0.0127 0.8805 0.4740
vn 0.0347 0.4595 -0.8875
vn 0.8492 0.0000 0.5281
vn 0.5281 0.0000 -0.8492
vn -0.8492 -0.0000 -0.5281
vn -0.5281 -0.0000 0.8492
vn 0.0000 -1.0000 -0.0000
vn 0.0000 1.0000 0.0000
vn 0.8496 0.0003 0.5274
vn 0.5274 0.0012 -0.8496
vn -0.8496 -0.0003 -0.5274
vn -0.5274 -0.0012 0.8496
vn 0.0009 -1.0000 -0.0008
vn -0.0009 1.0000 0.0008
vn -0.2495 -0.5124 0.8217
vn -0.5388 0.1245 -0.8332
vn 0.0129 0.9510 0.3089
vn -0.0397 -0.6739 0.7377
vn 0.8772 -0.1789 0.4455
vn -0.0010 0.9273 0.3744
vn -0.8784 0.1782 -0.4436
vn -0.9992 -0.0338 0.0209
vn -0.0313 0.3456 -0.9378
vn 0.9992 0.0338 -0.0209
vn 0.0312 -0.3437 0.9386
vn -0.4864 -0.3093 0.8172
vn 0.0236 -0.9254 -0.3783
vn 0.4544 -0.7921 -0.4074
vn -0.8494 -0.2690 -0.4541
vn -0.4545 0.7921 0.4074
vn 0.8399 0.2902 0.4586
vn 0.9993 -0.0277 0.0247
vn -0.0115 -0.9013 -0.4330
vn -0.9993 0.0273 -0.0251
vn 0.0106 0.8809 0.4732
vn -0.0428 -0.5805 0.8131
vn -0.0345 -0.6699 0.7416
s off
f 4/1/1 1/2/1 2/3/1
f 8/4/2 1/2/2 3/5/2
f 7/6/3 3/7/3 4/1/3
f 6/8/4 4/1/4 2/3/4
f 5/9/5 2/3/5 1/10/5
f 10/11/6 11/12/6 9/13/6
f 16/14/7 9/13/7 11/12/7
f 15/15/8 11/16/8 12/17/8
f 10/11/9 15/15/9 12/17/9
f 9/18/10 14/19/10 10/11/10
f 25/20/11 18/21/11 26/22/11
f 26/22/12 20/23/12 27/24/12
f 20/23/13 28/25/13 27/24/13
f 28/26/14 17/27/14 25/28/14
f 20/23/15 17/29/15 19/30/15
f 21/31/16 30/32/16 29/33/16
f 30/32/17 24/34/17 31/35/17
f 31/35/18 23/36/18 32/37/18
f 32/38/19 21/39/19 29/40/19
f 22/41/20 23/42/20 24/34/20
f 28/26/21 26/22/21 27/24/21
f 8/43/22 6/8/22 5/44/22
f 16/45/23 14/19/23 13/46/23
f 32/38/24 30/32/24 31/35/24
f 33/47/25 36/48/25 34/49/25
f 35/50/26 37/51/26 40/52/26
f 35/53/27 39/54/27 36/48/27
f 36/48/28 38/55/28 34/49/28
f 33/56/29 38/55/29 37/57/29
f 41/58/30 44/59/30 42/60/30
f 43/61/31 45/62/31 48/63/31
f 43/64/32 47/65/32 44/59/32
f 44/59/33 46/66/33 42/60/33
f 41/67/34 46/66/34 45/68/34
f 57/69/35 50/70/35 49/71/35
f 58/72/36 52/73/36 50/70/36
f 60/74/37 52/73/37 59/75/37
f 60/76/38 49/77/38 51/78/38
f 51/79/39 50/70/39 52/73/39
f 62/80/40 53/81/40 61/82/40
f 62/80/41 56/83/41 54/84/41
f 63/85/42 55/86/42 56/83/42
f 64/87/43 53/88/43 55/89/43
f 55/90/44 54/84/44 56/83/44
f 67/91/45 66/92/45 65/93/45
f 67/91/46 72/94/46 68/95/46
f 69/96/47 72/94/47 71/97/47
f 65/98/48 70/99/48 69/100/48
f 65/98/49 71/97/49 67/91/49
f 70/101/50 68/95/50 72/94/50
f 75/102/51 74/103/51 73/104/51
f 79/105/52 76/106/52 75/102/52
f 77/107/53 80/108/53 79/105/53
f 73/109/54 78/110/54 77/111/54
f 73/109/55 79/105/55 75/102/55
f 78/112/56 76/106/56 80/108/56
f 60/76/57 58/72/57 57/113/57
f 37/114/58 39/54/58 40/115/58
f 45/116/59 47/65/59 48/117/59
f 64/87/60 62/80/60 61/118/60
f 4/1/1 3/5/1 1/2/1
f 8/4/2 5/119/2 1/2/2
f 7/6/3 8/120/3 3/7/3
f 6/8/4 7/6/4 4/1/4
f 5/9/5 6/8/5 2/3/5
f 10/11/6 12/17/6 11/12/6
f 16/14/7 13/121/7 9/13/7
f 15/15/8 16/122/8 11/16/8
f 10/11/9 14/19/9 15/15/9
f 9/18/10 13/123/10 14/19/10
f 25/20/11 17/124/11 18/21/11
f 26/22/61 18/21/61 20/23/61
f 20/23/62 19/125/62 28/25/62
f 28/26/63 19/126/63 17/27/63
f 20/23/15 18/21/15 17/29/15
f 21/31/64 22/41/64 30/32/64
f 30/32/65 22/41/65 24/34/65
f 31/35/66 24/34/66 23/36/66
f 32/38/67 23/127/67 21/39/67
f 22/41/20 21/128/20 23/42/20
f 28/26/68 25/28/68 26/22/68
f 8/43/22 7/6/22 6/8/22
f 16/45/23 15/15/23 14/19/23
f 32/38/69 29/40/69 30/32/69
f 33/47/25 35/50/25 36/48/25
f 35/50/26 33/47/26 37/51/26
f 35/53/27 40/129/27 39/54/27
f 36/48/28 39/54/28 38/55/28
f 33/56/29 34/49/29 38/55/29
f 41/58/30 43/61/30 44/59/30
f 43/61/31 41/58/31 45/62/31
f 43/64/32 48/130/32 47/65/32
f 44/59/33 47/65/33 46/66/33
f 41/67/34 42/60/34 46/66/34
f 57/69/70 58/72/70 50/70/70
f 58/72/71 59/75/71 52/73/71
f 60/74/72 51/131/72 52/73/72
f 60/76/73 57/113/73 49/77/73
f 51/79/39 49/132/39 50/70/39
f 62/80/74 54/84/74 53/81/74
f 62/80/75 63/85/75 56/83/75
f 63/85/76 64/133/76 55/86/76
f 64/87/77 61/118/77 53/88/77
f 55/90/44 53/134/44 54/84/44
f 67/91/45 68/95/45 66/92/45
f 67/91/46 71/97/46 72/94/46
f 69/96/47 70/135/47 72/94/47
f 65/98/48 66/136/48 70/99/48
f 65/98/49 69/100/49 71/97/49
f 70/101/50 66/137/50 68/95/50
f 75/102/51 76/106/51 74/103/51
f 79/105/52 80/108/52 76/106/52
f 77/107/53 78/138/53 80/108/53
f 73/109/54 74/139/54 78/110/54
f 73/109/55 77/111/55 79/105/55
f 78/112/56 74/140/56 76/106/56
f 60/76/78 59/75/78 58/72/78
f 37/114/58 38/55/58 39/54/58
f 45/116/59 46/66/59 47/65/59
f 64/87/79 63/85/79 62/80/79
