# Blender v2.79 (sub 0) OBJ File: '3DObjectDecoderObjects.blend'
# www.blender.org
o Cube.003_Cube.001
v -0.514977 0.669153 1.604708
v -0.256275 0.589306 1.905364
v -0.540678 1.053369 1.728862
v -0.281976 0.973521 2.029518
v 0.251261 0.912568 1.010040
v 0.509962 0.832720 1.310696
v 0.484261 1.216936 1.434850
v 0.225559 1.296784 1.134194
v 0.082142 -1.705682 1.174017
v 0.069041 -1.783180 0.777129
v 0.486484 -1.702635 1.160075
v 0.473384 -1.780132 0.763187
v 0.068152 -0.724226 0.982837
v 0.055051 -0.801724 0.585948
v 0.459394 -0.798676 0.572006
v 0.472495 -0.721179 0.968894
v 0.673859 1.199175 0.208830
v 1.030256 1.161644 0.396630
v 0.648911 1.583445 0.332969
v 1.005308 1.545914 0.520770
v 0.034444 0.087438 0.218561
v 0.027581 -0.194994 -0.071066
v 0.438793 0.091449 0.205068
v 0.431930 -0.190983 -0.084558
v 0.204545 0.900279 1.039737
v 0.560668 0.861824 1.230385
v 0.533565 1.239980 1.373316
v 0.187103 1.286741 1.158538
v 0.066016 -0.646841 0.942505
v 0.057582 -0.894262 0.621225
v 0.461942 -0.890823 0.607837
v 0.470340 -0.642941 0.928311
v -0.242302 0.724234 0.849814
v -0.522497 0.476483 1.004134
v -0.435182 1.041944 1.009671
v -0.715376 0.794193 1.163991
v -0.783738 0.816031 0.014092
v -1.063932 0.568280 0.168412
v -1.256812 0.885989 0.328269
v -0.976617 1.133741 0.173949
v -0.084520 -1.785285 -0.823991
v -0.066707 -1.466329 -1.072280
v -0.488712 -1.769485 -0.832693
v -0.470899 -1.450530 -1.080981
v -0.077511 -1.171274 -0.034723
v -0.059698 -0.852319 -0.283012
v -0.463890 -0.836519 -0.291714
v -0.481703 -1.155474 -0.043425
v -0.467785 1.307934 -0.582051
v -0.808300 1.192284 -0.767471
v -0.662025 1.625392 -0.423344
v -1.002540 1.509742 -0.608765
v -0.034208 -0.039893 0.067678
v -0.026133 -0.017365 -0.336209
v -0.438419 -0.023835 0.060492
v -0.430345 -0.001307 -0.343394
v -0.715259 0.757788 0.215512
v -1.058250 0.638010 0.035391
v -1.268202 0.928355 0.229577
v -0.917617 1.080450 0.353835
v -0.074867 -1.084133 0.011266
v -0.064214 -0.995106 -0.377012
v -0.468440 -0.979643 -0.384792
v -0.479031 -1.067331 0.003373
v 0.313209 0.079915 0.689348
v 0.313209 1.479915 0.689348
v 0.756786 0.079915 -0.023982
v 0.756786 1.479915 -0.023982
v -0.756786 0.079915 0.023982
v -0.756786 1.479915 0.023982
v -0.313209 0.079915 -0.689348
v -0.313209 1.479915 -0.689348
v 0.096532 1.579652 0.413215
v 0.095970 2.179651 0.413725
v 0.412995 1.580381 -0.096541
v 0.412433 2.180381 -0.096031
v -0.413224 1.579443 0.096752
v -0.413786 2.179442 0.097261
v -0.096761 1.580173 -0.413004
v -0.097323 2.180172 -0.412494
vt 0.151712 0.164304
vt 0.128453 0.121671
vt 0.152804 0.123501
vt 0.067175 0.157952
vt 0.127361 0.162474
vt 0.210807 0.209629
vt 0.150620 0.205107
vt 0.211899 0.168826
vt 0.214083 0.087220
vt 0.153896 0.082698
vt 0.120318 0.196104
vt 0.141703 0.159716
vt 0.141869 0.195827
vt 0.194969 0.159030
vt 0.120152 0.159993
vt 0.066721 0.124568
vt 0.119987 0.123882
vt 0.066887 0.160679
vt 0.067218 0.232901
vt 0.120483 0.232215
vt 0.893013 0.803206
vt 0.953247 0.844041
vt 0.893013 0.844041
vt 0.953247 0.884875
vt 0.893013 0.884875
vt 0.893013 0.925710
vt 0.868643 0.884875
vt 0.808410 0.844041
vt 0.868643 0.844041
vt 0.977617 0.844041
vt 0.977617 0.884875
vt 0.741845 0.545283
vt 0.663028 0.598717
vt 0.663028 0.545283
vt 0.741845 0.652150
vt 0.663028 0.652150
vt 0.741845 0.705584
vt 0.663028 0.705584
vt 0.631139 0.652150
vt 0.552321 0.598717
vt 0.631139 0.598717
vt 0.741845 0.598717
vt 0.773734 0.652150
vt 0.237342 0.129853
vt 0.236250 0.170656
vt 0.045336 0.160957
vt 0.067052 0.196790
vt 0.045501 0.197068
vt 0.094887 0.153073
vt 0.114964 0.123128
vt 0.113861 0.154921
vt 0.095990 0.121280
vt 0.047991 0.148506
vt 0.049093 0.116713
vt 0.116067 0.091335
vt 0.161861 0.127695
vt 0.160758 0.159488
vt 0.112759 0.186714
vt 0.159655 0.191281
vt 0.153193 0.158992
vt 0.134495 0.188340
vt 0.135087 0.158002
vt 0.197352 0.191779
vt 0.152601 0.189330
vt 0.089154 0.216230
vt 0.089745 0.185892
vt 0.090336 0.155553
vt 0.090927 0.125215
vt 0.135678 0.127663
vt 0.893013 0.809899
vt 0.820174 0.859280
vt 0.820174 0.809899
vt 0.893013 0.859280
vt 0.820174 0.908661
vt 0.893013 0.958041
vt 0.893013 0.908661
vt 0.922484 0.908660
vt 0.995323 0.859280
vt 0.995323 0.908660
vt 0.790703 0.908661
vt 0.668850 0.601598
vt 0.627314 0.573439
vt 0.668850 0.573439
vt 0.627314 0.629757
vt 0.627314 0.601598
vt 0.668850 0.629757
vt 0.627314 0.657916
vt 0.685655 0.629757
vt 0.727191 0.601598
vt 0.727191 0.629757
vt 0.610509 0.601598
vt 0.114767 0.168293
vt 0.095916 0.220936
vt 0.095916 0.168293
vt 0.143042 0.220936
vt 0.114767 0.220936
vt 0.161893 0.168293
vt 0.143042 0.168293
vt 0.114767 0.136707
vt 0.143042 0.084063
vt 0.143042 0.136707
vt 0.143042 0.252523
vt 0.679363 0.612195
vt 0.705410 0.568551
vt 0.705410 0.612195
vt 0.653316 0.612195
vt 0.679363 0.568551
vt 0.627270 0.612195
vt 0.653316 0.568551
vt 0.679363 0.655839
vt 0.653316 0.699483
vt 0.653316 0.655839
vt 0.653316 0.524907
vt 0.922484 0.859280
vt 0.179732 0.161336
vt 0.180835 0.129543
vt 0.071639 0.184901
vt 0.685655 0.601598
vt 0.068267 0.117149
vt 0.212991 0.128023
vt 0.195135 0.195141
vt 0.953247 0.803206
vt 0.953247 0.925710
vt 0.808410 0.884875
vt 0.552321 0.652150
vt 0.773734 0.598717
vt 0.162963 0.095902
vt 0.197943 0.161440
vt 0.133904 0.218678
vt 0.820174 0.958041
vt 0.790703 0.859280
vt 0.668850 0.657916
vt 0.610509 0.629757
vt 0.161893 0.220936
vt 0.114767 0.084063
vt 0.114767 0.252523
vt 0.627270 0.568551
vt 0.679363 0.699483
vt 0.679363 0.524907
vt 0.072230 0.154563
vn -0.7662 -0.2434 0.5947
vn -0.6394 0.1974 -0.7431
vn -0.0635 0.9496 0.3069
vn 0.6394 -0.1974 0.7431
vn 0.0635 -0.9496 -0.3069
vn 0.0140 -0.9815 0.1912
vn 0.0324 0.1915 0.9809
vn 0.9994 0.0075 -0.0345
vn -0.0324 -0.1915 -0.9809
vn -0.9994 -0.0075 0.0345
vn 0.0617 -0.9498 -0.3068
vn 0.8857 -0.1072 0.4516
vn -0.0619 0.9498 0.3066
vn -0.8814 0.1020 -0.4612
vn 0.4693 0.2989 -0.8309
vn -0.9994 -0.0097 0.0337
vn -0.0175 -0.7036 -0.7104
vn 0.9994 0.0097 -0.0337
vn 0.0182 0.7024 0.7116
vn -0.0304 0.7160 -0.6975
vn -0.5289 -0.3330 0.7807
vn 0.7662 0.2434 -0.5947
vn -0.0140 0.9815 -0.1912
vn 0.0270 -0.7910 0.6112
vn 0.5414 -0.0918 0.8357
vn 0.6925 0.6123 -0.3814
vn -0.4767 0.7853 0.3951
vn -0.6925 -0.6123 0.3814
vn 0.4767 -0.7853 -0.3951
vn -0.0070 -0.6140 -0.7893
vn -0.0440 -0.7883 0.6137
vn -0.9990 0.0391 -0.0215
vn 0.0440 0.7883 -0.6137
vn 0.9990 -0.0391 0.0215
vn 0.4801 -0.7846 -0.3923
vn -0.8414 -0.2854 -0.4590
vn -0.4796 0.7849 0.3924
vn 0.8378 0.2776 0.4702
vn 0.2475 0.5501 -0.7976
vn 0.9990 -0.0399 0.0183
vn 0.0194 0.0409 -0.9990
vn -0.9991 0.0397 -0.0178
vn -0.0199 -0.0539 0.9983
vn 0.0386 0.9977 0.0564
vn 0.8492 0.0000 0.5281
vn 0.5281 0.0000 -0.8492
vn -0.8492 -0.0000 -0.5281
vn -0.5281 -0.0000 0.8492
vn 0.0000 -1.0000 -0.0000
vn 0.0000 1.0000 0.0000
vn 0.8496 0.0003 0.5274
vn 0.5274 0.0012 -0.8496
vn -0.8496 -0.0003 -0.5274
vn -0.5274 -0.0012 0.8496
vn 0.0009 -1.0000 -0.0008
vn -0.0009 1.0000 0.0008
vn -0.2530 -0.5109 0.8216
vn -0.5414 0.0918 -0.8357
vn 0.0070 0.6140 0.7893
vn -0.0361 -0.9739 -0.2243
vn 0.8814 -0.0924 0.4632
vn -0.0617 0.9498 0.3068
vn -0.8827 0.0916 -0.4609
vn -0.9994 -0.0099 0.0333
vn -0.0167 -0.7038 -0.7102
vn 0.9994 0.0099 -0.0333
vn 0.0168 0.7019 0.7120
vn -0.4765 -0.2779 0.8341
vn 0.0290 -0.7923 0.6094
vn 0.4800 -0.7847 -0.3923
vn -0.8349 -0.2916 -0.4668
vn -0.4801 0.7846 0.3923
vn 0.8236 0.3141 0.4722
vn 0.9991 -0.0397 0.0178
vn 0.0208 0.0415 -0.9989
vn -0.9990 0.0399 -0.0183
vn -0.0217 -0.0531 0.9984
vn -0.0400 -0.5753 0.8170
vn -0.0330 -0.9747 -0.2211
s off
f 4/1/1 1/2/1 2/3/1
f 8/4/2 1/2/2 3/5/2
f 4/1/3 8/6/3 3/7/3
f 2/3/4 7/8/4 4/1/4
f 5/9/5 2/3/5 1/10/5
f 10/11/6 11/12/6 9/13/6
f 16/14/7 9/13/7 11/12/7
f 12/15/8 16/16/8 11/17/8
f 10/11/9 15/18/9 12/15/9
f 13/19/10 10/11/10 9/20/10
f 25/21/11 18/22/11 26/23/11
f 26/23/12 20/24/12 27/25/12
f 20/24/13 28/26/13 27/25/13
f 28/27/14 17/28/14 25/29/14
f 20/24/15 17/30/15 19/31/15
f 21/32/16 30/33/16 29/34/16
f 30/33/17 24/35/17 31/36/17
f 31/36/18 23/37/18 32/38/18
f 32/39/19 21/40/19 29/41/19
f 22/42/20 23/43/20 24/35/20
f 28/27/21 26/23/21 27/25/21
f 7/8/22 5/44/22 8/45/22
f 16/46/23 14/47/23 13/48/23
f 32/39/24 30/33/24 31/36/24
f 33/49/25 36/50/25 34/51/25
f 35/52/26 37/53/26 40/54/26
f 35/55/27 39/56/27 36/50/27
f 36/50/28 38/57/28 34/51/28
f 33/58/29 38/57/29 37/59/29
f 41/60/30 44/61/30 42/62/30
f 41/60/31 48/63/31 43/64/31
f 44/61/32 48/65/32 47/66/32
f 44/61/33 46/67/33 42/62/33
f 42/62/34 45/68/34 41/69/34
f 57/70/35 50/71/35 49/72/35
f 58/73/36 52/74/36 50/71/36
f 60/75/37 52/74/37 59/76/37
f 60/77/38 49/78/38 51/79/38
f 51/80/39 50/71/39 52/74/39
f 62/81/40 53/82/40 61/83/40
f 62/81/41 56/84/41 54/85/41
f 63/86/42 55/87/42 56/84/42
f 64/88/43 53/89/43 55/90/43
f 56/84/44 53/91/44 54/85/44
f 67/92/45 66/93/45 65/94/45
f 67/92/46 72/95/46 68/96/46
f 69/97/47 72/95/47 71/98/47
f 65/99/48 70/100/48 69/101/48
f 65/99/49 71/98/49 67/92/49
f 70/102/50 68/96/50 72/95/50
f 75/103/51 74/104/51 73/105/51
f 79/106/52 76/107/52 75/103/52
f 77/108/53 80/109/53 79/106/53
f 73/110/54 78/111/54 77/112/54
f 73/110/55 79/106/55 75/103/55
f 78/113/56 76/107/56 80/109/56
f 60/77/57 58/73/57 57/114/57
f 37/115/58 39/56/58 40/116/58
f 48/117/59 46/67/59 47/66/59
f 64/88/60 62/81/60 61/118/60
f 4/1/1 3/5/1 1/2/1
f 8/4/2 5/119/2 1/2/2
f 4/1/3 7/8/3 8/6/3
f 2/3/4 6/120/4 7/8/4
f 5/9/5 6/120/5 2/3/5
f 10/11/6 12/15/6 11/12/6
f 16/14/7 13/121/7 9/13/7
f 12/15/8 15/18/8 16/16/8
f 10/11/9 14/47/9 15/18/9
f 13/19/10 14/47/10 10/11/10
f 25/21/11 17/122/11 18/22/11
f 26/23/61 18/22/61 20/24/61
f 20/24/62 19/123/62 28/26/62
f 28/27/63 19/124/63 17/28/63
f 20/24/15 18/22/15 17/30/15
f 21/32/64 22/42/64 30/33/64
f 30/33/65 22/42/65 24/35/65
f 31/36/66 24/35/66 23/37/66
f 32/39/67 23/125/67 21/40/67
f 22/42/20 21/126/20 23/43/20
f 28/27/68 25/29/68 26/23/68
f 7/8/22 6/120/22 5/44/22
f 16/46/23 15/18/23 14/47/23
f 32/39/69 29/41/69 30/33/69
f 33/49/25 35/52/25 36/50/25
f 35/52/26 33/49/26 37/53/26
f 35/55/27 40/127/27 39/56/27
f 36/50/28 39/56/28 38/57/28
f 33/58/29 34/51/29 38/57/29
f 41/60/30 43/64/30 44/61/30
f 41/60/31 45/128/31 48/63/31
f 44/61/32 43/129/32 48/65/32
f 44/61/33 47/66/33 46/67/33
f 42/62/34 46/67/34 45/68/34
f 57/70/70 58/73/70 50/71/70
f 58/73/71 59/76/71 52/74/71
f 60/75/72 51/130/72 52/74/72
f 60/77/73 57/114/73 49/78/73
f 51/80/39 49/131/39 50/71/39
f 62/81/74 54/85/74 53/82/74
f 62/81/75 63/86/75 56/84/75
f 63/86/76 64/132/76 55/87/76
f 64/88/77 61/118/77 53/89/77
f 56/84/44 55/133/44 53/91/44
f 67/92/45 68/96/45 66/93/45
f 67/92/46 71/98/46 72/95/46
f 69/97/47 70/134/47 72/95/47
f 65/99/48 66/135/48 70/100/48
f 65/99/49 69/101/49 71/98/49
f 70/102/50 66/136/50 68/96/50
f 75/103/51 76/107/51 74/104/51
f 79/106/52 80/109/52 76/107/52
f 77/108/53 78/137/53 80/109/53
f 73/110/54 74/138/54 78/111/54
f 73/110/55 77/112/55 79/106/55
f 78/113/56 74/139/56 76/107/56
f 60/77/78 59/76/78 58/73/78
f 37/115/58 38/57/58 39/56/58
f 48/117/59 45/140/59 46/67/59
f 64/88/79 63/86/79 62/81/79
