# Blender v2.79 (sub 0) OBJ File: '3DObjectDecoderObjects.blend'
# www.blender.org
o Cube.003_Cube.001
v -0.512863 0.728917 1.606622
v -0.264473 0.651396 1.916443
v -0.532399 1.116989 1.719384
v -0.284008 1.039468 2.029205
v 0.275022 0.936994 1.027019
v 0.523413 0.859473 1.336840
v 0.503878 1.247545 1.449602
v 0.255487 1.325066 1.139780
v 0.083621 -1.830468 -0.834497
v 0.067787 -1.579578 -1.151517
v 0.487827 -1.814414 -0.841982
v 0.471993 -1.563524 -1.159002
v 0.064001 -1.046950 -0.213437
v 0.048167 -0.796061 -0.530457
v 0.452374 -0.780007 -0.537942
v 0.468208 -1.030897 -0.220921
v 0.665641 1.191704 0.216148
v 1.026505 1.156890 0.395763
v 0.646968 1.579823 0.328892
v 1.007832 1.545009 0.508508
v 0.039375 -0.158397 0.376977
v 0.024395 0.064873 0.039895
v 0.443584 -0.142340 0.369650
v 0.428604 0.080930 0.032568
v 0.215802 0.922673 1.067774
v 0.576334 0.886905 1.250673
v 0.555072 1.268713 1.385082
v 0.205748 1.312975 1.174356
v 0.062642 -0.996106 -0.176487
v 0.047422 -0.766356 -0.511015
v 0.451632 -0.750350 -0.518411
v 0.466846 -0.979963 -0.183875
v -0.344595 0.658888 0.826578
v -0.664251 0.602946 1.068229
v -0.316904 1.042545 0.952023
v -0.636559 0.986603 1.193674
v -0.953804 0.944723 0.086868
v -1.273460 0.888782 0.328518
v -1.245769 1.272440 0.453963
v -0.926113 1.328381 0.212312
v -0.083605 -1.466571 1.152245
v -0.067624 -1.604997 0.772403
v -0.487859 -1.467828 1.135694
v -0.471877 -1.606255 0.755852
v -0.072527 -0.526925 0.810272
v -0.056545 -0.665352 0.430431
v -0.460799 -0.666609 0.413880
v -0.476781 -0.528183 0.793722
v -0.553636 1.144826 -0.612764
v -0.935533 1.208831 -0.730083
v -0.527524 1.528891 -0.488229
v -0.909421 1.592896 -0.605548
v -0.035133 0.099098 -0.119280
v -0.026247 -0.241203 -0.337943
v -0.439400 0.098992 -0.135543
v -0.430514 -0.241309 -0.354206
v -0.877595 0.873013 0.293425
v -1.262568 0.935150 0.182609
v -1.256021 1.306704 0.350451
v -0.860545 1.264277 0.397612
v -0.070265 -0.456239 0.754052
v -0.059511 -0.764887 0.493244
v -0.463788 -0.765597 0.477217
v -0.474499 -0.456615 0.737044
v 0.313209 0.079915 0.689348
v 0.313209 1.479915 0.689348
v 0.756786 0.079915 -0.023982
v 0.756786 1.479915 -0.023982
v -0.756786 0.079915 0.023982
v -0.756786 1.479915 0.023982
v -0.313209 0.079915 -0.689348
v -0.313209 1.479915 -0.689348
v 0.096532 1.579652 0.413215
v 0.095970 2.179651 0.413725
v 0.412995 1.580381 -0.096541
v 0.412433 2.180381 -0.096031
v -0.413224 1.579443 0.096752
v -0.413786 2.179442 0.097261
v -0.096761 1.580173 -0.413004
v -0.097323 2.180172 -0.412494
vt 0.151712 0.164304
vt 0.128453 0.121671
vt 0.152804 0.123501
vt 0.067175 0.157952
vt 0.127361 0.162474
vt 0.211899 0.168826
vt 0.150620 0.205107
vt 0.212991 0.128023
vt 0.153896 0.082698
vt 0.120318 0.196104
vt 0.141703 0.159716
vt 0.141869 0.195827
vt 0.194969 0.159030
vt 0.066887 0.160679
vt 0.119987 0.123882
vt 0.120152 0.159993
vt 0.120483 0.232215
vt 0.067052 0.196790
vt 0.893013 0.803206
vt 0.953247 0.844041
vt 0.893013 0.844041
vt 0.953247 0.884875
vt 0.893013 0.884875
vt 0.893013 0.925710
vt 0.868643 0.884875
vt 0.808410 0.844041
vt 0.868643 0.844041
vt 0.977617 0.844041
vt 0.977617 0.884875
vt 0.741845 0.545283
vt 0.663028 0.598717
vt 0.663028 0.545283
vt 0.741845 0.652150
vt 0.663028 0.652150
vt 0.741845 0.705584
vt 0.663028 0.705584
vt 0.631139 0.652150
vt 0.552321 0.598717
vt 0.631139 0.598717
vt 0.741845 0.598717
vt 0.773734 0.652150
vt 0.237342 0.129853
vt 0.236250 0.170656
vt 0.045336 0.160957
vt 0.045501 0.197068
vt 0.094887 0.153073
vt 0.114964 0.123128
vt 0.113861 0.154921
vt 0.095990 0.121280
vt 0.047991 0.148506
vt 0.049093 0.116713
vt 0.116067 0.091335
vt 0.161861 0.127695
vt 0.160758 0.159488
vt 0.112759 0.186714
vt 0.159655 0.191281
vt 0.153193 0.158992
vt 0.134495 0.188340
vt 0.135087 0.158002
vt 0.197352 0.191779
vt 0.152601 0.189330
vt 0.133904 0.218678
vt 0.089745 0.185892
vt 0.090336 0.155553
vt 0.090927 0.125215
vt 0.135678 0.127663
vt 0.893013 0.809899
vt 0.820174 0.859280
vt 0.820174 0.809899
vt 0.893013 0.859280
vt 0.820174 0.908661
vt 0.893013 0.958041
vt 0.893013 0.908661
vt 0.922484 0.908660
vt 0.995323 0.859280
vt 0.995323 0.908660
vt 0.790703 0.859280
vt 0.668850 0.601598
vt 0.627314 0.573439
vt 0.668850 0.573439
vt 0.627314 0.629757
vt 0.627314 0.601598
vt 0.668850 0.629757
vt 0.627314 0.657916
vt 0.685655 0.629757
vt 0.727191 0.601598
vt 0.727191 0.629757
vt 0.610509 0.601598
vt 0.114767 0.168293
vt 0.095916 0.220936
vt 0.095916 0.168293
vt 0.143042 0.220936
vt 0.114767 0.220936
vt 0.161893 0.168293
vt 0.143042 0.168293
vt 0.114767 0.136707
vt 0.143042 0.084063
vt 0.143042 0.136707
vt 0.143042 0.252523
vt 0.679363 0.612195
vt 0.705410 0.568551
vt 0.705410 0.612195
vt 0.653316 0.612195
vt 0.679363 0.568551
vt 0.627270 0.612195
vt 0.653316 0.568551
vt 0.679363 0.655839
vt 0.653316 0.699483
vt 0.653316 0.655839
vt 0.653316 0.524907
vt 0.922484 0.859280
vt 0.179732 0.161336
vt 0.180835 0.129543
vt 0.072230 0.154563
vt 0.071639 0.184901
vt 0.685655 0.601598
vt 0.068267 0.117149
vt 0.210807 0.209629
vt 0.214083 0.087220
vt 0.195135 0.195141
vt 0.066721 0.124568
vt 0.067218 0.232901
vt 0.953247 0.803206
vt 0.953247 0.925710
vt 0.808410 0.884875
vt 0.552321 0.652150
vt 0.773734 0.598717
vt 0.162963 0.095902
vt 0.197943 0.161440
vt 0.089154 0.216230
vt 0.820174 0.958041
vt 0.790703 0.908661
vt 0.668850 0.657916
vt 0.610509 0.629757
vt 0.161893 0.220936
vt 0.114767 0.084063
vt 0.114767 0.252523
vt 0.627270 0.568551
vt 0.679363 0.699483
vt 0.679363 0.524907
vn -0.7879 -0.2081 0.5796
vn -0.6139 0.1916 -0.7658
vn -0.0483 0.9592 0.2787
vn 0.6139 -0.1916 0.7658
vn 0.0483 -0.9592 -0.2787
vn 0.0196 -0.7835 -0.6211
vn 0.0391 -0.6201 0.7835
vn 0.9990 0.0397 -0.0185
vn -0.0391 0.6201 -0.7835
vn -0.9990 -0.0397 0.0185
vn 0.0462 -0.9593 -0.2786
vn 0.8966 -0.1018 0.4310
vn -0.0464 0.9593 0.2784
vn -0.8924 0.0973 -0.4406
vn 0.4498 0.2690 -0.8516
vn -0.9990 -0.0397 0.0182
vn -0.0371 0.5514 -0.8334
vn 0.9990 0.0397 -0.0182
vn 0.0372 -0.5501 0.8342
vn -0.0231 0.8330 0.5528
vn -0.5196 -0.3093 0.7964
vn 0.7879 0.2081 -0.5796
vn -0.0196 0.7835 0.6211
vn 0.0223 -0.8238 -0.5664
vn 0.6092 -0.2858 0.7397
vn 0.7901 0.1383 -0.5972
vn 0.0684 0.9483 0.3101
vn -0.7901 -0.1383 0.5972
vn -0.0684 -0.9483 -0.3101
vn -0.0111 -0.9396 0.3420
vn -0.0395 0.3421 0.9388
vn -0.9992 -0.0031 -0.0409
vn 0.0395 -0.3421 -0.9388
vn 0.9992 0.0031 0.0409
vn -0.0645 -0.9493 -0.3078
vn -0.9436 0.1584 -0.2906
vn 0.0651 0.9492 0.3078
vn 0.9386 -0.1625 0.3043
vn 0.3239 0.2718 -0.9062
vn 0.9992 0.0006 0.0405
vn 0.0216 -0.8463 -0.5323
vn -0.9992 -0.0003 -0.0402
vn -0.0218 0.8437 0.5363
vn 0.0337 0.5409 -0.8404
vn 0.8492 0.0000 0.5281
vn 0.5281 0.0000 -0.8492
vn -0.8492 -0.0000 -0.5281
vn -0.5281 -0.0000 0.8492
vn 0.0000 -1.0000 -0.0000
vn 0.0000 1.0000 0.0000
vn 0.8496 0.0003 0.5274
vn 0.5274 0.0012 -0.8496
vn -0.8496 -0.0003 -0.5274
vn -0.5274 -0.0012 0.8496
vn 0.0009 -1.0000 -0.0008
vn -0.0009 1.0000 0.0008
vn -0.3035 -0.2328 0.9239
vn -0.6092 0.2858 -0.7397
vn 0.0111 0.9396 -0.3420
vn -0.0315 -0.6457 0.7629
vn 0.0462 -0.9593 -0.2787
vn 0.8925 -0.0857 0.4429
vn -0.0462 0.9593 0.2787
vn -0.8941 0.0848 -0.4398
vn -0.9990 -0.0397 0.0181
vn -0.0370 0.5514 -0.8334
vn 0.9990 0.0397 -0.0181
vn 0.0370 -0.5502 0.8342
vn -0.4578 -0.2452 0.8546
vn 0.0225 -0.8236 -0.5667
vn -0.0646 -0.9493 -0.3078
vn -0.9430 0.1507 -0.2968
vn 0.0645 0.9493 0.3078
vn 0.9457 -0.1215 0.3016
vn 0.9992 0.0003 0.0402
vn 0.0226 -0.8461 -0.5326
vn -0.9992 -0.0005 -0.0405
vn -0.0233 0.8440 0.5358
vn -0.1510 -0.4047 0.9019
vn -0.0292 -0.6439 0.7645
s off
f 4/1/1 1/2/1 2/3/1
f 8/4/2 1/2/2 3/5/2
f 7/6/3 3/7/3 4/1/3
f 6/8/4 4/1/4 2/3/4
f 1/9/5 6/8/5 2/3/5
f 10/10/6 11/11/6 9/12/6
f 16/13/7 9/12/7 11/11/7
f 15/14/8 11/15/8 12/16/8
f 10/10/9 15/14/9 12/16/9
f 9/17/10 14/18/10 10/10/10
f 25/19/11 18/20/11 26/21/11
f 26/21/12 20/22/12 27/23/12
f 20/22/13 28/24/13 27/23/13
f 28/25/14 17/26/14 25/27/14
f 20/22/15 17/28/15 19/29/15
f 21/30/16 30/31/16 29/32/16
f 30/31/17 24/33/17 31/34/17
f 31/34/18 23/35/18 32/36/18
f 32/37/19 21/38/19 29/39/19
f 22/40/20 23/41/20 24/33/20
f 28/25/21 26/21/21 27/23/21
f 7/6/22 5/42/22 8/43/22
f 16/44/23 14/18/23 13/45/23
f 32/37/24 30/31/24 31/34/24
f 33/46/25 36/47/25 34/48/25
f 35/49/26 37/50/26 40/51/26
f 35/52/27 39/53/27 36/47/27
f 36/47/28 38/54/28 34/48/28
f 33/55/29 38/54/29 37/56/29
f 41/57/30 44/58/30 42/59/30
f 41/57/31 48/60/31 43/61/31
f 43/62/32 47/63/32 44/58/32
f 44/58/33 46/64/33 42/59/33
f 42/59/34 45/65/34 41/66/34
f 57/67/35 50/68/35 49/69/35
f 58/70/36 52/71/36 50/68/36
f 60/72/37 52/71/37 59/73/37
f 60/74/38 49/75/38 51/76/38
f 52/71/39 49/77/39 50/68/39
f 62/78/40 53/79/40 61/80/40
f 62/78/41 56/81/41 54/82/41
f 63/83/42 55/84/42 56/81/42
f 64/85/43 53/86/43 55/87/43
f 56/81/44 53/88/44 54/82/44
f 67/89/45 66/90/45 65/91/45
f 67/89/46 72/92/46 68/93/46
f 69/94/47 72/92/47 71/95/47
f 65/96/48 70/97/48 69/98/48
f 65/96/49 71/95/49 67/89/49
f 70/99/50 68/93/50 72/92/50
f 75/100/51 74/101/51 73/102/51
f 79/103/52 76/104/52 75/100/52
f 77/105/53 80/106/53 79/103/53
f 73/107/54 78/108/54 77/109/54
f 73/107/55 79/103/55 75/100/55
f 78/110/56 76/104/56 80/106/56
f 60/74/57 58/70/57 57/111/57
f 37/112/58 39/53/58 40/113/58
f 45/114/59 47/63/59 48/115/59
f 64/85/60 62/78/60 61/116/60
f 4/1/1 3/5/1 1/2/1
f 8/4/2 5/117/2 1/2/2
f 7/6/3 8/118/3 3/7/3
f 6/8/4 7/6/4 4/1/4
f 1/9/5 5/119/5 6/8/5
f 10/10/6 12/16/6 11/11/6
f 16/13/7 13/120/7 9/12/7
f 15/14/8 16/121/8 11/15/8
f 10/10/9 14/18/9 15/14/9
f 9/17/10 13/122/10 14/18/10
f 25/19/61 17/123/61 18/20/61
f 26/21/62 18/20/62 20/22/62
f 20/22/63 19/124/63 28/24/63
f 28/25/64 19/125/64 17/26/64
f 20/22/15 18/20/15 17/28/15
f 21/30/65 22/40/65 30/31/65
f 30/31/66 22/40/66 24/33/66
f 31/34/67 24/33/67 23/35/67
f 32/37/68 23/126/68 21/38/68
f 22/40/20 21/127/20 23/41/20
f 28/25/69 25/27/69 26/21/69
f 7/6/22 6/8/22 5/42/22
f 16/44/23 15/14/23 14/18/23
f 32/37/70 29/39/70 30/31/70
f 33/46/25 35/49/25 36/47/25
f 35/49/26 33/46/26 37/50/26
f 35/52/27 40/128/27 39/53/27
f 36/47/28 39/53/28 38/54/28
f 33/55/29 34/48/29 38/54/29
f 41/57/30 43/61/30 44/58/30
f 41/57/31 45/129/31 48/60/31
f 43/62/32 48/130/32 47/63/32
f 44/58/33 47/63/33 46/64/33
f 42/59/34 46/64/34 45/65/34
f 57/67/71 58/70/71 50/68/71
f 58/70/72 59/73/72 52/71/72
f 60/72/73 51/131/73 52/71/73
f 60/74/74 57/111/74 49/75/74
f 52/71/39 51/132/39 49/77/39
f 62/78/75 54/82/75 53/79/75
f 62/78/76 63/83/76 56/81/76
f 63/83/77 64/133/77 55/84/77
f 64/85/78 61/116/78 53/86/78
f 56/81/44 55/134/44 53/88/44
f 67/89/45 68/93/45 66/90/45
f 67/89/46 71/95/46 72/92/46
f 69/94/47 70/135/47 72/92/47
f 65/96/48 66/136/48 70/97/48
f 65/96/49 69/98/49 71/95/49
f 70/99/50 66/137/50 68/93/50
f 75/100/51 76/104/51 74/101/51
f 79/103/52 80/106/52 76/104/52
f 77/105/53 78/138/53 80/106/53
f 73/107/54 74/139/54 78/108/54
f 73/107/55 77/109/55 79/103/55
f 78/110/56 74/140/56 76/104/56
f 60/74/79 59/73/79 58/70/79
f 37/112/58 38/54/58 39/53/58
f 45/114/59 46/64/59 47/63/59
f 64/85/80 63/83/80 62/78/80
