# Blender v2.79 (sub 0) OBJ File: '3DObjectDecoderObjects.blend'
# www.blender.org
o Cube.003_Cube.001
v -0.509013 0.743654 1.609104
v -0.263911 0.674365 1.923462
v -0.532414 1.133883 1.713362
v -0.287312 1.064594 2.027719
v 0.284502 0.944696 1.034721
v 0.529603 0.875407 1.349079
v 0.506203 1.265636 1.453336
v 0.261101 1.334925 1.138979
v 0.084315 -1.743694 -0.960239
v 0.067102 -1.454615 -1.242790
v 0.488481 -1.726424 -0.967192
v 0.471267 -1.437345 -1.249743
v 0.066784 -1.045352 -0.244689
v 0.049571 -0.756272 -0.527240
v 0.453736 -0.739002 -0.534193
v 0.470950 -1.028081 -0.251642
v 0.666575 1.184749 0.219860
v 1.028255 1.157715 0.399176
v 0.644066 1.575035 0.324103
v 1.005745 1.548001 0.503419
v 0.039288 -0.164917 0.376037
v 0.023974 0.066991 0.044854
v 0.443460 -0.147665 0.369428
v 0.428146 0.084244 0.038245
v 0.221835 0.929772 1.078460
v 0.583163 0.901822 1.261191
v 0.557926 1.286044 1.387961
v 0.208251 1.322256 1.176323
v 0.065273 -0.993420 -0.200458
v 0.049418 -0.747737 -0.524951
v 0.453593 -0.730585 -0.531720
v 0.469434 -0.975971 -0.207185
v -0.375965 0.657949 0.827742
v -0.688218 0.648049 1.084850
v -0.297710 1.039436 0.937469
v -0.609962 1.029536 1.194577
v -0.981761 0.990162 0.104792
v -1.294013 0.980262 0.361900
v -1.215757 1.361749 0.471627
v -0.903505 1.371649 0.214519
v -0.083303 -1.557754 1.132251
v -0.067959 -1.717571 0.760875
v -0.487567 -1.558597 1.115911
v -0.472223 -1.718414 0.744535
v -0.069264 -0.639077 0.737489
v -0.053920 -0.798894 0.366113
v -0.458183 -0.799737 0.349773
v -0.473527 -0.639920 0.721149
v -0.584108 1.115053 -0.612108
v -0.959554 1.220993 -0.719454
v -0.507426 1.497110 -0.503254
v -0.882871 1.603049 -0.610601
v -0.036403 0.094249 -0.086426
v -0.025791 -0.210933 -0.351848
v -0.440677 0.094198 -0.102531
v -0.430065 -0.210984 -0.367953
v -0.905106 0.915686 0.313756
v -1.283585 1.020343 0.213160
v -1.226186 1.393674 0.366936
v -0.837505 1.305382 0.402146
v -0.067344 -0.573349 0.689724
v -0.055468 -0.855221 0.395951
v -0.459748 -0.855700 0.379992
v -0.471594 -0.573565 0.673093
v 0.313209 0.079915 0.689348
v 0.313209 1.479915 0.689348
v 0.756786 0.079915 -0.023982
v 0.756786 1.479915 -0.023982
v -0.756786 0.079915 0.023982
v -0.756786 1.479915 0.023982
v -0.313209 0.079915 -0.689348
v -0.313209 1.479915 -0.689348
v 0.096532 1.579652 0.413215
v 0.095970 2.179651 0.413725
v 0.412995 1.580381 -0.096541
v 0.412433 2.180381 -0.096031
v -0.413224 1.579443 0.096752
v -0.413786 2.179442 0.097261
v -0.096761 1.580173 -0.413004
v -0.097323 2.180172 -0.412494
vt 0.152804 0.123501
vt 0.127361 0.162474
vt 0.128453 0.121671
vt 0.067175 0.157952
vt 0.211899 0.168826
vt 0.150620 0.205107
vt 0.151712 0.164304
vt 0.212991 0.128023
vt 0.153896 0.082698
vt 0.120318 0.196104
vt 0.141703 0.159716
vt 0.141869 0.195827
vt 0.194969 0.159030
vt 0.066887 0.160679
vt 0.119987 0.123882
vt 0.120152 0.159993
vt 0.120483 0.232215
vt 0.067052 0.196790
vt 0.893013 0.803206
vt 0.953247 0.844041
vt 0.893013 0.844041
vt 0.953247 0.884875
vt 0.893013 0.884875
vt 0.893013 0.925710
vt 0.868643 0.884875
vt 0.808410 0.844041
vt 0.868643 0.844041
vt 0.977617 0.884875
vt 0.741845 0.545283
vt 0.663028 0.598717
vt 0.663028 0.545283
vt 0.741845 0.652150
vt 0.663028 0.652150
vt 0.741845 0.705584
vt 0.663028 0.705584
vt 0.631139 0.652150
vt 0.552321 0.598717
vt 0.631139 0.598717
vt 0.741845 0.598717
vt 0.773734 0.652150
vt 0.237342 0.129853
vt 0.236250 0.170656
vt 0.045336 0.160957
vt 0.045501 0.197068
vt 0.094887 0.153073
vt 0.114964 0.123128
vt 0.113861 0.154921
vt 0.095990 0.121280
vt 0.047991 0.148506
vt 0.049093 0.116713
vt 0.116067 0.091335
vt 0.161861 0.127695
vt 0.160758 0.159488
vt 0.112759 0.186714
vt 0.159655 0.191281
vt 0.153193 0.158992
vt 0.134495 0.188340
vt 0.135087 0.158002
vt 0.197352 0.191779
vt 0.152601 0.189330
vt 0.089154 0.216230
vt 0.089745 0.185892
vt 0.090336 0.155553
vt 0.090927 0.125215
vt 0.135678 0.127663
vt 0.893013 0.809899
vt 0.820174 0.859280
vt 0.820174 0.809899
vt 0.893013 0.859280
vt 0.820174 0.908661
vt 0.893013 0.958041
vt 0.893013 0.908661
vt 0.922484 0.908660
vt 0.995323 0.859280
vt 0.995323 0.908660
vt 0.790703 0.859280
vt 0.668850 0.601598
vt 0.627314 0.573439
vt 0.668850 0.573439
vt 0.627314 0.629757
vt 0.627314 0.601598
vt 0.668850 0.629757
vt 0.627314 0.657916
vt 0.685655 0.629757
vt 0.727191 0.601598
vt 0.727191 0.629757
vt 0.610509 0.629757
vt 0.114767 0.168293
vt 0.095916 0.220936
vt 0.095916 0.168293
vt 0.143042 0.220936
vt 0.114767 0.220936
vt 0.161893 0.168293
vt 0.143042 0.168293
vt 0.114767 0.136707
vt 0.143042 0.084063
vt 0.143042 0.136707
vt 0.143042 0.252523
vt 0.679363 0.612195
vt 0.705410 0.568551
vt 0.705410 0.612195
vt 0.653316 0.612195
vt 0.679363 0.568551
vt 0.627270 0.612195
vt 0.653316 0.568551
vt 0.679363 0.655839
vt 0.653316 0.699483
vt 0.653316 0.655839
vt 0.653316 0.524907
vt 0.922484 0.859280
vt 0.179732 0.161336
vt 0.180835 0.129543
vt 0.072230 0.154563
vt 0.071639 0.184901
vt 0.685655 0.601598
vt 0.068267 0.117149
vt 0.210807 0.209629
vt 0.214083 0.087220
vt 0.195135 0.195141
vt 0.066721 0.124568
vt 0.067218 0.232901
vt 0.953247 0.803206
vt 0.953247 0.925710
vt 0.808410 0.884875
vt 0.977617 0.844041
vt 0.552321 0.652150
vt 0.773734 0.598717
vt 0.162963 0.095902
vt 0.197943 0.161440
vt 0.133904 0.218678
vt 0.820174 0.958041
vt 0.790703 0.908661
vt 0.668850 0.657916
vt 0.610509 0.601598
vt 0.161893 0.220936
vt 0.114767 0.084063
vt 0.114767 0.252523
vt 0.627270 0.568551
vt 0.679363 0.699483
vt 0.679363 0.524907
vn -0.7935 -0.2010 0.5744
vn -0.6058 0.1713 -0.7770
vn -0.0578 0.9645 0.2577
vn 0.6058 -0.1713 0.7770
vn 0.0578 -0.9645 -0.2577
vn 0.0175 -0.6983 -0.7155
vn 0.0425 -0.7145 0.6984
vn 0.9989 0.0427 -0.0172
vn -0.0425 0.7145 -0.6984
vn -0.9989 -0.0427 0.0172
vn 0.0557 -0.9646 -0.2576
vn 0.8988 -0.0830 0.4305
vn -0.0559 0.9647 0.2574
vn -0.8945 0.0787 -0.4400
vn 0.4447 0.2550 -0.8586
vn -0.9990 -0.0428 0.0164
vn -0.0380 0.5720 -0.8194
vn 0.9990 0.0428 -0.0164
vn 0.0383 -0.5699 0.8208
vn -0.0255 0.8183 0.5742
vn -0.5166 -0.2987 0.8024
vn 0.7935 0.2010 -0.5744
vn -0.0175 0.6983 0.7155
vn 0.0237 -0.7969 -0.6037
vn 0.6058 -0.3322 0.7229
vn 0.7718 0.0245 -0.6354
vn 0.1934 0.9429 0.2712
vn -0.7718 -0.0245 0.6355
vn -0.1934 -0.9429 -0.2712
vn -0.0140 -0.9187 0.3948
vn -0.0379 0.3950 0.9179
vn -0.9992 -0.0021 -0.0404
vn 0.0379 -0.3950 -0.9179
vn 0.9992 0.0021 0.0404
vn -0.1895 -0.9443 -0.2690
vn -0.9277 0.2620 -0.2660
vn 0.1901 0.9442 0.2690
vn 0.9226 -0.2650 0.2802
vn 0.3210 0.1994 -0.9259
vn 0.9992 0.0003 0.0401
vn 0.0261 -0.7578 -0.6519
vn -0.9992 -0.0001 -0.0398
vn -0.0261 0.7581 0.6516
vn 0.0299 0.6565 -0.7537
vn 0.8492 0.0000 0.5281
vn 0.5281 0.0000 -0.8492
vn -0.8492 -0.0000 -0.5281
vn -0.5281 -0.0000 0.8492
vn 0.0000 -1.0000 -0.0000
vn 0.0000 1.0000 0.0000
vn 0.8496 0.0003 0.5274
vn 0.5274 0.0012 -0.8496
vn -0.8496 -0.0003 -0.5274
vn -0.5274 -0.0012 0.8496
vn 0.0009 -1.0000 -0.0008
vn -0.0009 1.0000 0.0008
vn -0.2952 -0.1624 0.9416
vn -0.6058 0.3322 -0.7229
vn 0.0140 0.9187 -0.3948
vn -0.0281 -0.7219 0.6915
vn 0.0556 -0.9646 -0.2576
vn 0.8945 -0.0665 0.4421
vn -0.0556 0.9646 0.2577
vn -0.8962 0.0655 -0.4389
vn -0.9990 -0.0426 0.0163
vn -0.0378 0.5719 -0.8194
vn 0.9990 0.0426 -0.0163
vn 0.0378 -0.5701 0.8207
vn -0.4533 -0.2304 0.8611
vn 0.0243 -0.7965 -0.6042
vn 0.7718 0.0245 -0.6355
vn -0.7718 -0.0245 0.6354
vn -0.1896 -0.9443 -0.2690
vn -0.9282 0.2545 -0.2715
vn 0.1895 0.9443 0.2691
vn 0.9346 -0.2247 0.2757
vn 0.9992 0.0001 0.0398
vn 0.0266 -0.7577 -0.6521
vn -0.9992 -0.0003 -0.0401
vn -0.0272 0.7584 0.6512
vn -0.1638 -0.3541 0.9208
vn -0.0265 -0.7207 0.6927
s off
f 2/1/1 3/2/1 1/3/1
f 8/4/2 1/3/2 3/2/2
f 7/5/3 3/6/3 4/7/3
f 6/8/4 4/7/4 2/1/4
f 1/9/5 6/8/5 2/1/5
f 10/10/6 11/11/6 9/12/6
f 16/13/7 9/12/7 11/11/7
f 15/14/8 11/15/8 12/16/8
f 10/10/9 15/14/9 12/16/9
f 9/17/10 14/18/10 10/10/10
f 25/19/11 18/20/11 26/21/11
f 26/21/12 20/22/12 27/23/12
f 20/22/13 28/24/13 27/23/13
f 28/25/14 17/26/14 25/27/14
f 18/20/15 19/28/15 20/22/15
f 21/29/16 30/30/16 29/31/16
f 30/30/17 24/32/17 31/33/17
f 31/33/18 23/34/18 32/35/18
f 32/36/19 21/37/19 29/38/19
f 22/39/20 23/40/20 24/32/20
f 28/25/21 26/21/21 27/23/21
f 7/5/22 5/41/22 8/42/22
f 16/43/23 14/18/23 13/44/23
f 32/36/24 30/30/24 31/33/24
f 33/45/25 36/46/25 34/47/25
f 35/48/26 37/49/26 40/50/26
f 35/51/27 39/52/27 36/46/27
f 36/46/28 38/53/28 34/47/28
f 33/54/29 38/53/29 37/55/29
f 41/56/30 44/57/30 42/58/30
f 41/56/31 48/59/31 43/60/31
f 44/57/32 48/61/32 47/62/32
f 44/57/33 46/63/33 42/58/33
f 42/58/34 45/64/34 41/65/34
f 57/66/35 50/67/35 49/68/35
f 58/69/36 52/70/36 50/67/36
f 60/71/37 52/70/37 59/72/37
f 60/73/38 49/74/38 51/75/38
f 52/70/39 49/76/39 50/67/39
f 62/77/40 53/78/40 61/79/40
f 62/77/41 56/80/41 54/81/41
f 63/82/42 55/83/42 56/80/42
f 64/84/43 53/85/43 55/86/43
f 55/87/44 54/81/44 56/80/44
f 67/88/45 66/89/45 65/90/45
f 67/88/46 72/91/46 68/92/46
f 69/93/47 72/91/47 71/94/47
f 65/95/48 70/96/48 69/97/48
f 65/95/49 71/94/49 67/88/49
f 70/98/50 68/92/50 72/91/50
f 75/99/51 74/100/51 73/101/51
f 79/102/52 76/103/52 75/99/52
f 77/104/53 80/105/53 79/102/53
f 73/106/54 78/107/54 77/108/54
f 73/106/55 79/102/55 75/99/55
f 78/109/56 76/103/56 80/105/56
f 60/73/57 58/69/57 57/110/57
f 37/111/58 39/52/58 40/112/58
f 45/113/59 47/62/59 48/114/59
f 64/84/60 62/77/60 61/115/60
f 2/1/1 4/7/1 3/2/1
f 8/4/2 5/116/2 1/3/2
f 7/5/3 8/117/3 3/6/3
f 6/8/4 7/5/4 4/7/4
f 1/9/5 5/118/5 6/8/5
f 10/10/6 12/16/6 11/11/6
f 16/13/7 13/119/7 9/12/7
f 15/14/8 16/120/8 11/15/8
f 10/10/9 14/18/9 15/14/9
f 9/17/10 13/121/10 14/18/10
f 25/19/61 17/122/61 18/20/61
f 26/21/62 18/20/62 20/22/62
f 20/22/63 19/123/63 28/24/63
f 28/25/64 19/124/64 17/26/64
f 18/20/15 17/125/15 19/28/15
f 21/29/65 22/39/65 30/30/65
f 30/30/66 22/39/66 24/32/66
f 31/33/67 24/32/67 23/34/67
f 32/36/68 23/126/68 21/37/68
f 22/39/20 21/127/20 23/40/20
f 28/25/69 25/27/69 26/21/69
f 7/5/22 6/8/22 5/41/22
f 16/43/23 15/14/23 14/18/23
f 32/36/70 29/38/70 30/30/70
f 33/45/25 35/48/25 36/46/25
f 35/48/71 33/45/71 37/49/71
f 35/51/27 40/128/27 39/52/27
f 36/46/72 39/52/72 38/53/72
f 33/54/29 34/47/29 38/53/29
f 41/56/30 43/60/30 44/57/30
f 41/56/31 45/129/31 48/59/31
f 44/57/32 43/130/32 48/61/32
f 44/57/33 47/62/33 46/63/33
f 42/58/34 46/63/34 45/64/34
f 57/66/73 58/69/73 50/67/73
f 58/69/74 59/72/74 52/70/74
f 60/71/75 51/131/75 52/70/75
f 60/73/76 57/110/76 49/74/76
f 52/70/39 51/132/39 49/76/39
f 62/77/77 54/81/77 53/78/77
f 62/77/78 63/82/78 56/80/78
f 63/82/79 64/133/79 55/83/79
f 64/84/80 61/115/80 53/85/80
f 55/87/44 53/134/44 54/81/44
f 67/88/45 68/92/45 66/89/45
f 67/88/46 71/94/46 72/91/46
f 69/93/47 70/135/47 72/91/47
f 65/95/48 66/136/48 70/96/48
f 65/95/49 69/97/49 71/94/49
f 70/98/50 66/137/50 68/92/50
f 75/99/51 76/103/51 74/100/51
f 79/102/52 80/105/52 76/103/52
f 77/104/53 78/138/53 80/105/53
f 73/106/54 74/139/54 78/107/54
f 73/106/55 77/108/55 79/102/55
f 78/109/56 74/140/56 76/103/56
f 60/73/81 59/72/81 58/69/81
f 37/111/58 38/53/58 39/52/58
f 45/113/59 46/63/59 47/62/59
f 64/84/82 63/82/82 62/77/82
