# Blender v2.79 (sub 0) OBJ File: '3DObjectDecoderObjects.blend'
# www.blender.org
o Cube.003_Cube.001
v -0.525432 0.711035 1.600529
v -0.270880 0.607374 1.897437
v -0.527959 1.092331 1.735818
v -0.273406 0.988671 2.032726
v 0.251822 0.925996 1.009203
v 0.506375 0.822335 1.306111
v 0.503848 1.203632 1.441400
v 0.249296 1.307292 1.144492
v 0.081899 -2.077827 0.134305
v 0.069347 -1.983950 -0.259050
v 0.486236 -2.067945 0.123759
v 0.473683 -1.974069 -0.269595
v 0.064202 -1.105423 0.366941
v 0.051650 -1.011547 -0.026414
v 0.455986 -1.001666 -0.036959
v 0.468539 -1.095542 0.356396
v 0.658755 1.212328 0.208193
v 1.018070 1.151592 0.383980
v 0.657035 1.593638 0.343454
v 1.016350 1.532902 0.519241
v 0.036511 -0.021250 0.348855
v 0.026585 -0.029825 -0.055529
v 0.440852 -0.011124 0.338715
v 0.430926 -0.019699 -0.065669
v 0.199095 0.913582 1.044533
v 0.558112 0.851789 1.223339
v 0.554058 1.226124 1.378527
v 0.205420 1.296959 1.174015
v 0.062588 -1.034049 0.374689
v 0.051980 -1.021820 -0.032745
v 0.456325 -1.011931 -0.042989
v 0.466916 -1.023789 0.364262
v -0.290325 0.640002 0.830228
v -0.610873 0.494056 1.029358
v -0.360113 1.006588 0.986565
v -0.680661 0.860641 1.185695
v -0.875626 0.861247 0.050174
v -1.196175 0.715300 0.249304
v -1.265962 1.081886 0.405641
v -0.945414 1.227832 0.206511
v -0.081822 -2.071692 0.041943
v -0.069425 -2.022255 -0.359429
v -0.486161 -2.062935 0.030533
v -0.473764 -2.013498 -0.370839
v -0.063797 -1.079420 0.164718
v -0.051399 -1.029984 -0.236654
v -0.455738 -1.021227 -0.248064
v -0.468135 -1.070663 0.153308
v -0.506686 1.213810 -0.611596
v -0.886376 1.198890 -0.750587
v -0.577968 1.580523 -0.456234
v -0.957659 1.565602 -0.595225
v -0.036600 -0.003481 0.050444
v -0.026585 -0.047773 -0.351595
v -0.440943 0.005535 0.039378
v -0.430927 -0.038757 -0.362660
v -0.803904 0.792936 0.245455
v -1.186499 0.775035 0.112240
v -1.276254 1.122032 0.306148
v -0.883772 1.166276 0.381192
v -0.062217 -1.008812 0.165278
v -0.051584 -1.034553 -0.241414
v -0.455930 -1.025761 -0.252551
v -0.466549 -0.999702 0.153940
v 0.313209 0.079915 0.689348
v 0.313209 1.479915 0.689348
v 0.756786 0.079915 -0.023982
v 0.756786 1.479915 -0.023982
v -0.756786 0.079915 0.023982
v -0.756786 1.479915 0.023982
v -0.313209 0.079915 -0.689348
v -0.313209 1.479915 -0.689348
v 0.096532 1.579652 0.413215
v 0.095970 2.179651 0.413725
v 0.412995 1.580381 -0.096541
v 0.412433 2.180381 -0.096031
v -0.413224 1.579443 0.096752
v -0.413786 2.179442 0.097261
v -0.096761 1.580173 -0.413004
v -0.097323 2.180172 -0.412494
vt 0.151712 0.164304
vt 0.128453 0.121671
vt 0.152804 0.123501
vt 0.067175 0.157952
vt 0.127361 0.162474
vt 0.211899 0.168826
vt 0.150620 0.205107
vt 0.212991 0.128023
vt 0.153896 0.082698
vt 0.120318 0.196104
vt 0.141703 0.159716
vt 0.141869 0.195827
vt 0.194969 0.159030
vt 0.066887 0.160679
vt 0.119987 0.123882
vt 0.120152 0.159993
vt 0.120483 0.232215
vt 0.067052 0.196790
vt 0.893013 0.803206
vt 0.953247 0.844041
vt 0.893013 0.844041
vt 0.953247 0.884875
vt 0.893013 0.884875
vt 0.893013 0.925710
vt 0.868643 0.884875
vt 0.808410 0.844041
vt 0.868643 0.844041
vt 0.977617 0.844041
vt 0.977617 0.884875
vt 0.741845 0.545283
vt 0.663028 0.598717
vt 0.663028 0.545283
vt 0.741845 0.652150
vt 0.663028 0.652150
vt 0.741845 0.705584
vt 0.663028 0.705584
vt 0.631139 0.652150
vt 0.552321 0.598717
vt 0.631139 0.598717
vt 0.741845 0.598717
vt 0.773734 0.652150
vt 0.237342 0.129853
vt 0.236250 0.170656
vt 0.045336 0.160957
vt 0.045501 0.197068
vt 0.094887 0.153073
vt 0.114964 0.123128
vt 0.113861 0.154921
vt 0.095990 0.121280
vt 0.047991 0.148506
vt 0.049093 0.116713
vt 0.116067 0.091335
vt 0.161861 0.127695
vt 0.160758 0.159488
vt 0.112759 0.186714
vt 0.159655 0.191281
vt 0.153193 0.158992
vt 0.134495 0.188340
vt 0.135087 0.158002
vt 0.152601 0.189330
vt 0.197943 0.161440
vt 0.197352 0.191779
vt 0.133904 0.218678
vt 0.089745 0.185892
vt 0.090336 0.155553
vt 0.135678 0.127663
vt 0.090927 0.125215
vt 0.893013 0.809899
vt 0.820174 0.859280
vt 0.820174 0.809899
vt 0.893013 0.859280
vt 0.820174 0.908661
vt 0.893013 0.958041
vt 0.893013 0.908661
vt 0.922484 0.908660
vt 0.995323 0.859280
vt 0.995323 0.908660
vt 0.790703 0.859280
vt 0.668850 0.601598
vt 0.627314 0.573439
vt 0.668850 0.573439
vt 0.627314 0.629757
vt 0.627314 0.601598
vt 0.668850 0.629757
vt 0.627314 0.657916
vt 0.685655 0.629757
vt 0.727191 0.601598
vt 0.727191 0.629757
vt 0.610509 0.629757
vt 0.114767 0.168293
vt 0.095916 0.220936
vt 0.095916 0.168293
vt 0.143042 0.220936
vt 0.114767 0.220936
vt 0.161893 0.168293
vt 0.143042 0.168293
vt 0.114767 0.136707
vt 0.143042 0.084063
vt 0.143042 0.136707
vt 0.143042 0.252523
vt 0.679363 0.612195
vt 0.705410 0.568551
vt 0.705410 0.612195
vt 0.653316 0.612195
vt 0.679363 0.568551
vt 0.627270 0.612195
vt 0.653316 0.568551
vt 0.679363 0.655839
vt 0.653316 0.699483
vt 0.653316 0.655839
vt 0.653316 0.524907
vt 0.922484 0.859280
vt 0.179732 0.161336
vt 0.180835 0.129543
vt 0.072230 0.154563
vt 0.071639 0.184901
vt 0.685655 0.601598
vt 0.068267 0.117149
vt 0.210807 0.209629
vt 0.214083 0.087220
vt 0.195135 0.195141
vt 0.066721 0.124568
vt 0.067218 0.232901
vt 0.953247 0.803206
vt 0.953247 0.925710
vt 0.808410 0.884875
vt 0.552321 0.652150
vt 0.773734 0.598717
vt 0.162963 0.095902
vt 0.089154 0.216230
vt 0.820174 0.958041
vt 0.790703 0.908661
vt 0.668850 0.657916
vt 0.610509 0.601598
vt 0.161893 0.220936
vt 0.114767 0.084063
vt 0.114767 0.252523
vt 0.627270 0.568551
vt 0.679363 0.699483
vt 0.679363 0.524907
vn -0.7773 -0.2150 0.5913
vn -0.6292 0.2562 -0.7338
vn -0.0062 0.9424 0.3344
vn 0.6292 -0.2562 0.7338
vn 0.0062 -0.9424 -0.3344
vn 0.0177 -0.9724 -0.2326
vn 0.0310 -0.2320 0.9722
vn 0.9994 0.0244 -0.0261
vn -0.0310 0.2320 -0.9722
vn -0.9994 -0.0244 0.0261
vn 0.0043 -0.9425 -0.3343
vn 0.8919 -0.1649 0.4210
vn -0.0045 0.9425 0.3341
vn -0.8881 0.1602 -0.4309
vn 0.4597 0.2987 -0.8363
vn -0.9994 -0.0251 0.0253
vn -0.0247 -0.0235 -0.9994
vn 0.9994 0.0251 -0.0253
vn 0.0251 0.0261 0.9993
vn -0.0255 0.9995 -0.0206
vn -0.5266 -0.3304 0.7833
vn 0.7773 0.2150 -0.5913
vn -0.0177 0.9724 0.2326
vn 0.0237 -0.9993 -0.0297
vn 0.5853 -0.2212 0.7800
vn 0.7923 0.3607 -0.4922
vn -0.1725 0.9061 0.3864
vn -0.7923 -0.3607 0.4922
vn 0.1725 -0.9061 -0.3864
vn -0.0180 -0.9923 -0.1228
vn -0.0306 -0.1222 0.9920
vn -0.9994 0.0216 -0.0282
vn 0.0306 0.1222 -0.9920
vn 0.9994 -0.0216 0.0282
vn 0.1762 -0.9064 -0.3840
vn -0.9382 -0.0365 -0.3443
vn -0.1756 0.9065 0.3840
vn 0.9339 0.0306 0.3562
vn 0.2972 0.4209 -0.8571
vn 0.9994 -0.0223 0.0275
vn 0.0247 -0.1116 -0.9935
vn -0.9994 0.0223 -0.0273
vn -0.0246 0.1138 0.9932
vn 0.0251 0.9937 -0.1089
vn 0.8492 0.0000 0.5281
vn 0.5281 0.0000 -0.8492
vn -0.8492 -0.0000 -0.5281
vn -0.5281 -0.0000 0.8492
vn 0.0000 -1.0000 -0.0000
vn 0.0000 1.0000 0.0000
vn 0.8496 0.0003 0.5274
vn 0.5274 0.0012 -0.8496
vn -0.8496 -0.0003 -0.5274
vn -0.5274 -0.0012 0.8496
vn 0.0009 -1.0000 -0.0008
vn -0.0009 1.0000 0.0008
vn -0.2881 -0.3810 0.8785
vn -0.5853 0.2212 -0.7800
vn 0.0180 0.9923 0.1228
vn -0.0242 -0.9977 0.0625
vn 0.8886 -0.1498 0.4335
vn -0.0043 0.9424 0.3343
vn -0.8901 0.1488 -0.4308
vn -0.9994 -0.0250 0.0251
vn -0.0245 -0.0236 -0.9994
vn 0.9994 0.0250 -0.0251
vn 0.0244 0.0258 0.9994
vn -0.4661 -0.2762 0.8405
vn 0.0246 -0.9992 -0.0306
vn 0.1761 -0.9064 -0.3840
vn -0.9348 -0.0448 -0.3525
vn -0.1762 0.9064 0.3840
vn 0.9315 0.0694 0.3571
vn 0.9994 -0.0223 0.0273
vn 0.0249 -0.1115 -0.9935
vn -0.9994 0.0223 -0.0275
vn -0.0253 0.1141 0.9931
vn -0.1066 -0.5059 0.8560
vn -0.0234 -0.9977 0.0633
s off
f 4/1/1 1/2/1 2/3/1
f 8/4/2 1/2/2 3/5/2
f 7/6/3 3/7/3 4/1/3
f 6/8/4 4/1/4 2/3/4
f 1/9/5 6/8/5 2/3/5
f 10/10/6 11/11/6 9/12/6
f 16/13/7 9/12/7 11/11/7
f 15/14/8 11/15/8 12/16/8
f 10/10/9 15/14/9 12/16/9
f 9/17/10 14/18/10 10/10/10
f 25/19/11 18/20/11 26/21/11
f 26/21/12 20/22/12 27/23/12
f 20/22/13 28/24/13 27/23/13
f 28/25/14 17/26/14 25/27/14
f 20/22/15 17/28/15 19/29/15
f 21/30/16 30/31/16 29/32/16
f 30/31/17 24/33/17 31/34/17
f 31/34/18 23/35/18 32/36/18
f 32/37/19 21/38/19 29/39/19
f 22/40/20 23/41/20 24/33/20
f 28/25/21 26/21/21 27/23/21
f 7/6/22 5/42/22 8/43/22
f 16/44/23 14/18/23 13/45/23
f 32/37/24 30/31/24 31/34/24
f 33/46/25 36/47/25 34/48/25
f 35/49/26 37/50/26 40/51/26
f 35/52/27 39/53/27 36/47/27
f 36/47/28 38/54/28 34/48/28
f 33/55/29 38/54/29 37/56/29
f 41/57/30 44/58/30 42/59/30
f 43/60/31 45/61/31 48/62/31
f 43/63/32 47/64/32 44/58/32
f 44/58/33 46/65/33 42/59/33
f 41/66/34 46/65/34 45/67/34
f 57/68/35 50/69/35 49/70/35
f 58/71/36 52/72/36 50/69/36
f 60/73/37 52/72/37 59/74/37
f 60/75/38 49/76/38 51/77/38
f 52/72/39 49/78/39 50/69/39
f 62/79/40 53/80/40 61/81/40
f 62/79/41 56/82/41 54/83/41
f 63/84/42 55/85/42 56/82/42
f 64/86/43 53/87/43 55/88/43
f 55/89/44 54/83/44 56/82/44
f 67/90/45 66/91/45 65/92/45
f 67/90/46 72/93/46 68/94/46
f 69/95/47 72/93/47 71/96/47
f 65/97/48 70/98/48 69/99/48
f 65/97/49 71/96/49 67/90/49
f 70/100/50 68/94/50 72/93/50
f 75/101/51 74/102/51 73/103/51
f 79/104/52 76/105/52 75/101/52
f 77/106/53 80/107/53 79/104/53
f 73/108/54 78/109/54 77/110/54
f 73/108/55 79/104/55 75/101/55
f 78/111/56 76/105/56 80/107/56
f 60/75/57 58/71/57 57/112/57
f 37/113/58 39/53/58 40/114/58
f 45/115/59 47/64/59 48/116/59
f 64/86/60 62/79/60 61/117/60
f 4/1/1 3/5/1 1/2/1
f 8/4/2 5/118/2 1/2/2
f 7/6/3 8/119/3 3/7/3
f 6/8/4 7/6/4 4/1/4
f 1/9/5 5/120/5 6/8/5
f 10/10/6 12/16/6 11/11/6
f 16/13/7 13/121/7 9/12/7
f 15/14/8 16/122/8 11/15/8
f 10/10/9 14/18/9 15/14/9
f 9/17/10 13/123/10 14/18/10
f 25/19/11 17/124/11 18/20/11
f 26/21/61 18/20/61 20/22/61
f 20/22/62 19/125/62 28/24/62
f 28/25/63 19/126/63 17/26/63
f 20/22/15 18/20/15 17/28/15
f 21/30/64 22/40/64 30/31/64
f 30/31/65 22/40/65 24/33/65
f 31/34/66 24/33/66 23/35/66
f 32/37/67 23/127/67 21/38/67
f 22/40/20 21/128/20 23/41/20
f 28/25/68 25/27/68 26/21/68
f 7/6/22 6/8/22 5/42/22
f 16/44/23 15/14/23 14/18/23
f 32/37/69 29/39/69 30/31/69
f 33/46/25 35/49/25 36/47/25
f 35/49/26 33/46/26 37/50/26
f 35/52/27 40/129/27 39/53/27
f 36/47/28 39/53/28 38/54/28
f 33/55/29 34/48/29 38/54/29
f 41/57/30 43/60/30 44/58/30
f 43/60/31 41/57/31 45/61/31
f 43/63/32 48/130/32 47/64/32
f 44/58/33 47/64/33 46/65/33
f 41/66/34 42/59/34 46/65/34
f 57/68/70 58/71/70 50/69/70
f 58/71/71 59/74/71 52/72/71
f 60/73/72 51/131/72 52/72/72
f 60/75/73 57/112/73 49/76/73
f 52/72/39 51/132/39 49/78/39
f 62/79/74 54/83/74 53/80/74
f 62/79/75 63/84/75 56/82/75
f 63/84/76 64/133/76 55/85/76
f 64/86/77 61/117/77 53/87/77
f 55/89/44 53/134/44 54/83/44
f 67/90/45 68/94/45 66/91/45
f 67/90/46 71/96/46 72/93/46
f 69/95/47 70/135/47 72/93/47
f 65/97/48 66/136/48 70/98/48
f 65/97/49 69/99/49 71/96/49
f 70/100/50 66/137/50 68/94/50
f 75/101/51 76/105/51 74/102/51
f 79/104/52 80/107/52 76/105/52
f 77/106/53 78/138/53 80/107/53
f 73/108/54 74/139/54 78/109/54
f 73/108/55 77/110/55 79/104/55
f 78/111/56 74/140/56 76/105/56
f 60/75/78 59/74/78 58/71/78
f 37/113/58 38/54/58 39/53/58
f 45/115/59 46/65/59 47/64/59
f 64/86/79 63/84/79 62/79/79
