# Blender v2.79 (sub 0) OBJ File: '3DObjectDecoderObjects.blend'
# www.blender.org
o Cube.003_Cube.001
v -0.524872 0.652411 1.600853
v -0.259987 0.554238 1.890499
v -0.538488 1.031428 1.741770
v -0.273602 0.933255 2.031415
v 0.230273 0.904526 0.995714
v 0.495158 0.806353 1.285359
v 0.481543 1.185370 1.426276
v 0.216657 1.283543 1.136630
v 0.081660 -2.086954 -0.012673
v 0.069640 -2.005535 -0.408810
v 0.485989 -2.076334 -0.022759
v 0.473969 -1.994916 -0.418897
v 0.060978 -1.107763 0.189213
v 0.048958 -1.026345 -0.206924
v 0.453288 -1.015725 -0.217011
v 0.465307 -1.097144 0.179127
v 0.669661 1.214569 0.202770
v 1.024468 1.157560 0.388670
v 0.656742 1.593617 0.343666
v 1.011549 1.536609 0.529566
v 0.037794 -0.060939 0.366653
v 0.026133 0.006329 -0.032142
v 0.442124 -0.050290 0.356626
v 0.430463 0.016978 -0.042169
v 0.190131 0.894511 1.019847
v 0.544696 0.836544 1.208343
v 0.529858 1.209251 1.366365
v 0.184134 1.275612 1.155805
v 0.059691 -1.048585 0.200330
v 0.047936 -0.978386 -0.198662
v 0.452266 -0.967769 -0.208706
v 0.464019 -1.037914 0.190265
v -0.234271 0.715554 0.856404
v -0.503912 0.446584 0.992982
v -0.450776 1.015661 1.019982
v -0.720417 0.746691 1.156560
v -0.753421 0.804369 0.006341
v -1.023062 0.535399 0.142919
v -1.239567 0.835506 0.306498
v -0.969926 1.104476 0.169920
v -0.081458 -2.012165 0.398542
v -0.069798 -2.055531 -0.003554
v -0.485808 -2.005636 0.386113
v -0.474149 -2.049001 -0.015983
v -0.062128 -1.018056 0.291890
v -0.050468 -1.061422 -0.110205
v -0.454819 -1.054892 -0.122634
v -0.466478 -1.011527 0.279461
v -0.464429 1.330980 -0.577157
v -0.793219 1.197399 -0.771475
v -0.682222 1.630790 -0.414748
v -1.011011 1.497209 -0.609066
v -0.036884 0.022361 0.031148
v -0.026648 -0.076738 -0.360990
v -0.441237 0.029082 0.018894
v -0.431001 -0.070017 -0.373243
v -0.687804 0.746248 0.202717
v -1.018887 0.608322 0.013416
v -1.251212 0.879609 0.209451
v -0.913378 1.051241 0.345084
v -0.060687 -0.953260 0.280346
v -0.050083 -1.041856 -0.116603
v -0.454438 -1.035276 -0.128874
v -0.465033 -0.946513 0.267921
v 0.313209 0.079915 0.689348
v 0.313209 1.479915 0.689348
v 0.756786 0.079915 -0.023982
v 0.756786 1.479915 -0.023982
v -0.756786 0.079915 0.023982
v -0.756786 1.479915 0.023982
v -0.313209 0.079915 -0.689348
v -0.313209 1.479915 -0.689348
v 0.096532 1.579652 0.413215
v 0.095970 2.179651 0.413725
v 0.412995 1.580381 -0.096541
v 0.412433 2.180381 -0.096031
v -0.413224 1.579443 0.096752
v -0.413786 2.179442 0.097261
v -0.096761 1.580173 -0.413004
v -0.097323 2.180172 -0.412494
vt 0.151712 0.164304
vt 0.128453 0.121671
vt 0.152804 0.123501
vt 0.067175 0.157952
vt 0.127361 0.162474
vt 0.210807 0.209629
vt 0.150620 0.205107
vt 0.212991 0.128023
vt 0.214083 0.087220
vt 0.153896 0.082698
vt 0.120318 0.196104
vt 0.141703 0.159716
vt 0.141869 0.195827
vt 0.194969 0.159030
vt 0.066887 0.160679
vt 0.119987 0.123882
vt 0.120152 0.159993
vt 0.120483 0.232215
vt 0.067052 0.196790
vt 0.893013 0.803206
vt 0.953247 0.844041
vt 0.893013 0.844041
vt 0.953247 0.884875
vt 0.893013 0.884875
vt 0.893013 0.925710
vt 0.868643 0.884875
vt 0.808410 0.844041
vt 0.868643 0.844041
vt 0.977617 0.884875
vt 0.741845 0.545283
vt 0.663028 0.598717
vt 0.663028 0.545283
vt 0.741845 0.652150
vt 0.663028 0.652150
vt 0.741845 0.705584
vt 0.663028 0.705584
vt 0.631139 0.652150
vt 0.552321 0.598717
vt 0.631139 0.598717
vt 0.741845 0.598717
vt 0.773734 0.652150
vt 0.211899 0.168826
vt 0.237342 0.129853
vt 0.236250 0.170656
vt 0.045336 0.160957
vt 0.045501 0.197068
vt 0.113861 0.154921
vt 0.095990 0.121280
vt 0.114964 0.123128
vt 0.047991 0.148506
vt 0.049093 0.116713
vt 0.116067 0.091335
vt 0.161861 0.127695
vt 0.160758 0.159488
vt 0.112759 0.186714
vt 0.159655 0.191281
vt 0.153193 0.158992
vt 0.134495 0.188340
vt 0.135087 0.158002
vt 0.197352 0.191779
vt 0.152601 0.189330
vt 0.133904 0.218678
vt 0.089745 0.185892
vt 0.090336 0.155553
vt 0.135678 0.127663
vt 0.090927 0.125215
vt 0.893013 0.809899
vt 0.820174 0.859280
vt 0.820174 0.809899
vt 0.893013 0.859280
vt 0.820174 0.908661
vt 0.893013 0.958041
vt 0.893013 0.908661
vt 0.922484 0.908660
vt 0.995323 0.859280
vt 0.995323 0.908660
vt 0.790703 0.908661
vt 0.668850 0.601598
vt 0.627314 0.573439
vt 0.668850 0.573439
vt 0.627314 0.629757
vt 0.627314 0.601598
vt 0.668850 0.629757
vt 0.627314 0.657916
vt 0.685655 0.629757
vt 0.727191 0.601598
vt 0.727191 0.629757
vt 0.610509 0.601598
vt 0.114767 0.168293
vt 0.095916 0.220936
vt 0.095916 0.168293
vt 0.143042 0.220936
vt 0.114767 0.220936
vt 0.161893 0.168293
vt 0.143042 0.168293
vt 0.114767 0.136707
vt 0.143042 0.084063
vt 0.143042 0.136707
vt 0.143042 0.252523
vt 0.679363 0.612195
vt 0.705410 0.568551
vt 0.705410 0.612195
vt 0.653316 0.612195
vt 0.679363 0.568551
vt 0.627270 0.612195
vt 0.653316 0.568551
vt 0.679363 0.655839
vt 0.653316 0.699483
vt 0.653316 0.655839
vt 0.653316 0.524907
vt 0.922484 0.859280
vt 0.179732 0.161336
vt 0.180835 0.129543
vt 0.072230 0.154563
vt 0.071639 0.184901
vt 0.685655 0.601598
vt 0.068267 0.117149
vt 0.195135 0.195141
vt 0.066721 0.124568
vt 0.067218 0.232901
vt 0.953247 0.803206
vt 0.953247 0.925710
vt 0.808410 0.884875
vt 0.977617 0.844041
vt 0.552321 0.652150
vt 0.773734 0.598717
vt 0.094887 0.153073
vt 0.162963 0.095902
vt 0.197943 0.161440
vt 0.089154 0.216230
vt 0.820174 0.958041
vt 0.790703 0.859280
vt 0.668850 0.657916
vt 0.610509 0.629757
vt 0.161893 0.220936
vt 0.114767 0.084063
vt 0.114767 0.252523
vt 0.627270 0.568551
vt 0.679363 0.699483
vt 0.679363 0.524907
vn -0.7551 -0.2521 0.6051
vn -0.6547 0.2426 -0.7159
vn -0.0337 0.9368 0.3483
vn 0.6547 -0.2426 0.7159
vn 0.0337 -0.9368 -0.3483
vn 0.0207 -0.9792 -0.2019
vn 0.0297 -0.2012 0.9791
vn 0.9993 0.0262 -0.0249
vn -0.0297 0.2012 -0.9791
vn -0.9993 -0.0262 0.0249
vn 0.0320 -0.9369 -0.3482
vn 0.8812 -0.1544 0.4468
vn -0.0321 0.9369 0.3480
vn -0.8772 0.1490 -0.4564
vn 0.4795 0.3201 -0.8171
vn -0.9993 -0.0263 0.0248
vn -0.0288 0.1661 -0.9857
vn 0.9993 0.0263 -0.0248
vn 0.0289 -0.1654 0.9858
vn -0.0218 0.9857 0.1669
vn -0.5355 -0.3476 0.7697
vn 0.7551 0.2521 -0.6051
vn -0.0207 0.9792 0.2019
vn 0.0215 -0.9846 -0.1737
vn 0.5192 -0.0888 0.8501
vn 0.6664 0.6648 -0.3376
vn -0.5351 0.7417 0.4043
vn -0.6664 -0.6648 0.3375
vn 0.5351 -0.7417 -0.4043
vn -0.0193 -0.9941 0.1067
vn -0.0288 0.1072 0.9938
vn -0.9994 0.0161 -0.0307
vn 0.0288 -0.1072 -0.9938
vn 0.9994 -0.0161 0.0307
vn 0.5383 -0.7410 -0.4014
vn -0.8124 -0.3296 -0.4810
vn -0.5378 0.7413 0.4015
vn 0.8093 0.3216 0.4915
vn 0.2234 0.5847 -0.7799
vn 0.9994 -0.0166 0.0304
vn 0.0253 -0.2460 -0.9689
vn -0.9994 0.0166 -0.0303
vn -0.0252 0.2478 0.9685
vn 0.0235 0.9694 -0.2444
vn 0.8492 0.0000 0.5281
vn 0.5281 0.0000 -0.8492
vn -0.8492 -0.0000 -0.5281
vn -0.5281 -0.0000 0.8492
vn 0.0000 -1.0000 -0.0000
vn 0.0000 1.0000 0.0000
vn 0.8496 0.0003 0.5274
vn 0.5274 0.0012 -0.8496
vn -0.8496 -0.0003 -0.5274
vn -0.5274 -0.0012 0.8496
vn 0.0009 -1.0000 -0.0008
vn -0.0009 1.0000 0.0008
vn -0.2320 -0.5470 0.8043
vn -0.5192 0.0888 -0.8501
vn 0.0193 0.9941 -0.1067
vn -0.0230 -0.9759 0.2172
vn 0.0319 -0.9369 -0.3482
vn 0.8775 -0.1405 0.4586
vn -0.0319 0.9369 0.3483
vn -0.8786 0.1398 -0.4566
vn -0.0288 0.1660 -0.9857
vn 0.0288 -0.1654 0.9858
vn -0.4856 -0.3005 0.8209
vn 0.0217 -0.9845 -0.1739
vn 0.5382 -0.7411 -0.4014
vn -0.8049 -0.3356 -0.4894
vn -0.5383 0.7410 0.4014
vn 0.7932 0.3560 0.4941
vn 0.9994 -0.0166 0.0303
vn 0.0254 -0.2459 -0.9690
vn -0.9994 0.0166 -0.0304
vn -0.0256 0.2480 0.9684
vn -0.0192 -0.5963 0.8025
vn -0.0225 -0.9758 0.2177
s off
f 4/1/1 1/2/1 2/3/1
f 8/4/2 1/2/2 3/5/2
f 4/1/3 8/6/3 3/7/3
f 6/8/4 4/1/4 2/3/4
f 5/9/5 2/3/5 1/10/5
f 10/11/6 11/12/6 9/13/6
f 16/14/7 9/13/7 11/12/7
f 15/15/8 11/16/8 12/17/8
f 10/11/9 15/15/9 12/17/9
f 9/18/10 14/19/10 10/11/10
f 25/20/11 18/21/11 26/22/11
f 26/22/12 20/23/12 27/24/12
f 20/23/13 28/25/13 27/24/13
f 28/26/14 17/27/14 25/28/14
f 18/21/15 19/29/15 20/23/15
f 21/30/16 30/31/16 29/32/16
f 30/31/17 24/33/17 31/34/17
f 31/34/18 23/35/18 32/36/18
f 32/37/19 21/38/19 29/39/19
f 22/40/20 23/41/20 24/33/20
f 28/26/21 26/22/21 27/24/21
f 7/42/22 5/43/22 8/44/22
f 16/45/23 14/19/23 13/46/23
f 32/37/24 30/31/24 31/34/24
f 34/47/25 35/48/25 36/49/25
f 35/48/26 37/50/26 40/51/26
f 35/52/27 39/53/27 36/49/27
f 36/49/28 38/54/28 34/47/28
f 33/55/29 38/54/29 37/56/29
f 41/57/30 44/58/30 42/59/30
f 41/57/31 48/60/31 43/61/31
f 43/62/32 47/63/32 44/58/32
f 44/58/33 46/64/33 42/59/33
f 41/65/34 46/64/34 45/66/34
f 57/67/35 50/68/35 49/69/35
f 58/70/36 52/71/36 50/68/36
f 60/72/37 52/71/37 59/73/37
f 60/74/38 49/75/38 51/76/38
f 51/77/39 50/68/39 52/71/39
f 62/78/40 53/79/40 61/80/40
f 62/78/41 56/81/41 54/82/41
f 63/83/42 55/84/42 56/81/42
f 64/85/43 53/86/43 55/87/43
f 56/81/44 53/88/44 54/82/44
f 67/89/45 66/90/45 65/91/45
f 67/89/46 72/92/46 68/93/46
f 69/94/47 72/92/47 71/95/47
f 65/96/48 70/97/48 69/98/48
f 65/96/49 71/95/49 67/89/49
f 70/99/50 68/93/50 72/92/50
f 75/100/51 74/101/51 73/102/51
f 79/103/52 76/104/52 75/100/52
f 77/105/53 80/106/53 79/103/53
f 73/107/54 78/108/54 77/109/54
f 73/107/55 79/103/55 75/100/55
f 78/110/56 76/104/56 80/106/56
f 60/74/57 58/70/57 57/111/57
f 37/112/58 39/53/58 40/113/58
f 45/114/59 47/63/59 48/115/59
f 64/85/60 62/78/60 61/116/60
f 4/1/1 3/5/1 1/2/1
f 8/4/2 5/117/2 1/2/2
f 4/1/3 7/42/3 8/6/3
f 6/8/4 7/42/4 4/1/4
f 5/9/5 6/8/5 2/3/5
f 10/11/6 12/17/6 11/12/6
f 16/14/7 13/118/7 9/13/7
f 15/15/8 16/119/8 11/16/8
f 10/11/9 14/19/9 15/15/9
f 9/18/10 13/120/10 14/19/10
f 25/20/61 17/121/61 18/21/61
f 26/22/62 18/21/62 20/23/62
f 20/23/63 19/122/63 28/25/63
f 28/26/64 19/123/64 17/27/64
f 18/21/15 17/124/15 19/29/15
f 21/30/16 22/40/16 30/31/16
f 30/31/65 22/40/65 24/33/65
f 31/34/18 24/33/18 23/35/18
f 32/37/66 23/125/66 21/38/66
f 22/40/20 21/126/20 23/41/20
f 28/26/67 25/28/67 26/22/67
f 7/42/22 6/8/22 5/43/22
f 16/45/23 15/15/23 14/19/23
f 32/37/68 29/39/68 30/31/68
f 34/47/25 33/127/25 35/48/25
f 35/48/26 33/127/26 37/50/26
f 35/52/27 40/128/27 39/53/27
f 36/49/28 39/53/28 38/54/28
f 33/55/29 34/47/29 38/54/29
f 41/57/30 43/61/30 44/58/30
f 41/57/31 45/129/31 48/60/31
f 43/62/32 48/130/32 47/63/32
f 44/58/33 47/63/33 46/64/33
f 41/65/34 42/59/34 46/64/34
f 57/67/69 58/70/69 50/68/69
f 58/70/70 59/73/70 52/71/70
f 60/72/71 51/131/71 52/71/71
f 60/74/72 57/111/72 49/75/72
f 51/77/39 49/132/39 50/68/39
f 62/78/73 54/82/73 53/79/73
f 62/78/74 63/83/74 56/81/74
f 63/83/75 64/133/75 55/84/75
f 64/85/76 61/116/76 53/86/76
f 56/81/44 55/134/44 53/88/44
f 67/89/45 68/93/45 66/90/45
f 67/89/46 71/95/46 72/92/46
f 69/94/47 70/135/47 72/92/47
f 65/96/48 66/136/48 70/97/48
f 65/96/49 69/98/49 71/95/49
f 70/99/50 66/137/50 68/93/50
f 75/100/51 76/104/51 74/101/51
f 79/103/52 80/106/52 76/104/52
f 77/105/53 78/138/53 80/106/53
f 73/107/54 74/139/54 78/108/54
f 73/107/55 77/109/55 79/103/55
f 78/110/56 74/140/56 76/104/56
f 60/74/77 59/73/77 58/70/77
f 37/112/58 38/54/58 39/53/58
f 45/114/59 46/64/59 47/63/59
f 64/85/78 63/83/78 62/78/78
