# Blender v2.79 (sub 0) OBJ File: '3DObjectDecoderObjects.blend'
# www.blender.org
o Cube.003_Cube.001
v -0.511594 0.677524 1.606283
v -0.255450 0.603989 1.910717
v -0.541003 1.063423 1.724240
v -0.284859 0.989888 2.028673
v 0.259066 0.916789 1.015661
v 0.515210 0.843255 1.320094
v 0.485801 1.229153 1.438051
v 0.229657 1.302688 1.133617
v 0.081421 -1.928153 0.908121
v 0.069817 -2.008230 0.511698
v 0.485779 -1.923067 0.895257
v 0.474175 -2.003144 0.498834
v 0.062811 -0.948014 0.710681
v 0.051207 -1.028092 0.314258
v 0.455565 -1.023006 0.301394
v 0.467169 -0.942928 0.697817
v 0.674969 1.193775 0.211344
v 1.031956 1.162845 0.399227
v 0.646336 1.579736 0.329288
v 1.003324 1.548805 0.517171
v 0.036437 0.046902 0.293594
v 0.026885 -0.110646 -0.078946
v 0.440797 0.052291 0.280947
v 0.431245 -0.105257 -0.091593
v 0.209697 0.903700 1.047632
v 0.566396 0.871862 1.238464
v 0.535508 1.251809 1.375862
v 0.188806 1.291898 1.160073
v 0.061279 -0.882072 0.690404
v 0.051202 -1.025534 0.309191
v 0.455566 -1.020348 0.296543
v 0.465631 -0.876676 0.677508
v -0.246996 0.726278 0.846836
v -0.532472 0.490227 1.009586
v -0.426804 1.052553 1.004664
v -0.712280 0.816502 1.167414
v -0.798956 0.822758 0.018560
v -1.084433 0.586707 0.181310
v -1.264241 0.912983 0.339138
v -0.978764 1.149034 0.176388
v -0.083753 -1.849597 -0.480447
v -0.067425 -1.572617 -0.774917
v -0.488006 -1.836085 -0.490153
v -0.471677 -1.559105 -0.784623
v -0.075872 -1.121429 0.204908
v -0.059544 -0.844449 -0.089562
v -0.463796 -0.830937 -0.099269
v -0.480124 -1.107917 0.195201
v -0.470273 1.295796 -0.584551
v -0.816535 1.190212 -0.765274
v -0.651475 1.621849 -0.427861
v -0.997737 1.516265 -0.608584
v -0.032896 0.008196 0.038327
v -0.027526 -0.067023 -0.359178
v -0.437162 0.022313 0.030195
v -0.431792 -0.052906 -0.367310
v -0.729186 0.764311 0.221983
v -1.078013 0.654727 0.046691
v -1.275495 0.954500 0.239724
v -0.918660 1.095605 0.358163
v -0.073054 -1.023805 0.233721
v -0.064896 -1.024187 -0.161409
v -0.469179 -1.010837 -0.170052
v -0.477273 -1.009042 0.224666
v 0.313209 0.079915 0.689348
v 0.313209 1.479915 0.689348
v 0.756786 0.079915 -0.023982
v 0.756786 1.479915 -0.023982
v -0.756786 0.079915 0.023982
v -0.756786 1.479915 0.023982
v -0.313209 0.079915 -0.689348
v -0.313209 1.479915 -0.689348
v 0.096532 1.579652 0.413215
v 0.095970 2.179651 0.413725
v 0.412995 1.580381 -0.096541
v 0.412433 2.180381 -0.096031
v -0.413224 1.579443 0.096752
v -0.413786 2.179442 0.097261
v -0.096761 1.580173 -0.413004
v -0.097323 2.180172 -0.412494
vt 0.151712 0.164304
vt 0.128453 0.121671
vt 0.152804 0.123501
vt 0.067175 0.157952
vt 0.127361 0.162474
vt 0.211899 0.168826
vt 0.150620 0.205107
vt 0.212991 0.128023
vt 0.153896 0.082698
vt 0.120318 0.196104
vt 0.141703 0.159716
vt 0.141869 0.195827
vt 0.194969 0.159030
vt 0.066887 0.160679
vt 0.119987 0.123882
vt 0.120152 0.159993
vt 0.067052 0.196790
vt 0.120483 0.232215
vt 0.893013 0.803206
vt 0.953247 0.844041
vt 0.893013 0.844041
vt 0.953247 0.884875
vt 0.893013 0.884875
vt 0.893013 0.925710
vt 0.868643 0.884875
vt 0.808410 0.844041
vt 0.868643 0.844041
vt 0.977617 0.844041
vt 0.977617 0.884875
vt 0.741845 0.545283
vt 0.663028 0.598717
vt 0.663028 0.545283
vt 0.741845 0.652150
vt 0.663028 0.652150
vt 0.741845 0.705584
vt 0.663028 0.705584
vt 0.631139 0.652150
vt 0.552321 0.598717
vt 0.631139 0.598717
vt 0.741845 0.598717
vt 0.773734 0.652150
vt 0.237342 0.129853
vt 0.236250 0.170656
vt 0.045336 0.160957
vt 0.045501 0.197068
vt 0.094887 0.153073
vt 0.114964 0.123128
vt 0.113861 0.154921
vt 0.095990 0.121280
vt 0.047991 0.148506
vt 0.049093 0.116713
vt 0.116067 0.091335
vt 0.161861 0.127695
vt 0.160758 0.159488
vt 0.112759 0.186714
vt 0.159655 0.191281
vt 0.153193 0.158992
vt 0.134495 0.188340
vt 0.135087 0.158002
vt 0.152601 0.189330
vt 0.197943 0.161440
vt 0.197352 0.191779
vt 0.089154 0.216230
vt 0.089745 0.185892
vt 0.090336 0.155553
vt 0.090927 0.125215
vt 0.135678 0.127663
vt 0.893013 0.809899
vt 0.820174 0.859280
vt 0.820174 0.809899
vt 0.893013 0.859280
vt 0.820174 0.908661
vt 0.893013 0.958041
vt 0.893013 0.908661
vt 0.922484 0.908660
vt 0.995323 0.859280
vt 0.995323 0.908660
vt 0.790703 0.908661
vt 0.668850 0.601598
vt 0.627314 0.573439
vt 0.668850 0.573439
vt 0.627314 0.629757
vt 0.627314 0.601598
vt 0.668850 0.629757
vt 0.627314 0.657916
vt 0.685655 0.629757
vt 0.727191 0.601598
vt 0.727191 0.629757
vt 0.610509 0.601598
vt 0.114767 0.168293
vt 0.095916 0.220936
vt 0.095916 0.168293
vt 0.143042 0.220936
vt 0.114767 0.220936
vt 0.161893 0.168293
vt 0.143042 0.168293
vt 0.114767 0.136707
vt 0.143042 0.084063
vt 0.143042 0.136707
vt 0.143042 0.252523
vt 0.679363 0.612195
vt 0.705410 0.568551
vt 0.705410 0.612195
vt 0.653316 0.612195
vt 0.679363 0.568551
vt 0.627270 0.612195
vt 0.653316 0.568551
vt 0.679363 0.655839
vt 0.653316 0.699483
vt 0.653316 0.655839
vt 0.653316 0.524907
vt 0.922484 0.859280
vt 0.179732 0.161336
vt 0.180835 0.129543
vt 0.072230 0.154563
vt 0.071639 0.184901
vt 0.685655 0.601598
vt 0.068267 0.117149
vt 0.210807 0.209629
vt 0.214083 0.087220
vt 0.195135 0.195141
vt 0.066721 0.124568
vt 0.067218 0.232901
vt 0.953247 0.803206
vt 0.953247 0.925710
vt 0.808410 0.884875
vt 0.552321 0.652150
vt 0.773734 0.598717
vt 0.162963 0.095902
vt 0.133904 0.218678
vt 0.820174 0.958041
vt 0.790703 0.859280
vt 0.668850 0.657916
vt 0.610509 0.629757
vt 0.161893 0.220936
vt 0.114767 0.084063
vt 0.114767 0.252523
vt 0.627270 0.568551
vt 0.679363 0.699483
vt 0.679363 0.524907
vn -0.7707 -0.2393 0.5906
vn -0.6331 0.1817 -0.7524
vn -0.0727 0.9538 0.2915
vn 0.6331 -0.1817 0.7524
vn 0.0727 -0.9538 -0.2915
vn 0.0186 -0.9801 0.1974
vn 0.0287 0.1979 0.9798
vn 0.9994 0.0126 -0.0318
vn -0.0287 -0.1979 -0.9798
vn -0.9994 -0.0126 0.0318
vn 0.0708 -0.9540 -0.2915
vn 0.8874 -0.0913 0.4519
vn -0.0710 0.9540 0.2913
vn -0.8830 0.0861 -0.4614
vn 0.4653 0.2901 -0.8363
vn -0.9994 -0.0133 0.0314
vn -0.0238 -0.3909 -0.9201
vn 0.9994 0.0133 -0.0314
vn 0.0241 0.3932 0.9191
vn -0.0244 0.9210 -0.3889
vn -0.5264 -0.3267 0.7850
vn 0.7707 0.2393 -0.5906
vn -0.0186 0.9801 -0.1974
vn 0.0230 -0.9356 0.3522
vn 0.5520 -0.0965 0.8283
vn 0.7056 0.5834 -0.4022
vn -0.4444 0.8064 0.3901
vn -0.7056 -0.5834 0.4022
vn 0.4444 -0.8064 -0.3901
vn -0.0079 -0.7282 -0.6854
vn -0.0404 -0.6846 0.7278
vn -0.9992 0.0334 -0.0240
vn 0.0404 0.6846 -0.7278
vn 0.9992 -0.0334 0.0240
vn 0.4479 -0.8059 -0.3873
vn -0.8556 -0.2605 -0.4473
vn -0.4473 0.8061 0.3874
vn 0.8518 0.2529 0.4588
vn 0.2589 0.5315 -0.8065
vn 0.9992 -0.0350 0.0207
vn 0.0126 -0.2028 -0.9791
vn -0.9992 0.0349 -0.0201
vn -0.0133 0.1858 0.9825
vn 0.0380 0.9819 -0.1853
vn 0.8492 0.0000 0.5281
vn 0.5281 0.0000 -0.8492
vn -0.8492 -0.0000 -0.5281
vn -0.5281 -0.0000 0.8492
vn 0.0000 -1.0000 -0.0000
vn 0.0000 1.0000 0.0000
vn 0.8496 0.0003 0.5274
vn 0.5274 0.0012 -0.8496
vn -0.8496 -0.0003 -0.5274
vn -0.5274 -0.0012 0.8496
vn 0.0009 -1.0000 -0.0008
vn -0.0009 1.0000 0.0008
vn -0.2628 -0.4916 0.8302
vn -0.5520 0.0965 -0.8283
vn 0.0079 0.7282 0.6854
vn -0.0365 -0.9993 0.0002
vn 0.0708 -0.9539 -0.2915
vn 0.8829 -0.0761 0.4634
vn -0.0708 0.9539 0.2915
vn -0.8843 0.0752 -0.4609
vn -0.9994 -0.0133 0.0313
vn -0.0236 -0.3910 -0.9201
vn 0.9994 0.0133 -0.0313
vn 0.0235 0.3930 0.9192
vn -0.4729 -0.2685 0.8392
vn 0.0237 -0.9359 0.3516
vn 0.4478 -0.8059 -0.3873
vn -0.8496 -0.2668 -0.4549
vn -0.4479 0.8059 0.3873
vn 0.8388 0.2904 0.4606
vn 0.9992 -0.0349 0.0201
vn 0.0143 -0.2022 -0.9792
vn -0.9992 0.0350 -0.0206
vn -0.0152 0.1866 0.9823
vn -0.0505 -0.5640 0.8242
vn -0.0331 -0.9994 0.0039
s off
f 4/1/1 1/2/1 2/3/1
f 8/4/2 1/2/2 3/5/2
f 7/6/3 3/7/3 4/1/3
f 6/8/4 4/1/4 2/3/4
f 1/9/5 6/8/5 2/3/5
f 10/10/6 11/11/6 9/12/6
f 16/13/7 9/12/7 11/11/7
f 15/14/8 11/15/8 12/16/8
f 14/17/9 12/16/9 10/10/9
f 9/18/10 14/17/10 10/10/10
f 25/19/11 18/20/11 26/21/11
f 26/21/12 20/22/12 27/23/12
f 20/22/13 28/24/13 27/23/13
f 28/25/14 17/26/14 25/27/14
f 20/22/15 17/28/15 19/29/15
f 21/30/16 30/31/16 29/32/16
f 30/31/17 24/33/17 31/34/17
f 31/34/18 23/35/18 32/36/18
f 32/37/19 21/38/19 29/39/19
f 22/40/20 23/41/20 24/33/20
f 28/25/21 26/21/21 27/23/21
f 7/6/22 5/42/22 8/43/22
f 16/44/23 14/17/23 13/45/23
f 32/37/24 30/31/24 31/34/24
f 33/46/25 36/47/25 34/48/25
f 35/49/26 37/50/26 40/51/26
f 35/52/27 39/53/27 36/47/27
f 36/47/28 38/54/28 34/48/28
f 33/55/29 38/54/29 37/56/29
f 41/57/30 44/58/30 42/59/30
f 43/60/31 45/61/31 48/62/31
f 44/58/32 48/63/32 47/64/32
f 44/58/33 46/65/33 42/59/33
f 42/59/34 45/66/34 41/67/34
f 57/68/35 50/69/35 49/70/35
f 58/71/36 52/72/36 50/69/36
f 60/73/37 52/72/37 59/74/37
f 60/75/38 49/76/38 51/77/38
f 51/78/39 50/69/39 52/72/39
f 62/79/40 53/80/40 61/81/40
f 62/79/41 56/82/41 54/83/41
f 63/84/42 55/85/42 56/82/42
f 64/86/43 53/87/43 55/88/43
f 56/82/44 53/89/44 54/83/44
f 67/90/45 66/91/45 65/92/45
f 67/90/46 72/93/46 68/94/46
f 69/95/47 72/93/47 71/96/47
f 65/97/48 70/98/48 69/99/48
f 65/97/49 71/96/49 67/90/49
f 70/100/50 68/94/50 72/93/50
f 75/101/51 74/102/51 73/103/51
f 79/104/52 76/105/52 75/101/52
f 77/106/53 80/107/53 79/104/53
f 73/108/54 78/109/54 77/110/54
f 73/108/55 79/104/55 75/101/55
f 78/111/56 76/105/56 80/107/56
f 60/75/57 58/71/57 57/112/57
f 37/113/58 39/53/58 40/114/58
f 45/115/59 47/64/59 48/116/59
f 64/86/60 62/79/60 61/117/60
f 4/1/1 3/5/1 1/2/1
f 8/4/2 5/118/2 1/2/2
f 7/6/3 8/119/3 3/7/3
f 6/8/4 7/6/4 4/1/4
f 1/9/5 5/120/5 6/8/5
f 10/10/6 12/16/6 11/11/6
f 16/13/7 13/121/7 9/12/7
f 15/14/8 16/122/8 11/15/8
f 14/17/9 15/14/9 12/16/9
f 9/18/10 13/123/10 14/17/10
f 25/19/61 17/124/61 18/20/61
f 26/21/62 18/20/62 20/22/62
f 20/22/63 19/125/63 28/24/63
f 28/25/64 19/126/64 17/26/64
f 20/22/15 18/20/15 17/28/15
f 21/30/65 22/40/65 30/31/65
f 30/31/66 22/40/66 24/33/66
f 31/34/67 24/33/67 23/35/67
f 32/37/68 23/127/68 21/38/68
f 22/40/20 21/128/20 23/41/20
f 28/25/69 25/27/69 26/21/69
f 7/6/22 6/8/22 5/42/22
f 16/44/23 15/14/23 14/17/23
f 32/37/70 29/39/70 30/31/70
f 33/46/25 35/49/25 36/47/25
f 35/49/26 33/46/26 37/50/26
f 35/52/27 40/129/27 39/53/27
f 36/47/28 39/53/28 38/54/28
f 33/55/29 34/48/29 38/54/29
f 41/57/30 43/60/30 44/58/30
f 43/60/31 41/57/31 45/61/31
f 44/58/32 43/130/32 48/63/32
f 44/58/33 47/64/33 46/65/33
f 42/59/34 46/65/34 45/66/34
f 57/68/71 58/71/71 50/69/71
f 58/71/72 59/74/72 52/72/72
f 60/73/73 51/131/73 52/72/73
f 60/75/74 57/112/74 49/76/74
f 51/78/39 49/132/39 50/69/39
f 62/79/75 54/83/75 53/80/75
f 62/79/76 63/84/76 56/82/76
f 63/84/77 64/133/77 55/85/77
f 64/86/78 61/117/78 53/87/78
f 56/82/44 55/134/44 53/89/44
f 67/90/45 68/94/45 66/91/45
f 67/90/46 71/96/46 72/93/46
f 69/95/47 70/135/47 72/93/47
f 65/97/48 66/136/48 70/98/48
f 65/97/49 69/99/49 71/96/49
f 70/100/50 66/137/50 68/94/50
f 75/101/51 76/105/51 74/102/51
f 79/104/52 80/107/52 76/105/52
f 77/106/53 78/138/53 80/107/53
f 73/108/54 74/139/54 78/109/54
f 73/108/55 77/110/55 79/104/55
f 78/111/56 74/140/56 76/105/56
f 60/75/79 59/74/79 58/71/79
f 37/113/58 38/54/58 39/53/58
f 45/115/59 46/65/59 47/64/59
f 64/86/80 63/84/80 62/79/80
