# Blender v2.79 (sub 0) OBJ File: '3DObjectDecoderObjects.blend'
# www.blender.org
o Cube.003_Cube.001
v -0.507432 0.751669 1.610280
v -0.263929 0.685901 1.926630
v -0.532181 1.142833 1.710651
v -0.288677 1.077065 2.027001
v 0.288834 0.948801 1.038355
v 0.532338 0.883033 1.354705
v 0.507589 1.274197 1.455076
v 0.264086 1.339965 1.138726
v 0.084618 -1.702261 -1.012303
v 0.066805 -1.398861 -1.279378
v 0.488764 -1.684428 -1.019000
v 0.470951 -1.381028 -1.286075
v 0.067935 -1.042164 -0.261307
v 0.050122 -0.738764 -0.528382
v 0.454268 -0.720931 -0.535079
v 0.472081 -1.024331 -0.268004
v 0.666739 1.181706 0.221662
v 1.028830 1.157873 0.400599
v 0.642895 1.572931 0.322019
v 1.004987 1.549097 0.500956
v 0.039292 -0.168595 0.375468
v 0.023769 0.068220 0.047785
v 0.443446 -0.150798 0.369183
v 0.427923 0.086018 0.041501
v 0.224480 0.933657 1.083566
v 0.586211 0.908926 1.265981
v 0.559571 1.294205 1.389283
v 0.209711 1.327077 1.177436
v 0.066367 -0.990330 -0.214055
v 0.050188 -0.737269 -0.533163
v 0.454344 -0.719586 -0.539642
v 0.470507 -0.972291 -0.220474
v -0.394576 0.658191 0.829290
v -0.700225 0.673999 1.093929
v -0.288235 1.035460 0.929574
v -0.593883 1.051267 1.194212
v -0.994779 1.017346 0.114606
v -1.300428 1.033154 0.379244
v -1.194086 1.410422 0.479527
v -0.888438 1.394614 0.214889
v -0.082630 -1.661341 1.072169
v -0.068676 -1.847113 0.713016
v -0.486916 -1.661164 1.056371
v -0.472962 -1.846937 0.697218
v -0.064314 -0.772985 0.613378
v -0.050360 -0.958757 0.254225
v -0.454646 -0.958581 0.238427
v -0.468600 -0.772808 0.597580
v -0.602820 1.099976 -0.610827
v -0.972205 1.229370 -0.713383
v -0.498037 1.477906 -0.511400
v -0.867422 1.607300 -0.613956
v -0.037714 0.080035 -0.043910
v -0.025619 -0.167730 -0.363540
v -0.442004 0.080528 -0.059592
v -0.429908 -0.167237 -0.379222
v -0.918198 0.941271 0.324779
v -1.290558 1.069713 0.229096
v -1.204685 1.441063 0.374248
v -0.822465 1.327095 0.403684
v -0.062810 -0.715610 0.576850
v -0.050215 -0.953145 0.246248
v -0.454508 -0.952830 0.230614
v -0.467091 -0.715170 0.560949
v 0.313209 0.079915 0.689348
v 0.313209 1.479915 0.689348
v 0.756786 0.079915 -0.023982
v 0.756786 1.479915 -0.023982
v -0.756786 0.079915 0.023982
v -0.756786 1.479915 0.023982
v -0.313209 0.079915 -0.689348
v -0.313209 1.479915 -0.689348
v 0.096532 1.579652 0.413215
v 0.095970 2.179651 0.413725
v 0.412995 1.580381 -0.096541
v 0.412433 2.180381 -0.096031
v -0.413224 1.579443 0.096752
v -0.413786 2.179442 0.097261
v -0.096761 1.580173 -0.413004
v -0.097323 2.180172 -0.412494
vt 0.151712 0.164304
vt 0.128453 0.121671
vt 0.152804 0.123501
vt 0.067175 0.157952
vt 0.127361 0.162474
vt 0.210807 0.209629
vt 0.150620 0.205107
vt 0.212991 0.128023
vt 0.214083 0.087220
vt 0.153896 0.082698
vt 0.120318 0.196104
vt 0.141703 0.159716
vt 0.141869 0.195827
vt 0.194969 0.159030
vt 0.066887 0.160679
vt 0.119987 0.123882
vt 0.120152 0.159993
vt 0.120483 0.232215
vt 0.067052 0.196790
vt 0.893013 0.803206
vt 0.953247 0.844041
vt 0.893013 0.844041
vt 0.953247 0.884875
vt 0.893013 0.884875
vt 0.893013 0.925710
vt 0.868643 0.884875
vt 0.808410 0.844041
vt 0.868643 0.844041
vt 0.977617 0.844041
vt 0.977617 0.884875
vt 0.741845 0.545283
vt 0.663028 0.598717
vt 0.663028 0.545283
vt 0.741845 0.652150
vt 0.663028 0.652150
vt 0.741845 0.705584
vt 0.663028 0.705584
vt 0.631139 0.652150
vt 0.552321 0.598717
vt 0.631139 0.598717
vt 0.741845 0.598717
vt 0.773734 0.652150
vt 0.211899 0.168826
vt 0.237342 0.129853
vt 0.236250 0.170656
vt 0.045336 0.160957
vt 0.045501 0.197068
vt 0.094887 0.153073
vt 0.114964 0.123128
vt 0.113861 0.154921
vt 0.095990 0.121280
vt 0.047991 0.148506
vt 0.049093 0.116713
vt 0.116067 0.091335
vt 0.161861 0.127695
vt 0.160758 0.159488
vt 0.112759 0.186714
vt 0.159655 0.191281
vt 0.153193 0.158992
vt 0.134495 0.188340
vt 0.135087 0.158002
vt 0.197352 0.191779
vt 0.152601 0.189330
vt 0.133904 0.218678
vt 0.089745 0.185892
vt 0.090336 0.155553
vt 0.135678 0.127663
vt 0.090927 0.125215
vt 0.893013 0.809899
vt 0.820174 0.859280
vt 0.820174 0.809899
vt 0.893013 0.859280
vt 0.820174 0.908661
vt 0.893013 0.958041
vt 0.893013 0.908661
vt 0.922484 0.908660
vt 0.995323 0.859280
vt 0.995323 0.908660
vt 0.790703 0.859280
vt 0.668850 0.601598
vt 0.627314 0.573439
vt 0.668850 0.573439
vt 0.627314 0.629757
vt 0.627314 0.601598
vt 0.668850 0.629757
vt 0.627314 0.657916
vt 0.685655 0.629757
vt 0.727191 0.601598
vt 0.727191 0.629757
vt 0.610509 0.601598
vt 0.114767 0.168293
vt 0.095916 0.220936
vt 0.095916 0.168293
vt 0.143042 0.220936
vt 0.114767 0.220936
vt 0.161893 0.168293
vt 0.143042 0.168293
vt 0.114767 0.136707
vt 0.143042 0.084063
vt 0.143042 0.136707
vt 0.143042 0.252523
vt 0.679363 0.612195
vt 0.705410 0.568551
vt 0.705410 0.612195
vt 0.653316 0.612195
vt 0.679363 0.568551
vt 0.627270 0.612195
vt 0.653316 0.568551
vt 0.679363 0.655839
vt 0.653316 0.699483
vt 0.653316 0.655839
vt 0.653316 0.524907
vt 0.922484 0.859280
vt 0.179732 0.161336
vt 0.180835 0.129543
vt 0.072230 0.154563
vt 0.071639 0.184901
vt 0.685655 0.601598
vt 0.068267 0.117149
vt 0.195135 0.195141
vt 0.066721 0.124568
vt 0.067218 0.232901
vt 0.953247 0.803206
vt 0.953247 0.925710
vt 0.808410 0.884875
vt 0.552321 0.652150
vt 0.773734 0.598717
vt 0.162963 0.095902
vt 0.197943 0.161440
vt 0.089154 0.216230
vt 0.820174 0.958041
vt 0.790703 0.908661
vt 0.668850 0.657916
vt 0.610509 0.629757
vt 0.161893 0.220936
vt 0.114767 0.084063
vt 0.114767 0.252523
vt 0.627270 0.568551
vt 0.679363 0.699483
vt 0.679363 0.524907
vn -0.7963 -0.1971 0.5719
vn -0.6018 0.1626 -0.7819
vn -0.0612 0.9668 0.2481
vn 0.6018 -0.1626 0.7819
vn 0.0612 -0.9668 -0.2481
vn 0.0167 -0.6601 -0.7510
vn 0.0440 -0.7499 0.6601
vn 0.9989 0.0441 -0.0166
vn -0.0440 0.7499 -0.6601
vn -0.9989 -0.0441 0.0166
vn 0.0590 -0.9670 -0.2480
vn 0.8999 -0.0753 0.4296
vn -0.0592 0.9670 0.2478
vn -0.8956 0.0711 -0.4391
vn 0.4423 0.2480 -0.8619
vn -0.9989 -0.0441 0.0156
vn -0.0385 0.5838 -0.8110
vn 0.9989 0.0441 -0.0156
vn 0.0389 -0.5816 0.8125
vn -0.0265 0.8096 0.5864
vn -0.5152 -0.2933 0.8053
vn 0.7963 0.1971 -0.5719
vn -0.0167 0.6601 0.7510
vn 0.0243 -0.7832 -0.6213
vn 0.6002 -0.3592 0.7147
vn 0.7554 -0.0391 -0.6541
vn 0.2628 0.9325 0.2479
vn -0.7554 0.0391 0.6541
vn -0.2628 -0.9325 -0.2479
vn -0.0183 -0.8884 0.4588
vn -0.0345 0.4592 0.8877
vn -0.9992 0.0004 -0.0390
vn 0.0345 -0.4592 -0.8877
vn 0.9992 -0.0004 0.0390
vn -0.2590 -0.9341 -0.2457
vn -0.9127 0.3199 -0.2541
vn 0.2596 0.9340 0.2457
vn 0.9077 -0.3223 0.2687
vn 0.3154 0.1587 -0.9356
vn 0.9992 -0.0012 0.0389
vn 0.0299 -0.6136 -0.7891
vn -0.9992 0.0012 -0.0388
vn -0.0298 0.6153 0.7877
vn 0.0247 0.7906 -0.6119
vn 0.8492 0.0000 0.5281
vn 0.5281 0.0000 -0.8492
vn -0.8492 -0.0000 -0.5281
vn -0.5281 -0.0000 0.8492
vn 0.0000 -1.0000 -0.0000
vn 0.0000 1.0000 0.0000
vn 0.8496 0.0003 0.5274
vn 0.5274 0.0012 -0.8496
vn -0.8496 -0.0003 -0.5274
vn -0.5274 -0.0012 0.8496
vn 0.0009 -1.0000 -0.0008
vn -0.0009 1.0000 0.0008
vn -0.2866 -0.1232 0.9501
vn -0.6002 0.3592 -0.7147
vn 0.0183 0.8884 -0.4588
vn -0.0238 -0.8123 0.5827
vn 0.0589 -0.9670 -0.2480
vn 0.8955 -0.0586 0.4412
vn -0.0589 0.9669 0.2481
vn -0.8972 0.0576 -0.4378
vn -0.9989 -0.0440 0.0155
vn -0.0383 0.5837 -0.8111
vn 0.9989 0.0440 -0.0155
vn 0.0383 -0.5819 0.8124
vn -0.4510 -0.2231 0.8642
vn 0.0251 -0.7827 -0.6219
vn -0.2591 -0.9341 -0.2457
vn -0.9138 0.3127 -0.2593
vn 0.2590 0.9341 0.2458
vn 0.9225 -0.2827 0.2630
vn 0.9992 -0.0012 0.0388
vn 0.0300 -0.6135 -0.7891
vn -0.9992 0.0012 -0.0389
vn -0.0303 0.6154 0.7876
vn -0.1685 -0.3248 0.9306
vn -0.0232 -0.8119 0.5833
s off
f 4/1/1 1/2/1 2/3/1
f 8/4/2 1/2/2 3/5/2
f 4/1/3 8/6/3 3/7/3
f 6/8/4 4/1/4 2/3/4
f 5/9/5 2/3/5 1/10/5
f 10/11/6 11/12/6 9/13/6
f 16/14/7 9/13/7 11/12/7
f 15/15/8 11/16/8 12/17/8
f 10/11/9 15/15/9 12/17/9
f 9/18/10 14/19/10 10/11/10
f 25/20/11 18/21/11 26/22/11
f 26/22/12 20/23/12 27/24/12
f 20/23/13 28/25/13 27/24/13
f 28/26/14 17/27/14 25/28/14
f 20/23/15 17/29/15 19/30/15
f 21/31/16 30/32/16 29/33/16
f 30/32/17 24/34/17 31/35/17
f 31/35/18 23/36/18 32/37/18
f 32/38/19 21/39/19 29/40/19
f 22/41/20 23/42/20 24/34/20
f 28/26/21 26/22/21 27/24/21
f 7/43/22 5/44/22 8/45/22
f 16/46/23 14/19/23 13/47/23
f 32/38/24 30/32/24 31/35/24
f 33/48/25 36/49/25 34/50/25
f 35/51/26 37/52/26 40/53/26
f 35/54/27 39/55/27 36/49/27
f 36/49/28 38/56/28 34/50/28
f 33/57/29 38/56/29 37/58/29
f 41/59/30 44/60/30 42/61/30
f 41/59/31 48/62/31 43/63/31
f 43/64/32 47/65/32 44/60/32
f 44/60/33 46/66/33 42/61/33
f 41/67/34 46/66/34 45/68/34
f 57/69/35 50/70/35 49/71/35
f 58/72/36 52/73/36 50/70/36
f 60/74/37 52/73/37 59/75/37
f 60/76/38 49/77/38 51/78/38
f 52/73/39 49/79/39 50/70/39
f 62/80/40 53/81/40 61/82/40
f 62/80/41 56/83/41 54/84/41
f 63/85/42 55/86/42 56/83/42
f 64/87/43 53/88/43 55/89/43
f 56/83/44 53/90/44 54/84/44
f 67/91/45 66/92/45 65/93/45
f 67/91/46 72/94/46 68/95/46
f 69/96/47 72/94/47 71/97/47
f 65/98/48 70/99/48 69/100/48
f 65/98/49 71/97/49 67/91/49
f 70/101/50 68/95/50 72/94/50
f 75/102/51 74/103/51 73/104/51
f 79/105/52 76/106/52 75/102/52
f 77/107/53 80/108/53 79/105/53
f 73/109/54 78/110/54 77/111/54
f 73/109/55 79/105/55 75/102/55
f 78/112/56 76/106/56 80/108/56
f 60/76/57 58/72/57 57/113/57
f 37/114/58 39/55/58 40/115/58
f 45/116/59 47/65/59 48/117/59
f 64/87/60 62/80/60 61/118/60
f 4/1/1 3/5/1 1/2/1
f 8/4/2 5/119/2 1/2/2
f 4/1/3 7/43/3 8/6/3
f 6/8/4 7/43/4 4/1/4
f 5/9/5 6/8/5 2/3/5
f 10/11/6 12/17/6 11/12/6
f 16/14/7 13/120/7 9/13/7
f 15/15/8 16/121/8 11/16/8
f 10/11/9 14/19/9 15/15/9
f 9/18/10 13/122/10 14/19/10
f 25/20/61 17/123/61 18/21/61
f 26/22/62 18/21/62 20/23/62
f 20/23/63 19/124/63 28/25/63
f 28/26/64 19/125/64 17/27/64
f 20/23/15 18/21/15 17/29/15
f 21/31/65 22/41/65 30/32/65
f 30/32/66 22/41/66 24/34/66
f 31/35/67 24/34/67 23/36/67
f 32/38/68 23/126/68 21/39/68
f 22/41/20 21/127/20 23/42/20
f 28/26/69 25/28/69 26/22/69
f 7/43/22 6/8/22 5/44/22
f 16/46/23 15/15/23 14/19/23
f 32/38/70 29/40/70 30/32/70
f 33/48/25 35/51/25 36/49/25
f 35/51/26 33/48/26 37/52/26
f 35/54/27 40/128/27 39/55/27
f 36/49/28 39/55/28 38/56/28
f 33/57/29 34/50/29 38/56/29
f 41/59/30 43/63/30 44/60/30
f 41/59/31 45/129/31 48/62/31
f 43/64/32 48/130/32 47/65/32
f 44/60/33 47/65/33 46/66/33
f 41/67/34 42/61/34 46/66/34
f 57/69/71 58/72/71 50/70/71
f 58/72/72 59/75/72 52/73/72
f 60/74/73 51/131/73 52/73/73
f 60/76/74 57/113/74 49/77/74
f 52/73/39 51/132/39 49/79/39
f 62/80/75 54/84/75 53/81/75
f 62/80/76 63/85/76 56/83/76
f 63/85/77 64/133/77 55/86/77
f 64/87/78 61/118/78 53/88/78
f 56/83/44 55/134/44 53/90/44
f 67/91/45 68/95/45 66/92/45
f 67/91/46 71/97/46 72/94/46
f 69/96/47 70/135/47 72/94/47
f 65/98/48 66/136/48 70/99/48
f 65/98/49 69/100/49 71/97/49
f 70/101/50 66/137/50 68/95/50
f 75/102/51 76/106/51 74/103/51
f 79/105/52 80/108/52 76/106/52
f 77/107/53 78/138/53 80/108/53
f 73/109/54 74/139/54 78/110/54
f 73/109/55 77/111/55 79/105/55
f 78/112/56 74/140/56 76/106/56
f 60/76/79 59/75/79 58/72/79
f 37/114/58 38/56/58 39/55/58
f 45/116/59 46/66/59 47/65/59
f 64/87/80 63/85/80 62/80/80
