# Blender v2.79 (sub 0) OBJ File: '3DObjectDecoderObjects.blend'
# www.blender.org
o Cube.003_Cube.001
v -0.510911 0.678408 1.606609
v -0.255149 0.606203 1.911681
v -0.541202 1.064591 1.723406
v -0.285440 0.992386 2.028478
v 0.260314 0.917346 1.016592
v 0.516076 0.845141 1.321664
v 0.485785 1.231324 1.438461
v 0.230023 1.303529 1.133389
v 0.082024 -1.753886 1.170104
v 0.069186 -1.855785 0.778760
v 0.486365 -1.750968 1.156079
v 0.473527 -1.852867 0.764736
v 0.066318 -0.786146 0.918637
v 0.053480 -0.888046 0.527293
v 0.457821 -0.885128 0.513269
v 0.470659 -0.783229 0.904612
v 0.675345 1.192745 0.211778
v 1.032372 1.163172 0.399806
v 0.645833 1.578992 0.328564
v 1.002860 1.549419 0.516591
v 0.035479 0.079924 0.239849
v 0.027049 -0.172797 -0.075997
v 0.439826 0.083538 0.226165
v 0.431396 -0.169183 -0.089682
v 0.210593 0.904134 1.048862
v 0.567329 0.873658 1.239852
v 0.535547 1.253920 1.376184
v 0.188853 1.292625 1.160122
v 0.064446 -0.714645 0.882967
v 0.054889 -0.941424 0.544506
v 0.459243 -0.938228 0.530890
v 0.468774 -0.711102 0.868770
v -0.247616 0.726667 0.846480
v -0.533713 0.492118 1.010308
v -0.425765 1.053998 1.004003
v -0.711863 0.819450 1.167831
v -0.800896 0.823687 0.019148
v -1.086993 0.589139 0.182976
v -1.265143 0.916470 0.340499
v -0.979045 1.151018 0.176671
v -0.084821 -1.728456 -0.850363
v -0.066401 -1.392021 -1.074348
v -0.488990 -1.711949 -0.858806
v -0.470570 -1.375514 -1.082791
v -0.079588 -1.174484 -0.017843
v -0.061168 -0.838049 -0.241828
v -0.465337 -0.821542 -0.250271
v -0.483757 -1.157977 -0.026287
v -0.470613 1.294264 -0.584834
v -0.817560 1.189954 -0.764982
v -0.650161 1.621376 -0.428448
v -0.997108 1.517066 -0.608596
v -0.033574 -0.035112 0.064964
v -0.026296 -0.022601 -0.339372
v -0.437765 -0.018361 0.058207
v -0.430487 -0.005850 -0.346129
v -0.730960 0.765224 0.222846
v -1.080483 0.656931 0.048147
v -1.276381 0.957873 0.240989
v -0.918799 1.097581 0.358704
v -0.076740 -1.085344 0.032067
v -0.066524 -0.999640 -0.353175
v -0.470731 -0.983530 -0.360606
v -0.480878 -1.067750 0.024546
v 0.313209 0.079915 0.689348
v 0.313209 1.479915 0.689348
v 0.756786 0.079915 -0.023982
v 0.756786 1.479915 -0.023982
v -0.756786 0.079915 0.023982
v -0.756786 1.479915 0.023982
v -0.313209 0.079915 -0.689348
v -0.313209 1.479915 -0.689348
v 0.096532 1.579652 0.413215
v 0.095970 2.179651 0.413725
v 0.412995 1.580381 -0.096541
v 0.412433 2.180381 -0.096031
v -0.413224 1.579443 0.096752
v -0.413786 2.179442 0.097261
v -0.096761 1.580173 -0.413004
v -0.097323 2.180172 -0.412494
vt 0.151712 0.164304
vt 0.128453 0.121671
vt 0.152804 0.123501
vt 0.067175 0.157952
vt 0.127361 0.162474
vt 0.210807 0.209629
vt 0.150620 0.205107
vt 0.212991 0.128023
vt 0.214083 0.087220
vt 0.153896 0.082698
vt 0.120318 0.196104
vt 0.141703 0.159716
vt 0.141869 0.195827
vt 0.194969 0.159030
vt 0.066887 0.160679
vt 0.119987 0.123882
vt 0.120152 0.159993
vt 0.120483 0.232215
vt 0.067052 0.196790
vt 0.893013 0.803206
vt 0.953247 0.844041
vt 0.893013 0.844041
vt 0.953247 0.884875
vt 0.893013 0.884875
vt 0.893013 0.925710
vt 0.868643 0.884875
vt 0.808410 0.844041
vt 0.868643 0.844041
vt 0.977617 0.884875
vt 0.741845 0.545283
vt 0.663028 0.598717
vt 0.663028 0.545283
vt 0.741845 0.652150
vt 0.663028 0.652150
vt 0.741845 0.705584
vt 0.663028 0.705584
vt 0.631139 0.652150
vt 0.552321 0.598717
vt 0.631139 0.598717
vt 0.741845 0.598717
vt 0.773734 0.652150
vt 0.211899 0.168826
vt 0.237342 0.129853
vt 0.236250 0.170656
vt 0.045336 0.160957
vt 0.045501 0.197068
vt 0.094887 0.153073
vt 0.114964 0.123128
vt 0.113861 0.154921
vt 0.095990 0.121280
vt 0.047991 0.148506
vt 0.049093 0.116713
vt 0.116067 0.091335
vt 0.161861 0.127695
vt 0.160758 0.159488
vt 0.112759 0.186714
vt 0.159655 0.191281
vt 0.153193 0.158992
vt 0.134495 0.188340
vt 0.135087 0.158002
vt 0.197352 0.191779
vt 0.152601 0.189330
vt 0.089154 0.216230
vt 0.089745 0.185892
vt 0.090336 0.155553
vt 0.090927 0.125215
vt 0.135678 0.127663
vt 0.893013 0.809899
vt 0.820174 0.859280
vt 0.820174 0.809899
vt 0.893013 0.859280
vt 0.820174 0.908661
vt 0.893013 0.958041
vt 0.893013 0.908661
vt 0.922484 0.908660
vt 0.995323 0.859280
vt 0.995323 0.908660
vt 0.790703 0.908661
vt 0.668850 0.601598
vt 0.627314 0.573439
vt 0.668850 0.573439
vt 0.627314 0.629757
vt 0.627314 0.601598
vt 0.668850 0.629757
vt 0.627314 0.657916
vt 0.685655 0.629757
vt 0.727191 0.601598
vt 0.727191 0.629757
vt 0.610509 0.601598
vt 0.114767 0.168293
vt 0.095916 0.220936
vt 0.095916 0.168293
vt 0.143042 0.220936
vt 0.114767 0.220936
vt 0.161893 0.168293
vt 0.143042 0.168293
vt 0.114767 0.136707
vt 0.143042 0.084063
vt 0.143042 0.136707
vt 0.143042 0.252523
vt 0.679363 0.612195
vt 0.705410 0.568551
vt 0.705410 0.612195
vt 0.653316 0.612195
vt 0.679363 0.568551
vt 0.627270 0.612195
vt 0.653316 0.568551
vt 0.679363 0.655839
vt 0.653316 0.699483
vt 0.653316 0.655839
vt 0.653316 0.524907
vt 0.922484 0.859280
vt 0.179732 0.161336
vt 0.180835 0.129543
vt 0.072230 0.154563
vt 0.071639 0.184901
vt 0.685655 0.601598
vt 0.068267 0.117149
vt 0.195135 0.195141
vt 0.066721 0.124568
vt 0.067218 0.232901
vt 0.953247 0.803206
vt 0.953247 0.925710
vt 0.808410 0.884875
vt 0.977617 0.844041
vt 0.552321 0.652150
vt 0.773734 0.598717
vt 0.162963 0.095902
vt 0.197943 0.161440
vt 0.133904 0.218678
vt 0.820174 0.958041
vt 0.790703 0.859280
vt 0.668850 0.657916
vt 0.610509 0.629757
vt 0.161893 0.220936
vt 0.114767 0.084063
vt 0.114767 0.252523
vt 0.627270 0.568551
vt 0.679363 0.699483
vt 0.679363 0.524907
vn -0.7712 -0.2389 0.5900
vn -0.6321 0.1785 -0.7540
vn -0.0749 0.9545 0.2887
vn 0.6321 -0.1785 0.7540
vn 0.0749 -0.9545 -0.2887
vn 0.0157 -0.9677 0.2515
vn 0.0317 0.2519 0.9672
vn 0.9994 0.0072 -0.0347
vn -0.0317 -0.2519 -0.9672
vn -0.9994 -0.0072 0.0347
vn 0.0730 -0.9547 -0.2886
vn 0.8875 -0.0880 0.4523
vn -0.0732 0.9547 0.2884
vn -0.8831 0.0828 -0.4618
vn 0.4648 0.2886 -0.8371
vn -0.9994 -0.0088 0.0341
vn -0.0212 -0.6283 -0.7777
vn 0.9994 0.0088 -0.0341
vn 0.0218 0.6295 0.7767
vn -0.0281 0.7809 -0.6241
vn -0.5260 -0.3256 0.7857
vn 0.7712 0.2389 -0.5900
vn -0.0157 0.9677 -0.2515
vn 0.0253 -0.8300 0.5572
vn 0.5533 -0.0970 0.8273
vn 0.7071 0.5797 -0.4049
vn -0.4403 0.8090 0.3893
vn -0.7071 -0.5797 0.4049
vn 0.4403 -0.8090 -0.3893
vn -0.0052 -0.5540 -0.8325
vn -0.0455 -0.8315 0.5536
vn -0.9989 0.0408 -0.0209
vn 0.0455 0.8315 -0.5536
vn 0.9989 -0.0408 0.0209
vn 0.4438 -0.8085 -0.3865
vn -0.8573 -0.2574 -0.4459
vn -0.4432 0.8087 0.3866
vn 0.8534 0.2497 0.4575
vn 0.2603 0.5290 -0.8077
vn 0.9990 -0.0416 0.0172
vn 0.0173 0.0134 -0.9998
vn -0.9990 0.0414 -0.0167
vn -0.0180 -0.0313 0.9993
vn 0.0409 0.9987 0.0316
vn 0.8492 0.0000 0.5281
vn 0.5281 0.0000 -0.8492
vn -0.8492 -0.0000 -0.5281
vn -0.5281 -0.0000 0.8492
vn 0.0000 -1.0000 -0.0000
vn 0.0000 1.0000 0.0000
vn 0.8496 0.0003 0.5274
vn 0.5274 0.0012 -0.8496
vn -0.8496 -0.0003 -0.5274
vn -0.5274 -0.0012 0.8496
vn 0.0009 -1.0000 -0.0008
vn -0.0009 1.0000 0.0008
vn -0.2640 -0.4890 0.8313
vn -0.5533 0.0970 -0.8273
vn 0.0052 0.5540 0.8325
vn -0.0384 -0.9752 -0.2180
vn 0.0729 -0.9547 -0.2886
vn 0.8830 -0.0728 0.4637
vn -0.0730 0.9546 0.2887
vn -0.8844 0.0719 -0.4612
vn -0.9994 -0.0089 0.0338
vn -0.0207 -0.6285 -0.7776
vn 0.9994 0.0089 -0.0338
vn 0.0207 0.6291 0.7770
vn -0.4725 -0.2670 0.8399
vn 0.0268 -0.8308 0.5559
vn 0.4437 -0.8085 -0.3865
vn -0.8514 -0.2637 -0.4534
vn -0.4438 0.8085 0.3865
vn 0.8406 0.2874 0.4592
vn 0.9990 -0.0414 0.0167
vn 0.0189 0.0140 -0.9997
vn -0.9990 0.0416 -0.0172
vn -0.0199 -0.0305 0.9993
vn -0.0519 -0.5625 0.8252
vn -0.0350 -0.9761 -0.2144
s off
f 4/1/1 1/2/1 2/3/1
f 8/4/2 1/2/2 3/5/2
f 4/1/3 8/6/3 3/7/3
f 6/8/4 4/1/4 2/3/4
f 5/9/5 2/3/5 1/10/5
f 10/11/6 11/12/6 9/13/6
f 16/14/7 9/13/7 11/12/7
f 15/15/8 11/16/8 12/17/8
f 10/11/9 15/15/9 12/17/9
f 9/18/10 14/19/10 10/11/10
f 25/20/11 18/21/11 26/22/11
f 26/22/12 20/23/12 27/24/12
f 20/23/13 28/25/13 27/24/13
f 28/26/14 17/27/14 25/28/14
f 18/21/15 19/29/15 20/23/15
f 21/30/16 30/31/16 29/32/16
f 30/31/17 24/33/17 31/34/17
f 31/34/18 23/35/18 32/36/18
f 32/37/19 21/38/19 29/39/19
f 22/40/20 23/41/20 24/33/20
f 28/26/21 26/22/21 27/24/21
f 7/42/22 5/43/22 8/44/22
f 16/45/23 14/19/23 13/46/23
f 32/37/24 30/31/24 31/34/24
f 33/47/25 36/48/25 34/49/25
f 35/50/26 37/51/26 40/52/26
f 35/53/27 39/54/27 36/48/27
f 36/48/28 38/55/28 34/49/28
f 33/56/29 38/55/29 37/57/29
f 41/58/30 44/59/30 42/60/30
f 41/58/31 48/61/31 43/62/31
f 44/59/32 48/63/32 47/64/32
f 44/59/33 46/65/33 42/60/33
f 42/60/34 45/66/34 41/67/34
f 57/68/35 50/69/35 49/70/35
f 58/71/36 52/72/36 50/69/36
f 60/73/37 52/72/37 59/74/37
f 60/75/38 49/76/38 51/77/38
f 51/78/39 50/69/39 52/72/39
f 62/79/40 53/80/40 61/81/40
f 62/79/41 56/82/41 54/83/41
f 63/84/42 55/85/42 56/82/42
f 64/86/43 53/87/43 55/88/43
f 56/82/44 53/89/44 54/83/44
f 67/90/45 66/91/45 65/92/45
f 67/90/46 72/93/46 68/94/46
f 69/95/47 72/93/47 71/96/47
f 65/97/48 70/98/48 69/99/48
f 65/97/49 71/96/49 67/90/49
f 70/100/50 68/94/50 72/93/50
f 75/101/51 74/102/51 73/103/51
f 79/104/52 76/105/52 75/101/52
f 77/106/53 80/107/53 79/104/53
f 73/108/54 78/109/54 77/110/54
f 73/108/55 79/104/55 75/101/55
f 78/111/56 76/105/56 80/107/56
f 60/75/57 58/71/57 57/112/57
f 37/113/58 39/54/58 40/114/58
f 45/115/59 47/64/59 48/116/59
f 64/86/60 62/79/60 61/117/60
f 4/1/1 3/5/1 1/2/1
f 8/4/2 5/118/2 1/2/2
f 4/1/3 7/42/3 8/6/3
f 6/8/4 7/42/4 4/1/4
f 5/9/5 6/8/5 2/3/5
f 10/11/6 12/17/6 11/12/6
f 16/14/7 13/119/7 9/13/7
f 15/15/8 16/120/8 11/16/8
f 10/11/9 14/19/9 15/15/9
f 9/18/10 13/121/10 14/19/10
f 25/20/61 17/122/61 18/21/61
f 26/22/62 18/21/62 20/23/62
f 20/23/63 19/123/63 28/25/63
f 28/26/64 19/124/64 17/27/64
f 18/21/15 17/125/15 19/29/15
f 21/30/65 22/40/65 30/31/65
f 30/31/66 22/40/66 24/33/66
f 31/34/67 24/33/67 23/35/67
f 32/37/68 23/126/68 21/38/68
f 22/40/20 21/127/20 23/41/20
f 28/26/69 25/28/69 26/22/69
f 7/42/22 6/8/22 5/43/22
f 16/45/23 15/15/23 14/19/23
f 32/37/70 29/39/70 30/31/70
f 33/47/25 35/50/25 36/48/25
f 35/50/26 33/47/26 37/51/26
f 35/53/27 40/128/27 39/54/27
f 36/48/28 39/54/28 38/55/28
f 33/56/29 34/49/29 38/55/29
f 41/58/30 43/62/30 44/59/30
f 41/58/31 45/129/31 48/61/31
f 44/59/32 43/130/32 48/63/32
f 44/59/33 47/64/33 46/65/33
f 42/60/34 46/65/34 45/66/34
f 57/68/71 58/71/71 50/69/71
f 58/71/72 59/74/72 52/72/72
f 60/73/73 51/131/73 52/72/73
f 60/75/74 57/112/74 49/76/74
f 51/78/39 49/132/39 50/69/39
f 62/79/75 54/83/75 53/80/75
f 62/79/76 63/84/76 56/82/76
f 63/84/77 64/133/77 55/85/77
f 64/86/78 61/117/78 53/87/78
f 56/82/44 55/134/44 53/89/44
f 67/90/45 68/94/45 66/91/45
f 67/90/46 71/96/46 72/93/46
f 69/95/47 70/135/47 72/93/47
f 65/97/48 66/136/48 70/98/48
f 65/97/49 69/99/49 71/96/49
f 70/100/50 66/137/50 68/94/50
f 75/101/51 76/105/51 74/102/51
f 79/104/52 80/107/52 76/105/52
f 77/106/53 78/138/53 80/107/53
f 73/108/54 74/139/54 78/109/54
f 73/108/55 77/110/55 79/104/55
f 78/111/56 74/140/56 76/105/56
f 60/75/79 59/74/79 58/71/79
f 37/113/58 38/55/58 39/54/58
f 45/115/59 46/65/59 47/64/59
f 64/86/80 63/84/80 62/79/80
