# Blender v2.79 (sub 0) OBJ File: '3DObjectDecoderObjects.blend'
# www.blender.org
o Cube.003_Cube.001
v -0.514078 0.672703 1.605120
v -0.256283 0.594440 1.906970
v -0.540542 1.057443 1.727476
v -0.282746 0.979181 2.029325
v 0.253864 0.914190 1.011868
v 0.511660 0.835928 1.313718
v 0.485196 1.220668 1.436073
v 0.227400 1.298931 1.134224
v 0.081501 -2.014848 0.631064
v 0.069725 -2.022873 0.226719
v 0.485859 -2.007861 0.619149
v 0.474084 -2.015886 0.214804
v 0.063656 -1.015194 0.611746
v 0.051881 -1.023219 0.207401
v 0.456239 -1.016231 0.195486
v 0.468014 -1.008206 0.599831
v 0.673907 1.197650 0.209625
v 1.030585 1.161827 0.397226
v 0.648205 1.582447 0.331966
v 1.004884 1.546624 0.519567
v 0.036084 0.028045 0.313060
v 0.027021 -0.085112 -0.075285
v 0.440446 0.035384 0.301485
v 0.431383 -0.077773 -0.086860
v 0.206146 0.901625 1.042433
v 0.562545 0.864882 1.232919
v 0.534652 1.243577 1.374295
v 0.188040 1.288627 1.159372
v 0.062029 -0.943794 0.600947
v 0.052274 -1.036998 0.204074
v 0.456640 -1.029923 0.192458
v 0.466379 -0.936398 0.589050
v -0.244094 0.724792 0.848616
v -0.526438 0.481581 1.006207
v -0.431865 1.045899 1.007765
v -0.714209 0.802689 1.165356
v -0.789662 0.818530 0.015802
v -1.072006 0.575320 0.173393
v -1.259778 0.896427 0.332542
v -0.977434 1.139637 0.174951
v -0.082750 -1.962114 -0.109512
v -0.068426 -1.788160 -0.474522
v -0.487063 -1.951703 -0.120417
v -0.472740 -1.777750 -0.485427
v -0.071125 -1.059624 0.321045
v -0.056801 -0.885671 -0.043965
v -0.461114 -0.875260 -0.054870
v -0.475438 -1.049214 0.310140
v -0.468717 1.303180 -0.583088
v -0.811552 1.191470 -0.766638
v -0.657862 1.624047 -0.425085
v -1.000697 1.512336 -0.608634
v -0.033758 0.027983 0.022425
v -0.027634 -0.089511 -0.364686
v -0.438081 0.039125 0.012647
v -0.431956 -0.078369 -0.374464
v -0.720685 0.760189 0.217963
v -1.066032 0.644400 0.039763
v -1.271113 0.938475 0.233577
v -0.918007 1.086276 0.355537
v -0.068705 -0.965863 0.328348
v -0.060512 -1.024651 -0.069275
v -0.464848 -1.014191 -0.079324
v -0.472994 -0.954369 0.317745
v 0.313209 0.079915 0.689348
v 0.313209 1.479915 0.689348
v 0.756786 0.079915 -0.023982
v 0.756786 1.479915 -0.023982
v -0.756786 0.079915 0.023982
v -0.756786 1.479915 0.023982
v -0.313209 0.079915 -0.689348
v -0.313209 1.479915 -0.689348
v 0.096532 1.579652 0.413215
v 0.095970 2.179651 0.413725
v 0.412995 1.580381 -0.096541
v 0.412433 2.180381 -0.096031
v -0.413224 1.579443 0.096752
v -0.413786 2.179442 0.097261
v -0.096761 1.580173 -0.413004
v -0.097323 2.180172 -0.412494
vt 0.151712 0.164304
vt 0.128453 0.121671
vt 0.152804 0.123501
vt 0.127361 0.162474
vt 0.068267 0.117149
vt 0.210807 0.209629
vt 0.150620 0.205107
vt 0.212991 0.128023
vt 0.214083 0.087220
vt 0.153896 0.082698
vt 0.120318 0.196104
vt 0.141703 0.159716
vt 0.141869 0.195827
vt 0.194969 0.159030
vt 0.066887 0.160679
vt 0.119987 0.123882
vt 0.120152 0.159993
vt 0.120483 0.232215
vt 0.067052 0.196790
vt 0.893013 0.803206
vt 0.953247 0.844041
vt 0.893013 0.844041
vt 0.953247 0.884875
vt 0.893013 0.884875
vt 0.893013 0.925710
vt 0.868643 0.884875
vt 0.808410 0.844041
vt 0.868643 0.844041
vt 0.977617 0.844041
vt 0.977617 0.884875
vt 0.741845 0.545283
vt 0.663028 0.598717
vt 0.663028 0.545283
vt 0.741845 0.652150
vt 0.663028 0.652150
vt 0.741845 0.705584
vt 0.663028 0.705584
vt 0.631139 0.652150
vt 0.552321 0.598717
vt 0.631139 0.598717
vt 0.741845 0.598717
vt 0.773734 0.652150
vt 0.211899 0.168826
vt 0.237342 0.129853
vt 0.236250 0.170656
vt 0.045336 0.160957
vt 0.045501 0.197068
vt 0.094887 0.153073
vt 0.114964 0.123128
vt 0.113861 0.154921
vt 0.095990 0.121280
vt 0.047991 0.148506
vt 0.049093 0.116713
vt 0.116067 0.091335
vt 0.161861 0.127695
vt 0.160758 0.159488
vt 0.112759 0.186714
vt 0.159655 0.191281
vt 0.153193 0.158992
vt 0.134495 0.188340
vt 0.135087 0.158002
vt 0.152601 0.189330
vt 0.197943 0.161440
vt 0.197352 0.191779
vt 0.089154 0.216230
vt 0.089745 0.185892
vt 0.090336 0.155553
vt 0.090927 0.125215
vt 0.135678 0.127663
vt 0.893013 0.809899
vt 0.820174 0.859280
vt 0.820174 0.809899
vt 0.893013 0.859280
vt 0.820174 0.908661
vt 0.893013 0.958041
vt 0.893013 0.908661
vt 0.922484 0.908660
vt 0.995323 0.859280
vt 0.995323 0.908660
vt 0.790703 0.908661
vt 0.668850 0.601598
vt 0.627314 0.573439
vt 0.668850 0.573439
vt 0.627314 0.629757
vt 0.627314 0.601598
vt 0.668850 0.629757
vt 0.627314 0.657916
vt 0.685655 0.629757
vt 0.727191 0.601598
vt 0.727191 0.629757
vt 0.610509 0.601598
vt 0.114767 0.168293
vt 0.095916 0.220936
vt 0.095916 0.168293
vt 0.143042 0.220936
vt 0.114767 0.220936
vt 0.161893 0.168293
vt 0.143042 0.168293
vt 0.114767 0.136707
vt 0.143042 0.084063
vt 0.143042 0.136707
vt 0.143042 0.252523
vt 0.679363 0.612195
vt 0.705410 0.568551
vt 0.705410 0.612195
vt 0.653316 0.612195
vt 0.679363 0.568551
vt 0.627270 0.612195
vt 0.653316 0.568551
vt 0.679363 0.655839
vt 0.653316 0.699483
vt 0.653316 0.655839
vt 0.653316 0.524907
vt 0.922484 0.859280
vt 0.179732 0.161336
vt 0.180835 0.129543
vt 0.072230 0.154563
vt 0.071639 0.184901
vt 0.685655 0.601598
vt 0.067175 0.157952
vt 0.195135 0.195141
vt 0.066721 0.124568
vt 0.067218 0.232901
vt 0.953247 0.803206
vt 0.953247 0.925710
vt 0.808410 0.884875
vt 0.552321 0.652150
vt 0.773734 0.598717
vt 0.162963 0.095902
vt 0.133904 0.218678
vt 0.820174 0.958041
vt 0.790703 0.859280
vt 0.668850 0.657916
vt 0.610509 0.629757
vt 0.161893 0.220936
vt 0.114767 0.084063
vt 0.114767 0.252523
vt 0.627270 0.568551
vt 0.679363 0.699483
vt 0.679363 0.524907
vn -0.7679 -0.2415 0.5933
vn -0.6372 0.1934 -0.7461
vn -0.0654 0.9509 0.3024
vn 0.6372 -0.1934 0.7461
vn 0.0654 -0.9509 -0.3024
vn 0.0178 -0.9997 0.0193
vn 0.0291 0.0198 0.9994
vn 0.9994 0.0173 -0.0294
vn -0.0291 -0.0198 -0.9994
vn -0.9994 -0.0173 0.0294
vn 0.0635 -0.9511 -0.3024
vn 0.8865 -0.1031 0.4511
vn -0.0637 0.9511 0.3022
vn -0.8822 0.0979 -0.4607
vn 0.4678 0.2960 -0.8328
vn -0.9994 -0.0181 0.0288
vn -0.0226 -0.2820 -0.9592
vn 0.9994 0.0181 -0.0288
vn 0.0230 0.2845 0.9584
vn -0.0254 0.9599 -0.2791
vn -0.5280 -0.3309 0.7821
vn 0.7679 0.2415 -0.5933
vn -0.0178 0.9997 -0.0193
vn 0.0236 -0.9732 0.2289
vn 0.5456 -0.0937 0.8328
vn 0.6978 0.6011 -0.3895
vn -0.4641 0.7937 0.3934
vn -0.6978 -0.6011 0.3895
vn 0.4641 -0.7937 -0.3934
vn -0.0116 -0.9025 -0.4306
vn -0.0354 -0.4299 0.9022
vn -0.9993 0.0257 -0.0270
vn 0.0354 0.4299 -0.9022
vn 0.9993 -0.0257 0.0270
vn 0.4675 -0.7931 -0.3905
vn -0.8471 -0.2756 -0.4543
vn -0.4670 0.7933 0.3906
vn 0.8434 0.2679 0.4656
vn 0.2519 0.5430 -0.8011
vn 0.9993 -0.0275 0.0247
vn 0.0147 -0.3017 -0.9533
vn -0.9993 0.0275 -0.0242
vn -0.0150 0.2940 0.9557
vn 0.0334 0.9565 -0.2898
vn 0.8492 0.0000 0.5281
vn 0.5281 0.0000 -0.8492
vn -0.8492 -0.0000 -0.5281
vn -0.5281 -0.0000 0.8492
vn 0.0000 -1.0000 -0.0000
vn 0.0000 1.0000 0.0000
vn 0.8496 0.0003 0.5274
vn 0.5274 0.0012 -0.8496
vn -0.8496 -0.0003 -0.5274
vn -0.5274 -0.0012 0.8496
vn 0.0009 -1.0000 -0.0008
vn -0.0009 1.0000 0.0008
vn -0.2569 -0.5035 0.8249
vn -0.5456 0.0937 -0.8328
vn 0.0116 0.9025 0.4306
vn -0.0319 -0.9888 0.1455
vn 0.8821 -0.0882 0.4627
vn -0.0635 0.9511 0.3024
vn -0.8834 0.0873 -0.4603
vn -0.9994 -0.0181 0.0286
vn -0.0223 -0.2821 -0.9591
vn 0.9994 0.0181 -0.0286
vn 0.0223 0.2842 0.9585
vn -0.4751 -0.2748 0.8359
vn 0.0245 -0.9734 0.2280
vn 0.4674 -0.7931 -0.3905
vn -0.8409 -0.2819 -0.4620
vn -0.4675 0.7930 0.3905
vn 0.8297 0.3048 0.4676
vn 0.9993 -0.0275 0.0242
vn 0.0159 -0.3012 -0.9534
vn -0.9993 0.0275 -0.0247
vn -0.0167 0.2947 0.9554
vn -0.0441 -0.5710 0.8197
vn -0.0293 -0.9885 0.1483
s off
f 4/1/1 1/2/1 2/3/1
f 3/4/2 5/5/2 1/2/2
f 4/1/3 8/6/3 3/7/3
f 6/8/4 4/1/4 2/3/4
f 5/9/5 2/3/5 1/10/5
f 10/11/6 11/12/6 9/13/6
f 16/14/7 9/13/7 11/12/7
f 15/15/8 11/16/8 12/17/8
f 10/11/9 15/15/9 12/17/9
f 9/18/10 14/19/10 10/11/10
f 25/20/11 18/21/11 26/22/11
f 26/22/12 20/23/12 27/24/12
f 20/23/13 28/25/13 27/24/13
f 28/26/14 17/27/14 25/28/14
f 20/23/15 17/29/15 19/30/15
f 21/31/16 30/32/16 29/33/16
f 30/32/17 24/34/17 31/35/17
f 31/35/18 23/36/18 32/37/18
f 32/38/19 21/39/19 29/40/19
f 22/41/20 23/42/20 24/34/20
f 28/26/21 26/22/21 27/24/21
f 7/43/22 5/44/22 8/45/22
f 16/46/23 14/19/23 13/47/23
f 32/38/24 30/32/24 31/35/24
f 33/48/25 36/49/25 34/50/25
f 35/51/26 37/52/26 40/53/26
f 35/54/27 39/55/27 36/49/27
f 36/49/28 38/56/28 34/50/28
f 33/57/29 38/56/29 37/58/29
f 41/59/30 44/60/30 42/61/30
f 43/62/31 45/63/31 48/64/31
f 44/60/32 48/65/32 47/66/32
f 44/60/33 46/67/33 42/61/33
f 42/61/34 45/68/34 41/69/34
f 57/70/35 50/71/35 49/72/35
f 58/73/36 52/74/36 50/71/36
f 60/75/37 52/74/37 59/76/37
f 60/77/38 49/78/38 51/79/38
f 51/80/39 50/71/39 52/74/39
f 62/81/40 53/82/40 61/83/40
f 62/81/41 56/84/41 54/85/41
f 63/86/42 55/87/42 56/84/42
f 64/88/43 53/89/43 55/90/43
f 56/84/44 53/91/44 54/85/44
f 67/92/45 66/93/45 65/94/45
f 67/92/46 72/95/46 68/96/46
f 69/97/47 72/95/47 71/98/47
f 65/99/48 70/100/48 69/101/48
f 65/99/49 71/98/49 67/92/49
f 70/102/50 68/96/50 72/95/50
f 75/103/51 74/104/51 73/105/51
f 79/106/52 76/107/52 75/103/52
f 77/108/53 80/109/53 79/106/53
f 73/110/54 78/111/54 77/112/54
f 73/110/55 79/106/55 75/103/55
f 78/113/56 76/107/56 80/109/56
f 60/77/57 58/73/57 57/114/57
f 37/115/58 39/55/58 40/116/58
f 45/117/59 47/66/59 48/118/59
f 64/88/60 62/81/60 61/119/60
f 4/1/1 3/4/1 1/2/1
f 3/4/2 8/120/2 5/5/2
f 4/1/3 7/43/3 8/6/3
f 6/8/4 7/43/4 4/1/4
f 5/9/5 6/8/5 2/3/5
f 10/11/6 12/17/6 11/12/6
f 16/14/7 13/121/7 9/13/7
f 15/15/8 16/122/8 11/16/8
f 10/11/9 14/19/9 15/15/9
f 9/18/10 13/123/10 14/19/10
f 25/20/11 17/124/11 18/21/11
f 26/22/61 18/21/61 20/23/61
f 20/23/62 19/125/62 28/25/62
f 28/26/63 19/126/63 17/27/63
f 20/23/15 18/21/15 17/29/15
f 21/31/64 22/41/64 30/32/64
f 30/32/65 22/41/65 24/34/65
f 31/35/66 24/34/66 23/36/66
f 32/38/67 23/127/67 21/39/67
f 22/41/20 21/128/20 23/42/20
f 28/26/68 25/28/68 26/22/68
f 7/43/22 6/8/22 5/44/22
f 16/46/23 15/15/23 14/19/23
f 32/38/69 29/40/69 30/32/69
f 33/48/25 35/51/25 36/49/25
f 35/51/26 33/48/26 37/52/26
f 35/54/27 40/129/27 39/55/27
f 36/49/28 39/55/28 38/56/28
f 33/57/29 34/50/29 38/56/29
f 41/59/30 43/62/30 44/60/30
f 43/62/31 41/59/31 45/63/31
f 44/60/32 43/130/32 48/65/32
f 44/60/33 47/66/33 46/67/33
f 42/61/34 46/67/34 45/68/34
f 57/70/70 58/73/70 50/71/70
f 58/73/71 59/76/71 52/74/71
f 60/75/72 51/131/72 52/74/72
f 60/77/73 57/114/73 49/78/73
f 51/80/39 49/132/39 50/71/39
f 62/81/74 54/85/74 53/82/74
f 62/81/75 63/86/75 56/84/75
f 63/86/76 64/133/76 55/87/76
f 64/88/77 61/119/77 53/89/77
f 56/84/44 55/134/44 53/91/44
f 67/92/45 68/96/45 66/93/45
f 67/92/46 71/98/46 72/95/46
f 69/97/47 70/135/47 72/95/47
f 65/99/48 66/136/48 70/100/48
f 65/99/49 69/101/49 71/98/49
f 70/102/50 66/137/50 68/96/50
f 75/103/51 76/107/51 74/104/51
f 79/106/52 80/109/52 76/107/52
f 77/108/53 78/138/53 80/109/53
f 73/110/54 74/139/54 78/111/54
f 73/110/55 77/112/55 79/106/55
f 78/113/56 74/140/56 76/107/56
f 60/77/78 59/76/78 58/73/78
f 37/115/58 38/56/58 39/55/58
f 45/117/59 46/67/59 47/66/59
f 64/88/79 63/86/79 62/81/79
