# Blender v2.79 (sub 0) OBJ File: '3DObjectDecoderObjects.blend'
# www.blender.org
o Cube.003_Cube.001
v -0.534914 0.641826 1.597852
v -0.265057 0.525085 1.875782
v -0.535042 1.014806 1.754641
v -0.265184 0.898065 2.032572
v 0.210160 0.900513 0.983079
v 0.480017 0.783772 1.261009
v 0.479890 1.156751 1.417798
v 0.210032 1.273493 1.139868
v 0.082828 -1.985183 -0.473769
v 0.068490 -1.785208 -0.825198
v 0.487101 -1.971697 -0.482590
v 0.472763 -1.771721 -0.834019
v 0.064648 -1.116509 0.021282
v 0.050310 -0.916533 -0.330147
v 0.454584 -0.903047 -0.338967
v 0.468922 -1.103022 0.012462
v 0.664739 1.230174 0.197929
v 1.017680 1.153115 0.380113
v 0.665258 1.603165 0.354690
v 1.018199 1.526106 0.536874
v 0.037877 -0.099090 0.375239
v 0.025433 0.032647 -0.007107
v 0.442155 -0.085526 0.366755
v 0.429711 0.046211 -0.015592
v 0.175831 0.892763 1.002369
v 0.528555 0.814722 1.186922
v 0.527343 1.181227 1.359322
v 0.182754 1.267657 1.154538
v 0.063139 -1.054410 0.049466
v 0.050183 -0.907614 -0.330255
v 0.454463 -0.894190 -0.338865
v 0.467407 -1.040688 0.040814
v -0.232494 0.696505 0.858303
v -0.502347 0.423928 0.987089
v -0.451820 0.992593 1.025410
v -0.721673 0.720016 1.154196
v -0.743676 0.799436 0.005010
v -1.013529 0.526860 0.133795
v -1.232854 0.822947 0.300902
v -0.963001 1.095524 0.172117
v -0.082386 -1.670753 0.465085
v -0.068752 -1.559568 0.076307
v -0.486727 -1.662758 0.453191
v -0.473092 -1.551573 0.064413
v -0.071477 -0.709456 0.740385
v -0.057842 -0.598271 0.351606
v -0.462182 -0.590276 0.339712
v -0.475817 -0.701461 0.728491
v -0.464558 1.335283 -0.578048
v -0.792393 1.200115 -0.772882
v -0.685144 1.631086 -0.412100
v -1.012978 1.495918 -0.606934
v -0.030296 0.089757 -0.090205
v -0.030594 -0.216885 -0.354151
v -0.434634 0.099373 -0.100920
v -0.434932 -0.207269 -0.364866
v -0.679610 0.740402 0.196470
v -1.009686 0.600873 0.006499
v -1.244471 0.868048 0.205049
v -0.907814 1.041531 0.342759
v -0.068236 -0.605582 0.709656
v -0.065271 -0.836051 0.399710
v -0.469635 -0.827530 0.388982
v -0.472531 -0.595917 0.697604
v 0.313209 0.079915 0.689348
v 0.313209 1.479915 0.689348
v 0.756786 0.079915 -0.023982
v 0.756786 1.479915 -0.023982
v -0.756786 0.079915 0.023982
v -0.756786 1.479915 0.023982
v -0.313209 0.079915 -0.689348
v -0.313209 1.479915 -0.689348
v 0.096532 1.579652 0.413215
v 0.095970 2.179651 0.413725
v 0.412995 1.580381 -0.096541
v 0.412433 2.180381 -0.096031
v -0.413224 1.579443 0.096752
v -0.413786 2.179442 0.097261
v -0.096761 1.580173 -0.413004
v -0.097323 2.180172 -0.412494
vt 0.151712 0.164304
vt 0.128453 0.121671
vt 0.152804 0.123501
vt 0.067175 0.157952
vt 0.127361 0.162474
vt 0.210807 0.209629
vt 0.150620 0.205107
vt 0.212991 0.128023
vt 0.214083 0.087220
vt 0.153896 0.082698
vt 0.120318 0.196104
vt 0.141703 0.159716
vt 0.141869 0.195827
vt 0.194969 0.159030
vt 0.066887 0.160679
vt 0.119987 0.123882
vt 0.120152 0.159993
vt 0.120483 0.232215
vt 0.067052 0.196790
vt 0.893013 0.803206
vt 0.953247 0.844041
vt 0.893013 0.844041
vt 0.953247 0.884875
vt 0.893013 0.884875
vt 0.893013 0.925710
vt 0.868643 0.884875
vt 0.808410 0.844041
vt 0.868643 0.844041
vt 0.977617 0.884875
vt 0.741845 0.545283
vt 0.663028 0.598717
vt 0.663028 0.545283
vt 0.741845 0.652150
vt 0.663028 0.652150
vt 0.741845 0.705584
vt 0.663028 0.705584
vt 0.631139 0.652150
vt 0.552321 0.598717
vt 0.631139 0.598717
vt 0.741845 0.598717
vt 0.773734 0.652150
vt 0.236250 0.170656
vt 0.237342 0.129853
vt 0.045336 0.160957
vt 0.045501 0.197068
vt 0.094887 0.153073
vt 0.114964 0.123128
vt 0.113861 0.154921
vt 0.095990 0.121280
vt 0.047991 0.148506
vt 0.049093 0.116713
vt 0.116067 0.091335
vt 0.161861 0.127695
vt 0.160758 0.159488
vt 0.112759 0.186714
vt 0.159655 0.191281
vt 0.153193 0.158992
vt 0.134495 0.188340
vt 0.135087 0.158002
vt 0.152601 0.189330
vt 0.197943 0.161440
vt 0.197352 0.191779
vt 0.089154 0.216230
vt 0.089745 0.185892
vt 0.090336 0.155553
vt 0.090927 0.125215
vt 0.135678 0.127663
vt 0.893013 0.809899
vt 0.820174 0.859280
vt 0.820174 0.809899
vt 0.893013 0.859280
vt 0.820174 0.908661
vt 0.893013 0.958041
vt 0.893013 0.908661
vt 0.922484 0.908660
vt 0.995323 0.859280
vt 0.995323 0.908660
vt 0.790703 0.908661
vt 0.668850 0.601598
vt 0.627314 0.573439
vt 0.668850 0.573439
vt 0.627314 0.629757
vt 0.627314 0.601598
vt 0.668850 0.629757
vt 0.627314 0.657916
vt 0.685655 0.629757
vt 0.727191 0.601598
vt 0.727191 0.629757
vt 0.610509 0.601598
vt 0.114767 0.168293
vt 0.095916 0.220936
vt 0.095916 0.168293
vt 0.143042 0.220936
vt 0.114767 0.220936
vt 0.161893 0.168293
vt 0.143042 0.168293
vt 0.114767 0.136707
vt 0.143042 0.084063
vt 0.143042 0.136707
vt 0.143042 0.252523
vt 0.679363 0.612195
vt 0.705410 0.568551
vt 0.705410 0.612195
vt 0.653316 0.612195
vt 0.679363 0.568551
vt 0.627270 0.612195
vt 0.653316 0.568551
vt 0.679363 0.655839
vt 0.653316 0.699483
vt 0.653316 0.655839
vt 0.653316 0.524907
vt 0.922484 0.859280
vt 0.179732 0.161336
vt 0.180835 0.129543
vt 0.072230 0.154563
vt 0.071639 0.184901
vt 0.685655 0.601598
vt 0.068267 0.117149
vt 0.211899 0.168826
vt 0.195135 0.195141
vt 0.066721 0.124568
vt 0.067218 0.232901
vt 0.953247 0.803206
vt 0.953247 0.925710
vt 0.808410 0.884875
vt 0.977617 0.844041
vt 0.552321 0.652150
vt 0.773734 0.598717
vt 0.162963 0.095902
vt 0.133904 0.218678
vt 0.820174 0.958041
vt 0.790703 0.859280
vt 0.668850 0.657916
vt 0.610509 0.629757
vt 0.161893 0.220936
vt 0.114767 0.084063
vt 0.114767 0.252523
vt 0.627270 0.568551
vt 0.679363 0.699483
vt 0.679363 0.524907
vn -0.7451 -0.2587 0.6148
vn -0.6670 0.2885 -0.6869
vn -0.0003 0.9219 0.3875
vn 0.6670 -0.2885 0.6869
vn 0.0003 -0.9219 -0.3875
vn 0.0182 -0.8687 -0.4950
vn 0.0354 -0.4943 0.8686
vn 0.9992 0.0333 -0.0218
vn -0.0354 0.4943 -0.8686
vn -0.9992 -0.0333 0.0218
vn -0.0013 -0.9219 -0.3874
vn 0.8759 -0.2030 0.4377
vn 0.0011 0.9220 0.3873
vn -0.8723 0.1976 -0.4472
vn 0.4889 0.3374 -0.8044
vn -0.9992 -0.0336 0.0211
vn -0.0309 0.3242 -0.9455
vn 0.9992 0.0336 -0.0211
vn 0.0312 -0.3219 0.9463
vn -0.0249 0.9449 0.3264
vn -0.5417 -0.3593 0.7599
vn 0.7451 0.2587 -0.6148
vn -0.0182 0.8687 0.4950
vn 0.0233 -0.9324 -0.3606
vn 0.5112 -0.1029 0.8533
vn 0.6670 0.6737 -0.3183
vn -0.5421 0.7318 0.4130
vn -0.6670 -0.6737 0.3183
vn 0.5421 -0.7318 -0.4130
vn -0.0109 -0.9613 -0.2753
vn -0.0337 -0.2748 0.9609
vn -0.9994 0.0198 -0.0294
vn 0.0337 0.2748 -0.9609
vn 0.9994 -0.0198 0.0294
vn 0.5452 -0.7311 -0.4102
vn -0.8101 -0.3335 -0.4823
vn -0.5447 0.7314 0.4103
vn 0.8071 0.3256 0.4924
vn 0.2150 0.5949 -0.7745
vn 0.9994 -0.0235 0.0270
vn -0.0016 -0.7727 -0.6347
vn -0.9994 0.0237 -0.0265
vn 0.0005 0.7542 0.6567
vn 0.0356 0.6519 -0.7574
vn 0.8492 0.0000 0.5281
vn 0.5281 0.0000 -0.8492
vn -0.8492 -0.0000 -0.5281
vn -0.5281 -0.0000 0.8492
vn 0.0000 -1.0000 -0.0000
vn 0.0000 1.0000 0.0000
vn 0.8496 0.0003 0.5274
vn 0.5274 0.0012 -0.8496
vn -0.8496 -0.0003 -0.5274
vn -0.5274 -0.0012 0.8496
vn 0.0009 -1.0000 -0.0008
vn -0.0009 1.0000 0.0008
vn -0.2240 -0.5580 0.7991
vn -0.5112 0.1029 -0.8533
vn 0.0109 0.9613 0.2753
vn -0.0369 -0.8021 0.5961
vn -0.0013 -0.9219 -0.3875
vn 0.8729 -0.1901 0.4494
vn 0.0013 0.9219 0.3875
vn -0.8739 0.1894 -0.4477
vn -0.9992 -0.0335 0.0210
vn -0.0307 0.3241 -0.9455
vn 0.9992 0.0335 -0.0210
vn 0.0307 -0.3221 0.9462
vn -0.4938 -0.3192 0.8089
vn 0.0239 -0.9322 -0.3612
vn 0.5451 -0.7312 -0.4102
vn -0.8020 -0.3397 -0.4913
vn -0.5452 0.7311 0.4102
vn 0.7911 0.3589 0.4953
vn 0.9994 -0.0237 0.0265
vn 0.0006 -0.7722 -0.6354
vn -0.9994 0.0235 -0.0270
vn -0.0015 0.7547 0.6560
vn -0.0143 -0.6045 0.7965
vn -0.0328 -0.7995 0.5997
s off
f 4/1/1 1/2/1 2/3/1
f 8/4/2 1/2/2 3/5/2
f 4/1/3 8/6/3 3/7/3
f 6/8/4 4/1/4 2/3/4
f 5/9/5 2/3/5 1/10/5
f 10/11/6 11/12/6 9/13/6
f 16/14/7 9/13/7 11/12/7
f 15/15/8 11/16/8 12/17/8
f 10/11/9 15/15/9 12/17/9
f 9/18/10 14/19/10 10/11/10
f 25/20/11 18/21/11 26/22/11
f 26/22/12 20/23/12 27/24/12
f 20/23/13 28/25/13 27/24/13
f 28/26/14 17/27/14 25/28/14
f 18/21/15 19/29/15 20/23/15
f 21/30/16 30/31/16 29/32/16
f 30/31/17 24/33/17 31/34/17
f 31/34/18 23/35/18 32/36/18
f 32/37/19 21/38/19 29/39/19
f 22/40/20 23/41/20 24/33/20
f 28/26/21 26/22/21 27/24/21
f 8/42/22 6/8/22 5/43/22
f 16/44/23 14/19/23 13/45/23
f 32/37/24 30/31/24 31/34/24
f 33/46/25 36/47/25 34/48/25
f 35/49/26 37/50/26 40/51/26
f 35/52/27 39/53/27 36/47/27
f 36/47/28 38/54/28 34/48/28
f 33/55/29 38/54/29 37/56/29
f 41/57/30 44/58/30 42/59/30
f 43/60/31 45/61/31 48/62/31
f 44/58/32 48/63/32 47/64/32
f 44/58/33 46/65/33 42/59/33
f 42/59/34 45/66/34 41/67/34
f 57/68/35 50/69/35 49/70/35
f 58/71/36 52/72/36 50/69/36
f 60/73/37 52/72/37 59/74/37
f 60/75/38 49/76/38 51/77/38
f 51/78/39 50/69/39 52/72/39
f 62/79/40 53/80/40 61/81/40
f 62/79/41 56/82/41 54/83/41
f 63/84/42 55/85/42 56/82/42
f 64/86/43 53/87/43 55/88/43
f 56/82/44 53/89/44 54/83/44
f 67/90/45 66/91/45 65/92/45
f 67/90/46 72/93/46 68/94/46
f 69/95/47 72/93/47 71/96/47
f 65/97/48 70/98/48 69/99/48
f 65/97/49 71/96/49 67/90/49
f 70/100/50 68/94/50 72/93/50
f 75/101/51 74/102/51 73/103/51
f 79/104/52 76/105/52 75/101/52
f 77/106/53 80/107/53 79/104/53
f 73/108/54 78/109/54 77/110/54
f 73/108/55 79/104/55 75/101/55
f 78/111/56 76/105/56 80/107/56
f 60/75/57 58/71/57 57/112/57
f 37/113/58 39/53/58 40/114/58
f 45/115/59 47/64/59 48/116/59
f 64/86/60 62/79/60 61/117/60
f 4/1/1 3/5/1 1/2/1
f 8/4/2 5/118/2 1/2/2
f 4/1/3 7/119/3 8/6/3
f 6/8/4 7/119/4 4/1/4
f 5/9/5 6/8/5 2/3/5
f 10/11/6 12/17/6 11/12/6
f 16/14/7 13/120/7 9/13/7
f 15/15/8 16/121/8 11/16/8
f 10/11/9 14/19/9 15/15/9
f 9/18/10 13/122/10 14/19/10
f 25/20/61 17/123/61 18/21/61
f 26/22/62 18/21/62 20/23/62
f 20/23/63 19/124/63 28/25/63
f 28/26/64 19/125/64 17/27/64
f 18/21/15 17/126/15 19/29/15
f 21/30/65 22/40/65 30/31/65
f 30/31/66 22/40/66 24/33/66
f 31/34/67 24/33/67 23/35/67
f 32/37/68 23/127/68 21/38/68
f 22/40/20 21/128/20 23/41/20
f 28/26/69 25/28/69 26/22/69
f 8/42/22 7/119/22 6/8/22
f 16/44/23 15/15/23 14/19/23
f 32/37/70 29/39/70 30/31/70
f 33/46/25 35/49/25 36/47/25
f 35/49/26 33/46/26 37/50/26
f 35/52/27 40/129/27 39/53/27
f 36/47/28 39/53/28 38/54/28
f 33/55/29 34/48/29 38/54/29
f 41/57/30 43/60/30 44/58/30
f 43/60/31 41/57/31 45/61/31
f 44/58/32 43/130/32 48/63/32
f 44/58/33 47/64/33 46/65/33
f 42/59/34 46/65/34 45/66/34
f 57/68/71 58/71/71 50/69/71
f 58/71/72 59/74/72 52/72/72
f 60/73/73 51/131/73 52/72/73
f 60/75/74 57/112/74 49/76/74
f 51/78/39 49/132/39 50/69/39
f 62/79/75 54/83/75 53/80/75
f 62/79/76 63/84/76 56/82/76
f 63/84/77 64/133/77 55/85/77
f 64/86/78 61/117/78 53/87/78
f 56/82/44 55/134/44 53/89/44
f 67/90/45 68/94/45 66/91/45
f 67/90/46 71/96/46 72/93/46
f 69/95/47 70/135/47 72/93/47
f 65/97/48 66/136/48 70/98/48
f 65/97/49 69/99/49 71/96/49
f 70/100/50 66/137/50 68/94/50
f 75/101/51 76/105/51 74/102/51
f 79/104/52 80/107/52 76/105/52
f 77/106/53 78/138/53 80/107/53
f 73/108/54 74/139/54 78/109/54
f 73/108/55 77/110/55 79/104/55
f 78/111/56 74/140/56 76/105/56
f 60/75/79 59/74/79 58/71/79
f 37/113/58 38/54/58 39/53/58
f 45/115/59 46/65/59 47/64/59
f 64/86/80 63/84/80 62/79/80
