# Blender v2.79 (sub 0) OBJ File: '3DObjectDecoderObjects.blend'
# www.blender.org
o Cube.003_Cube.001
v -0.518105 0.728838 1.604031
v -0.268281 0.640172 1.909683
v -0.529436 1.114689 1.725224
v -0.279613 1.026022 2.030876
v 0.267993 0.934952 1.021308
v 0.517817 0.846286 1.326960
v 0.506486 1.232136 1.448152
v 0.256662 1.320802 1.142500
v 0.082843 -2.000931 -0.186593
v 0.068383 -1.796592 -0.535497
v 0.487141 -1.988823 -0.196258
v 0.472680 -1.784484 -0.545163
v 0.069099 -1.138356 0.319151
v 0.054639 -0.934017 -0.029753
v 0.458936 -0.921908 -0.039419
v 0.473397 -1.126247 0.309486
v 0.661534 1.199683 0.213439
v 1.022380 1.153852 0.390602
v 0.651055 1.585565 0.334609
v 1.011901 1.539733 0.511772
v 0.035517 -0.029823 0.352277
v 0.026534 -0.023539 -0.052171
v 0.439824 -0.017365 0.343489
v 0.430841 -0.011081 -0.060959
v 0.209983 0.921240 1.061124
v 0.570504 0.874403 1.241513
v 0.557494 1.253640 1.383964
v 0.208017 1.309247 1.176193
v 0.067072 -1.057222 0.342043
v 0.056661 -1.008975 -0.061541
v 0.460976 -0.996951 -0.070610
v 0.471354 -1.044407 0.332735
v -0.331613 0.642050 0.825679
v -0.654249 0.565265 1.057441
v -0.324710 1.023093 0.961529
v -0.647347 0.946308 1.193291
v -0.934798 0.919573 0.077910
v -1.257435 0.842788 0.309672
v -1.250532 1.223831 0.445522
v -0.927895 1.300616 0.213759
v -0.081873 -2.002048 0.315912
v -0.069339 -1.981338 -0.087958
v -0.486220 -1.994848 0.303732
v -0.473685 -1.974138 -0.100138
v -0.065652 -1.003516 0.367619
v -0.053118 -0.982806 -0.036251
v -0.457464 -0.975607 -0.048431
v -0.469999 -0.996317 0.355439
v -0.542630 1.159962 -0.615782
v -0.926279 1.207577 -0.735163
v -0.537284 1.541354 -0.480845
v -0.920934 1.588969 -0.600227
v -0.035587 0.035943 0.016711
v -0.027078 -0.096769 -0.365405
v -0.439939 0.043649 0.005030
v -0.431430 -0.089063 -0.377085
v -0.860035 0.847622 0.279599
v -1.246725 0.893083 0.166512
v -1.260723 1.260110 0.343383
v -0.863605 1.236197 0.394545
v -0.063835 -0.926034 0.356733
v -0.054299 -1.029546 -0.037512
v -0.458657 -1.022223 -0.049255
v -0.468170 -0.918239 0.344586
v 0.313209 0.079915 0.689348
v 0.313209 1.479915 0.689348
v 0.756786 0.079915 -0.023982
v 0.756786 1.479915 -0.023982
v -0.756786 0.079915 0.023982
v -0.756786 1.479915 0.023982
v -0.313209 0.079915 -0.689348
v -0.313209 1.479915 -0.689348
v 0.096532 1.579652 0.413215
v 0.095970 2.179651 0.413725
v 0.412995 1.580381 -0.096541
v 0.412433 2.180381 -0.096031
v -0.413224 1.579443 0.096752
v -0.413786 2.179442 0.097261
v -0.096761 1.580173 -0.413004
v -0.097323 2.180172 -0.412494
vt 0.151712 0.164304
vt 0.128453 0.121671
vt 0.152804 0.123501
vt 0.067175 0.157952
vt 0.127361 0.162474
vt 0.211899 0.168826
vt 0.150620 0.205107
vt 0.212991 0.128023
vt 0.153896 0.082698
vt 0.120318 0.196104
vt 0.141703 0.159716
vt 0.141869 0.195827
vt 0.194969 0.159030
vt 0.066887 0.160679
vt 0.119987 0.123882
vt 0.120152 0.159993
vt 0.067218 0.232901
vt 0.120483 0.232215
vt 0.893013 0.803206
vt 0.953247 0.844041
vt 0.893013 0.844041
vt 0.953247 0.884875
vt 0.893013 0.884875
vt 0.893013 0.925710
vt 0.868643 0.884875
vt 0.808410 0.844041
vt 0.868643 0.844041
vt 0.977617 0.844041
vt 0.977617 0.884875
vt 0.741845 0.545283
vt 0.663028 0.598717
vt 0.663028 0.545283
vt 0.741845 0.652150
vt 0.663028 0.652150
vt 0.741845 0.705584
vt 0.663028 0.705584
vt 0.631139 0.652150
vt 0.552321 0.598717
vt 0.631139 0.598717
vt 0.741845 0.598717
vt 0.773734 0.652150
vt 0.237342 0.129853
vt 0.236250 0.170656
vt 0.045336 0.160957
vt 0.067052 0.196790
vt 0.045501 0.197068
vt 0.094887 0.153073
vt 0.114964 0.123128
vt 0.113861 0.154921
vt 0.095990 0.121280
vt 0.047991 0.148506
vt 0.049093 0.116713
vt 0.116067 0.091335
vt 0.161861 0.127695
vt 0.160758 0.159488
vt 0.112759 0.186714
vt 0.159655 0.191281
vt 0.153193 0.158992
vt 0.134495 0.188340
vt 0.135087 0.158002
vt 0.197352 0.191779
vt 0.152601 0.189330
vt 0.089154 0.216230
vt 0.089745 0.185892
vt 0.090336 0.155553
vt 0.135678 0.127663
vt 0.090927 0.125215
vt 0.893013 0.809899
vt 0.820174 0.859280
vt 0.820174 0.809899
vt 0.893013 0.859280
vt 0.820174 0.908661
vt 0.893013 0.958041
vt 0.893013 0.908661
vt 0.922484 0.908660
vt 0.995323 0.859280
vt 0.995323 0.908660
vt 0.790703 0.859280
vt 0.668850 0.601598
vt 0.627314 0.573439
vt 0.668850 0.573439
vt 0.627314 0.629757
vt 0.627314 0.601598
vt 0.668850 0.629757
vt 0.627314 0.657916
vt 0.685655 0.629757
vt 0.727191 0.601598
vt 0.727191 0.629757
vt 0.610509 0.601598
vt 0.114767 0.168293
vt 0.095916 0.220936
vt 0.095916 0.168293
vt 0.143042 0.220936
vt 0.114767 0.220936
vt 0.161893 0.168293
vt 0.143042 0.168293
vt 0.114767 0.136707
vt 0.143042 0.084063
vt 0.143042 0.136707
vt 0.143042 0.252523
vt 0.679363 0.612195
vt 0.705410 0.568551
vt 0.705410 0.612195
vt 0.653316 0.612195
vt 0.679363 0.568551
vt 0.627270 0.612195
vt 0.653316 0.568551
vt 0.679363 0.655839
vt 0.653316 0.699483
vt 0.653316 0.655839
vt 0.653316 0.524907
vt 0.922484 0.859280
vt 0.179732 0.161336
vt 0.180835 0.129543
vt 0.072230 0.154563
vt 0.071639 0.184901
vt 0.685655 0.601598
vt 0.068267 0.117149
vt 0.210807 0.209629
vt 0.214083 0.087220
vt 0.195135 0.195141
vt 0.066721 0.124568
vt 0.953247 0.803206
vt 0.953247 0.925710
vt 0.808410 0.884875
vt 0.552321 0.652150
vt 0.773734 0.598717
vt 0.162963 0.095902
vt 0.197943 0.161440
vt 0.133904 0.218678
vt 0.820174 0.958041
vt 0.790703 0.908661
vt 0.668850 0.657916
vt 0.610509 0.629757
vt 0.161893 0.220936
vt 0.114767 0.084063
vt 0.114767 0.252523
vt 0.627270 0.568551
vt 0.679363 0.699483
vt 0.679363 0.524907
vn -0.7861 -0.2061 0.5827
vn -0.6175 0.2191 -0.7555
vn -0.0280 0.9537 0.2995
vn 0.6175 -0.2191 0.7555
vn 0.0280 -0.9537 -0.2995
vn 0.0137 -0.8626 -0.5057
vn 0.0357 -0.5050 0.8624
vn 0.9993 0.0299 -0.0239
vn -0.0357 0.5050 -0.8624
vn -0.9993 -0.0299 0.0239
vn 0.0259 -0.9538 -0.2995
vn 0.8962 -0.1288 0.4247
vn -0.0261 0.9538 0.2992
vn -0.8921 0.1243 -0.4344
vn 0.4516 0.2784 -0.8477
vn -0.9993 -0.0309 0.0221
vn -0.0227 0.0091 -0.9997
vn 0.9993 0.0309 -0.0221
vn 0.0233 -0.0092 0.9997
vn -0.0304 0.9994 0.0162
vn -0.5215 -0.3157 0.7927
vn 0.7861 0.2061 -0.5827
vn -0.0137 0.8626 0.5057
vn 0.0269 -0.9927 -0.1175
vn 0.6032 -0.2775 0.7478
vn 0.7974 0.1898 -0.5728
vn 0.0171 0.9418 0.3358
vn -0.7974 -0.1898 0.5728
vn -0.0171 -0.9418 -0.3358
vn -0.0162 -0.9985 -0.0517
vn -0.0310 -0.0512 0.9982
vn -0.9994 0.0178 -0.0301
vn 0.0310 0.0512 -0.9982
vn 0.9994 -0.0178 0.0301
vn -0.0132 -0.9427 -0.3335
vn -0.9480 0.1179 -0.2958
vn 0.0138 0.9427 0.3335
vn 0.9432 -0.1225 0.3089
vn 0.3174 0.3123 -0.8954
vn 0.9994 -0.0190 0.0292
vn 0.0209 -0.3321 -0.9430
vn -0.9994 0.0190 -0.0289
vn -0.0209 0.3333 0.9426
vn 0.0275 0.9445 -0.3274
vn 0.8492 0.0000 0.5281
vn 0.5281 0.0000 -0.8492
vn -0.8492 -0.0000 -0.5281
vn -0.5281 -0.0000 0.8492
vn 0.0000 -1.0000 -0.0000
vn 0.0000 1.0000 0.0000
vn 0.8496 0.0003 0.5274
vn 0.5274 0.0012 -0.8496
vn -0.8496 -0.0003 -0.5274
vn -0.5274 -0.0012 0.8496
vn 0.0009 -1.0000 -0.0008
vn -0.0009 1.0000 0.0008
vn -0.2995 -0.2732 0.9142
vn -0.6032 0.2775 -0.7478
vn 0.0162 0.9985 0.0517
vn -0.0263 -0.9670 0.2533
vn 0.0259 -0.9537 -0.2995
vn 0.8924 -0.1129 0.4368
vn -0.0259 0.9537 0.2995
vn -0.8940 0.1120 -0.4339
vn -0.9993 -0.0308 0.0217
vn -0.0220 0.0088 -0.9997
vn 0.9993 0.0308 -0.0217
vn 0.0220 -0.0098 0.9997
vn -0.4590 -0.2547 0.8511
vn 0.0287 -0.9924 -0.1194
vn -0.0133 -0.9427 -0.3335
vn -0.9468 0.1098 -0.3027
vn 0.0132 0.9426 0.3335
vn 0.9480 -0.0822 0.3074
vn 0.9994 -0.0190 0.0289
vn 0.0214 -0.3319 -0.9431
vn -0.9994 0.0190 -0.0292
vn -0.0219 0.3337 0.9424
vn -0.1408 -0.4342 0.8898
vn -0.0249 -0.9667 0.2546
s off
f 4/1/1 1/2/1 2/3/1
f 8/4/2 1/2/2 3/5/2
f 7/6/3 3/7/3 4/1/3
f 6/8/4 4/1/4 2/3/4
f 1/9/5 6/8/5 2/3/5
f 10/10/6 11/11/6 9/12/6
f 16/13/7 9/12/7 11/11/7
f 15/14/8 11/15/8 12/16/8
f 10/10/9 15/14/9 12/16/9
f 13/17/10 10/10/10 9/18/10
f 25/19/11 18/20/11 26/21/11
f 26/21/12 20/22/12 27/23/12
f 20/22/13 28/24/13 27/23/13
f 28/25/14 17/26/14 25/27/14
f 20/22/15 17/28/15 19/29/15
f 21/30/16 30/31/16 29/32/16
f 30/31/17 24/33/17 31/34/17
f 31/34/18 23/35/18 32/36/18
f 32/37/19 21/38/19 29/39/19
f 22/40/20 23/41/20 24/33/20
f 28/25/21 26/21/21 27/23/21
f 7/6/22 5/42/22 8/43/22
f 16/44/23 14/45/23 13/46/23
f 32/37/24 30/31/24 31/34/24
f 33/47/25 36/48/25 34/49/25
f 35/50/26 37/51/26 40/52/26
f 35/53/27 39/54/27 36/48/27
f 36/48/28 38/55/28 34/49/28
f 33/56/29 38/55/29 37/57/29
f 41/58/30 44/59/30 42/60/30
f 41/58/31 48/61/31 43/62/31
f 44/59/32 48/63/32 47/64/32
f 44/59/33 46/65/33 42/60/33
f 41/66/34 46/65/34 45/67/34
f 57/68/35 50/69/35 49/70/35
f 58/71/36 52/72/36 50/69/36
f 60/73/37 52/72/37 59/74/37
f 60/75/38 49/76/38 51/77/38
f 52/72/39 49/78/39 50/69/39
f 62/79/40 53/80/40 61/81/40
f 62/79/41 56/82/41 54/83/41
f 63/84/42 55/85/42 56/82/42
f 64/86/43 53/87/43 55/88/43
f 56/82/44 53/89/44 54/83/44
f 67/90/45 66/91/45 65/92/45
f 67/90/46 72/93/46 68/94/46
f 69/95/47 72/93/47 71/96/47
f 65/97/48 70/98/48 69/99/48
f 65/97/49 71/96/49 67/90/49
f 70/100/50 68/94/50 72/93/50
f 75/101/51 74/102/51 73/103/51
f 79/104/52 76/105/52 75/101/52
f 77/106/53 80/107/53 79/104/53
f 73/108/54 78/109/54 77/110/54
f 73/108/55 79/104/55 75/101/55
f 78/111/56 76/105/56 80/107/56
f 60/75/57 58/71/57 57/112/57
f 37/113/58 39/54/58 40/114/58
f 45/115/59 47/64/59 48/116/59
f 64/86/60 62/79/60 61/117/60
f 4/1/1 3/5/1 1/2/1
f 8/4/2 5/118/2 1/2/2
f 7/6/3 8/119/3 3/7/3
f 6/8/4 7/6/4 4/1/4
f 1/9/5 5/120/5 6/8/5
f 10/10/6 12/16/6 11/11/6
f 16/13/7 13/121/7 9/12/7
f 15/14/8 16/122/8 11/15/8
f 10/10/9 14/45/9 15/14/9
f 13/17/10 14/45/10 10/10/10
f 25/19/61 17/123/61 18/20/61
f 26/21/62 18/20/62 20/22/62
f 20/22/63 19/124/63 28/24/63
f 28/25/64 19/125/64 17/26/64
f 20/22/15 18/20/15 17/28/15
f 21/30/65 22/40/65 30/31/65
f 30/31/66 22/40/66 24/33/66
f 31/34/67 24/33/67 23/35/67
f 32/37/68 23/126/68 21/38/68
f 22/40/20 21/127/20 23/41/20
f 28/25/69 25/27/69 26/21/69
f 7/6/22 6/8/22 5/42/22
f 16/44/23 15/14/23 14/45/23
f 32/37/70 29/39/70 30/31/70
f 33/47/25 35/50/25 36/48/25
f 35/50/26 33/47/26 37/51/26
f 35/53/27 40/128/27 39/54/27
f 36/48/28 39/54/28 38/55/28
f 33/56/29 34/49/29 38/55/29
f 41/58/30 43/62/30 44/59/30
f 41/58/31 45/129/31 48/61/31
f 44/59/32 43/130/32 48/63/32
f 44/59/33 47/64/33 46/65/33
f 41/66/34 42/60/34 46/65/34
f 57/68/71 58/71/71 50/69/71
f 58/71/72 59/74/72 52/72/72
f 60/73/73 51/131/73 52/72/73
f 60/75/74 57/112/74 49/76/74
f 52/72/39 51/132/39 49/78/39
f 62/79/75 54/83/75 53/80/75
f 62/79/76 63/84/76 56/82/76
f 63/84/77 64/133/77 55/85/77
f 64/86/78 61/117/78 53/87/78
f 56/82/44 55/134/44 53/89/44
f 67/90/45 68/94/45 66/91/45
f 67/90/46 71/96/46 72/93/46
f 69/95/47 70/135/47 72/93/47
f 65/97/48 66/136/48 70/98/48
f 65/97/49 69/99/49 71/96/49
f 70/100/50 66/137/50 68/94/50
f 75/101/51 76/105/51 74/102/51
f 79/104/52 80/107/52 76/105/52
f 77/106/53 78/138/53 80/107/53
f 73/108/54 74/139/54 78/109/54
f 73/108/55 77/110/55 79/104/55
f 78/111/56 74/140/56 76/105/56
f 60/75/79 59/74/79 58/71/79
f 37/113/58 38/55/58 39/54/58
f 45/115/59 46/65/59 47/64/59
f 64/86/80 63/84/80 62/79/80
