# Blender v2.79 (sub 0) OBJ File: '3DObjectDecoderObjects.blend'
# www.blender.org
o Cube.005_Cube.008
v 0.658515 -0.573635 0.248464
v 0.661079 -0.580430 -0.156066
v 1.063023 -0.581534 0.251160
v 1.065587 -0.588329 -0.153370
v 0.678148 0.426033 0.231796
v 0.680711 0.419238 -0.172734
v 1.085219 0.411339 -0.170038
v 1.082656 0.418134 0.234492
v 0.078733 -2.083459 -0.153610
v 0.072037 -2.013884 -0.552123
v 0.483271 -2.082225 -0.160192
v 0.476576 -2.012650 -0.558706
v 0.078527 -1.098361 0.018382
v 0.071831 -1.028786 -0.380131
v 0.476370 -1.027552 -0.386713
v 0.483065 -1.097127 0.011800
v 0.699217 1.490771 0.196205
v 0.701673 1.477264 -0.208157
v 1.103725 1.482851 0.198926
v 1.106181 1.469343 -0.205436
v 0.078771 -0.062427 0.223009
v 0.072043 0.015984 -0.173859
v 0.483309 -0.061212 0.216390
v 0.476581 0.017200 -0.180479
v 0.679428 0.491520 0.229463
v 0.681885 0.478122 -0.174829
v 1.086400 0.470936 -0.171659
v 1.083928 0.483204 0.232290
v 0.078531 -1.042268 0.028813
v 0.071818 -0.965686 -0.367930
v 0.476357 -0.964451 -0.374538
v 0.483070 -1.041066 0.022218
v -0.698594 -0.554723 0.198705
v -0.702882 -0.577983 -0.205210
v -1.103166 -0.554147 0.202966
v -1.107453 -0.577406 -0.200949
v -0.697778 0.443624 0.141186
v -0.702065 0.420364 -0.262730
v -1.106636 0.420941 -0.258469
v -1.102349 0.444200 0.145446
v -0.079912 -1.698652 0.440776
v -0.070721 -1.540012 0.068693
v -0.484359 -1.700427 0.430029
v -0.475169 -1.541787 0.057946
v -0.094360 -0.778738 0.832630
v -0.085169 -0.620098 0.460547
v -0.489617 -0.621873 0.449800
v -0.498807 -0.780513 0.821883
v -0.695367 1.466732 0.208174
v -0.699399 1.491796 -0.195636
v -1.099940 1.467464 0.212258
v -1.103972 1.492528 -0.191552
v -0.077077 0.089927 0.071168
v -0.070248 -0.194273 -0.216721
v -0.481563 0.089693 0.061805
v -0.474734 -0.194507 -0.226085
v -0.697799 0.468652 0.146256
v -0.701842 0.492941 -0.258077
v -1.106488 0.488482 -0.257365
v -1.102366 0.472255 0.149660
v -0.094006 -0.670955 0.812445
v -0.086085 -0.871950 0.485318
v -0.490568 -0.873308 0.475826
v -0.498454 -0.670997 0.801711
v 0.630000 0.079915 0.420000
v 0.630000 1.479915 0.420000
v 0.630000 0.079915 -0.420000
v 0.630000 1.479915 -0.420000
v -0.630000 0.079915 0.420000
v -0.630000 1.479915 0.420000
v -0.630000 0.079915 -0.420000
v -0.630000 1.479915 -0.420000
v 0.300181 1.579652 0.299927
v 0.299973 2.179651 0.300657
v 0.299736 1.580381 -0.300072
v 0.299528 2.180381 -0.299342
v -0.299819 1.579443 0.300372
v -0.300027 2.179442 0.301102
v -0.300264 1.580173 -0.299627
v -0.300472 2.180172 -0.298898
vt 0.151712 0.164304
vt 0.128453 0.121671
vt 0.152804 0.123501
vt 0.067175 0.157952
vt 0.127361 0.162474
vt 0.210807 0.209629
vt 0.150620 0.205107
vt 0.212991 0.128023
vt 0.214083 0.087220
vt 0.153896 0.082698
vt 0.120318 0.196104
vt 0.141703 0.159716
vt 0.141869 0.195827
vt 0.194969 0.159030
vt 0.066887 0.160679
vt 0.119987 0.123882
vt 0.120152 0.159993
vt 0.067052 0.196790
vt 0.120483 0.232215
vt 0.953247 0.803206
vt 0.893013 0.844041
vt 0.893013 0.803206
vt 0.953247 0.844041
vt 0.893013 0.884875
vt 0.953247 0.925710
vt 0.893013 0.925710
vt 0.808410 0.884875
vt 0.868643 0.844041
vt 0.868643 0.884875
vt 0.953247 0.884875
vt 0.977617 0.844041
vt 0.977617 0.884875
vt 0.663028 0.545283
vt 0.741845 0.598717
vt 0.663028 0.598717
vt 0.663028 0.652150
vt 0.741845 0.652150
vt 0.663028 0.705584
vt 0.552321 0.652150
vt 0.631139 0.598717
vt 0.631139 0.652150
vt 0.773734 0.652150
vt 0.211899 0.168826
vt 0.237342 0.129853
vt 0.236250 0.170656
vt 0.045336 0.160957
vt 0.045501 0.197068
vt 0.113861 0.154921
vt 0.095990 0.121280
vt 0.114964 0.123128
vt 0.094887 0.153073
vt 0.049093 0.116713
vt 0.162963 0.095902
vt 0.161861 0.127695
vt 0.160758 0.159488
vt 0.159655 0.191281
vt 0.112759 0.186714
vt 0.153193 0.158992
vt 0.134495 0.188340
vt 0.135087 0.158002
vt 0.197352 0.191779
vt 0.152601 0.189330
vt 0.089154 0.216230
vt 0.089745 0.185892
vt 0.090336 0.155553
vt 0.090927 0.125215
vt 0.135678 0.127663
vt 0.893013 0.809899
vt 0.820174 0.859280
vt 0.820174 0.809899
vt 0.893013 0.859280
vt 0.820174 0.908661
vt 0.893013 0.958041
vt 0.893013 0.908661
vt 0.922484 0.908660
vt 0.995323 0.859280
vt 0.995323 0.908660
vt 0.790703 0.908661
vt 0.668850 0.601598
vt 0.627314 0.573439
vt 0.668850 0.573439
vt 0.627314 0.629757
vt 0.627314 0.601598
vt 0.668850 0.629757
vt 0.627314 0.657916
vt 0.685655 0.629757
vt 0.727191 0.601598
vt 0.727191 0.629757
vt 0.610509 0.629757
vt 0.114767 0.168293
vt 0.095916 0.220936
vt 0.095916 0.168293
vt 0.143042 0.168293
vt 0.114767 0.220936
vt 0.161893 0.168293
vt 0.143042 0.220936
vt 0.114767 0.136707
vt 0.143042 0.084063
vt 0.143042 0.136707
vt 0.143042 0.252523
vt 0.705410 0.612195
vt 0.679363 0.568551
vt 0.705410 0.568551
vt 0.679363 0.612195
vt 0.653316 0.568551
vt 0.627270 0.612195
vt 0.653316 0.612195
vt 0.679363 0.655839
vt 0.653316 0.699483
vt 0.653316 0.655839
vt 0.653316 0.524907
vt 0.922484 0.859280
vt 0.180835 0.129543
vt 0.072230 0.154563
vt 0.071639 0.184901
vt 0.685655 0.601598
vt 0.068267 0.117149
vt 0.195135 0.195141
vt 0.066721 0.124568
vt 0.067218 0.232901
vt 0.808410 0.844041
vt 0.741845 0.545283
vt 0.741845 0.705584
vt 0.552321 0.598717
vt 0.773734 0.598717
vt 0.047991 0.148506
vt 0.116067 0.091335
vt 0.197943 0.161440
vt 0.133904 0.218678
vt 0.820174 0.958041
vt 0.790703 0.859280
vt 0.668850 0.657916
vt 0.610509 0.601598
vt 0.161893 0.220936
vt 0.114767 0.084063
vt 0.114767 0.252523
vt 0.627270 0.568551
vt 0.679363 0.699483
vt 0.679363 0.524907
vt 0.179732 0.161336
vn -0.0196 -0.9997 0.0167
vn -0.0063 0.0168 0.9998
vn 0.9998 -0.0195 0.0067
vn 0.0063 -0.0168 -0.9998
vn -0.9998 0.0195 -0.0067
vn 0.0002 -0.9851 -0.1720
vn 0.0166 -0.1720 0.9850
vn 0.9999 0.0030 -0.0163
vn -0.0166 0.1720 -0.9850
vn -0.9999 -0.0030 0.0163
vn -0.9998 0.0196 -0.0067
vn 0.0072 -0.0335 -0.9994
vn 0.9998 -0.0196 0.0067
vn -0.0063 0.0335 0.9994
vn 0.0198 0.9993 -0.0333
vn -0.0166 0.1939 -0.9809
vn 0.0166 -0.1944 0.9808
vn 0.0002 0.9810 0.1938
vn -0.0208 -0.9993 0.0302
vn 0.0196 0.9997 -0.0167
vn -0.0002 0.9851 0.1720
vn -0.0002 -0.9819 -0.1896
vn -0.0008 -0.9983 0.0575
vn 0.0106 0.0575 0.9983
vn -0.9999 0.0014 0.0105
vn -0.0106 -0.0575 -0.9983
vn 0.9999 -0.0014 -0.0105
vn 0.0144 -0.9199 -0.3919
vn -0.0227 -0.3921 0.9196
vn -0.9996 -0.0044 -0.0266
vn 0.0227 0.3921 -0.9196
vn 0.9996 0.0044 0.0266
vn 0.9999 -0.0018 -0.0101
vn -0.0100 0.0624 -0.9980
vn -0.9999 0.0018 0.0102
vn 0.0100 -0.0628 0.9980
vn 0.0024 0.9981 0.0619
vn 0.9997 0.0008 0.0237
vn 0.0165 -0.7196 -0.6942
vn -0.9997 -0.0006 -0.0231
vn -0.0170 0.6973 0.7165
vn 0.0158 0.7118 -0.7023
vn 1.0000 0.0000 0.0000
vn 0.0000 0.0000 -1.0000
vn -1.0000 0.0000 0.0000
vn 0.0000 0.0000 1.0000
vn 0.0000 -1.0000 0.0000
vn 0.0000 1.0000 0.0000
vn 1.0000 0.0003 -0.0007
vn -0.0007 0.0012 -1.0000
vn -1.0000 -0.0003 0.0007
vn 0.0007 -0.0012 1.0000
vn 0.0003 -1.0000 -0.0012
vn -0.0003 1.0000 0.0012
vn -0.0094 -0.9982 -0.0599
vn 0.0008 0.9983 -0.0575
vn -0.0144 0.9199 0.3919
vn -0.0138 -0.8521 0.5232
vn 0.0061 -0.0339 -0.9994
vn -0.0061 0.0334 0.9994
vn -0.9999 -0.0030 0.0164
vn 0.9999 0.0030 -0.0164
vn -0.0180 -0.9993 0.0330
vn -0.0001 -0.9819 -0.1895
vn -0.0025 0.0654 -0.9979
vn -0.9999 0.0018 0.0101
vn 0.0078 -0.0619 0.9980
vn 0.9997 0.0006 0.0231
vn 0.0187 -0.7189 -0.6948
vn -0.9997 -0.0008 -0.0237
vn -0.0191 0.6979 0.7159
vn 0.0109 -0.9991 -0.0399
vn -0.0095 -0.8497 0.5272
s off
f 4/1/1 1/2/1 2/3/1
f 8/4/2 1/2/2 3/5/2
f 4/1/3 8/6/3 3/7/3
f 6/8/4 4/1/4 2/3/4
f 5/9/5 2/3/5 1/10/5
f 10/11/6 11/12/6 9/13/6
f 16/14/7 9/13/7 11/12/7
f 15/15/8 11/16/8 12/17/8
f 14/18/9 12/17/9 10/11/9
f 9/19/10 14/18/10 10/11/10
f 17/20/11 26/21/11 25/22/11
f 18/23/12 27/24/12 26/21/12
f 27/24/13 19/25/13 28/26/13
f 19/27/14 25/28/14 28/29/14
f 20/30/15 17/31/15 19/32/15
f 29/33/10 22/34/10 30/35/10
f 22/34/16 31/36/16 30/35/16
f 24/37/8 32/38/8 31/36/8
f 23/39/17 29/40/17 32/41/17
f 22/34/18 23/42/18 24/37/18
f 25/28/19 27/24/19 28/29/19
f 7/43/20 5/44/20 8/45/20
f 16/46/21 14/18/21 13/47/21
f 29/40/22 31/36/22 32/41/22
f 34/48/23 35/49/23 36/50/23
f 33/51/24 40/52/24 35/49/24
f 36/50/25 40/53/25 39/54/25
f 36/50/26 38/55/26 34/48/26
f 34/48/27 37/56/27 33/57/27
f 41/58/28 44/59/28 42/60/28
f 41/58/29 48/61/29 43/62/29
f 44/59/30 48/63/30 47/64/30
f 44/59/31 46/65/31 42/60/31
f 42/60/32 45/66/32 41/67/32
f 57/68/33 50/69/33 49/70/33
f 58/71/34 52/72/34 50/69/34
f 60/73/35 52/72/35 59/74/35
f 60/75/36 49/76/36 51/77/36
f 51/78/37 50/69/37 52/72/37
f 62/79/38 53/80/38 61/81/38
f 62/79/39 56/82/39 54/83/39
f 63/84/40 55/85/40 56/82/40
f 64/86/41 53/87/41 55/88/41
f 55/89/42 54/83/42 56/82/42
f 67/90/43 66/91/43 65/92/43
f 71/93/44 68/94/44 67/90/44
f 69/95/45 72/96/45 71/93/45
f 65/97/46 70/98/46 69/99/46
f 65/97/47 71/93/47 67/90/47
f 70/100/48 68/94/48 72/96/48
f 73/101/49 76/102/49 74/103/49
f 75/104/50 80/105/50 76/102/50
f 77/106/51 80/105/51 79/107/51
f 73/108/52 78/109/52 77/110/52
f 73/108/53 79/107/53 75/104/53
f 78/111/54 76/102/54 80/105/54
f 60/75/55 58/71/55 57/112/55
f 40/113/56 38/55/56 39/54/56
f 45/114/57 47/64/57 48/115/57
f 64/86/58 62/79/58 61/116/58
f 4/1/1 3/5/1 1/2/1
f 8/4/2 5/117/2 1/2/2
f 4/1/3 7/43/3 8/6/3
f 6/8/4 7/43/4 4/1/4
f 5/9/5 6/8/5 2/3/5
f 10/11/6 12/17/6 11/12/6
f 16/14/7 13/118/7 9/13/7
f 15/15/8 16/119/8 11/16/8
f 14/18/9 15/15/9 12/17/9
f 9/19/10 13/120/10 14/18/10
f 17/20/11 18/23/11 26/21/11
f 18/23/59 20/30/59 27/24/59
f 27/24/13 20/30/13 19/25/13
f 19/27/60 17/121/60 25/28/60
f 20/30/15 18/23/15 17/31/15
f 29/33/61 21/122/61 22/34/61
f 22/34/16 24/37/16 31/36/16
f 24/37/62 23/123/62 32/38/62
f 23/39/17 21/124/17 29/40/17
f 22/34/18 21/125/18 23/42/18
f 25/28/63 26/21/63 27/24/63
f 7/43/20 6/8/20 5/44/20
f 16/46/21 15/15/21 14/18/21
f 29/40/64 30/35/64 31/36/64
f 34/48/23 33/51/23 35/49/23
f 33/51/24 37/126/24 40/52/24
f 36/50/25 35/127/25 40/53/25
f 36/50/26 39/54/26 38/55/26
f 34/48/27 38/55/27 37/56/27
f 41/58/28 43/62/28 44/59/28
f 41/58/29 45/128/29 48/61/29
f 44/59/30 43/129/30 48/63/30
f 44/59/31 47/64/31 46/65/31
f 42/60/32 46/65/32 45/66/32
f 57/68/33 58/71/33 50/69/33
f 58/71/65 59/74/65 52/72/65
f 60/73/66 51/130/66 52/72/66
f 60/75/67 57/112/67 49/76/67
f 51/78/37 49/131/37 50/69/37
f 62/79/68 54/83/68 53/80/68
f 62/79/69 63/84/69 56/82/69
f 63/84/70 64/132/70 55/85/70
f 64/86/71 61/116/71 53/87/71
f 55/89/42 53/133/42 54/83/42
f 67/90/43 68/94/43 66/91/43
f 71/93/44 72/96/44 68/94/44
f 69/95/45 70/134/45 72/96/45
f 65/97/46 66/135/46 70/98/46
f 65/97/47 69/99/47 71/93/47
f 70/100/48 66/136/48 68/94/48
f 73/101/49 75/104/49 76/102/49
f 75/104/50 79/107/50 80/105/50
f 77/106/51 78/137/51 80/105/51
f 73/108/52 74/138/52 78/109/52
f 73/108/53 77/110/53 79/107/53
f 78/111/54 74/139/54 76/102/54
f 60/75/72 59/74/72 58/71/72
f 40/113/56 37/140/56 38/55/56
f 45/114/57 46/65/57 47/64/57
f 64/86/73 63/84/73 62/79/73
