# Blender v2.79 (sub 0) OBJ File: '3DObjectDecoderObjects.blend'
# www.blender.org
o Cube.005_Cube.008
v 0.658515 -0.573635 0.248464
v 0.661079 -0.580430 -0.156066
v 1.063023 -0.581534 0.251160
v 1.065587 -0.588329 -0.153370
v 0.678148 0.426033 0.231796
v 0.680711 0.419238 -0.172734
v 1.085219 0.411339 -0.170038
v 1.082656 0.418134 0.234492
v 0.079361 -1.967827 0.664002
v 0.071452 -2.092610 0.279210
v 0.483878 -1.969645 0.656276
v 0.475969 -2.094428 0.271484
v 0.077746 -1.016584 0.355565
v 0.069838 -1.141367 -0.029227
v 0.474354 -1.143185 -0.036953
v 0.482263 -1.018403 0.347839
v 0.699217 1.490771 0.196205
v 0.701673 1.477264 -0.208157
v 1.103725 1.482851 0.198926
v 1.106181 1.469343 -0.205436
v 0.079651 0.012108 0.185322
v 0.071526 -0.054186 -0.213724
v 0.484163 0.010075 0.177423
v 0.476038 -0.056219 -0.221623
v 0.679428 0.491520 0.229463
v 0.681885 0.478122 -0.174829
v 1.086400 0.470936 -0.171659
v 1.083928 0.483204 0.232290
v 0.077779 -0.968078 0.343698
v 0.069766 -1.045201 -0.049546
v 0.474279 -1.047084 -0.057436
v 0.482295 -0.970127 0.335982
v -0.698594 -0.554723 0.198705
v -0.702882 -0.577983 -0.205210
v -1.103166 -0.554147 0.202966
v -1.107453 -0.577406 -0.200949
v -0.697778 0.443624 0.141186
v -0.702065 0.420364 -0.262730
v -1.106636 0.420941 -0.258469
v -1.102349 0.444200 0.145446
v -0.079660 -1.986018 -0.170501
v -0.071042 -1.791049 -0.524916
v -0.484152 -1.984384 -0.179437
v -0.475535 -1.789415 -0.533852
v -0.086765 -1.109794 0.311350
v -0.078148 -0.914825 -0.043064
v -0.482640 -0.913191 -0.052000
v -0.491257 -1.108160 0.302414
v -0.695367 1.466732 0.208174
v -0.699399 1.491796 -0.195636
v -1.099940 1.467464 0.212258
v -1.103972 1.492528 -0.191552
v -0.078323 0.003347 0.190406
v -0.070757 -0.048332 -0.210804
v -0.482834 0.005497 0.182501
v -0.475269 -0.046182 -0.218709
v -0.697799 0.468652 0.146256
v -0.701842 0.492941 -0.258077
v -1.106488 0.488482 -0.257365
v -1.102366 0.472255 0.149660
v -0.086607 -1.021874 0.328200
v -0.078526 -1.022429 -0.076352
v -0.483036 -1.020834 -0.084553
v -0.491100 -1.019344 0.319625
v 0.630000 0.079915 0.420000
v 0.630000 1.479915 0.420000
v 0.630000 0.079915 -0.420000
v 0.630000 1.479915 -0.420000
v -0.630000 0.079915 0.420000
v -0.630000 1.479915 0.420000
v -0.630000 0.079915 -0.420000
v -0.630000 1.479915 -0.420000
v 0.300181 1.579652 0.299927
v 0.299973 2.179651 0.300657
v 0.299736 1.580381 -0.300072
v 0.299528 2.180381 -0.299342
v -0.299819 1.579443 0.300372
v -0.300027 2.179442 0.301102
v -0.300264 1.580173 -0.299627
v -0.300472 2.180172 -0.298898
vt 0.151712 0.164304
vt 0.128453 0.121671
vt 0.152804 0.123501
vt 0.067175 0.157952
vt 0.127361 0.162474
vt 0.210807 0.209629
vt 0.150620 0.205107
vt 0.212991 0.128023
vt 0.214083 0.087220
vt 0.153896 0.082698
vt 0.120318 0.196104
vt 0.141703 0.159716
vt 0.141869 0.195827
vt 0.194969 0.159030
vt 0.066887 0.160679
vt 0.119987 0.123882
vt 0.120152 0.159993
vt 0.067052 0.196790
vt 0.120483 0.232215
vt 0.953247 0.803206
vt 0.893013 0.844041
vt 0.893013 0.803206
vt 0.953247 0.844041
vt 0.893013 0.884875
vt 0.953247 0.925710
vt 0.893013 0.925710
vt 0.808410 0.884875
vt 0.868643 0.844041
vt 0.868643 0.884875
vt 0.953247 0.884875
vt 0.977617 0.844041
vt 0.977617 0.884875
vt 0.663028 0.545283
vt 0.741845 0.598717
vt 0.663028 0.598717
vt 0.663028 0.652150
vt 0.741845 0.652150
vt 0.663028 0.705584
vt 0.552321 0.652150
vt 0.631139 0.598717
vt 0.631139 0.652150
vt 0.773734 0.652150
vt 0.211899 0.168826
vt 0.237342 0.129853
vt 0.236250 0.170656
vt 0.045336 0.160957
vt 0.045501 0.197068
vt 0.113861 0.154921
vt 0.095990 0.121280
vt 0.114964 0.123128
vt 0.094887 0.153073
vt 0.049093 0.116713
vt 0.162963 0.095902
vt 0.161861 0.127695
vt 0.160758 0.159488
vt 0.159655 0.191281
vt 0.112759 0.186714
vt 0.153193 0.158992
vt 0.134495 0.188340
vt 0.135087 0.158002
vt 0.152601 0.189330
vt 0.197943 0.161440
vt 0.197352 0.191779
vt 0.089154 0.216230
vt 0.089745 0.185892
vt 0.090336 0.155553
vt 0.135678 0.127663
vt 0.090927 0.125215
vt 0.893013 0.809899
vt 0.820174 0.859280
vt 0.820174 0.809899
vt 0.893013 0.859280
vt 0.820174 0.908661
vt 0.893013 0.958041
vt 0.893013 0.908661
vt 0.922484 0.908660
vt 0.995323 0.859280
vt 0.995323 0.908660
vt 0.790703 0.908661
vt 0.668850 0.601598
vt 0.627314 0.573439
vt 0.668850 0.573439
vt 0.627314 0.629757
vt 0.627314 0.601598
vt 0.668850 0.629757
vt 0.627314 0.657916
vt 0.685655 0.629757
vt 0.727191 0.601598
vt 0.727191 0.629757
vt 0.610509 0.601598
vt 0.114767 0.168293
vt 0.095916 0.220936
vt 0.095916 0.168293
vt 0.143042 0.168293
vt 0.114767 0.220936
vt 0.161893 0.168293
vt 0.143042 0.220936
vt 0.114767 0.136707
vt 0.143042 0.084063
vt 0.143042 0.136707
vt 0.143042 0.252523
vt 0.705410 0.612195
vt 0.679363 0.568551
vt 0.705410 0.568551
vt 0.679363 0.612195
vt 0.653316 0.568551
vt 0.627270 0.612195
vt 0.653316 0.612195
vt 0.679363 0.655839
vt 0.653316 0.699483
vt 0.653316 0.655839
vt 0.653316 0.524907
vt 0.922484 0.859280
vt 0.180835 0.129543
vt 0.072230 0.154563
vt 0.071639 0.184901
vt 0.685655 0.601598
vt 0.068267 0.117149
vt 0.195135 0.195141
vt 0.066721 0.124568
vt 0.067218 0.232901
vt 0.808410 0.844041
vt 0.741845 0.545283
vt 0.741845 0.705584
vt 0.552321 0.598717
vt 0.773734 0.598717
vt 0.047991 0.148506
vt 0.116067 0.091335
vt 0.133904 0.218678
vt 0.820174 0.958041
vt 0.790703 0.859280
vt 0.668850 0.657916
vt 0.610509 0.629757
vt 0.161893 0.220936
vt 0.114767 0.084063
vt 0.114767 0.252523
vt 0.627270 0.568551
vt 0.679363 0.699483
vt 0.679363 0.524907
vt 0.179732 0.161336
vn -0.0196 -0.9997 0.0167
vn -0.0063 0.0168 0.9998
vn 0.9998 -0.0195 0.0067
vn 0.0063 -0.0168 -0.9998
vn -0.9998 0.0195 -0.0067
vn 0.0016 -0.9512 0.3084
vn 0.0195 0.3084 0.9511
vn 0.9998 -0.0045 -0.0191
vn -0.0195 -0.3084 -0.9511
vn -0.9998 0.0045 0.0191
vn -0.9998 0.0196 -0.0067
vn 0.0072 -0.0335 -0.9994
vn 0.9998 -0.0196 0.0067
vn -0.0063 0.0335 0.9994
vn 0.0198 0.9993 -0.0333
vn -0.9998 0.0050 0.0194
vn -0.0200 -0.1634 -0.9864
vn 0.9998 -0.0050 -0.0194
vn 0.0196 0.1596 0.9870
vn 0.0018 0.9865 -0.1639
vn -0.0208 -0.9993 0.0302
vn 0.0196 0.9997 -0.0167
vn -0.0016 0.9512 -0.3084
vn -0.0013 -0.9814 0.1920
vn -0.0008 -0.9983 0.0575
vn 0.0106 0.0575 0.9983
vn -0.9999 0.0014 0.0105
vn -0.0106 -0.0575 -0.9983
vn 0.9999 -0.0014 -0.0105
vn 0.0071 -0.8762 -0.4819
vn -0.0213 -0.4819 0.8760
vn -0.9997 0.0040 -0.0221
vn 0.0213 0.4819 -0.8760
vn 0.9997 -0.0040 0.0221
vn 0.9999 -0.0018 -0.0101
vn -0.0100 0.0624 -0.9980
vn -0.9999 0.0018 0.0102
vn 0.0100 -0.0628 0.9980
vn 0.0024 0.9981 0.0619
vn 0.9998 -0.0054 0.0200
vn 0.0186 -0.1369 -0.9904
vn -0.9998 0.0053 -0.0195
vn -0.0187 0.1327 0.9910
vn 0.0078 0.9918 -0.1276
vn 1.0000 0.0000 0.0000
vn 0.0000 0.0000 -1.0000
vn -1.0000 0.0000 0.0000
vn 0.0000 0.0000 1.0000
vn 0.0000 -1.0000 0.0000
vn 0.0000 1.0000 0.0000
vn 1.0000 0.0003 -0.0007
vn -0.0007 0.0012 -1.0000
vn -1.0000 -0.0003 0.0007
vn 0.0007 -0.0012 1.0000
vn 0.0003 -1.0000 -0.0012
vn -0.0003 1.0000 0.0012
vn -0.0094 -0.9982 -0.0599
vn 0.0008 0.9983 -0.0575
vn -0.0071 0.8762 0.4819
vn -0.0063 -1.0000 0.0012
vn 0.0061 -0.0339 -0.9994
vn -0.0061 0.0334 0.9994
vn -0.9998 0.0051 0.0195
vn -0.0201 -0.1634 -0.9864
vn 0.9998 -0.0051 -0.0195
vn 0.0201 0.1594 0.9870
vn -0.0180 -0.9993 0.0330
vn -0.0008 -0.9813 0.1925
vn -0.0025 0.0654 -0.9979
vn -0.9999 0.0018 0.0101
vn 0.0078 -0.0619 0.9980
vn 0.9998 -0.0053 0.0195
vn 0.0195 -0.1365 -0.9904
vn -0.9998 0.0054 -0.0200
vn -0.0202 0.1333 0.9909
vn 0.0109 -0.9991 -0.0399
vn -0.0040 -1.0000 0.0036
s off
f 4/1/1 1/2/1 2/3/1
f 8/4/2 1/2/2 3/5/2
f 4/1/3 8/6/3 3/7/3
f 6/8/4 4/1/4 2/3/4
f 5/9/5 2/3/5 1/10/5
f 10/11/6 11/12/6 9/13/6
f 16/14/7 9/13/7 11/12/7
f 15/15/8 11/16/8 12/17/8
f 14/18/9 12/17/9 10/11/9
f 9/19/10 14/18/10 10/11/10
f 17/20/11 26/21/11 25/22/11
f 18/23/12 27/24/12 26/21/12
f 27/24/13 19/25/13 28/26/13
f 19/27/14 25/28/14 28/29/14
f 20/30/15 17/31/15 19/32/15
f 29/33/16 22/34/16 30/35/16
f 22/34/17 31/36/17 30/35/17
f 24/37/18 32/38/18 31/36/18
f 23/39/19 29/40/19 32/41/19
f 22/34/20 23/42/20 24/37/20
f 25/28/21 27/24/21 28/29/21
f 7/43/22 5/44/22 8/45/22
f 16/46/23 14/18/23 13/47/23
f 29/40/24 31/36/24 32/41/24
f 34/48/25 35/49/25 36/50/25
f 33/51/26 40/52/26 35/49/26
f 36/50/27 40/53/27 39/54/27
f 36/50/28 38/55/28 34/48/28
f 34/48/29 37/56/29 33/57/29
f 41/58/30 44/59/30 42/60/30
f 43/61/31 45/62/31 48/63/31
f 44/59/32 48/64/32 47/65/32
f 42/60/33 47/65/33 46/66/33
f 41/67/34 46/66/34 45/68/34
f 57/69/35 50/70/35 49/71/35
f 58/72/36 52/73/36 50/70/36
f 60/74/37 52/73/37 59/75/37
f 60/76/38 49/77/38 51/78/38
f 51/79/39 50/70/39 52/73/39
f 62/80/40 53/81/40 61/82/40
f 62/80/41 56/83/41 54/84/41
f 63/85/42 55/86/42 56/83/42
f 64/87/43 53/88/43 55/89/43
f 56/83/44 53/90/44 54/84/44
f 67/91/45 66/92/45 65/93/45
f 71/94/46 68/95/46 67/91/46
f 69/96/47 72/97/47 71/94/47
f 65/98/48 70/99/48 69/100/48
f 65/98/49 71/94/49 67/91/49
f 70/101/50 68/95/50 72/97/50
f 73/102/51 76/103/51 74/104/51
f 75/105/52 80/106/52 76/103/52
f 77/107/53 80/106/53 79/108/53
f 73/109/54 78/110/54 77/111/54
f 73/109/55 79/108/55 75/105/55
f 78/112/56 76/103/56 80/106/56
f 60/76/57 58/72/57 57/113/57
f 40/114/58 38/55/58 39/54/58
f 45/115/59 47/65/59 48/116/59
f 64/87/60 62/80/60 61/117/60
f 4/1/1 3/5/1 1/2/1
f 8/4/2 5/118/2 1/2/2
f 4/1/3 7/43/3 8/6/3
f 6/8/4 7/43/4 4/1/4
f 5/9/5 6/8/5 2/3/5
f 10/11/6 12/17/6 11/12/6
f 16/14/7 13/119/7 9/13/7
f 15/15/8 16/120/8 11/16/8
f 14/18/9 15/15/9 12/17/9
f 9/19/10 13/121/10 14/18/10
f 17/20/11 18/23/11 26/21/11
f 18/23/61 20/30/61 27/24/61
f 27/24/13 20/30/13 19/25/13
f 19/27/62 17/122/62 25/28/62
f 20/30/15 18/23/15 17/31/15
f 29/33/63 21/123/63 22/34/63
f 22/34/64 24/37/64 31/36/64
f 24/37/65 23/124/65 32/38/65
f 23/39/66 21/125/66 29/40/66
f 22/34/20 21/126/20 23/42/20
f 25/28/67 26/21/67 27/24/67
f 7/43/22 6/8/22 5/44/22
f 16/46/23 15/15/23 14/18/23
f 29/40/68 30/35/68 31/36/68
f 34/48/25 33/51/25 35/49/25
f 33/51/26 37/127/26 40/52/26
f 36/50/27 35/128/27 40/53/27
f 36/50/28 39/54/28 38/55/28
f 34/48/29 38/55/29 37/56/29
f 41/58/30 43/61/30 44/59/30
f 43/61/31 41/58/31 45/62/31
f 44/59/32 43/129/32 48/64/32
f 42/60/33 44/59/33 47/65/33
f 41/67/34 42/60/34 46/66/34
f 57/69/35 58/72/35 50/70/35
f 58/72/69 59/75/69 52/73/69
f 60/74/70 51/130/70 52/73/70
f 60/76/71 57/113/71 49/77/71
f 51/79/39 49/131/39 50/70/39
f 62/80/72 54/84/72 53/81/72
f 62/80/73 63/85/73 56/83/73
f 63/85/74 64/132/74 55/86/74
f 64/87/75 61/117/75 53/88/75
f 56/83/44 55/133/44 53/90/44
f 67/91/45 68/95/45 66/92/45
f 71/94/46 72/97/46 68/95/46
f 69/96/47 70/134/47 72/97/47
f 65/98/48 66/135/48 70/99/48
f 65/98/49 69/100/49 71/94/49
f 70/101/50 66/136/50 68/95/50
f 73/102/51 75/105/51 76/103/51
f 75/105/52 79/108/52 80/106/52
f 77/107/53 78/137/53 80/106/53
f 73/109/54 74/138/54 78/110/54
f 73/109/55 77/111/55 79/108/55
f 78/112/56 74/139/56 76/103/56
f 60/76/76 59/75/76 58/72/76
f 40/114/58 37/140/58 38/55/58
f 45/115/59 46/66/59 47/65/59
f 64/87/77 63/85/77 62/80/77
