# Blender v2.79 (sub 0) OBJ File: '3DObjectDecoderObjects.blend'
# www.blender.org
o Cube.001_Cube.000
v 0.521359 0.458521 1.623498
v 0.864801 0.275406 1.734009
v 0.648171 0.801209 1.797223
v 0.991614 0.618094 1.907733
v 0.947037 0.737393 0.762668
v 1.290480 0.554278 0.873179
v 1.417292 0.896966 1.046903
v 1.073850 1.080081 0.936393
v 0.085441 -1.904623 1.004347
v 0.076407 -2.026633 0.618692
v 0.489914 -1.903517 0.994522
v 0.480880 -2.025527 0.608866
v 0.075512 -0.951178 0.702941
v 0.066478 -1.073188 0.317286
v 0.470951 -1.072082 0.307460
v 0.479985 -0.950072 0.693116
v 0.572191 1.189410 0.144238
v 0.931412 1.146545 -0.036924
v 0.700178 1.532192 0.316912
v 1.059398 1.489327 0.135750
v 0.059905 -0.002659 0.190561
v 0.052102 -0.195854 -0.164844
v 0.464381 -0.001244 0.180911
v 0.456579 -0.194440 -0.174494
v 0.906332 0.668847 0.929963
v 1.268619 0.622669 0.753165
v 1.416291 0.943559 0.955107
v 1.039625 1.018562 1.084894
v 0.074635 -0.888098 0.676188
v 0.066496 -1.068773 0.311172
v 0.470974 -1.067551 0.301542
v 0.479105 -0.886701 0.666301
v -0.601401 0.265092 0.103705
v -0.648072 -0.082119 -0.098707
v -0.998571 0.273786 0.180366
v -1.045242 -0.073424 -0.022046
v -0.753250 0.778046 -0.741183
v -0.799921 0.430836 -0.943595
v -1.197091 0.439531 -0.866934
v -1.150420 0.786741 -0.664522
v -0.104799 -2.097215 -0.444688
v -0.095632 -1.920279 -0.808427
v -0.509255 -2.088454 -0.450620
v -0.500088 -1.911517 -0.814359
v -0.091743 -1.198169 -0.007028
v -0.082575 -1.021232 -0.370768
v -0.487031 -1.012471 -0.376700
v -0.496199 -1.189407 -0.012960
v -0.619783 1.287642 -0.094372
v -0.678635 1.494060 -0.437346
v -1.017386 1.297608 -0.020149
v -1.076238 1.504026 -0.363123
v -0.069017 -0.110844 0.112458
v -0.062797 -0.069536 -0.289974
v -0.473476 -0.101846 0.107129
v -0.467255 -0.060538 -0.295303
v -0.734262 0.427931 -0.592178
v -0.794082 0.623925 -0.938758
v -1.197869 0.564566 -0.887198
v -1.134120 0.468759 -0.534020
v -0.090359 -1.124586 0.014060
v -0.083396 -1.054505 -0.387652
v -0.487860 -1.045803 -0.393175
v -0.494806 -1.115342 0.008375
v 0.469961 0.015256 0.568475
v 0.469961 1.415256 0.568475
v 0.721588 0.015256 -0.232951
v 0.721588 1.415256 -0.232951
v -0.732178 0.015256 0.191035
v -0.732178 1.415256 0.191035
v -0.480551 0.015256 -0.610391
v -0.480551 1.415256 -0.610391
v 0.024212 1.446228 0.414171
v -0.054323 2.032332 0.515732
v 0.398318 1.574541 -0.037027
v 0.319783 2.160644 0.064533
v -0.438256 1.450494 0.031934
v -0.516792 2.036597 0.133495
v -0.064150 1.578807 -0.419264
v -0.142685 2.164910 -0.317704
vt 0.151712 0.164304
vt 0.128453 0.121671
vt 0.152804 0.123501
vt 0.127361 0.162474
vt 0.068267 0.117149
vt 0.211899 0.168826
vt 0.150620 0.205107
vt 0.212991 0.128023
vt 0.214083 0.087220
vt 0.153896 0.082698
vt 0.120318 0.196104
vt 0.141703 0.159716
vt 0.141869 0.195827
vt 0.194969 0.159030
vt 0.066887 0.160679
vt 0.119987 0.123882
vt 0.120152 0.159993
vt 0.120483 0.232215
vt 0.067052 0.196790
vt 0.893013 0.803206
vt 0.953247 0.844041
vt 0.893013 0.844041
vt 0.953247 0.884875
vt 0.893013 0.884875
vt 0.893013 0.925710
vt 0.868643 0.884875
vt 0.808410 0.844041
vt 0.868643 0.844041
vt 0.977617 0.884875
vt 0.741845 0.545283
vt 0.663028 0.598717
vt 0.663028 0.545283
vt 0.741845 0.652150
vt 0.663028 0.652150
vt 0.741845 0.705584
vt 0.663028 0.705584
vt 0.631139 0.652150
vt 0.552321 0.598717
vt 0.631139 0.598717
vt 0.741845 0.598717
vt 0.773734 0.652150
vt 0.237342 0.129853
vt 0.236250 0.170656
vt 0.045336 0.160957
vt 0.045501 0.197068
vt 0.113861 0.154921
vt 0.095990 0.121280
vt 0.114964 0.123128
vt 0.094887 0.153073
vt 0.049093 0.116713
vt 0.116067 0.091335
vt 0.161861 0.127695
vt 0.160758 0.159488
vt 0.112759 0.186714
vt 0.159655 0.191281
vt 0.135087 0.158002
vt 0.152601 0.189330
vt 0.134495 0.188340
vt 0.197943 0.161440
vt 0.197352 0.191779
vt 0.133904 0.218678
vt 0.089745 0.185892
vt 0.090336 0.155553
vt 0.135678 0.127663
vt 0.090927 0.125215
vt 0.893013 0.809899
vt 0.820174 0.859280
vt 0.820174 0.809899
vt 0.893013 0.859280
vt 0.820174 0.908661
vt 0.893013 0.958041
vt 0.893013 0.908661
vt 0.922484 0.908660
vt 0.995323 0.859280
vt 0.995323 0.908660
vt 0.790703 0.859280
vt 0.668850 0.601598
vt 0.627314 0.573439
vt 0.668850 0.573439
vt 0.627314 0.629757
vt 0.627314 0.601598
vt 0.668850 0.629757
vt 0.627314 0.657916
vt 0.685655 0.629757
vt 0.727191 0.601598
vt 0.727191 0.629757
vt 0.610509 0.629757
vt 0.114767 0.168293
vt 0.095916 0.220936
vt 0.095916 0.168293
vt 0.143042 0.168293
vt 0.114767 0.220936
vt 0.161893 0.168293
vt 0.143042 0.220936
vt 0.114767 0.136707
vt 0.143042 0.084063
vt 0.143042 0.136707
vt 0.143042 0.252523
vt 0.705410 0.612195
vt 0.679363 0.568551
vt 0.705410 0.568551
vt 0.653316 0.612195
vt 0.679363 0.612195
vt 0.627270 0.612195
vt 0.653316 0.568551
vt 0.679363 0.655839
vt 0.653316 0.699483
vt 0.653316 0.655839
vt 0.653316 0.524907
vt 0.922484 0.859280
vt 0.180835 0.129543
vt 0.071639 0.184901
vt 0.685655 0.601598
vt 0.067175 0.157952
vt 0.210807 0.209629
vt 0.195135 0.195141
vt 0.066721 0.124568
vt 0.067218 0.232901
vt 0.953247 0.803206
vt 0.953247 0.925710
vt 0.808410 0.884875
vt 0.977617 0.844041
vt 0.552321 0.652150
vt 0.773734 0.598717
vt 0.047991 0.148506
vt 0.162963 0.095902
vt 0.153193 0.158992
vt 0.089154 0.216230
vt 0.820174 0.958041
vt 0.790703 0.908661
vt 0.668850 0.657916
vt 0.610509 0.601598
vt 0.161893 0.220936
vt 0.114767 0.084063
vt 0.114767 0.252523
vt 0.627270 0.568551
vt 0.679363 0.699483
vt 0.679363 0.524907
vt 0.179732 0.161336
vt 0.072230 0.154563
vn -0.4257 -0.2789 0.8608
vn -0.8489 0.4526 -0.2731
vn 0.3134 0.8470 0.4294
vn 0.8489 -0.4526 0.2731
vn -0.3134 -0.8470 -0.4294
vn 0.0099 -0.9534 0.3014
vn 0.0223 0.3016 0.9532
vn 0.9997 0.0027 -0.0243
vn -0.0223 -0.3016 -0.9532
vn -0.9997 -0.0027 0.0243
vn -0.3163 -0.8472 -0.4268
vn 0.8802 -0.1154 -0.4603
vn 0.3158 0.8474 0.4269
vn -0.8782 0.1309 0.4601
vn -0.3341 0.5206 -0.7857
vn -0.9997 -0.0035 0.0240
vn -0.0195 -0.4788 -0.8777
vn 0.9997 0.0035 -0.0240
vn 0.0198 0.4810 0.8765
vn -0.0145 0.8786 -0.4773
vn 0.1607 -0.5776 0.8003
vn 0.4257 0.2789 -0.8608
vn -0.0099 0.9534 -0.3014
vn 0.0133 -0.8960 0.4439
vn 0.1518 -0.5129 0.8449
vn 0.1153 0.8581 0.5003
vn -0.9816 0.0215 0.1895
vn -0.1153 -0.8581 -0.5003
vn 0.9817 -0.0215 -0.1895
vn -0.0131 -0.8990 -0.4377
vn -0.0227 -0.4373 0.8990
vn -0.9997 0.0217 -0.0147
vn 0.0227 0.4373 -0.8990
vn 0.9997 -0.0217 0.0147
vn 0.9827 -0.0246 -0.1835
vn -0.1457 0.5084 -0.8487
vn -0.9826 0.0246 0.1840
vn 0.1419 -0.5360 0.8322
vn 0.1145 0.8597 0.4978
vn 0.9997 -0.0223 0.0134
vn 0.0153 0.0984 -0.9950
vn -0.9997 0.0222 -0.0132
vn -0.0153 -0.0967 0.9952
vn 0.0208 0.9945 0.1024
vn 0.9541 0.0000 0.2996
vn 0.2996 0.0000 -0.9541
vn -0.9541 0.0000 -0.2996
vn -0.2996 -0.0000 0.9541
vn 0.0000 -1.0000 0.0000
vn 0.0000 1.0000 0.0000
vn 0.7708 -0.0071 0.6371
vn 0.6235 0.2139 -0.7520
vn -0.7708 0.0071 -0.6371
vn -0.6235 -0.2139 0.7520
vn 0.1309 -0.9768 -0.1693
vn -0.1309 0.9768 0.1693
vn -0.1567 -0.8710 -0.4655
vn -0.1518 0.5129 -0.8449
vn 0.0131 0.8990 0.4377
vn -0.0201 -0.9849 -0.1722
vn 0.8875 -0.1054 -0.4486
vn 0.3163 0.8472 0.4268
vn -0.8837 0.0996 0.4572
vn -0.9997 -0.0035 0.0238
vn -0.0193 -0.4789 -0.8777
vn 0.9997 0.0035 -0.0238
vn 0.0192 0.4809 0.8766
vn 0.3328 -0.4851 0.8087
vn 0.0139 -0.8963 0.4433
vn -0.1814 0.4969 -0.8486
vn -0.9827 0.0247 0.1835
vn 0.0731 -0.5070 0.8588
vn 0.9997 -0.0222 0.0132
vn 0.0157 0.0985 -0.9950
vn -0.9997 0.0223 -0.0134
vn -0.0162 -0.0963 0.9952
vn 0.1049 -0.9549 -0.2780
vn -0.0189 -0.9851 -0.1709
s off
f 4/1/1 1/2/1 2/3/1
f 3/4/2 5/5/2 1/2/2
f 7/6/3 3/7/3 4/1/3
f 6/8/4 4/1/4 2/3/4
f 5/9/5 2/3/5 1/10/5
f 10/11/6 11/12/6 9/13/6
f 16/14/7 9/13/7 11/12/7
f 15/15/8 11/16/8 12/17/8
f 10/11/9 15/15/9 12/17/9
f 9/18/10 14/19/10 10/11/10
f 25/20/11 18/21/11 26/22/11
f 26/22/12 20/23/12 27/24/12
f 20/23/13 28/25/13 27/24/13
f 28/26/14 17/27/14 25/28/14
f 18/21/15 19/29/15 20/23/15
f 21/30/16 30/31/16 29/32/16
f 30/31/17 24/33/17 31/34/17
f 31/34/18 23/35/18 32/36/18
f 32/37/19 21/38/19 29/39/19
f 22/40/20 23/41/20 24/33/20
f 28/26/21 26/22/21 27/24/21
f 7/6/22 5/42/22 8/43/22
f 16/44/23 14/19/23 13/45/23
f 32/37/24 30/31/24 31/34/24
f 34/46/25 35/47/25 36/48/25
f 33/49/26 40/50/26 35/47/26
f 35/51/27 39/52/27 36/48/27
f 34/46/28 39/52/28 38/53/28
f 33/54/29 38/53/29 37/55/29
f 42/56/30 43/57/30 44/58/30
f 43/57/31 45/59/31 48/60/31
f 43/61/32 47/62/32 44/58/32
f 44/58/33 46/63/33 42/56/33
f 41/64/34 46/63/34 45/65/34
f 57/66/35 50/67/35 49/68/35
f 58/69/36 52/70/36 50/67/36
f 60/71/37 52/70/37 59/72/37
f 60/73/38 49/74/38 51/75/38
f 52/70/39 49/76/39 50/67/39
f 62/77/40 53/78/40 61/79/40
f 62/77/41 56/80/41 54/81/41
f 63/82/42 55/83/42 56/80/42
f 64/84/43 53/85/43 55/86/43
f 55/87/44 54/81/44 56/80/44
f 67/88/45 66/89/45 65/90/45
f 71/91/46 68/92/46 67/88/46
f 69/93/47 72/94/47 71/91/47
f 65/95/48 70/96/48 69/97/48
f 65/95/49 71/91/49 67/88/49
f 70/98/50 68/92/50 72/94/50
f 73/99/51 76/100/51 74/101/51
f 79/102/52 76/100/52 75/103/52
f 77/104/53 80/105/53 79/102/53
f 73/106/54 78/107/54 77/108/54
f 75/103/55 77/108/55 79/102/55
f 78/109/56 76/100/56 80/105/56
f 60/73/57 58/69/57 57/110/57
f 40/111/58 38/53/58 39/52/58
f 48/112/59 46/63/59 47/62/59
f 64/84/60 62/77/60 61/113/60
f 4/1/1 3/4/1 1/2/1
f 3/4/2 8/114/2 5/5/2
f 7/6/3 8/115/3 3/7/3
f 6/8/4 7/6/4 4/1/4
f 5/9/5 6/8/5 2/3/5
f 10/11/6 12/17/6 11/12/6
f 16/14/7 13/116/7 9/13/7
f 15/15/8 16/117/8 11/16/8
f 10/11/9 14/19/9 15/15/9
f 9/18/10 13/118/10 14/19/10
f 25/20/11 17/119/11 18/21/11
f 26/22/61 18/21/61 20/23/61
f 20/23/62 19/120/62 28/25/62
f 28/26/63 19/121/63 17/27/63
f 18/21/15 17/122/15 19/29/15
f 21/30/64 22/40/64 30/31/64
f 30/31/65 22/40/65 24/33/65
f 31/34/66 24/33/66 23/35/66
f 32/37/67 23/123/67 21/38/67
f 22/40/20 21/124/20 23/41/20
f 28/26/68 25/28/68 26/22/68
f 7/6/22 6/8/22 5/42/22
f 16/44/23 15/15/23 14/19/23
f 32/37/69 29/39/69 30/31/69
f 34/46/25 33/49/25 35/47/25
f 33/49/26 37/125/26 40/50/26
f 35/51/27 40/126/27 39/52/27
f 34/46/28 36/48/28 39/52/28
f 33/54/29 34/46/29 38/53/29
f 42/56/30 41/127/30 43/57/30
f 43/57/31 41/127/31 45/59/31
f 43/61/32 48/128/32 47/62/32
f 44/58/33 47/62/33 46/63/33
f 41/64/34 42/56/34 46/63/34
f 57/66/35 58/69/35 50/67/35
f 58/69/70 59/72/70 52/70/70
f 60/71/71 51/129/71 52/70/71
f 60/73/72 57/110/72 49/74/72
f 52/70/39 51/130/39 49/76/39
f 62/77/73 54/81/73 53/78/73
f 62/77/74 63/82/74 56/80/74
f 63/82/75 64/131/75 55/83/75
f 64/84/76 61/113/76 53/85/76
f 55/87/44 53/132/44 54/81/44
f 67/88/45 68/92/45 66/89/45
f 71/91/46 72/94/46 68/92/46
f 69/93/47 70/133/47 72/94/47
f 65/95/48 66/134/48 70/96/48
f 65/95/49 69/97/49 71/91/49
f 70/98/50 66/135/50 68/92/50
f 73/99/51 75/103/51 76/100/51
f 79/102/52 80/105/52 76/100/52
f 77/104/53 78/136/53 80/105/53
f 73/106/54 74/137/54 78/107/54
f 75/103/55 73/106/55 77/108/55
f 78/109/56 74/138/56 76/100/56
f 60/73/77 59/72/77 58/69/77
f 40/111/58 37/139/58 38/53/58
f 48/112/59 45/140/59 46/63/59
f 64/84/78 63/82/78 62/77/78
