# Blender v2.79 (sub 0) OBJ File: '3DObjectDecoderObjects.blend'
# www.blender.org
o Cube.001_Cube.000
v 0.545787 0.333447 1.018806
v 0.575075 -0.048827 0.889555
v 0.944450 0.340786 1.087436
v 0.973738 -0.041488 0.958186
v 0.700261 0.660500 0.086511
v 0.729549 0.278227 -0.042739
v 1.128212 0.285566 0.025891
v 1.098924 0.667839 0.155141
v 0.083077 -2.004611 0.639712
v 0.073210 -2.027600 0.235890
v 0.487551 -2.004539 0.629824
v 0.477683 -2.027529 0.226002
v 0.081513 -1.006225 0.582915
v 0.071645 -1.029214 0.179094
v 0.476118 -1.029143 0.169206
v 0.485986 -1.006154 0.573027
v 0.644748 1.435892 0.333097
v 0.710749 1.451631 -0.065767
v 1.043795 1.443519 0.399429
v 1.109795 1.459258 0.000564
v 0.071006 0.012821 0.195195
v 0.062319 -0.133203 -0.182031
v 0.475488 0.013332 0.185682
v 0.466801 -0.132692 -0.191544
v 0.669711 0.436826 0.297804
v 0.735905 0.443225 -0.100951
v 1.136052 0.389117 -0.032841
v 1.071969 0.464210 0.342569
v 0.081027 -0.933219 0.567217
v 0.071940 -1.056291 0.178456
v 0.476422 -1.056094 0.168915
v 0.485498 -0.932664 0.557320
v -0.716497 -0.120260 0.006522
v -0.730406 -0.333313 -0.337163
v -1.120834 -0.109681 0.016327
v -1.134743 -0.322735 -0.327357
v -0.707049 0.729476 -0.520608
v -0.720959 0.516422 -0.864293
v -1.125296 0.527001 -0.854487
v -1.111386 0.740055 -0.510803
v -0.098104 -2.101485 -0.178173
v -0.090193 -1.982057 -0.564659
v -0.502607 -2.095941 -0.184740
v -0.494696 -1.976513 -0.571225
v -0.089805 -1.146142 0.117210
v -0.081894 -1.026714 -0.269276
v -0.486397 -1.021170 -0.275842
v -0.494308 -1.140598 0.110643
v -0.678437 1.313165 0.054334
v -0.679065 1.528195 -0.288401
v -1.082771 1.325127 0.062579
v -1.083398 1.540157 -0.280156
v -0.074584 -0.059561 0.144876
v -0.068355 -0.051191 -0.259584
v -0.479091 -0.053773 0.138765
v -0.472861 -0.045403 -0.265695
v -0.714313 0.466605 -0.476756
v -0.715270 0.674762 -0.824130
v -1.121776 0.640754 -0.845768
v -1.118010 0.503992 -0.474542
v -0.088929 -1.074093 0.128945
v -0.082249 -1.042863 -0.277634
v -0.486758 -1.037328 -0.283870
v -0.493427 -1.068144 0.122529
v 0.535377 0.047937 0.522277
v 0.535377 1.447937 0.522277
v 0.696060 0.047937 -0.302211
v 0.696060 1.447937 -0.302211
v -0.701355 0.047937 0.281253
v -0.701355 1.447937 0.281253
v -0.540673 0.047937 -0.543235
v -0.540673 1.447937 -0.543235
v 0.157907 1.516897 0.389478
v 0.129728 2.113380 0.447905
v 0.382011 1.581632 -0.163321
v 0.353831 2.178115 -0.104894
v -0.397956 1.512757 0.163648
v -0.426135 2.109240 0.222075
v -0.173853 1.577492 -0.389151
v -0.202032 2.173975 -0.330724
vt 0.151712 0.164304
vt 0.128453 0.121671
vt 0.152804 0.123501
vt 0.067175 0.157952
vt 0.127361 0.162474
vt 0.211899 0.168826
vt 0.150620 0.205107
vt 0.212991 0.128023
vt 0.214083 0.087220
vt 0.153896 0.082698
vt 0.120318 0.196104
vt 0.141703 0.159716
vt 0.141869 0.195827
vt 0.194969 0.159030
vt 0.066887 0.160679
vt 0.119987 0.123882
vt 0.120152 0.159993
vt 0.120483 0.232215
vt 0.067052 0.196790
vt 0.893013 0.803206
vt 0.953247 0.844041
vt 0.893013 0.844041
vt 0.953247 0.884875
vt 0.893013 0.884875
vt 0.893013 0.925710
vt 0.868643 0.884875
vt 0.808410 0.844041
vt 0.868643 0.844041
vt 0.977617 0.844041
vt 0.977617 0.884875
vt 0.741845 0.545283
vt 0.663028 0.598717
vt 0.663028 0.545283
vt 0.741845 0.652150
vt 0.663028 0.652150
vt 0.741845 0.705584
vt 0.663028 0.705584
vt 0.631139 0.652150
vt 0.552321 0.598717
vt 0.631139 0.598717
vt 0.741845 0.598717
vt 0.773734 0.652150
vt 0.237342 0.129853
vt 0.236250 0.170656
vt 0.045336 0.160957
vt 0.045501 0.197068
vt 0.113861 0.154921
vt 0.095990 0.121280
vt 0.114964 0.123128
vt 0.094887 0.153073
vt 0.049093 0.116713
vt 0.116067 0.091335
vt 0.161861 0.127695
vt 0.160758 0.159488
vt 0.112759 0.186714
vt 0.159655 0.191281
vt 0.153193 0.158992
vt 0.134495 0.188340
vt 0.135087 0.158002
vt 0.152601 0.189330
vt 0.197943 0.161440
vt 0.197352 0.191779
vt 0.133904 0.218678
vt 0.089745 0.185892
vt 0.090336 0.155553
vt 0.135678 0.127663
vt 0.090927 0.125215
vt 0.893013 0.809899
vt 0.820174 0.859280
vt 0.820174 0.809899
vt 0.893013 0.859280
vt 0.820174 0.908661
vt 0.893013 0.958041
vt 0.893013 0.908661
vt 0.922484 0.908660
vt 0.995323 0.859280
vt 0.995323 0.908660
vt 0.790703 0.908661
vt 0.668850 0.601598
vt 0.627314 0.573439
vt 0.668850 0.573439
vt 0.627314 0.629757
vt 0.627314 0.601598
vt 0.668850 0.629757
vt 0.627314 0.657916
vt 0.685655 0.629757
vt 0.727191 0.601598
vt 0.727191 0.629757
vt 0.610509 0.629757
vt 0.114767 0.168293
vt 0.095916 0.220936
vt 0.095916 0.168293
vt 0.143042 0.168293
vt 0.114767 0.220936
vt 0.161893 0.220936
vt 0.143042 0.220936
vt 0.114767 0.136707
vt 0.143042 0.084063
vt 0.143042 0.136707
vt 0.143042 0.252523
vt 0.679363 0.612195
vt 0.705410 0.568551
vt 0.705410 0.612195
vt 0.653316 0.568551
vt 0.679363 0.568551
vt 0.627270 0.612195
vt 0.653316 0.612195
vt 0.679363 0.655839
vt 0.653316 0.699483
vt 0.653316 0.655839
vt 0.679363 0.524907
vt 0.922484 0.859280
vt 0.180835 0.129543
vt 0.072230 0.154563
vt 0.071639 0.184901
vt 0.685655 0.601598
vt 0.068267 0.117149
vt 0.210807 0.209629
vt 0.195135 0.195141
vt 0.066721 0.124568
vt 0.067218 0.232901
vt 0.953247 0.803206
vt 0.953247 0.925710
vt 0.808410 0.884875
vt 0.552321 0.652150
vt 0.773734 0.598717
vt 0.047991 0.148506
vt 0.162963 0.095902
vt 0.089154 0.216230
vt 0.820174 0.958041
vt 0.790703 0.859280
vt 0.668850 0.657916
vt 0.610509 0.601598
vt 0.161893 0.168293
vt 0.114767 0.084063
vt 0.114767 0.252523
vt 0.627270 0.568551
vt 0.679363 0.699483
vt 0.653316 0.524907
vt 0.179732 0.161336
vn -0.1545 -0.3271 0.9323
vn -0.0724 0.9448 0.3195
vn 0.9853 0.0181 0.1696
vn 0.0724 -0.9448 -0.3195
vn -0.9853 -0.0181 -0.1696
vn 0.0016 -0.9984 0.0568
vn 0.0244 0.0568 0.9981
vn 0.9997 0.0002 -0.0244
vn -0.0244 -0.0568 -0.9981
vn -0.9997 -0.0002 0.0244
vn -0.9863 -0.0189 -0.1640
vn 0.1723 0.0350 -0.9844
vn 0.9862 0.0191 0.1645
vn -0.1080 -0.0378 0.9934
vn -0.0250 0.9991 0.0353
vn -0.9997 -0.0012 0.0238
vn -0.0218 -0.3637 -0.9312
vn 0.9997 0.0012 -0.0238
vn 0.0223 0.3661 0.9303
vn -0.0097 0.9326 -0.3608
vn -0.1600 -0.9728 0.1673
vn 0.1545 0.3271 -0.9323
vn -0.0016 0.9984 -0.0568
vn 0.0076 -0.9531 0.3027
vn -0.0094 -0.8497 0.5271
vn 0.0344 0.5266 0.8494
vn -0.9994 0.0261 0.0242
vn -0.0344 -0.5266 -0.8494
vn 0.9994 -0.0261 -0.0242
vn -0.0083 -0.9553 -0.2954
vn -0.0196 -0.2952 0.9552
vn -0.9998 0.0137 -0.0162
vn 0.0196 0.2952 -0.9552
vn 0.9998 -0.0137 0.0162
vn 0.9994 -0.0296 -0.0204
vn -0.0015 0.5317 -0.8469
vn -0.9993 0.0294 0.0210
vn 0.0009 -0.5474 0.8368
vn 0.0359 0.8466 0.5311
vn 0.9998 -0.0144 0.0153
vn 0.0154 0.0180 -0.9997
vn -0.9998 0.0143 -0.0151
vn -0.0153 -0.0158 0.9998
vn 0.0140 0.9997 0.0209
vn 0.9815 0.0000 0.1913
vn 0.1913 0.0000 -0.9815
vn -0.9815 -0.0000 -0.1913
vn -0.1913 -0.0000 0.9815
vn 0.0000 -1.0000 0.0000
vn 0.0000 1.0000 0.0000
vn 0.9264 0.0069 0.3764
vn 0.3735 0.1079 -0.9213
vn -0.9264 -0.0069 -0.3764
vn -0.3735 -0.1079 0.9213
vn 0.0470 -0.9941 -0.0974
vn -0.0470 0.9941 0.0974
vn -0.0820 -0.8550 -0.5121
vn 0.0094 0.8497 -0.5271
vn 0.0083 0.9553 0.2954
vn -0.0134 -0.9970 -0.0768
vn -0.9863 -0.0189 -0.1639
vn 0.1631 0.0385 -0.9859
vn 0.9863 0.0189 0.1639
vn -0.1625 -0.0619 0.9848
vn -0.9997 -0.0012 0.0235
vn -0.0214 -0.3639 -0.9312
vn 0.9997 0.0012 -0.0235
vn 0.0214 0.3658 0.9305
vn 0.0684 -0.9976 -0.0046
vn 0.0087 -0.9534 0.3016
vn 0.9994 -0.0296 -0.0205
vn 0.0005 0.5323 -0.8465
vn -0.9994 0.0296 0.0204
vn -0.0444 -0.5296 0.8471
vn 0.9998 -0.0143 0.0151
vn 0.0157 0.0181 -0.9997
vn -0.9998 0.0144 -0.0153
vn -0.0161 -0.0155 0.9998
vn 0.0965 -0.9337 -0.3449
vn -0.0125 -0.9970 -0.0758
s off
f 4/1/1 1/2/1 2/3/1
f 8/4/2 1/2/2 3/5/2
f 7/6/3 3/7/3 4/1/3
f 6/8/4 4/1/4 2/3/4
f 5/9/5 2/3/5 1/10/5
f 10/11/6 11/12/6 9/13/6
f 16/14/7 9/13/7 11/12/7
f 15/15/8 11/16/8 12/17/8
f 10/11/9 15/15/9 12/17/9
f 9/18/10 14/19/10 10/11/10
f 25/20/11 18/21/11 26/22/11
f 26/22/12 20/23/12 27/24/12
f 20/23/13 28/25/13 27/24/13
f 28/26/14 17/27/14 25/28/14
f 20/23/15 17/29/15 19/30/15
f 21/31/16 30/32/16 29/33/16
f 30/32/17 24/34/17 31/35/17
f 31/35/18 23/36/18 32/37/18
f 32/38/19 21/39/19 29/40/19
f 22/41/20 23/42/20 24/34/20
f 28/26/21 26/22/21 27/24/21
f 7/6/22 5/43/22 8/44/22
f 16/45/23 14/19/23 13/46/23
f 32/38/24 30/32/24 31/35/24
f 34/47/25 35/48/25 36/49/25
f 33/50/26 40/51/26 35/48/26
f 35/52/27 39/53/27 36/49/27
f 36/49/28 38/54/28 34/47/28
f 33/55/29 38/54/29 37/56/29
f 41/57/30 44/58/30 42/59/30
f 43/60/31 45/61/31 48/62/31
f 43/63/32 47/64/32 44/58/32
f 44/58/33 46/65/33 42/59/33
f 41/66/34 46/65/34 45/67/34
f 57/68/35 50/69/35 49/70/35
f 58/71/36 52/72/36 50/69/36
f 60/73/37 52/72/37 59/74/37
f 60/75/38 49/76/38 51/77/38
f 51/78/39 50/69/39 52/72/39
f 62/79/40 53/80/40 61/81/40
f 62/79/41 56/82/41 54/83/41
f 63/84/42 55/85/42 56/82/42
f 64/86/43 53/87/43 55/88/43
f 55/89/44 54/83/44 56/82/44
f 67/90/45 66/91/45 65/92/45
f 71/93/46 68/94/46 67/90/46
f 71/93/47 70/95/47 72/96/47
f 65/97/48 70/98/48 69/99/48
f 65/97/49 71/93/49 67/90/49
f 70/100/50 68/94/50 72/96/50
f 75/101/51 74/102/51 73/103/51
f 75/101/52 80/104/52 76/105/52
f 77/106/53 80/104/53 79/107/53
f 73/108/54 78/109/54 77/110/54
f 73/108/55 79/107/55 75/101/55
f 80/104/56 74/111/56 76/105/56
f 60/75/57 58/71/57 57/112/57
f 40/113/58 38/54/58 39/53/58
f 45/114/59 47/64/59 48/115/59
f 64/86/60 62/79/60 61/116/60
f 4/1/1 3/5/1 1/2/1
f 8/4/2 5/117/2 1/2/2
f 7/6/3 8/118/3 3/7/3
f 6/8/4 7/6/4 4/1/4
f 5/9/5 6/8/5 2/3/5
f 10/11/6 12/17/6 11/12/6
f 16/14/7 13/119/7 9/13/7
f 15/15/8 16/120/8 11/16/8
f 10/11/9 14/19/9 15/15/9
f 9/18/10 13/121/10 14/19/10
f 25/20/61 17/122/61 18/21/61
f 26/22/62 18/21/62 20/23/62
f 20/23/63 19/123/63 28/25/63
f 28/26/64 19/124/64 17/27/64
f 20/23/15 18/21/15 17/29/15
f 21/31/65 22/41/65 30/32/65
f 30/32/66 22/41/66 24/34/66
f 31/35/67 24/34/67 23/36/67
f 32/38/68 23/125/68 21/39/68
f 22/41/20 21/126/20 23/42/20
f 28/26/69 25/28/69 26/22/69
f 7/6/22 6/8/22 5/43/22
f 16/45/23 15/15/23 14/19/23
f 32/38/70 29/40/70 30/32/70
f 34/47/25 33/50/25 35/48/25
f 33/50/26 37/127/26 40/51/26
f 35/52/27 40/128/27 39/53/27
f 36/49/28 39/53/28 38/54/28
f 33/55/29 34/47/29 38/54/29
f 41/57/30 43/60/30 44/58/30
f 43/60/31 41/57/31 45/61/31
f 43/63/32 48/129/32 47/64/32
f 44/58/33 47/64/33 46/65/33
f 41/66/34 42/59/34 46/65/34
f 57/68/71 58/71/71 50/69/71
f 58/71/72 59/74/72 52/72/72
f 60/73/73 51/130/73 52/72/73
f 60/75/74 57/112/74 49/76/74
f 51/78/39 49/131/39 50/69/39
f 62/79/75 54/83/75 53/80/75
f 62/79/76 63/84/76 56/82/76
f 63/84/77 64/132/77 55/85/77
f 64/86/78 61/116/78 53/87/78
f 55/89/44 53/133/44 54/83/44
f 67/90/45 68/94/45 66/91/45
f 71/93/46 72/96/46 68/94/46
f 71/93/47 69/134/47 70/95/47
f 65/97/48 66/135/48 70/98/48
f 65/97/49 69/99/49 71/93/49
f 70/100/50 66/136/50 68/94/50
f 75/101/51 76/105/51 74/102/51
f 75/101/52 79/107/52 80/104/52
f 77/106/53 78/137/53 80/104/53
f 73/108/54 74/138/54 78/109/54
f 73/108/55 77/110/55 79/107/55
f 80/104/56 78/139/56 74/111/56
f 60/75/79 59/74/79 58/71/79
f 40/113/58 37/140/58 38/54/58
f 45/114/59 46/65/59 47/64/59
f 64/86/80 63/84/80 62/79/80
