# Blender v2.79 (sub 0) OBJ File: '3DObjectDecoderObjects.blend'
# www.blender.org
o Cube.001_Cube.000
v 0.674735 -0.233083 0.536142
v 0.703689 -0.455266 0.199255
v 1.078108 -0.227345 0.567025
v 1.107061 -0.449528 0.230138
v 0.704843 0.602520 -0.012366
v 0.733796 0.380337 -0.349253
v 1.137169 0.386075 -0.318370
v 1.108216 0.608258 0.018517
v 0.080558 -2.056189 0.331344
v 0.072869 -2.034966 -0.072622
v 0.485078 -2.055301 0.323690
v 0.477389 -2.034079 -0.080276
v 0.079359 -1.057567 0.383832
v 0.071670 -1.036345 -0.020134
v 0.476190 -1.035457 -0.027788
v 0.483879 -1.056679 0.376178
v 0.673455 1.425081 0.241260
v 0.701270 1.502625 -0.154858
v 1.076913 1.431569 0.270861
v 1.104728 1.509113 -0.125258
v 0.072372 0.006299 0.175516
v 0.065442 -0.072964 -0.221180
v 0.476899 0.007493 0.168209
v 0.469968 -0.071769 -0.228486
v 0.703178 0.443750 0.051243
v 0.731273 0.515834 -0.347150
v 1.136537 0.485973 -0.331960
v 1.106912 0.467189 0.073080
v 0.079035 -0.986233 0.378735
v 0.071846 -1.046012 -0.024526
v 0.476373 -1.045064 -0.031891
v 0.483554 -0.984960 0.371129
v -0.793143 -0.309009 0.106022
v -0.817918 -0.458104 -0.269293
v -1.196648 -0.284658 0.122984
v -1.221423 -0.433753 -0.252331
v -0.752762 0.618680 -0.265162
v -0.777537 0.469584 -0.640477
v -1.181041 0.493935 -0.623514
v -1.156266 0.643030 -0.248200
v -0.079599 -2.088057 0.055551
v -0.071132 -2.026667 -0.344270
v -0.484100 -2.088655 0.046892
v -0.475633 -2.027265 -0.352928
v -0.084307 -1.099636 0.207218
v -0.075840 -1.038246 -0.192603
v -0.480341 -1.038844 -0.201261
v -0.488809 -1.100234 0.198560
v -0.689725 1.365704 0.155954
v -0.694352 1.524584 -0.216124
v -1.093212 1.391062 0.171801
v -1.097840 1.549941 -0.200278
v -0.084411 -0.022008 0.164428
v -0.076042 -0.039032 -0.239722
v -0.488919 -0.022404 0.156069
v -0.480550 -0.039427 -0.248081
v -0.762741 0.448169 -0.234943
v -0.767835 0.602138 -0.610404
v -1.174409 0.594646 -0.616353
v -1.165220 0.491864 -0.223288
v -0.084436 -1.031067 0.211053
v -0.075952 -1.032375 -0.196244
v -0.480459 -1.032955 -0.204672
v -0.488938 -1.031373 0.202470
v 0.598755 0.069840 0.435576
v 0.598755 1.469840 0.435576
v 0.648448 0.069840 -0.402953
v 0.648448 1.469840 -0.402953
v -0.659038 0.069840 0.361037
v -0.659038 1.469840 0.361037
v -0.609345 0.069840 -0.477492
v -0.609345 1.469840 -0.477492
v 0.264446 1.554308 0.311609
v 0.260413 2.153466 0.343129
v 0.320722 1.586068 -0.284901
v 0.316689 2.185226 -0.253381
v -0.332895 1.553255 0.255199
v -0.336928 2.152413 0.286719
v -0.276620 1.585015 -0.341311
v -0.280653 2.184172 -0.309791
vt 0.151712 0.164304
vt 0.128453 0.121671
vt 0.152804 0.123501
vt 0.067175 0.157952
vt 0.127361 0.162474
vt 0.211899 0.168826
vt 0.150620 0.205107
vt 0.212991 0.128023
vt 0.214083 0.087220
vt 0.153896 0.082698
vt 0.120318 0.196104
vt 0.141703 0.159716
vt 0.141869 0.195827
vt 0.194969 0.159030
vt 0.066887 0.160679
vt 0.119987 0.123882
vt 0.120152 0.159993
vt 0.067052 0.196790
vt 0.120483 0.232215
vt 0.893013 0.803206
vt 0.953247 0.844041
vt 0.893013 0.844041
vt 0.953247 0.884875
vt 0.893013 0.884875
vt 0.893013 0.925710
vt 0.868643 0.884875
vt 0.808410 0.844041
vt 0.868643 0.844041
vt 0.977617 0.884875
vt 0.741845 0.545283
vt 0.663028 0.598717
vt 0.663028 0.545283
vt 0.741845 0.652150
vt 0.663028 0.652150
vt 0.741845 0.705584
vt 0.663028 0.705584
vt 0.631139 0.652150
vt 0.552321 0.598717
vt 0.631139 0.598717
vt 0.741845 0.598717
vt 0.773734 0.652150
vt 0.237342 0.129853
vt 0.236250 0.170656
vt 0.045336 0.160957
vt 0.045501 0.197068
vt 0.113861 0.154921
vt 0.095990 0.121280
vt 0.114964 0.123128
vt 0.094887 0.153073
vt 0.049093 0.116713
vt 0.116067 0.091335
vt 0.161861 0.127695
vt 0.160758 0.159488
vt 0.112759 0.186714
vt 0.159655 0.191281
vt 0.153193 0.158992
vt 0.134495 0.188340
vt 0.135087 0.158002
vt 0.197352 0.191779
vt 0.152601 0.189330
vt 0.133904 0.218678
vt 0.089745 0.185892
vt 0.090336 0.155553
vt 0.135678 0.127663
vt 0.090927 0.125215
vt 0.893013 0.809899
vt 0.820174 0.859280
vt 0.820174 0.809899
vt 0.893013 0.859280
vt 0.820174 0.908661
vt 0.893013 0.958041
vt 0.893013 0.908661
vt 0.922484 0.908660
vt 0.995323 0.859280
vt 0.995323 0.908660
vt 0.790703 0.908661
vt 0.668850 0.601598
vt 0.627314 0.573439
vt 0.668850 0.573439
vt 0.627314 0.629757
vt 0.627314 0.601598
vt 0.668850 0.629757
vt 0.627314 0.657916
vt 0.685655 0.629757
vt 0.727191 0.601598
vt 0.727191 0.629757
vt 0.610509 0.601598
vt 0.114767 0.168293
vt 0.095916 0.220936
vt 0.095916 0.168293
vt 0.143042 0.168293
vt 0.114767 0.220936
vt 0.161893 0.168293
vt 0.143042 0.220936
vt 0.114767 0.136707
vt 0.143042 0.084063
vt 0.143042 0.136707
vt 0.114767 0.252523
vt 0.679363 0.612195
vt 0.705410 0.568551
vt 0.705410 0.612195
vt 0.653316 0.568551
vt 0.679363 0.568551
vt 0.627270 0.612195
vt 0.653316 0.612195
vt 0.653316 0.655839
vt 0.679363 0.699483
vt 0.653316 0.699483
vt 0.679363 0.655839
vt 0.653316 0.524907
vt 0.922484 0.859280
vt 0.180835 0.129543
vt 0.072230 0.154563
vt 0.071639 0.184901
vt 0.685655 0.601598
vt 0.068267 0.117149
vt 0.210807 0.209629
vt 0.195135 0.195141
vt 0.066721 0.124568
vt 0.067218 0.232901
vt 0.953247 0.803206
vt 0.953247 0.925710
vt 0.808410 0.884875
vt 0.977617 0.844041
vt 0.552321 0.652150
vt 0.773734 0.598717
vt 0.047991 0.148506
vt 0.162963 0.095902
vt 0.197943 0.161440
vt 0.089154 0.216230
vt 0.820174 0.958041
vt 0.790703 0.859280
vt 0.668850 0.657916
vt 0.610509 0.629757
vt 0.161893 0.220936
vt 0.114767 0.084063
vt 0.143042 0.252523
vt 0.627270 0.568551
vt 0.679363 0.524907
vt 0.179732 0.161336
vn -0.0301 -0.8356 0.5485
vn -0.0716 0.5492 0.8327
vn 0.9970 0.0142 0.0763
vn 0.0716 -0.5492 -0.8327
vn -0.9970 -0.0142 -0.0763
vn 0.0012 -0.9986 -0.0525
vn 0.0190 -0.0525 0.9984
vn 0.9998 0.0022 -0.0189
vn -0.0190 0.0525 -0.9984
vn -0.9998 -0.0022 0.0189
vn -0.9972 -0.0160 -0.0732
vn 0.0514 0.1993 -0.9786
vn 0.9972 0.0161 0.0737
vn -0.0419 -0.1912 0.9807
vn -0.0297 0.9813 0.1900
vn -0.9998 -0.0030 0.0183
vn -0.0174 -0.1981 -0.9800
vn 0.9998 0.0030 -0.0183
vn 0.0178 0.2007 0.9795
vn -0.0064 0.9806 -0.1958
vn -0.0715 -0.9961 -0.0514
vn 0.0301 0.8356 -0.5485
vn -0.0012 0.9986 0.0525
vn 0.0050 -0.9891 0.1474
vn -0.0404 -0.9277 0.3712
vn 0.0612 0.3685 0.9276
vn -0.9973 0.0602 0.0419
vn -0.0612 -0.3685 -0.9276
vn 0.9973 -0.0602 -0.0419
vn 0.0047 -0.9884 -0.1517
vn -0.0209 -0.1517 0.9882
vn -0.9998 -0.0015 -0.0214
vn 0.0209 0.1517 -0.9882
vn 0.9998 0.0015 0.0214
vn 0.9973 -0.0627 -0.0392
vn -0.0114 0.3938 -0.9191
vn -0.9972 0.0626 0.0397
vn 0.0106 -0.4030 0.9152
vn 0.0730 0.9175 0.3909
vn 0.9998 0.0009 0.0208
vn 0.0207 -0.0437 -0.9988
vn -0.9998 -0.0010 -0.0207
vn -0.0207 0.0459 0.9987
vn -0.0001 0.9991 -0.0421
vn 0.9982 0.0000 0.0592
vn 0.0592 0.0000 -0.9982
vn -0.9982 0.0000 -0.0592
vn -0.0592 0.0000 0.9982
vn 0.0000 -1.0000 0.0000
vn 0.0000 1.0000 0.0000
vn 0.9956 0.0018 0.0940
vn 0.0938 0.0529 -0.9942
vn -0.9956 -0.0018 -0.0940
vn -0.0938 -0.0529 0.9942
vn 0.0067 -0.9986 -0.0525
vn -0.0067 0.9986 0.0525
vn -0.1108 -0.9201 -0.3758
vn 0.0404 0.9277 -0.3712
vn -0.0047 0.9884 0.1517
vn 0.0007 -1.0000 0.0032
vn 0.0687 0.1928 -0.9788
vn 0.9972 0.0160 0.0732
vn -0.0684 -0.2025 0.9769
vn -0.9998 -0.0029 0.0181
vn -0.0171 -0.1982 -0.9800
vn 0.9998 0.0029 -0.0181
vn 0.0171 0.2004 0.9796
vn 0.0664 -0.9827 -0.1731
vn 0.0059 -0.9892 0.1465
vn 0.0061 0.3989 -0.9170
vn -0.9973 0.0627 0.0392
vn -0.0158 -0.3908 0.9203
vn 0.9998 0.0010 0.0207
vn 0.0209 -0.0436 -0.9988
vn -0.9998 -0.0009 -0.0208
vn -0.0212 0.0461 0.9987
vn 0.0215 -0.9671 -0.2534
vn 0.0014 -1.0000 0.0039
s off
f 4/1/1 1/2/1 2/3/1
f 8/4/2 1/2/2 3/5/2
f 7/6/3 3/7/3 4/1/3
f 6/8/4 4/1/4 2/3/4
f 5/9/5 2/3/5 1/10/5
f 10/11/6 11/12/6 9/13/6
f 16/14/7 9/13/7 11/12/7
f 15/15/8 11/16/8 12/17/8
f 14/18/9 12/17/9 10/11/9
f 9/19/10 14/18/10 10/11/10
f 25/20/11 18/21/11 26/22/11
f 26/22/12 20/23/12 27/24/12
f 20/23/13 28/25/13 27/24/13
f 28/26/14 17/27/14 25/28/14
f 18/21/15 19/29/15 20/23/15
f 21/30/16 30/31/16 29/32/16
f 30/31/17 24/33/17 31/34/17
f 31/34/18 23/35/18 32/36/18
f 32/37/19 21/38/19 29/39/19
f 22/40/20 23/41/20 24/33/20
f 28/26/21 26/22/21 27/24/21
f 7/6/22 5/42/22 8/43/22
f 16/44/23 14/18/23 13/45/23
f 32/37/24 30/31/24 31/34/24
f 34/46/25 35/47/25 36/48/25
f 33/49/26 40/50/26 35/47/26
f 35/51/27 39/52/27 36/48/27
f 36/48/28 38/53/28 34/46/28
f 33/54/29 38/53/29 37/55/29
f 41/56/30 44/57/30 42/58/30
f 41/56/31 48/59/31 43/60/31
f 43/61/32 47/62/32 44/57/32
f 44/57/33 46/63/33 42/58/33
f 41/64/34 46/63/34 45/65/34
f 57/66/35 50/67/35 49/68/35
f 58/69/36 52/70/36 50/67/36
f 60/71/37 52/70/37 59/72/37
f 60/73/38 49/74/38 51/75/38
f 51/76/39 50/67/39 52/70/39
f 62/77/40 53/78/40 61/79/40
f 62/77/41 56/80/41 54/81/41
f 63/82/42 55/83/42 56/80/42
f 64/84/43 53/85/43 55/86/43
f 56/80/44 53/87/44 54/81/44
f 67/88/45 66/89/45 65/90/45
f 71/91/46 68/92/46 67/88/46
f 69/93/47 72/94/47 71/91/47
f 65/95/48 70/96/48 69/97/48
f 65/95/49 71/91/49 67/88/49
f 72/94/50 66/98/50 68/92/50
f 75/99/51 74/100/51 73/101/51
f 75/99/52 80/102/52 76/103/52
f 77/104/53 80/102/53 79/105/53
f 77/106/54 74/107/54 78/108/54
f 73/109/55 79/105/55 75/99/55
f 78/110/56 76/103/56 80/102/56
f 60/73/57 58/69/57 57/111/57
f 40/112/58 38/53/58 39/52/58
f 45/113/59 47/62/59 48/114/59
f 64/84/60 62/77/60 61/115/60
f 4/1/1 3/5/1 1/2/1
f 8/4/2 5/116/2 1/2/2
f 7/6/3 8/117/3 3/7/3
f 6/8/4 7/6/4 4/1/4
f 5/9/5 6/8/5 2/3/5
f 10/11/6 12/17/6 11/12/6
f 16/14/7 13/118/7 9/13/7
f 15/15/8 16/119/8 11/16/8
f 14/18/9 15/15/9 12/17/9
f 9/19/10 13/120/10 14/18/10
f 25/20/11 17/121/11 18/21/11
f 26/22/61 18/21/61 20/23/61
f 20/23/62 19/122/62 28/25/62
f 28/26/63 19/123/63 17/27/63
f 18/21/15 17/124/15 19/29/15
f 21/30/64 22/40/64 30/31/64
f 30/31/65 22/40/65 24/33/65
f 31/34/66 24/33/66 23/35/66
f 32/37/67 23/125/67 21/38/67
f 22/40/20 21/126/20 23/41/20
f 28/26/68 25/28/68 26/22/68
f 7/6/22 6/8/22 5/42/22
f 16/44/23 15/15/23 14/18/23
f 32/37/69 29/39/69 30/31/69
f 34/46/25 33/49/25 35/47/25
f 33/49/26 37/127/26 40/50/26
f 35/51/27 40/128/27 39/52/27
f 36/48/28 39/52/28 38/53/28
f 33/54/29 34/46/29 38/53/29
f 41/56/30 43/60/30 44/57/30
f 41/56/31 45/129/31 48/59/31
f 43/61/32 48/130/32 47/62/32
f 44/57/33 47/62/33 46/63/33
f 41/64/34 42/58/34 46/63/34
f 57/66/35 58/69/35 50/67/35
f 58/69/70 59/72/70 52/70/70
f 60/71/71 51/131/71 52/70/71
f 60/73/72 57/111/72 49/74/72
f 51/76/39 49/132/39 50/67/39
f 62/77/73 54/81/73 53/78/73
f 62/77/74 63/82/74 56/80/74
f 63/82/75 64/133/75 55/83/75
f 64/84/76 61/115/76 53/85/76
f 56/80/44 55/134/44 53/87/44
f 67/88/45 68/92/45 66/89/45
f 71/91/46 72/94/46 68/92/46
f 69/93/47 70/135/47 72/94/47
f 65/95/48 66/136/48 70/96/48
f 65/95/49 69/97/49 71/91/49
f 72/94/50 70/137/50 66/98/50
f 75/99/51 76/103/51 74/100/51
f 75/99/52 79/105/52 80/102/52
f 77/104/53 78/138/53 80/102/53
f 77/106/54 73/109/54 74/107/54
f 73/109/55 77/106/55 79/105/55
f 78/110/56 74/139/56 76/103/56
f 60/73/77 59/72/77 58/69/77
f 40/112/58 37/140/58 38/53/58
f 45/113/59 46/63/59 47/62/59
f 64/84/78 63/82/78 62/77/78
