# Blender v2.79 (sub 0) OBJ File: '3DObjectDecoderObjects.blend'
# www.blender.org
o Cube.001_Cube.000
v 0.693048 0.270241 1.087056
v 0.868593 -0.083530 0.999154
v 1.046584 0.411690 1.223808
v 1.222128 0.057919 1.135906
v 0.912631 0.606734 0.171329
v 1.088176 0.252962 0.083427
v 1.441712 0.394412 0.220179
v 1.266167 0.748183 0.308081
v 0.083770 -1.964362 0.718798
v 0.075315 -1.985535 0.314844
v 0.488274 -1.963604 0.710291
v 0.479819 -1.984777 0.306338
v 0.080798 -0.965733 0.666518
v 0.072344 -0.986906 0.262565
v 0.476848 -0.986148 0.254058
v 0.485302 -0.964975 0.658011
v 0.586657 1.351609 0.246150
v 0.732383 1.345976 -0.131248
v 0.940897 1.493292 0.380820
v 1.086624 1.487659 0.003422
v 0.067256 0.013391 0.160571
v 0.060821 -0.176010 -0.196898
v 0.471768 0.014787 0.152549
v 0.465334 -0.174613 -0.204920
v 0.908670 0.415032 0.384468
v 1.057243 0.401175 0.008331
v 1.429933 0.488514 0.152271
v 1.264256 0.573925 0.497485
v 0.080081 -0.887991 0.645156
v 0.073054 -1.046524 0.269914
v 0.477568 -1.045566 0.261878
v 0.484580 -0.886563 0.636599
v -0.983015 0.173229 -0.095890
v -1.093246 -0.074476 -0.396215
v -1.369048 0.283062 -0.044789
v -1.479280 0.035357 -0.345114
v -0.858839 0.915864 -0.753985
v -0.969071 0.668159 -1.054310
v -1.355105 0.777992 -1.003209
v -1.244873 1.025697 -0.702883
v -0.079577 -2.090516 -0.275563
v -0.071154 -1.933747 -0.648456
v -0.484079 -2.088956 -0.284044
v -0.475657 -1.932187 -0.656937
v -0.084146 -1.168642 0.111902
v -0.075724 -1.011873 -0.260991
v -0.480226 -1.010313 -0.269472
v -0.488649 -1.167083 0.103421
v -0.685816 1.173212 0.019352
v -0.634201 1.470069 -0.250676
v -1.071548 1.284978 0.068491
v -1.019934 1.581836 -0.201536
v -0.079442 -0.071575 0.136238
v -0.071576 -0.065897 -0.268241
v -0.483956 -0.069710 0.128396
v -0.476089 -0.064033 -0.276082
v -0.959289 0.552446 -0.715415
v -0.910931 0.841074 -0.992017
v -1.318279 0.897679 -0.985335
v -1.336276 0.697232 -0.672489
v -0.084080 -1.092131 0.127999
v -0.075920 -1.054986 -0.277950
v -0.480432 -1.053460 -0.285980
v -0.488583 -1.090025 0.119750
v 0.536169 0.032640 0.508302
v 0.536169 1.432640 0.508302
v 0.691508 0.032640 -0.317209
v 0.691508 1.432640 -0.317209
v -0.702098 0.032640 0.275293
v -0.702098 1.432640 0.275293
v -0.546759 0.032640 -0.550218
v -0.546759 1.432640 -0.550218
v 0.183362 1.481686 0.370915
v 0.154022 2.073647 0.464306
v 0.365575 1.579574 -0.192304
v 0.336235 2.171534 -0.098914
v -0.387548 1.482507 0.186357
v -0.416887 2.074467 0.279747
v -0.205334 1.580394 -0.376863
v -0.234674 2.172354 -0.283473
vt 0.151712 0.164304
vt 0.128453 0.121671
vt 0.152804 0.123501
vt 0.067175 0.157952
vt 0.127361 0.162474
vt 0.211899 0.168826
vt 0.150620 0.205107
vt 0.212991 0.128023
vt 0.214083 0.087220
vt 0.153896 0.082698
vt 0.120318 0.196104
vt 0.141703 0.159716
vt 0.141869 0.195827
vt 0.194969 0.159030
vt 0.066887 0.160679
vt 0.119987 0.123882
vt 0.120152 0.159993
vt 0.120483 0.232215
vt 0.067052 0.196790
vt 0.893013 0.803206
vt 0.953247 0.844041
vt 0.893013 0.844041
vt 0.953247 0.884875
vt 0.893013 0.884875
vt 0.893013 0.925710
vt 0.868643 0.884875
vt 0.808410 0.844041
vt 0.868643 0.844041
vt 0.977617 0.844041
vt 0.977617 0.884875
vt 0.741845 0.545283
vt 0.663028 0.598717
vt 0.663028 0.545283
vt 0.741845 0.652150
vt 0.663028 0.652150
vt 0.741845 0.705584
vt 0.663028 0.705584
vt 0.631139 0.652150
vt 0.552321 0.598717
vt 0.631139 0.598717
vt 0.741845 0.598717
vt 0.773734 0.652150
vt 0.237342 0.129853
vt 0.236250 0.170656
vt 0.045336 0.160957
vt 0.045501 0.197068
vt 0.113861 0.154921
vt 0.095990 0.121280
vt 0.114964 0.123128
vt 0.094887 0.153073
vt 0.049093 0.116713
vt 0.116067 0.091335
vt 0.161861 0.127695
vt 0.160758 0.159488
vt 0.159655 0.191281
vt 0.112759 0.186714
vt 0.153193 0.158992
vt 0.134495 0.188340
vt 0.135087 0.158002
vt 0.197352 0.191779
vt 0.152601 0.189330
vt 0.133904 0.218678
vt 0.089745 0.185892
vt 0.090336 0.155553
vt 0.135678 0.127663
vt 0.090927 0.125215
vt 0.893013 0.809899
vt 0.820174 0.859280
vt 0.820174 0.809899
vt 0.893013 0.859280
vt 0.820174 0.908661
vt 0.893013 0.958041
vt 0.893013 0.908661
vt 0.922484 0.908660
vt 0.995323 0.859280
vt 0.995323 0.908660
vt 0.790703 0.908661
vt 0.668850 0.601598
vt 0.627314 0.573439
vt 0.668850 0.573439
vt 0.627314 0.629757
vt 0.627314 0.601598
vt 0.668850 0.629757
vt 0.627314 0.657916
vt 0.685655 0.629757
vt 0.727191 0.601598
vt 0.727191 0.629757
vt 0.610509 0.601598
vt 0.114767 0.168293
vt 0.095916 0.220936
vt 0.095916 0.168293
vt 0.143042 0.168293
vt 0.114767 0.220936
vt 0.161893 0.168293
vt 0.143042 0.220936
vt 0.114767 0.136707
vt 0.143042 0.084063
vt 0.143042 0.136707
vt 0.143042 0.252523
vt 0.679363 0.612195
vt 0.705410 0.568551
vt 0.705410 0.612195
vt 0.653316 0.612195
vt 0.679363 0.568551
vt 0.627270 0.568551
vt 0.653316 0.568551
vt 0.679363 0.655839
vt 0.653316 0.699483
vt 0.653316 0.655839
vt 0.653316 0.524907
vt 0.922484 0.859280
vt 0.180835 0.129543
vt 0.072230 0.154563
vt 0.071639 0.184901
vt 0.685655 0.601598
vt 0.068267 0.117149
vt 0.210807 0.209629
vt 0.195135 0.195141
vt 0.066721 0.124568
vt 0.067218 0.232901
vt 0.953247 0.803206
vt 0.953247 0.925710
vt 0.808410 0.884875
vt 0.552321 0.652150
vt 0.773734 0.598717
vt 0.047991 0.148506
vt 0.162963 0.095902
vt 0.197943 0.161440
vt 0.089154 0.216230
vt 0.820174 0.958041
vt 0.790703 0.859280
vt 0.668850 0.657916
vt 0.610509 0.629757
vt 0.161893 0.220936
vt 0.114767 0.084063
vt 0.114767 0.252523
vt 0.627270 0.612195
vt 0.679363 0.699483
vt 0.679363 0.524907
vt 0.179732 0.161336
vn -0.2196 -0.3365 0.9157
vn -0.4339 0.8744 0.2173
vn 0.8738 0.3496 0.3380
vn 0.4339 -0.8744 -0.2173
vn -0.8738 -0.3496 -0.3380
vn 0.0030 -0.9986 0.0523
vn 0.0209 0.0523 0.9984
vn 0.9998 0.0019 -0.0210
vn -0.0209 -0.0523 -0.9984
vn -0.9998 -0.0019 0.0210
vn -0.8755 -0.3502 -0.3329
vn 0.3631 -0.0140 -0.9316
vn 0.8753 0.3504 0.3334
vn -0.3155 0.0316 0.9484
vn -0.3220 0.9366 -0.1383
vn -0.9998 -0.0034 0.0202
vn -0.0164 -0.4725 -0.8812
vn 0.9998 0.0034 -0.0201
vn 0.0170 0.4736 0.8806
vn -0.0123 0.8837 -0.4680
vn 0.1113 -0.9509 0.2887
vn 0.2196 0.3365 -0.9157
vn -0.0030 0.9986 -0.0523
vn 0.0099 -0.9206 0.3904
vn -0.1242 -0.7426 0.6581
vn 0.2724 0.6122 0.7423
vn -0.9541 0.2715 0.1263
vn -0.2724 -0.6122 -0.7423
vn 0.9541 -0.2715 -0.1263
vn 0.0046 -0.9219 -0.3875
vn -0.0208 -0.3875 0.9216
vn -0.9998 0.0039 -0.0210
vn 0.0208 0.3875 -0.9216
vn 0.9998 -0.0039 0.0210
vn 0.9534 -0.2762 -0.1215
vn 0.1270 0.7325 -0.6689
vn -0.9534 0.2760 0.1220
vn -0.1357 -0.7520 0.6450
vn 0.2735 0.6208 0.7347
vn 0.9998 -0.0047 0.0197
vn 0.0194 0.0097 -0.9998
vn -0.9998 0.0046 -0.0194
vn -0.0194 -0.0084 0.9998
vn 0.0043 0.9999 0.0141
vn 0.9828 0.0000 0.1849
vn 0.1849 0.0000 -0.9828
vn -0.9828 0.0000 -0.1849
vn -0.1849 0.0000 0.9828
vn 0.0000 -1.0000 -0.0000
vn 0.0000 1.0000 0.0000
vn 0.9515 -0.0014 0.3076
vn 0.3037 0.1631 -0.9387
vn -0.9515 0.0014 -0.3076
vn -0.3037 -0.1631 0.9387
vn 0.0489 -0.9866 -0.1557
vn -0.0489 0.9866 0.1557
vn -0.3215 -0.6265 -0.7100
vn 0.1242 0.7426 -0.6581
vn -0.0046 0.9219 0.3875
vn -0.0033 -0.9958 -0.0912
vn 0.3602 -0.0140 -0.9328
vn 0.8755 0.3502 0.3329
vn -0.3534 -0.0056 0.9355
vn -0.9998 -0.0034 0.0198
vn -0.0158 -0.4727 -0.8811
vn 0.9998 0.0034 -0.0198
vn 0.0158 0.4732 0.8808
vn 0.3551 -0.9185 0.1741
vn 0.0115 -0.9212 0.3890
vn 0.0908 0.7329 -0.6743
vn -0.9534 0.2763 0.1215
vn -0.1965 -0.7117 0.6744
vn 0.9998 -0.0046 0.0194
vn 0.0199 0.0099 -0.9998
vn -0.9998 0.0047 -0.0197
vn -0.0204 -0.0080 0.9998
vn -0.0489 0.9866 0.1556
vn -0.1245 -0.8322 -0.5404
vn -0.0020 -0.9960 -0.0898
s off
f 4/1/1 1/2/1 2/3/1
f 8/4/2 1/2/2 3/5/2
f 7/6/3 3/7/3 4/1/3
f 6/8/4 4/1/4 2/3/4
f 5/9/5 2/3/5 1/10/5
f 10/11/6 11/12/6 9/13/6
f 16/14/7 9/13/7 11/12/7
f 15/15/8 11/16/8 12/17/8
f 10/11/9 15/15/9 12/17/9
f 9/18/10 14/19/10 10/11/10
f 25/20/11 18/21/11 26/22/11
f 26/22/12 20/23/12 27/24/12
f 20/23/13 28/25/13 27/24/13
f 28/26/14 17/27/14 25/28/14
f 20/23/15 17/29/15 19/30/15
f 21/31/16 30/32/16 29/33/16
f 30/32/17 24/34/17 31/35/17
f 31/35/18 23/36/18 32/37/18
f 32/38/19 21/39/19 29/40/19
f 22/41/20 23/42/20 24/34/20
f 28/26/21 26/22/21 27/24/21
f 7/6/22 5/43/22 8/44/22
f 16/45/23 14/19/23 13/46/23
f 32/38/24 30/32/24 31/35/24
f 34/47/25 35/48/25 36/49/25
f 33/50/26 40/51/26 35/48/26
f 35/52/27 39/53/27 36/49/27
f 36/49/28 38/54/28 34/47/28
f 34/47/29 37/55/29 33/56/29
f 41/57/30 44/58/30 42/59/30
f 41/57/31 48/60/31 43/61/31
f 43/62/32 47/63/32 44/58/32
f 44/58/33 46/64/33 42/59/33
f 41/65/34 46/64/34 45/66/34
f 57/67/35 50/68/35 49/69/35
f 58/70/36 52/71/36 50/68/36
f 60/72/37 52/71/37 59/73/37
f 60/74/38 49/75/38 51/76/38
f 51/77/39 50/68/39 52/71/39
f 62/78/40 53/79/40 61/80/40
f 62/78/41 56/81/41 54/82/41
f 63/83/42 55/84/42 56/81/42
f 64/85/43 53/86/43 55/87/43
f 56/81/44 53/88/44 54/82/44
f 67/89/45 66/90/45 65/91/45
f 71/92/46 68/93/46 67/89/46
f 69/94/47 72/95/47 71/92/47
f 65/96/48 70/97/48 69/98/48
f 65/96/49 71/92/49 67/89/49
f 70/99/50 68/93/50 72/95/50
f 75/100/51 74/101/51 73/102/51
f 79/103/52 76/104/52 75/100/52
f 79/103/53 78/105/53 80/106/53
f 73/107/54 78/108/54 77/109/54
f 75/100/55 77/109/55 79/103/55
f 78/110/56 76/104/56 80/106/56
f 60/74/57 58/70/57 57/111/57
f 40/112/58 38/54/58 39/53/58
f 45/113/59 47/63/59 48/114/59
f 64/85/60 62/78/60 61/115/60
f 4/1/1 3/5/1 1/2/1
f 8/4/2 5/116/2 1/2/2
f 7/6/3 8/117/3 3/7/3
f 6/8/4 7/6/4 4/1/4
f 5/9/5 6/8/5 2/3/5
f 10/11/6 12/17/6 11/12/6
f 16/14/7 13/118/7 9/13/7
f 15/15/8 16/119/8 11/16/8
f 10/11/9 14/19/9 15/15/9
f 9/18/10 13/120/10 14/19/10
f 25/20/11 17/121/11 18/21/11
f 26/22/61 18/21/61 20/23/61
f 20/23/62 19/122/62 28/25/62
f 28/26/63 19/123/63 17/27/63
f 20/23/15 18/21/15 17/29/15
f 21/31/64 22/41/64 30/32/64
f 30/32/65 22/41/65 24/34/65
f 31/35/66 24/34/66 23/36/66
f 32/38/67 23/124/67 21/39/67
f 22/41/20 21/125/20 23/42/20
f 28/26/68 25/28/68 26/22/68
f 7/6/22 6/8/22 5/43/22
f 16/45/23 15/15/23 14/19/23
f 32/38/69 29/40/69 30/32/69
f 34/47/25 33/50/25 35/48/25
f 33/50/26 37/126/26 40/51/26
f 35/52/27 40/127/27 39/53/27
f 36/49/28 39/53/28 38/54/28
f 34/47/29 38/54/29 37/55/29
f 41/57/30 43/61/30 44/58/30
f 41/57/31 45/128/31 48/60/31
f 43/62/32 48/129/32 47/63/32
f 44/58/33 47/63/33 46/64/33
f 41/65/34 42/59/34 46/64/34
f 57/67/35 58/70/35 50/68/35
f 58/70/70 59/73/70 52/71/70
f 60/72/71 51/130/71 52/71/71
f 60/74/72 57/111/72 49/75/72
f 51/77/39 49/131/39 50/68/39
f 62/78/73 54/82/73 53/79/73
f 62/78/74 63/83/74 56/81/74
f 63/83/75 64/132/75 55/84/75
f 64/85/76 61/115/76 53/86/76
f 56/81/44 55/133/44 53/88/44
f 67/89/45 68/93/45 66/90/45
f 71/92/46 72/95/46 68/93/46
f 69/94/47 70/134/47 72/95/47
f 65/96/48 66/135/48 70/97/48
f 65/96/49 69/98/49 71/92/49
f 70/99/50 66/136/50 68/93/50
f 75/100/51 76/104/51 74/101/51
f 79/103/52 80/106/52 76/104/52
f 79/103/53 77/137/53 78/105/53
f 73/107/54 74/138/54 78/108/54
f 75/100/55 73/107/55 77/109/55
f 78/110/77 74/139/77 76/104/77
f 60/74/78 59/73/78 58/70/78
f 40/112/58 37/140/58 38/54/58
f 45/113/59 46/64/59 47/63/59
f 64/85/79 63/83/79 62/78/79
