# Blender v2.79 (sub 0) OBJ File: '3DObjectDecoderObjects.blend'
# www.blender.org
o Cube.001_Cube.000
v 0.658529 -0.588618 0.249688
v 0.660932 -0.566299 -0.154283
v 1.063063 -0.595275 0.251726
v 1.065466 -0.572956 -0.152245
v 0.674680 0.409723 0.304941
v 0.677083 0.432042 -0.099030
v 1.081617 0.425385 -0.096992
v 1.079214 0.403066 0.306980
v 0.079022 -2.073046 0.151483
v 0.071812 -2.084467 -0.252888
v 0.483549 -2.071774 0.144234
v 0.476340 -2.083194 -0.260137
v 0.075373 -1.073451 0.123322
v 0.068163 -1.084871 -0.281049
v 0.472690 -1.083599 -0.288298
v 0.479900 -1.072178 0.116073
v 0.694150 1.516439 0.160300
v 0.695542 1.462888 -0.240732
v 1.098679 1.509548 0.162625
v 1.100071 1.455997 -0.238407
v 0.073630 -0.027178 0.191642
v 0.066182 -0.000891 -0.212031
v 0.478155 -0.026007 0.184253
v 0.470707 0.000278 -0.219420
v 0.676508 0.525383 0.292577
v 0.677910 0.473085 -0.107683
v 1.082506 0.474562 -0.100397
v 1.080968 0.514031 0.296155
v 0.075249 -1.020368 0.124275
v 0.067888 -1.001568 -0.277611
v 0.472413 -1.000308 -0.284970
v 0.479777 -1.019237 0.116995
v -0.698418 -0.557142 0.198826
v -0.703142 -0.574406 -0.205385
v -1.102984 -0.557598 0.203573
v -1.107709 -0.574862 -0.200638
v -0.700047 0.441947 0.156152
v -0.704771 0.424684 -0.248059
v -1.109337 0.424227 -0.243312
v -1.104613 0.441491 0.160899
v -0.079794 -2.066574 0.206797
v -0.070988 -2.088475 -0.197109
v -0.484292 -2.067724 0.198040
v -0.475485 -2.089625 -0.205866
v -0.081459 -1.068044 0.152618
v -0.072652 -1.089946 -0.251288
v -0.477150 -1.091095 -0.260045
v -0.485956 -1.069194 0.143861
v -0.700772 1.482636 0.182007
v -0.705429 1.492133 -0.222462
v -1.105340 1.482265 0.186656
v -1.109997 1.491762 -0.217813
v -0.085543 -0.019762 0.189344
v -0.076704 -0.005615 -0.214907
v -0.490037 -0.021013 0.180457
v -0.481199 -0.006866 -0.223794
v -0.700124 0.482911 0.158536
v -0.704786 0.491974 -0.246218
v -1.109389 0.488706 -0.243402
v -1.104693 0.484124 0.162789
v -0.081623 -1.014725 0.152078
v -0.072837 -1.007683 -0.250265
v -0.477332 -1.008848 -0.259126
v -0.486121 -1.016011 0.143296
v 0.624705 0.087224 0.399042
v 0.624705 1.487224 0.399042
v 0.624705 0.087224 -0.440958
v 0.624705 1.487224 -0.440958
v -0.635295 0.087224 0.399042
v -0.635295 1.487224 0.399042
v -0.635295 0.087224 -0.440958
v -0.635295 1.487224 -0.440958
v 0.294886 1.586962 0.278969
v 0.294677 2.186960 0.279699
v 0.294441 1.587691 -0.321030
v 0.294232 2.187690 -0.320300
v -0.305114 1.586753 0.279414
v -0.305322 2.186752 0.280144
v -0.305559 1.587482 -0.320585
v -0.305767 2.187481 -0.319856
vt 0.151712 0.164304
vt 0.128453 0.121671
vt 0.152804 0.123501
vt 0.127361 0.162474
vt 0.068267 0.117149
vt 0.210807 0.209629
vt 0.150620 0.205107
vt 0.212991 0.128023
vt 0.214083 0.087220
vt 0.153896 0.082698
vt 0.120318 0.196104
vt 0.141703 0.159716
vt 0.141869 0.195827
vt 0.194969 0.159030
vt 0.066887 0.160679
vt 0.119987 0.123882
vt 0.120152 0.159993
vt 0.120483 0.232215
vt 0.067052 0.196790
vt 0.953247 0.803206
vt 0.893013 0.844041
vt 0.893013 0.803206
vt 0.953247 0.844041
vt 0.893013 0.884875
vt 0.953247 0.925710
vt 0.893013 0.925710
vt 0.808410 0.884875
vt 0.868643 0.844041
vt 0.868643 0.884875
vt 0.953247 0.884875
vt 0.977617 0.844041
vt 0.977617 0.884875
vt 0.663028 0.545283
vt 0.741845 0.598717
vt 0.663028 0.598717
vt 0.663028 0.652150
vt 0.741845 0.652150
vt 0.663028 0.705584
vt 0.552321 0.652150
vt 0.631139 0.598717
vt 0.631139 0.652150
vt 0.773734 0.652150
vt 0.211899 0.168826
vt 0.237342 0.129853
vt 0.236250 0.170656
vt 0.045336 0.160957
vt 0.045501 0.197068
vt 0.113861 0.154921
vt 0.095990 0.121280
vt 0.114964 0.123128
vt 0.094887 0.153073
vt 0.049093 0.116713
vt 0.162963 0.095902
vt 0.161861 0.127695
vt 0.160758 0.159488
vt 0.159655 0.191281
vt 0.112759 0.186714
vt 0.153193 0.158992
vt 0.134495 0.188340
vt 0.135087 0.158002
vt 0.152601 0.189330
vt 0.197943 0.161440
vt 0.197352 0.191779
vt 0.133904 0.218678
vt 0.089745 0.185892
vt 0.090336 0.155553
vt 0.135678 0.127663
vt 0.090927 0.125215
vt 0.893013 0.809899
vt 0.820174 0.859280
vt 0.820174 0.809899
vt 0.893013 0.859280
vt 0.820174 0.908661
vt 0.893013 0.958041
vt 0.893013 0.908661
vt 0.922484 0.908660
vt 0.995323 0.859280
vt 0.995323 0.908660
vt 0.790703 0.908661
vt 0.668850 0.573439
vt 0.627314 0.601598
vt 0.627314 0.573439
vt 0.668850 0.629757
vt 0.668850 0.601598
vt 0.668850 0.657916
vt 0.627314 0.629757
vt 0.685655 0.601598
vt 0.727191 0.629757
vt 0.685655 0.629757
vt 0.610509 0.601598
vt 0.114767 0.168293
vt 0.095916 0.220936
vt 0.095916 0.168293
vt 0.143042 0.168293
vt 0.114767 0.220936
vt 0.161893 0.168293
vt 0.143042 0.220936
vt 0.114767 0.136707
vt 0.143042 0.084063
vt 0.143042 0.136707
vt 0.143042 0.252523
vt 0.705410 0.612195
vt 0.679363 0.568551
vt 0.705410 0.568551
vt 0.653316 0.612195
vt 0.679363 0.612195
vt 0.627270 0.612195
vt 0.653316 0.568551
vt 0.679363 0.655839
vt 0.653316 0.699483
vt 0.653316 0.655839
vt 0.653316 0.524907
vt 0.922484 0.859280
vt 0.180835 0.129543
vt 0.071639 0.184901
vt 0.067175 0.157952
vt 0.195135 0.195141
vt 0.066721 0.124568
vt 0.067218 0.232901
vt 0.808410 0.844041
vt 0.741845 0.545283
vt 0.741845 0.705584
vt 0.552321 0.598717
vt 0.773734 0.598717
vt 0.047991 0.148506
vt 0.116067 0.091335
vt 0.089154 0.216230
vt 0.820174 0.958041
vt 0.790703 0.859280
vt 0.627314 0.657916
vt 0.727191 0.601598
vt 0.610509 0.629757
vt 0.161893 0.220936
vt 0.114767 0.084063
vt 0.114767 0.252523
vt 0.627270 0.568551
vt 0.679363 0.699483
vt 0.679363 0.524907
vt 0.179732 0.161336
vt 0.072230 0.154563
vn -0.0162 -0.9983 -0.0553
vn -0.0059 -0.0552 0.9985
vn 0.9999 -0.0165 0.0050
vn 0.0059 0.0552 -0.9985
vn -0.9999 0.0165 -0.0050
vn 0.0036 -0.9996 0.0282
vn 0.0178 0.0282 0.9994
vn 0.9998 0.0031 -0.0179
vn -0.0178 -0.0282 -0.9994
vn -0.9998 -0.0031 0.0179
vn -0.9998 0.0170 -0.0057
vn 0.0183 -0.1335 -0.9909
vn 0.9998 -0.0170 0.0056
vn -0.0050 0.1330 0.9911
vn 0.0176 0.9911 -0.1323
vn -0.9998 -0.0029 0.0182
vn -0.0184 0.0654 -0.9977
vn 0.9998 0.0029 -0.0182
vn 0.0181 -0.0675 0.9976
vn -0.0017 0.9979 0.0650
vn -0.0288 -0.9947 0.0989
vn 0.0162 0.9983 0.0553
vn -0.0036 0.9996 -0.0282
vn 0.0019 -0.9989 -0.0471
vn 0.0016 -0.9991 0.0427
vn 0.0117 0.0427 0.9990
vn -0.9999 -0.0011 0.0117
vn -0.0117 -0.0427 -0.9990
vn 0.9999 0.0011 -0.0117
vn 0.0017 -0.9985 0.0542
vn -0.0218 0.0541 0.9983
vn -0.9998 -0.0028 -0.0216
vn 0.0218 -0.0541 -0.9983
vn 0.9998 0.0028 0.0216
vn 0.9999 0.0009 -0.0115
vn -0.0115 0.0237 -0.9997
vn -0.9999 -0.0009 0.0115
vn 0.0115 -0.0239 0.9996
vn -0.0006 0.9997 0.0235
vn 0.9998 0.0031 0.0220
vn 0.0218 0.0353 -0.9991
vn -0.9998 -0.0031 -0.0219
vn -0.0216 -0.0374 0.9991
vn -0.0039 0.9994 0.0349
vn 1.0000 0.0000 0.0000
vn 0.0000 0.0000 -1.0000
vn -1.0000 0.0000 0.0000
vn 0.0000 0.0000 1.0000
vn 0.0000 -1.0000 0.0000
vn 0.0000 1.0000 0.0000
vn 1.0000 0.0003 -0.0007
vn -0.0007 0.0012 -1.0000
vn -1.0000 -0.0003 0.0007
vn 0.0007 -0.0012 1.0000
vn 0.0003 -1.0000 -0.0012
vn -0.0003 1.0000 0.0012
vn -0.0032 -0.9997 -0.0224
vn -0.0016 0.9991 -0.0427
vn -0.0017 0.9985 -0.0542
vn 0.0036 -0.9998 -0.0177
vn 0.0033 -0.1393 -0.9902
vn 0.9998 -0.0171 0.0058
vn -0.0034 0.1324 0.9912
vn -0.9998 -0.0029 0.0183
vn -0.0184 0.0653 -0.9977
vn 0.9998 0.0029 -0.0183
vn 0.0184 -0.0676 0.9975
vn 0.0013 -0.9916 0.1296
vn 0.0023 -0.9989 -0.0468
vn -0.0072 0.0255 -0.9996
vn 0.0104 -0.0235 0.9997
vn 0.9998 0.0031 0.0219
vn -0.9998 -0.0031 -0.0220
vn -0.0218 -0.0375 0.9991
vn 0.0080 -0.9999 -0.0114
vn 0.0033 -0.9998 -0.0174
s off
f 4/1/1 1/2/1 2/3/1
f 3/4/2 5/5/2 1/2/2
f 4/1/3 8/6/3 3/7/3
f 6/8/4 4/1/4 2/3/4
f 5/9/5 2/3/5 1/10/5
f 10/11/6 11/12/6 9/13/6
f 16/14/7 9/13/7 11/12/7
f 15/15/8 11/16/8 12/17/8
f 10/11/9 15/15/9 12/17/9
f 9/18/10 14/19/10 10/11/10
f 17/20/11 26/21/11 25/22/11
f 18/23/12 27/24/12 26/21/12
f 27/24/13 19/25/13 28/26/13
f 19/27/14 25/28/14 28/29/14
f 20/30/15 17/31/15 19/32/15
f 29/33/16 22/34/16 30/35/16
f 22/34/17 31/36/17 30/35/17
f 24/37/18 32/38/18 31/36/18
f 23/39/19 29/40/19 32/41/19
f 22/34/20 23/42/20 24/37/20
f 25/28/21 27/24/21 28/29/21
f 7/43/22 5/44/22 8/45/22
f 16/46/23 14/19/23 13/47/23
f 29/40/24 31/36/24 32/41/24
f 34/48/25 35/49/25 36/50/25
f 33/51/26 40/52/26 35/49/26
f 36/50/27 40/53/27 39/54/27
f 36/50/28 38/55/28 34/48/28
f 34/48/29 37/56/29 33/57/29
f 41/58/30 44/59/30 42/60/30
f 43/61/31 45/62/31 48/63/31
f 43/64/32 47/65/32 44/59/32
f 44/59/33 46/66/33 42/60/33
f 41/67/34 46/66/34 45/68/34
f 57/69/35 50/70/35 49/71/35
f 58/72/36 52/73/36 50/70/36
f 60/74/37 52/73/37 59/75/37
f 60/76/38 49/77/38 51/78/38
f 51/79/39 50/70/39 52/73/39
f 61/80/40 54/81/40 53/82/40
f 63/83/41 54/81/41 62/84/41
f 64/85/42 56/86/42 63/83/42
f 61/87/43 55/88/43 64/89/43
f 56/86/44 53/90/44 54/81/44
f 67/91/45 66/92/45 65/93/45
f 71/94/46 68/95/46 67/91/46
f 69/96/47 72/97/47 71/94/47
f 65/98/48 70/99/48 69/100/48
f 65/98/49 71/94/49 67/91/49
f 70/101/50 68/95/50 72/97/50
f 73/102/51 76/103/51 74/104/51
f 79/105/52 76/103/52 75/106/52
f 77/107/53 80/108/53 79/105/53
f 73/109/54 78/110/54 77/111/54
f 73/109/55 79/105/55 75/106/55
f 78/112/56 76/103/56 80/108/56
f 60/76/57 58/72/57 57/113/57
f 40/114/58 38/55/58 39/54/58
f 48/115/59 46/66/59 47/65/59
f 63/83/60 61/87/60 64/89/60
f 4/1/1 3/4/1 1/2/1
f 3/4/2 8/116/2 5/5/2
f 4/1/3 7/43/3 8/6/3
f 6/8/4 7/43/4 4/1/4
f 5/9/5 6/8/5 2/3/5
f 10/11/6 12/17/6 11/12/6
f 16/14/7 13/117/7 9/13/7
f 15/15/8 16/118/8 11/16/8
f 10/11/9 14/19/9 15/15/9
f 9/18/10 13/119/10 14/19/10
f 17/20/11 18/23/11 26/21/11
f 18/23/61 20/30/61 27/24/61
f 27/24/62 20/30/62 19/25/62
f 19/27/63 17/120/63 25/28/63
f 20/30/15 18/23/15 17/31/15
f 29/33/64 21/121/64 22/34/64
f 22/34/65 24/37/65 31/36/65
f 24/37/66 23/122/66 32/38/66
f 23/39/67 21/123/67 29/40/67
f 22/34/20 21/124/20 23/42/20
f 25/28/68 26/21/68 27/24/68
f 7/43/22 6/8/22 5/44/22
f 16/46/23 15/15/23 14/19/23
f 29/40/69 30/35/69 31/36/69
f 34/48/25 33/51/25 35/49/25
f 33/51/26 37/125/26 40/52/26
f 36/50/27 35/126/27 40/53/27
f 36/50/28 39/54/28 38/55/28
f 34/48/29 38/55/29 37/56/29
f 41/58/30 43/61/30 44/59/30
f 43/61/31 41/58/31 45/62/31
f 43/64/32 48/127/32 47/65/32
f 44/59/33 47/65/33 46/66/33
f 41/67/34 42/60/34 46/66/34
f 57/69/35 58/72/35 50/70/35
f 58/72/70 59/75/70 52/73/70
f 60/74/37 51/128/37 52/73/37
f 60/76/71 57/113/71 49/77/71
f 51/79/39 49/129/39 50/70/39
f 61/80/72 62/84/72 54/81/72
f 63/83/41 56/86/41 54/81/41
f 64/85/73 55/130/73 56/86/73
f 61/87/74 53/131/74 55/88/74
f 56/86/44 55/132/44 53/90/44
f 67/91/45 68/95/45 66/92/45
f 71/94/46 72/97/46 68/95/46
f 69/96/47 70/133/47 72/97/47
f 65/98/48 66/134/48 70/99/48
f 65/98/49 69/100/49 71/94/49
f 70/101/50 66/135/50 68/95/50
f 73/102/51 75/106/51 76/103/51
f 79/105/52 80/108/52 76/103/52
f 77/107/53 78/136/53 80/108/53
f 73/109/54 74/137/54 78/110/54
f 73/109/55 77/111/55 79/105/55
f 78/112/56 74/138/56 76/103/56
f 60/76/75 59/75/75 58/72/75
f 40/114/58 37/139/58 38/55/58
f 48/115/59 45/140/59 46/66/59
f 63/83/76 62/84/76 61/87/76
