# Blender v2.79 (sub 0) OBJ File: '3DObjectDecoderObjects.blend'
# www.blender.org
o Cube.001_Cube.000
v 0.736729 0.287546 0.188513
v 0.846522 -0.050100 -0.005490
v 1.120927 0.348596 0.299693
v 1.230720 0.010950 0.105690
v 0.893700 0.817444 -0.644895
v 1.003493 0.479798 -0.838897
v 1.387691 0.540848 -0.727717
v 1.277898 0.878494 -0.533715
v 0.084705 -2.046110 0.083699
v 0.076957 -1.907713 -0.296412
v 0.489225 -2.043111 0.076544
v 0.481477 -1.904714 -0.303567
v 0.083790 -1.106461 0.425840
v 0.076041 -0.968064 0.045730
v 0.480561 -0.965065 0.038575
v 0.488309 -1.103462 0.418685
v 0.631618 1.233044 0.043133
v 0.683302 1.473601 -0.278049
v 1.016279 1.295573 0.151865
v 1.067963 1.536130 -0.169317
v 0.068895 -0.030681 0.107454
v 0.064132 -0.153789 -0.277929
v 0.473425 -0.026972 0.101269
v 0.468662 -0.150081 -0.284114
v 0.914089 0.443989 -0.502396
v 0.968629 0.674110 -0.827557
v 1.371908 0.667136 -0.743947
v 1.297829 0.539343 -0.409143
v 0.082971 -1.015790 0.427843
v 0.077360 -1.086958 0.030152
v 0.481894 -1.083873 0.023759
v 0.487483 -1.011808 0.420903
v -0.705852 0.720294 0.997710
v -0.981790 0.593733 1.265187
v -0.739494 1.097061 1.141275
v -1.015432 0.970500 1.408753
v -1.432472 0.907326 0.336603
v -1.708411 0.780765 0.604080
v -1.742053 1.157532 0.747646
v -1.466115 1.284093 0.480168
v -0.080031 -2.022383 0.383585
v -0.070659 -1.938401 -0.012086
v -0.484498 -2.024202 0.373619
v -0.475127 -1.940220 -0.022052
v -0.089541 -1.044173 0.590988
v -0.080169 -0.960191 0.195316
v -0.484636 -0.962010 0.185350
v -0.494008 -1.045992 0.581022
v -0.653984 1.080822 0.071416
v -0.934652 1.159621 -0.209153
v -0.689772 1.458078 0.213169
v -0.970440 1.536877 -0.067400
v -0.082232 -0.012183 0.157586
v -0.073464 -0.176093 -0.212216
v -0.486722 -0.013217 0.148453
v -0.477953 -0.177127 -0.221349
v -1.368838 0.776444 0.700990
v -1.655729 0.851427 0.429101
v -1.731575 1.203284 0.628932
v -1.413198 1.165213 0.810036
v -0.089542 -0.955323 0.581881
v -0.080317 -1.071569 0.194315
v -0.484803 -1.073217 0.185059
v -0.494012 -0.956187 0.572002
v 0.671912 0.015256 0.317701
v 0.671912 1.415256 0.317701
v 0.567777 0.015256 -0.515819
v 0.567777 1.415256 -0.515819
v -0.578368 0.015256 0.473903
v -0.578368 1.415256 0.473903
v -0.682503 0.015256 -0.359617
v -0.682503 1.415256 -0.359617
v 0.216753 1.446078 0.354661
v 0.192528 2.032174 0.480771
v 0.348107 1.574414 -0.216545
v 0.323882 2.160509 -0.090435
v -0.368191 1.450624 0.221169
v -0.392416 2.036720 0.347279
v -0.236836 1.578959 -0.350037
v -0.261062 2.165056 -0.223927
vt 0.151712 0.164304
vt 0.128453 0.121671
vt 0.152804 0.123501
vt 0.067175 0.157952
vt 0.127361 0.162474
vt 0.211899 0.168826
vt 0.150620 0.205107
vt 0.153896 0.082698
vt 0.212991 0.128023
vt 0.120318 0.196104
vt 0.141703 0.159716
vt 0.141869 0.195827
vt 0.194969 0.159030
vt 0.120152 0.159993
vt 0.066721 0.124568
vt 0.119987 0.123882
vt 0.066887 0.160679
vt 0.067218 0.232901
vt 0.120483 0.232215
vt 0.893013 0.803206
vt 0.953247 0.844041
vt 0.893013 0.844041
vt 0.953247 0.884875
vt 0.893013 0.884875
vt 0.893013 0.925710
vt 0.868643 0.884875
vt 0.808410 0.844041
vt 0.868643 0.844041
vt 0.977617 0.844041
vt 0.977617 0.884875
vt 0.741845 0.545283
vt 0.663028 0.598717
vt 0.663028 0.545283
vt 0.741845 0.652150
vt 0.663028 0.652150
vt 0.741845 0.705584
vt 0.663028 0.705584
vt 0.631139 0.652150
vt 0.552321 0.598717
vt 0.631139 0.598717
vt 0.741845 0.598717
vt 0.773734 0.652150
vt 0.236250 0.170656
vt 0.237342 0.129853
vt 0.045336 0.160957
vt 0.067052 0.196790
vt 0.045501 0.197068
vt 0.094887 0.153073
vt 0.114964 0.123128
vt 0.113861 0.154921
vt 0.095990 0.121280
vt 0.047991 0.148506
vt 0.049093 0.116713
vt 0.162963 0.095902
vt 0.161861 0.127695
vt 0.160758 0.159488
vt 0.159655 0.191281
vt 0.112759 0.186714
vt 0.153193 0.158992
vt 0.134495 0.188340
vt 0.135087 0.158002
vt 0.197352 0.191779
vt 0.152601 0.189330
vt 0.089154 0.216230
vt 0.089745 0.185892
vt 0.090336 0.155553
vt 0.090927 0.125215
vt 0.135678 0.127663
vt 0.893013 0.809899
vt 0.820174 0.859280
vt 0.820174 0.809899
vt 0.893013 0.859280
vt 0.820174 0.908661
vt 0.893013 0.958041
vt 0.893013 0.908661
vt 0.922484 0.908660
vt 0.995323 0.859280
vt 0.995323 0.908660
vt 0.790703 0.908661
vt 0.668850 0.601598
vt 0.627314 0.573439
vt 0.668850 0.573439
vt 0.627314 0.629757
vt 0.627314 0.601598
vt 0.668850 0.629757
vt 0.627314 0.657916
vt 0.685655 0.629757
vt 0.727191 0.601598
vt 0.727191 0.629757
vt 0.610509 0.601598
vt 0.114767 0.168293
vt 0.095916 0.220936
vt 0.095916 0.168293
vt 0.143042 0.168293
vt 0.114767 0.220936
vt 0.161893 0.168293
vt 0.143042 0.220936
vt 0.114767 0.136707
vt 0.143042 0.084063
vt 0.143042 0.136707
vt 0.143042 0.252523
vt 0.705410 0.612195
vt 0.679363 0.568551
vt 0.705410 0.568551
vt 0.653316 0.612195
vt 0.679363 0.612195
vt 0.627270 0.568551
vt 0.653316 0.568551
vt 0.679363 0.655839
vt 0.653316 0.699483
vt 0.653316 0.655839
vt 0.653316 0.524907
vt 0.922484 0.859280
vt 0.179732 0.161336
vt 0.180835 0.129543
vt 0.072230 0.154563
vt 0.071639 0.184901
vt 0.685655 0.601598
vt 0.068267 0.117149
vt 0.210807 0.209629
vt 0.214083 0.087220
vt 0.195135 0.195141
vt 0.953247 0.803206
vt 0.953247 0.925710
vt 0.808410 0.884875
vt 0.552321 0.652150
vt 0.773734 0.598717
vt 0.116067 0.091335
vt 0.197943 0.161440
vt 0.133904 0.218678
vt 0.820174 0.958041
vt 0.790703 0.859280
vt 0.668850 0.657916
vt 0.610509 0.629757
vt 0.161893 0.220936
vt 0.114767 0.084063
vt 0.114767 0.252523
vt 0.627270 0.612195
vt 0.679363 0.699483
vt 0.679363 0.524907
vn -0.1570 -0.5299 0.8334
vn -0.2714 0.8345 0.4795
vn 0.9496 0.1509 0.2748
vn 0.2714 -0.8345 -0.4795
vn -0.9496 -0.1509 -0.2748
vn 0.0009 -0.9396 -0.3421
vn 0.0192 -0.3421 0.9395
vn 0.9998 0.0074 -0.0177
vn -0.0192 0.3421 -0.9395
vn -0.9998 -0.0074 0.0177
vn -0.9507 -0.1545 -0.2688
vn 0.1744 0.5848 -0.7922
vn 0.9506 0.1544 0.2693
vn -0.0531 -0.5807 0.8124
vn -0.2825 0.7891 0.5455
vn -0.9998 -0.0092 0.0157
vn -0.0126 -0.3133 -0.9496
vn 0.9998 0.0092 -0.0157
vn 0.0133 0.3094 0.9508
vn -0.0134 0.9525 -0.3041
vn 0.0554 -0.9368 -0.3453
vn 0.1570 0.5299 -0.8334
vn -0.0009 0.9396 0.3421
vn 0.0103 -0.9839 0.1784
vn 0.7266 -0.1870 0.6611
vn 0.6820 0.3128 -0.6611
vn -0.0832 0.9312 0.3548
vn -0.6820 -0.3128 0.6611
vn 0.0832 -0.9312 -0.3548
vn 0.0095 -0.9782 -0.2074
vn -0.0232 -0.2076 0.9779
vn -0.9997 -0.0045 -0.0246
vn 0.0232 0.2076 -0.9779
vn 0.9997 0.0045 0.0246
vn 0.0885 -0.9324 -0.3504
vn -0.6954 0.1940 -0.6919
vn -0.0879 0.9324 0.3506
vn 0.6709 -0.2042 0.7129
vn 0.7148 0.3044 -0.6296
vn 0.9997 0.0026 0.0230
vn 0.0216 -0.4134 -0.9103
vn -0.9997 -0.0026 -0.0226
vn -0.0216 0.4098 0.9119
vn 0.0068 0.9143 -0.4051
vn 0.9923 0.0000 -0.1240
vn -0.1240 0.0000 -0.9923
vn -0.9923 0.0000 0.1240
vn 0.1240 0.0000 0.9923
vn 0.0000 -1.0000 -0.0000
vn 0.0000 1.0000 0.0000
vn 0.9749 -0.0076 0.2225
vn 0.2189 0.2139 -0.9520
vn -0.9749 0.0076 -0.2225
vn -0.2189 -0.2139 0.9520
vn 0.0404 -0.9768 -0.2102
vn -0.0404 0.9768 0.2102
vn -0.6988 -0.2660 0.6640
vn -0.7266 0.1870 -0.6611
vn -0.0095 0.9782 0.2074
vn -0.0050 -0.9579 0.2872
vn -0.9507 -0.1545 -0.2687
vn 0.1285 0.5925 -0.7953
vn 0.9507 0.1546 0.2688
vn -0.1186 -0.6197 0.7758
vn -0.9998 -0.0091 0.0153
vn -0.0116 -0.3136 -0.9495
vn 0.9998 0.0091 -0.0153
vn 0.0117 0.3088 0.9510
vn 0.3221 -0.7974 -0.5103
vn 0.0127 -0.9843 0.1760
vn 0.0884 -0.9324 -0.3504
vn -0.7096 0.2260 -0.6674
vn -0.0884 0.9324 0.3503
vn 0.6849 -0.1233 0.7181
vn 0.9997 0.0026 0.0226
vn 0.0225 -0.4131 -0.9104
vn -0.9997 -0.0026 -0.0230
vn -0.0231 0.4103 0.9117
vn -0.4705 -0.5103 0.7199
vn -0.0027 -0.9572 0.2894
s off
f 4/1/1 1/2/1 2/3/1
f 8/4/2 1/2/2 3/5/2
f 7/6/3 3/7/3 4/1/3
f 2/3/4 7/6/4 4/1/4
f 1/8/5 6/9/5 2/3/5
f 10/10/6 11/11/6 9/12/6
f 16/13/7 9/12/7 11/11/7
f 12/14/8 16/15/8 11/16/8
f 10/10/9 15/17/9 12/14/9
f 13/18/10 10/10/10 9/19/10
f 25/20/11 18/21/11 26/22/11
f 26/22/12 20/23/12 27/24/12
f 20/23/13 28/25/13 27/24/13
f 28/26/14 17/27/14 25/28/14
f 20/23/15 17/29/15 19/30/15
f 21/31/16 30/32/16 29/33/16
f 30/32/17 24/34/17 31/35/17
f 31/35/18 23/36/18 32/37/18
f 32/38/19 21/39/19 29/40/19
f 22/41/20 23/42/20 24/34/20
f 28/26/21 26/22/21 27/24/21
f 8/43/22 6/9/22 5/44/22
f 16/45/23 14/46/23 13/47/23
f 32/38/24 30/32/24 31/35/24
f 33/48/25 36/49/25 34/50/25
f 35/51/26 37/52/26 40/53/26
f 36/49/27 40/54/27 39/55/27
f 36/49/28 38/56/28 34/50/28
f 34/50/29 37/57/29 33/58/29
f 41/59/30 44/60/30 42/61/30
f 41/59/31 48/62/31 43/63/31
f 44/60/32 48/64/32 47/65/32
f 44/60/33 46/66/33 42/61/33
f 42/61/34 45/67/34 41/68/34
f 57/69/35 50/70/35 49/71/35
f 58/72/36 52/73/36 50/70/36
f 60/74/37 52/73/37 59/75/37
f 60/76/38 49/77/38 51/78/38
f 51/79/39 50/70/39 52/73/39
f 62/80/40 53/81/40 61/82/40
f 62/80/41 56/83/41 54/84/41
f 63/85/42 55/86/42 56/83/42
f 64/87/43 53/88/43 55/89/43
f 56/83/44 53/90/44 54/84/44
f 67/91/45 66/92/45 65/93/45
f 71/94/46 68/95/46 67/91/46
f 69/96/47 72/97/47 71/94/47
f 65/98/48 70/99/48 69/100/48
f 65/98/49 71/94/49 67/91/49
f 70/101/50 68/95/50 72/97/50
f 73/102/51 76/103/51 74/104/51
f 79/105/52 76/103/52 75/106/52
f 79/105/53 78/107/53 80/108/53
f 73/109/54 78/110/54 77/111/54
f 73/109/55 79/105/55 75/106/55
f 78/112/56 76/103/56 80/108/56
f 60/76/57 58/72/57 57/113/57
f 37/114/58 39/55/58 40/115/58
f 45/116/59 47/65/59 48/117/59
f 64/87/60 62/80/60 61/118/60
f 4/1/1 3/5/1 1/2/1
f 8/4/2 5/119/2 1/2/2
f 7/6/3 8/120/3 3/7/3
f 2/3/4 6/9/4 7/6/4
f 1/8/5 5/121/5 6/9/5
f 10/10/6 12/14/6 11/11/6
f 16/13/7 13/122/7 9/12/7
f 12/14/8 15/17/8 16/15/8
f 10/10/9 14/46/9 15/17/9
f 13/18/10 14/46/10 10/10/10
f 25/20/61 17/123/61 18/21/61
f 26/22/62 18/21/62 20/23/62
f 20/23/63 19/124/63 28/25/63
f 28/26/64 19/125/64 17/27/64
f 20/23/15 18/21/15 17/29/15
f 21/31/65 22/41/65 30/32/65
f 30/32/66 22/41/66 24/34/66
f 31/35/67 24/34/67 23/36/67
f 32/38/68 23/126/68 21/39/68
f 22/41/20 21/127/20 23/42/20
f 28/26/69 25/28/69 26/22/69
f 8/43/22 7/6/22 6/9/22
f 16/45/23 15/17/23 14/46/23
f 32/38/70 29/40/70 30/32/70
f 33/48/25 35/51/25 36/49/25
f 35/51/26 33/48/26 37/52/26
f 36/49/27 35/128/27 40/54/27
f 36/49/28 39/55/28 38/56/28
f 34/50/29 38/56/29 37/57/29
f 41/59/30 43/63/30 44/60/30
f 41/59/31 45/129/31 48/62/31
f 44/60/32 43/130/32 48/64/32
f 44/60/33 47/65/33 46/66/33
f 42/61/34 46/66/34 45/67/34
f 57/69/71 58/72/71 50/70/71
f 58/72/72 59/75/72 52/73/72
f 60/74/73 51/131/73 52/73/73
f 60/76/74 57/113/74 49/77/74
f 51/79/39 49/132/39 50/70/39
f 62/80/75 54/84/75 53/81/75
f 62/80/76 63/85/76 56/83/76
f 63/85/77 64/133/77 55/86/77
f 64/87/78 61/118/78 53/88/78
f 56/83/44 55/134/44 53/90/44
f 67/91/45 68/95/45 66/92/45
f 71/94/46 72/97/46 68/95/46
f 69/96/47 70/135/47 72/97/47
f 65/98/48 66/136/48 70/99/48
f 65/98/49 69/100/49 71/94/49
f 70/101/50 66/137/50 68/95/50
f 73/102/51 75/106/51 76/103/51
f 79/105/52 80/108/52 76/103/52
f 79/105/53 77/138/53 78/107/53
f 73/109/54 74/139/54 78/110/54
f 73/109/55 77/111/55 79/105/55
f 78/112/56 74/140/56 76/103/56
f 60/76/79 59/75/79 58/72/79
f 37/114/58 38/56/58 39/55/58
f 45/116/59 46/66/59 47/65/59
f 64/87/80 63/85/80 62/80/80
