# Blender v2.79 (sub 0) OBJ File: '3DObjectDecoderObjects.blend'
# www.blender.org
o Cube.001_Cube.000
v 0.666560 -0.403186 0.382136
v 0.679175 -0.537708 0.000768
v 1.070886 -0.406125 0.396547
v 1.083501 -0.540647 0.015179
v 0.685249 0.539894 0.050097
v 0.697864 0.405373 -0.331271
v 1.102191 0.402434 -0.316860
v 1.089576 0.536955 0.064508
v 0.079750 -2.071579 0.232873
v 0.072250 -2.055780 -0.171345
v 0.484274 -2.070532 0.225408
v 0.476774 -2.054734 -0.178810
v 0.077886 -1.072344 0.271965
v 0.070386 -1.056546 -0.132254
v 0.474910 -1.055500 -0.139719
v 0.482410 -1.071298 0.264500
v 0.685446 1.451572 0.215253
v 0.699301 1.507070 -0.185277
v 1.089803 1.449175 0.228909
v 1.103658 1.504672 -0.171622
v 0.073081 -0.004882 0.182079
v 0.065924 -0.039314 -0.220986
v 0.477608 -0.003691 0.174794
v 0.470451 -0.038123 -0.228271
v 0.684210 0.461042 0.077962
v 0.698122 0.513275 -0.324311
v 1.102836 0.489098 -0.321801
v 1.088741 0.469649 0.087781
v 0.077655 -1.007366 0.270504
v 0.070377 -1.031931 -0.135353
v 0.474904 -1.030862 -0.142673
v 0.482179 -1.006129 0.263072
v -0.742019 -0.436038 0.156786
v -0.754286 -0.532698 -0.235912
v -1.146363 -0.426093 0.166968
v -1.158629 -0.522753 -0.225730
v -0.724174 0.534702 -0.082715
v -0.736441 0.438043 -0.475413
v -1.140784 0.447988 -0.465231
v -1.128518 0.544647 -0.072532
v -0.079701 -2.080920 0.138856
v -0.071048 -2.055975 -0.264877
v -0.484200 -2.081873 0.130128
v -0.475547 -2.056928 -0.273605
v -0.083381 -1.082825 0.200445
v -0.074728 -1.057880 -0.203287
v -0.479227 -1.058833 -0.212015
v -0.487879 -1.083777 0.191717
v -0.695257 1.420709 0.178672
v -0.701894 1.518558 -0.213869
v -1.099602 1.431282 0.188144
v -1.106239 1.529131 -0.204397
v -0.085083 -0.015878 0.175466
v -0.076466 -0.025583 -0.228921
v -0.489585 -0.016736 0.166866
v -0.480967 -0.026441 -0.237521
v -0.726272 0.450745 -0.062592
v -0.733057 0.545468 -0.457236
v -1.138378 0.535135 -0.461311
v -1.130359 0.472866 -0.055876
v -0.083531 -1.019901 0.201652
v -0.074863 -1.022726 -0.204374
v -0.479364 -1.023667 -0.213001
v -0.488030 -1.020723 0.192953
v 0.613207 0.079338 0.415798
v 0.613207 1.479338 0.415798
v 0.635749 0.079338 -0.423900
v 0.635749 1.479338 -0.423900
v -0.646339 0.079338 0.381984
v -0.646339 1.479338 0.381984
v -0.623797 0.079338 -0.457714
v -0.623797 1.479338 -0.457714
v 0.281645 1.572249 0.294102
v 0.280318 2.172066 0.308859
v 0.306714 1.587048 -0.305191
v 0.305387 2.186865 -0.290435
v -0.317830 1.571540 0.269008
v -0.319157 2.171357 0.283764
v -0.292760 1.586339 -0.330286
v -0.294087 2.186156 -0.315529
vt 0.151712 0.164304
vt 0.128453 0.121671
vt 0.152804 0.123501
vt 0.067175 0.157952
vt 0.127361 0.162474
vt 0.211899 0.168826
vt 0.150620 0.205107
vt 0.214083 0.087220
vt 0.153896 0.082698
vt 0.120318 0.196104
vt 0.141703 0.159716
vt 0.141869 0.195827
vt 0.194969 0.159030
vt 0.066887 0.160679
vt 0.119987 0.123882
vt 0.120152 0.159993
vt 0.120483 0.232215
vt 0.067052 0.196790
vt 0.893013 0.803206
vt 0.953247 0.844041
vt 0.893013 0.844041
vt 0.953247 0.884875
vt 0.893013 0.884875
vt 0.893013 0.925710
vt 0.868643 0.884875
vt 0.808410 0.844041
vt 0.868643 0.844041
vt 0.977617 0.844041
vt 0.977617 0.884875
vt 0.741845 0.545283
vt 0.663028 0.598717
vt 0.663028 0.545283
vt 0.741845 0.652150
vt 0.663028 0.652150
vt 0.741845 0.705584
vt 0.663028 0.705584
vt 0.631139 0.652150
vt 0.552321 0.598717
vt 0.631139 0.598717
vt 0.741845 0.598717
vt 0.773734 0.652150
vt 0.237342 0.129853
vt 0.236250 0.170656
vt 0.045336 0.160957
vt 0.045501 0.197068
vt 0.113861 0.154921
vt 0.095990 0.121280
vt 0.114964 0.123128
vt 0.094887 0.153073
vt 0.049093 0.116713
vt 0.162963 0.095902
vt 0.161861 0.127695
vt 0.160758 0.159488
vt 0.159655 0.191281
vt 0.112759 0.186714
vt 0.135087 0.158002
vt 0.152601 0.189330
vt 0.134495 0.188340
vt 0.153193 0.158992
vt 0.197352 0.191779
vt 0.133904 0.218678
vt 0.089745 0.185892
vt 0.090336 0.155553
vt 0.135678 0.127663
vt 0.090927 0.125215
vt 0.893013 0.809899
vt 0.820174 0.859280
vt 0.820174 0.809899
vt 0.893013 0.859280
vt 0.820174 0.908661
vt 0.893013 0.958041
vt 0.893013 0.908661
vt 0.922484 0.908660
vt 0.995323 0.859280
vt 0.995323 0.908660
vt 0.790703 0.859280
vt 0.668850 0.601598
vt 0.627314 0.573439
vt 0.668850 0.573439
vt 0.627314 0.629757
vt 0.627314 0.601598
vt 0.668850 0.629757
vt 0.627314 0.657916
vt 0.685655 0.629757
vt 0.727191 0.601598
vt 0.727191 0.629757
vt 0.610509 0.629757
vt 0.114767 0.168293
vt 0.095916 0.220936
vt 0.095916 0.168293
vt 0.143042 0.168293
vt 0.114767 0.220936
vt 0.161893 0.168293
vt 0.143042 0.220936
vt 0.114767 0.136707
vt 0.143042 0.084063
vt 0.143042 0.136707
vt 0.143042 0.252523
vt 0.679363 0.612195
vt 0.705410 0.568551
vt 0.705410 0.612195
vt 0.653316 0.568551
vt 0.679363 0.568551
vt 0.627270 0.612195
vt 0.653316 0.612195
vt 0.679363 0.655839
vt 0.653316 0.699483
vt 0.653316 0.655839
vt 0.653316 0.524907
vt 0.922484 0.859280
vt 0.180835 0.129543
vt 0.072230 0.154563
vt 0.071639 0.184901
vt 0.685655 0.601598
vt 0.068267 0.117149
vt 0.210807 0.209629
vt 0.212991 0.128023
vt 0.195135 0.195141
vt 0.066721 0.124568
vt 0.067218 0.232901
vt 0.953247 0.803206
vt 0.953247 0.925710
vt 0.808410 0.884875
vt 0.552321 0.652150
vt 0.773734 0.598717
vt 0.047991 0.148506
vt 0.116067 0.091335
vt 0.197943 0.161440
vt 0.089154 0.216230
vt 0.820174 0.958041
vt 0.790703 0.908661
vt 0.668850 0.657916
vt 0.610509 0.601598
vt 0.161893 0.220936
vt 0.114767 0.084063
vt 0.114767 0.252523
vt 0.627270 0.568551
vt 0.679363 0.699483
vt 0.679363 0.524907
vt 0.179732 0.161336
vn -0.0187 -0.9431 0.3320
vn -0.0312 0.3325 0.9426
vn 0.9993 -0.0073 0.0356
vn 0.0312 -0.3325 -0.9426
vn -0.9993 0.0073 -0.0356
vn 0.0019 -0.9992 -0.0391
vn 0.0185 -0.0391 0.9991
vn 0.9998 0.0026 -0.0184
vn -0.0185 0.0391 -0.9991
vn -0.9998 -0.0026 0.0184
vn -0.9994 0.0059 -0.0338
vn 0.0149 0.1463 -0.9891
vn 0.9994 -0.0059 0.0341
vn -0.0211 -0.1372 0.9903
vn 0.0012 0.9905 0.1373
vn -0.9998 -0.0030 0.0181
vn -0.0178 -0.0860 -0.9961
vn 0.9998 0.0030 -0.0181
vn 0.0180 0.0879 0.9960
vn -0.0045 0.9964 -0.0850
vn -0.0593 -0.9970 -0.0494
vn 0.0187 0.9431 -0.3320
vn -0.0019 0.9992 0.0391
vn 0.0037 -0.9981 0.0608
vn -0.0178 -0.9707 0.2395
vn 0.0303 0.2389 0.9706
vn -0.9994 0.0246 0.0252
vn -0.0303 -0.2389 -0.9706
vn 0.9994 -0.0246 -0.0252
vn 0.0037 -0.9981 -0.0616
vn -0.0214 -0.0617 0.9979
vn -0.9998 -0.0024 -0.0216
vn 0.0214 0.0617 -0.9979
vn 0.9998 0.0024 0.0216
vn 0.9994 -0.0261 -0.0234
vn -0.0164 0.2431 -0.9699
vn -0.9994 0.0262 0.0238
vn 0.0162 -0.2472 0.9688
vn 0.0310 0.9700 0.2413
vn 0.9998 0.0021 0.0213
vn 0.0213 -0.0246 -0.9995
vn -0.9998 -0.0021 -0.0213
vn -0.0213 0.0259 0.9994
vn -0.0016 0.9997 -0.0240
vn 0.9996 0.0000 0.0268
vn 0.0268 0.0000 -0.9996
vn -0.9996 0.0000 -0.0268
vn -0.0268 0.0000 0.9996
vn 0.0000 -1.0000 0.0000
vn 0.0000 1.0000 0.0000
vn 0.9991 0.0012 0.0418
vn 0.0418 0.0247 -0.9988
vn -0.9991 -0.0012 -0.0418
vn -0.0418 -0.0247 0.9988
vn 0.0022 -0.9997 -0.0246
vn -0.0022 0.9997 0.0246
vn -0.0570 -0.9710 -0.2321
vn 0.0178 0.9707 -0.2395
vn -0.0037 0.9981 0.0616
vn 0.0019 -1.0000 0.0070
vn 0.0342 0.1384 -0.9898
vn 0.9994 -0.0059 0.0337
vn -0.0343 -0.1425 0.9892
vn -0.9998 -0.0029 0.0180
vn -0.0177 -0.0860 -0.9961
vn 0.9998 0.0029 -0.0180
vn 0.0177 0.0878 0.9960
vn 0.0242 -0.9915 -0.1279
vn 0.0042 -0.9982 0.0603
vn 0.9994 -0.0261 -0.0235
vn 0.0034 0.2501 -0.9682
vn -0.9994 0.0261 0.0234
vn 0.0029 -0.2415 0.9704
vn 0.0214 -0.0245 -0.9995
vn -0.0215 0.0260 0.9994
vn 0.0267 -0.9880 -0.1523
vn 0.0022 -1.0000 0.0073
s off
f 4/1/1 1/2/1 2/3/1
f 8/4/2 1/2/2 3/5/2
f 7/6/3 3/7/3 4/1/3
f 2/3/4 7/6/4 4/1/4
f 5/8/5 2/3/5 1/9/5
f 10/10/6 11/11/6 9/12/6
f 16/13/7 9/12/7 11/11/7
f 15/14/8 11/15/8 12/16/8
f 10/10/9 15/14/9 12/16/9
f 9/17/10 14/18/10 10/10/10
f 25/19/11 18/20/11 26/21/11
f 26/21/12 20/22/12 27/23/12
f 20/22/13 28/24/13 27/23/13
f 28/25/14 17/26/14 25/27/14
f 20/22/15 17/28/15 19/29/15
f 21/30/16 30/31/16 29/32/16
f 30/31/17 24/33/17 31/34/17
f 31/34/18 23/35/18 32/36/18
f 32/37/19 21/38/19 29/39/19
f 22/40/20 23/41/20 24/33/20
f 28/25/21 26/21/21 27/23/21
f 7/6/22 5/42/22 8/43/22
f 16/44/23 14/18/23 13/45/23
f 32/37/24 30/31/24 31/34/24
f 34/46/25 35/47/25 36/48/25
f 33/49/26 40/50/26 35/47/26
f 36/48/27 40/51/27 39/52/27
f 36/48/28 38/53/28 34/46/28
f 34/46/29 37/54/29 33/55/29
f 42/56/30 43/57/30 44/58/30
f 41/59/31 48/60/31 43/57/31
f 43/61/32 47/62/32 44/58/32
f 44/58/33 46/63/33 42/56/33
f 41/64/34 46/63/34 45/65/34
f 57/66/35 50/67/35 49/68/35
f 58/69/36 52/70/36 50/67/36
f 60/71/37 52/70/37 59/72/37
f 60/73/38 49/74/38 51/75/38
f 52/70/39 49/76/39 50/67/39
f 62/77/40 53/78/40 61/79/40
f 62/77/41 56/80/41 54/81/41
f 63/82/42 55/83/42 56/80/42
f 64/84/43 53/85/43 55/86/43
f 55/87/44 54/81/44 56/80/44
f 67/88/45 66/89/45 65/90/45
f 71/91/46 68/92/46 67/88/46
f 69/93/47 72/94/47 71/91/47
f 65/95/48 70/96/48 69/97/48
f 65/95/49 71/91/49 67/88/49
f 70/98/50 68/92/50 72/94/50
f 75/99/51 74/100/51 73/101/51
f 75/99/52 80/102/52 76/103/52
f 77/104/53 80/102/53 79/105/53
f 73/106/54 78/107/54 77/108/54
f 73/106/55 79/105/55 75/99/55
f 78/109/56 76/103/56 80/102/56
f 60/73/57 58/69/57 57/110/57
f 40/111/58 38/53/58 39/52/58
f 45/112/59 47/62/59 48/113/59
f 64/84/60 62/77/60 61/114/60
f 4/1/1 3/5/1 1/2/1
f 8/4/2 5/115/2 1/2/2
f 7/6/3 8/116/3 3/7/3
f 2/3/4 6/117/4 7/6/4
f 5/8/5 6/117/5 2/3/5
f 10/10/6 12/16/6 11/11/6
f 16/13/7 13/118/7 9/12/7
f 15/14/8 16/119/8 11/15/8
f 10/10/9 14/18/9 15/14/9
f 9/17/10 13/120/10 14/18/10
f 25/19/11 17/121/11 18/20/11
f 26/21/61 18/20/61 20/22/61
f 20/22/62 19/122/62 28/24/62
f 28/25/63 19/123/63 17/26/63
f 20/22/15 18/20/15 17/28/15
f 21/30/64 22/40/64 30/31/64
f 30/31/65 22/40/65 24/33/65
f 31/34/66 24/33/66 23/35/66
f 32/37/67 23/124/67 21/38/67
f 22/40/20 21/125/20 23/41/20
f 28/25/68 25/27/68 26/21/68
f 7/6/22 6/117/22 5/42/22
f 16/44/23 15/14/23 14/18/23
f 32/37/69 29/39/69 30/31/69
f 34/46/25 33/49/25 35/47/25
f 33/49/26 37/126/26 40/50/26
f 36/48/27 35/127/27 40/51/27
f 36/48/28 39/52/28 38/53/28
f 34/46/29 38/53/29 37/54/29
f 42/56/30 41/59/30 43/57/30
f 41/59/31 45/128/31 48/60/31
f 43/61/32 48/129/32 47/62/32
f 44/58/33 47/62/33 46/63/33
f 41/64/34 42/56/34 46/63/34
f 57/66/70 58/69/70 50/67/70
f 58/69/71 59/72/71 52/70/71
f 60/71/72 51/130/72 52/70/72
f 60/73/73 57/110/73 49/74/73
f 52/70/39 51/131/39 49/76/39
f 62/77/40 54/81/40 53/78/40
f 62/77/74 63/82/74 56/80/74
f 63/82/42 64/132/42 55/83/42
f 64/84/75 61/114/75 53/85/75
f 55/87/44 53/133/44 54/81/44
f 67/88/45 68/92/45 66/89/45
f 71/91/46 72/94/46 68/92/46
f 69/93/47 70/134/47 72/94/47
f 65/95/48 66/135/48 70/96/48
f 65/95/49 69/97/49 71/91/49
f 70/98/50 66/136/50 68/92/50
f 75/99/51 76/103/51 74/100/51
f 75/99/52 79/105/52 80/102/52
f 77/104/53 78/137/53 80/102/53
f 73/106/54 74/138/54 78/107/54
f 73/106/55 77/108/55 79/105/55
f 78/109/56 74/139/56 76/103/56
f 60/73/76 59/72/76 58/69/76
f 40/111/58 37/140/58 38/53/58
f 45/112/59 46/63/59 47/62/59
f 64/84/77 63/82/77 62/77/77
