# Blender v2.79 (sub 0) OBJ File: '3DObjectDecoderObjects.blend'
# www.blender.org
o Cube.001_Cube.000
v 0.746600 0.357068 1.324416
v 1.076536 0.131928 1.388849
v 0.918928 0.665867 1.520993
v 1.248863 0.440728 1.585425
v 1.138507 0.685445 0.465011
v 1.468443 0.460305 0.529443
v 1.640770 0.769105 0.726020
v 1.310835 0.994244 0.661587
v 0.085310 -1.911911 0.898353
v 0.076450 -1.971989 0.498340
v 0.489801 -1.911042 0.889263
v 0.480941 -1.971120 0.489250
v 0.079848 -0.922999 0.749951
v 0.070989 -0.983076 0.349938
v 0.475480 -0.982207 0.340848
v 0.484339 -0.922129 0.740861
v 0.567928 1.193945 0.167614
v 0.855738 1.211330 -0.116217
v 0.741522 1.503060 0.362575
v 1.029332 1.520444 0.078744
v 0.063517 0.006480 0.159149
v 0.057082 -0.213937 -0.180075
v 0.468015 0.008018 0.150476
v 0.461580 -0.212399 -0.188749
v 1.124601 0.550175 0.692661
v 1.417234 0.562279 0.412973
v 1.622056 0.836424 0.635994
v 1.301152 0.871869 0.865029
v 0.078929 -0.847916 0.721606
v 0.071820 -1.039755 0.362185
v 0.476322 -1.038646 0.353537
v 0.483414 -0.846396 0.712406
v -1.064638 0.509151 -0.204054
v -1.266034 0.263003 -0.454161
v -1.408407 0.705419 -0.120399
v -1.609803 0.459270 -0.370506
v -0.890560 1.137307 -0.962445
v -1.091956 0.891158 -1.212552
v -1.435725 1.087425 -1.128897
v -1.234329 1.333574 -0.878790
v -0.079820 -2.080604 -0.431763
v -0.070939 -1.890018 -0.788548
v -0.484315 -2.077602 -0.440229
v -0.475433 -1.887016 -0.797013
v -0.083132 -1.198531 0.039338
v -0.074251 -1.007945 -0.317447
v -0.478745 -1.004942 -0.325912
v -0.487627 -1.195528 0.030872
v -0.727632 1.053571 -0.074418
v -0.582561 1.381220 -0.262305
v -1.070606 1.252139 0.007041
v -0.925535 1.579788 -0.180845
v -0.075752 -0.101032 0.125968
v -0.067802 -0.073102 -0.277583
v -0.480259 -0.097748 0.118227
v -0.472309 -0.069817 -0.285325
v -1.118582 0.732133 -0.936898
v -0.980033 1.051890 -1.132869
v -1.366388 1.197354 -1.103718
v -1.442241 0.966520 -0.861069
v -0.082908 -1.121686 0.061548
v -0.074565 -1.059228 -0.341065
v -0.479071 -1.056298 -0.349040
v -0.487401 -1.118105 0.053380
v 0.503789 0.015256 0.539518
v 0.503788 1.415256 0.539518
v 0.707869 0.015256 -0.275314
v 0.707869 1.415256 -0.275314
v -0.718459 0.015256 0.233398
v -0.718459 1.415256 0.233398
v -0.514379 0.015256 -0.581434
v -0.514379 1.415256 -0.581434
v 0.125082 1.446228 0.396161
v 0.072498 2.032332 0.513282
v 0.383191 1.574541 -0.130066
v 0.330607 2.160644 -0.012945
v -0.414005 1.450494 0.132785
v -0.466589 2.036597 0.249906
v -0.155896 1.578807 -0.393443
v -0.208479 2.164910 -0.276322
vt 0.152804 0.123501
vt 0.127361 0.162474
vt 0.128453 0.121671
vt 0.067175 0.157952
vt 0.211899 0.168826
vt 0.150620 0.205107
vt 0.151712 0.164304
vt 0.153896 0.082698
vt 0.212991 0.128023
vt 0.120318 0.196104
vt 0.141703 0.159716
vt 0.141869 0.195827
vt 0.194969 0.159030
vt 0.066887 0.160679
vt 0.119987 0.123882
vt 0.120152 0.159993
vt 0.120483 0.232215
vt 0.067052 0.196790
vt 0.893013 0.803206
vt 0.953247 0.844041
vt 0.893013 0.844041
vt 0.953247 0.884875
vt 0.893013 0.884875
vt 0.893013 0.925710
vt 0.868643 0.884875
vt 0.808410 0.844041
vt 0.868643 0.844041
vt 0.977617 0.884875
vt 0.741845 0.545283
vt 0.663028 0.598717
vt 0.663028 0.545283
vt 0.741845 0.652150
vt 0.663028 0.652150
vt 0.741845 0.705584
vt 0.663028 0.705584
vt 0.631139 0.652150
vt 0.552321 0.598717
vt 0.631139 0.598717
vt 0.741845 0.598717
vt 0.773734 0.652150
vt 0.237342 0.129853
vt 0.236250 0.170656
vt 0.045336 0.160957
vt 0.045501 0.197068
vt 0.113861 0.154921
vt 0.095990 0.121280
vt 0.114964 0.123128
vt 0.047991 0.148506
vt 0.049093 0.116713
vt 0.162963 0.095902
vt 0.161861 0.127695
vt 0.160758 0.159488
vt 0.159655 0.191281
vt 0.112759 0.186714
vt 0.135087 0.158002
vt 0.152601 0.189330
vt 0.134495 0.188340
vt 0.153193 0.158992
vt 0.197352 0.191779
vt 0.133904 0.218678
vt 0.089745 0.185892
vt 0.090336 0.155553
vt 0.135678 0.127663
vt 0.090927 0.125215
vt 0.893013 0.809899
vt 0.820174 0.859280
vt 0.820174 0.809899
vt 0.893013 0.859280
vt 0.820174 0.908661
vt 0.893013 0.958041
vt 0.893013 0.908661
vt 0.922484 0.908660
vt 0.995323 0.859280
vt 0.995323 0.908660
vt 0.790703 0.908661
vt 0.668850 0.601598
vt 0.627314 0.573439
vt 0.668850 0.573439
vt 0.627314 0.629757
vt 0.627314 0.601598
vt 0.668850 0.629757
vt 0.627314 0.657916
vt 0.685655 0.629757
vt 0.727191 0.601598
vt 0.727191 0.629757
vt 0.610509 0.629757
vt 0.114767 0.168293
vt 0.095916 0.220936
vt 0.095916 0.168293
vt 0.143042 0.168293
vt 0.114767 0.220936
vt 0.161893 0.168293
vt 0.143042 0.220936
vt 0.114767 0.136707
vt 0.143042 0.084063
vt 0.143042 0.136707
vt 0.143042 0.252523
vt 0.679363 0.612195
vt 0.705410 0.568551
vt 0.705410 0.612195
vt 0.653316 0.612195
vt 0.679363 0.568551
vt 0.627270 0.612195
vt 0.653316 0.568551
vt 0.679363 0.655839
vt 0.653316 0.699483
vt 0.653316 0.655839
vt 0.653316 0.524907
vt 0.922484 0.859280
vt 0.180835 0.129543
vt 0.072230 0.154563
vt 0.071639 0.184901
vt 0.685655 0.601598
vt 0.068267 0.117149
vt 0.210807 0.209629
vt 0.214083 0.087220
vt 0.195135 0.195141
vt 0.066721 0.124568
vt 0.067218 0.232901
vt 0.953247 0.803206
vt 0.953247 0.925710
vt 0.808410 0.884875
vt 0.977617 0.844041
vt 0.552321 0.652150
vt 0.773734 0.598717
vt 0.094887 0.153073
vt 0.116067 0.091335
vt 0.197943 0.161440
vt 0.089154 0.216230
vt 0.820174 0.958041
vt 0.790703 0.859280
vt 0.668850 0.657916
vt 0.610509 0.601598
vt 0.161893 0.220936
vt 0.114767 0.084063
vt 0.114767 0.252523
vt 0.627270 0.568551
vt 0.679363 0.699483
vt 0.679363 0.524907
vt 0.179732 0.161336
vn -0.3919 -0.3284 0.8594
vn -0.8155 0.5565 -0.1593
vn 0.4259 0.7632 0.4859
vn 0.8155 -0.5565 0.1593
vn -0.4259 -0.7632 -0.4859
vn 0.0055 -0.9889 0.1484
vn 0.0219 0.1485 0.9887
vn 0.9997 0.0021 -0.0225
vn -0.0219 -0.1485 -0.9887
vn -0.9997 -0.0022 0.0225
vn -0.4290 -0.7640 -0.4819
vn 0.7096 0.0420 -0.7033
vn 0.4285 0.7641 0.4822
vn -0.6910 -0.0080 0.7228
vn -0.5567 0.6438 -0.5250
vn -0.9998 -0.0037 0.0218
vn -0.0164 -0.5488 -0.8358
vn 0.9998 0.0037 -0.0217
vn 0.0169 0.5500 0.8350
vn -0.0149 0.8386 -0.5446
vn 0.3396 -0.7331 0.5893
vn 0.3919 0.3284 -0.8594
vn -0.0055 0.9889 -0.1484
vn 0.0125 -0.8815 0.4720
vn -0.1741 -0.6281 0.7584
vn 0.4978 0.6084 0.6182
vn -0.8497 0.4851 0.2068
vn -0.4978 -0.6084 -0.6182
vn 0.8497 -0.4851 -0.2068
vn 0.0033 -0.8821 -0.4711
vn -0.0220 -0.4711 0.8818
vn -0.9998 0.0074 -0.0209
vn 0.0220 0.4711 -0.8818
vn 0.9998 -0.0074 0.0209
vn 0.8477 -0.4908 -0.2013
vn 0.3566 0.8082 -0.4686
vn -0.8477 0.4906 0.2017
vn -0.3736 -0.8218 0.4303
vn 0.3910 0.3215 0.8624
vn 0.9998 -0.0082 0.0194
vn 0.0196 0.0641 -0.9978
vn -0.9998 0.0081 -0.0191
vn -0.0196 -0.0633 0.9978
vn 0.0068 0.9976 0.0692
vn 0.9700 0.0000 0.2430
vn 0.2430 0.0000 -0.9700
vn -0.9700 -0.0000 -0.2430
vn -0.2430 -0.0000 0.9700
vn 0.0000 -1.0000 0.0000
vn 0.0000 1.0000 0.0000
vn 0.8985 -0.0071 0.4390
vn 0.4302 0.2139 -0.8770
vn -0.8985 0.0071 -0.4390
vn -0.4302 -0.2139 0.8770
vn 0.0876 -0.9768 -0.1952
vn -0.0876 0.9768 0.1952
vn -0.4335 -0.3269 -0.8398
vn 0.1741 0.6281 -0.7584
vn -0.0033 0.8821 0.4711
vn -0.0057 -0.9881 -0.1534
vn 0.9997 0.0022 -0.0225
vn -0.4291 -0.7640 -0.4819
vn 0.7112 0.0432 -0.7017
vn 0.4291 0.7640 0.4819
vn -0.7007 -0.0551 0.7113
vn -0.9998 -0.0038 0.0214
vn -0.0158 -0.5490 -0.8357
vn 0.9998 0.0038 -0.0214
vn 0.0158 0.5496 0.8353
vn 0.5613 -0.6086 0.5609
vn 0.0140 -0.8822 0.4706
vn 0.8477 -0.4907 -0.2014
vn 0.2777 0.8333 -0.4780
vn -0.8477 0.4908 0.2014
vn -0.4373 -0.7596 0.4813
vn 0.9998 -0.0081 0.0191
vn 0.0201 0.0643 -0.9977
vn -0.9998 0.0082 -0.0194
vn -0.0207 -0.0628 0.9978
vn -0.2958 -0.6442 -0.7053
vn -0.0042 -0.9884 -0.1519
s off
f 2/1/1 3/2/1 1/3/1
f 8/4/2 1/3/2 3/2/2
f 7/5/3 3/6/3 4/7/3
f 2/1/4 7/5/4 4/7/4
f 1/8/5 6/9/5 2/1/5
f 10/10/6 11/11/6 9/12/6
f 16/13/7 9/12/7 11/11/7
f 15/14/8 11/15/8 12/16/8
f 10/10/9 15/14/9 12/16/9
f 9/17/10 14/18/10 10/10/10
f 25/19/11 18/20/11 26/21/11
f 26/21/12 20/22/12 27/23/12
f 20/22/13 28/24/13 27/23/13
f 28/25/14 17/26/14 25/27/14
f 18/20/15 19/28/15 20/22/15
f 21/29/16 30/30/16 29/31/16
f 30/30/17 24/32/17 31/33/17
f 31/33/18 23/34/18 32/35/18
f 32/36/19 21/37/19 29/38/19
f 22/39/20 23/40/20 24/32/20
f 28/25/21 26/21/21 27/23/21
f 7/5/22 5/41/22 8/42/22
f 16/43/23 14/18/23 13/44/23
f 32/36/24 30/30/24 31/33/24
f 34/45/25 35/46/25 36/47/25
f 35/46/26 37/48/26 40/49/26
f 36/47/27 40/50/27 39/51/27
f 36/47/28 38/52/28 34/45/28
f 34/45/29 37/53/29 33/54/29
f 42/55/30 43/56/30 44/57/30
f 41/58/31 48/59/31 43/56/31
f 43/60/32 47/61/32 44/57/32
f 42/55/33 47/61/33 46/62/33
f 41/63/34 46/62/34 45/64/34
f 57/65/35 50/66/35 49/67/35
f 58/68/36 52/69/36 50/66/36
f 60/70/37 52/69/37 59/71/37
f 60/72/38 49/73/38 51/74/38
f 51/75/39 50/66/39 52/69/39
f 62/76/40 53/77/40 61/78/40
f 62/76/41 56/79/41 54/80/41
f 63/81/42 55/82/42 56/79/42
f 64/83/43 53/84/43 55/85/43
f 55/86/44 54/80/44 56/79/44
f 67/87/45 66/88/45 65/89/45
f 71/90/46 68/91/46 67/87/46
f 69/92/47 72/93/47 71/90/47
f 65/94/48 70/95/48 69/96/48
f 65/94/49 71/90/49 67/87/49
f 70/97/50 68/91/50 72/93/50
f 75/98/51 74/99/51 73/100/51
f 79/101/52 76/102/52 75/98/52
f 77/103/53 80/104/53 79/101/53
f 73/105/54 78/106/54 77/107/54
f 73/105/55 79/101/55 75/98/55
f 78/108/56 76/102/56 80/104/56
f 60/72/57 58/68/57 57/109/57
f 40/110/58 38/52/58 39/51/58
f 45/111/59 47/61/59 48/112/59
f 64/83/60 62/76/60 61/113/60
f 2/1/1 4/7/1 3/2/1
f 8/4/2 5/114/2 1/3/2
f 7/5/3 8/115/3 3/6/3
f 2/1/4 6/9/4 7/5/4
f 1/8/5 5/116/5 6/9/5
f 10/10/6 12/16/6 11/11/6
f 16/13/7 13/117/7 9/12/7
f 15/14/61 16/118/61 11/15/61
f 10/10/9 14/18/9 15/14/9
f 9/17/10 13/119/10 14/18/10
f 25/19/62 17/120/62 18/20/62
f 26/21/63 18/20/63 20/22/63
f 20/22/64 19/121/64 28/24/64
f 28/25/65 19/122/65 17/26/65
f 18/20/15 17/123/15 19/28/15
f 21/29/66 22/39/66 30/30/66
f 30/30/67 22/39/67 24/32/67
f 31/33/68 24/32/68 23/34/68
f 32/36/69 23/124/69 21/37/69
f 22/39/20 21/125/20 23/40/20
f 28/25/70 25/27/70 26/21/70
f 7/5/22 6/9/22 5/41/22
f 16/43/23 15/14/23 14/18/23
f 32/36/71 29/38/71 30/30/71
f 34/45/25 33/126/25 35/46/25
f 35/46/26 33/126/26 37/48/26
f 36/47/27 35/127/27 40/50/27
f 36/47/28 39/51/28 38/52/28
f 34/45/29 38/52/29 37/53/29
f 42/55/30 41/58/30 43/56/30
f 41/58/31 45/128/31 48/59/31
f 43/60/32 48/129/32 47/61/32
f 42/55/33 44/57/33 47/61/33
f 41/63/34 42/55/34 46/62/34
f 57/65/72 58/68/72 50/66/72
f 58/68/73 59/71/73 52/69/73
f 60/70/74 51/130/74 52/69/74
f 60/72/75 57/109/75 49/73/75
f 51/75/39 49/131/39 50/66/39
f 62/76/76 54/80/76 53/77/76
f 62/76/77 63/81/77 56/79/77
f 63/81/78 64/132/78 55/82/78
f 64/83/79 61/113/79 53/84/79
f 55/86/44 53/133/44 54/80/44
f 67/87/45 68/91/45 66/88/45
f 71/90/46 72/93/46 68/91/46
f 69/92/47 70/134/47 72/93/47
f 65/94/48 66/135/48 70/95/48
f 65/94/49 69/96/49 71/90/49
f 70/97/50 66/136/50 68/91/50
f 75/98/51 76/102/51 74/99/51
f 79/101/52 80/104/52 76/102/52
f 77/103/53 78/137/53 80/104/53
f 73/105/54 74/138/54 78/106/54
f 73/105/55 77/107/55 79/101/55
f 78/108/56 74/139/56 76/102/56
f 60/72/80 59/71/80 58/68/80
f 40/110/58 37/140/58 38/52/58
f 45/111/59 46/62/59 47/61/59
f 64/83/81 63/81/81 62/76/81
