# Blender v2.79 (sub 0) OBJ File: '3DObjectDecoderObjects.blend'
# www.blender.org
o Cube.001_Cube.000
v 0.691116 -0.501802 0.238166
v 0.697612 -0.565727 -0.161294
v 1.095654 -0.502502 0.244857
v 1.102150 -0.566427 -0.154603
v 0.695438 0.485636 0.080218
v 0.701934 0.421711 -0.319242
v 1.106472 0.421010 -0.312552
v 1.099976 0.484936 0.086908
v 0.080396 -2.077328 0.226238
v 0.070667 -2.073351 -0.178222
v 0.484873 -2.077381 0.216508
v 0.475145 -2.073405 -0.187952
v 0.080765 -1.077376 0.236065
v 0.071036 -1.073399 -0.168395
v 0.475513 -1.073453 -0.178126
v 0.485242 -1.077430 0.226334
v 0.694291 1.451996 0.222171
v 0.700541 1.504398 -0.178967
v 1.098837 1.451664 0.228431
v 1.105087 1.504066 -0.172707
v 0.080045 -0.015474 0.205535
v 0.070376 -0.027183 -0.198776
v 0.484524 -0.015483 0.195862
v 0.474855 -0.027192 -0.208449
v 0.695482 0.460419 0.092657
v 0.701760 0.510932 -0.309711
v 1.106487 0.497967 -0.311360
v 1.100044 0.466968 0.097164
v 0.080748 -1.016978 0.235498
v 0.071046 -1.025595 -0.169643
v 0.475524 -1.025643 -0.179328
v 0.485225 -1.016973 0.225779
v -0.699493 -0.530290 0.190411
v -0.704005 -0.571898 -0.212026
v -1.104062 -0.529550 0.194869
v -1.108574 -0.571158 -0.207567
v -0.698806 0.464410 0.087544
v -0.703318 0.422801 -0.314893
v -1.107887 0.423542 -0.310434
v -1.103375 0.465150 0.092003
v -0.080795 -2.080859 0.190123
v -0.071676 -2.072135 -0.214275
v -0.485286 -2.080658 0.181006
v -0.476167 -2.071935 -0.223392
v -0.080784 -1.081091 0.211691
v -0.071665 -1.072368 -0.192707
v -0.476157 -1.072167 -0.201824
v -0.485276 -1.080891 0.202574
v -0.695301 1.455734 0.205544
v -0.699311 1.499894 -0.196626
v -1.099873 1.456752 0.209691
v -1.103883 1.500912 -0.192479
v -0.079963 -0.019711 0.202965
v -0.070893 -0.023098 -0.201514
v -0.484455 -0.019477 0.193893
v -0.475385 -0.022864 -0.210586
v -0.698920 0.461710 0.096437
v -0.702952 0.504493 -0.306663
v -1.107660 0.496302 -0.308511
v -1.103479 0.467822 0.099380
v -0.080755 -1.021174 0.212096
v -0.071660 -1.022164 -0.192986
v -0.476152 -1.021959 -0.202067
v -0.485247 -1.020927 0.202988
v 0.626296 0.079168 0.424866
v 0.626296 1.479168 0.424866
v 0.633423 0.079168 -0.415104
v 0.633423 1.479168 -0.415104
v -0.633658 0.079168 0.414175
v -0.633658 1.479168 0.414175
v -0.626531 0.079168 -0.425795
v -0.626531 1.479168 -0.425795
v 0.294651 1.577971 0.305097
v 0.294157 2.177963 0.307918
v 0.304832 1.580800 -0.294810
v 0.304338 2.180792 -0.291989
v -0.305263 1.577525 0.294914
v -0.305756 2.177517 0.297735
v -0.295082 1.580354 -0.304993
v -0.295575 2.180347 -0.302172
vt 0.151712 0.164304
vt 0.128453 0.121671
vt 0.152804 0.123501
vt 0.067175 0.157952
vt 0.127361 0.162474
vt 0.210807 0.209629
vt 0.150620 0.205107
vt 0.211899 0.168826
vt 0.214083 0.087220
vt 0.153896 0.082698
vt 0.120318 0.196104
vt 0.141703 0.159716
vt 0.141869 0.195827
vt 0.194969 0.159030
vt 0.066887 0.160679
vt 0.119987 0.123882
vt 0.120152 0.159993
vt 0.120483 0.232215
vt 0.067052 0.196790
vt 0.893013 0.803206
vt 0.953247 0.844041
vt 0.893013 0.844041
vt 0.953247 0.884875
vt 0.893013 0.884875
vt 0.893013 0.925710
vt 0.868643 0.884875
vt 0.808410 0.844041
vt 0.868643 0.844041
vt 0.977617 0.884875
vt 0.741845 0.545283
vt 0.663028 0.598717
vt 0.663028 0.545283
vt 0.741845 0.652150
vt 0.663028 0.652150
vt 0.741845 0.705584
vt 0.663028 0.705584
vt 0.631139 0.652150
vt 0.552321 0.598717
vt 0.631139 0.598717
vt 0.741845 0.598717
vt 0.773734 0.652150
vt 0.237342 0.129853
vt 0.236250 0.170656
vt 0.045336 0.160957
vt 0.045501 0.197068
vt 0.094887 0.153073
vt 0.114964 0.123128
vt 0.113861 0.154921
vt 0.095990 0.121280
vt 0.047991 0.148506
vt 0.049093 0.116713
vt 0.162963 0.095902
vt 0.161861 0.127695
vt 0.160758 0.159488
vt 0.159655 0.191281
vt 0.112759 0.186714
vt 0.153193 0.158992
vt 0.134495 0.188340
vt 0.135087 0.158002
vt 0.197352 0.191779
vt 0.152601 0.189330
vt 0.133904 0.218678
vt 0.089745 0.185892
vt 0.090336 0.155553
vt 0.135678 0.127663
vt 0.090927 0.125215
vt 0.893013 0.809899
vt 0.820174 0.859280
vt 0.820174 0.809899
vt 0.893013 0.859280
vt 0.820174 0.908661
vt 0.893013 0.958041
vt 0.893013 0.908661
vt 0.922484 0.908660
vt 0.995323 0.859280
vt 0.995323 0.908660
vt 0.790703 0.908661
vt 0.668850 0.601598
vt 0.627314 0.573439
vt 0.668850 0.573439
vt 0.627314 0.629757
vt 0.627314 0.601598
vt 0.668850 0.629757
vt 0.627314 0.657916
vt 0.685655 0.629757
vt 0.727191 0.601598
vt 0.727191 0.629757
vt 0.610509 0.629757
vt 0.114767 0.168293
vt 0.095916 0.220936
vt 0.095916 0.168293
vt 0.143042 0.168293
vt 0.114767 0.220936
vt 0.161893 0.168293
vt 0.143042 0.220936
vt 0.114767 0.136707
vt 0.143042 0.084063
vt 0.143042 0.136707
vt 0.143042 0.252523
vt 0.679363 0.612195
vt 0.705410 0.568551
vt 0.705410 0.612195
vt 0.653316 0.612195
vt 0.679363 0.568551
vt 0.627270 0.568551
vt 0.653316 0.568551
vt 0.653316 0.655839
vt 0.679363 0.699483
vt 0.653316 0.699483
vt 0.679363 0.655839
vt 0.653316 0.524907
vt 0.922484 0.859280
vt 0.180835 0.129543
vt 0.071639 0.184901
vt 0.685655 0.601598
vt 0.068267 0.117149
vt 0.212991 0.128023
vt 0.195135 0.195141
vt 0.066721 0.124568
vt 0.067218 0.232901
vt 0.953247 0.803206
vt 0.953247 0.925710
vt 0.808410 0.884875
vt 0.977617 0.844041
vt 0.552321 0.652150
vt 0.773734 0.598717
vt 0.116067 0.091335
vt 0.197943 0.161440
vt 0.089154 0.216230
vt 0.820174 0.958041
vt 0.790703 0.859280
vt 0.668850 0.657916
vt 0.610509 0.601598
vt 0.161893 0.220936
vt 0.114767 0.084063
vt 0.114767 0.252523
vt 0.627270 0.612195
vt 0.679363 0.524907
vt 0.179732 0.161336
vt 0.072230 0.154563
vn -0.0043 -0.9874 0.1579
vn -0.0161 0.1580 0.9873
vn 0.9999 -0.0017 0.0165
vn 0.0161 -0.1580 -0.9873
vn -0.9999 0.0017 -0.0165
vn -0.0004 -1.0000 -0.0098
vn 0.0240 -0.0098 0.9997
vn 0.9997 -0.0001 -0.0240
vn -0.0240 0.0098 -0.9997
vn -0.9997 0.0001 0.0240
vn -0.9999 0.0008 -0.0155
vn 0.0003 0.1365 -0.9906
vn 0.9999 -0.0008 0.0157
vn -0.0089 -0.1295 0.9915
vn -0.0012 0.9916 0.1295
vn -0.9997 0.0000 0.0239
vn -0.0239 -0.0292 -0.9993
vn 0.9997 -0.0000 -0.0239
vn 0.0240 0.0299 0.9993
vn -0.0007 0.9996 -0.0289
vn -0.0322 -0.9966 -0.0761
vn 0.0043 0.9874 -0.1579
vn 0.0004 1.0000 0.0098
vn 0.0004 -0.9998 0.0214
vn -0.0007 -0.9947 0.1028
vn 0.0112 0.1029 0.9946
vn -0.9999 0.0018 0.0110
vn -0.0112 -0.1029 -0.9946
vn 0.9999 -0.0018 -0.0110
vn -0.0000 -0.9998 -0.0216
vn -0.0225 -0.0216 0.9995
vn -0.9997 0.0005 -0.0225
vn 0.0225 0.0216 -0.9995
vn 0.9997 -0.0005 0.0225
vn 0.9999 -0.0025 -0.0102
vn -0.0099 0.1099 -0.9939
vn -0.9999 0.0026 0.0104
vn 0.0099 -0.1109 0.9938
vn 0.0036 0.9940 0.1091
vn 0.9997 -0.0006 0.0224
vn 0.0224 -0.0086 -0.9997
vn -0.9997 0.0006 -0.0224
vn -0.0224 0.0091 0.9997
vn 0.0008 1.0000 -0.0084
vn 1.0000 0.0000 0.0085
vn 0.0085 0.0000 -1.0000
vn -1.0000 0.0000 -0.0085
vn -0.0085 -0.0000 1.0000
vn 0.0000 -1.0000 0.0000
vn 0.0000 1.0000 0.0000
vn 0.9999 0.0007 0.0170
vn 0.0170 0.0047 -0.9998
vn -0.9999 -0.0007 -0.0170
vn -0.0170 -0.0047 0.9998
vn 0.0008 -1.0000 -0.0047
vn -0.0008 1.0000 0.0047
vn -0.0158 -0.9943 -0.1054
vn 0.0007 0.9947 -0.1028
vn 0.0000 0.9998 0.0216
vn -0.0007 -1.0000 0.0024
vn 0.0154 0.1305 -0.9913
vn 0.9999 -0.0008 0.0155
vn -0.0154 -0.1321 0.9911
vn 0.0239 0.0299 0.9993
vn 0.0174 -0.9921 -0.1243
vn 0.0005 -0.9998 0.0213
vn 0.9999 -0.0025 -0.0103
vn 0.0022 0.1147 -0.9934
vn -0.9999 0.0025 0.0102
vn 0.0056 -0.1091 0.9940
vn 0.0224 -0.0085 -0.9997
vn -0.0225 0.0091 0.9997
vn 0.0205 -0.9973 -0.0698
vn -0.0006 -1.0000 0.0025
s off
f 4/1/1 1/2/1 2/3/1
f 8/4/2 1/2/2 3/5/2
f 4/1/3 8/6/3 3/7/3
f 2/3/4 7/8/4 4/1/4
f 5/9/5 2/3/5 1/10/5
f 10/11/6 11/12/6 9/13/6
f 16/14/7 9/13/7 11/12/7
f 15/15/8 11/16/8 12/17/8
f 10/11/9 15/15/9 12/17/9
f 9/18/10 14/19/10 10/11/10
f 25/20/11 18/21/11 26/22/11
f 26/22/12 20/23/12 27/24/12
f 20/23/13 28/25/13 27/24/13
f 28/26/14 17/27/14 25/28/14
f 18/21/15 19/29/15 20/23/15
f 21/30/16 30/31/16 29/32/16
f 30/31/17 24/33/17 31/34/17
f 31/34/18 23/35/18 32/36/18
f 32/37/19 21/38/19 29/39/19
f 22/40/20 23/41/20 24/33/20
f 28/26/21 26/22/21 27/24/21
f 7/8/22 5/42/22 8/43/22
f 16/44/23 14/19/23 13/45/23
f 32/37/24 30/31/24 31/34/24
f 33/46/25 36/47/25 34/48/25
f 35/49/26 37/50/26 40/51/26
f 36/47/27 40/52/27 39/53/27
f 36/47/28 38/54/28 34/48/28
f 34/48/29 37/55/29 33/56/29
f 41/57/30 44/58/30 42/59/30
f 41/57/31 48/60/31 43/61/31
f 43/62/32 47/63/32 44/58/32
f 42/59/33 47/63/33 46/64/33
f 41/65/34 46/64/34 45/66/34
f 57/67/35 50/68/35 49/69/35
f 58/70/36 52/71/36 50/68/36
f 60/72/37 52/71/37 59/73/37
f 60/74/38 49/75/38 51/76/38
f 51/77/39 50/68/39 52/71/39
f 62/78/40 53/79/40 61/80/40
f 62/78/41 56/81/41 54/82/41
f 63/83/42 55/84/42 56/81/42
f 64/85/43 53/86/43 55/87/43
f 55/88/44 54/82/44 56/81/44
f 67/89/45 66/90/45 65/91/45
f 71/92/46 68/93/46 67/89/46
f 69/94/47 72/95/47 71/92/47
f 65/96/48 70/97/48 69/98/48
f 65/96/49 71/92/49 67/89/49
f 70/99/50 68/93/50 72/95/50
f 75/100/51 74/101/51 73/102/51
f 79/103/52 76/104/52 75/100/52
f 79/103/53 78/105/53 80/106/53
f 77/107/54 74/108/54 78/109/54
f 73/110/55 79/103/55 75/100/55
f 78/111/56 76/104/56 80/106/56
f 60/74/57 58/70/57 57/112/57
f 40/113/58 38/54/58 39/53/58
f 48/114/59 46/64/59 47/63/59
f 64/85/60 62/78/60 61/115/60
f 4/1/1 3/5/1 1/2/1
f 8/4/2 5/116/2 1/2/2
f 4/1/3 7/8/3 8/6/3
f 2/3/4 6/117/4 7/8/4
f 5/9/5 6/117/5 2/3/5
f 10/11/6 12/17/6 11/12/6
f 16/14/7 13/118/7 9/13/7
f 15/15/8 16/119/8 11/16/8
f 10/11/9 14/19/9 15/15/9
f 9/18/10 13/120/10 14/19/10
f 25/20/11 17/121/11 18/21/11
f 26/22/61 18/21/61 20/23/61
f 20/23/62 19/122/62 28/25/62
f 28/26/63 19/123/63 17/27/63
f 18/21/15 17/124/15 19/29/15
f 21/30/16 22/40/16 30/31/16
f 30/31/17 22/40/17 24/33/17
f 31/34/18 24/33/18 23/35/18
f 32/37/64 23/125/64 21/38/64
f 22/40/20 21/126/20 23/41/20
f 28/26/65 25/28/65 26/22/65
f 7/8/22 6/117/22 5/42/22
f 16/44/23 15/15/23 14/19/23
f 32/37/66 29/39/66 30/31/66
f 33/46/25 35/49/25 36/47/25
f 35/49/26 33/46/26 37/50/26
f 36/47/27 35/127/27 40/52/27
f 36/47/28 39/53/28 38/54/28
f 34/48/29 38/54/29 37/55/29
f 41/57/30 43/61/30 44/58/30
f 41/57/31 45/128/31 48/60/31
f 43/62/32 48/129/32 47/63/32
f 42/59/33 44/58/33 47/63/33
f 41/65/34 42/59/34 46/64/34
f 57/67/67 58/70/67 50/68/67
f 58/70/68 59/73/68 52/71/68
f 60/72/69 51/130/69 52/71/69
f 60/74/70 57/112/70 49/75/70
f 51/77/39 49/131/39 50/68/39
f 62/78/40 54/82/40 53/79/40
f 62/78/71 63/83/71 56/81/71
f 63/83/42 64/132/42 55/84/42
f 64/85/72 61/115/72 53/86/72
f 55/88/44 53/133/44 54/82/44
f 67/89/45 68/93/45 66/90/45
f 71/92/46 72/95/46 68/93/46
f 69/94/47 70/134/47 72/95/47
f 65/96/48 66/135/48 70/97/48
f 65/96/49 69/98/49 71/92/49
f 70/99/50 66/136/50 68/93/50
f 75/100/51 76/104/51 74/101/51
f 79/103/52 80/106/52 76/104/52
f 79/103/53 77/137/53 78/105/53
f 77/107/54 73/110/54 74/108/54
f 73/110/55 77/107/55 79/103/55
f 78/111/56 74/138/56 76/104/56
f 60/74/73 59/73/73 58/70/73
f 40/113/58 37/139/58 38/54/58
f 48/114/59 45/140/59 46/64/59
f 64/85/74 63/83/74 62/78/74
