# Blender v2.79 (sub 0) OBJ File: '3DObjectDecoderObjects.blend'
# www.blender.org
o Cube.001_Cube.000
v 0.669664 -0.362848 0.354095
v 0.680848 -0.509933 -0.022651
v 1.074011 -0.366856 0.367663
v 1.085195 -0.513941 -0.009083
v 0.691079 0.568679 -0.008946
v 0.702263 0.421594 -0.385692
v 1.106610 0.417586 -0.372124
v 1.095426 0.564671 0.004622
v 0.080757 -2.071789 0.283785
v 0.071021 -2.062211 -0.120581
v 0.485234 -2.071960 0.274042
v 0.475498 -2.062382 -0.130324
v 0.081750 -1.072069 0.307443
v 0.072014 -1.062492 -0.096923
v 0.476491 -1.062663 -0.106666
v 0.486227 -1.072240 0.297700
v 0.690406 1.427342 0.250257
v 0.703467 1.518729 -0.143665
v 1.094789 1.424039 0.262899
v 1.107850 1.515426 -0.131023
v 0.079291 -0.006112 0.202410
v 0.069769 -0.046245 -0.200079
v 0.483772 -0.006138 0.192843
v 0.474250 -0.046271 -0.209646
v 0.689516 0.453219 0.024237
v 0.702637 0.540584 -0.371982
v 1.107396 0.510424 -0.374070
v 1.094128 0.463825 0.032472
v 0.081685 -1.007185 0.305022
v 0.072053 -1.037591 -0.100375
v 0.476534 -1.037738 -0.109975
v 0.486162 -1.007167 0.295308
v -0.702161 -0.464174 0.165076
v -0.707406 -0.546517 -0.231027
v -1.106721 -0.462771 0.170141
v -1.111966 -0.545115 -0.225962
v -0.701315 0.514898 -0.038474
v -0.706560 0.432554 -0.434577
v -1.111120 0.433957 -0.429512
v -1.105875 0.516300 -0.033409
v -0.083098 -2.087064 0.139251
v -0.074356 -2.056176 -0.264068
v -0.487598 -2.086227 0.130548
v -0.478856 -2.055340 -0.272771
v -0.082679 -1.089984 0.215621
v -0.073938 -1.059096 -0.187699
v -0.478438 -1.058260 -0.196402
v -0.487179 -1.089147 0.206918
v -0.694731 1.427626 0.191340
v -0.698668 1.513683 -0.203990
v -1.099297 1.429574 0.195792
v -1.103233 1.515631 -0.199537
v -0.079669 -0.021645 0.192788
v -0.071138 -0.030626 -0.211618
v -0.484172 -0.020701 0.184233
v -0.475641 -0.029682 -0.220172
v -0.701776 0.450519 -0.021293
v -0.705761 0.533876 -0.418454
v -1.110641 0.517760 -0.425797
v -1.106299 0.462473 -0.019188
v -0.082558 -1.026379 0.217376
v -0.073936 -1.027427 -0.188850
v -0.478438 -1.026579 -0.197437
v -0.487057 -1.025393 0.208707
v 0.614862 0.074808 0.439347
v 0.614861 1.474808 0.439347
v 0.643466 0.074808 -0.400166
v 0.643466 1.474808 -0.400166
v -0.644407 0.074808 0.396440
v -0.644407 1.474808 0.396440
v -0.615803 0.074808 -0.443073
v -0.615803 1.474808 -0.443073
v 0.277945 1.569900 0.319877
v 0.275531 2.169790 0.331121
v 0.318772 1.581283 -0.278624
v 0.316358 2.181172 -0.267380
v -0.320660 1.568257 0.279012
v -0.323074 2.168146 0.290256
v -0.279832 1.579640 -0.319489
v -0.282246 2.179528 -0.308245
vt 0.151712 0.164304
vt 0.128453 0.121671
vt 0.152804 0.123501
vt 0.067175 0.157952
vt 0.127361 0.162474
vt 0.210807 0.209629
vt 0.150620 0.205107
vt 0.211899 0.168826
vt 0.214083 0.087220
vt 0.153896 0.082698
vt 0.120318 0.196104
vt 0.141703 0.159716
vt 0.141869 0.195827
vt 0.194969 0.159030
vt 0.066887 0.160679
vt 0.119987 0.123882
vt 0.120152 0.159993
vt 0.067052 0.196790
vt 0.120483 0.232215
vt 0.893013 0.803206
vt 0.953247 0.844041
vt 0.893013 0.844041
vt 0.953247 0.884875
vt 0.893013 0.884875
vt 0.893013 0.925710
vt 0.868643 0.884875
vt 0.808410 0.844041
vt 0.868643 0.844041
vt 0.977617 0.884875
vt 0.741845 0.545283
vt 0.663028 0.598717
vt 0.663028 0.545283
vt 0.741845 0.652150
vt 0.663028 0.652150
vt 0.741845 0.705584
vt 0.663028 0.705584
vt 0.631139 0.652150
vt 0.552321 0.598717
vt 0.631139 0.598717
vt 0.741845 0.598717
vt 0.773734 0.652150
vt 0.237342 0.129853
vt 0.236250 0.170656
vt 0.045336 0.160957
vt 0.045501 0.197068
vt 0.113861 0.154921
vt 0.095990 0.121280
vt 0.114964 0.123128
vt 0.094887 0.153073
vt 0.049093 0.116713
vt 0.162963 0.095902
vt 0.161861 0.127695
vt 0.160758 0.159488
vt 0.159655 0.191281
vt 0.112759 0.186714
vt 0.153193 0.158992
vt 0.134495 0.188340
vt 0.135087 0.158002
vt 0.152601 0.189330
vt 0.197943 0.161440
vt 0.197352 0.191779
vt 0.133904 0.218678
vt 0.089745 0.185892
vt 0.090336 0.155553
vt 0.135678 0.127663
vt 0.090927 0.125215
vt 0.893013 0.809899
vt 0.820174 0.859280
vt 0.820174 0.809899
vt 0.893013 0.859280
vt 0.820174 0.908661
vt 0.893013 0.958041
vt 0.893013 0.908661
vt 0.922484 0.908660
vt 0.995323 0.859280
vt 0.995323 0.908660
vt 0.790703 0.908661
vt 0.668850 0.601598
vt 0.627314 0.573439
vt 0.668850 0.573439
vt 0.627314 0.629757
vt 0.627314 0.601598
vt 0.668850 0.629757
vt 0.627314 0.657916
vt 0.685655 0.629757
vt 0.727191 0.601598
vt 0.727191 0.629757
vt 0.610509 0.629757
vt 0.114767 0.168293
vt 0.095916 0.220936
vt 0.095916 0.168293
vt 0.143042 0.168293
vt 0.114767 0.220936
vt 0.161893 0.168293
vt 0.143042 0.220936
vt 0.114767 0.136707
vt 0.143042 0.084063
vt 0.143042 0.136707
vt 0.114767 0.252523
vt 0.705410 0.612195
vt 0.679363 0.568551
vt 0.705410 0.568551
vt 0.679363 0.612195
vt 0.653316 0.568551
vt 0.627270 0.612195
vt 0.653316 0.612195
vt 0.679363 0.655839
vt 0.653316 0.699483
vt 0.653316 0.655839
vt 0.653316 0.524907
vt 0.922484 0.859280
vt 0.180835 0.129543
vt 0.072230 0.154563
vt 0.071639 0.184901
vt 0.685655 0.601598
vt 0.068267 0.117149
vt 0.212991 0.128023
vt 0.195135 0.195141
vt 0.066721 0.124568
vt 0.067218 0.232901
vt 0.953247 0.803206
vt 0.953247 0.925710
vt 0.808410 0.884875
vt 0.977617 0.844041
vt 0.552321 0.652150
vt 0.773734 0.598717
vt 0.047991 0.148506
vt 0.116067 0.091335
vt 0.089154 0.216230
vt 0.820174 0.958041
vt 0.790703 0.859280
vt 0.668850 0.657916
vt 0.610509 0.601598
vt 0.161893 0.220936
vt 0.114767 0.084063
vt 0.143042 0.252523
vt 0.627270 0.568551
vt 0.679363 0.699483
vt 0.679363 0.524907
vt 0.179732 0.161336
vn -0.0214 -0.9315 0.3630
vn -0.0276 0.3635 0.9312
vn 0.9994 -0.0099 0.0335
vn 0.0276 -0.3635 -0.9312
vn -0.9994 0.0099 -0.0335
vn -0.0010 -0.9997 -0.0237
vn 0.0241 -0.0237 0.9994
vn 0.9997 -0.0004 -0.0241
vn -0.0241 0.0237 -0.9994
vn -0.9997 0.0004 0.0241
vn -0.9995 0.0082 -0.0313
vn 0.0125 0.2350 -0.9719
vn 0.9995 -0.0081 0.0317
vn -0.0139 -0.2260 0.9740
vn 0.0009 0.9741 0.2260
vn -0.9997 0.0000 0.0237
vn -0.0236 -0.1001 -0.9947
vn 0.9997 -0.0000 -0.0237
vn 0.0239 0.1020 0.9945
vn -0.0023 0.9951 -0.0992
vn -0.0744 -0.9905 -0.1160
vn 0.0214 0.9315 -0.3630
vn 0.0010 0.9997 0.0237
vn 0.0014 -0.9972 0.0752
vn -0.0008 -0.9791 0.2035
vn 0.0130 0.2035 0.9790
vn -0.9999 0.0035 0.0125
vn -0.0130 -0.2035 -0.9790
vn 0.9999 -0.0035 -0.0125
vn -0.0004 -0.9971 -0.0764
vn -0.0216 -0.0763 0.9968
vn -0.9998 0.0021 -0.0215
vn 0.0216 0.0763 -0.9968
vn 0.9998 -0.0021 0.0215
vn 0.9999 -0.0048 -0.0110
vn -0.0097 0.2139 -0.9768
vn -0.9999 0.0049 0.0113
vn 0.0097 -0.2171 0.9761
vn 0.0070 0.9771 0.2126
vn 0.9998 -0.0024 0.0212
vn 0.0211 -0.0229 -0.9995
vn -0.9998 0.0023 -0.0211
vn -0.0211 0.0244 0.9995
vn 0.0028 0.9998 -0.0221
vn 0.9994 0.0000 0.0341
vn 0.0341 0.0000 -0.9994
vn -0.9994 -0.0000 -0.0341
vn -0.0341 -0.0000 0.9994
vn 0.0000 -1.0000 0.0000
vn 0.0000 1.0000 -0.0000
vn 0.9977 0.0027 0.0681
vn 0.0680 0.0190 -0.9975
vn -0.9977 -0.0027 -0.0681
vn -0.0680 -0.0190 0.9975
vn 0.0040 -0.9998 -0.0187
vn -0.0040 0.9998 0.0187
vn -0.0300 -0.9783 -0.2050
vn 0.0008 0.9791 -0.2035
vn 0.0004 0.9971 0.0764
vn -0.0025 -1.0000 0.0025
vn -0.9995 0.0082 -0.0312
vn 0.0323 0.2272 -0.9733
vn 0.9995 -0.0082 0.0312
vn -0.0323 -0.2332 0.9719
vn -0.9997 0.0001 0.0236
vn -0.0235 -0.1001 -0.9947
vn 0.9997 -0.0001 -0.0236
vn 0.0235 0.1019 0.9945
vn 0.0300 -0.9763 -0.2143
vn 0.0018 -0.9972 0.0747
vn 0.0089 0.2211 -0.9752
vn -0.9999 0.0048 0.0110
vn -0.0012 -0.2126 0.9771
vn 0.9998 -0.0023 0.0211
vn 0.0212 -0.0229 -0.9995
vn -0.9998 0.0024 -0.0212
vn -0.0214 0.0245 0.9995
vn 0.0419 -0.9900 -0.1351
vn -0.0022 -1.0000 0.0029
s off
f 4/1/1 1/2/1 2/3/1
f 8/4/2 1/2/2 3/5/2
f 4/1/3 8/6/3 3/7/3
f 2/3/4 7/8/4 4/1/4
f 5/9/5 2/3/5 1/10/5
f 10/11/6 11/12/6 9/13/6
f 16/14/7 9/13/7 11/12/7
f 15/15/8 11/16/8 12/17/8
f 14/18/9 12/17/9 10/11/9
f 9/19/10 14/18/10 10/11/10
f 25/20/11 18/21/11 26/22/11
f 26/22/12 20/23/12 27/24/12
f 20/23/13 28/25/13 27/24/13
f 28/26/14 17/27/14 25/28/14
f 18/21/15 19/29/15 20/23/15
f 21/30/16 30/31/16 29/32/16
f 30/31/17 24/33/17 31/34/17
f 31/34/18 23/35/18 32/36/18
f 32/37/19 21/38/19 29/39/19
f 22/40/20 23/41/20 24/33/20
f 28/26/21 26/22/21 27/24/21
f 7/8/22 5/42/22 8/43/22
f 16/44/23 14/18/23 13/45/23
f 32/37/24 30/31/24 31/34/24
f 34/46/25 35/47/25 36/48/25
f 33/49/26 40/50/26 35/47/26
f 36/48/27 40/51/27 39/52/27
f 34/46/28 39/52/28 38/53/28
f 34/46/29 37/54/29 33/55/29
f 41/56/30 44/57/30 42/58/30
f 43/59/31 45/60/31 48/61/31
f 43/62/32 47/63/32 44/57/32
f 44/57/33 46/64/33 42/58/33
f 41/65/34 46/64/34 45/66/34
f 57/67/35 50/68/35 49/69/35
f 58/70/36 52/71/36 50/68/36
f 60/72/37 52/71/37 59/73/37
f 60/74/38 49/75/38 51/76/38
f 51/77/39 50/68/39 52/71/39
f 62/78/40 53/79/40 61/80/40
f 62/78/41 56/81/41 54/82/41
f 63/83/42 55/84/42 56/81/42
f 64/85/43 53/86/43 55/87/43
f 55/88/44 54/82/44 56/81/44
f 67/89/45 66/90/45 65/91/45
f 71/92/46 68/93/46 67/89/46
f 69/94/47 72/95/47 71/92/47
f 65/96/48 70/97/48 69/98/48
f 65/96/49 71/92/49 67/89/49
f 72/95/50 66/99/50 68/93/50
f 73/100/51 76/101/51 74/102/51
f 75/103/52 80/104/52 76/101/52
f 77/105/53 80/104/53 79/106/53
f 73/107/54 78/108/54 77/109/54
f 73/107/55 79/106/55 75/103/55
f 78/110/56 76/101/56 80/104/56
f 60/74/57 58/70/57 57/111/57
f 40/112/58 38/53/58 39/52/58
f 45/113/59 47/63/59 48/114/59
f 64/85/60 62/78/60 61/115/60
f 4/1/1 3/5/1 1/2/1
f 8/4/2 5/116/2 1/2/2
f 4/1/3 7/8/3 8/6/3
f 2/3/4 6/117/4 7/8/4
f 5/9/5 6/117/5 2/3/5
f 10/11/6 12/17/6 11/12/6
f 16/14/7 13/118/7 9/13/7
f 15/15/8 16/119/8 11/16/8
f 14/18/9 15/15/9 12/17/9
f 9/19/10 13/120/10 14/18/10
f 25/20/61 17/121/61 18/21/61
f 26/22/62 18/21/62 20/23/62
f 20/23/63 19/122/63 28/25/63
f 28/26/64 19/123/64 17/27/64
f 18/21/15 17/124/15 19/29/15
f 21/30/65 22/40/65 30/31/65
f 30/31/66 22/40/66 24/33/66
f 31/34/67 24/33/67 23/35/67
f 32/37/68 23/125/68 21/38/68
f 22/40/20 21/126/20 23/41/20
f 28/26/69 25/28/69 26/22/69
f 7/8/22 6/117/22 5/42/22
f 16/44/23 15/15/23 14/18/23
f 32/37/70 29/39/70 30/31/70
f 34/46/25 33/49/25 35/47/25
f 33/49/26 37/127/26 40/50/26
f 36/48/27 35/128/27 40/51/27
f 34/46/28 36/48/28 39/52/28
f 34/46/29 38/53/29 37/54/29
f 41/56/30 43/59/30 44/57/30
f 43/59/31 41/56/31 45/60/31
f 43/62/32 48/129/32 47/63/32
f 44/57/33 47/63/33 46/64/33
f 41/65/34 42/58/34 46/64/34
f 57/67/35 58/70/35 50/68/35
f 58/70/71 59/73/71 52/71/71
f 60/72/72 51/130/72 52/71/72
f 60/74/73 57/111/73 49/75/73
f 51/77/39 49/131/39 50/68/39
f 62/78/74 54/82/74 53/79/74
f 62/78/75 63/83/75 56/81/75
f 63/83/76 64/132/76 55/84/76
f 64/85/77 61/115/77 53/86/77
f 55/88/44 53/133/44 54/82/44
f 67/89/45 68/93/45 66/90/45
f 71/92/46 72/95/46 68/93/46
f 69/94/47 70/134/47 72/95/47
f 65/96/48 66/135/48 70/97/48
f 65/96/49 69/98/49 71/92/49
f 72/95/50 70/136/50 66/99/50
f 73/100/51 75/103/51 76/101/51
f 75/103/52 79/106/52 80/104/52
f 77/105/53 78/137/53 80/104/53
f 73/107/54 74/138/54 78/108/54
f 73/107/55 77/109/55 79/106/55
f 78/110/56 74/139/56 76/101/56
f 60/74/78 59/73/78 58/70/78
f 40/112/58 37/140/58 38/53/58
f 45/113/59 46/64/59 47/63/59
f 64/85/79 63/83/79 62/78/79
