# Blender v2.79 (sub 0) OBJ File: '3DObjectDecoderObjects.blend'
# www.blender.org
o Cube.001_Cube.000
v 0.688645 0.140888 0.917550
v 0.792202 -0.207161 0.739128
v 1.076695 0.209254 1.009416
v 1.180252 -0.138796 0.830994
v 0.809454 0.621962 0.049233
v 0.913011 0.273913 -0.129188
v 1.301062 0.342278 -0.037322
v 1.197505 0.690327 0.141099
v 0.082711 -1.997705 0.593075
v 0.074526 -1.998026 0.188562
v 0.487221 -1.996972 0.584890
v 0.479037 -1.997293 0.180377
v 0.080883 -0.997706 0.592320
v 0.072699 -0.998027 0.187807
v 0.477210 -0.997294 0.179621
v 0.485394 -0.996973 0.584135
v 0.623756 1.388596 0.266260
v 0.708818 1.422787 -0.127811
v 1.012198 1.457452 0.356082
v 1.097260 1.491644 -0.037989
v 0.069352 0.015049 0.163876
v 0.062815 -0.145984 -0.207235
v 0.473871 0.016351 0.156185
v 0.467334 -0.144682 -0.214927
v 0.808277 0.406814 0.220905
v 0.894970 0.432668 -0.173689
v 1.293995 0.446306 -0.086378
v 1.197378 0.495476 0.292672
v 0.080302 -0.919972 0.576274
v 0.073260 -1.050955 0.190359
v 0.477780 -1.050062 0.182628
v 0.484809 -0.918607 0.568083
v -0.923018 0.013214 -0.029417
v -0.997781 -0.215330 -0.354813
v -1.318719 0.088521 0.008606
v -1.393482 -0.140023 -0.316789
v -0.826410 0.817142 -0.616251
v -0.901174 0.588598 -0.941647
v -1.296875 0.663905 -0.903623
v -1.222112 0.892449 -0.578227
v -0.079508 -2.092672 -0.167562
v -0.071213 -1.961866 -0.550339
v -0.484012 -2.091945 -0.176080
v -0.475717 -1.961139 -0.558856
v -0.084614 -1.146377 0.155704
v -0.076320 -1.015571 -0.227073
v -0.480823 -1.014844 -0.235590
v -0.489118 -1.145650 0.147187
v -0.682176 1.236491 0.069503
v -0.659144 1.499305 -0.237260
v -1.077718 1.313481 0.105765
v -1.054686 1.576294 -0.200998
v -0.081483 -0.052695 0.143868
v -0.073549 -0.059811 -0.260587
v -0.485997 -0.051663 0.135915
v -0.478064 -0.058779 -0.268540
v -0.884667 0.500389 -0.576379
v -0.863671 0.755593 -0.888829
v -1.272716 0.781625 -0.889263
v -1.275015 0.606931 -0.546103
v -0.084632 -1.070939 0.167653
v -0.076461 -1.049695 -0.239558
v -0.480975 -1.048977 -0.247666
v -0.489137 -1.069708 0.159320
v 0.557498 0.044723 0.485563
v 0.557498 1.444723 0.485563
v 0.678721 0.044723 -0.345644
v 0.678721 1.444723 -0.345644
v -0.689312 0.044723 0.303728
v -0.689312 1.444723 0.303728
v -0.568089 0.044723 -0.527479
v -0.568089 1.444723 -0.527479
v 0.212391 1.505683 0.353358
v 0.193927 2.100784 0.427618
v 0.352866 1.582204 -0.224925
v 0.334402 2.177304 -0.150665
v -0.370641 1.505274 0.211674
v -0.389105 2.100374 0.285935
v -0.230165 1.581794 -0.366609
v -0.248629 2.176894 -0.292348
vt 0.152804 0.123501
vt 0.127361 0.162474
vt 0.128453 0.121671
vt 0.067175 0.157952
vt 0.211899 0.168826
vt 0.150620 0.205107
vt 0.151712 0.164304
vt 0.212991 0.128023
vt 0.153896 0.082698
vt 0.120318 0.196104
vt 0.141703 0.159716
vt 0.141869 0.195827
vt 0.194969 0.159030
vt 0.066887 0.160679
vt 0.119987 0.123882
vt 0.120152 0.159993
vt 0.120483 0.232215
vt 0.067052 0.196790
vt 0.893013 0.803206
vt 0.953247 0.844041
vt 0.893013 0.844041
vt 0.953247 0.884875
vt 0.893013 0.884875
vt 0.893013 0.925710
vt 0.868643 0.884875
vt 0.808410 0.844041
vt 0.868643 0.844041
vt 0.977617 0.844041
vt 0.977617 0.884875
vt 0.741845 0.545283
vt 0.663028 0.598717
vt 0.663028 0.545283
vt 0.741845 0.652150
vt 0.663028 0.652150
vt 0.741845 0.705584
vt 0.663028 0.705584
vt 0.631139 0.652150
vt 0.552321 0.598717
vt 0.631139 0.598717
vt 0.741845 0.598717
vt 0.773734 0.652150
vt 0.236250 0.170656
vt 0.237342 0.129853
vt 0.045336 0.160957
vt 0.045501 0.197068
vt 0.113861 0.154921
vt 0.095990 0.121280
vt 0.114964 0.123128
vt 0.094887 0.153073
vt 0.049093 0.116713
vt 0.116067 0.091335
vt 0.161861 0.127695
vt 0.160758 0.159488
vt 0.112759 0.186714
vt 0.159655 0.191281
vt 0.153193 0.158992
vt 0.134495 0.188340
vt 0.135087 0.158002
vt 0.197352 0.191779
vt 0.152601 0.189330
vt 0.133904 0.218678
vt 0.089745 0.185892
vt 0.090336 0.155553
vt 0.135678 0.127663
vt 0.090927 0.125215
vt 0.893013 0.809899
vt 0.820174 0.859280
vt 0.820174 0.809899
vt 0.893013 0.859280
vt 0.820174 0.908661
vt 0.893013 0.958041
vt 0.893013 0.908661
vt 0.922484 0.908660
vt 0.995323 0.859280
vt 0.995323 0.908660
vt 0.790703 0.908661
vt 0.668850 0.601598
vt 0.627314 0.573439
vt 0.668850 0.573439
vt 0.627314 0.629757
vt 0.627314 0.601598
vt 0.668850 0.629757
vt 0.627314 0.657916
vt 0.685655 0.629757
vt 0.727191 0.601598
vt 0.727191 0.629757
vt 0.610509 0.601598
vt 0.114767 0.168293
vt 0.095916 0.220936
vt 0.095916 0.168293
vt 0.143042 0.168293
vt 0.114767 0.220936
vt 0.161893 0.168293
vt 0.143042 0.220936
vt 0.114767 0.136707
vt 0.143042 0.084063
vt 0.143042 0.136707
vt 0.143042 0.252523
vt 0.679363 0.612195
vt 0.705410 0.568551
vt 0.705410 0.612195
vt 0.653316 0.612195
vt 0.679363 0.568551
vt 0.627270 0.568551
vt 0.653316 0.568551
vt 0.679363 0.655839
vt 0.653316 0.699483
vt 0.653316 0.655839
vt 0.653316 0.524907
vt 0.922484 0.859280
vt 0.180835 0.129543
vt 0.072230 0.154563
vt 0.071639 0.184901
vt 0.685655 0.601598
vt 0.068267 0.117149
vt 0.210807 0.209629
vt 0.214083 0.087220
vt 0.195135 0.195141
vt 0.066721 0.124568
vt 0.067218 0.232901
vt 0.953247 0.803206
vt 0.953247 0.925710
vt 0.808410 0.884875
vt 0.552321 0.652150
vt 0.773734 0.598717
vt 0.047991 0.148506
vt 0.162963 0.095902
vt 0.197943 0.161440
vt 0.089154 0.216230
vt 0.820174 0.958041
vt 0.790703 0.859280
vt 0.668850 0.657916
vt 0.610509 0.629757
vt 0.161893 0.220936
vt 0.114767 0.084063
vt 0.114767 0.252523
vt 0.627270 0.612195
vt 0.679363 0.699483
vt 0.679363 0.524907
vt 0.179732 0.161336
vn -0.1208 -0.4811 0.8683
vn -0.2560 0.8602 0.4410
vn 0.9591 0.1690 0.2271
vn 0.2560 -0.8602 -0.4410
vn -0.9591 -0.1690 -0.2271
vn 0.0018 -1.0000 0.0008
vn 0.0202 0.0008 0.9998
vn 0.9998 0.0018 -0.0202
vn -0.0202 -0.0008 -0.9998
vn -0.9998 -0.0018 0.0202
vn -0.9601 -0.1702 -0.2221
vn 0.2102 0.0847 -0.9740
vn 0.9599 0.1704 0.2226
vn -0.1640 -0.0763 0.9835
vn -0.1845 0.9818 0.0454
vn -0.9998 -0.0032 0.0193
vn -0.0166 -0.4022 -0.9154
vn 0.9998 0.0032 -0.0193
vn 0.0172 0.4037 0.9147
vn -0.0105 0.9174 -0.3979
vn 0.0054 -0.9915 0.1300
vn 0.1208 0.4811 -0.8683
vn -0.0018 1.0000 -0.0008
vn 0.0083 -0.9465 0.3226
vn -0.0966 -0.8039 0.5868
vn 0.1848 0.5649 0.8042
vn -0.9780 0.1861 0.0940
vn -0.1848 -0.5649 -0.8042
vn 0.9780 -0.1861 -0.0940
vn 0.0051 -0.9463 -0.3233
vn -0.0205 -0.3233 0.9461
vn -0.9998 0.0018 -0.0211
vn 0.0205 0.3233 -0.9461
vn 0.9998 -0.0018 0.0211
vn 0.9776 -0.1903 -0.0896
vn 0.0568 0.6490 -0.7586
vn -0.9776 0.1901 0.0902
vn -0.0619 -0.6674 0.7421
vn 0.2025 0.7361 0.6459
vn 0.9998 -0.0026 0.0199
vn 0.0196 -0.0213 -0.9996
vn -0.9998 0.0025 -0.0197
vn -0.0196 0.0230 0.9995
vn 0.0029 0.9998 -0.0175
vn 0.9895 0.0000 0.1443
vn 0.1443 0.0000 -0.9895
vn -0.9895 0.0000 -0.1443
vn -0.1443 0.0000 0.9895
vn 0.0000 -1.0000 0.0000
vn 0.0000 1.0000 0.0000
vn 0.9717 0.0007 0.2361
vn 0.2341 0.1275 -0.9638
vn -0.9717 -0.0007 -0.2361
vn -0.2341 -0.1275 0.9638
vn 0.0308 -0.9918 -0.1238
vn -0.0308 0.9918 0.1238
vn -0.2506 -0.7414 -0.6224
vn 0.0966 0.8039 -0.5868
vn -0.0051 0.9463 0.3233
vn -0.0020 -0.9986 -0.0521
vn -0.9601 -0.1702 -0.2220
vn 0.9601 0.1702 0.2220
vn -0.2066 -0.1039 0.9729
vn -0.9998 -0.0032 0.0190
vn -0.0161 -0.4023 -0.9153
vn 0.9998 0.0032 -0.0190
vn 0.0161 0.4033 0.9149
vn 0.2247 -0.9743 -0.0145
vn 0.0097 -0.9470 0.3212
vn 0.9776 -0.1903 -0.0897
vn 0.0420 0.6475 -0.7609
vn -0.9776 0.1903 0.0896
vn -0.1148 -0.6372 0.7621
vn 0.9998 -0.0025 0.0197
vn 0.0200 -0.0211 -0.9996
vn -0.9998 0.0026 -0.0199
vn -0.0205 0.0234 0.9995
vn -0.0561 -0.8896 -0.4533
vn -0.0008 -0.9987 -0.0509
s off
f 2/1/1 3/2/1 1/3/1
f 8/4/2 1/3/2 3/2/2
f 7/5/3 3/6/3 4/7/3
f 6/8/4 4/7/4 2/1/4
f 1/9/5 6/8/5 2/1/5
f 10/10/6 11/11/6 9/12/6
f 16/13/7 9/12/7 11/11/7
f 15/14/8 11/15/8 12/16/8
f 10/10/9 15/14/9 12/16/9
f 9/17/10 14/18/10 10/10/10
f 25/19/11 18/20/11 26/21/11
f 26/21/12 20/22/12 27/23/12
f 20/22/13 28/24/13 27/23/13
f 28/25/14 17/26/14 25/27/14
f 20/22/15 17/28/15 19/29/15
f 21/30/16 30/31/16 29/32/16
f 30/31/17 24/33/17 31/34/17
f 31/34/18 23/35/18 32/36/18
f 32/37/19 21/38/19 29/39/19
f 22/40/20 23/41/20 24/33/20
f 28/25/21 26/21/21 27/23/21
f 8/42/22 6/8/22 5/43/22
f 16/44/23 14/18/23 13/45/23
f 32/37/24 30/31/24 31/34/24
f 34/46/25 35/47/25 36/48/25
f 33/49/26 40/50/26 35/47/26
f 35/51/27 39/52/27 36/48/27
f 36/48/28 38/53/28 34/46/28
f 33/54/29 38/53/29 37/55/29
f 41/56/30 44/57/30 42/58/30
f 41/56/31 48/59/31 43/60/31
f 43/61/32 47/62/32 44/57/32
f 44/57/33 46/63/33 42/58/33
f 41/64/34 46/63/34 45/65/34
f 57/66/35 50/67/35 49/68/35
f 58/69/36 52/70/36 50/67/36
f 60/71/37 52/70/37 59/72/37
f 60/73/38 49/74/38 51/75/38
f 51/76/39 50/67/39 52/70/39
f 62/77/40 53/78/40 61/79/40
f 62/77/41 56/80/41 54/81/41
f 63/82/42 55/83/42 56/80/42
f 64/84/43 53/85/43 55/86/43
f 56/80/44 53/87/44 54/81/44
f 67/88/45 66/89/45 65/90/45
f 71/91/46 68/92/46 67/88/46
f 69/93/47 72/94/47 71/91/47
f 65/95/48 70/96/48 69/97/48
f 67/88/49 69/97/49 71/91/49
f 70/98/50 68/92/50 72/94/50
f 75/99/51 74/100/51 73/101/51
f 79/102/52 76/103/52 75/99/52
f 79/102/53 78/104/53 80/105/53
f 73/106/54 78/107/54 77/108/54
f 73/106/55 79/102/55 75/99/55
f 78/109/56 76/103/56 80/105/56
f 60/73/57 58/69/57 57/110/57
f 40/111/58 38/53/58 39/52/58
f 45/112/59 47/62/59 48/113/59
f 64/84/60 62/77/60 61/114/60
f 2/1/1 4/7/1 3/2/1
f 8/4/2 5/115/2 1/3/2
f 7/5/3 8/116/3 3/6/3
f 6/8/4 7/5/4 4/7/4
f 1/9/5 5/117/5 6/8/5
f 10/10/6 12/16/6 11/11/6
f 16/13/7 13/118/7 9/12/7
f 15/14/8 16/119/8 11/15/8
f 10/10/9 14/18/9 15/14/9
f 9/17/10 13/120/10 14/18/10
f 25/19/61 17/121/61 18/20/61
f 26/21/12 18/20/12 20/22/12
f 20/22/62 19/122/62 28/24/62
f 28/25/63 19/123/63 17/26/63
f 20/22/15 18/20/15 17/28/15
f 21/30/64 22/40/64 30/31/64
f 30/31/65 22/40/65 24/33/65
f 31/34/66 24/33/66 23/35/66
f 32/37/67 23/124/67 21/38/67
f 22/40/20 21/125/20 23/41/20
f 28/25/68 25/27/68 26/21/68
f 8/42/22 7/5/22 6/8/22
f 16/44/23 15/14/23 14/18/23
f 32/37/69 29/39/69 30/31/69
f 34/46/25 33/49/25 35/47/25
f 33/49/26 37/126/26 40/50/26
f 35/51/27 40/127/27 39/52/27
f 36/48/28 39/52/28 38/53/28
f 33/54/29 34/46/29 38/53/29
f 41/56/30 43/60/30 44/57/30
f 41/56/31 45/128/31 48/59/31
f 43/61/32 48/129/32 47/62/32
f 44/57/33 47/62/33 46/63/33
f 41/64/34 42/58/34 46/63/34
f 57/66/70 58/69/70 50/67/70
f 58/69/71 59/72/71 52/70/71
f 60/71/72 51/130/72 52/70/72
f 60/73/73 57/110/73 49/74/73
f 51/76/39 49/131/39 50/67/39
f 62/77/74 54/81/74 53/78/74
f 62/77/75 63/82/75 56/80/75
f 63/82/76 64/132/76 55/83/76
f 64/84/77 61/114/77 53/85/77
f 56/80/44 55/133/44 53/87/44
f 67/88/45 68/92/45 66/89/45
f 71/91/46 72/94/46 68/92/46
f 69/93/47 70/134/47 72/94/47
f 65/95/48 66/135/48 70/96/48
f 67/88/49 65/95/49 69/97/49
f 70/98/50 66/136/50 68/92/50
f 75/99/51 76/103/51 74/100/51
f 79/102/52 80/105/52 76/103/52
f 79/102/53 77/137/53 78/104/53
f 73/106/54 74/138/54 78/107/54
f 73/106/55 77/108/55 79/102/55
f 78/109/56 74/139/56 76/103/56
f 60/73/78 59/72/78 58/69/78
f 40/111/58 37/140/58 38/53/58
f 45/112/59 46/63/59 47/62/59
f 64/84/79 63/82/79 62/77/79
