# Blender v2.79 (sub 0) OBJ File: '3DObjectDecoderObjects.blend'
# www.blender.org
o Cube.001_Cube.000
v 0.508601 0.558357 1.641943
v 0.848903 0.505539 1.854315
v 0.483682 0.939084 1.776563
v 0.823983 0.886266 1.988935
v 1.045974 0.870542 0.858508
v 1.386275 0.817724 1.070879
v 1.361356 1.198451 1.205499
v 1.021054 1.251269 0.993127
v 0.085332 -1.910746 0.989972
v 0.075590 -2.020506 0.600670
v 0.489784 -1.909077 0.979380
v 0.480042 -2.018837 0.590078
v 0.074261 -0.948254 0.718887
v 0.064520 -1.058013 0.329585
v 0.468972 -1.056345 0.318993
v 0.478714 -0.946585 0.708295
v 0.627089 1.087398 0.167901
v 1.003851 1.156324 0.037531
v 0.603613 1.468552 0.301570
v 0.980375 1.537478 0.171200
v 0.056220 0.002993 0.204608
v 0.048075 -0.190605 -0.150569
v 0.460676 0.005020 0.194228
v 0.452531 -0.188579 -0.160950
v 0.986929 0.798444 1.055043
v 1.367025 0.865513 0.930641
v 1.364875 1.234221 1.104105
v 0.970777 1.186957 1.168967
v 0.073238 -0.883204 0.692471
v 0.064661 -1.061980 0.326272
v 0.469119 -1.060179 0.315910
v 0.477685 -0.881193 0.681813
v -0.723766 0.187451 -0.157319
v -0.762001 -0.098306 -0.441193
v -1.126480 0.219862 -0.135702
v -1.164715 -0.065896 -0.419577
v -0.705297 0.890857 -0.867879
v -0.743532 0.605099 -1.151753
v -1.146246 0.637509 -1.130137
v -1.108011 0.923267 -0.846262
v -0.114417 -2.097378 -0.495747
v -0.104913 -1.927852 -0.862991
v -0.518809 -2.085663 -0.500804
v -0.509306 -1.916137 -0.868048
v -0.093372 -1.189854 -0.076273
v -0.083869 -1.020328 -0.443517
v -0.488262 -1.008613 -0.448573
v -0.497765 -1.178139 -0.081330
v -0.640282 1.220381 -0.103731
v -0.629990 1.505112 -0.391004
v -1.042951 1.254626 -0.084214
v -1.032660 1.539357 -0.371487
v -0.063920 -0.119968 0.107082
v -0.057435 -0.053492 -0.291962
v -0.468314 -0.108082 0.102490
v -0.461829 -0.041606 -0.296554
v -0.734325 0.514988 -0.806297
v -0.725145 0.790532 -1.099690
v -1.135162 0.763340 -1.119576
v -1.134549 0.583080 -0.795110
v -0.091560 -1.120696 -0.054859
v -0.084354 -1.032237 -0.452882
v -0.488753 -1.020574 -0.457627
v -0.495944 -1.108616 -0.059719
v 0.442419 0.021066 0.591865
v 0.442419 1.421066 0.591865
v 0.731156 0.021066 -0.196951
v 0.731156 1.421066 -0.196951
v -0.740805 0.021066 0.158761
v -0.740805 1.421066 0.158761
v -0.452068 0.021066 -0.630055
v -0.452069 1.421066 -0.630055
v 0.019639 1.459178 0.415632
v -0.054828 2.047596 0.506285
v 0.400509 1.576480 -0.032897
v 0.326042 2.164898 0.057757
v -0.437956 1.461056 0.027554
v -0.512422 2.049474 0.118208
v -0.057085 1.578358 -0.420974
v -0.131552 2.166776 -0.330321
vt 0.151712 0.164304
vt 0.128453 0.121671
vt 0.152804 0.123501
vt 0.067175 0.157952
vt 0.127361 0.162474
vt 0.210807 0.209629
vt 0.150620 0.205107
vt 0.212991 0.128023
vt 0.153896 0.082698
vt 0.120318 0.196104
vt 0.141703 0.159716
vt 0.141869 0.195827
vt 0.194969 0.159030
vt 0.066887 0.160679
vt 0.119987 0.123882
vt 0.120152 0.159993
vt 0.067052 0.196790
vt 0.120483 0.232215
vt 0.893013 0.803206
vt 0.953247 0.844041
vt 0.893013 0.844041
vt 0.953247 0.884875
vt 0.893013 0.884875
vt 0.893013 0.925710
vt 0.868643 0.884875
vt 0.808410 0.844041
vt 0.868643 0.844041
vt 0.977617 0.844041
vt 0.977617 0.884875
vt 0.741845 0.545283
vt 0.663028 0.598717
vt 0.663028 0.545283
vt 0.741845 0.652150
vt 0.663028 0.652150
vt 0.741845 0.705584
vt 0.663028 0.705584
vt 0.631139 0.652150
vt 0.552321 0.598717
vt 0.631139 0.598717
vt 0.741845 0.598717
vt 0.773734 0.652150
vt 0.211899 0.168826
vt 0.237342 0.129853
vt 0.236250 0.170656
vt 0.045336 0.160957
vt 0.045501 0.197068
vt 0.113861 0.154921
vt 0.095990 0.121280
vt 0.114964 0.123128
vt 0.094887 0.153073
vt 0.049093 0.116713
vt 0.116067 0.091335
vt 0.161861 0.127695
vt 0.160758 0.159488
vt 0.112759 0.186714
vt 0.159655 0.191281
vt 0.135087 0.158002
vt 0.152601 0.189330
vt 0.134495 0.188340
vt 0.153193 0.158992
vt 0.197352 0.191779
vt 0.133904 0.218678
vt 0.089745 0.185892
vt 0.090336 0.155553
vt 0.135678 0.127663
vt 0.090927 0.125215
vt 0.893013 0.809899
vt 0.820174 0.859280
vt 0.820174 0.809899
vt 0.893013 0.859280
vt 0.820174 0.908661
vt 0.893013 0.958041
vt 0.893013 0.908661
vt 0.922484 0.908660
vt 0.995323 0.859280
vt 0.995323 0.908660
vt 0.790703 0.859280
vt 0.668850 0.601598
vt 0.627314 0.573439
vt 0.668850 0.573439
vt 0.627314 0.629757
vt 0.627314 0.601598
vt 0.668850 0.629757
vt 0.627314 0.657916
vt 0.685655 0.629757
vt 0.727191 0.601598
vt 0.727191 0.629757
vt 0.610509 0.629757
vt 0.114767 0.168293
vt 0.095916 0.220936
vt 0.095916 0.168293
vt 0.143042 0.168293
vt 0.114767 0.220936
vt 0.161893 0.168293
vt 0.143042 0.220936
vt 0.114767 0.136707
vt 0.143042 0.084063
vt 0.143042 0.136707
vt 0.143042 0.252523
vt 0.705410 0.612195
vt 0.679363 0.568551
vt 0.705410 0.568551
vt 0.653316 0.612195
vt 0.679363 0.612195
vt 0.627270 0.612195
vt 0.653316 0.568551
vt 0.679363 0.655839
vt 0.653316 0.699483
vt 0.653316 0.655839
vt 0.679363 0.524907
vt 0.922484 0.859280
vt 0.180835 0.129543
vt 0.072230 0.154563
vt 0.071639 0.184901
vt 0.685655 0.601598
vt 0.068267 0.117149
vt 0.214083 0.087220
vt 0.195135 0.195141
vt 0.066721 0.124568
vt 0.067218 0.232901
vt 0.953247 0.803206
vt 0.953247 0.925710
vt 0.808410 0.884875
vt 0.552321 0.652150
vt 0.773734 0.598717
vt 0.047991 0.148506
vt 0.162963 0.095902
vt 0.197943 0.161440
vt 0.089154 0.216230
vt 0.820174 0.958041
vt 0.790703 0.908661
vt 0.668850 0.657916
vt 0.610509 0.601598
vt 0.161893 0.220936
vt 0.114767 0.084063
vt 0.114767 0.252523
vt 0.627270 0.568551
vt 0.679363 0.699483
vt 0.653316 0.524907
vt 0.179732 0.161336
vn -0.5374 -0.3122 0.7834
vn -0.8411 0.1305 -0.5249
vn -0.0616 0.9410 0.3327
vn 0.8411 -0.1305 0.5249
vn 0.0616 -0.9410 -0.3327
vn 0.0111 -0.9625 0.2711
vn 0.0241 0.2713 0.9622
vn 0.9996 0.0041 -0.0262
vn -0.0241 -0.2713 -0.9622
vn -0.9996 -0.0041 0.0262
vn 0.0581 -0.9421 -0.3304
vn 0.9298 0.1611 -0.3309
vn -0.0586 0.9420 0.3304
vn -0.9327 -0.1367 0.3338
vn -0.3598 0.2890 -0.8871
vn -0.9997 -0.0050 0.0258
vn -0.0203 -0.4802 -0.8769
vn 0.9997 0.0050 -0.0258
vn 0.0207 0.4825 0.8757
vn -0.0167 0.8781 -0.4782
vn 0.1961 -0.4165 0.8877
vn 0.5374 0.3122 -0.7834
vn -0.0111 0.9625 -0.2711
vn 0.0152 -0.8983 0.4391
vn -0.0185 -0.7034 0.7106
vn 0.0945 0.7063 0.7016
vn -0.9954 0.0801 0.0534
vn -0.0945 -0.7063 -0.7016
vn 0.9954 -0.0801 -0.0534
vn -0.0210 -0.9075 -0.4195
vn -0.0235 -0.4190 0.9077
vn -0.9995 0.0290 -0.0125
vn 0.0235 0.4190 -0.9077
vn 0.9995 -0.0290 0.0125
vn 0.9952 -0.0846 -0.0482
vn 0.0252 0.7023 -0.7115
vn -0.9952 0.0844 0.0488
vn -0.0283 -0.7248 0.6884
vn 0.0940 0.7054 0.7025
vn 0.9995 -0.0295 0.0115
vn 0.0160 0.1618 -0.9867
vn -0.9995 0.0294 -0.0114
vn -0.0159 -0.1596 0.9871
vn 0.0271 0.9860 0.1647
vn 0.9391 -0.0000 0.3437
vn 0.3437 0.0000 -0.9391
vn -0.9391 0.0000 -0.3437
vn -0.3437 -0.0000 0.9391
vn 0.0000 -1.0000 0.0000
vn 0.0000 1.0000 -0.0000
vn 0.7627 -0.0031 0.6468
vn 0.6348 0.1955 -0.7475
vn -0.7627 0.0031 -0.6468
vn -0.6348 -0.1955 0.7475
vn 0.1241 -0.9807 -0.1511
vn -0.1241 0.9807 0.1511
vn -0.1414 -0.7194 -0.6801
vn 0.0185 0.7034 -0.7106
vn 0.0210 0.9075 0.4195
vn -0.0265 -0.9757 -0.2173
vn 0.0580 -0.9421 -0.3304
vn 0.9309 0.1706 -0.3230
vn -0.0580 0.9421 0.3304
vn -0.9258 -0.1746 0.3352
vn -0.9997 -0.0050 0.0256
vn -0.0201 -0.4802 -0.8769
vn 0.9997 0.0050 -0.0256
vn 0.0201 0.4822 0.8758
vn 0.3409 -0.2515 0.9059
vn 0.0160 -0.8987 0.4383
vn 0.9952 -0.0846 -0.0483
vn -0.0112 0.6948 -0.7192
vn -0.9952 0.0847 0.0483
vn -0.0985 -0.6956 0.7116
vn 0.9995 -0.0294 0.0114
vn 0.0162 0.1619 -0.9867
vn -0.9995 0.0295 -0.0115
vn -0.0166 -0.1593 0.9871
vn 0.0813 -0.8712 -0.4842
vn -0.0256 -0.9760 -0.2164
s off
f 4/1/1 1/2/1 2/3/1
f 8/4/2 1/2/2 3/5/2
f 4/1/3 8/6/3 3/7/3
f 6/8/4 4/1/4 2/3/4
f 1/9/5 6/8/5 2/3/5
f 10/10/6 11/11/6 9/12/6
f 16/13/7 9/12/7 11/11/7
f 15/14/8 11/15/8 12/16/8
f 14/17/9 12/16/9 10/10/9
f 9/18/10 14/17/10 10/10/10
f 25/19/11 18/20/11 26/21/11
f 26/21/12 20/22/12 27/23/12
f 20/22/13 28/24/13 27/23/13
f 28/25/14 17/26/14 25/27/14
f 20/22/15 17/28/15 19/29/15
f 21/30/16 30/31/16 29/32/16
f 30/31/17 24/33/17 31/34/17
f 31/34/18 23/35/18 32/36/18
f 32/37/19 21/38/19 29/39/19
f 22/40/20 23/41/20 24/33/20
f 28/25/21 26/21/21 27/23/21
f 7/42/22 5/43/22 8/44/22
f 16/45/23 14/17/23 13/46/23
f 32/37/24 30/31/24 31/34/24
f 34/47/25 35/48/25 36/49/25
f 33/50/26 40/51/26 35/48/26
f 35/52/27 39/53/27 36/49/27
f 36/49/28 38/54/28 34/47/28
f 33/55/29 38/54/29 37/56/29
f 42/57/30 43/58/30 44/59/30
f 41/60/31 48/61/31 43/58/31
f 43/62/32 47/63/32 44/59/32
f 44/59/33 46/64/33 42/57/33
f 41/65/34 46/64/34 45/66/34
f 57/67/35 50/68/35 49/69/35
f 58/70/36 52/71/36 50/68/36
f 60/72/37 52/71/37 59/73/37
f 60/74/38 49/75/38 51/76/38
f 52/71/39 49/77/39 50/68/39
f 62/78/40 53/79/40 61/80/40
f 62/78/41 56/81/41 54/82/41
f 63/83/42 55/84/42 56/81/42
f 64/85/43 53/86/43 55/87/43
f 55/88/44 54/82/44 56/81/44
f 67/89/45 66/90/45 65/91/45
f 71/92/46 68/93/46 67/89/46
f 69/94/47 72/95/47 71/92/47
f 65/96/48 70/97/48 69/98/48
f 65/96/49 71/92/49 67/89/49
f 70/99/50 68/93/50 72/95/50
f 73/100/51 76/101/51 74/102/51
f 79/103/52 76/101/52 75/104/52
f 77/105/53 80/106/53 79/103/53
f 73/107/54 78/108/54 77/109/54
f 73/107/55 79/103/55 75/104/55
f 80/106/56 74/110/56 76/101/56
f 60/74/57 58/70/57 57/111/57
f 40/112/58 38/54/58 39/53/58
f 45/113/59 47/63/59 48/114/59
f 64/85/60 62/78/60 61/115/60
f 4/1/1 3/5/1 1/2/1
f 8/4/2 5/116/2 1/2/2
f 4/1/3 7/42/3 8/6/3
f 6/8/4 7/42/4 4/1/4
f 1/9/5 5/117/5 6/8/5
f 10/10/6 12/16/6 11/11/6
f 16/13/7 13/118/7 9/12/7
f 15/14/8 16/119/8 11/15/8
f 14/17/9 15/14/9 12/16/9
f 9/18/10 13/120/10 14/17/10
f 25/19/61 17/121/61 18/20/61
f 26/21/62 18/20/62 20/22/62
f 20/22/63 19/122/63 28/24/63
f 28/25/64 19/123/64 17/26/64
f 20/22/15 18/20/15 17/28/15
f 21/30/65 22/40/65 30/31/65
f 30/31/66 22/40/66 24/33/66
f 31/34/67 24/33/67 23/35/67
f 32/37/68 23/124/68 21/38/68
f 22/40/20 21/125/20 23/41/20
f 28/25/69 25/27/69 26/21/69
f 7/42/22 6/8/22 5/43/22
f 16/45/23 15/14/23 14/17/23
f 32/37/70 29/39/70 30/31/70
f 34/47/25 33/50/25 35/48/25
f 33/50/26 37/126/26 40/51/26
f 35/52/27 40/127/27 39/53/27
f 36/49/28 39/53/28 38/54/28
f 33/55/29 34/47/29 38/54/29
f 42/57/30 41/60/30 43/58/30
f 41/60/31 45/128/31 48/61/31
f 43/62/32 48/129/32 47/63/32
f 44/59/33 47/63/33 46/64/33
f 41/65/34 42/57/34 46/64/34
f 57/67/71 58/70/71 50/68/71
f 58/70/72 59/73/72 52/71/72
f 60/72/73 51/130/73 52/71/73
f 60/74/74 57/111/74 49/75/74
f 52/71/39 51/131/39 49/77/39
f 62/78/75 54/82/75 53/79/75
f 62/78/76 63/83/76 56/81/76
f 63/83/77 64/132/77 55/84/77
f 64/85/78 61/115/78 53/86/78
f 55/88/44 53/133/44 54/82/44
f 67/89/45 68/93/45 66/90/45
f 71/92/46 72/95/46 68/93/46
f 69/94/47 70/134/47 72/95/47
f 65/96/48 66/135/48 70/97/48
f 65/96/49 69/98/49 71/92/49
f 70/99/50 66/136/50 68/93/50
f 73/100/51 75/104/51 76/101/51
f 79/103/52 80/106/52 76/101/52
f 77/105/53 78/137/53 80/106/53
f 73/107/54 74/138/54 78/108/54
f 73/107/55 77/109/55 79/103/55
f 80/106/56 78/139/56 74/110/56
f 60/74/79 59/73/79 58/70/79
f 40/112/58 37/140/58 38/54/58
f 45/113/59 46/64/59 47/63/59
f 64/85/80 63/83/80 62/78/80
