# Blender v2.79 (sub 0) OBJ File: '3DObjectDecoderObjects.blend'
# www.blender.org
o Cube.001_Cube.000
v 0.430073 0.613379 1.465778
v 0.649508 0.286291 1.558286
v 0.714133 0.850309 1.629701
v 0.933568 0.523221 1.722209
v 0.891507 0.672590 0.580582
v 1.110942 0.345502 0.673090
v 1.395002 0.582432 0.837013
v 1.175567 0.909520 0.744505
v 0.084784 -1.937904 0.898878
v 0.074902 -2.019987 0.502819
v 0.489245 -1.936768 0.888550
v 0.479362 -2.018850 0.492491
v 0.076856 -0.958703 0.696140
v 0.066973 -1.040785 0.300081
v 0.471434 -1.039649 0.289753
v 0.481316 -0.957566 0.685812
v 0.543043 1.329425 0.236629
v 0.804623 1.208852 -0.047509
v 0.828351 1.565992 0.398900
v 1.089931 1.445419 0.114761
v 0.060698 0.007789 0.199786
v 0.052499 -0.178709 -0.159170
v 0.465164 0.009352 0.189735
v 0.456966 -0.177146 -0.169221
v 0.834146 0.574895 0.824800
v 1.098337 0.447961 0.545423
v 1.400288 0.642741 0.739859
v 1.126284 0.819719 0.963008
v 0.075964 -0.890096 0.671836
v 0.067289 -1.057857 0.300220
v 0.471758 -1.056572 0.290180
v 0.480421 -0.888538 0.661446
v -0.722959 0.108924 -0.113104
v -0.752117 -0.160950 -0.413141
v -1.126436 0.133850 -0.096315
v -1.155594 -0.136024 -0.396352
v -0.704951 0.851428 -0.782711
v -0.734108 0.581554 -1.082748
v -1.137585 0.606480 -1.065959
v -1.108427 0.876354 -0.765922
v -0.110004 -2.099931 -0.412313
v -0.101117 -1.940509 -0.784069
v -0.514440 -2.089998 -0.417721
v -0.505553 -1.930576 -0.789477
v -0.092713 -1.181162 -0.017897
v -0.083826 -1.021739 -0.389653
v -0.488262 -1.011806 -0.395061
v -0.497149 -1.171229 -0.023305
v -0.652626 1.244449 -0.060802
v -0.645919 1.513674 -0.362757
v -1.056069 1.271110 -0.045991
v -1.049362 1.540336 -0.347946
v -0.067214 -0.102031 0.116546
v -0.061128 -0.054072 -0.285150
v -0.471651 -0.091896 0.111629
v -0.465565 -0.043938 -0.290068
v -0.726164 0.500896 -0.725436
v -0.720276 0.761443 -1.033190
v -1.129141 0.730072 -1.055722
v -1.127798 0.559546 -0.718414
v -0.091148 -1.110337 0.001205
v -0.084381 -1.038827 -0.400267
v -0.488823 -1.028938 -0.405340
v -0.495575 -1.100006 -0.004007
v 0.468069 0.028157 0.574968
v 0.468069 1.428157 0.574968
v 0.723678 0.028157 -0.225197
v 0.723678 1.428157 -0.225197
v -0.732178 0.028157 0.191554
v -0.732178 1.428157 0.191554
v -0.476569 0.028157 -0.608611
v -0.476569 1.428157 -0.608611
v 0.056931 1.474782 0.413259
v -0.003713 2.065760 0.497325
v 0.400217 1.578437 -0.067792
v 0.339574 2.169415 0.016274
v -0.431410 1.474259 0.064658
v -0.492054 2.065236 0.148724
v -0.088124 1.577914 -0.416393
v -0.148768 2.168891 -0.332328
vt 0.151712 0.164304
vt 0.128453 0.121671
vt 0.152804 0.123501
vt 0.067175 0.157952
vt 0.127361 0.162474
vt 0.211899 0.168826
vt 0.150620 0.205107
vt 0.212991 0.128023
vt 0.214083 0.087220
vt 0.153896 0.082698
vt 0.120318 0.196104
vt 0.141703 0.159716
vt 0.141869 0.195827
vt 0.194969 0.159030
vt 0.066887 0.160679
vt 0.119987 0.123882
vt 0.120152 0.159993
vt 0.120483 0.232215
vt 0.067052 0.196790
vt 0.893013 0.803206
vt 0.953247 0.844041
vt 0.893013 0.844041
vt 0.953247 0.884875
vt 0.893013 0.884875
vt 0.893013 0.925710
vt 0.868643 0.884875
vt 0.808410 0.844041
vt 0.868643 0.844041
vt 0.977617 0.844041
vt 0.977617 0.884875
vt 0.741845 0.545283
vt 0.663028 0.598717
vt 0.663028 0.545283
vt 0.741845 0.652150
vt 0.663028 0.652150
vt 0.741845 0.705584
vt 0.663028 0.705584
vt 0.631139 0.652150
vt 0.552321 0.598717
vt 0.631139 0.598717
vt 0.741845 0.598717
vt 0.773734 0.652150
vt 0.237342 0.129853
vt 0.236250 0.170656
vt 0.045336 0.160957
vt 0.045501 0.197068
vt 0.113861 0.154921
vt 0.095990 0.121280
vt 0.114964 0.123128
vt 0.094887 0.153073
vt 0.049093 0.116713
vt 0.116067 0.091335
vt 0.161861 0.127695
vt 0.160758 0.159488
vt 0.112759 0.186714
vt 0.159655 0.191281
vt 0.153193 0.158992
vt 0.134495 0.188340
vt 0.135087 0.158002
vt 0.197352 0.191779
vt 0.152601 0.189330
vt 0.133904 0.218678
vt 0.089745 0.185892
vt 0.090336 0.155553
vt 0.135678 0.127663
vt 0.090927 0.125215
vt 0.893013 0.809899
vt 0.820174 0.859280
vt 0.820174 0.809899
vt 0.893013 0.859280
vt 0.820174 0.908661
vt 0.893013 0.958041
vt 0.893013 0.908661
vt 0.922484 0.908660
vt 0.995323 0.859280
vt 0.995323 0.908660
vt 0.790703 0.859280
vt 0.668850 0.601598
vt 0.627314 0.573439
vt 0.668850 0.573439
vt 0.627314 0.629757
vt 0.627314 0.601598
vt 0.668850 0.629757
vt 0.627314 0.657916
vt 0.685655 0.629757
vt 0.727191 0.601598
vt 0.727191 0.629757
vt 0.610509 0.629757
vt 0.095916 0.168293
vt 0.114767 0.220936
vt 0.095916 0.220936
vt 0.143042 0.168293
vt 0.114767 0.168293
vt 0.161893 0.168293
vt 0.143042 0.220936
vt 0.114767 0.136707
vt 0.143042 0.084063
vt 0.143042 0.136707
vt 0.143042 0.252523
vt 0.705410 0.612195
vt 0.679363 0.568551
vt 0.705410 0.568551
vt 0.679363 0.612195
vt 0.653316 0.568551
vt 0.627270 0.612195
vt 0.653316 0.612195
vt 0.679363 0.655839
vt 0.653316 0.699483
vt 0.653316 0.655839
vt 0.653316 0.524907
vt 0.922484 0.859280
vt 0.180835 0.129543
vt 0.072230 0.154563
vt 0.071639 0.184901
vt 0.685655 0.601598
vt 0.068267 0.117149
vt 0.210807 0.209629
vt 0.195135 0.195141
vt 0.066721 0.124568
vt 0.067218 0.232901
vt 0.953247 0.803206
vt 0.953247 0.925710
vt 0.808410 0.884875
vt 0.552321 0.652150
vt 0.773734 0.598717
vt 0.047991 0.148506
vt 0.162963 0.095902
vt 0.197943 0.161440
vt 0.089154 0.216230
vt 0.820174 0.958041
vt 0.790703 0.908661
vt 0.668850 0.657916
vt 0.610509 0.601598
vt 0.161893 0.220936
vt 0.114767 0.084063
vt 0.114767 0.252523
vt 0.627270 0.568551
vt 0.679363 0.699483
vt 0.679363 0.524907
vt 0.179732 0.161336
vn -0.4614 -0.0592 0.8852
vn -0.5424 0.8084 -0.2286
vn 0.7021 0.5856 0.4052
vn 0.5424 -0.8084 0.2286
vn -0.7021 -0.5856 -0.4052
vn 0.0079 -0.9792 0.2027
vn 0.0244 0.2029 0.9789
vn 0.9997 0.0028 -0.0255
vn -0.0244 -0.2029 -0.9789
vn -0.9997 -0.0028 0.0255
vn -0.7051 -0.5847 -0.4011
vn 0.6453 -0.2982 -0.7033
vn 0.7047 0.5850 0.4013
vn -0.6130 0.3249 0.7202
vn -0.2911 0.7545 -0.5882
vn -0.9997 -0.0038 0.0251
vn -0.0205 -0.4632 -0.8860
vn 0.9997 0.0038 -0.0251
vn 0.0209 0.4655 0.8848
vn -0.0149 0.8874 -0.4607
vn 0.0561 -0.7476 0.6618
vn 0.4614 0.0592 -0.8852
vn -0.0079 0.9792 -0.2027
vn 0.0131 -0.9111 0.4120
vn -0.0180 -0.7425 0.6696
vn 0.0721 0.6670 0.7416
vn -0.9972 0.0616 0.0415
vn -0.0721 -0.6670 -0.7416
vn 0.9972 -0.0616 -0.0415
vn -0.0173 -0.9188 -0.3944
vn -0.0220 -0.3940 0.9188
vn -0.9996 0.0246 -0.0134
vn 0.0220 0.3940 -0.9188
vn 0.9996 -0.0246 0.0134
vn 0.9972 -0.0659 -0.0366
vn 0.0165 0.6644 -0.7472
vn -0.9971 0.0657 0.0372
vn -0.0186 -0.6857 0.7276
vn 0.0735 0.7436 0.6646
vn 0.9996 -0.0251 0.0124
vn 0.0150 0.1157 -0.9932
vn -0.9996 0.0250 -0.0122
vn -0.0149 -0.1136 0.9934
vn 0.0234 0.9926 0.1189
vn 0.9526 0.0000 0.3043
vn 0.3043 0.0000 -0.9526
vn -0.9526 0.0000 -0.3043
vn -0.3043 -0.0000 0.9526
vn 0.0000 -1.0000 0.0000
vn 0.0000 1.0000 0.0000
vn 0.8139 0.0009 0.5810
vn 0.5721 0.1728 -0.8018
vn -0.8139 -0.0009 -0.5810
vn -0.5721 -0.1728 0.8018
vn 0.1011 -0.9850 -0.1401
vn -0.1011 0.9850 0.1401
vn -0.1217 -0.7564 -0.6427
vn 0.0180 0.7425 -0.6696
vn 0.0173 0.9188 0.3944
vn -0.0229 -0.9842 -0.1757
vn -0.7052 -0.5847 -0.4011
vn 0.6465 -0.2978 -0.7024
vn 0.7052 0.5847 0.4011
vn -0.6408 0.2835 0.7134
vn -0.9997 -0.0038 0.0248
vn -0.0202 -0.4633 -0.8860
vn 0.9997 0.0038 -0.0248
vn 0.0202 0.4653 0.8849
vn 0.3101 -0.7203 0.6205
vn 0.0141 -0.9115 0.4111
vn 0.9972 -0.0659 -0.0367
vn -0.0090 0.6583 -0.7527
vn -0.9972 0.0659 0.0366
vn -0.0832 -0.6595 0.7471
vn 0.9996 -0.0250 0.0122
vn 0.0153 0.1159 -0.9931
vn -0.9996 0.0251 -0.0124
vn -0.0157 -0.1133 0.9934
vn 0.0929 -0.8884 -0.4495
vn -0.0219 -0.9844 -0.1747
s off
f 4/1/1 1/2/1 2/3/1
f 8/4/2 1/2/2 3/5/2
f 7/6/3 3/7/3 4/1/3
f 6/8/4 4/1/4 2/3/4
f 5/9/5 2/3/5 1/10/5
f 10/11/6 11/12/6 9/13/6
f 16/14/7 9/13/7 11/12/7
f 15/15/8 11/16/8 12/17/8
f 10/11/9 15/15/9 12/17/9
f 9/18/10 14/19/10 10/11/10
f 25/20/11 18/21/11 26/22/11
f 26/22/12 20/23/12 27/24/12
f 20/23/13 28/25/13 27/24/13
f 28/26/14 17/27/14 25/28/14
f 20/23/15 17/29/15 19/30/15
f 21/31/16 30/32/16 29/33/16
f 30/32/17 24/34/17 31/35/17
f 31/35/18 23/36/18 32/37/18
f 32/38/19 21/39/19 29/40/19
f 22/41/20 23/42/20 24/34/20
f 28/26/21 26/22/21 27/24/21
f 7/6/22 5/43/22 8/44/22
f 16/45/23 14/19/23 13/46/23
f 32/38/24 30/32/24 31/35/24
f 34/47/25 35/48/25 36/49/25
f 33/50/26 40/51/26 35/48/26
f 35/52/27 39/53/27 36/49/27
f 34/47/28 39/53/28 38/54/28
f 33/55/29 38/54/29 37/56/29
f 41/57/30 44/58/30 42/59/30
f 41/57/31 48/60/31 43/61/31
f 43/62/32 47/63/32 44/58/32
f 44/58/33 46/64/33 42/59/33
f 41/65/34 46/64/34 45/66/34
f 57/67/35 50/68/35 49/69/35
f 58/70/36 52/71/36 50/68/36
f 60/72/37 52/71/37 59/73/37
f 60/74/38 49/75/38 51/76/38
f 52/71/39 49/77/39 50/68/39
f 62/78/40 53/79/40 61/80/40
f 62/78/41 56/81/41 54/82/41
f 63/83/42 55/84/42 56/81/42
f 64/85/43 53/86/43 55/87/43
f 55/88/44 54/82/44 56/81/44
f 65/89/45 68/90/45 66/91/45
f 71/92/46 68/90/46 67/93/46
f 69/94/47 72/95/47 71/92/47
f 65/96/48 70/97/48 69/98/48
f 65/96/49 71/92/49 67/93/49
f 70/99/50 68/90/50 72/95/50
f 73/100/51 76/101/51 74/102/51
f 75/103/52 80/104/52 76/101/52
f 77/105/53 80/104/53 79/106/53
f 73/107/54 78/108/54 77/109/54
f 73/107/55 79/106/55 75/103/55
f 78/110/56 76/101/56 80/104/56
f 60/74/57 58/70/57 57/111/57
f 40/112/58 38/54/58 39/53/58
f 45/113/59 47/63/59 48/114/59
f 64/85/60 62/78/60 61/115/60
f 4/1/1 3/5/1 1/2/1
f 8/4/2 5/116/2 1/2/2
f 7/6/3 8/117/3 3/7/3
f 6/8/4 7/6/4 4/1/4
f 5/9/5 6/8/5 2/3/5
f 10/11/6 12/17/6 11/12/6
f 16/14/7 13/118/7 9/13/7
f 15/15/8 16/119/8 11/16/8
f 10/11/9 14/19/9 15/15/9
f 9/18/10 13/120/10 14/19/10
f 25/20/61 17/121/61 18/21/61
f 26/22/62 18/21/62 20/23/62
f 20/23/63 19/122/63 28/25/63
f 28/26/64 19/123/64 17/27/64
f 20/23/15 18/21/15 17/29/15
f 21/31/65 22/41/65 30/32/65
f 30/32/66 22/41/66 24/34/66
f 31/35/67 24/34/67 23/36/67
f 32/38/68 23/124/68 21/39/68
f 22/41/20 21/125/20 23/42/20
f 28/26/69 25/28/69 26/22/69
f 7/6/22 6/8/22 5/43/22
f 16/45/23 15/15/23 14/19/23
f 32/38/70 29/40/70 30/32/70
f 34/47/25 33/50/25 35/48/25
f 33/50/26 37/126/26 40/51/26
f 35/52/27 40/127/27 39/53/27
f 34/47/28 36/49/28 39/53/28
f 33/55/29 34/47/29 38/54/29
f 41/57/30 43/61/30 44/58/30
f 41/57/31 45/128/31 48/60/31
f 43/62/32 48/129/32 47/63/32
f 44/58/33 47/63/33 46/64/33
f 41/65/34 42/59/34 46/64/34
f 57/67/71 58/70/71 50/68/71
f 58/70/72 59/73/72 52/71/72
f 60/72/73 51/130/73 52/71/73
f 60/74/74 57/111/74 49/75/74
f 52/71/39 51/131/39 49/77/39
f 62/78/75 54/82/75 53/79/75
f 62/78/76 63/83/76 56/81/76
f 63/83/77 64/132/77 55/84/77
f 64/85/78 61/115/78 53/86/78
f 55/88/44 53/133/44 54/82/44
f 65/89/45 67/93/45 68/90/45
f 71/92/46 72/95/46 68/90/46
f 69/94/47 70/134/47 72/95/47
f 65/96/48 66/135/48 70/97/48
f 65/96/49 69/98/49 71/92/49
f 70/99/50 66/136/50 68/90/50
f 73/100/51 75/103/51 76/101/51
f 75/103/52 79/106/52 80/104/52
f 77/105/53 78/137/53 80/104/53
f 73/107/54 74/138/54 78/108/54
f 73/107/55 77/109/55 79/106/55
f 78/110/56 74/139/56 76/101/56
f 60/74/79 59/73/79 58/70/79
f 40/112/58 37/140/58 38/54/58
f 45/113/59 46/64/59 47/63/59
f 64/85/80 63/83/80 62/78/80
