# Blender v2.79 (sub 0) OBJ File: '3DObjectDecoderObjects.blend'
# www.blender.org
o Cube.001_Cube.000
v 0.636439 -0.159136 0.536281
v 0.652391 -0.399988 0.211577
v 1.040159 -0.166739 0.561755
v 1.056111 -0.407591 0.237051
v 0.689000 0.644155 -0.056982
v 0.704953 0.403303 -0.381686
v 1.108672 0.395700 -0.356212
v 1.092720 0.636552 -0.031508
v 0.081350 -2.057861 0.377625
v 0.071604 -2.049133 -0.026760
v 0.485827 -2.058119 0.367870
v 0.476081 -2.049392 -0.036514
v 0.082508 -1.058093 0.399177
v 0.072762 -1.049366 -0.005207
v 0.477239 -1.049624 -0.014962
v 0.486985 -1.058352 0.389423
v 0.682016 1.412536 0.283108
v 0.706934 1.520172 -0.106109
v 1.085842 1.405819 0.307104
v 1.110760 1.513454 -0.082114
v 0.077743 0.003340 0.199040
v 0.068449 -0.072751 -0.198228
v 0.482227 0.003344 0.189576
v 0.472933 -0.072747 -0.207692
v 0.681821 0.448715 0.016558
v 0.706824 0.550042 -0.375379
v 1.111159 0.501312 -0.368639
v 1.086481 0.461756 0.031779
v 0.082354 -0.988809 0.393417
v 0.072855 -1.048504 -0.009586
v 0.477338 -1.048708 -0.019097
v 0.486830 -0.988742 0.383699
v -0.706347 -0.367143 0.123590
v -0.713064 -0.495476 -0.260064
v -1.110885 -0.364201 0.129688
v -1.117601 -0.492534 -0.253966
v -0.704231 0.581203 -0.193665
v -0.710948 0.452870 -0.577319
v -1.115485 0.455812 -0.571221
v -1.108769 0.584145 -0.187567
v -0.086920 -2.093650 0.055932
v -0.078653 -2.033750 -0.344119
v -0.491430 -2.091702 0.047865
v -0.483163 -2.031802 -0.352186
v -0.085111 -1.104682 0.204051
v -0.076844 -1.044782 -0.196000
v -0.481353 -1.042833 -0.204067
v -0.489620 -1.102734 0.195984
v -0.692572 1.392002 0.159806
v -0.696199 1.524396 -0.222510
v -1.097116 1.395789 0.164955
v -1.100743 1.528184 -0.217360
v -0.078894 -0.028563 0.178377
v -0.071153 -0.039066 -0.226008
v -0.483407 -0.026434 0.170579
v -0.475667 -0.036937 -0.233806
v -0.705582 0.447102 -0.167295
v -0.709307 0.575316 -0.552448
v -1.114490 0.551148 -0.565576
v -1.110006 0.466383 -0.165773
v -0.084820 -1.037169 0.208251
v -0.076894 -1.033540 -0.198871
v -0.481408 -1.031577 -0.206732
v -0.489329 -1.034959 0.200252
v 0.595364 0.067717 0.462336
v 0.595364 1.467717 0.462336
v 0.658933 0.067717 -0.375255
v 0.658933 1.467717 -0.375255
v -0.661023 0.067717 0.366982
v -0.661023 1.467717 0.366982
v -0.597454 0.067717 -0.470609
v -0.597454 1.467717 -0.470609
v 0.248940 1.556447 0.341997
v 0.242018 2.155901 0.366622
v 0.339399 1.581835 -0.250601
v 0.332476 2.181289 -0.225976
v -0.344161 1.553322 0.251328
v -0.351084 2.152776 0.275953
v -0.253702 1.578710 -0.341270
v -0.260625 2.178164 -0.316645
vt 0.151712 0.164304
vt 0.128453 0.121671
vt 0.152804 0.123501
vt 0.067175 0.157952
vt 0.127361 0.162474
vt 0.211899 0.168826
vt 0.150620 0.205107
vt 0.212991 0.128023
vt 0.153896 0.082698
vt 0.120318 0.196104
vt 0.141703 0.159716
vt 0.141869 0.195827
vt 0.194969 0.159030
vt 0.066887 0.160679
vt 0.119987 0.123882
vt 0.120152 0.159993
vt 0.120483 0.232215
vt 0.067052 0.196790
vt 0.893013 0.803206
vt 0.953247 0.844041
vt 0.893013 0.844041
vt 0.953247 0.884875
vt 0.893013 0.884875
vt 0.893013 0.925710
vt 0.868643 0.884875
vt 0.808410 0.844041
vt 0.868643 0.844041
vt 0.977617 0.844041
vt 0.977617 0.884875
vt 0.741845 0.545283
vt 0.663028 0.598717
vt 0.663028 0.545283
vt 0.741845 0.652150
vt 0.663028 0.652150
vt 0.741845 0.705584
vt 0.663028 0.705584
vt 0.631139 0.652150
vt 0.552321 0.598717
vt 0.631139 0.598717
vt 0.741845 0.598717
vt 0.773734 0.652150
vt 0.237342 0.129853
vt 0.236250 0.170656
vt 0.045336 0.160957
vt 0.045501 0.197068
vt 0.113861 0.154921
vt 0.095990 0.121280
vt 0.114964 0.123128
vt 0.094887 0.153073
vt 0.049093 0.116713
vt 0.116067 0.091335
vt 0.161861 0.127695
vt 0.160758 0.159488
vt 0.112759 0.186714
vt 0.159655 0.191281
vt 0.153193 0.158992
vt 0.134495 0.188340
vt 0.135087 0.158002
vt 0.197352 0.191779
vt 0.152601 0.189330
vt 0.133904 0.218678
vt 0.089745 0.185892
vt 0.090336 0.155553
vt 0.135678 0.127663
vt 0.090927 0.125215
vt 0.893013 0.809899
vt 0.820174 0.859280
vt 0.820174 0.809899
vt 0.893013 0.859280
vt 0.820174 0.908661
vt 0.893013 0.958041
vt 0.893013 0.908661
vt 0.922484 0.908660
vt 0.995323 0.859280
vt 0.995323 0.908660
vt 0.790703 0.859280
vt 0.668850 0.601598
vt 0.627314 0.573439
vt 0.668850 0.573439
vt 0.627314 0.629757
vt 0.627314 0.601598
vt 0.668850 0.629757
vt 0.627314 0.657916
vt 0.685655 0.629757
vt 0.727191 0.601598
vt 0.727191 0.629757
vt 0.610509 0.629757
vt 0.114767 0.168293
vt 0.095916 0.220936
vt 0.095916 0.168293
vt 0.143042 0.168293
vt 0.114767 0.220936
vt 0.161893 0.168293
vt 0.143042 0.220936
vt 0.114767 0.136707
vt 0.143042 0.084063
vt 0.143042 0.136707
vt 0.143042 0.252523
vt 0.705410 0.612195
vt 0.679363 0.568551
vt 0.705410 0.568551
vt 0.679363 0.612195
vt 0.653316 0.568551
vt 0.627270 0.612195
vt 0.653316 0.612195
vt 0.679363 0.655839
vt 0.653316 0.699483
vt 0.653316 0.655839
vt 0.653316 0.524907
vt 0.922484 0.859280
vt 0.180835 0.129543
vt 0.072230 0.154563
vt 0.071639 0.184901
vt 0.685655 0.601598
vt 0.068267 0.117149
vt 0.210807 0.209629
vt 0.214083 0.087220
vt 0.195135 0.195141
vt 0.066721 0.124568
vt 0.067218 0.232901
vt 0.953247 0.803206
vt 0.953247 0.925710
vt 0.808410 0.884875
vt 0.552321 0.652150
vt 0.773734 0.598717
vt 0.047991 0.148506
vt 0.162963 0.095902
vt 0.197943 0.161440
vt 0.089154 0.216230
vt 0.820174 0.958041
vt 0.790703 0.908661
vt 0.668850 0.657916
vt 0.610509 0.601598
vt 0.161893 0.220936
vt 0.114767 0.084063
vt 0.114767 0.252523
vt 0.627270 0.568551
vt 0.679363 0.699483
vt 0.679363 0.524907
vt 0.179732 0.161336
vn -0.0526 -0.8033 0.5933
vn -0.0394 0.5953 0.8025
vn 0.9978 -0.0188 0.0630
vn 0.0394 -0.5953 -0.8025
vn -0.9978 0.0188 -0.0630
vn -0.0012 -0.9998 -0.0215
vn 0.0241 -0.0216 0.9995
vn 0.9997 -0.0006 -0.0241
vn -0.0241 0.0216 -0.9995
vn -0.9997 0.0006 0.0241
vn -0.9981 0.0166 -0.0594
vn 0.0488 0.2721 -0.9610
vn 0.9981 -0.0166 0.0599
vn -0.0277 -0.2664 0.9635
vn 0.0002 0.9638 0.2665
vn -0.9997 -0.0000 0.0236
vn -0.0232 -0.1898 -0.9816
vn 0.9997 0.0000 -0.0236
vn 0.0235 0.1923 0.9811
vn -0.0044 0.9822 -0.1880
vn -0.1173 -0.9876 -0.1048
vn 0.0526 0.8033 -0.5933
vn 0.0012 0.9998 0.0215
vn 0.0030 -0.9891 0.1472
vn -0.0021 -0.9483 0.3173
vn 0.0166 0.3172 0.9482
vn -0.9999 0.0073 0.0151
vn -0.0166 -0.3172 -0.9482
vn 0.9999 -0.0073 -0.0151
vn -0.0018 -0.9890 -0.1481
vn -0.0204 -0.1481 0.9888
vn -0.9998 0.0048 -0.0199
vn 0.0204 0.1481 -0.9888
vn 0.9998 -0.0048 0.0199
vn 0.9999 -0.0094 -0.0127
vn -0.0089 0.3285 -0.9445
vn -0.9999 0.0094 0.0132
vn 0.0089 -0.3354 0.9421
vn 0.0130 0.9449 0.3271
vn 0.9998 -0.0053 0.0194
vn 0.0191 -0.0274 -0.9994
vn -0.9998 0.0052 -0.0193
vn -0.0191 0.0295 0.9994
vn 0.0058 0.9996 -0.0259
vn 0.9971 0.0000 0.0757
vn 0.0757 0.0000 -0.9971
vn -0.9971 0.0000 -0.0757
vn -0.0757 -0.0000 0.9971
vn 0.0000 -1.0000 -0.0000
vn 0.0000 1.0000 0.0000
vn 0.9885 0.0052 0.1511
vn 0.1508 0.0423 -0.9877
vn -0.9885 -0.0052 -0.1511
vn -0.1508 -0.0423 0.9877
vn 0.0115 -0.9991 -0.0410
vn -0.0115 0.9991 0.0410
vn -0.0464 -0.9479 -0.3151
vn 0.0021 0.9483 -0.3173
vn 0.0018 0.9890 0.1481
vn -0.0053 -0.9999 -0.0090
vn -0.9981 0.0166 -0.0593
vn 0.0616 0.2669 -0.9617
vn 0.9981 -0.0166 0.0593
vn -0.0616 -0.2795 0.9582
vn -0.9997 0.0000 0.0234
vn -0.0230 -0.1899 -0.9815
vn 0.9997 -0.0000 -0.0234
vn 0.0230 0.1921 0.9811
vn 0.0405 -0.9680 -0.2477
vn 0.0037 -0.9892 0.1464
vn 0.9999 -0.0094 -0.0128
vn 0.0105 0.3356 -0.9420
vn -0.9999 0.0093 0.0127
vn -0.0120 -0.3270 0.9450
vn 0.9998 -0.0052 0.0193
vn 0.0193 -0.0273 -0.9994
vn -0.9998 0.0053 -0.0194
vn -0.0196 0.0297 0.9994
vn 0.0649 -0.9760 -0.2077
vn -0.0047 -1.0000 -0.0084
s off
f 4/1/1 1/2/1 2/3/1
f 8/4/2 1/2/2 3/5/2
f 7/6/3 3/7/3 4/1/3
f 6/8/4 4/1/4 2/3/4
f 1/9/5 6/8/5 2/3/5
f 10/10/6 11/11/6 9/12/6
f 16/13/7 9/12/7 11/11/7
f 15/14/8 11/15/8 12/16/8
f 10/10/9 15/14/9 12/16/9
f 9/17/10 14/18/10 10/10/10
f 25/19/11 18/20/11 26/21/11
f 26/21/12 20/22/12 27/23/12
f 20/22/13 28/24/13 27/23/13
f 28/25/14 17/26/14 25/27/14
f 20/22/15 17/28/15 19/29/15
f 21/30/16 30/31/16 29/32/16
f 30/31/17 24/33/17 31/34/17
f 31/34/18 23/35/18 32/36/18
f 32/37/19 21/38/19 29/39/19
f 22/40/20 23/41/20 24/33/20
f 28/25/21 26/21/21 27/23/21
f 7/6/22 5/42/22 8/43/22
f 16/44/23 14/18/23 13/45/23
f 32/37/24 30/31/24 31/34/24
f 34/46/25 35/47/25 36/48/25
f 33/49/26 40/50/26 35/47/26
f 35/51/27 39/52/27 36/48/27
f 36/48/28 38/53/28 34/46/28
f 33/54/29 38/53/29 37/55/29
f 41/56/30 44/57/30 42/58/30
f 41/56/31 48/59/31 43/60/31
f 43/61/32 47/62/32 44/57/32
f 44/57/33 46/63/33 42/58/33
f 41/64/34 46/63/34 45/65/34
f 57/66/35 50/67/35 49/68/35
f 58/69/36 52/70/36 50/67/36
f 60/71/37 52/70/37 59/72/37
f 60/73/38 49/74/38 51/75/38
f 52/70/39 49/76/39 50/67/39
f 62/77/40 53/78/40 61/79/40
f 62/77/41 56/80/41 54/81/41
f 63/82/42 55/83/42 56/80/42
f 64/84/43 53/85/43 55/86/43
f 55/87/44 54/81/44 56/80/44
f 67/88/45 66/89/45 65/90/45
f 71/91/46 68/92/46 67/88/46
f 69/93/47 72/94/47 71/91/47
f 65/95/48 70/96/48 69/97/48
f 67/88/49 69/97/49 71/91/49
f 70/98/50 68/92/50 72/94/50
f 73/99/51 76/100/51 74/101/51
f 75/102/52 80/103/52 76/100/52
f 77/104/53 80/103/53 79/105/53
f 73/106/54 78/107/54 77/108/54
f 73/106/55 79/105/55 75/102/55
f 78/109/56 76/100/56 80/103/56
f 60/73/57 58/69/57 57/110/57
f 40/111/58 38/53/58 39/52/58
f 45/112/59 47/62/59 48/113/59
f 64/84/60 62/77/60 61/114/60
f 4/1/1 3/5/1 1/2/1
f 8/4/2 5/115/2 1/2/2
f 7/6/3 8/116/3 3/7/3
f 6/8/4 7/6/4 4/1/4
f 1/9/5 5/117/5 6/8/5
f 10/10/6 12/16/6 11/11/6
f 16/13/7 13/118/7 9/12/7
f 15/14/8 16/119/8 11/15/8
f 10/10/9 14/18/9 15/14/9
f 9/17/10 13/120/10 14/18/10
f 25/19/61 17/121/61 18/20/61
f 26/21/62 18/20/62 20/22/62
f 20/22/63 19/122/63 28/24/63
f 28/25/64 19/123/64 17/26/64
f 20/22/15 18/20/15 17/28/15
f 21/30/65 22/40/65 30/31/65
f 30/31/66 22/40/66 24/33/66
f 31/34/67 24/33/67 23/35/67
f 32/37/68 23/124/68 21/38/68
f 22/40/20 21/125/20 23/41/20
f 28/25/69 25/27/69 26/21/69
f 7/6/22 6/8/22 5/42/22
f 16/44/23 15/14/23 14/18/23
f 32/37/70 29/39/70 30/31/70
f 34/46/25 33/49/25 35/47/25
f 33/49/26 37/126/26 40/50/26
f 35/51/27 40/127/27 39/52/27
f 36/48/28 39/52/28 38/53/28
f 33/54/29 34/46/29 38/53/29
f 41/56/30 43/60/30 44/57/30
f 41/56/31 45/128/31 48/59/31
f 43/61/32 48/129/32 47/62/32
f 44/57/33 47/62/33 46/63/33
f 41/64/34 42/58/34 46/63/34
f 57/66/71 58/69/71 50/67/71
f 58/69/72 59/72/72 52/70/72
f 60/71/73 51/130/73 52/70/73
f 60/73/74 57/110/74 49/74/74
f 52/70/39 51/131/39 49/76/39
f 62/77/75 54/81/75 53/78/75
f 62/77/76 63/82/76 56/80/76
f 63/82/77 64/132/77 55/83/77
f 64/84/78 61/114/78 53/85/78
f 55/87/44 53/133/44 54/81/44
f 67/88/45 68/92/45 66/89/45
f 71/91/46 72/94/46 68/92/46
f 69/93/47 70/134/47 72/94/47
f 65/95/48 66/135/48 70/96/48
f 67/88/49 65/95/49 69/97/49
f 70/98/50 66/136/50 68/92/50
f 73/99/51 75/102/51 76/100/51
f 75/102/52 79/105/52 80/103/52
f 77/104/53 78/137/53 80/103/53
f 73/106/54 74/138/54 78/107/54
f 73/106/55 77/108/55 79/105/55
f 78/109/56 74/139/56 76/100/56
f 60/73/79 59/72/79 58/69/79
f 40/111/58 37/140/58 38/53/58
f 45/112/59 46/63/59 47/62/59
f 64/84/80 63/82/80 62/77/80
