# Blender v2.79 (sub 0) OBJ File: '3DObjectDecoderObjects.blend'
# www.blender.org
o Cube.001_Cube.000
v 0.732778 0.345553 0.459038
v 0.866011 -0.017916 0.341411
v 1.104560 0.440255 0.587513
v 1.237793 0.076787 0.469886
v 0.949990 0.717271 -0.443538
v 1.083223 0.353803 -0.561166
v 1.455005 0.448506 -0.432691
v 1.321772 0.811974 -0.315064
v 0.084573 -2.020036 0.284472
v 0.077067 -1.916305 -0.106529
v 0.489097 -2.018164 0.277202
v 0.481592 -1.914433 -0.113798
v 0.084709 -1.053470 0.540894
v 0.077203 -0.949739 0.149894
v 0.481728 -0.947868 0.142624
v 0.489233 -1.051598 0.533625
v 0.623613 1.263438 0.107048
v 0.701715 1.432158 -0.252300
v 0.996041 1.359107 0.232910
v 1.074142 1.527827 -0.126437
v 0.070943 -0.014725 0.114170
v 0.066195 -0.176725 -0.256547
v 0.475478 -0.012039 0.107815
v 0.470730 -0.174039 -0.262903
v 0.963351 0.385833 -0.231164
v 1.044773 0.543779 -0.592045
v 1.438807 0.567951 -0.475093
v 1.335711 0.510176 -0.126785
v 0.083981 -0.962478 0.534127
v 0.078430 -1.073008 0.145836
v 0.482968 -1.070974 0.139331
v 0.488499 -0.959589 0.526979
v -0.764291 0.766073 0.650143
v -1.007759 0.522790 0.862841
v -0.943547 1.089322 0.814684
v -1.187015 0.846039 1.027382
v -1.428842 0.777883 -0.097033
v -1.672309 0.534600 0.115665
v -1.851565 0.857849 0.280206
v -1.608098 1.101132 0.067508
v -0.079565 -2.041945 0.184030
v -0.071096 -1.916716 -0.200603
v -0.484050 -2.043262 0.174695
v -0.475581 -1.918033 -0.209938
v -0.089800 -1.091057 0.493395
v -0.081331 -0.965827 0.108762
v -0.485815 -0.967144 0.099427
v -0.494284 -1.092373 0.484061
v -0.628555 1.142180 0.069672
v -0.798442 1.226027 -0.287832
v -0.809723 1.465667 0.231632
v -0.979610 1.549514 -0.125873
v -0.084000 -0.024578 0.147247
v -0.075873 -0.157466 -0.234816
v -0.488506 -0.025167 0.138848
v -0.480380 -0.158055 -0.243215
v -1.418005 0.578439 0.312571
v -1.595431 0.654610 -0.037963
v -1.825434 0.927367 0.171154
v -1.603170 0.918165 0.437788
v -0.089897 -1.000747 0.492667
v -0.081379 -1.082762 0.096922
v -0.485882 -1.083971 0.088336
v -0.494385 -1.001088 0.483515
v 0.638586 0.015256 0.377435
v 0.638586 1.415256 0.377435
v 0.610099 0.015256 -0.462081
v 0.610099 1.415256 -0.462081
v -0.620689 0.015256 0.420166
v -0.620689 1.415256 0.420166
v -0.649176 0.015256 -0.419351
v -0.649176 1.415256 -0.419351
v 0.190145 1.446025 0.369294
v 0.157306 2.032118 0.493456
v 0.360868 1.574372 -0.191402
v 0.328029 2.160465 -0.067241
v -0.384116 1.450666 0.195504
v -0.416955 2.036759 0.319665
v -0.213393 1.579013 -0.365193
v -0.246232 2.165106 -0.241032
vt 0.151712 0.164304
vt 0.128453 0.121671
vt 0.152804 0.123501
vt 0.067175 0.157952
vt 0.127361 0.162474
vt 0.211899 0.168826
vt 0.150620 0.205107
vt 0.212991 0.128023
vt 0.153896 0.082698
vt 0.120318 0.196104
vt 0.141703 0.159716
vt 0.141869 0.195827
vt 0.194969 0.159030
vt 0.120152 0.159993
vt 0.066721 0.124568
vt 0.119987 0.123882
vt 0.066887 0.160679
vt 0.067218 0.232901
vt 0.120483 0.232215
vt 0.893013 0.803206
vt 0.953247 0.844041
vt 0.893013 0.844041
vt 0.953247 0.884875
vt 0.893013 0.884875
vt 0.893013 0.925710
vt 0.868643 0.884875
vt 0.808410 0.844041
vt 0.868643 0.844041
vt 0.977617 0.844041
vt 0.977617 0.884875
vt 0.741845 0.545283
vt 0.663028 0.598717
vt 0.663028 0.545283
vt 0.741845 0.652150
vt 0.663028 0.652150
vt 0.741845 0.705584
vt 0.663028 0.705584
vt 0.631139 0.652150
vt 0.552321 0.598717
vt 0.631139 0.598717
vt 0.741845 0.598717
vt 0.773734 0.652150
vt 0.236250 0.170656
vt 0.237342 0.129853
vt 0.045336 0.160957
vt 0.067052 0.196790
vt 0.045501 0.197068
vt 0.094887 0.153073
vt 0.114964 0.123128
vt 0.113861 0.154921
vt 0.095990 0.121280
vt 0.047991 0.148506
vt 0.049093 0.116713
vt 0.162963 0.095902
vt 0.161861 0.127695
vt 0.160758 0.159488
vt 0.159655 0.191281
vt 0.112759 0.186714
vt 0.153193 0.158992
vt 0.134495 0.188340
vt 0.135087 0.158002
vt 0.197352 0.191779
vt 0.152601 0.189330
vt 0.133904 0.218678
vt 0.089745 0.185892
vt 0.090336 0.155553
vt 0.090927 0.125215
vt 0.135678 0.127663
vt 0.893013 0.809899
vt 0.820174 0.859280
vt 0.820174 0.809899
vt 0.893013 0.859280
vt 0.820174 0.908661
vt 0.893013 0.958041
vt 0.893013 0.908661
vt 0.922484 0.908660
vt 0.995323 0.859280
vt 0.995323 0.908660
vt 0.790703 0.908661
vt 0.668850 0.601598
vt 0.627314 0.573439
vt 0.668850 0.573439
vt 0.627314 0.629757
vt 0.627314 0.601598
vt 0.668850 0.629757
vt 0.627314 0.657916
vt 0.685655 0.629757
vt 0.727191 0.601598
vt 0.727191 0.629757
vt 0.610509 0.629757
vt 0.095916 0.168293
vt 0.114767 0.220936
vt 0.095916 0.220936
vt 0.143042 0.168293
vt 0.114767 0.168293
vt 0.161893 0.168293
vt 0.143042 0.220936
vt 0.114767 0.136707
vt 0.143042 0.084063
vt 0.143042 0.136707
vt 0.143042 0.252523
vt 0.705410 0.612195
vt 0.679363 0.568551
vt 0.705410 0.568551
vt 0.653316 0.612195
vt 0.679363 0.612195
vt 0.627270 0.568551
vt 0.653316 0.568551
vt 0.679363 0.655839
vt 0.653316 0.699483
vt 0.653316 0.655839
vt 0.653316 0.524907
vt 0.922484 0.859280
vt 0.179732 0.161336
vt 0.180835 0.129543
vt 0.072230 0.154563
vt 0.071639 0.184901
vt 0.685655 0.601598
vt 0.068267 0.117149
vt 0.210807 0.209629
vt 0.214083 0.087220
vt 0.195135 0.195141
vt 0.953247 0.803206
vt 0.953247 0.925710
vt 0.808410 0.884875
vt 0.552321 0.652150
vt 0.773734 0.598717
vt 0.116067 0.091335
vt 0.197943 0.161440
vt 0.089154 0.216230
vt 0.820174 0.958041
vt 0.790703 0.859280
vt 0.668850 0.657916
vt 0.610509 0.601598
vt 0.161893 0.220936
vt 0.114767 0.084063
vt 0.114767 0.252523
vt 0.627270 0.612195
vt 0.679363 0.699483
vt 0.679363 0.524907
vn -0.2172 -0.3717 0.9026
vn -0.3293 0.8984 0.2907
vn 0.9189 0.2341 0.3175
vn 0.3293 -0.8984 -0.2907
vn -0.9189 -0.2341 -0.3175
vn -0.0001 -0.9666 -0.2564
vn 0.0186 -0.2564 0.9664
vn 0.9998 0.0046 -0.0180
vn -0.0186 0.2564 -0.9664
vn -0.9998 -0.0046 0.0180
vn -0.9205 -0.2365 -0.3112
vn 0.2364 0.4098 -0.8810
vn 0.9203 0.2364 0.3116
vn -0.1221 -0.3977 0.9093
vn -0.3397 0.8776 0.3382
vn -0.9998 -0.0066 0.0162
vn -0.0126 -0.4093 -0.9123
vn 0.9998 0.0066 -0.0162
vn 0.0133 0.4052 0.9141
vn -0.0124 0.9163 -0.4003
vn 0.1002 -0.9859 -0.1339
vn 0.2172 0.3717 -0.9026
vn 0.0001 0.9666 0.2564
vn 0.0093 -0.9611 0.2760
vn 0.6645 -0.0118 0.7472
vn 0.6017 0.6013 -0.5257
vn -0.4431 0.7989 0.4067
vn -0.6017 -0.6013 0.5257
vn 0.4431 -0.7989 -0.4067
vn 0.0102 -0.9509 -0.3094
vn -0.0209 -0.3095 0.9507
vn -0.9997 -0.0033 -0.0231
vn 0.0209 0.3095 -0.9507
vn 0.9997 0.0033 0.0231
vn 0.4478 -0.7995 -0.4003
vn -0.4234 0.2047 -0.8825
vn -0.4475 0.7996 0.4006
vn 0.3895 -0.2285 0.8922
vn 0.7894 0.5637 -0.2429
vn 0.9998 0.0015 0.0212
vn 0.0200 -0.3375 -0.9411
vn -0.9998 -0.0015 -0.0207
vn -0.0201 0.3331 0.9427
vn 0.0054 0.9445 -0.3284
vn 0.9994 -0.0000 -0.0339
vn -0.0339 0.0000 -0.9994
vn -0.9994 -0.0000 0.0339
vn 0.0339 -0.0000 0.9994
vn 0.0000 -1.0000 0.0000
vn 0.0000 1.0000 0.0000
vn 0.9571 -0.0077 0.2897
vn 0.2845 0.2139 -0.9345
vn -0.9571 0.0077 -0.2897
vn -0.2845 -0.2139 0.9345
vn 0.0547 -0.9768 -0.2069
vn -0.0547 0.9768 0.2069
vn -0.7936 -0.5376 0.2849
vn -0.6645 0.0118 -0.7472
vn -0.0102 0.9509 0.3094
vn -0.0038 -0.9792 0.2029
vn -0.9205 -0.2365 -0.3111
vn 0.1939 0.4148 -0.8890
vn 0.9205 0.2365 0.3111
vn -0.1822 -0.4445 0.8770
vn -0.9999 -0.0066 0.0157
vn -0.0116 -0.4097 -0.9122
vn 0.9999 0.0066 -0.0157
vn 0.0117 0.4047 0.9144
vn 0.3766 -0.8769 -0.2988
vn 0.0117 -0.9618 0.2736
vn 0.4477 -0.7995 -0.4004
vn -0.4768 0.2452 -0.8442
vn -0.4477 0.7996 0.4003
vn 0.3767 -0.1326 0.9168
vn 0.9998 0.0015 0.0207
vn 0.0210 -0.3372 -0.9412
vn -0.9998 -0.0015 -0.0212
vn -0.0216 0.3336 0.9425
vn -0.5199 -0.7508 0.4075
vn -0.0014 -0.9787 0.2052
s off
f 4/1/1 1/2/1 2/3/1
f 8/4/2 1/2/2 3/5/2
f 7/6/3 3/7/3 4/1/3
f 6/8/4 4/1/4 2/3/4
f 1/9/5 6/8/5 2/3/5
f 10/10/6 11/11/6 9/12/6
f 16/13/7 9/12/7 11/11/7
f 12/14/8 16/15/8 11/16/8
f 10/10/9 15/17/9 12/14/9
f 13/18/10 10/10/10 9/19/10
f 25/20/11 18/21/11 26/22/11
f 26/22/12 20/23/12 27/24/12
f 20/23/13 28/25/13 27/24/13
f 28/26/14 17/27/14 25/28/14
f 20/23/15 17/29/15 19/30/15
f 21/31/16 30/32/16 29/33/16
f 30/32/17 24/34/17 31/35/17
f 31/35/18 23/36/18 32/37/18
f 32/38/19 21/39/19 29/40/19
f 22/41/20 23/42/20 24/34/20
f 28/26/21 26/22/21 27/24/21
f 8/43/22 6/8/22 5/44/22
f 16/45/23 14/46/23 13/47/23
f 32/38/24 30/32/24 31/35/24
f 33/48/25 36/49/25 34/50/25
f 35/51/26 37/52/26 40/53/26
f 36/49/27 40/54/27 39/55/27
f 36/49/28 38/56/28 34/50/28
f 34/50/29 37/57/29 33/58/29
f 41/59/30 44/60/30 42/61/30
f 41/59/31 48/62/31 43/63/31
f 43/64/32 47/65/32 44/60/32
f 42/61/33 47/65/33 46/66/33
f 42/61/34 45/67/34 41/68/34
f 57/69/35 50/70/35 49/71/35
f 58/72/36 52/73/36 50/70/36
f 60/74/37 52/73/37 59/75/37
f 60/76/38 49/77/38 51/78/38
f 51/79/39 50/70/39 52/73/39
f 62/80/40 53/81/40 61/82/40
f 62/80/41 56/83/41 54/84/41
f 63/85/42 55/86/42 56/83/42
f 64/87/43 53/88/43 55/89/43
f 55/90/44 54/84/44 56/83/44
f 65/91/45 68/92/45 66/93/45
f 71/94/46 68/92/46 67/95/46
f 69/96/47 72/97/47 71/94/47
f 65/98/48 70/99/48 69/100/48
f 65/98/49 71/94/49 67/95/49
f 70/101/50 68/92/50 72/97/50
f 73/102/51 76/103/51 74/104/51
f 79/105/52 76/103/52 75/106/52
f 79/105/53 78/107/53 80/108/53
f 73/109/54 78/110/54 77/111/54
f 73/109/55 79/105/55 75/106/55
f 78/112/56 76/103/56 80/108/56
f 60/76/57 58/72/57 57/113/57
f 37/114/58 39/55/58 40/115/58
f 45/116/59 47/65/59 48/117/59
f 64/87/60 62/80/60 61/118/60
f 4/1/1 3/5/1 1/2/1
f 8/4/2 5/119/2 1/2/2
f 7/6/3 8/120/3 3/7/3
f 6/8/4 7/6/4 4/1/4
f 1/9/5 5/121/5 6/8/5
f 10/10/6 12/14/6 11/11/6
f 16/13/7 13/122/7 9/12/7
f 12/14/8 15/17/8 16/15/8
f 10/10/9 14/46/9 15/17/9
f 13/18/10 14/46/10 10/10/10
f 25/20/61 17/123/61 18/21/61
f 26/22/62 18/21/62 20/23/62
f 20/23/63 19/124/63 28/25/63
f 28/26/64 19/125/64 17/27/64
f 20/23/15 18/21/15 17/29/15
f 21/31/65 22/41/65 30/32/65
f 30/32/66 22/41/66 24/34/66
f 31/35/67 24/34/67 23/36/67
f 32/38/68 23/126/68 21/39/68
f 22/41/20 21/127/20 23/42/20
f 28/26/69 25/28/69 26/22/69
f 8/43/22 7/6/22 6/8/22
f 16/45/23 15/17/23 14/46/23
f 32/38/70 29/40/70 30/32/70
f 33/48/25 35/51/25 36/49/25
f 35/51/26 33/48/26 37/52/26
f 36/49/27 35/128/27 40/54/27
f 36/49/28 39/55/28 38/56/28
f 34/50/29 38/56/29 37/57/29
f 41/59/30 43/63/30 44/60/30
f 41/59/31 45/129/31 48/62/31
f 43/64/32 48/130/32 47/65/32
f 42/61/33 44/60/33 47/65/33
f 42/61/34 46/66/34 45/67/34
f 57/69/71 58/72/71 50/70/71
f 58/72/72 59/75/72 52/73/72
f 60/74/73 51/131/73 52/73/73
f 60/76/74 57/113/74 49/77/74
f 51/79/39 49/132/39 50/70/39
f 62/80/75 54/84/75 53/81/75
f 62/80/76 63/85/76 56/83/76
f 63/85/77 64/133/77 55/86/77
f 64/87/78 61/118/78 53/88/78
f 55/90/44 53/134/44 54/84/44
f 65/91/45 67/95/45 68/92/45
f 71/94/46 72/97/46 68/92/46
f 69/96/47 70/135/47 72/97/47
f 65/98/48 66/136/48 70/99/48
f 65/98/49 69/100/49 71/94/49
f 70/101/50 66/137/50 68/92/50
f 73/102/51 75/106/51 76/103/51
f 79/105/52 80/108/52 76/103/52
f 79/105/53 77/138/53 78/107/53
f 73/109/54 74/139/54 78/110/54
f 73/109/55 77/111/55 79/105/55
f 78/112/56 74/140/56 76/103/56
f 60/76/79 59/75/79 58/72/79
f 37/114/58 38/56/58 39/55/58
f 45/116/59 46/66/59 47/65/59
f 64/87/80 63/85/80 62/80/80
