# Blender v2.79 (sub 0) OBJ File: '3DObjectDecoderObjects.blend'
# www.blender.org
o Cube.001_Cube.000
v 0.591362 0.290999 1.426465
v 0.850601 -0.017926 1.393956
v 0.879694 0.514554 1.601349
v 1.138934 0.205629 1.568840
v 0.877003 0.625216 0.528296
v 1.136242 0.316291 0.495787
v 1.424574 0.539845 0.670670
v 1.165335 0.848771 0.703179
v 0.085154 -1.928268 0.920067
v 0.076611 -2.025574 0.527439
v 0.489650 -1.927930 0.911181
v 0.481107 -2.025237 0.518553
v 0.079062 -0.957618 0.679642
v 0.070518 -1.054925 0.287014
v 0.475015 -1.054587 0.278129
v 0.483558 -0.957281 0.670756
v 0.564820 1.320952 0.153312
v 0.822486 1.215494 -0.140258
v 0.853997 1.544486 0.326823
v 1.111663 1.439028 0.033252
v 0.066263 -0.002401 0.166147
v 0.059023 -0.195392 -0.189381
v 0.470764 -0.001661 0.157507
v 0.463524 -0.194653 -0.198021
v 0.853922 0.529234 0.691460
v 1.114125 0.418503 0.400517
v 1.419645 0.607270 0.591984
v 1.146311 0.762212 0.847406
v 0.078365 -0.890695 0.653764
v 0.070750 -1.066674 0.286022
v 0.475252 -1.066192 0.277399
v 0.482858 -0.889969 0.644810
v -0.483659 0.251045 0.443193
v -0.540086 -0.119659 0.291211
v -0.869025 0.259289 0.566160
v -0.925453 -0.111415 0.414178
v -0.754468 0.651221 -0.432326
v -0.810895 0.280517 -0.584308
v -1.196262 0.288761 -0.461341
v -1.139835 0.659465 -0.309359
v -0.092284 -2.096367 -0.301388
v -0.083910 -1.926212 -0.668368
v -0.496790 -2.091865 -0.308531
v -0.488416 -1.921709 -0.675511
v -0.089615 -1.189169 0.119309
v -0.081241 -1.019014 -0.247670
v -0.485747 -1.014511 -0.254813
v -0.494121 -1.184667 0.112166
v -0.623149 1.368807 -0.063926
v -0.739942 1.447112 -0.443310
v -1.009226 1.377640 0.056751
v -1.126019 1.455945 -0.322633
v -0.076396 -0.086758 0.126372
v -0.070005 -0.088381 -0.278169
v -0.480911 -0.081914 0.119961
v -0.474519 -0.083537 -0.284580
v -0.701353 0.387954 -0.242327
v -0.818700 0.456497 -0.622658
v -1.208104 0.400678 -0.507174
v -1.093020 0.420094 -0.141209
v -0.088920 -1.110278 0.136678
v -0.081943 -1.076043 -0.269210
v -0.486459 -1.071582 -0.275839
v -0.493421 -1.105156 0.129805
v 0.521667 0.015256 0.522743
v 0.521667 1.415256 0.522743
v 0.699260 0.015256 -0.298269
v 0.699260 1.415256 -0.298269
v -0.709850 0.015256 0.256353
v -0.709850 1.415256 0.256353
v -0.532258 0.015256 -0.564659
v -0.532258 1.415256 -0.564659
v 0.063718 1.446228 0.409675
v -0.005242 2.032332 0.517966
v 0.395177 1.574541 -0.073719
v 0.326218 2.160644 0.034572
v -0.431640 1.450494 0.071145
v -0.500599 2.036597 0.179436
v -0.100180 1.578807 -0.412249
v -0.169140 2.164910 -0.303959
vt 0.152804 0.123501
vt 0.127361 0.162474
vt 0.128453 0.121671
vt 0.068267 0.117149
vt 0.151712 0.164304
vt 0.210807 0.209629
vt 0.150620 0.205107
vt 0.212991 0.128023
vt 0.153896 0.082698
vt 0.120318 0.196104
vt 0.141703 0.159716
vt 0.141869 0.195827
vt 0.194969 0.159030
vt 0.066887 0.160679
vt 0.119987 0.123882
vt 0.120152 0.159993
vt 0.067052 0.196790
vt 0.120483 0.232215
vt 0.893013 0.803206
vt 0.953247 0.844041
vt 0.893013 0.844041
vt 0.953247 0.884875
vt 0.893013 0.884875
vt 0.893013 0.925710
vt 0.868643 0.884875
vt 0.808410 0.844041
vt 0.868643 0.844041
vt 0.977617 0.884875
vt 0.741845 0.545283
vt 0.663028 0.598717
vt 0.663028 0.545283
vt 0.741845 0.652150
vt 0.663028 0.652150
vt 0.741845 0.705584
vt 0.663028 0.705584
vt 0.631139 0.652150
vt 0.552321 0.598717
vt 0.631139 0.598717
vt 0.741845 0.598717
vt 0.773734 0.652150
vt 0.236250 0.170656
vt 0.237342 0.129853
vt 0.045336 0.160957
vt 0.045501 0.197068
vt 0.113861 0.154921
vt 0.095990 0.121280
vt 0.114964 0.123128
vt 0.094887 0.153073
vt 0.049093 0.116713
vt 0.116067 0.091335
vt 0.161861 0.127695
vt 0.160758 0.159488
vt 0.112759 0.186714
vt 0.159655 0.191281
vt 0.135087 0.158002
vt 0.152601 0.189330
vt 0.134495 0.188340
vt 0.153193 0.158992
vt 0.197352 0.191779
vt 0.133904 0.218678
vt 0.089745 0.185892
vt 0.090336 0.155553
vt 0.135678 0.127663
vt 0.090927 0.125215
vt 0.893013 0.809899
vt 0.820174 0.859280
vt 0.820174 0.809899
vt 0.893013 0.859280
vt 0.820174 0.908661
vt 0.893013 0.958041
vt 0.893013 0.908661
vt 0.922484 0.908660
vt 0.995323 0.859280
vt 0.995323 0.908660
vt 0.790703 0.908661
vt 0.668850 0.601598
vt 0.627314 0.573439
vt 0.668850 0.573439
vt 0.627314 0.629757
vt 0.627314 0.601598
vt 0.668850 0.629757
vt 0.627314 0.657916
vt 0.685655 0.629757
vt 0.727191 0.601598
vt 0.727191 0.629757
vt 0.610509 0.629757
vt 0.114767 0.168293
vt 0.095916 0.220936
vt 0.095916 0.168293
vt 0.143042 0.168293
vt 0.114767 0.220936
vt 0.161893 0.168293
vt 0.143042 0.220936
vt 0.114767 0.136707
vt 0.143042 0.084063
vt 0.143042 0.136707
vt 0.143042 0.252523
vt 0.679363 0.612195
vt 0.705410 0.568551
vt 0.705410 0.612195
vt 0.653316 0.612195
vt 0.679363 0.568551
vt 0.627270 0.612195
vt 0.653316 0.568551
vt 0.653316 0.655839
vt 0.679363 0.699483
vt 0.653316 0.699483
vt 0.679363 0.655839
vt 0.653316 0.524907
vt 0.922484 0.859280
vt 0.180835 0.129543
vt 0.072230 0.154563
vt 0.071639 0.184901
vt 0.685655 0.601598
vt 0.067175 0.157952
vt 0.211899 0.168826
vt 0.214083 0.087220
vt 0.195135 0.195141
vt 0.066721 0.124568
vt 0.067218 0.232901
vt 0.953247 0.803206
vt 0.953247 0.925710
vt 0.808410 0.884875
vt 0.977617 0.844041
vt 0.552321 0.652150
vt 0.773734 0.598717
vt 0.047991 0.148506
vt 0.162963 0.095902
vt 0.197943 0.161440
vt 0.089154 0.216230
vt 0.820174 0.958041
vt 0.790703 0.859280
vt 0.668850 0.657916
vt 0.610509 0.601598
vt 0.161893 0.220936
vt 0.114767 0.084063
vt 0.114767 0.252523
vt 0.627270 0.568551
vt 0.679363 0.524907
vt 0.179732 0.161336
vn -0.2856 -0.3342 0.8982
vn -0.6407 0.7635 0.0804
vn 0.7126 0.5525 0.4322
vn 0.6407 -0.7635 -0.0804
vn -0.7126 -0.5525 -0.4322
vn 0.0061 -0.9706 0.2404
vn 0.0211 0.2405 0.9704
vn 0.9998 0.0008 -0.0220
vn -0.0211 -0.2405 -0.9704
vn -0.9998 -0.0008 0.0220
vn -0.7147 -0.5525 -0.4289
vn 0.6238 -0.2633 -0.7359
vn 0.7143 0.5528 0.4291
vn -0.6148 0.2774 0.7383
vn -0.2891 0.7917 -0.5381
vn -0.9998 -0.0018 0.0216
vn -0.0181 -0.4790 -0.8776
vn 0.9998 0.0018 -0.0216
vn 0.0185 0.4813 0.8764
vn -0.0118 0.8789 -0.4769
vn 0.1126 -0.7915 0.6007
vn 0.2856 0.3342 -0.8982
vn -0.0061 0.9706 -0.2404
vn 0.0103 -0.9017 0.4323
vn 0.2708 -0.4002 0.8755
vn 0.1395 0.9162 0.3756
vn -0.9525 0.0204 0.3039
vn -0.1395 -0.9162 -0.3756
vn 0.9525 -0.0204 -0.3039
vn -0.0027 -0.9072 -0.4207
vn -0.0207 -0.4206 0.9070
vn -0.9998 0.0111 -0.0177
vn 0.0207 0.4206 -0.9070
vn 0.9998 -0.0111 0.0177
vn 0.9542 -0.0218 -0.2983
vn -0.2887 0.1927 -0.9378
vn -0.9540 0.0219 0.2989
vn 0.2866 -0.2180 0.9329
vn 0.0782 0.9809 0.1784
vn 0.9998 -0.0121 0.0162
vn 0.0157 -0.0093 -0.9998
vn -0.9998 0.0119 -0.0158
vn -0.0157 0.0098 0.9998
vn 0.0120 0.9999 -0.0038
vn 0.9774 0.0000 0.2114
vn 0.2114 0.0000 -0.9774
vn -0.9774 0.0000 -0.2114
vn -0.2114 0.0000 0.9774
vn 0.0000 -1.0000 0.0000
vn 0.0000 1.0000 0.0000
vn 0.8256 -0.0071 0.5642
vn 0.5524 0.2139 -0.8057
vn -0.8256 0.0071 -0.5642
vn -0.5524 -0.2139 0.8057
vn 0.1149 -0.9768 -0.1805
vn -0.1149 0.9768 0.1805
vn -0.1171 -0.9831 -0.1410
vn -0.2708 0.4002 -0.8755
vn 0.0027 0.9072 0.4207
vn -0.0112 -0.9964 -0.0842
vn 0.6365 -0.2598 -0.7262
vn 0.7147 0.5525 0.4289
vn -0.6332 0.2507 0.7323
vn -0.9998 -0.0018 0.0213
vn -0.0179 -0.4791 -0.8776
vn 0.9998 0.0018 -0.0213
vn 0.0178 0.4811 0.8765
vn 0.3075 -0.7648 0.5661
vn 0.0112 -0.9021 0.4314
vn -0.3039 0.1870 -0.9342
vn -0.9542 0.0218 0.2983
vn 0.2305 -0.1919 0.9540
vn 0.9998 -0.0119 0.0158
vn 0.0163 -0.0090 -0.9998
vn -0.9998 0.0121 -0.0162
vn -0.0169 0.0103 0.9998
vn 0.1440 -0.9896 0.0072
vn -0.0096 -0.9965 -0.0826
s off
f 2/1/1 3/2/1 1/3/1
f 3/2/2 5/4/2 1/3/2
f 4/5/3 8/6/3 3/7/3
f 6/8/4 4/5/4 2/1/4
f 1/9/5 6/8/5 2/1/5
f 10/10/6 11/11/6 9/12/6
f 16/13/7 9/12/7 11/11/7
f 15/14/8 11/15/8 12/16/8
f 14/17/9 12/16/9 10/10/9
f 9/18/10 14/17/10 10/10/10
f 25/19/11 18/20/11 26/21/11
f 26/21/12 20/22/12 27/23/12
f 20/22/13 28/24/13 27/23/13
f 28/25/14 17/26/14 25/27/14
f 18/20/15 19/28/15 20/22/15
f 21/29/16 30/30/16 29/31/16
f 30/30/17 24/32/17 31/33/17
f 31/33/18 23/34/18 32/35/18
f 32/36/19 21/37/19 29/38/19
f 22/39/20 23/40/20 24/32/20
f 28/25/21 26/21/21 27/23/21
f 8/41/22 6/8/22 5/42/22
f 16/43/23 14/17/23 13/44/23
f 32/36/24 30/30/24 31/33/24
f 34/45/25 35/46/25 36/47/25
f 33/48/26 40/49/26 35/46/26
f 35/50/27 39/51/27 36/47/27
f 34/45/28 39/51/28 38/52/28
f 33/53/29 38/52/29 37/54/29
f 42/55/30 43/56/30 44/57/30
f 41/58/31 48/59/31 43/56/31
f 43/60/32 47/61/32 44/57/32
f 44/57/33 46/62/33 42/55/33
f 41/63/34 46/62/34 45/64/34
f 57/65/35 50/66/35 49/67/35
f 58/68/36 52/69/36 50/66/36
f 60/70/37 52/69/37 59/71/37
f 60/72/38 49/73/38 51/74/38
f 51/75/39 50/66/39 52/69/39
f 62/76/40 53/77/40 61/78/40
f 62/76/41 56/79/41 54/80/41
f 63/81/42 55/82/42 56/79/42
f 64/83/43 53/84/43 55/85/43
f 55/86/44 54/80/44 56/79/44
f 67/87/45 66/88/45 65/89/45
f 71/90/46 68/91/46 67/87/46
f 69/92/47 72/93/47 71/90/47
f 65/94/48 70/95/48 69/96/48
f 65/94/49 71/90/49 67/87/49
f 70/97/50 68/91/50 72/93/50
f 75/98/51 74/99/51 73/100/51
f 79/101/52 76/102/52 75/98/52
f 77/103/53 80/104/53 79/101/53
f 77/105/54 74/106/54 78/107/54
f 73/108/55 79/101/55 75/98/55
f 78/109/56 76/102/56 80/104/56
f 60/72/57 58/68/57 57/110/57
f 40/111/58 38/52/58 39/51/58
f 45/112/59 47/61/59 48/113/59
f 64/83/60 62/76/60 61/114/60
f 2/1/1 4/5/1 3/2/1
f 3/2/2 8/115/2 5/4/2
f 4/5/3 7/116/3 8/6/3
f 6/8/4 7/116/4 4/5/4
f 1/9/5 5/117/5 6/8/5
f 10/10/6 12/16/6 11/11/6
f 16/13/7 13/118/7 9/12/7
f 15/14/8 16/119/8 11/15/8
f 14/17/9 15/14/9 12/16/9
f 9/18/10 13/120/10 14/17/10
f 25/19/11 17/121/11 18/20/11
f 26/21/61 18/20/61 20/22/61
f 20/22/62 19/122/62 28/24/62
f 28/25/63 19/123/63 17/26/63
f 18/20/15 17/124/15 19/28/15
f 21/29/64 22/39/64 30/30/64
f 30/30/65 22/39/65 24/32/65
f 31/33/66 24/32/66 23/34/66
f 32/36/67 23/125/67 21/37/67
f 22/39/20 21/126/20 23/40/20
f 28/25/68 25/27/68 26/21/68
f 8/41/22 7/116/22 6/8/22
f 16/43/23 15/14/23 14/17/23
f 32/36/69 29/38/69 30/30/69
f 34/45/25 33/48/25 35/46/25
f 33/48/26 37/127/26 40/49/26
f 35/50/27 40/128/27 39/51/27
f 34/45/28 36/47/28 39/51/28
f 33/53/29 34/45/29 38/52/29
f 42/55/30 41/58/30 43/56/30
f 41/58/31 45/129/31 48/59/31
f 43/60/32 48/130/32 47/61/32
f 44/57/33 47/61/33 46/62/33
f 41/63/34 42/55/34 46/62/34
f 57/65/35 58/68/35 50/66/35
f 58/68/70 59/71/70 52/69/70
f 60/70/71 51/131/71 52/69/71
f 60/72/72 57/110/72 49/73/72
f 51/75/39 49/132/39 50/66/39
f 62/76/73 54/80/73 53/77/73
f 62/76/74 63/81/74 56/79/74
f 63/81/75 64/133/75 55/82/75
f 64/83/76 61/114/76 53/84/76
f 55/86/44 53/134/44 54/80/44
f 67/87/45 68/91/45 66/88/45
f 71/90/46 72/93/46 68/91/46
f 69/92/47 70/135/47 72/93/47
f 65/94/48 66/136/48 70/95/48
f 65/94/49 69/96/49 71/90/49
f 70/97/50 66/137/50 68/91/50
f 75/98/51 76/102/51 74/99/51
f 79/101/52 80/104/52 76/102/52
f 77/103/53 78/138/53 80/104/53
f 77/105/54 73/108/54 74/106/54
f 73/108/55 77/105/55 79/101/55
f 78/109/56 74/139/56 76/102/56
f 60/72/77 59/71/77 58/68/77
f 40/111/58 37/140/58 38/52/58
f 45/112/59 46/62/59 47/61/59
f 64/83/78 63/81/78 62/76/78
