# Blender v2.79 (sub 0) OBJ File: '3DObjectDecoderObjects.blend'
# www.blender.org
o Cube.001_Cube.000
v 0.740294 0.082283 -0.312572
v 0.829144 -0.137241 -0.640614
v 1.134269 0.110987 -0.225073
v 1.223119 -0.108536 -0.553115
v 0.800111 0.919286 -0.856489
v 0.888961 0.699763 -1.184531
v 1.282936 0.728467 -1.097032
v 1.194086 0.947991 -0.768990
v 0.085564 -2.083786 -0.270332
v 0.076224 -1.908979 -0.635096
v 0.490042 -2.077434 -0.277646
v 0.480702 -1.902627 -0.642410
v 0.079220 -1.182073 0.161961
v 0.069880 -1.007266 -0.202804
v 0.474358 -1.000915 -0.210118
v 0.483699 -1.175722 0.154647
v 0.614626 1.191494 -0.101347
v 0.645483 1.504943 -0.355304
v 1.008816 1.222224 -0.015520
v 1.039674 1.535673 -0.269477
v 0.059471 -0.074133 0.097125
v 0.053519 -0.103488 -0.306361
v 0.463956 -0.067354 0.090665
v 0.458005 -0.096709 -0.312822
v 0.826643 0.563773 -0.850356
v 0.859621 0.869561 -1.111156
v 1.267701 0.848837 -1.069686
v 1.218955 0.627339 -0.767570
v 0.078058 -1.099021 0.177852
v 0.071198 -1.086061 -0.228406
v 0.475689 -1.079742 -0.235111
v 0.482526 -1.091928 0.170837
v -0.439150 0.634747 1.785111
v -0.797989 0.622760 1.971648
v -0.401965 1.025860 1.881779
v -0.760803 1.013872 2.068316
v -0.891900 0.889024 0.930492
v -1.250739 0.877036 1.117029
v -1.213553 1.268149 1.213696
v -0.854715 1.280137 1.027159
v -0.081427 -1.976983 0.750974
v -0.069413 -1.996477 0.347027
v -0.485841 -1.978925 0.739040
v -0.473827 -1.998419 0.335093
v -0.084798 -0.978155 0.702671
v -0.072784 -0.997649 0.298724
v -0.477198 -0.999591 0.286790
v -0.489212 -0.980097 0.690737
v -0.676254 1.075714 0.090340
v -1.073330 1.126758 0.031759
v -0.640112 1.467080 0.186375
v -1.037188 1.518124 0.127794
v -0.073247 -0.001713 0.189125
v -0.062572 -0.193859 -0.166772
v -0.477678 -0.002998 0.177688
v -0.467002 -0.195144 -0.178210
v -0.846262 0.855704 1.050911
v -1.245444 0.905884 0.996736
v -1.222714 1.291432 1.122125
v -0.815972 1.251008 1.133007
v -0.084409 -0.899911 0.681015
v -0.073179 -1.060395 0.306814
v -0.477609 -1.062130 0.295363
v -0.488822 -0.901165 0.669029
v 0.719244 0.015256 0.198911
v 0.719244 1.415256 0.198911
v 0.476330 0.015256 -0.605199
v 0.476330 1.415256 -0.605199
v -0.486920 0.015256 0.563283
v -0.486920 1.415256 0.563283
v -0.729835 0.015256 -0.240827
v -0.729835 1.415256 -0.240827
v 0.263929 1.446228 0.322155
v 0.256148 2.032332 0.450303
v 0.319325 1.574541 -0.261340
v 0.311545 2.160644 -0.133193
v -0.333458 1.450494 0.266378
v -0.341238 2.036597 0.394525
v -0.278061 1.578807 -0.317118
v -0.285841 2.164910 -0.188970
vt 0.151712 0.164304
vt 0.128453 0.121671
vt 0.152804 0.123501
vt 0.127361 0.162474
vt 0.068267 0.117149
vt 0.211899 0.168826
vt 0.150620 0.205107
vt 0.153896 0.082698
vt 0.212991 0.128023
vt 0.120318 0.196104
vt 0.141703 0.159716
vt 0.141869 0.195827
vt 0.194969 0.159030
vt 0.120152 0.159993
vt 0.066721 0.124568
vt 0.119987 0.123882
vt 0.066887 0.160679
vt 0.120483 0.232215
vt 0.067052 0.196790
vt 0.893013 0.803206
vt 0.953247 0.844041
vt 0.893013 0.844041
vt 0.953247 0.884875
vt 0.893013 0.884875
vt 0.893013 0.925710
vt 0.868643 0.884875
vt 0.808410 0.844041
vt 0.868643 0.844041
vt 0.977617 0.884875
vt 0.741845 0.545283
vt 0.663028 0.598717
vt 0.663028 0.545283
vt 0.741845 0.652150
vt 0.663028 0.652150
vt 0.741845 0.705584
vt 0.663028 0.705584
vt 0.631139 0.652150
vt 0.552321 0.598717
vt 0.631139 0.598717
vt 0.741845 0.598717
vt 0.773734 0.652150
vt 0.237342 0.129853
vt 0.236250 0.170656
vt 0.045336 0.160957
vt 0.045501 0.197068
vt 0.094887 0.153073
vt 0.114964 0.123128
vt 0.113861 0.154921
vt 0.095990 0.121280
vt 0.047991 0.148506
vt 0.049093 0.116713
vt 0.116067 0.091335
vt 0.161861 0.127695
vt 0.160758 0.159488
vt 0.112759 0.186714
vt 0.159655 0.191281
vt 0.153193 0.158992
vt 0.134495 0.188340
vt 0.135087 0.158002
vt 0.197352 0.191779
vt 0.152601 0.189330
vt 0.133904 0.218678
vt 0.089745 0.185892
vt 0.090336 0.155553
vt 0.135678 0.127663
vt 0.090927 0.125215
vt 0.893013 0.809899
vt 0.820174 0.859280
vt 0.820174 0.809899
vt 0.893013 0.859280
vt 0.820174 0.908661
vt 0.893013 0.958041
vt 0.893013 0.908661
vt 0.922484 0.908660
vt 0.995323 0.859280
vt 0.995323 0.908660
vt 0.790703 0.908661
vt 0.668850 0.601598
vt 0.627314 0.573439
vt 0.668850 0.573439
vt 0.627314 0.629757
vt 0.627314 0.601598
vt 0.668850 0.629757
vt 0.627314 0.657916
vt 0.685655 0.629757
vt 0.727191 0.601598
vt 0.727191 0.629757
vt 0.610509 0.601598
vt 0.114767 0.168293
vt 0.095916 0.220936
vt 0.095916 0.168293
vt 0.143042 0.168293
vt 0.114767 0.220936
vt 0.161893 0.168293
vt 0.143042 0.220936
vt 0.114767 0.136707
vt 0.143042 0.084063
vt 0.143042 0.136707
vt 0.114767 0.252523
vt 0.705410 0.612195
vt 0.679363 0.568551
vt 0.705410 0.568551
vt 0.653316 0.612195
vt 0.679363 0.612195
vt 0.627270 0.612195
vt 0.653316 0.568551
vt 0.679363 0.655839
vt 0.653316 0.699483
vt 0.653316 0.655839
vt 0.653316 0.524907
vt 0.922484 0.859280
vt 0.179732 0.161336
vt 0.180835 0.129543
vt 0.072230 0.154563
vt 0.071639 0.184901
vt 0.685655 0.601598
vt 0.067175 0.157952
vt 0.210807 0.209629
vt 0.214083 0.087220
vt 0.195135 0.195141
vt 0.067218 0.232901
vt 0.953247 0.803206
vt 0.953247 0.925710
vt 0.808410 0.884875
vt 0.977617 0.844041
vt 0.552321 0.652150
vt 0.773734 0.598717
vt 0.162963 0.095902
vt 0.197943 0.161440
vt 0.089154 0.216230
vt 0.820174 0.958041
vt 0.790703 0.859280
vt 0.668850 0.657916
vt 0.610509 0.629757
vt 0.161893 0.220936
vt 0.114767 0.084063
vt 0.143042 0.252523
vt 0.627270 0.568551
vt 0.679363 0.699483
vt 0.679363 0.524907
vn -0.0598 -0.8370 0.5439
vn -0.2196 0.5426 0.8108
vn 0.9738 0.0709 0.2163
vn 0.2196 -0.5426 -0.8108
vn -0.9738 -0.0709 -0.2163
vn 0.0063 -0.9017 -0.4323
vn 0.0231 -0.4321 0.9016
vn 0.9997 0.0157 -0.0181
vn -0.0231 0.4321 -0.9016
vn -0.9997 -0.0157 0.0181
vn -0.9743 -0.0759 -0.2122
vn 0.1032 0.7691 -0.6307
vn 0.9742 0.0757 0.2127
vn -0.0107 -0.7679 0.6405
vn -0.2120 0.6277 0.7490
vn -0.9997 -0.0168 0.0163
vn -0.0153 -0.0791 -0.9968
vn 0.9997 0.0168 -0.0163
vn 0.0159 0.0788 0.9968
vn -0.0179 0.9972 -0.0723
vn 0.0189 -0.8078 -0.5892
vn 0.0598 0.8370 -0.5439
vn -0.0063 0.9017 0.4323
vn 0.0151 -0.9994 -0.0303
vn 0.4528 -0.2543 0.8546
vn 0.8869 0.0296 -0.4610
vn 0.0919 0.9667 0.2389
vn -0.8869 -0.0296 0.4610
vn -0.0919 -0.9667 -0.2389
vn 0.0034 -0.9988 0.0483
vn -0.0297 0.0482 0.9984
vn -0.9996 -0.0048 -0.0295
vn 0.0297 -0.0482 -0.9984
vn 0.9996 0.0048 0.0295
vn -0.0893 -0.9673 -0.2374
vn -0.9812 0.1264 -0.1461
vn 0.0898 0.9673 0.2373
vn 0.9799 -0.1280 0.1528
vn 0.1700 0.2200 -0.9606
vn 0.9996 0.0032 0.0286
vn 0.0263 -0.4797 -0.8771
vn -0.9996 -0.0032 -0.0283
vn -0.0263 0.4800 0.8769
vn 0.0106 0.8800 -0.4748
vn 0.9573 0.0000 -0.2892
vn -0.2892 0.0000 -0.9573
vn -0.9573 0.0000 0.2892
vn 0.2892 0.0000 0.9573
vn 0.0000 -1.0000 0.0000
vn 0.0000 1.0000 0.0000
vn 0.9956 -0.0071 0.0930
vn 0.0923 0.2139 -0.9725
vn -0.9956 0.0071 -0.0930
vn -0.0923 -0.2139 0.9725
vn 0.0130 -0.9768 -0.2136
vn -0.0130 0.9768 0.2136
vn -0.1554 -0.1894 0.9695
vn -0.4528 0.2543 -0.8546
vn -0.0034 0.9988 -0.0483
vn -0.0088 -0.9191 0.3939
vn -0.9743 -0.0760 -0.2121
vn 0.0766 0.7738 -0.6288
vn 0.9743 0.0760 0.2121
vn -0.0704 -0.7918 0.6067
vn -0.9997 -0.0167 0.0160
vn -0.0146 -0.0793 -0.9967
vn 0.9997 0.0167 -0.0160
vn 0.0146 0.0783 0.9968
vn 0.2565 -0.6431 -0.7216
vn 0.0170 -0.9993 -0.0322
vn -0.0894 -0.9673 -0.2373
vn -0.9813 0.1093 -0.1582
vn 0.0893 0.9673 0.2374
vn 0.9830 -0.1064 0.1496
vn 0.9996 0.0032 0.0283
vn 0.0269 -0.4795 -0.8772
vn -0.9996 -0.0032 -0.0286
vn -0.0275 0.4804 0.8766
vn -0.0558 -0.3058 0.9505
vn -0.0073 -0.9185 0.3954
s off
f 4/1/1 1/2/1 2/3/1
f 3/4/2 5/5/2 1/2/2
f 7/6/3 3/7/3 4/1/3
f 2/3/4 7/6/4 4/1/4
f 1/8/5 6/9/5 2/3/5
f 10/10/6 11/11/6 9/12/6
f 16/13/7 9/12/7 11/11/7
f 12/14/8 16/15/8 11/16/8
f 10/10/9 15/17/9 12/14/9
f 9/18/10 14/19/10 10/10/10
f 25/20/11 18/21/11 26/22/11
f 26/22/12 20/23/12 27/24/12
f 20/23/13 28/25/13 27/24/13
f 28/26/14 17/27/14 25/28/14
f 18/21/15 19/29/15 20/23/15
f 21/30/16 30/31/16 29/32/16
f 30/31/17 24/33/17 31/34/17
f 31/34/18 23/35/18 32/36/18
f 32/37/19 21/38/19 29/39/19
f 22/40/20 23/41/20 24/33/20
f 28/26/21 26/22/21 27/24/21
f 7/6/22 5/42/22 8/43/22
f 16/44/23 14/19/23 13/45/23
f 32/37/24 30/31/24 31/34/24
f 33/46/25 36/47/25 34/48/25
f 35/49/26 37/50/26 40/51/26
f 35/52/27 39/53/27 36/47/27
f 36/47/28 38/54/28 34/48/28
f 33/55/29 38/54/29 37/56/29
f 41/57/30 44/58/30 42/59/30
f 41/57/31 48/60/31 43/61/31
f 43/62/32 47/63/32 44/58/32
f 44/58/33 46/64/33 42/59/33
f 41/65/34 46/64/34 45/66/34
f 57/67/35 50/68/35 49/69/35
f 58/70/36 52/71/36 50/68/36
f 60/72/37 52/71/37 59/73/37
f 60/74/38 49/75/38 51/76/38
f 51/77/39 50/68/39 52/71/39
f 62/78/40 53/79/40 61/80/40
f 62/78/41 56/81/41 54/82/41
f 63/83/42 55/84/42 56/81/42
f 64/85/43 53/86/43 55/87/43
f 56/81/44 53/88/44 54/82/44
f 67/89/45 66/90/45 65/91/45
f 71/92/46 68/93/46 67/89/46
f 69/94/47 72/95/47 71/92/47
f 65/96/48 70/97/48 69/98/48
f 67/89/49 69/98/49 71/92/49
f 72/95/50 66/99/50 68/93/50
f 73/100/51 76/101/51 74/102/51
f 79/103/52 76/101/52 75/104/52
f 77/105/53 80/106/53 79/103/53
f 73/107/54 78/108/54 77/109/54
f 73/107/55 79/103/55 75/104/55
f 78/110/56 76/101/56 80/106/56
f 60/74/57 58/70/57 57/111/57
f 37/112/58 39/53/58 40/113/58
f 45/114/59 47/63/59 48/115/59
f 64/85/60 62/78/60 61/116/60
f 4/1/1 3/4/1 1/2/1
f 3/4/2 8/117/2 5/5/2
f 7/6/3 8/118/3 3/7/3
f 2/3/4 6/9/4 7/6/4
f 1/8/5 5/119/5 6/9/5
f 10/10/6 12/14/6 11/11/6
f 16/13/7 13/120/7 9/12/7
f 12/14/8 15/17/8 16/15/8
f 10/10/9 14/19/9 15/17/9
f 9/18/10 13/121/10 14/19/10
f 25/20/61 17/122/61 18/21/61
f 26/22/62 18/21/62 20/23/62
f 20/23/63 19/123/63 28/25/63
f 28/26/64 19/124/64 17/27/64
f 18/21/15 17/125/15 19/29/15
f 21/30/65 22/40/65 30/31/65
f 30/31/66 22/40/66 24/33/66
f 31/34/67 24/33/67 23/35/67
f 32/37/68 23/126/68 21/38/68
f 22/40/20 21/127/20 23/41/20
f 28/26/69 25/28/69 26/22/69
f 7/6/22 6/9/22 5/42/22
f 16/44/23 15/17/23 14/19/23
f 32/37/70 29/39/70 30/31/70
f 33/46/25 35/49/25 36/47/25
f 35/49/26 33/46/26 37/50/26
f 35/52/27 40/128/27 39/53/27
f 36/47/28 39/53/28 38/54/28
f 33/55/29 34/48/29 38/54/29
f 41/57/30 43/61/30 44/58/30
f 41/57/31 45/129/31 48/60/31
f 43/62/32 48/130/32 47/63/32
f 44/58/33 47/63/33 46/64/33
f 41/65/34 42/59/34 46/64/34
f 57/67/71 58/70/71 50/68/71
f 58/70/72 59/73/72 52/71/72
f 60/72/73 51/131/73 52/71/73
f 60/74/74 57/111/74 49/75/74
f 51/77/39 49/132/39 50/68/39
f 62/78/75 54/82/75 53/79/75
f 62/78/76 63/83/76 56/81/76
f 63/83/77 64/133/77 55/84/77
f 64/85/78 61/116/78 53/86/78
f 56/81/44 55/134/44 53/88/44
f 67/89/45 68/93/45 66/90/45
f 71/92/46 72/95/46 68/93/46
f 69/94/47 70/135/47 72/95/47
f 65/96/48 66/136/48 70/97/48
f 67/89/49 65/96/49 69/98/49
f 72/95/50 70/137/50 66/99/50
f 73/100/51 75/104/51 76/101/51
f 79/103/52 80/106/52 76/101/52
f 77/105/53 78/138/53 80/106/53
f 73/107/54 74/139/54 78/108/54
f 73/107/55 77/109/55 79/103/55
f 78/110/56 74/140/56 76/101/56
f 60/74/79 59/73/79 58/70/79
f 37/112/58 38/54/58 39/53/58
f 45/114/59 46/64/59 47/63/59
f 64/85/80 63/83/80 62/78/80
