# Blender v2.79 (sub 0) OBJ File: '3DObjectDecoderObjects.blend'
# www.blender.org
o Cube.001_Cube.000
v 0.740614 0.106954 -0.354203
v 0.828402 -0.106788 -0.686323
v 1.134894 0.134495 -0.267709
v 1.222682 -0.079247 -0.599829
v 0.797672 0.953286 -0.883792
v 0.885461 0.739544 -1.215913
v 1.279741 0.767086 -1.129419
v 1.191952 0.980828 -0.797298
v 0.085641 -2.084247 -0.309571
v 0.076158 -1.905280 -0.672309
v 0.490114 -2.077607 -0.316870
v 0.480632 -1.898640 -0.679607
v 0.078906 -1.187546 0.133018
v 0.069423 -1.008579 -0.229720
v 0.473897 -1.001940 -0.237018
v 0.483379 -1.180907 0.125720
v 0.614378 1.181136 -0.110771
v 0.641396 1.506304 -0.350004
v 1.008859 1.210791 -0.025912
v 1.035878 1.535959 -0.265145
v 0.058940 -0.079764 0.098576
v 0.052795 -0.097749 -0.305574
v 0.463421 -0.072727 0.092112
v 0.457276 -0.090711 -0.312038
v 0.826283 0.590618 -0.889478
v 0.855454 0.908233 -1.135923
v 1.264043 0.887105 -1.097876
v 1.218705 0.653728 -0.806631
v 0.077732 -1.105574 0.150389
v 0.070694 -1.082531 -0.255632
v 0.475179 -1.075934 -0.262342
v 0.482197 -1.098222 0.143394
v -0.493737 0.685610 1.778142
v -0.837766 0.728801 1.986670
v -0.402098 1.073260 1.849037
v -0.746126 1.116451 2.057565
v -0.968829 0.951339 0.939281
v -1.312858 0.994529 1.147808
v -1.221218 1.382179 1.218703
v -0.877190 1.338989 1.010176
v -0.081512 -1.971123 0.771300
v -0.069338 -1.995782 0.367641
v -0.485921 -1.973094 0.759224
v -0.473747 -1.997753 0.355565
v -0.084552 -0.972993 0.710234
v -0.072377 -0.997653 0.306575
v -0.476787 -0.999623 0.294498
v -0.488961 -0.974964 0.698158
v -0.703181 1.038703 0.116302
v -1.087848 1.141428 0.044292
v -0.612692 1.426753 0.186485
v -0.997359 1.529477 0.114475
v -0.072670 -0.000811 0.189808
v -0.061874 -0.195474 -0.164715
v -0.477096 -0.002128 0.178216
v -0.466300 -0.196791 -0.176308
v -0.917934 0.913592 1.084926
v -1.304961 1.015973 1.017996
v -1.229514 1.401574 1.122015
v -0.833825 1.305983 1.139206
v -0.084138 -0.895227 0.687876
v -0.072781 -1.058807 0.314969
v -0.477206 -1.060568 0.303367
v -0.488546 -0.896519 0.675741
v 0.720892 0.015256 0.193405
v 0.720892 1.415256 0.193405
v 0.471881 0.015256 -0.608838
v 0.471881 1.415256 -0.608838
v -0.482471 0.015256 0.566922
v -0.482471 1.415256 0.566922
v -0.731483 0.015256 -0.235321
v -0.731483 1.415256 -0.235321
v 0.267285 1.446217 0.319511
v 0.260782 2.032320 0.447732
v 0.316963 1.574531 -0.264498
v 0.310460 2.160634 -0.136278
v -0.330620 1.450504 0.269593
v -0.337122 2.036607 0.397814
v -0.280942 1.578818 -0.314417
v -0.287444 2.164921 -0.186196
vt 0.151712 0.164304
vt 0.128453 0.121671
vt 0.152804 0.123501
vt 0.067175 0.157952
vt 0.127361 0.162474
vt 0.211899 0.168826
vt 0.150620 0.205107
vt 0.212991 0.128023
vt 0.153896 0.082698
vt 0.120318 0.196104
vt 0.141703 0.159716
vt 0.141869 0.195827
vt 0.194969 0.159030
vt 0.066887 0.160679
vt 0.119987 0.123882
vt 0.120152 0.159993
vt 0.120483 0.232215
vt 0.067052 0.196790
vt 0.893013 0.803206
vt 0.953247 0.844041
vt 0.893013 0.844041
vt 0.953247 0.884875
vt 0.893013 0.884875
vt 0.893013 0.925710
vt 0.868643 0.884875
vt 0.808410 0.844041
vt 0.868643 0.844041
vt 0.977617 0.884875
vt 0.741845 0.545283
vt 0.663028 0.598717
vt 0.663028 0.545283
vt 0.741845 0.652150
vt 0.663028 0.652150
vt 0.741845 0.705584
vt 0.663028 0.705584
vt 0.631139 0.652150
vt 0.552321 0.598717
vt 0.631139 0.598717
vt 0.741845 0.598717
vt 0.773734 0.652150
vt 0.237342 0.129853
vt 0.236250 0.170656
vt 0.045336 0.160957
vt 0.045501 0.197068
vt 0.094887 0.153073
vt 0.114964 0.123128
vt 0.113861 0.154921
vt 0.095990 0.121280
vt 0.047991 0.148506
vt 0.049093 0.116713
vt 0.116067 0.091335
vt 0.161861 0.127695
vt 0.160758 0.159488
vt 0.112759 0.186714
vt 0.159655 0.191281
vt 0.153193 0.158992
vt 0.134495 0.188340
vt 0.135087 0.158002
vt 0.197352 0.191779
vt 0.152601 0.189330
vt 0.133904 0.218678
vt 0.089745 0.185892
vt 0.090336 0.155553
vt 0.090927 0.125215
vt 0.135678 0.127663
vt 0.893013 0.809899
vt 0.820174 0.859280
vt 0.820174 0.809899
vt 0.893013 0.859280
vt 0.820174 0.908661
vt 0.893013 0.958041
vt 0.893013 0.908661
vt 0.922484 0.908660
vt 0.995323 0.859280
vt 0.995323 0.908660
vt 0.790703 0.908661
vt 0.668850 0.601598
vt 0.627314 0.573439
vt 0.668850 0.573439
vt 0.627314 0.629757
vt 0.627314 0.601598
vt 0.668850 0.629757
vt 0.627314 0.657916
vt 0.685655 0.629757
vt 0.727191 0.601598
vt 0.727191 0.629757
vt 0.610509 0.629757
vt 0.114767 0.168293
vt 0.095916 0.220936
vt 0.095916 0.168293
vt 0.143042 0.168293
vt 0.114767 0.220936
vt 0.161893 0.168293
vt 0.143042 0.220936
vt 0.143042 0.136707
vt 0.114767 0.084063
vt 0.143042 0.084063
vt 0.114767 0.136707
vt 0.143042 0.252523
vt 0.679363 0.612195
vt 0.705410 0.568551
vt 0.705410 0.612195
vt 0.653316 0.568551
vt 0.679363 0.568551
vt 0.627270 0.612195
vt 0.653316 0.612195
vt 0.679363 0.655839
vt 0.653316 0.699483
vt 0.653316 0.655839
vt 0.653316 0.524907
vt 0.922484 0.859280
vt 0.179732 0.161336
vt 0.180835 0.129543
vt 0.072230 0.154563
vt 0.071639 0.184901
vt 0.685655 0.601598
vt 0.068267 0.117149
vt 0.210807 0.209629
vt 0.214083 0.087220
vt 0.195135 0.195141
vt 0.066721 0.124568
vt 0.067218 0.232901
vt 0.953247 0.803206
vt 0.953247 0.925710
vt 0.808410 0.884875
vt 0.977617 0.844041
vt 0.552321 0.652150
vt 0.773734 0.598717
vt 0.162963 0.095902
vt 0.197943 0.161440
vt 0.089154 0.216230
vt 0.820174 0.958041
vt 0.790703 0.859280
vt 0.668850 0.657916
vt 0.610509 0.601598
vt 0.161893 0.220936
vt 0.114767 0.252523
vt 0.627270 0.568551
vt 0.679363 0.699483
vt 0.679363 0.524907
vn -0.0571 -0.8463 0.5296
vn -0.2170 0.5283 0.8209
vn 0.9745 0.0681 0.2138
vn 0.2170 -0.5283 -0.8209
vn -0.9745 -0.0681 -0.2138
vn 0.0067 -0.8967 -0.4426
vn 0.0234 -0.4423 0.8965
vn 0.9997 0.0164 -0.0180
vn -0.0234 0.4423 -0.8965
vn -0.9997 -0.0164 0.0180
vn -0.9750 -0.0733 -0.2098
vn 0.0967 0.7978 -0.5951
vn 0.9749 0.0730 0.2103
vn 0.0005 -0.7967 0.6043
vn -0.2119 0.5905 0.7787
vn -0.9997 -0.0175 0.0163
vn -0.0157 -0.0507 -0.9986
vn 0.9997 0.0175 -0.0163
vn 0.0163 0.0507 0.9986
vn -0.0181 0.9989 -0.0442
vn 0.0176 -0.7816 -0.6235
vn 0.0571 0.8463 -0.5296
vn -0.0067 0.8967 0.4426
vn 0.0154 -0.9984 -0.0551
vn 0.4751 -0.2657 0.8389
vn 0.8503 -0.1068 -0.5154
vn 0.2265 0.9581 0.1752
vn -0.8503 0.1068 0.5154
vn -0.2265 -0.9581 -0.1752
vn 0.0030 -0.9981 0.0611
vn -0.0301 0.0609 0.9977
vn -0.9995 -0.0049 -0.0298
vn 0.0301 -0.0609 -0.9977
vn 0.9995 0.0049 0.0298
vn -0.2237 -0.9591 -0.1735
vn -0.9504 0.2540 -0.1792
vn 0.2241 0.9590 0.1734
vn 0.9485 -0.2551 0.1878
vn 0.2147 0.1251 -0.9686
vn 0.9996 0.0033 0.0290
vn 0.0266 -0.4858 -0.8737
vn -0.9996 -0.0033 -0.0286
vn -0.0266 0.4862 0.8734
vn 0.0109 0.8766 -0.4810
vn 0.9551 0.0000 -0.2964
vn -0.2964 -0.0000 -0.9551
vn -0.9551 0.0000 0.2964
vn 0.2964 0.0000 0.9551
vn 0.0000 -1.0000 0.0000
vn 0.0000 1.0000 -0.0000
vn 0.9965 -0.0071 0.0832
vn 0.0828 0.2139 -0.9733
vn -0.9965 0.0071 -0.0832
vn -0.0828 -0.2139 0.9733
vn 0.0108 -0.9768 -0.2137
vn -0.0108 0.9768 0.2137
vn -0.1936 -0.0936 0.9766
vn -0.4751 0.2657 -0.8389
vn -0.0030 0.9981 -0.0611
vn -0.0091 -0.9158 0.4015
vn -0.9750 -0.0733 -0.2097
vn 0.0671 0.8027 -0.5926
vn 0.9750 0.0733 0.2098
vn -0.0607 -0.8202 0.5689
vn -0.9997 -0.0174 0.0160
vn -0.0151 -0.0509 -0.9986
vn 0.9997 0.0174 -0.0160
vn 0.0151 0.0502 0.9986
vn 0.2564 -0.6071 -0.7521
vn 0.0172 -0.9982 -0.0570
vn -0.9527 0.2375 -0.1894
vn 0.2236 0.9591 0.1735
vn 0.9560 -0.2301 0.1822
vn 0.9996 0.0033 0.0286
vn 0.0272 -0.4856 -0.8738
vn -0.9996 -0.0033 -0.0290
vn -0.0278 0.4866 0.8732
vn -0.1001 -0.2408 0.9654
vn -0.0076 -0.9152 0.4030
s off
f 4/1/1 1/2/1 2/3/1
f 8/4/2 1/2/2 3/5/2
f 7/6/3 3/7/3 4/1/3
f 6/8/4 4/1/4 2/3/4
f 1/9/5 6/8/5 2/3/5
f 10/10/6 11/11/6 9/12/6
f 16/13/7 9/12/7 11/11/7
f 15/14/8 11/15/8 12/16/8
f 10/10/9 15/14/9 12/16/9
f 9/17/10 14/18/10 10/10/10
f 25/19/11 18/20/11 26/21/11
f 26/21/12 20/22/12 27/23/12
f 20/22/13 28/24/13 27/23/13
f 28/25/14 17/26/14 25/27/14
f 18/20/15 19/28/15 20/22/15
f 21/29/16 30/30/16 29/31/16
f 30/30/17 24/32/17 31/33/17
f 31/33/18 23/34/18 32/35/18
f 32/36/19 21/37/19 29/38/19
f 22/39/20 23/40/20 24/32/20
f 28/25/21 26/21/21 27/23/21
f 7/6/22 5/41/22 8/42/22
f 16/43/23 14/18/23 13/44/23
f 32/36/24 30/30/24 31/33/24
f 33/45/25 36/46/25 34/47/25
f 35/48/26 37/49/26 40/50/26
f 35/51/27 39/52/27 36/46/27
f 36/46/28 38/53/28 34/47/28
f 33/54/29 38/53/29 37/55/29
f 41/56/30 44/57/30 42/58/30
f 41/56/31 48/59/31 43/60/31
f 43/61/32 47/62/32 44/57/32
f 44/57/33 46/63/33 42/58/33
f 42/58/34 45/64/34 41/65/34
f 57/66/35 50/67/35 49/68/35
f 58/69/36 52/70/36 50/67/36
f 60/71/37 52/70/37 59/72/37
f 60/73/38 49/74/38 51/75/38
f 51/76/39 50/67/39 52/70/39
f 62/77/40 53/78/40 61/79/40
f 62/77/41 56/80/41 54/81/41
f 63/82/42 55/83/42 56/80/42
f 64/84/43 53/85/43 55/86/43
f 55/87/44 54/81/44 56/80/44
f 67/88/45 66/89/45 65/90/45
f 71/91/46 68/92/46 67/88/46
f 69/93/47 72/94/47 71/91/47
f 69/95/48 66/96/48 70/97/48
f 65/98/49 71/91/49 67/88/49
f 70/99/50 68/92/50 72/94/50
f 75/100/51 74/101/51 73/102/51
f 75/100/52 80/103/52 76/104/52
f 77/105/53 80/103/53 79/106/53
f 73/107/54 78/108/54 77/109/54
f 73/107/55 79/106/55 75/100/55
f 78/110/56 76/104/56 80/103/56
f 60/73/57 58/69/57 57/111/57
f 37/112/58 39/52/58 40/113/58
f 45/114/59 47/62/59 48/115/59
f 64/84/60 62/77/60 61/116/60
f 4/1/1 3/5/1 1/2/1
f 8/4/2 5/117/2 1/2/2
f 7/6/3 8/118/3 3/7/3
f 6/8/4 7/6/4 4/1/4
f 1/9/5 5/119/5 6/8/5
f 10/10/6 12/16/6 11/11/6
f 16/13/7 13/120/7 9/12/7
f 15/14/8 16/121/8 11/15/8
f 10/10/9 14/18/9 15/14/9
f 9/17/10 13/122/10 14/18/10
f 25/19/61 17/123/61 18/20/61
f 26/21/62 18/20/62 20/22/62
f 20/22/63 19/124/63 28/24/63
f 28/25/64 19/125/64 17/26/64
f 18/20/15 17/126/15 19/28/15
f 21/29/65 22/39/65 30/30/65
f 30/30/66 22/39/66 24/32/66
f 31/33/67 24/32/67 23/34/67
f 32/36/68 23/127/68 21/37/68
f 22/39/20 21/128/20 23/40/20
f 28/25/69 25/27/69 26/21/69
f 7/6/22 6/8/22 5/41/22
f 16/43/23 15/14/23 14/18/23
f 32/36/70 29/38/70 30/30/70
f 33/45/25 35/48/25 36/46/25
f 35/48/26 33/45/26 37/49/26
f 35/51/27 40/129/27 39/52/27
f 36/46/28 39/52/28 38/53/28
f 33/54/29 34/47/29 38/53/29
f 41/56/30 43/60/30 44/57/30
f 41/56/31 45/130/31 48/59/31
f 43/61/32 48/131/32 47/62/32
f 44/57/33 47/62/33 46/63/33
f 42/58/34 46/63/34 45/64/34
f 57/66/35 58/69/35 50/67/35
f 58/69/71 59/72/71 52/70/71
f 60/71/72 51/132/72 52/70/72
f 60/73/73 57/111/73 49/74/73
f 51/76/39 49/133/39 50/67/39
f 62/77/74 54/81/74 53/78/74
f 62/77/75 63/82/75 56/80/75
f 63/82/76 64/134/76 55/83/76
f 64/84/77 61/116/77 53/85/77
f 55/87/44 53/135/44 54/81/44
f 67/88/45 68/92/45 66/89/45
f 71/91/46 72/94/46 68/92/46
f 69/93/47 70/136/47 72/94/47
f 69/95/48 65/98/48 66/96/48
f 65/98/49 69/95/49 71/91/49
f 70/99/50 66/137/50 68/92/50
f 75/100/51 76/104/51 74/101/51
f 75/100/52 79/106/52 80/103/52
f 77/105/53 78/138/53 80/103/53
f 73/107/54 74/139/54 78/108/54
f 73/107/55 77/109/55 79/106/55
f 78/110/56 74/140/56 76/104/56
f 60/73/78 59/72/78 58/69/78
f 37/112/58 38/53/58 39/52/58
f 45/114/59 46/63/59 47/62/59
f 64/84/79 63/82/79 62/77/79
