# Blender v2.79 (sub 0) OBJ File: '3DObjectDecoderObjects.blend'
# www.blender.org
o Cube.001_Cube.000
v 0.660814 -0.525743 0.283096
v 0.665161 -0.575455 -0.118409
v 1.065330 -0.531807 0.288227
v 1.069677 -0.581519 -0.113279
v 0.677244 0.466566 0.160412
v 0.681591 0.416854 -0.241093
v 1.086107 0.410791 -0.235963
v 1.081760 0.460503 0.165542
v 0.079223 -2.075495 0.171828
v 0.071899 -2.074469 -0.232701
v 0.483749 -2.074298 0.164507
v 0.476425 -2.073272 -0.240022
v 0.076311 -1.075503 0.174422
v 0.068987 -1.074477 -0.230106
v 0.473513 -1.073280 -0.237428
v 0.480837 -1.074306 0.167101
v 0.691853 1.483876 0.187814
v 0.696888 1.492783 -0.216651
v 1.096374 1.477991 0.192720
v 1.101410 1.486898 -0.211745
v 0.073465 -0.018407 0.188127
v 0.066115 -0.013173 -0.216369
v 0.477991 -0.017221 0.180790
v 0.470641 -0.011987 -0.223706
v 0.677578 0.484224 0.165621
v 0.682612 0.492157 -0.239429
v 1.087121 0.479758 -0.238281
v 1.082153 0.481776 0.169519
v 0.076151 -1.017798 0.174869
v 0.068810 -1.013397 -0.229418
v 0.473336 -1.012202 -0.236752
v 0.480677 -1.016617 0.167545
v -0.709455 -0.523017 0.188324
v -0.715754 -0.568313 -0.213690
v -1.113998 -0.521011 0.194436
v -1.120297 -0.566307 -0.207578
v -0.706221 0.470688 0.076293
v -0.712520 0.425391 -0.325721
v -1.117063 0.427397 -0.319609
v -1.110765 0.472693 0.082405
v -0.079773 -2.072082 0.190038
v -0.070997 -2.078463 -0.214411
v -0.484271 -2.073198 0.181278
v -0.475494 -2.079579 -0.223171
v -0.082190 -1.072210 0.174213
v -0.073413 -1.078591 -0.230236
v -0.477911 -1.079707 -0.238996
v -0.486688 -1.073326 0.165453
v -0.699274 1.463218 0.184680
v -0.704816 1.503510 -0.217878
v -1.103820 1.465497 0.190478
v -1.109362 1.505789 -0.212080
v -0.085421 -0.016712 0.184859
v -0.076635 -0.012587 -0.219620
v -0.489918 -0.017858 0.176061
v -0.481132 -0.013733 -0.228418
v -0.706306 0.468204 0.085193
v -0.711877 0.507113 -0.318281
v -1.116611 0.500146 -0.318377
v -1.110829 0.475555 0.089741
v -0.082350 -1.015363 0.174044
v -0.073579 -1.013313 -0.229893
v -0.478076 -1.014433 -0.238683
v -0.486848 -1.016519 0.165276
v 0.621874 0.085253 0.403258
v 0.621874 1.485253 0.403258
v 0.627507 0.085253 -0.436723
v 0.627507 1.485253 -0.436723
v -0.638098 0.085253 0.394807
v -0.638098 1.485253 0.394807
v -0.632464 0.085253 -0.445174
v -0.632464 1.485253 -0.445174
v 0.291671 1.583299 0.282793
v 0.291279 2.183283 0.287034
v 0.297554 1.587543 -0.317163
v 0.297162 2.187528 -0.312922
v -0.308301 1.582949 0.276908
v -0.308692 2.182933 0.281149
v -0.302417 1.587193 -0.323048
v -0.302809 2.187178 -0.318807
vt 0.151712 0.164304
vt 0.128453 0.121671
vt 0.152804 0.123501
vt 0.127361 0.162474
vt 0.068267 0.117149
vt 0.210807 0.209629
vt 0.150620 0.205107
vt 0.212991 0.128023
vt 0.214083 0.087220
vt 0.153896 0.082698
vt 0.120318 0.196104
vt 0.141703 0.159716
vt 0.141869 0.195827
vt 0.194969 0.159030
vt 0.066887 0.160679
vt 0.119987 0.123882
vt 0.120152 0.159993
vt 0.120483 0.232215
vt 0.067052 0.196790
vt 0.893013 0.803206
vt 0.953247 0.844041
vt 0.893013 0.844041
vt 0.953247 0.884875
vt 0.893013 0.884875
vt 0.893013 0.925710
vt 0.868643 0.884875
vt 0.808410 0.844041
vt 0.868643 0.844041
vt 0.977617 0.844041
vt 0.977617 0.884875
vt 0.663028 0.545283
vt 0.741845 0.598717
vt 0.663028 0.598717
vt 0.663028 0.652150
vt 0.741845 0.652150
vt 0.663028 0.705584
vt 0.552321 0.652150
vt 0.631139 0.598717
vt 0.631139 0.652150
vt 0.773734 0.652150
vt 0.211899 0.168826
vt 0.237342 0.129853
vt 0.236250 0.170656
vt 0.045336 0.160957
vt 0.045501 0.197068
vt 0.113861 0.154921
vt 0.095990 0.121280
vt 0.114964 0.123128
vt 0.094887 0.153073
vt 0.049093 0.116713
vt 0.162963 0.095902
vt 0.161861 0.127695
vt 0.160758 0.159488
vt 0.159655 0.191281
vt 0.112759 0.186714
vt 0.153193 0.158992
vt 0.134495 0.188340
vt 0.135087 0.158002
vt 0.197352 0.191779
vt 0.152601 0.189330
vt 0.133904 0.218678
vt 0.089745 0.185892
vt 0.090336 0.155553
vt 0.135678 0.127663
vt 0.090927 0.125215
vt 0.893013 0.809899
vt 0.820174 0.859280
vt 0.820174 0.809899
vt 0.893013 0.859280
vt 0.820174 0.908661
vt 0.893013 0.958041
vt 0.893013 0.908661
vt 0.922484 0.908660
vt 0.995323 0.859280
vt 0.995323 0.908660
vt 0.790703 0.908661
vt 0.668850 0.573439
vt 0.627314 0.601598
vt 0.627314 0.573439
vt 0.668850 0.629757
vt 0.668850 0.601598
vt 0.668850 0.657916
vt 0.627314 0.629757
vt 0.685655 0.601598
vt 0.727191 0.629757
vt 0.685655 0.629757
vt 0.610509 0.601598
vt 0.114767 0.168293
vt 0.095916 0.220936
vt 0.095916 0.168293
vt 0.143042 0.168293
vt 0.114767 0.220936
vt 0.161893 0.168293
vt 0.143042 0.220936
vt 0.114767 0.136707
vt 0.143042 0.084063
vt 0.143042 0.136707
vt 0.143042 0.252523
vt 0.679363 0.612195
vt 0.705410 0.568551
vt 0.705410 0.612195
vt 0.653316 0.568551
vt 0.679363 0.568551
vt 0.627270 0.612195
vt 0.653316 0.612195
vt 0.653316 0.655839
vt 0.679363 0.699483
vt 0.653316 0.699483
vt 0.679363 0.655839
vt 0.653316 0.524907
vt 0.922484 0.859280
vt 0.180835 0.129543
vt 0.071639 0.184901
vt 0.067175 0.157952
vt 0.195135 0.195141
vt 0.066721 0.124568
vt 0.067218 0.232901
vt 0.953247 0.803206
vt 0.953247 0.925710
vt 0.808410 0.884875
vt 0.741845 0.545283
vt 0.741845 0.705584
vt 0.552321 0.598717
vt 0.773734 0.598717
vt 0.047991 0.148506
vt 0.116067 0.091335
vt 0.197943 0.161440
vt 0.089154 0.216230
vt 0.820174 0.958041
vt 0.790703 0.859280
vt 0.627314 0.657916
vt 0.727191 0.601598
vt 0.610509 0.629757
vt 0.161893 0.220936
vt 0.114767 0.084063
vt 0.114767 0.252523
vt 0.627270 0.568551
vt 0.679363 0.524907
vt 0.179732 0.161336
vt 0.072230 0.154563
vn -0.0164 -0.9923 0.1227
vn -0.0107 0.1229 0.9924
vn 0.9998 -0.0150 0.0127
vn 0.0107 -0.1229 -0.9924
vn -0.9998 0.0150 -0.0127
vn 0.0029 -1.0000 -0.0026
vn 0.0181 -0.0025 0.9998
vn 0.9998 0.0030 -0.0181
vn -0.0181 0.0025 -0.9998
vn -0.9998 -0.0030 0.0181
vn -0.9998 0.0145 -0.0121
vn 0.0036 0.0263 -0.9996
vn 0.9998 -0.0145 0.0123
vn -0.0098 -0.0221 0.9997
vn 0.0143 0.9997 0.0222
vn -0.9998 -0.0029 0.0181
vn -0.0182 0.0130 -0.9998
vn 0.9998 0.0029 -0.0181
vn 0.0181 -0.0132 0.9997
vn -0.0027 0.9999 0.0130
vn -0.0307 -0.9995 0.0046
vn 0.0164 0.9923 -0.1227
vn -0.0029 1.0000 0.0026
vn 0.0027 -0.9999 -0.0110
vn -0.0032 -0.9937 0.1120
vn 0.0156 0.1120 0.9936
vn -0.9999 0.0050 0.0151
vn -0.0156 -0.1120 -0.9936
vn 0.9999 -0.0050 -0.0151
vn 0.0024 -0.9999 0.0158
vn -0.0217 0.0158 0.9996
vn -0.9998 -0.0028 -0.0217
vn 0.0217 -0.0158 -0.9996
vn 0.9998 0.0028 0.0217
vn 0.9999 -0.0056 -0.0143
vn -0.0137 0.1003 -0.9949
vn -0.9999 0.0057 0.0145
vn 0.0137 -0.1013 0.9948
vn 0.0070 0.9950 0.0995
vn 0.0217 0.0103 -0.9997
vn -0.0216 -0.0109 0.9997
vn -0.0031 0.9999 0.0101
vn 1.0000 0.0000 0.0067
vn 0.0067 0.0000 -1.0000
vn -1.0000 0.0000 -0.0067
vn -0.0067 0.0000 1.0000
vn 0.0000 -1.0000 0.0000
vn 0.0000 1.0000 0.0000
vn 1.0000 0.0006 0.0098
vn 0.0098 0.0071 -0.9999
vn -1.0000 -0.0006 -0.0098
vn -0.0098 -0.0071 0.9999
vn 0.0007 -1.0000 -0.0071
vn -0.0007 1.0000 0.0071
vn -0.0192 -0.9952 -0.0957
vn 0.0032 0.9937 -0.1120
vn -0.0024 0.9999 -0.0158
vn 0.0030 -1.0000 -0.0051
vn 0.0125 0.0226 -0.9997
vn 0.9998 -0.0146 0.0121
vn -0.0125 -0.0231 0.9997
vn 0.0182 -0.0132 0.9997
vn -0.0059 -0.9998 -0.0197
vn 0.0028 -0.9999 -0.0109
vn -0.0016 0.1051 -0.9945
vn -0.9999 0.0056 0.0143
vn 0.0094 -0.0996 0.9950
vn -0.0217 -0.0109 0.9997
vn 0.0172 -0.9980 -0.0604
vn 0.0029 -1.0000 -0.0050
s off
f 4/1/1 1/2/1 2/3/1
f 3/4/2 5/5/2 1/2/2
f 4/1/3 8/6/3 3/7/3
f 6/8/4 4/1/4 2/3/4
f 5/9/5 2/3/5 1/10/5
f 10/11/6 11/12/6 9/13/6
f 16/14/7 9/13/7 11/12/7
f 15/15/8 11/16/8 12/17/8
f 10/11/9 15/15/9 12/17/9
f 9/18/10 14/19/10 10/11/10
f 25/20/11 18/21/11 26/22/11
f 26/22/12 20/23/12 27/24/12
f 20/23/13 28/25/13 27/24/13
f 28/26/14 17/27/14 25/28/14
f 20/23/15 17/29/15 19/30/15
f 29/31/16 22/32/16 30/33/16
f 22/32/17 31/34/17 30/33/17
f 24/35/18 32/36/18 31/34/18
f 23/37/19 29/38/19 32/39/19
f 22/32/20 23/40/20 24/35/20
f 28/26/21 26/22/21 27/24/21
f 7/41/22 5/42/22 8/43/22
f 16/44/23 14/19/23 13/45/23
f 29/38/24 31/34/24 32/39/24
f 34/46/25 35/47/25 36/48/25
f 33/49/26 40/50/26 35/47/26
f 36/48/27 40/51/27 39/52/27
f 36/48/28 38/53/28 34/46/28
f 34/46/29 37/54/29 33/55/29
f 41/56/30 44/57/30 42/58/30
f 41/56/31 48/59/31 43/60/31
f 43/61/32 47/62/32 44/57/32
f 44/57/33 46/63/33 42/58/33
f 41/64/34 46/63/34 45/65/34
f 57/66/35 50/67/35 49/68/35
f 58/69/36 52/70/36 50/67/36
f 60/71/37 52/70/37 59/72/37
f 60/73/38 49/74/38 51/75/38
f 51/76/39 50/67/39 52/70/39
f 61/77/34 54/78/34 53/79/34
f 63/80/40 54/78/40 62/81/40
f 64/82/32 56/83/32 63/80/32
f 61/84/41 55/85/41 64/86/41
f 56/83/42 53/87/42 54/78/42
f 67/88/43 66/89/43 65/90/43
f 71/91/44 68/92/44 67/88/44
f 69/93/45 72/94/45 71/91/45
f 65/95/46 70/96/46 69/97/46
f 65/95/47 71/91/47 67/88/47
f 70/98/48 68/92/48 72/94/48
f 75/99/49 74/100/49 73/101/49
f 75/99/50 80/102/50 76/103/50
f 77/104/51 80/102/51 79/105/51
f 77/106/52 74/107/52 78/108/52
f 73/109/53 79/105/53 75/99/53
f 78/110/54 76/103/54 80/102/54
f 60/73/55 58/69/55 57/111/55
f 40/112/56 38/53/56 39/52/56
f 48/113/57 46/63/57 47/62/57
f 63/80/58 61/84/58 64/86/58
f 4/1/1 3/4/1 1/2/1
f 3/4/2 8/114/2 5/5/2
f 4/1/3 7/41/3 8/6/3
f 6/8/4 7/41/4 4/1/4
f 5/9/5 6/8/5 2/3/5
f 10/11/6 12/17/6 11/12/6
f 16/14/7 13/115/7 9/13/7
f 15/15/8 16/116/8 11/16/8
f 10/11/9 14/19/9 15/15/9
f 9/18/10 13/117/10 14/19/10
f 25/20/11 17/118/11 18/21/11
f 26/22/59 18/21/59 20/23/59
f 20/23/60 19/119/60 28/25/60
f 28/26/61 19/120/61 17/27/61
f 20/23/15 18/21/15 17/29/15
f 29/31/16 21/121/16 22/32/16
f 22/32/17 24/35/17 31/34/17
f 24/35/18 23/122/18 32/36/18
f 23/37/62 21/123/62 29/38/62
f 22/32/20 21/124/20 23/40/20
f 28/26/63 25/28/63 26/22/63
f 7/41/22 6/8/22 5/42/22
f 16/44/23 15/15/23 14/19/23
f 29/38/64 30/33/64 31/34/64
f 34/46/25 33/49/25 35/47/25
f 33/49/26 37/125/26 40/50/26
f 36/48/27 35/126/27 40/51/27
f 36/48/28 39/52/28 38/53/28
f 34/46/29 38/53/29 37/54/29
f 41/56/30 43/60/30 44/57/30
f 41/56/31 45/127/31 48/59/31
f 43/61/32 48/128/32 47/62/32
f 44/57/33 47/62/33 46/63/33
f 41/64/34 42/58/34 46/63/34
f 57/66/35 58/69/35 50/67/35
f 58/69/65 59/72/65 52/70/65
f 60/71/66 51/129/66 52/70/66
f 60/73/67 57/111/67 49/74/67
f 51/76/39 49/130/39 50/67/39
f 61/77/34 62/81/34 54/78/34
f 63/80/40 56/83/40 54/78/40
f 64/82/32 55/131/32 56/83/32
f 61/84/68 53/132/68 55/85/68
f 56/83/42 55/133/42 53/87/42
f 67/88/43 68/92/43 66/89/43
f 71/91/44 72/94/44 68/92/44
f 69/93/45 70/134/45 72/94/45
f 65/95/46 66/135/46 70/96/46
f 65/95/47 69/97/47 71/91/47
f 70/98/48 66/136/48 68/92/48
f 75/99/49 76/103/49 74/100/49
f 75/99/50 79/105/50 80/102/50
f 77/104/51 78/137/51 80/102/51
f 77/106/52 73/109/52 74/107/52
f 73/109/53 77/106/53 79/105/53
f 78/110/54 74/138/54 76/103/54
f 60/73/69 59/72/69 58/69/69
f 40/112/56 37/139/56 38/53/56
f 48/113/57 45/140/57 46/63/57
f 63/80/70 62/81/70 61/84/70
