# Blender v2.79 (sub 0) OBJ File: '3DObjectDecoderObjects.blend'
# www.blender.org
o Cube.005_Cube.008
v 0.658515 -0.573635 0.248464
v 0.661079 -0.580430 -0.156066
v 1.063023 -0.581534 0.251160
v 1.065587 -0.588329 -0.153370
v 0.678148 0.426033 0.231796
v 0.680711 0.419238 -0.172734
v 1.085219 0.411339 -0.170038
v 1.082656 0.418134 0.234492
v 0.078739 -2.076470 -0.221014
v 0.072020 -1.978673 -0.613556
v 0.483278 -2.075038 -0.227583
v 0.476558 -1.977242 -0.620125
v 0.079232 -1.106129 0.020729
v 0.072512 -1.008332 -0.371812
v 0.477050 -1.006901 -0.378381
v 0.483770 -1.104698 0.014160
v 0.699217 1.490771 0.196205
v 0.701673 1.477264 -0.208157
v 1.103725 1.482851 0.198926
v 1.106181 1.469343 -0.205436
v 0.078642 -0.061579 0.222635
v 0.072002 0.015071 -0.174579
v 0.483181 -0.060106 0.216156
v 0.476542 0.016544 -0.181058
v 0.679428 0.491520 0.229463
v 0.681885 0.478122 -0.174829
v 1.086400 0.470936 -0.171659
v 1.083928 0.483204 0.232290
v 0.079220 -1.046371 0.033944
v 0.072543 -0.965305 -0.363426
v 0.477082 -0.963879 -0.369932
v 0.483758 -1.044864 0.027409
v -0.698594 -0.554723 0.198705
v -0.702882 -0.577983 -0.205210
v -1.103166 -0.554147 0.202966
v -1.107453 -0.577406 -0.200949
v -0.697778 0.443624 0.141186
v -0.702065 0.420364 -0.262730
v -1.106636 0.420941 -0.258469
v -1.102349 0.444200 0.145446
v -0.079747 -1.539063 0.472414
v -0.070855 -1.356192 0.111614
v -0.484184 -1.541225 0.461351
v -0.475292 -1.358355 0.100551
v -0.096871 -0.647053 0.924106
v -0.087979 -0.464182 0.563306
v -0.492416 -0.466344 0.552243
v -0.501308 -0.649215 0.913043
v -0.695367 1.466732 0.208174
v -0.699399 1.491796 -0.195636
v -1.099940 1.467464 0.212258
v -1.103972 1.492528 -0.191552
v -0.076197 0.098209 0.031585
v -0.070466 -0.232070 -0.202039
v -0.480679 0.097940 0.022042
v -0.474947 -0.232338 -0.211583
v -0.697799 0.468652 0.146256
v -0.701842 0.492941 -0.258077
v -1.106488 0.488482 -0.257365
v -1.102366 0.472255 0.149660
v -0.096400 -0.534409 0.896554
v -0.089301 -0.769783 0.611611
v -0.493779 -0.771376 0.601990
v -0.500837 -0.534540 0.885394
v 0.630000 0.079915 0.420000
v 0.630000 1.479915 0.420000
v 0.630000 0.079915 -0.420000
v 0.630000 1.479915 -0.420000
v -0.630000 0.079915 0.420000
v -0.630000 1.479915 0.420000
v -0.630000 0.079915 -0.420000
v -0.630000 1.479915 -0.420000
v 0.300181 1.579652 0.299927
v 0.299973 2.179651 0.300657
v 0.299736 1.580381 -0.300072
v 0.299528 2.180381 -0.299342
v -0.299819 1.579443 0.300372
v -0.300027 2.179442 0.301102
v -0.300264 1.580173 -0.299627
v -0.300472 2.180172 -0.298898
vt 0.151712 0.164304
vt 0.128453 0.121671
vt 0.152804 0.123501
vt 0.067175 0.157952
vt 0.127361 0.162474
vt 0.210807 0.209629
vt 0.150620 0.205107
vt 0.212991 0.128023
vt 0.214083 0.087220
vt 0.153896 0.082698
vt 0.120318 0.196104
vt 0.141703 0.159716
vt 0.141869 0.195827
vt 0.194969 0.159030
vt 0.066887 0.160679
vt 0.119987 0.123882
vt 0.120152 0.159993
vt 0.120483 0.232215
vt 0.067052 0.196790
vt 0.953247 0.803206
vt 0.893013 0.844041
vt 0.893013 0.803206
vt 0.953247 0.844041
vt 0.893013 0.884875
vt 0.953247 0.925710
vt 0.893013 0.925710
vt 0.808410 0.884875
vt 0.868643 0.844041
vt 0.868643 0.884875
vt 0.953247 0.884875
vt 0.977617 0.844041
vt 0.977617 0.884875
vt 0.741845 0.545283
vt 0.663028 0.598717
vt 0.663028 0.545283
vt 0.741845 0.652150
vt 0.663028 0.652150
vt 0.741845 0.705584
vt 0.663028 0.705584
vt 0.631139 0.652150
vt 0.552321 0.598717
vt 0.631139 0.598717
vt 0.741845 0.598717
vt 0.773734 0.652150
vt 0.211899 0.168826
vt 0.237342 0.129853
vt 0.236250 0.170656
vt 0.045336 0.160957
vt 0.045501 0.197068
vt 0.113861 0.154921
vt 0.095990 0.121280
vt 0.114964 0.123128
vt 0.094887 0.153073
vt 0.049093 0.116713
vt 0.162963 0.095902
vt 0.161861 0.127695
vt 0.160758 0.159488
vt 0.159655 0.191281
vt 0.112759 0.186714
vt 0.153193 0.158992
vt 0.134495 0.188340
vt 0.135087 0.158002
vt 0.197352 0.191779
vt 0.152601 0.189330
vt 0.133904 0.218678
vt 0.089745 0.185892
vt 0.090336 0.155553
vt 0.090927 0.125215
vt 0.135678 0.127663
vt 0.893013 0.809899
vt 0.820174 0.859280
vt 0.820174 0.809899
vt 0.893013 0.859280
vt 0.820174 0.908661
vt 0.893013 0.958041
vt 0.893013 0.908661
vt 0.922484 0.908660
vt 0.995323 0.859280
vt 0.995323 0.908660
vt 0.790703 0.908661
vt 0.668850 0.601598
vt 0.627314 0.573439
vt 0.668850 0.573439
vt 0.627314 0.629757
vt 0.627314 0.601598
vt 0.668850 0.629757
vt 0.627314 0.657916
vt 0.685655 0.629757
vt 0.727191 0.601598
vt 0.727191 0.629757
vt 0.610509 0.629757
vt 0.114767 0.168293
vt 0.095916 0.220936
vt 0.095916 0.168293
vt 0.143042 0.168293
vt 0.114767 0.220936
vt 0.161893 0.168293
vt 0.143042 0.220936
vt 0.114767 0.136707
vt 0.143042 0.084063
vt 0.143042 0.136707
vt 0.143042 0.252523
vt 0.705410 0.612195
vt 0.679363 0.568551
vt 0.705410 0.568551
vt 0.679363 0.612195
vt 0.653316 0.568551
vt 0.627270 0.612195
vt 0.653316 0.612195
vt 0.679363 0.655839
vt 0.653316 0.699483
vt 0.653316 0.655839
vt 0.653316 0.524907
vt 0.922484 0.859280
vt 0.180835 0.129543
vt 0.072230 0.154563
vt 0.071639 0.184901
vt 0.685655 0.601598
vt 0.068267 0.117149
vt 0.195135 0.195141
vt 0.066721 0.124568
vt 0.067218 0.232901
vt 0.808410 0.844041
vt 0.552321 0.652150
vt 0.773734 0.598717
vt 0.047991 0.148506
vt 0.116067 0.091335
vt 0.197943 0.161440
vt 0.089154 0.216230
vt 0.820174 0.958041
vt 0.790703 0.859280
vt 0.668850 0.657916
vt 0.610509 0.601598
vt 0.161893 0.220936
vt 0.114767 0.084063
vt 0.114767 0.252523
vt 0.627270 0.568551
vt 0.679363 0.699483
vt 0.679363 0.524907
vt 0.179732 0.161336
vn -0.0196 -0.9997 0.0167
vn -0.0063 0.0168 0.9998
vn 0.9998 -0.0195 0.0067
vn 0.0063 -0.0168 -0.9998
vn -0.9998 0.0195 -0.0067
vn -0.0005 -0.9703 -0.2417
vn 0.0166 -0.2417 0.9702
vn 0.9999 0.0035 -0.0162
vn -0.0166 0.2417 -0.9702
vn -0.9999 -0.0035 0.0162
vn -0.9998 0.0196 -0.0067
vn 0.0072 -0.0335 -0.9994
vn 0.9998 -0.0196 0.0067
vn -0.0063 0.0335 0.9994
vn 0.0198 0.9993 -0.0333
vn -0.9999 -0.0037 0.0161
vn -0.0165 0.1891 -0.9818
vn 0.9999 0.0037 -0.0161
vn 0.0166 -0.1881 0.9820
vn -0.0005 0.9819 0.1895
vn -0.0208 -0.9993 0.0302
vn 0.0196 0.9997 -0.0167
vn 0.0005 0.9703 0.2417
vn 0.0002 -0.9799 -0.1997
vn -0.0008 -0.9983 0.0575
vn 0.0106 0.0575 0.9983
vn -0.9999 0.0014 0.0105
vn -0.0106 -0.0575 -0.9983
vn 0.9999 -0.0014 -0.0105
vn 0.0171 -0.8920 -0.4517
vn -0.0220 -0.4520 0.8918
vn -0.9996 -0.0053 -0.0273
vn 0.0220 0.4520 -0.8918
vn 0.9996 0.0053 0.0273
vn 0.9999 -0.0018 -0.0101
vn -0.0100 0.0624 -0.9980
vn -0.9999 0.0018 0.0102
vn 0.0100 -0.0628 0.9980
vn 0.0024 0.9981 0.0619
vn 0.9997 0.0010 0.0241
vn 0.0136 -0.8343 -0.5511
vn -0.9997 -0.0007 -0.0236
vn -0.0145 0.8068 0.5907
vn 0.0189 0.5776 -0.8161
vn 1.0000 0.0000 0.0000
vn 0.0000 0.0000 -1.0000
vn -1.0000 0.0000 0.0000
vn 0.0000 0.0000 1.0000
vn 0.0000 -1.0000 0.0000
vn 0.0000 1.0000 0.0000
vn 1.0000 0.0003 -0.0007
vn -0.0007 0.0012 -1.0000
vn -1.0000 -0.0003 0.0007
vn 0.0007 -0.0012 1.0000
vn 0.0003 -1.0000 -0.0012
vn -0.0003 1.0000 0.0012
vn -0.0094 -0.9982 -0.0599
vn 0.0008 0.9983 -0.0575
vn -0.0171 0.8920 0.4517
vn -0.0173 -0.7711 0.6365
vn 0.0061 -0.0339 -0.9994
vn -0.0061 0.0334 0.9994
vn -0.9999 -0.0036 0.0160
vn -0.0164 0.1891 -0.9818
vn 0.9999 0.0036 -0.0160
vn 0.0164 -0.1882 0.9820
vn -0.0180 -0.9993 0.0330
vn 0.0004 -0.9798 -0.1999
vn -0.0025 0.0654 -0.9979
vn -0.9999 0.0018 0.0101
vn 0.0078 -0.0619 0.9980
vn 0.9997 0.0007 0.0236
vn 0.0164 -0.8337 -0.5520
vn -0.9997 -0.0010 -0.0241
vn -0.0165 0.8072 0.5900
vn 0.0109 -0.9991 -0.0399
vn -0.0122 -0.7674 0.6410
s off
f 4/1/1 1/2/1 2/3/1
f 8/4/2 1/2/2 3/5/2
f 4/1/3 8/6/3 3/7/3
f 6/8/4 4/1/4 2/3/4
f 5/9/5 2/3/5 1/10/5
f 10/11/6 11/12/6 9/13/6
f 16/14/7 9/13/7 11/12/7
f 15/15/8 11/16/8 12/17/8
f 10/11/9 15/15/9 12/17/9
f 9/18/10 14/19/10 10/11/10
f 17/20/11 26/21/11 25/22/11
f 18/23/12 27/24/12 26/21/12
f 27/24/13 19/25/13 28/26/13
f 19/27/14 25/28/14 28/29/14
f 20/30/15 17/31/15 19/32/15
f 21/33/16 30/34/16 29/35/16
f 30/34/17 24/36/17 31/37/17
f 31/37/18 23/38/18 32/39/18
f 32/40/19 21/41/19 29/42/19
f 22/43/20 23/44/20 24/36/20
f 25/28/21 27/24/21 28/29/21
f 7/45/22 5/46/22 8/47/22
f 16/48/23 14/19/23 13/49/23
f 32/40/24 30/34/24 31/37/24
f 34/50/25 35/51/25 36/52/25
f 33/53/26 40/54/26 35/51/26
f 36/52/27 40/55/27 39/56/27
f 36/52/28 38/57/28 34/50/28
f 34/50/29 37/58/29 33/59/29
f 41/60/30 44/61/30 42/62/30
f 41/60/31 48/63/31 43/64/31
f 43/65/32 47/66/32 44/61/32
f 44/61/33 46/67/33 42/62/33
f 42/62/34 45/68/34 41/69/34
f 57/70/35 50/71/35 49/72/35
f 58/73/36 52/74/36 50/71/36
f 60/75/37 52/74/37 59/76/37
f 60/77/38 49/78/38 51/79/38
f 51/80/39 50/71/39 52/74/39
f 62/81/40 53/82/40 61/83/40
f 62/81/41 56/84/41 54/85/41
f 63/86/42 55/87/42 56/84/42
f 64/88/43 53/89/43 55/90/43
f 55/91/44 54/85/44 56/84/44
f 67/92/45 66/93/45 65/94/45
f 71/95/46 68/96/46 67/92/46
f 69/97/47 72/98/47 71/95/47
f 65/99/48 70/100/48 69/101/48
f 65/99/49 71/95/49 67/92/49
f 70/102/50 68/96/50 72/98/50
f 73/103/51 76/104/51 74/105/51
f 75/106/52 80/107/52 76/104/52
f 77/108/53 80/107/53 79/109/53
f 73/110/54 78/111/54 77/112/54
f 73/110/55 79/109/55 75/106/55
f 78/113/56 76/104/56 80/107/56
f 60/77/57 58/73/57 57/114/57
f 40/115/58 38/57/58 39/56/58
f 45/116/59 47/66/59 48/117/59
f 64/88/60 62/81/60 61/118/60
f 4/1/1 3/5/1 1/2/1
f 8/4/2 5/119/2 1/2/2
f 4/1/3 7/45/3 8/6/3
f 6/8/4 7/45/4 4/1/4
f 5/9/5 6/8/5 2/3/5
f 10/11/6 12/17/6 11/12/6
f 16/14/7 13/120/7 9/13/7
f 15/15/8 16/121/8 11/16/8
f 10/11/9 14/19/9 15/15/9
f 9/18/10 13/122/10 14/19/10
f 17/20/11 18/23/11 26/21/11
f 18/23/61 20/30/61 27/24/61
f 27/24/13 20/30/13 19/25/13
f 19/27/62 17/123/62 25/28/62
f 20/30/15 18/23/15 17/31/15
f 21/33/63 22/43/63 30/34/63
f 30/34/64 22/43/64 24/36/64
f 31/37/65 24/36/65 23/38/65
f 32/40/66 23/124/66 21/41/66
f 22/43/20 21/125/20 23/44/20
f 25/28/67 26/21/67 27/24/67
f 7/45/22 6/8/22 5/46/22
f 16/48/23 15/15/23 14/19/23
f 32/40/68 29/42/68 30/34/68
f 34/50/25 33/53/25 35/51/25
f 33/53/26 37/126/26 40/54/26
f 36/52/27 35/127/27 40/55/27
f 36/52/28 39/56/28 38/57/28
f 34/50/29 38/57/29 37/58/29
f 41/60/30 43/64/30 44/61/30
f 41/60/31 45/128/31 48/63/31
f 43/65/32 48/129/32 47/66/32
f 44/61/33 47/66/33 46/67/33
f 42/62/34 46/67/34 45/68/34
f 57/70/35 58/73/35 50/71/35
f 58/73/69 59/76/69 52/74/69
f 60/75/70 51/130/70 52/74/70
f 60/77/71 57/114/71 49/78/71
f 51/80/39 49/131/39 50/71/39
f 62/81/72 54/85/72 53/82/72
f 62/81/73 63/86/73 56/84/73
f 63/86/74 64/132/74 55/87/74
f 64/88/75 61/118/75 53/89/75
f 55/91/44 53/133/44 54/85/44
f 67/92/45 68/96/45 66/93/45
f 71/95/46 72/98/46 68/96/46
f 69/97/47 70/134/47 72/98/47
f 65/99/48 66/135/48 70/100/48
f 65/99/49 69/101/49 71/95/49
f 70/102/50 66/136/50 68/96/50
f 73/103/51 75/106/51 76/104/51
f 75/106/52 79/109/52 80/107/52
f 77/108/53 78/137/53 80/107/53
f 73/110/54 74/138/54 78/111/54
f 73/110/55 77/112/55 79/109/55
f 78/113/56 74/139/56 76/104/56
f 60/77/76 59/76/76 58/73/76
f 40/115/58 37/140/58 38/57/58
f 45/116/59 46/67/59 47/66/59
f 64/88/77 63/86/77 62/81/77
