# Blender v2.79 (sub 0) OBJ File: '3DObjectDecoderObjects.blend'
# www.blender.org
o Cube.005_Cube.008
v 0.658515 -0.573635 0.248464
v 0.661079 -0.580430 -0.156066
v 1.063023 -0.581534 0.251160
v 1.065587 -0.588329 -0.153370
v 0.678148 0.426033 0.231796
v 0.680711 0.419238 -0.172734
v 1.085219 0.411339 -0.170038
v 1.082656 0.418134 0.234492
v 0.078911 -2.049372 0.174473
v 0.071810 -1.972151 -0.222622
v 0.483441 -2.049393 0.167234
v 0.476340 -1.972173 -0.229861
v 0.082378 -1.067754 0.365302
v 0.075277 -0.990533 -0.031793
v 0.479806 -0.990554 -0.039032
v 0.486907 -1.067775 0.358063
v 0.699217 1.490771 0.196205
v 0.701673 1.477264 -0.208157
v 1.103725 1.482851 0.198926
v 1.106181 1.469343 -0.205436
v 0.078227 0.012678 0.183383
v 0.071699 -0.057469 -0.215033
v 0.482766 0.013062 0.176686
v 0.476238 -0.057085 -0.221729
v 0.679428 0.491520 0.229463
v 0.681885 0.478122 -0.174829
v 1.086400 0.470936 -0.171659
v 1.083928 0.483204 0.232290
v 0.082292 -0.990425 0.366091
v 0.075501 -1.031386 -0.039586
v 0.480039 -1.031354 -0.046396
v 0.486822 -0.989892 0.358968
v -0.698594 -0.554723 0.198705
v -0.702882 -0.577983 -0.205210
v -1.103166 -0.554147 0.202966
v -1.107453 -0.577406 -0.200949
v -0.697778 0.443624 0.141186
v -0.702065 0.420364 -0.262730
v -1.106636 0.420941 -0.258469
v -1.102349 0.444200 0.145446
v -0.079998 -2.082362 0.163657
v -0.070808 -2.063802 -0.240408
v -0.484488 -2.082182 0.154465
v -0.475298 -2.063622 -0.249599
v -0.080596 -1.083414 0.209528
v -0.071406 -1.064855 -0.194536
v -0.475896 -1.064675 -0.203728
v -0.485086 -1.083234 0.200336
v -0.695367 1.466732 0.208174
v -0.699399 1.491796 -0.195636
v -1.099940 1.467464 0.212258
v -1.103972 1.492528 -0.191552
v -0.079892 -0.019989 0.206330
v -0.070775 -0.021321 -0.198160
v -0.484383 -0.019756 0.197212
v -0.475266 -0.021087 -0.207278
v -0.697799 0.468652 0.146256
v -0.701842 0.492941 -0.258077
v -1.106488 0.488482 -0.257365
v -1.102366 0.472255 0.149660
v -0.080585 -1.022463 0.210841
v -0.071428 -1.019842 -0.194580
v -0.475919 -1.019656 -0.203714
v -0.485075 -1.022208 0.201665
v 0.630000 0.079915 0.420000
v 0.630000 1.479915 0.420000
v 0.630000 0.079915 -0.420000
v 0.630000 1.479915 -0.420000
v -0.630000 0.079915 0.420000
v -0.630000 1.479915 0.420000
v -0.630000 0.079915 -0.420000
v -0.630000 1.479915 -0.420000
v 0.300181 1.579652 0.299927
v 0.299973 2.179651 0.300657
v 0.299736 1.580381 -0.300072
v 0.299528 2.180381 -0.299342
v -0.299819 1.579443 0.300372
v -0.300027 2.179442 0.301102
v -0.300264 1.580173 -0.299627
v -0.300472 2.180172 -0.298898
vt 0.151712 0.164304
vt 0.128453 0.121671
vt 0.152804 0.123501
vt 0.067175 0.157952
vt 0.127361 0.162474
vt 0.210807 0.209629
vt 0.150620 0.205107
vt 0.212991 0.128023
vt 0.214083 0.087220
vt 0.153896 0.082698
vt 0.120318 0.196104
vt 0.141703 0.159716
vt 0.141869 0.195827
vt 0.194969 0.159030
vt 0.066887 0.160679
vt 0.119987 0.123882
vt 0.120152 0.159993
vt 0.120483 0.232215
vt 0.067052 0.196790
vt 0.953247 0.803206
vt 0.893013 0.844041
vt 0.893013 0.803206
vt 0.953247 0.844041
vt 0.893013 0.884875
vt 0.953247 0.925710
vt 0.893013 0.925710
vt 0.808410 0.884875
vt 0.868643 0.844041
vt 0.868643 0.884875
vt 0.953247 0.884875
vt 0.977617 0.844041
vt 0.977617 0.884875
vt 0.741845 0.545283
vt 0.663028 0.598717
vt 0.663028 0.545283
vt 0.741845 0.652150
vt 0.663028 0.652150
vt 0.741845 0.705584
vt 0.663028 0.705584
vt 0.631139 0.652150
vt 0.552321 0.598717
vt 0.631139 0.598717
vt 0.741845 0.598717
vt 0.773734 0.652150
vt 0.211899 0.168826
vt 0.237342 0.129853
vt 0.236250 0.170656
vt 0.045336 0.160957
vt 0.045501 0.197068
vt 0.113861 0.154921
vt 0.095990 0.121280
vt 0.114964 0.123128
vt 0.094887 0.153073
vt 0.049093 0.116713
vt 0.162963 0.095902
vt 0.161861 0.127695
vt 0.160758 0.159488
vt 0.159655 0.191281
vt 0.112759 0.186714
vt 0.153193 0.158992
vt 0.134495 0.188340
vt 0.135087 0.158002
vt 0.152601 0.189330
vt 0.197943 0.161440
vt 0.197352 0.191779
vt 0.133904 0.218678
vt 0.089745 0.185892
vt 0.090336 0.155553
vt 0.135678 0.127663
vt 0.090927 0.125215
vt 0.893013 0.809899
vt 0.820174 0.859280
vt 0.820174 0.809899
vt 0.893013 0.859280
vt 0.820174 0.908661
vt 0.893013 0.958041
vt 0.893013 0.908661
vt 0.922484 0.908660
vt 0.995323 0.859280
vt 0.995323 0.908660
vt 0.790703 0.908661
vt 0.668850 0.601598
vt 0.627314 0.573439
vt 0.668850 0.573439
vt 0.627314 0.629757
vt 0.627314 0.601598
vt 0.668850 0.629757
vt 0.627314 0.657916
vt 0.685655 0.629757
vt 0.727191 0.601598
vt 0.727191 0.629757
vt 0.610509 0.601598
vt 0.114767 0.168293
vt 0.095916 0.220936
vt 0.095916 0.168293
vt 0.143042 0.168293
vt 0.114767 0.220936
vt 0.161893 0.168293
vt 0.143042 0.220936
vt 0.114767 0.136707
vt 0.143042 0.084063
vt 0.143042 0.136707
vt 0.143042 0.252523
vt 0.705410 0.612195
vt 0.679363 0.568551
vt 0.705410 0.568551
vt 0.679363 0.612195
vt 0.653316 0.568551
vt 0.627270 0.612195
vt 0.653316 0.612195
vt 0.679363 0.655839
vt 0.653316 0.699483
vt 0.653316 0.655839
vt 0.653316 0.524907
vt 0.922484 0.859280
vt 0.180835 0.129543
vt 0.072230 0.154563
vt 0.071639 0.184901
vt 0.685655 0.601598
vt 0.068267 0.117149
vt 0.195135 0.195141
vt 0.066721 0.124568
vt 0.067218 0.232901
vt 0.808410 0.844041
vt 0.552321 0.652150
vt 0.773734 0.598717
vt 0.047991 0.148506
vt 0.116067 0.091335
vt 0.089154 0.216230
vt 0.820174 0.958041
vt 0.790703 0.859280
vt 0.668850 0.657916
vt 0.610509 0.629757
vt 0.161893 0.220936
vt 0.114767 0.084063
vt 0.114767 0.252523
vt 0.627270 0.568551
vt 0.679363 0.699483
vt 0.679363 0.524907
vt 0.179732 0.161336
vn -0.0196 -0.9997 0.0167
vn -0.0063 0.0168 0.9998
vn 0.9998 -0.0195 0.0067
vn 0.0063 -0.0168 -0.9998
vn -0.9998 0.0195 -0.0067
vn -0.0035 -0.9816 -0.1908
vn 0.0176 -0.1909 0.9815
vn 0.9998 -0.0001 -0.0179
vn -0.0176 0.1909 -0.9815
vn -0.9998 0.0001 0.0179
vn -0.9998 0.0196 -0.0067
vn 0.0072 -0.0335 -0.9994
vn 0.9998 -0.0196 0.0067
vn -0.0063 0.0335 0.9994
vn 0.0198 0.9993 -0.0333
vn -0.9999 -0.0010 0.0168
vn -0.0166 -0.1772 -0.9840
vn 0.9999 0.0010 -0.0168
vn 0.0171 0.1792 0.9837
vn -0.0038 0.9849 -0.1733
vn -0.0208 -0.9993 0.0302
vn 0.0196 0.9997 -0.0167
vn 0.0035 0.9816 0.1908
vn 0.0018 -0.9948 0.1017
vn -0.0008 -0.9983 0.0575
vn 0.0106 0.0575 0.9983
vn -0.9999 0.0014 0.0105
vn -0.0106 -0.0575 -0.9983
vn 0.9999 -0.0014 -0.0105
vn 0.0006 -0.9989 -0.0459
vn -0.0227 -0.0459 0.9987
vn -0.9997 0.0004 -0.0227
vn 0.0227 0.0459 -0.9987
vn 0.9997 -0.0004 0.0227
vn 0.9999 -0.0018 -0.0101
vn -0.0100 0.0624 -0.9980
vn -0.9999 0.0018 0.0102
vn 0.0100 -0.0628 0.9980
vn 0.0024 0.9981 0.0619
vn 0.9997 -0.0006 0.0226
vn 0.0225 -0.0036 -0.9997
vn -0.9997 0.0006 -0.0225
vn -0.0225 0.0045 0.9997
vn 0.0007 1.0000 -0.0033
vn 1.0000 0.0000 0.0000
vn 0.0000 0.0000 -1.0000
vn -1.0000 0.0000 0.0000
vn 0.0000 0.0000 1.0000
vn 0.0000 -1.0000 0.0000
vn 0.0000 1.0000 0.0000
vn 1.0000 0.0003 -0.0007
vn -0.0007 0.0012 -1.0000
vn -1.0000 -0.0003 0.0007
vn 0.0007 -0.0012 1.0000
vn 0.0003 -1.0000 -0.0012
vn -0.0003 1.0000 0.0012
vn -0.0094 -0.9982 -0.0599
vn 0.0008 0.9983 -0.0575
vn -0.0006 0.9989 0.0459
vn -0.0005 -1.0000 -0.0065
vn 0.0061 -0.0339 -0.9994
vn -0.0061 0.0334 0.9994
vn -0.9999 -0.0009 0.0165
vn -0.0161 -0.1773 -0.9840
vn 0.9999 0.0009 -0.0165
vn 0.0161 0.1789 0.9837
vn -0.0180 -0.9993 0.0330
vn 0.0031 -0.9949 0.1004
vn -0.0025 0.0654 -0.9979
vn -0.9999 0.0018 0.0101
vn 0.0078 -0.0619 0.9980
vn 0.9997 -0.0006 0.0225
vn 0.0226 -0.0036 -0.9997
vn -0.9997 0.0006 -0.0226
vn -0.0227 0.0045 0.9997
vn 0.0109 -0.9991 -0.0399
vn -0.0003 -1.0000 -0.0063
s off
f 4/1/1 1/2/1 2/3/1
f 8/4/2 1/2/2 3/5/2
f 4/1/3 8/6/3 3/7/3
f 6/8/4 4/1/4 2/3/4
f 5/9/5 2/3/5 1/10/5
f 10/11/6 11/12/6 9/13/6
f 16/14/7 9/13/7 11/12/7
f 15/15/8 11/16/8 12/17/8
f 10/11/9 15/15/9 12/17/9
f 9/18/10 14/19/10 10/11/10
f 17/20/11 26/21/11 25/22/11
f 18/23/12 27/24/12 26/21/12
f 27/24/13 19/25/13 28/26/13
f 19/27/14 25/28/14 28/29/14
f 20/30/15 17/31/15 19/32/15
f 21/33/16 30/34/16 29/35/16
f 30/34/17 24/36/17 31/37/17
f 31/37/18 23/38/18 32/39/18
f 32/40/19 21/41/19 29/42/19
f 22/43/20 23/44/20 24/36/20
f 25/28/21 27/24/21 28/29/21
f 7/45/22 5/46/22 8/47/22
f 16/48/23 14/19/23 13/49/23
f 32/40/24 30/34/24 31/37/24
f 34/50/25 35/51/25 36/52/25
f 33/53/26 40/54/26 35/51/26
f 36/52/27 40/55/27 39/56/27
f 36/52/28 38/57/28 34/50/28
f 34/50/29 37/58/29 33/59/29
f 41/60/30 44/61/30 42/62/30
f 43/63/31 45/64/31 48/65/31
f 43/66/32 47/67/32 44/61/32
f 42/62/33 47/67/33 46/68/33
f 41/69/34 46/68/34 45/70/34
f 57/71/35 50/72/35 49/73/35
f 58/74/36 52/75/36 50/72/36
f 60/76/37 52/75/37 59/77/37
f 60/78/38 49/79/38 51/80/38
f 51/81/39 50/72/39 52/75/39
f 62/82/40 53/83/40 61/84/40
f 62/82/41 56/85/41 54/86/41
f 63/87/42 55/88/42 56/85/42
f 64/89/43 53/90/43 55/91/43
f 56/85/44 53/92/44 54/86/44
f 67/93/45 66/94/45 65/95/45
f 71/96/46 68/97/46 67/93/46
f 69/98/47 72/99/47 71/96/47
f 65/100/48 70/101/48 69/102/48
f 65/100/49 71/96/49 67/93/49
f 70/103/50 68/97/50 72/99/50
f 73/104/51 76/105/51 74/106/51
f 75/107/52 80/108/52 76/105/52
f 77/109/53 80/108/53 79/110/53
f 73/111/54 78/112/54 77/113/54
f 73/111/55 79/110/55 75/107/55
f 78/114/56 76/105/56 80/108/56
f 60/78/57 58/74/57 57/115/57
f 40/116/58 38/57/58 39/56/58
f 45/117/59 47/67/59 48/118/59
f 64/89/60 62/82/60 61/119/60
f 4/1/1 3/5/1 1/2/1
f 8/4/2 5/120/2 1/2/2
f 4/1/3 7/45/3 8/6/3
f 6/8/4 7/45/4 4/1/4
f 5/9/5 6/8/5 2/3/5
f 10/11/6 12/17/6 11/12/6
f 16/14/7 13/121/7 9/13/7
f 15/15/8 16/122/8 11/16/8
f 10/11/9 14/19/9 15/15/9
f 9/18/10 13/123/10 14/19/10
f 17/20/11 18/23/11 26/21/11
f 18/23/61 20/30/61 27/24/61
f 27/24/13 20/30/13 19/25/13
f 19/27/62 17/124/62 25/28/62
f 20/30/15 18/23/15 17/31/15
f 21/33/63 22/43/63 30/34/63
f 30/34/64 22/43/64 24/36/64
f 31/37/65 24/36/65 23/38/65
f 32/40/66 23/125/66 21/41/66
f 22/43/20 21/126/20 23/44/20
f 25/28/67 26/21/67 27/24/67
f 7/45/22 6/8/22 5/46/22
f 16/48/23 15/15/23 14/19/23
f 32/40/68 29/42/68 30/34/68
f 34/50/25 33/53/25 35/51/25
f 33/53/26 37/127/26 40/54/26
f 36/52/27 35/128/27 40/55/27
f 36/52/28 39/56/28 38/57/28
f 34/50/29 38/57/29 37/58/29
f 41/60/30 43/63/30 44/61/30
f 43/63/31 41/60/31 45/64/31
f 43/66/32 48/129/32 47/67/32
f 42/62/33 44/61/33 47/67/33
f 41/69/34 42/62/34 46/68/34
f 57/71/35 58/74/35 50/72/35
f 58/74/69 59/77/69 52/75/69
f 60/76/70 51/130/70 52/75/70
f 60/78/71 57/115/71 49/79/71
f 51/81/39 49/131/39 50/72/39
f 62/82/72 54/86/72 53/83/72
f 62/82/73 63/87/73 56/85/73
f 63/87/74 64/132/74 55/88/74
f 64/89/75 61/119/75 53/90/75
f 56/85/44 55/133/44 53/92/44
f 67/93/45 68/97/45 66/94/45
f 71/96/46 72/99/46 68/97/46
f 69/98/47 70/134/47 72/99/47
f 65/100/48 66/135/48 70/101/48
f 65/100/49 69/102/49 71/96/49
f 70/103/50 66/136/50 68/97/50
f 73/104/51 75/107/51 76/105/51
f 75/107/52 79/110/52 80/108/52
f 77/109/53 78/137/53 80/108/53
f 73/111/54 74/138/54 78/112/54
f 73/111/55 77/113/55 79/110/55
f 78/114/56 74/139/56 76/105/56
f 60/78/76 59/77/76 58/74/76
f 40/116/58 37/140/58 38/57/58
f 45/117/59 46/68/59 47/67/59
f 64/89/77 63/87/77 62/82/77
