# Blender v2.79 (sub 0) OBJ File: '3DObjectDecoderObjects.blend'
# www.blender.org
o Cube.005_Cube.008
v 0.658515 -0.573635 0.248464
v 0.661079 -0.580430 -0.156066
v 1.063023 -0.581534 0.251160
v 1.065587 -0.588329 -0.153370
v 0.678148 0.426033 0.231796
v 0.680711 0.419238 -0.172734
v 1.085219 0.411339 -0.170038
v 1.082656 0.418134 0.234492
v 0.081304 -1.530947 1.173294
v 0.069431 -1.623686 0.779648
v 0.485697 -1.538159 1.162796
v 0.473825 -1.630897 0.769150
v 0.092698 -0.557734 0.943671
v 0.080825 -0.650472 0.550025
v 0.485219 -0.657683 0.539527
v 0.497091 -0.564945 0.933173
v 0.699217 1.490771 0.196205
v 0.701673 1.477264 -0.208157
v 1.103725 1.482851 0.198926
v 1.106181 1.469343 -0.205436
v 0.079362 0.101404 0.027542
v 0.068791 -0.233094 -0.199828
v 0.483787 0.095473 0.017464
v 0.473216 -0.239025 -0.209906
v 0.679428 0.491520 0.229463
v 0.681885 0.478122 -0.174829
v 1.086400 0.470936 -0.171659
v 1.083928 0.483204 0.232290
v 0.092499 -0.480020 0.890456
v 0.081181 -0.775233 0.617894
v 0.485602 -0.781867 0.608034
v 0.496895 -0.486195 0.879511
v -0.698594 -0.554723 0.198705
v -0.702882 -0.577983 -0.205210
v -1.103166 -0.554147 0.202966
v -1.107453 -0.577406 -0.200949
v -0.697778 0.443624 0.141186
v -0.702065 0.420364 -0.262730
v -1.106636 0.420941 -0.258469
v -1.102349 0.444200 0.145446
v -0.079660 -1.964818 -0.675308
v -0.071117 -1.761965 -1.025271
v -0.484164 -1.961082 -0.683017
v -0.475620 -1.758228 -1.032981
v -0.081226 -1.099638 -0.173849
v -0.072682 -0.896784 -0.523812
v -0.477185 -0.893048 -0.531522
v -0.485729 -1.095901 -0.181558
v -0.695367 1.466732 0.208174
v -0.699399 1.491796 -0.195636
v -1.099940 1.467464 0.212258
v -1.103972 1.492528 -0.191552
v -0.079377 -0.106899 0.232507
v -0.071041 0.045820 -0.142066
v -0.483885 -0.103112 0.225049
v -0.475549 0.049606 -0.149523
v -0.697799 0.468652 0.146256
v -0.701842 0.492941 -0.258077
v -1.106488 0.488482 -0.257365
v -1.102366 0.472255 0.149660
v -0.081194 -1.040648 -0.144856
v -0.072750 -0.876767 -0.517125
v -0.477257 -0.873082 -0.524679
v -0.485698 -1.036741 -0.152435
v 0.630000 0.079915 0.420000
v 0.630000 1.479915 0.420000
v 0.630000 0.079915 -0.420000
v 0.630000 1.479915 -0.420000
v -0.630000 0.079915 0.420000
v -0.630000 1.479915 0.420000
v -0.630000 0.079915 -0.420000
v -0.630000 1.479915 -0.420000
v 0.300181 1.579652 0.299927
v 0.299973 2.179651 0.300657
v 0.299736 1.580381 -0.300072
v 0.299528 2.180381 -0.299342
v -0.299819 1.579443 0.300372
v -0.300027 2.179442 0.301102
v -0.300264 1.580173 -0.299627
v -0.300472 2.180172 -0.298898
vt 0.151712 0.164304
vt 0.128453 0.121671
vt 0.152804 0.123501
vt 0.067175 0.157952
vt 0.127361 0.162474
vt 0.210807 0.209629
vt 0.150620 0.205107
vt 0.212991 0.128023
vt 0.214083 0.087220
vt 0.153896 0.082698
vt 0.120318 0.196104
vt 0.141703 0.159716
vt 0.141869 0.195827
vt 0.194969 0.159030
vt 0.120152 0.159993
vt 0.066721 0.124568
vt 0.119987 0.123882
vt 0.066887 0.160679
vt 0.067218 0.232901
vt 0.120483 0.232215
vt 0.953247 0.803206
vt 0.893013 0.844041
vt 0.893013 0.803206
vt 0.953247 0.844041
vt 0.893013 0.884875
vt 0.953247 0.925710
vt 0.893013 0.925710
vt 0.808410 0.884875
vt 0.868643 0.844041
vt 0.868643 0.884875
vt 0.953247 0.884875
vt 0.977617 0.844041
vt 0.977617 0.884875
vt 0.741845 0.545283
vt 0.663028 0.598717
vt 0.663028 0.545283
vt 0.741845 0.652150
vt 0.663028 0.652150
vt 0.741845 0.705584
vt 0.663028 0.705584
vt 0.631139 0.652150
vt 0.552321 0.598717
vt 0.631139 0.598717
vt 0.741845 0.598717
vt 0.773734 0.652150
vt 0.211899 0.168826
vt 0.237342 0.129853
vt 0.236250 0.170656
vt 0.045336 0.160957
vt 0.067052 0.196790
vt 0.045501 0.197068
vt 0.113861 0.154921
vt 0.095990 0.121280
vt 0.114964 0.123128
vt 0.094887 0.153073
vt 0.049093 0.116713
vt 0.162963 0.095902
vt 0.161861 0.127695
vt 0.160758 0.159488
vt 0.159655 0.191281
vt 0.112759 0.186714
vt 0.135087 0.158002
vt 0.152601 0.189330
vt 0.134495 0.188340
vt 0.197943 0.161440
vt 0.197352 0.191779
vt 0.133904 0.218678
vt 0.089745 0.185892
vt 0.090336 0.155553
vt 0.135678 0.127663
vt 0.090927 0.125215
vt 0.893013 0.809899
vt 0.820174 0.859280
vt 0.820174 0.809899
vt 0.893013 0.859280
vt 0.820174 0.908661
vt 0.893013 0.958041
vt 0.893013 0.908661
vt 0.922484 0.908660
vt 0.995323 0.859280
vt 0.995323 0.908660
vt 0.790703 0.908661
vt 0.668850 0.601598
vt 0.627314 0.573439
vt 0.668850 0.573439
vt 0.627314 0.629757
vt 0.627314 0.601598
vt 0.668850 0.629757
vt 0.627314 0.657916
vt 0.685655 0.629757
vt 0.727191 0.601598
vt 0.727191 0.629757
vt 0.610509 0.601598
vt 0.114767 0.168293
vt 0.095916 0.220936
vt 0.095916 0.168293
vt 0.143042 0.168293
vt 0.114767 0.220936
vt 0.161893 0.168293
vt 0.143042 0.220936
vt 0.114767 0.136707
vt 0.143042 0.084063
vt 0.143042 0.136707
vt 0.143042 0.252523
vt 0.705410 0.612195
vt 0.679363 0.568551
vt 0.705410 0.568551
vt 0.679363 0.612195
vt 0.653316 0.568551
vt 0.627270 0.612195
vt 0.653316 0.612195
vt 0.679363 0.655839
vt 0.653316 0.699483
vt 0.653316 0.655839
vt 0.653316 0.524907
vt 0.922484 0.859280
vt 0.180835 0.129543
vt 0.072230 0.154563
vt 0.071639 0.184901
vt 0.685655 0.601598
vt 0.068267 0.117149
vt 0.195135 0.195141
vt 0.808410 0.844041
vt 0.552321 0.652150
vt 0.773734 0.598717
vt 0.047991 0.148506
vt 0.116067 0.091335
vt 0.153193 0.158992
vt 0.089154 0.216230
vt 0.820174 0.958041
vt 0.790703 0.859280
vt 0.668850 0.657916
vt 0.610509 0.629757
vt 0.161893 0.220936
vt 0.114767 0.084063
vt 0.114767 0.252523
vt 0.627270 0.568551
vt 0.679363 0.699483
vt 0.679363 0.524907
vt 0.179732 0.161336
vn -0.0196 -0.9997 0.0167
vn -0.0063 0.0168 0.9998
vn 0.9998 -0.0195 0.0067
vn 0.0063 -0.0168 -0.9998
vn -0.9998 0.0195 -0.0067
vn -0.0114 -0.9732 0.2296
vn 0.0293 0.2292 0.9729
vn 0.9995 -0.0178 -0.0259
vn -0.0293 -0.2292 -0.9729
vn -0.9995 0.0178 0.0259
vn -0.9998 0.0196 -0.0067
vn 0.0072 -0.0335 -0.9994
vn 0.9998 -0.0196 0.0067
vn -0.0063 0.0335 0.9994
vn 0.0198 0.9993 -0.0333
vn -0.9996 0.0150 0.0253
vn -0.0271 -0.8331 -0.5525
vn 0.9996 -0.0150 -0.0253
vn 0.0278 0.8292 0.5583
vn -0.0124 0.5624 -0.8268
vn -0.0208 -0.9993 0.0302
vn 0.0196 0.9997 -0.0167
vn 0.0114 0.9732 -0.2296
vn 0.0069 -0.6765 0.7365
vn -0.0008 -0.9983 0.0575
vn 0.0106 0.0575 0.9983
vn -0.9999 0.0014 0.0105
vn -0.0106 -0.0575 -0.9983
vn 0.9999 -0.0014 -0.0105
vn 0.0016 -0.8652 -0.5015
vn -0.0211 -0.5014 0.8650
vn -0.9998 0.0092 -0.0191
vn 0.0211 0.5014 -0.8650
vn 0.9998 -0.0092 0.0191
vn 0.9999 -0.0018 -0.0101
vn -0.0100 0.0624 -0.9980
vn -0.9999 0.0018 0.0102
vn 0.0100 -0.0628 0.9980
vn 0.0024 0.9981 0.0619
vn 0.9998 -0.0094 0.0185
vn 0.0206 0.3765 -0.9262
vn -0.9998 0.0093 -0.0184
vn -0.0206 -0.3747 0.9269
vn 0.0017 0.9260 0.3776
vn 1.0000 0.0000 0.0000
vn 0.0000 0.0000 -1.0000
vn -1.0000 0.0000 0.0000
vn 0.0000 0.0000 1.0000
vn 0.0000 -1.0000 0.0000
vn 0.0000 1.0000 0.0000
vn 1.0000 0.0003 -0.0007
vn -0.0007 0.0012 -1.0000
vn -1.0000 -0.0003 0.0007
vn 0.0007 -0.0012 1.0000
vn 0.0003 -1.0000 -0.0012
vn -0.0003 1.0000 0.0012
vn -0.0094 -0.9982 -0.0599
vn 0.0008 0.9983 -0.0575
vn -0.0016 0.8652 0.5015
vn -0.0013 -0.9152 -0.4029
vn 0.0061 -0.0339 -0.9994
vn -0.0061 0.0334 0.9994
vn -0.9996 0.0147 0.0249
vn -0.0260 -0.8334 -0.5521
vn 0.9996 -0.0147 -0.0249
vn 0.0261 0.8288 0.5589
vn -0.0180 -0.9993 0.0330
vn 0.0095 -0.6785 0.7345
vn -0.0025 0.0654 -0.9979
vn -0.9999 0.0018 0.0101
vn 0.0078 -0.0619 0.9980
vn 0.9998 -0.0093 0.0184
vn 0.0207 0.3765 -0.9262
vn -0.9998 0.0094 -0.0185
vn -0.0210 -0.3746 0.9270
vn 0.0109 -0.9991 -0.0399
vn -0.0008 -0.9154 -0.4025
s off
f 4/1/1 1/2/1 2/3/1
f 8/4/2 1/2/2 3/5/2
f 4/1/3 8/6/3 3/7/3
f 6/8/4 4/1/4 2/3/4
f 5/9/5 2/3/5 1/10/5
f 10/11/6 11/12/6 9/13/6
f 16/14/7 9/13/7 11/12/7
f 12/15/8 16/16/8 11/17/8
f 10/11/9 15/18/9 12/15/9
f 13/19/10 10/11/10 9/20/10
f 17/21/11 26/22/11 25/23/11
f 18/24/12 27/25/12 26/22/12
f 27/25/13 19/26/13 28/27/13
f 19/28/14 25/29/14 28/30/14
f 20/31/15 17/32/15 19/33/15
f 21/34/16 30/35/16 29/36/16
f 30/35/17 24/37/17 31/38/17
f 31/38/18 23/39/18 32/40/18
f 32/41/19 21/42/19 29/43/19
f 22/44/20 23/45/20 24/37/20
f 25/29/21 27/25/21 28/30/21
f 7/46/22 5/47/22 8/48/22
f 16/49/23 14/50/23 13/51/23
f 32/41/24 30/35/24 31/38/24
f 34/52/25 35/53/25 36/54/25
f 33/55/26 40/56/26 35/53/26
f 36/54/27 40/57/27 39/58/27
f 36/54/28 38/59/28 34/52/28
f 34/52/29 37/60/29 33/61/29
f 42/62/30 43/63/30 44/64/30
f 43/63/31 45/65/31 48/66/31
f 43/67/32 47/68/32 44/64/32
f 44/64/33 46/69/33 42/62/33
f 41/70/34 46/69/34 45/71/34
f 57/72/35 50/73/35 49/74/35
f 58/75/36 52/76/36 50/73/36
f 60/77/37 52/76/37 59/78/37
f 60/79/38 49/80/38 51/81/38
f 51/82/39 50/73/39 52/76/39
f 62/83/40 53/84/40 61/85/40
f 62/83/41 56/86/41 54/87/41
f 63/88/42 55/89/42 56/86/42
f 64/90/43 53/91/43 55/92/43
f 56/86/44 53/93/44 54/87/44
f 67/94/45 66/95/45 65/96/45
f 71/97/46 68/98/46 67/94/46
f 69/99/47 72/100/47 71/97/47
f 65/101/48 70/102/48 69/103/48
f 65/101/49 71/97/49 67/94/49
f 70/104/50 68/98/50 72/100/50
f 73/105/51 76/106/51 74/107/51
f 75/108/52 80/109/52 76/106/52
f 77/110/53 80/109/53 79/111/53
f 73/112/54 78/113/54 77/114/54
f 73/112/55 79/111/55 75/108/55
f 78/115/56 76/106/56 80/109/56
f 60/79/57 58/75/57 57/116/57
f 40/117/58 38/59/58 39/58/58
f 45/118/59 47/68/59 48/119/59
f 64/90/60 62/83/60 61/120/60
f 4/1/1 3/5/1 1/2/1
f 8/4/2 5/121/2 1/2/2
f 4/1/3 7/46/3 8/6/3
f 6/8/4 7/46/4 4/1/4
f 5/9/5 6/8/5 2/3/5
f 10/11/6 12/15/6 11/12/6
f 16/14/7 13/122/7 9/13/7
f 12/15/8 15/18/8 16/16/8
f 10/11/9 14/50/9 15/18/9
f 13/19/10 14/50/10 10/11/10
f 17/21/11 18/24/11 26/22/11
f 18/24/61 20/31/61 27/25/61
f 27/25/13 20/31/13 19/26/13
f 19/28/62 17/123/62 25/29/62
f 20/31/15 18/24/15 17/32/15
f 21/34/63 22/44/63 30/35/63
f 30/35/64 22/44/64 24/37/64
f 31/38/65 24/37/65 23/39/65
f 32/41/66 23/124/66 21/42/66
f 22/44/20 21/125/20 23/45/20
f 25/29/67 26/22/67 27/25/67
f 7/46/22 6/8/22 5/47/22
f 16/49/23 15/18/23 14/50/23
f 32/41/68 29/43/68 30/35/68
f 34/52/25 33/55/25 35/53/25
f 33/55/26 37/126/26 40/56/26
f 36/54/27 35/127/27 40/57/27
f 36/54/28 39/58/28 38/59/28
f 34/52/29 38/59/29 37/60/29
f 42/62/30 41/128/30 43/63/30
f 43/63/31 41/128/31 45/65/31
f 43/67/32 48/129/32 47/68/32
f 44/64/33 47/68/33 46/69/33
f 41/70/34 42/62/34 46/69/34
f 57/72/35 58/75/35 50/73/35
f 58/75/69 59/78/69 52/76/69
f 60/77/70 51/130/70 52/76/70
f 60/79/71 57/116/71 49/80/71
f 51/82/39 49/131/39 50/73/39
f 62/83/72 54/87/72 53/84/72
f 62/83/73 63/88/73 56/86/73
f 63/88/74 64/132/74 55/89/74
f 64/90/75 61/120/75 53/91/75
f 56/86/44 55/133/44 53/93/44
f 67/94/45 68/98/45 66/95/45
f 71/97/46 72/100/46 68/98/46
f 69/99/47 70/134/47 72/100/47
f 65/101/48 66/135/48 70/102/48
f 65/101/49 69/103/49 71/97/49
f 70/104/50 66/136/50 68/98/50
f 73/105/51 75/108/51 76/106/51
f 75/108/52 79/111/52 80/109/52
f 77/110/53 78/137/53 80/109/53
f 73/112/54 74/138/54 78/113/54
f 73/112/55 77/114/55 79/111/55
f 78/115/56 74/139/56 76/106/56
f 60/79/76 59/78/76 58/75/76
f 40/117/58 37/140/58 38/59/58
f 45/118/59 46/69/59 47/68/59
f 64/90/77 63/88/77 62/83/77
