# Blender v2.79 (sub 0) OBJ File: '3DObjectDecoderObjects.blend'
# www.blender.org
o Cube.005_Cube.008
v 0.658515 -0.573635 0.248464
v 0.661079 -0.580430 -0.156066
v 1.063023 -0.581534 0.251160
v 1.065587 -0.588329 -0.153370
v 0.678148 0.426033 0.231796
v 0.680711 0.419238 -0.172734
v 1.085219 0.411339 -0.170038
v 1.082656 0.418134 0.234492
v 0.078718 -2.027021 -0.491287
v 0.072048 -1.883874 -0.869656
v 0.483257 -2.024682 -0.497535
v 0.476587 -1.881536 -0.875903
v 0.078775 -1.091719 -0.137435
v 0.072105 -0.948573 -0.515804
v 0.476644 -0.946234 -0.522052
v 0.483315 -1.089381 -0.143683
v 0.699217 1.490771 0.196205
v 0.701673 1.477264 -0.208157
v 1.103725 1.482851 0.198926
v 1.106181 1.469343 -0.205436
v 0.078705 -0.098931 0.230992
v 0.072044 0.041807 -0.148279
v 0.483244 -0.096590 0.224756
v 0.476583 0.044149 -0.154515
v 0.679428 0.491520 0.229463
v 0.681885 0.478122 -0.174829
v 1.086400 0.470936 -0.171659
v 1.083928 0.483204 0.232290
v 0.078774 -1.036819 -0.116862
v 0.072109 -0.895558 -0.496078
v 0.476648 -0.893221 -0.502318
v 0.483313 -1.034472 -0.123105
v -0.698594 -0.554723 0.198705
v -0.702882 -0.577983 -0.205210
v -1.103166 -0.554147 0.202966
v -1.107453 -0.577406 -0.200949
v -0.697778 0.443624 0.141186
v -0.702065 0.420364 -0.262730
v -1.106636 0.420941 -0.258469
v -1.102349 0.444200 0.145446
v -0.083225 -1.431705 1.074636
v -0.067547 -1.457890 0.671194
v -0.487416 -1.441659 1.059575
v -0.471738 -1.467843 0.656132
v -0.105347 -0.434105 1.009028
v -0.089669 -0.460289 0.605586
v -0.493861 -0.470243 0.590525
v -0.509539 -0.444059 0.993967
v -0.695367 1.466732 0.208174
v -0.699399 1.491796 -0.195636
v -1.099940 1.467464 0.212258
v -1.103972 1.492528 -0.191552
v -0.079640 0.103144 -0.007420
v -0.066138 -0.263467 -0.178040
v -0.483893 0.094988 -0.021887
v -0.470391 -0.271623 -0.192507
v -0.697799 0.468652 0.146256
v -0.701842 0.492941 -0.258077
v -1.106488 0.488482 -0.257365
v -1.102366 0.472255 0.149660
v -0.105013 -0.346302 0.949307
v -0.090130 -0.657523 0.715322
v -0.494374 -0.666669 0.701159
v -0.509210 -0.354798 0.933622
v 0.630000 0.079915 0.420000
v 0.630000 1.479915 0.420000
v 0.630000 0.079915 -0.420000
v 0.630000 1.479915 -0.420000
v -0.630000 0.079915 0.420000
v -0.630000 1.479915 0.420000
v -0.630000 0.079915 -0.420000
v -0.630000 1.479915 -0.420000
v 0.300181 1.579652 0.299927
v 0.299973 2.179651 0.300657
v 0.299736 1.580381 -0.300072
v 0.299528 2.180381 -0.299342
v -0.299819 1.579443 0.300372
v -0.300027 2.179442 0.301102
v -0.300264 1.580173 -0.299627
v -0.300472 2.180172 -0.298898
vt 0.151712 0.164304
vt 0.128453 0.121671
vt 0.152804 0.123501
vt 0.067175 0.157952
vt 0.127361 0.162474
vt 0.210807 0.209629
vt 0.150620 0.205107
vt 0.212991 0.128023
vt 0.214083 0.087220
vt 0.153896 0.082698
vt 0.120318 0.196104
vt 0.141703 0.159716
vt 0.141869 0.195827
vt 0.194969 0.159030
vt 0.066887 0.160679
vt 0.119987 0.123882
vt 0.120152 0.159993
vt 0.120483 0.232215
vt 0.067052 0.196790
vt 0.953247 0.803206
vt 0.893013 0.844041
vt 0.893013 0.803206
vt 0.953247 0.844041
vt 0.893013 0.884875
vt 0.953247 0.925710
vt 0.893013 0.925710
vt 0.808410 0.884875
vt 0.868643 0.844041
vt 0.868643 0.884875
vt 0.953247 0.884875
vt 0.977617 0.844041
vt 0.977617 0.884875
vt 0.741845 0.545283
vt 0.663028 0.598717
vt 0.663028 0.545283
vt 0.741845 0.652150
vt 0.663028 0.652150
vt 0.741845 0.705584
vt 0.663028 0.705584
vt 0.631139 0.652150
vt 0.552321 0.598717
vt 0.631139 0.598717
vt 0.741845 0.598717
vt 0.773734 0.652150
vt 0.211899 0.168826
vt 0.237342 0.129853
vt 0.236250 0.170656
vt 0.045336 0.160957
vt 0.045501 0.197068
vt 0.113861 0.154921
vt 0.095990 0.121280
vt 0.114964 0.123128
vt 0.094887 0.153073
vt 0.049093 0.116713
vt 0.162963 0.095902
vt 0.161861 0.127695
vt 0.160758 0.159488
vt 0.159655 0.191281
vt 0.112759 0.186714
vt 0.153193 0.158992
vt 0.134495 0.188340
vt 0.135087 0.158002
vt 0.197352 0.191779
vt 0.152601 0.189330
vt 0.089154 0.216230
vt 0.089745 0.185892
vt 0.090336 0.155553
vt 0.090927 0.125215
vt 0.135678 0.127663
vt 0.893013 0.809899
vt 0.820174 0.859280
vt 0.820174 0.809899
vt 0.893013 0.859280
vt 0.820174 0.908661
vt 0.893013 0.958041
vt 0.893013 0.908661
vt 0.922484 0.908660
vt 0.995323 0.859280
vt 0.995323 0.908660
vt 0.790703 0.908661
vt 0.668850 0.601598
vt 0.627314 0.573439
vt 0.668850 0.573439
vt 0.627314 0.629757
vt 0.627314 0.601598
vt 0.668850 0.629757
vt 0.627314 0.657916
vt 0.685655 0.629757
vt 0.727191 0.601598
vt 0.727191 0.629757
vt 0.610509 0.629757
vt 0.114767 0.168293
vt 0.095916 0.220936
vt 0.095916 0.168293
vt 0.143042 0.168293
vt 0.114767 0.220936
vt 0.161893 0.168293
vt 0.143042 0.220936
vt 0.114767 0.136707
vt 0.143042 0.084063
vt 0.143042 0.136707
vt 0.143042 0.252523
vt 0.705410 0.612195
vt 0.679363 0.568551
vt 0.705410 0.568551
vt 0.679363 0.612195
vt 0.653316 0.568551
vt 0.627270 0.612195
vt 0.653316 0.612195
vt 0.679363 0.655839
vt 0.653316 0.699483
vt 0.653316 0.655839
vt 0.653316 0.524907
vt 0.922484 0.859280
vt 0.180835 0.129543
vt 0.071639 0.184901
vt 0.685655 0.601598
vt 0.068267 0.117149
vt 0.195135 0.195141
vt 0.066721 0.124568
vt 0.067218 0.232901
vt 0.808410 0.844041
vt 0.552321 0.652150
vt 0.773734 0.598717
vt 0.047991 0.148506
vt 0.116067 0.091335
vt 0.197943 0.161440
vt 0.133904 0.218678
vt 0.820174 0.958041
vt 0.790703 0.859280
vt 0.668850 0.657916
vt 0.610509 0.601598
vt 0.161893 0.220936
vt 0.114767 0.084063
vt 0.114767 0.252523
vt 0.627270 0.568551
vt 0.679363 0.699483
vt 0.679363 0.524907
vt 0.179732 0.161336
vt 0.072230 0.154563
vn -0.0196 -0.9997 0.0167
vn -0.0063 0.0168 0.9998
vn 0.9998 -0.0195 0.0067
vn 0.0063 -0.0168 -0.9998
vn -0.9998 0.0195 -0.0067
vn -0.0001 -0.9353 -0.3538
vn 0.0165 -0.3538 0.9352
vn 0.9999 0.0058 -0.0154
vn -0.0165 0.3538 -0.9352
vn -0.9999 -0.0058 0.0154
vn -0.9998 0.0196 -0.0067
vn 0.0072 -0.0335 -0.9994
vn 0.9998 -0.0196 0.0067
vn -0.0063 0.0335 0.9994
vn 0.0198 0.9993 -0.0333
vn -0.0165 0.3478 -0.9374
vn 0.0165 -0.3477 0.9375
vn -0.0001 0.9375 0.3479
vn -0.0208 -0.9993 0.0302
vn 0.0196 0.9997 -0.0167
vn 0.0001 0.9353 0.3538
vn 0.0000 -0.9371 -0.3491
vn -0.0008 -0.9983 0.0575
vn 0.0106 0.0575 0.9983
vn -0.9999 0.0014 0.0105
vn -0.0106 -0.0575 -0.9983
vn 0.9999 -0.0014 -0.0105
vn 0.0221 -0.9976 0.0656
vn -0.0387 0.0647 0.9972
vn -0.9990 -0.0246 -0.0372
vn 0.0388 -0.0647 -0.9972
vn 0.9990 0.0246 0.0372
vn 0.9999 -0.0018 -0.0101
vn -0.0100 0.0624 -0.9980
vn -0.9999 0.0018 0.0102
vn 0.0100 -0.0628 0.9980
vn 0.0024 0.9981 0.0619
vn 0.9991 0.0206 0.0362
vn 0.0329 -0.9148 -0.4026
vn -0.9992 -0.0202 -0.0357
vn -0.0335 0.9046 0.4249
vn 0.0239 0.4225 -0.9060
vn 1.0000 0.0000 0.0000
vn 0.0000 0.0000 -1.0000
vn -1.0000 0.0000 0.0000
vn 0.0000 0.0000 1.0000
vn 0.0000 -1.0000 0.0000
vn 0.0000 1.0000 0.0000
vn 1.0000 0.0003 -0.0007
vn -0.0007 0.0012 -1.0000
vn -1.0000 -0.0003 0.0007
vn 0.0007 -0.0012 1.0000
vn 0.0003 -1.0000 -0.0012
vn -0.0003 1.0000 0.0012
vn -0.0094 -0.9982 -0.0599
vn 0.0008 0.9983 -0.0575
vn -0.0221 0.9976 -0.0656
vn -0.0184 -0.6014 0.7987
vn 0.0061 -0.0339 -0.9994
vn -0.0061 0.0334 0.9994
vn -0.0180 -0.9993 0.0330
vn 0.0001 -0.9371 -0.3491
vn 0.0387 -0.0647 -0.9972
vn -0.0025 0.0654 -0.9979
vn -0.9999 0.0018 0.0101
vn 0.0078 -0.0619 0.9980
vn 0.9992 0.0202 0.0357
vn 0.0348 -0.9144 -0.4033
vn -0.9991 -0.0206 -0.0362
vn -0.0355 0.9049 0.4242
vn 0.0109 -0.9991 -0.0399
vn -0.0145 -0.5980 0.8014
s off
f 4/1/1 1/2/1 2/3/1
f 8/4/2 1/2/2 3/5/2
f 4/1/3 8/6/3 3/7/3
f 6/8/4 4/1/4 2/3/4
f 5/9/5 2/3/5 1/10/5
f 10/11/6 11/12/6 9/13/6
f 16/14/7 9/13/7 11/12/7
f 15/15/8 11/16/8 12/17/8
f 10/11/9 15/15/9 12/17/9
f 9/18/10 14/19/10 10/11/10
f 17/20/11 26/21/11 25/22/11
f 18/23/12 27/24/12 26/21/12
f 27/24/13 19/25/13 28/26/13
f 19/27/14 25/28/14 28/29/14
f 20/30/15 17/31/15 19/32/15
f 21/33/10 30/34/10 29/35/10
f 30/34/16 24/36/16 31/37/16
f 31/37/8 23/38/8 32/39/8
f 32/40/17 21/41/17 29/42/17
f 22/43/18 23/44/18 24/36/18
f 25/28/19 27/24/19 28/29/19
f 7/45/20 5/46/20 8/47/20
f 16/48/21 14/19/21 13/49/21
f 32/40/22 30/34/22 31/37/22
f 34/50/23 35/51/23 36/52/23
f 33/53/24 40/54/24 35/51/24
f 36/52/25 40/55/25 39/56/25
f 36/52/26 38/57/26 34/50/26
f 34/50/27 37/58/27 33/59/27
f 41/60/28 44/61/28 42/62/28
f 41/60/29 48/63/29 43/64/29
f 44/61/30 48/65/30 47/66/30
f 44/61/31 46/67/31 42/62/31
f 42/62/32 45/68/32 41/69/32
f 57/70/33 50/71/33 49/72/33
f 58/73/34 52/74/34 50/71/34
f 60/75/35 52/74/35 59/76/35
f 60/77/36 49/78/36 51/79/36
f 51/80/37 50/71/37 52/74/37
f 62/81/38 53/82/38 61/83/38
f 62/81/39 56/84/39 54/85/39
f 63/86/40 55/87/40 56/84/40
f 64/88/41 53/89/41 55/90/41
f 55/91/42 54/85/42 56/84/42
f 67/92/43 66/93/43 65/94/43
f 71/95/44 68/96/44 67/92/44
f 69/97/45 72/98/45 71/95/45
f 65/99/46 70/100/46 69/101/46
f 65/99/47 71/95/47 67/92/47
f 70/102/48 68/96/48 72/98/48
f 73/103/49 76/104/49 74/105/49
f 75/106/50 80/107/50 76/104/50
f 77/108/51 80/107/51 79/109/51
f 73/110/52 78/111/52 77/112/52
f 73/110/53 79/109/53 75/106/53
f 78/113/54 76/104/54 80/107/54
f 60/77/55 58/73/55 57/114/55
f 40/115/56 38/57/56 39/56/56
f 48/116/57 46/67/57 47/66/57
f 64/88/58 62/81/58 61/117/58
f 4/1/1 3/5/1 1/2/1
f 8/4/2 5/118/2 1/2/2
f 4/1/3 7/45/3 8/6/3
f 6/8/4 7/45/4 4/1/4
f 5/9/5 6/8/5 2/3/5
f 10/11/6 12/17/6 11/12/6
f 16/14/7 13/119/7 9/13/7
f 15/15/8 16/120/8 11/16/8
f 10/11/9 14/19/9 15/15/9
f 9/18/10 13/121/10 14/19/10
f 17/20/11 18/23/11 26/21/11
f 18/23/59 20/30/59 27/24/59
f 27/24/13 20/30/13 19/25/13
f 19/27/60 17/122/60 25/28/60
f 20/30/15 18/23/15 17/31/15
f 21/33/10 22/43/10 30/34/10
f 30/34/16 22/43/16 24/36/16
f 31/37/8 24/36/8 23/38/8
f 32/40/17 23/123/17 21/41/17
f 22/43/18 21/124/18 23/44/18
f 25/28/61 26/21/61 27/24/61
f 7/45/20 6/8/20 5/46/20
f 16/48/21 15/15/21 14/19/21
f 32/40/62 29/42/62 30/34/62
f 34/50/23 33/53/23 35/51/23
f 33/53/24 37/125/24 40/54/24
f 36/52/25 35/126/25 40/55/25
f 36/52/26 39/56/26 38/57/26
f 34/50/27 38/57/27 37/58/27
f 41/60/28 43/64/28 44/61/28
f 41/60/29 45/127/29 48/63/29
f 44/61/30 43/128/30 48/65/30
f 44/61/63 47/66/63 46/67/63
f 42/62/32 46/67/32 45/68/32
f 57/70/33 58/73/33 50/71/33
f 58/73/64 59/76/64 52/74/64
f 60/75/65 51/129/65 52/74/65
f 60/77/66 57/114/66 49/78/66
f 51/80/37 49/130/37 50/71/37
f 62/81/67 54/85/67 53/82/67
f 62/81/68 63/86/68 56/84/68
f 63/86/69 64/131/69 55/87/69
f 64/88/70 61/117/70 53/89/70
f 55/91/42 53/132/42 54/85/42
f 67/92/43 68/96/43 66/93/43
f 71/95/44 72/98/44 68/96/44
f 69/97/45 70/133/45 72/98/45
f 65/99/46 66/134/46 70/100/46
f 65/99/47 69/101/47 71/95/47
f 70/102/48 66/135/48 68/96/48
f 73/103/49 75/106/49 76/104/49
f 75/106/50 79/109/50 80/107/50
f 77/108/51 78/136/51 80/107/51
f 73/110/52 74/137/52 78/111/52
f 73/110/53 77/112/53 79/109/53
f 78/113/54 74/138/54 76/104/54
f 60/77/71 59/76/71 58/73/71
f 40/115/56 37/139/56 38/57/56
f 48/116/57 45/140/57 46/67/57
f 64/88/72 63/86/72 62/81/72
