# Blender v2.79 (sub 0) OBJ File: '3DObjectDecoderObjects.blend'
# www.blender.org
o Cube.005_Cube.008
v 0.658515 -0.573635 0.248464
v 0.661079 -0.580430 -0.156066
v 1.063023 -0.581534 0.251160
v 1.065587 -0.588329 -0.153370
v 0.678148 0.426033 0.231796
v 0.680711 0.419238 -0.172734
v 1.085219 0.411339 -0.170038
v 1.082656 0.418134 0.234492
v 0.080735 -1.720216 1.129177
v 0.070020 -1.950444 0.796643
v 0.485186 -1.725406 1.119738
v 0.474471 -1.955634 0.787204
v 0.078001 -0.897999 0.560012
v 0.067287 -1.128227 0.227479
v 0.471737 -1.133416 0.218039
v 0.482452 -0.903188 0.550573
v 0.699217 1.490771 0.196205
v 0.701673 1.477264 -0.208157
v 1.103725 1.482851 0.198926
v 1.106181 1.469343 -0.205436
v 0.081257 0.053844 0.145950
v 0.070267 -0.107940 -0.224730
v 0.485700 0.048325 0.136367
v 0.474710 -0.113460 -0.234313
v 0.679428 0.491520 0.229463
v 0.681885 0.478122 -0.174829
v 1.086400 0.470936 -0.171659
v 1.083928 0.483204 0.232290
v 0.078045 -0.856661 0.536906
v 0.067229 -1.030023 0.177256
v 0.471673 -1.035350 0.167633
v 0.482496 -0.862137 0.527559
v -0.698594 -0.554723 0.198705
v -0.702882 -0.577983 -0.205210
v -1.103166 -0.554147 0.202966
v -1.107453 -0.577406 -0.200949
v -0.697778 0.443624 0.141186
v -0.702065 0.420364 -0.262730
v -1.106636 0.420941 -0.258469
v -1.102349 0.444200 0.145446
v -0.079603 -1.703477 -0.859112
v -0.071071 -1.361027 -1.074406
v -0.484089 -1.698264 -0.866849
v -0.475558 -1.355814 -1.082144
v -0.088933 -1.171091 -0.012661
v -0.080401 -0.828640 -0.227956
v -0.484888 -0.823427 -0.235693
v -0.493420 -1.165878 -0.020398
v -0.695367 1.466732 0.208174
v -0.699399 1.491796 -0.195636
v -1.099940 1.467464 0.212258
v -1.103972 1.492528 -0.191552
v -0.077801 -0.060040 0.221413
v -0.070738 0.010405 -0.176940
v -0.482313 -0.054738 0.215179
v -0.475250 0.015706 -0.183174
v -0.697799 0.468652 0.146256
v -0.701842 0.492941 -0.258077
v -1.106488 0.488482 -0.257365
v -1.102366 0.472255 0.149660
v -0.088713 -1.090045 0.042145
v -0.080956 -0.956511 -0.333920
v -0.485465 -0.951724 -0.340795
v -0.493200 -1.083943 0.035301
v 0.630000 0.079915 0.420000
v 0.630000 1.479915 0.420000
v 0.630000 0.079915 -0.420000
v 0.630000 1.479915 -0.420000
v -0.630000 0.079915 0.420000
v -0.630000 1.479915 0.420000
v -0.630000 0.079915 -0.420000
v -0.630000 1.479915 -0.420000
v 0.300181 1.579652 0.299927
v 0.299973 2.179651 0.300657
v 0.299736 1.580381 -0.300072
v 0.299528 2.180381 -0.299342
v -0.299819 1.579443 0.300372
v -0.300027 2.179442 0.301102
v -0.300264 1.580173 -0.299627
v -0.300472 2.180172 -0.298898
vt 0.151712 0.164304
vt 0.128453 0.121671
vt 0.152804 0.123501
vt 0.067175 0.157952
vt 0.127361 0.162474
vt 0.210807 0.209629
vt 0.150620 0.205107
vt 0.212991 0.128023
vt 0.214083 0.087220
vt 0.153896 0.082698
vt 0.120318 0.196104
vt 0.141703 0.159716
vt 0.141869 0.195827
vt 0.194969 0.159030
vt 0.066887 0.160679
vt 0.119987 0.123882
vt 0.120152 0.159993
vt 0.067052 0.196790
vt 0.120483 0.232215
vt 0.953247 0.803206
vt 0.893013 0.844041
vt 0.893013 0.803206
vt 0.953247 0.844041
vt 0.893013 0.884875
vt 0.953247 0.925710
vt 0.893013 0.925710
vt 0.808410 0.884875
vt 0.868643 0.844041
vt 0.868643 0.884875
vt 0.953247 0.884875
vt 0.977617 0.844041
vt 0.977617 0.884875
vt 0.663028 0.545283
vt 0.741845 0.598717
vt 0.663028 0.598717
vt 0.663028 0.652150
vt 0.741845 0.652150
vt 0.663028 0.705584
vt 0.552321 0.652150
vt 0.631139 0.598717
vt 0.631139 0.652150
vt 0.773734 0.652150
vt 0.211899 0.168826
vt 0.237342 0.129853
vt 0.236250 0.170656
vt 0.045336 0.160957
vt 0.045501 0.197068
vt 0.113861 0.154921
vt 0.095990 0.121280
vt 0.114964 0.123128
vt 0.094887 0.153073
vt 0.049093 0.116713
vt 0.162963 0.095902
vt 0.161861 0.127695
vt 0.160758 0.159488
vt 0.159655 0.191281
vt 0.112759 0.186714
vt 0.153193 0.158992
vt 0.134495 0.188340
vt 0.135087 0.158002
vt 0.197352 0.191779
vt 0.152601 0.189330
vt 0.089154 0.216230
vt 0.089745 0.185892
vt 0.090336 0.155553
vt 0.090927 0.125215
vt 0.135678 0.127663
vt 0.893013 0.809899
vt 0.820174 0.859280
vt 0.820174 0.809899
vt 0.893013 0.859280
vt 0.820174 0.908661
vt 0.893013 0.958041
vt 0.893013 0.908661
vt 0.922484 0.908660
vt 0.995323 0.859280
vt 0.995323 0.908660
vt 0.790703 0.908661
vt 0.668850 0.601598
vt 0.627314 0.573439
vt 0.668850 0.573439
vt 0.627314 0.629757
vt 0.627314 0.601598
vt 0.668850 0.629757
vt 0.627314 0.657916
vt 0.685655 0.629757
vt 0.727191 0.601598
vt 0.727191 0.629757
vt 0.610509 0.629757
vt 0.114767 0.168293
vt 0.095916 0.220936
vt 0.095916 0.168293
vt 0.143042 0.168293
vt 0.114767 0.220936
vt 0.161893 0.168293
vt 0.143042 0.220936
vt 0.114767 0.136707
vt 0.143042 0.084063
vt 0.143042 0.136707
vt 0.143042 0.252523
vt 0.705410 0.612195
vt 0.679363 0.568551
vt 0.705410 0.568551
vt 0.679363 0.612195
vt 0.653316 0.568551
vt 0.627270 0.612195
vt 0.653316 0.612195
vt 0.679363 0.655839
vt 0.653316 0.699483
vt 0.653316 0.655839
vt 0.653316 0.524907
vt 0.922484 0.859280
vt 0.180835 0.129543
vt 0.072230 0.154563
vt 0.071639 0.184901
vt 0.685655 0.601598
vt 0.068267 0.117149
vt 0.195135 0.195141
vt 0.066721 0.124568
vt 0.067218 0.232901
vt 0.808410 0.844041
vt 0.741845 0.545283
vt 0.741845 0.705584
vt 0.552321 0.598717
vt 0.773734 0.598717
vt 0.047991 0.148506
vt 0.116067 0.091335
vt 0.197943 0.161440
vt 0.133904 0.218678
vt 0.820174 0.958041
vt 0.790703 0.859280
vt 0.668850 0.657916
vt 0.610509 0.601598
vt 0.161893 0.220936
vt 0.114767 0.084063
vt 0.114767 0.252523
vt 0.627270 0.568551
vt 0.679363 0.699483
vt 0.679363 0.524907
vt 0.179732 0.161336
vn -0.0196 -0.9997 0.0167
vn -0.0063 0.0168 0.9998
vn 0.9998 -0.0195 0.0067
vn 0.0063 -0.0168 -0.9998
vn -0.9998 0.0195 -0.0067
vn 0.0027 -0.8222 0.5692
vn 0.0265 0.5690 0.8219
vn 0.9996 -0.0128 -0.0233
vn -0.0265 -0.5690 -0.8219
vn -0.9996 0.0128 0.0233
vn -0.9998 0.0196 -0.0067
vn 0.0072 -0.0335 -0.9994
vn 0.9998 -0.0196 0.0067
vn -0.0063 0.0335 0.9994
vn 0.0198 0.9993 -0.0333
vn -0.9996 0.0136 0.0235
vn -0.0271 -0.3994 -0.9164
vn 0.9996 -0.0136 -0.0235
vn 0.0266 0.3945 0.9185
vn 0.0030 0.9165 -0.4001
vn -0.0208 -0.9993 0.0302
vn 0.0196 0.9997 -0.0167
vn -0.0027 0.8222 -0.5692
vn -0.0022 -0.9011 0.4337
vn -0.0008 -0.9983 0.0575
vn 0.0106 0.0575 0.9983
vn -0.9999 0.0014 0.0105
vn -0.0106 -0.0575 -0.9983
vn 0.9999 -0.0014 -0.0105
vn 0.0093 -0.5324 -0.8465
vn -0.0211 -0.8464 0.5321
vn -0.9997 0.0129 -0.0191
vn 0.0211 0.8464 -0.5321
vn 0.9997 -0.0129 0.0191
vn 0.9999 -0.0018 -0.0101
vn -0.0100 0.0624 -0.9980
vn -0.9999 0.0018 0.0102
vn 0.0100 -0.0628 0.9980
vn 0.0024 0.9981 0.0619
vn 0.9998 -0.0134 0.0159
vn 0.0173 0.1601 -0.9870
vn -0.9998 0.0131 -0.0154
vn -0.0174 -0.1720 0.9849
vn 0.0102 0.9846 0.1743
vn 1.0000 0.0000 0.0000
vn 0.0000 0.0000 -1.0000
vn -1.0000 0.0000 0.0000
vn 0.0000 0.0000 1.0000
vn 0.0000 -1.0000 0.0000
vn 0.0000 1.0000 0.0000
vn 1.0000 0.0003 -0.0007
vn -0.0007 0.0012 -1.0000
vn -1.0000 -0.0003 0.0007
vn 0.0007 -0.0012 1.0000
vn 0.0003 -1.0000 -0.0012
vn -0.0003 1.0000 0.0012
vn -0.0094 -0.9982 -0.0599
vn 0.0008 0.9983 -0.0575
vn -0.0093 0.5324 0.8465
vn -0.0086 -0.9423 -0.3348
vn 0.0061 -0.0339 -0.9994
vn -0.0061 0.0334 0.9994
vn -0.9996 0.0137 0.0237
vn -0.0272 -0.3994 -0.9164
vn 0.9996 -0.0137 -0.0237
vn 0.0271 0.3943 0.9186
vn -0.0180 -0.9993 0.0330
vn -0.0015 -0.9008 0.4343
vn -0.0025 0.0654 -0.9979
vn -0.9999 0.0018 0.0101
vn 0.0078 -0.0619 0.9980
vn 0.9998 -0.0131 0.0154
vn 0.0187 0.1606 -0.9868
vn -0.9998 0.0133 -0.0159
vn -0.0192 -0.1712 0.9850
vn 0.0109 -0.9991 -0.0399
vn -0.0055 -0.9433 -0.3318
s off
f 4/1/1 1/2/1 2/3/1
f 8/4/2 1/2/2 3/5/2
f 4/1/3 8/6/3 3/7/3
f 6/8/4 4/1/4 2/3/4
f 5/9/5 2/3/5 1/10/5
f 10/11/6 11/12/6 9/13/6
f 16/14/7 9/13/7 11/12/7
f 15/15/8 11/16/8 12/17/8
f 14/18/9 12/17/9 10/11/9
f 9/19/10 14/18/10 10/11/10
f 17/20/11 26/21/11 25/22/11
f 18/23/12 27/24/12 26/21/12
f 27/24/13 19/25/13 28/26/13
f 19/27/14 25/28/14 28/29/14
f 20/30/15 17/31/15 19/32/15
f 29/33/16 22/34/16 30/35/16
f 22/34/17 31/36/17 30/35/17
f 24/37/18 32/38/18 31/36/18
f 23/39/19 29/40/19 32/41/19
f 22/34/20 23/42/20 24/37/20
f 25/28/21 27/24/21 28/29/21
f 7/43/22 5/44/22 8/45/22
f 16/46/23 14/18/23 13/47/23
f 29/40/24 31/36/24 32/41/24
f 34/48/25 35/49/25 36/50/25
f 33/51/26 40/52/26 35/49/26
f 36/50/27 40/53/27 39/54/27
f 36/50/28 38/55/28 34/48/28
f 34/48/29 37/56/29 33/57/29
f 41/58/30 44/59/30 42/60/30
f 41/58/31 48/61/31 43/62/31
f 44/59/32 48/63/32 47/64/32
f 42/60/33 47/64/33 46/65/33
f 42/60/34 45/66/34 41/67/34
f 57/68/35 50/69/35 49/70/35
f 58/71/36 52/72/36 50/69/36
f 60/73/37 52/72/37 59/74/37
f 60/75/38 49/76/38 51/77/38
f 51/78/39 50/69/39 52/72/39
f 62/79/40 53/80/40 61/81/40
f 62/79/41 56/82/41 54/83/41
f 63/84/42 55/85/42 56/82/42
f 64/86/43 53/87/43 55/88/43
f 55/89/44 54/83/44 56/82/44
f 67/90/45 66/91/45 65/92/45
f 71/93/46 68/94/46 67/90/46
f 69/95/47 72/96/47 71/93/47
f 65/97/48 70/98/48 69/99/48
f 65/97/49 71/93/49 67/90/49
f 70/100/50 68/94/50 72/96/50
f 73/101/51 76/102/51 74/103/51
f 75/104/52 80/105/52 76/102/52
f 77/106/53 80/105/53 79/107/53
f 73/108/54 78/109/54 77/110/54
f 73/108/55 79/107/55 75/104/55
f 78/111/56 76/102/56 80/105/56
f 60/75/57 58/71/57 57/112/57
f 40/113/58 38/55/58 39/54/58
f 45/114/59 47/64/59 48/115/59
f 64/86/60 62/79/60 61/116/60
f 4/1/1 3/5/1 1/2/1
f 8/4/2 5/117/2 1/2/2
f 4/1/3 7/43/3 8/6/3
f 6/8/4 7/43/4 4/1/4
f 5/9/5 6/8/5 2/3/5
f 10/11/6 12/17/6 11/12/6
f 16/14/7 13/118/7 9/13/7
f 15/15/8 16/119/8 11/16/8
f 14/18/9 15/15/9 12/17/9
f 9/19/10 13/120/10 14/18/10
f 17/20/11 18/23/11 26/21/11
f 18/23/61 20/30/61 27/24/61
f 27/24/13 20/30/13 19/25/13
f 19/27/62 17/121/62 25/28/62
f 20/30/15 18/23/15 17/31/15
f 29/33/63 21/122/63 22/34/63
f 22/34/64 24/37/64 31/36/64
f 24/37/65 23/123/65 32/38/65
f 23/39/66 21/124/66 29/40/66
f 22/34/20 21/125/20 23/42/20
f 25/28/67 26/21/67 27/24/67
f 7/43/22 6/8/22 5/44/22
f 16/46/23 15/15/23 14/18/23
f 29/40/68 30/35/68 31/36/68
f 34/48/25 33/51/25 35/49/25
f 33/51/26 37/126/26 40/52/26
f 36/50/27 35/127/27 40/53/27
f 36/50/28 39/54/28 38/55/28
f 34/48/29 38/55/29 37/56/29
f 41/58/30 43/62/30 44/59/30
f 41/58/31 45/128/31 48/61/31
f 44/59/32 43/129/32 48/63/32
f 42/60/33 44/59/33 47/64/33
f 42/60/34 46/65/34 45/66/34
f 57/68/35 58/71/35 50/69/35
f 58/71/69 59/74/69 52/72/69
f 60/73/70 51/130/70 52/72/70
f 60/75/71 57/112/71 49/76/71
f 51/78/39 49/131/39 50/69/39
f 62/79/72 54/83/72 53/80/72
f 62/79/73 63/84/73 56/82/73
f 63/84/74 64/132/74 55/85/74
f 64/86/75 61/116/75 53/87/75
f 55/89/44 53/133/44 54/83/44
f 67/90/45 68/94/45 66/91/45
f 71/93/46 72/96/46 68/94/46
f 69/95/47 70/134/47 72/96/47
f 65/97/48 66/135/48 70/98/48
f 65/97/49 69/99/49 71/93/49
f 70/100/50 66/136/50 68/94/50
f 73/101/51 75/104/51 76/102/51
f 75/104/52 79/107/52 80/105/52
f 77/106/53 78/137/53 80/105/53
f 73/108/54 74/138/54 78/109/54
f 73/108/55 77/110/55 79/107/55
f 78/111/56 74/139/56 76/102/56
f 60/75/76 59/74/76 58/71/76
f 40/113/58 37/140/58 38/55/58
f 45/114/59 46/65/59 47/64/59
f 64/86/77 63/84/77 62/79/77
