# Blender v2.79 (sub 0) OBJ File: 'building.blend'
# www.blender.org
o Cube_Cube.001
v -2.633543 12.566515 2.633543
v -2.633543 12.566515 -2.633543
v 2.633543 12.566515 2.633543
v 2.633543 12.566515 -2.633543
v -2.852665 12.566515 2.852665
v -2.852665 12.566515 -2.852665
v 2.852665 12.566515 -2.852665
v 2.852665 12.566515 2.852665
v -2.633543 12.328003 2.633543
v -2.633543 12.328003 -2.633543
v 2.633543 12.328003 2.633543
v 2.633543 12.328003 -2.633543
v -2.852665 1.216709 2.852665
v -2.852665 1.216709 -2.852665
v 2.852665 1.216709 -2.852665
v 2.852665 1.216709 2.852665
v -3.239275 0.109227 3.239275
v -3.239275 0.109227 -3.239275
v 3.239275 0.109227 3.239275
v 3.239275 0.109227 -3.239275
v -3.239275 1.216709 3.239275
v -3.239275 1.216709 -3.239275
v 3.239275 1.216709 -3.239275
v 3.239275 1.216709 3.239275
vt 0.477648 0.576390
vt 0.477647 0.983395
vt 0.003335 0.983395
vt 0.003335 0.576390
vt 0.460614 0.580688
vt 0.460614 0.979098
vt 0.020004 0.979098
vt 0.020004 0.580688
vt 0.466238 0.575899
vt 0.466238 0.979455
vt 0.019937 0.979455
vt 0.019937 0.575899
vt 0.462188 0.579594
vt 0.462188 0.980192
vt 0.019157 0.980192
vt 0.019158 0.579594
vt 0.525346 0.515310
vt 0.362798 0.515311
vt 0.362798 0.511965
vt 0.525346 0.511965
vt 0.122148 0.272574
vt 0.122149 0.433879
vt 0.115387 0.440590
vt 0.115386 0.265864
vt 0.140010 0.371837
vt 0.302542 0.371836
vt 0.309304 0.378547
vt 0.133248 0.378548
vt 0.400779 0.440526
vt 0.400779 0.279219
vt 0.407541 0.272508
vt 0.407541 0.447237
vt 0.286911 0.245984
vt 0.124380 0.245985
vt 0.117619 0.239274
vt 0.293672 0.239273
vt 0.924280 0.984336
vt 0.683587 0.984336
vt 0.683587 0.745460
vt 0.924280 0.745460
vt 0.850378 0.515308
vt 0.687873 0.515309
vt 0.687873 0.511964
vt 0.850378 0.511963
vt 0.200227 0.515311
vt 0.200227 0.511964
vt 0.902539 0.774040
vt 0.726484 0.774040
vt 0.714554 0.762200
vt 0.914469 0.762200
vt 0.726481 0.950983
vt 0.902539 0.950983
vt 0.914469 0.962823
vt 0.714551 0.962824
vt 0.902539 0.776256
vt 0.914469 0.764416
vt 0.724251 0.771825
vt 0.724251 0.946549
vt 0.712321 0.958389
vt 0.712321 0.759985
vt 0.641551 0.044209
vt 0.641534 0.233049
vt 0.005892 0.232214
vt 0.005909 0.043375
vt 0.645205 0.047239
vt 0.645188 0.225203
vt 0.009792 0.224419
vt 0.009809 0.046456
vt 0.641289 0.046375
vt 0.641272 0.234623
vt 0.010507 0.233793
vt 0.010524 0.045548
vt 0.646564 0.045781
vt 0.646547 0.231326
vt 0.002927 0.230505
vt 0.002944 0.044961
vn -1.0000 0.0000 0.0000
vn 0.0000 0.0000 -1.0000
vn 1.0000 0.0000 0.0000
vn 0.0000 0.0000 1.0000
vn 0.0000 1.0000 0.0000
s off
f 13/1/1 5/2/1 6/3/1 14/4/1
f 14/5/2 6/6/2 7/7/2 15/8/2
f 15/9/3 7/10/3 8/11/3 16/12/3
f 16/13/4 8/14/4 5/15/4 13/16/4
f 1/17/2 3/18/2 11/19/2 9/20/2
f 1/21/5 2/22/5 6/23/5 5/24/5
f 2/25/5 4/26/5 7/27/5 6/28/5
f 4/29/5 3/30/5 8/31/5 7/32/5
f 3/33/5 1/34/5 5/35/5 8/36/5
f 12/37/5 10/38/5 9/39/5 11/40/5
f 4/41/4 2/42/4 10/43/4 12/44/4
f 3/18/1 4/45/1 12/46/1 11/19/1
f 2/42/3 1/17/3 9/20/3 10/43/3
f 16/47/5 13/48/5 21/49/5 24/50/5
f 14/51/5 15/52/5 23/53/5 22/54/5
f 15/52/5 16/55/5 24/56/5 23/53/5
f 13/57/5 14/58/5 22/59/5 21/60/5
f 19/61/4 24/62/4 21/63/4 17/64/4
f 20/65/3 23/66/3 24/67/3 19/68/3
f 18/69/2 22/70/2 23/71/2 20/72/2
f 17/73/1 21/74/1 22/75/1 18/76/1
