# Blender v2.79 (sub 0) OBJ File: '3DObjectDecoderObjects.blend'
# www.blender.org
o Cube.005_Cube.008
v 0.648942 -0.108531 0.264098
v 0.649246 -0.208047 -0.128066
v 1.053390 -0.119002 0.267069
v 1.053694 -0.218518 -0.125095
v 0.675834 0.860402 0.018242
v 0.676138 0.760886 -0.373923
v 1.080586 0.750415 -0.370952
v 1.080282 0.849931 0.021213
v 0.078385 -1.708611 0.114442
v 0.071827 -1.604379 -0.276444
v 0.482923 -1.708503 0.107682
v 0.476365 -1.604272 -0.283203
v 0.082432 -0.742362 0.372030
v 0.075874 -0.638130 -0.018856
v 0.480411 -0.638023 -0.025615
v 0.486969 -0.742255 0.365270
v 0.697377 1.766160 0.212105
v 0.701614 1.847217 -0.184264
v 1.101844 1.756255 0.214403
v 1.106080 1.837311 -0.181967
v 0.078069 0.341665 0.191291
v 0.072245 0.260812 -0.205102
v 0.482618 0.342268 0.185223
v 0.476793 0.261415 -0.211170
v 0.674531 0.786740 0.011572
v 0.678707 0.864884 -0.385040
v 1.082766 0.835509 -0.384039
v 1.079234 0.787543 0.013256
v 0.082593 -0.660938 0.389161
v 0.076642 -0.705248 -0.005163
v 0.481191 -0.705087 -0.011302
v 0.487135 -0.660144 0.382806
v -0.698432 -0.096209 0.204612
v -0.702935 -0.194969 -0.187711
v -1.103001 -0.095721 0.209133
v -1.107504 -0.194482 -0.183191
v -0.699991 0.873536 -0.039484
v -0.704493 0.774776 -0.431808
v -1.109062 0.775264 -0.427288
v -1.104560 0.874024 -0.034964
v -0.079708 -1.702306 0.186596
v -0.070340 -1.611573 -0.207583
v -0.484187 -1.702444 0.176952
v -0.474820 -1.611710 -0.217226
v -0.085385 -0.727775 0.410782
v -0.076017 -0.637041 0.016604
v -0.480497 -0.637179 0.006960
v -0.489864 -0.727913 0.401139
v -0.695650 1.746523 0.213012
v -0.698990 1.852906 -0.177324
v -1.100225 1.747678 0.216789
v -1.103565 1.854062 -0.173547
v -0.079407 0.348897 0.189151
v -0.070789 0.252968 -0.203812
v -0.483902 0.349283 0.180186
v -0.475284 0.253355 -0.212778
v -0.700860 0.781714 -0.049892
v -0.704224 0.884800 -0.440614
v -1.108950 0.863904 -0.439037
v -1.105372 0.795049 -0.046411
v -0.085649 -0.645605 0.425065
v -0.076908 -0.704642 0.032851
v -0.481403 -0.704703 0.023829
v -0.490136 -0.645035 0.415804
v 0.630000 0.402984 0.420000
v 0.630000 1.802984 0.420000
v 0.630000 0.402984 -0.420000
v 0.630000 1.802984 -0.420000
v -0.630000 0.402984 0.420000
v -0.630000 1.802984 0.420000
v -0.630000 0.402984 -0.420000
v -0.630000 1.802984 -0.420000
v 0.336016 1.859850 0.265979
v 0.307449 2.444056 0.399722
v 0.251850 1.988507 -0.313989
v 0.223283 2.572713 -0.180246
v -0.257364 1.813476 0.341804
v -0.285931 2.397682 0.475547
v -0.341530 1.942133 -0.238164
v -0.370097 2.526339 -0.104421
vt 0.151712 0.164304
vt 0.128453 0.121671
vt 0.152804 0.123501
vt 0.067175 0.157952
vt 0.127361 0.162474
vt 0.210807 0.209629
vt 0.150620 0.205107
vt 0.212991 0.128023
vt 0.214083 0.087220
vt 0.153896 0.082698
vt 0.120318 0.196104
vt 0.141703 0.159716
vt 0.141869 0.195827
vt 0.194969 0.159030
vt 0.066887 0.160679
vt 0.119987 0.123882
vt 0.120152 0.159993
vt 0.120483 0.232215
vt 0.067052 0.196790
vt 0.893013 0.803206
vt 0.953247 0.844041
vt 0.893013 0.844041
vt 0.953247 0.884875
vt 0.893013 0.884875
vt 0.893013 0.925710
vt 0.868643 0.884875
vt 0.808410 0.844041
vt 0.868643 0.844041
vt 0.977617 0.844041
vt 0.977617 0.884875
vt 0.741845 0.545283
vt 0.663028 0.598717
vt 0.663028 0.545283
vt 0.741845 0.652150
vt 0.663028 0.652150
vt 0.741845 0.705584
vt 0.663028 0.705584
vt 0.631139 0.652150
vt 0.552321 0.598717
vt 0.631139 0.598717
vt 0.741845 0.598717
vt 0.773734 0.652150
vt 0.211899 0.168826
vt 0.237342 0.129853
vt 0.236250 0.170656
vt 0.045336 0.160957
vt 0.045501 0.197068
vt 0.094887 0.153073
vt 0.114964 0.123128
vt 0.113861 0.154921
vt 0.095990 0.121280
vt 0.047991 0.148506
vt 0.049093 0.116713
vt 0.116067 0.091335
vt 0.161861 0.127695
vt 0.160758 0.159488
vt 0.159655 0.191281
vt 0.112759 0.186714
vt 0.153193 0.158992
vt 0.134495 0.188340
vt 0.135087 0.158002
vt 0.197352 0.191779
vt 0.152601 0.189330
vt 0.133904 0.218678
vt 0.089745 0.185892
vt 0.090336 0.155553
vt 0.090927 0.125215
vt 0.135678 0.127663
vt 0.893013 0.809899
vt 0.820174 0.859280
vt 0.820174 0.809899
vt 0.893013 0.859280
vt 0.820174 0.908661
vt 0.893013 0.958041
vt 0.893013 0.908661
vt 0.922484 0.908660
vt 0.995323 0.859280
vt 0.995323 0.908660
vt 0.790703 0.859280
vt 0.668850 0.601598
vt 0.627314 0.573439
vt 0.668850 0.573439
vt 0.627314 0.629757
vt 0.627314 0.601598
vt 0.668850 0.629757
vt 0.627314 0.657916
vt 0.685655 0.629757
vt 0.727191 0.601598
vt 0.727191 0.629757
vt 0.610509 0.629757
vt 0.114767 0.168293
vt 0.095916 0.220936
vt 0.095916 0.168293
vt 0.143042 0.168293
vt 0.114767 0.220936
vt 0.161893 0.168293
vt 0.143042 0.220936
vt 0.114767 0.136707
vt 0.143042 0.084063
vt 0.143042 0.136707
vt 0.143042 0.252523
vt 0.705410 0.612195
vt 0.679363 0.568551
vt 0.705410 0.568551
vt 0.653316 0.612195
vt 0.679363 0.612195
vt 0.627270 0.612195
vt 0.653316 0.568551
vt 0.679363 0.655839
vt 0.653316 0.699483
vt 0.653316 0.655839
vt 0.653316 0.524907
vt 0.922484 0.859280
vt 0.179732 0.161336
vt 0.180835 0.129543
vt 0.072230 0.154563
vt 0.071639 0.184901
vt 0.685655 0.601598
vt 0.068267 0.117149
vt 0.195135 0.195141
vt 0.066721 0.124568
vt 0.067218 0.232901
vt 0.953247 0.803206
vt 0.953247 0.925710
vt 0.808410 0.884875
vt 0.552321 0.652150
vt 0.773734 0.598717
vt 0.162963 0.095902
vt 0.197943 0.161440
vt 0.089154 0.216230
vt 0.820174 0.958041
vt 0.790703 0.908661
vt 0.668850 0.657916
vt 0.610509 0.601598
vt 0.161893 0.220936
vt 0.114767 0.084063
vt 0.114767 0.252523
vt 0.627270 0.568551
vt 0.679363 0.699483
vt 0.679363 0.524907
vn -0.0269 -0.9689 0.2459
vn -0.0008 0.2460 0.9693
vn 0.9996 -0.0259 0.0073
vn 0.0008 -0.2460 -0.9693
vn -0.9996 0.0259 -0.0073
vn -0.0040 -0.9662 -0.2576
vn 0.0162 -0.2576 0.9661
vn 0.9999 0.0003 -0.0167
vn -0.0162 0.2576 -0.9661
vn -0.9999 -0.0003 0.0167
vn -0.9997 0.0245 -0.0057
vn 0.0168 0.1973 -0.9802
vn 0.9997 -0.0245 0.0059
vn -0.0037 -0.2005 0.9797
vn 0.0228 0.9794 0.2005
vn -0.9999 -0.0015 0.0153
vn -0.0148 -0.2026 -0.9792
vn 0.9999 0.0015 -0.0153
vn 0.0150 0.1937 0.9810
vn -0.0045 0.9798 -0.1998
vn -0.0717 -0.9902 -0.1202
vn 0.0269 0.9689 -0.2459
vn 0.0040 0.9662 0.2576
vn 0.0021 -0.9936 0.1133
vn 0.0016 -0.9697 0.2441
vn 0.0111 0.2441 0.9697
vn -0.9999 0.0012 0.0112
vn -0.0111 -0.2441 -0.9697
vn 0.9999 -0.0012 -0.0112
vn 0.0057 -0.9745 -0.2242
vn -0.0232 -0.2243 0.9743
vn -0.9997 -0.0003 -0.0238
vn 0.0232 0.2243 -0.9743
vn 0.9997 0.0003 0.0238
vn 1.0000 -0.0029 -0.0093
vn -0.0083 0.2625 -0.9649
vn -0.9999 0.0029 0.0096
vn 0.0082 -0.2663 0.9638
vn 0.0052 0.9648 0.2629
vn 0.9997 -0.0010 0.0224
vn 0.0213 -0.2400 -0.9705
vn -0.9998 0.0009 -0.0221
vn -0.0213 0.2307 0.9728
vn 0.0062 0.9715 -0.2370
vn 1.0000 0.0000 0.0000
vn 0.0000 0.0000 -1.0000
vn -1.0000 0.0000 0.0000
vn 0.0000 0.0000 1.0000
vn 0.0000 -1.0000 0.0000
vn 0.0000 1.0000 0.0000
vn 0.9890 0.0773 -0.1264
vn -0.1403 0.2144 -0.9666
vn -0.9890 -0.0773 0.1264
vn 0.1403 -0.2144 0.9666
vn 0.0476 -0.9737 -0.2229
vn -0.0476 0.9737 0.2229
vn -0.0341 -0.9664 -0.2547
vn -0.0016 0.9697 -0.2441
vn -0.0057 0.9745 0.2242
vn -0.0048 -0.9889 0.1487
vn 0.0105 0.2000 -0.9797
vn 0.9997 -0.0245 0.0057
vn -0.0105 -0.2031 0.9791
vn -0.9999 -0.0014 0.0150
vn -0.0144 -0.2027 -0.9791
vn 0.9999 0.0015 -0.0150
vn 0.0144 0.1934 0.9810
vn 0.0028 -0.9811 -0.1933
vn 0.0037 -0.9937 0.1116
vn 1.0000 -0.0029 -0.0094
vn -0.0171 0.2590 -0.9657
vn -1.0000 0.0028 0.0093
vn -0.0004 -0.2629 0.9648
vn 0.9998 -0.0009 0.0221
vn 0.0217 -0.2398 -0.9706
vn -0.9997 0.0010 -0.0224
vn -0.0219 0.2309 0.9727
vn 0.0501 -0.9837 -0.1730
vn -0.0032 -0.9886 0.1504
s off
f 4/1/1 1/2/1 2/3/1
f 8/4/2 1/2/2 3/5/2
f 4/1/3 8/6/3 3/7/3
f 6/8/4 4/1/4 2/3/4
f 5/9/5 2/3/5 1/10/5
f 10/11/6 11/12/6 9/13/6
f 16/14/7 9/13/7 11/12/7
f 15/15/8 11/16/8 12/17/8
f 10/11/9 15/15/9 12/17/9
f 9/18/10 14/19/10 10/11/10
f 25/20/11 18/21/11 26/22/11
f 26/22/12 20/23/12 27/24/12
f 20/23/13 28/25/13 27/24/13
f 28/26/14 17/27/14 25/28/14
f 20/23/15 17/29/15 19/30/15
f 21/31/16 30/32/16 29/33/16
f 30/32/17 24/34/17 31/35/17
f 31/35/18 23/36/18 32/37/18
f 32/38/19 21/39/19 29/40/19
f 22/41/20 23/42/20 24/34/20
f 28/26/21 26/22/21 27/24/21
f 7/43/22 5/44/22 8/45/22
f 16/46/23 14/19/23 13/47/23
f 32/38/24 30/32/24 31/35/24
f 33/48/25 36/49/25 34/50/25
f 35/51/26 37/52/26 40/53/26
f 35/54/27 39/55/27 36/49/27
f 36/49/28 38/56/28 34/50/28
f 34/50/29 37/57/29 33/58/29
f 41/59/30 44/60/30 42/61/30
f 41/59/31 48/62/31 43/63/31
f 43/64/32 47/65/32 44/60/32
f 44/60/33 46/66/33 42/61/33
f 42/61/34 45/67/34 41/68/34
f 57/69/35 50/70/35 49/71/35
f 58/72/36 52/73/36 50/70/36
f 60/74/37 52/73/37 59/75/37
f 60/76/38 49/77/38 51/78/38
f 52/73/39 49/79/39 50/70/39
f 62/80/40 53/81/40 61/82/40
f 62/80/41 56/83/41 54/84/41
f 63/85/42 55/86/42 56/83/42
f 64/87/43 53/88/43 55/89/43
f 55/90/44 54/84/44 56/83/44
f 67/91/45 66/92/45 65/93/45
f 71/94/46 68/95/46 67/91/46
f 69/96/47 72/97/47 71/94/47
f 65/98/48 70/99/48 69/100/48
f 65/98/49 71/94/49 67/91/49
f 70/101/50 68/95/50 72/97/50
f 73/102/51 76/103/51 74/104/51
f 79/105/52 76/103/52 75/106/52
f 77/107/53 80/108/53 79/105/53
f 73/109/54 78/110/54 77/111/54
f 73/109/55 79/105/55 75/106/55
f 78/112/56 76/103/56 80/108/56
f 60/76/57 58/72/57 57/113/57
f 37/114/58 39/55/58 40/115/58
f 45/116/59 47/65/59 48/117/59
f 64/87/60 62/80/60 61/118/60
f 4/1/1 3/5/1 1/2/1
f 8/4/2 5/119/2 1/2/2
f 4/1/3 7/43/3 8/6/3
f 6/8/4 7/43/4 4/1/4
f 5/9/5 6/8/5 2/3/5
f 10/11/6 12/17/6 11/12/6
f 16/14/7 13/120/7 9/13/7
f 15/15/8 16/121/8 11/16/8
f 10/11/9 14/19/9 15/15/9
f 9/18/10 13/122/10 14/19/10
f 25/20/11 17/123/11 18/21/11
f 26/22/61 18/21/61 20/23/61
f 20/23/62 19/124/62 28/25/62
f 28/26/63 19/125/63 17/27/63
f 20/23/15 18/21/15 17/29/15
f 21/31/64 22/41/64 30/32/64
f 30/32/65 22/41/65 24/34/65
f 31/35/66 24/34/66 23/36/66
f 32/38/67 23/126/67 21/39/67
f 22/41/20 21/127/20 23/42/20
f 28/26/68 25/28/68 26/22/68
f 7/43/22 6/8/22 5/44/22
f 16/46/23 15/15/23 14/19/23
f 32/38/69 29/40/69 30/32/69
f 33/48/25 35/51/25 36/49/25
f 35/51/26 33/48/26 37/52/26
f 35/54/27 40/128/27 39/55/27
f 36/49/28 39/55/28 38/56/28
f 34/50/29 38/56/29 37/57/29
f 41/59/30 43/63/30 44/60/30
f 41/59/31 45/129/31 48/62/31
f 43/64/32 48/130/32 47/65/32
f 44/60/33 47/65/33 46/66/33
f 42/61/34 46/66/34 45/67/34
f 57/69/70 58/72/70 50/70/70
f 58/72/71 59/75/71 52/73/71
f 60/74/72 51/131/72 52/73/72
f 60/76/73 57/113/73 49/77/73
f 52/73/39 51/132/39 49/79/39
f 62/80/74 54/84/74 53/81/74
f 62/80/75 63/85/75 56/83/75
f 63/85/76 64/133/76 55/86/76
f 64/87/77 61/118/77 53/88/77
f 55/90/44 53/134/44 54/84/44
f 67/91/45 68/95/45 66/92/45
f 71/94/46 72/97/46 68/95/46
f 69/96/47 70/135/47 72/97/47
f 65/98/48 66/136/48 70/99/48
f 65/98/49 69/100/49 71/94/49
f 70/101/50 66/137/50 68/95/50
f 73/102/51 75/106/51 76/103/51
f 79/105/52 80/108/52 76/103/52
f 77/107/53 78/138/53 80/108/53
f 73/109/54 74/139/54 78/110/54
f 73/109/55 77/111/55 79/105/55
f 78/112/56 74/140/56 76/103/56
f 60/76/78 59/75/78 58/72/78
f 37/114/58 38/56/58 39/55/58
f 45/116/59 46/66/59 47/65/59
f 64/87/79 63/85/79 62/80/79
