# Blender v2.79 (sub 0) OBJ File: '3DObjectDecoderObjects.blend'
# www.blender.org
o Cube.005_Cube.008
v 0.648082 -0.156835 0.260300
v 0.650315 -0.163180 -0.144238
v 1.052550 -0.166638 0.262687
v 1.054784 -0.172983 -0.141851
v 0.672399 0.842748 0.244757
v 0.674633 0.836403 -0.159782
v 1.079101 0.826600 -0.157395
v 1.076868 0.832945 0.247144
v 0.078556 -1.667944 0.135414
v 0.072178 -1.649598 -0.268717
v 0.483100 -1.667735 0.129038
v 0.476722 -1.649389 -0.275093
v 0.078754 -0.668972 0.180764
v 0.072376 -0.650627 -0.223367
v 0.476920 -0.650418 -0.229743
v 0.483298 -0.668763 0.174388
v 0.698636 1.910968 0.197327
v 0.700615 1.892359 -0.206835
v 1.103104 1.901127 0.199760
v 1.105082 1.882518 -0.204402
v 0.078541 0.391345 0.206441
v 0.072196 0.400575 -0.198002
v 0.483085 0.391578 0.200098
v 0.476740 0.400809 -0.204344
v 0.674063 0.912322 0.243188
v 0.676046 0.893911 -0.160958
v 1.080539 0.885394 -0.158447
v 1.078515 0.901755 0.245668
v 0.078763 -0.609517 0.183517
v 0.072412 -0.598486 -0.220815
v 0.476957 -0.598275 -0.227161
v 0.483307 -0.609274 0.177161
v -0.698633 -0.133492 0.202448
v -0.702934 -0.160193 -0.201234
v -1.103204 -0.132923 0.206721
v -1.107505 -0.159623 -0.196962
v -0.697926 0.864326 0.136453
v -0.702227 0.837625 -0.267229
v -1.106798 0.838195 -0.262957
v -1.102497 0.864895 0.140726
v -0.080021 -1.661948 0.205813
v -0.070741 -1.655491 -0.198624
v -0.484509 -1.661964 0.196532
v -0.475229 -1.655506 -0.207905
v -0.080426 -0.662074 0.221769
v -0.071146 -0.655617 -0.182669
v -0.475634 -0.655633 -0.191950
v -0.484913 -0.662090 0.212487
v -0.695517 1.881579 0.204976
v -0.699524 1.910329 -0.198569
v -1.100091 1.882327 0.209046
v -1.104097 1.911077 -0.194499
v -0.080000 0.399511 0.205878
v -0.070769 0.392627 -0.198553
v -0.484489 0.399532 0.196645
v -0.475258 0.392649 -0.207786
v -0.698077 0.884108 0.133932
v -0.702090 0.911967 -0.269711
v -1.106702 0.906750 -0.266192
v -1.102634 0.888148 0.137899
v -0.080445 -0.601989 0.222796
v -0.071206 -0.606237 -0.181565
v -0.475695 -0.606247 -0.190802
v -0.484933 -0.601954 0.213543
v 0.630000 0.496542 0.420000
v 0.630000 1.896542 0.420000
v 0.630000 0.496542 -0.420000
v 0.630000 1.896542 -0.420000
v -0.630000 0.496542 0.420000
v -0.630000 1.896542 0.420000
v -0.630000 0.496542 -0.420000
v -0.630000 1.896542 -0.420000
v 0.300812 1.995487 0.299408
v 0.299978 2.595479 0.302344
v 0.299020 1.998421 -0.300582
v 0.298186 2.598413 -0.297646
v -0.299185 1.994645 0.301195
v -0.300019 2.594637 0.304132
v -0.300977 1.997579 -0.298795
v -0.301810 2.597571 -0.295858
vt 0.151712 0.164304
vt 0.128453 0.121671
vt 0.152804 0.123501
vt 0.067175 0.157952
vt 0.127361 0.162474
vt 0.210807 0.209629
vt 0.150620 0.205107
vt 0.211899 0.168826
vt 0.214083 0.087220
vt 0.153896 0.082698
vt 0.120318 0.196104
vt 0.141703 0.159716
vt 0.141869 0.195827
vt 0.194969 0.159030
vt 0.066887 0.160679
vt 0.119987 0.123882
vt 0.120152 0.159993
vt 0.067052 0.196790
vt 0.120483 0.232215
vt 0.953247 0.803206
vt 0.893013 0.844041
vt 0.893013 0.803206
vt 0.953247 0.844041
vt 0.893013 0.884875
vt 0.953247 0.925710
vt 0.893013 0.925710
vt 0.808410 0.884875
vt 0.868643 0.844041
vt 0.868643 0.884875
vt 0.977617 0.884875
vt 0.953247 0.884875
vt 0.741845 0.545283
vt 0.663028 0.598717
vt 0.663028 0.545283
vt 0.741845 0.652150
vt 0.663028 0.652150
vt 0.741845 0.705584
vt 0.663028 0.705584
vt 0.631139 0.652150
vt 0.552321 0.598717
vt 0.631139 0.598717
vt 0.741845 0.598717
vt 0.773734 0.652150
vt 0.237342 0.129853
vt 0.236250 0.170656
vt 0.045336 0.160957
vt 0.045501 0.197068
vt 0.094887 0.153073
vt 0.114964 0.123128
vt 0.113861 0.154921
vt 0.095990 0.121280
vt 0.047991 0.148506
vt 0.049093 0.116713
vt 0.116067 0.091335
vt 0.161861 0.127695
vt 0.160758 0.159488
vt 0.112759 0.186714
vt 0.159655 0.191281
vt 0.153193 0.158992
vt 0.134495 0.188340
vt 0.135087 0.158002
vt 0.197352 0.191779
vt 0.152601 0.189330
vt 0.133904 0.218678
vt 0.089745 0.185892
vt 0.090336 0.155553
vt 0.135678 0.127663
vt 0.090927 0.125215
vt 0.893013 0.809899
vt 0.820174 0.859280
vt 0.820174 0.809899
vt 0.893013 0.859280
vt 0.820174 0.908661
vt 0.893013 0.958041
vt 0.893013 0.908661
vt 0.922484 0.908660
vt 0.995323 0.859280
vt 0.995323 0.908660
vt 0.790703 0.859280
vt 0.668850 0.601598
vt 0.627314 0.573439
vt 0.668850 0.573439
vt 0.627314 0.629757
vt 0.627314 0.601598
vt 0.668850 0.629757
vt 0.627314 0.657916
vt 0.685655 0.629757
vt 0.727191 0.601598
vt 0.727191 0.629757
vt 0.610509 0.601598
vt 0.114767 0.168293
vt 0.095916 0.220936
vt 0.095916 0.168293
vt 0.143042 0.168293
vt 0.114767 0.220936
vt 0.161893 0.168293
vt 0.143042 0.220936
vt 0.114767 0.136707
vt 0.143042 0.084063
vt 0.143042 0.136707
vt 0.143042 0.252523
vt 0.705410 0.612195
vt 0.679363 0.568551
vt 0.705410 0.568551
vt 0.653316 0.612195
vt 0.679363 0.612195
vt 0.627270 0.612195
vt 0.653316 0.568551
vt 0.679363 0.655839
vt 0.653316 0.699483
vt 0.653316 0.655839
vt 0.653316 0.524907
vt 0.922484 0.859280
vt 0.179732 0.161336
vt 0.180835 0.129543
vt 0.072230 0.154563
vt 0.071639 0.184901
vt 0.685655 0.601598
vt 0.068267 0.117149
vt 0.212991 0.128023
vt 0.195135 0.195141
vt 0.066721 0.124568
vt 0.067218 0.232901
vt 0.808410 0.844041
vt 0.977617 0.844041
vt 0.552321 0.652150
vt 0.773734 0.598717
vt 0.162963 0.095902
vt 0.197943 0.161440
vt 0.089154 0.216230
vt 0.820174 0.958041
vt 0.790703 0.908661
vt 0.668850 0.657916
vt 0.610509 0.629757
vt 0.161893 0.220936
vt 0.114767 0.084063
vt 0.114767 0.252523
vt 0.627270 0.568551
vt 0.679363 0.699483
vt 0.679363 0.524907
vn -0.0243 -0.9996 0.0155
vn -0.0055 0.0157 0.9999
vn 0.9997 -0.0242 0.0059
vn 0.0055 -0.0157 -0.9999
vn -0.9997 0.0242 -0.0059
vn -0.0002 -0.9990 -0.0453
vn 0.0158 -0.0453 0.9988
vn 0.9999 0.0005 -0.0158
vn -0.0158 0.0453 -0.9988
vn -0.9999 -0.0005 0.0158
vn -0.9997 0.0243 -0.0060
vn 0.0052 -0.0460 -0.9989
vn 0.9997 -0.0243 0.0060
vn -0.0049 0.0460 0.9989
vn 0.0246 0.9986 -0.0459
vn -0.9999 -0.0006 0.0157
vn -0.0157 0.0228 -0.9996
vn 0.9999 0.0006 -0.0157
vn 0.0157 -0.0229 0.9996
vn -0.0002 0.9997 0.0228
vn -0.0263 -0.9988 0.0403
vn 0.0243 0.9996 -0.0155
vn 0.0002 0.9990 0.0453
vn 0.0001 -0.9996 -0.0272
vn -0.0007 -0.9978 0.0660
vn 0.0106 0.0660 0.9978
vn -0.9999 0.0014 0.0106
vn -0.0106 -0.0660 -0.9978
vn 0.9999 -0.0014 -0.0106
vn 0.0004 -0.9999 -0.0160
vn -0.0229 -0.0160 0.9996
vn -0.9997 -0.0000 -0.0229
vn 0.0229 0.0160 -0.9996
vn 0.9997 0.0000 0.0229
vn 0.9999 -0.0018 -0.0101
vn -0.0099 0.0711 -0.9974
vn -0.9999 0.0019 0.0102
vn 0.0099 -0.0714 0.9974
vn 0.0026 0.9975 0.0710
vn 0.9997 -0.0001 0.0228
vn 0.0228 -0.0170 -0.9996
vn -0.9997 0.0000 -0.0228
vn -0.0228 0.0169 0.9996
vn 0.0004 0.9999 -0.0170
vn 1.0000 0.0000 0.0000
vn 0.0000 0.0000 -1.0000
vn -1.0000 0.0000 0.0000
vn 0.0000 0.0000 1.0000
vn 0.0000 -1.0000 0.0000
vn 0.0000 1.0000 0.0000
vn 1.0000 0.0014 -0.0030
vn -0.0030 0.0049 -1.0000
vn -1.0000 -0.0014 0.0030
vn 0.0030 -0.0049 1.0000
vn 0.0014 -1.0000 -0.0049
vn -0.0014 1.0000 0.0049
vn -0.0106 -0.9976 -0.0687
vn 0.0007 0.9978 -0.0660
vn -0.0004 0.9999 0.0160
vn -0.0003 -0.9999 0.0105
vn 0.0049 -0.0462 -0.9989
vn -0.0213 -0.9987 0.0454
vn 0.0002 -0.9996 -0.0273
vn 0.9999 -0.0019 -0.0101
vn -0.0096 0.0712 -0.9974
vn -0.9999 0.0018 0.0101
vn 0.0091 -0.0711 0.9974
vn 0.9997 -0.0000 0.0228
vn -0.9997 0.0001 -0.0228
vn -0.0229 0.0169 0.9996
vn 0.0125 -0.9989 -0.0461
vn -0.0002 -0.9999 0.0106
s off
f 4/1/1 1/2/1 2/3/1
f 8/4/2 1/2/2 3/5/2
f 4/1/3 8/6/3 3/7/3
f 2/3/4 7/8/4 4/1/4
f 5/9/5 2/3/5 1/10/5
f 10/11/6 11/12/6 9/13/6
f 16/14/7 9/13/7 11/12/7
f 15/15/8 11/16/8 12/17/8
f 14/18/9 12/17/9 10/11/9
f 9/19/10 14/18/10 10/11/10
f 17/20/11 26/21/11 25/22/11
f 18/23/12 27/24/12 26/21/12
f 27/24/13 19/25/13 28/26/13
f 19/27/14 25/28/14 28/29/14
f 18/23/15 19/30/15 20/31/15
f 21/32/16 30/33/16 29/34/16
f 30/33/17 24/35/17 31/36/17
f 31/36/18 23/37/18 32/38/18
f 32/39/19 21/40/19 29/41/19
f 22/42/20 23/43/20 24/35/20
f 25/28/21 27/24/21 28/29/21
f 7/8/22 5/44/22 8/45/22
f 16/46/23 14/18/23 13/47/23
f 32/39/24 30/33/24 31/36/24
f 33/48/25 36/49/25 34/50/25
f 35/51/26 37/52/26 40/53/26
f 35/54/27 39/55/27 36/49/27
f 36/49/28 38/56/28 34/50/28
f 33/57/29 38/56/29 37/58/29
f 41/59/30 44/60/30 42/61/30
f 41/59/31 48/62/31 43/63/31
f 43/64/32 47/65/32 44/60/32
f 44/60/33 46/66/33 42/61/33
f 41/67/34 46/66/34 45/68/34
f 57/69/35 50/70/35 49/71/35
f 58/72/36 52/73/36 50/70/36
f 60/74/37 52/73/37 59/75/37
f 60/76/38 49/77/38 51/78/38
f 52/73/39 49/79/39 50/70/39
f 62/80/40 53/81/40 61/82/40
f 62/80/41 56/83/41 54/84/41
f 63/85/42 55/86/42 56/83/42
f 64/87/43 53/88/43 55/89/43
f 56/83/44 53/90/44 54/84/44
f 67/91/45 66/92/45 65/93/45
f 71/94/46 68/95/46 67/91/46
f 69/96/47 72/97/47 71/94/47
f 65/98/48 70/99/48 69/100/48
f 65/98/49 71/94/49 67/91/49
f 70/101/50 68/95/50 72/97/50
f 73/102/51 76/103/51 74/104/51
f 79/105/52 76/103/52 75/106/52
f 77/107/53 80/108/53 79/105/53
f 73/109/54 78/110/54 77/111/54
f 73/109/55 79/105/55 75/106/55
f 78/112/56 76/103/56 80/108/56
f 60/76/57 58/72/57 57/113/57
f 37/114/58 39/55/58 40/115/58
f 45/116/59 47/65/59 48/117/59
f 64/87/60 62/80/60 61/118/60
f 4/1/1 3/5/1 1/2/1
f 8/4/2 5/119/2 1/2/2
f 4/1/3 7/8/3 8/6/3
f 2/3/4 6/120/4 7/8/4
f 5/9/5 6/120/5 2/3/5
f 10/11/6 12/17/6 11/12/6
f 16/14/7 13/121/7 9/13/7
f 15/15/8 16/122/8 11/16/8
f 14/18/9 15/15/9 12/17/9
f 9/19/10 13/123/10 14/18/10
f 17/20/11 18/23/11 26/21/11
f 18/23/61 20/31/61 27/24/61
f 27/24/13 20/31/13 19/25/13
f 19/27/14 17/124/14 25/28/14
f 18/23/15 17/125/15 19/30/15
f 21/32/16 22/42/16 30/33/16
f 30/33/17 22/42/17 24/35/17
f 31/36/18 24/35/18 23/37/18
f 32/39/19 23/126/19 21/40/19
f 22/42/20 21/127/20 23/43/20
f 25/28/62 26/21/62 27/24/62
f 7/8/22 6/120/22 5/44/22
f 16/46/23 15/15/23 14/18/23
f 32/39/63 29/41/63 30/33/63
f 33/48/25 35/51/25 36/49/25
f 35/51/26 33/48/26 37/52/26
f 35/54/27 40/128/27 39/55/27
f 36/49/28 39/55/28 38/56/28
f 33/57/29 34/50/29 38/56/29
f 41/59/30 43/63/30 44/60/30
f 41/59/31 45/129/31 48/62/31
f 43/64/32 48/130/32 47/65/32
f 44/60/33 47/65/33 46/66/33
f 41/67/34 42/61/34 46/66/34
f 57/69/64 58/72/64 50/70/64
f 58/72/65 59/75/65 52/73/65
f 60/74/66 51/131/66 52/73/66
f 60/76/67 57/113/67 49/77/67
f 52/73/39 51/132/39 49/79/39
f 62/80/68 54/84/68 53/81/68
f 62/80/41 63/85/41 56/83/41
f 63/85/69 64/133/69 55/86/69
f 64/87/70 61/118/70 53/88/70
f 56/83/44 55/134/44 53/90/44
f 67/91/45 68/95/45 66/92/45
f 71/94/46 72/97/46 68/95/46
f 69/96/47 70/135/47 72/97/47
f 65/98/48 66/136/48 70/99/48
f 65/98/49 69/100/49 71/94/49
f 70/101/50 66/137/50 68/95/50
f 73/102/51 75/106/51 76/103/51
f 79/105/52 80/108/52 76/103/52
f 77/107/53 78/138/53 80/108/53
f 73/109/54 74/139/54 78/110/54
f 73/109/55 77/111/55 79/105/55
f 78/112/56 74/140/56 76/103/56
f 60/76/71 59/75/71 58/72/71
f 37/114/58 38/56/58 39/55/58
f 45/116/59 46/66/59 47/65/59
f 64/87/72 63/85/72 62/80/72
