# Blender v2.79 (sub 0) OBJ File: '3DObjectDecoderObjects.blend'
# www.blender.org
o Cube.005_Cube.008
v 0.649207 -0.094669 0.263097
v 0.648918 -0.219991 -0.121599
v 1.053646 -0.105417 0.266295
v 1.053357 -0.230739 -0.118401
v 0.676913 0.855779 -0.046549
v 0.676624 0.730457 -0.431245
v 1.081063 0.719709 -0.428047
v 1.081352 0.845031 -0.043351
v 0.078310 -1.720067 0.106341
v 0.071747 -1.590356 -0.276844
v 0.482846 -1.719955 0.099450
v 0.476283 -1.590244 -0.283735
v 0.083506 -0.772848 0.426893
v 0.076943 -0.643137 0.043708
v 0.481479 -0.643025 0.036817
v 0.488042 -0.772736 0.420001
v 0.696989 1.704703 0.213909
v 0.701921 1.813409 -0.175777
v 1.101452 1.694690 0.216236
v 1.106385 1.803397 -0.173450
v 0.077889 0.307744 0.184793
v 0.072299 0.200141 -0.205193
v 0.482438 0.308492 0.178788
v 0.476848 0.200890 -0.211199
v 0.674698 0.741791 -0.054985
v 0.679551 0.846724 -0.444994
v 1.083474 0.811483 -0.444397
v 1.079476 0.745658 -0.053427
v 0.083709 -0.685446 0.448256
v 0.077951 -0.746191 0.060872
v 0.482501 -0.746009 0.054775
v 0.488250 -0.684452 0.441883
v -0.698385 -0.083583 0.203818
v -0.702919 -0.206061 -0.181760
v -1.102952 -0.083089 0.208419
v -1.107487 -0.205567 -0.177159
v -0.700663 0.869490 -0.098900
v -0.705197 0.747012 -0.484478
v -1.109765 0.747506 -0.479877
v -1.105231 0.869984 -0.094299
v -0.079576 -1.713823 0.179038
v -0.070258 -1.597824 -0.208459
v -0.484052 -1.713966 0.169270
v -0.474734 -1.597967 -0.218228
v -0.086838 -0.755803 0.465652
v -0.077520 -0.639803 0.078154
v -0.481996 -0.639947 0.068385
v -0.491314 -0.755946 0.455883
v -0.695731 1.685711 0.213893
v -0.698779 1.817703 -0.168546
v -1.100307 1.687037 0.217574
v -1.103354 1.819028 -0.164865
v -0.079174 0.314839 0.182107
v -0.070850 0.192169 -0.203354
v -0.483670 0.315368 0.173204
v -0.475346 0.192698 -0.212257
v -0.701796 0.740427 -0.112300
v -0.704873 0.868330 -0.495228
v -1.109641 0.842307 -0.494349
v -1.106290 0.756861 -0.108946
v -0.087171 -0.667521 0.483846
v -0.078684 -0.743019 0.099248
v -0.483180 -0.743063 0.090275
v -0.491657 -0.666760 0.474564
v 0.630000 0.356541 0.420000
v 0.630000 1.756541 0.420000
v 0.630000 0.356541 -0.420000
v 0.630000 1.756541 -0.420000
v -0.630000 0.356541 0.420000
v -0.630000 1.756541 0.420000
v -0.630000 0.356541 -0.420000
v -0.630000 1.756541 -0.420000
v 0.336016 1.813407 0.265979
v 0.307449 2.397613 0.399722
v 0.251850 1.942064 -0.313989
v 0.223283 2.526270 -0.180246
v -0.257364 1.767033 0.341804
v -0.285931 2.351239 0.475547
v -0.341530 1.895690 -0.238164
v -0.370097 2.479896 -0.104421
vt 0.151712 0.164304
vt 0.128453 0.121671
vt 0.152804 0.123501
vt 0.067175 0.157952
vt 0.127361 0.162474
vt 0.210807 0.209629
vt 0.150620 0.205107
vt 0.212991 0.128023
vt 0.214083 0.087220
vt 0.153896 0.082698
vt 0.120318 0.196104
vt 0.141703 0.159716
vt 0.141869 0.195827
vt 0.194969 0.159030
vt 0.120152 0.159993
vt 0.066721 0.124568
vt 0.119987 0.123882
vt 0.066887 0.160679
vt 0.067218 0.232901
vt 0.120483 0.232215
vt 0.893013 0.803206
vt 0.953247 0.844041
vt 0.893013 0.844041
vt 0.953247 0.884875
vt 0.893013 0.884875
vt 0.893013 0.925710
vt 0.868643 0.884875
vt 0.808410 0.844041
vt 0.868643 0.844041
vt 0.977617 0.844041
vt 0.977617 0.884875
vt 0.741845 0.545283
vt 0.663028 0.598717
vt 0.663028 0.545283
vt 0.741845 0.652150
vt 0.663028 0.652150
vt 0.741845 0.705584
vt 0.663028 0.705584
vt 0.631139 0.652150
vt 0.552321 0.598717
vt 0.631139 0.598717
vt 0.741845 0.598717
vt 0.773734 0.652150
vt 0.236250 0.170656
vt 0.237342 0.129853
vt 0.045336 0.160957
vt 0.067052 0.196790
vt 0.045501 0.197068
vt 0.094887 0.153073
vt 0.114964 0.123128
vt 0.113861 0.154921
vt 0.049093 0.116713
vt 0.095990 0.121280
vt 0.162963 0.095902
vt 0.161861 0.127695
vt 0.160758 0.159488
vt 0.159655 0.191281
vt 0.112759 0.186714
vt 0.135087 0.158002
vt 0.152601 0.189330
vt 0.134495 0.188340
vt 0.197943 0.161440
vt 0.197352 0.191779
vt 0.089154 0.216230
vt 0.089745 0.185892
vt 0.090336 0.155553
vt 0.090927 0.125215
vt 0.135678 0.127663
vt 0.893013 0.809899
vt 0.820174 0.859280
vt 0.820174 0.809899
vt 0.893013 0.859280
vt 0.820174 0.908661
vt 0.893013 0.958041
vt 0.893013 0.908661
vt 0.922484 0.908660
vt 0.995323 0.859280
vt 0.995323 0.908660
vt 0.790703 0.908661
vt 0.668850 0.601598
vt 0.627314 0.573439
vt 0.668850 0.573439
vt 0.627314 0.629757
vt 0.627314 0.601598
vt 0.668850 0.629757
vt 0.627314 0.657916
vt 0.685655 0.629757
vt 0.727191 0.601598
vt 0.727191 0.629757
vt 0.610509 0.601598
vt 0.114767 0.168293
vt 0.095916 0.220936
vt 0.095916 0.168293
vt 0.143042 0.168293
vt 0.114767 0.220936
vt 0.161893 0.168293
vt 0.143042 0.220936
vt 0.114767 0.136707
vt 0.143042 0.084063
vt 0.143042 0.136707
vt 0.143042 0.252523
vt 0.679363 0.612195
vt 0.705410 0.568551
vt 0.705410 0.612195
vt 0.653316 0.612195
vt 0.679363 0.568551
vt 0.627270 0.612195
vt 0.653316 0.568551
vt 0.679363 0.655839
vt 0.653316 0.699483
vt 0.653316 0.655839
vt 0.653316 0.524907
vt 0.922484 0.859280
vt 0.179732 0.161336
vt 0.180835 0.129543
vt 0.072230 0.154563
vt 0.071639 0.184901
vt 0.685655 0.601598
vt 0.068267 0.117149
vt 0.211899 0.168826
vt 0.195135 0.195141
vt 0.953247 0.803206
vt 0.953247 0.925710
vt 0.808410 0.884875
vt 0.552321 0.652150
vt 0.773734 0.598717
vt 0.047991 0.148506
vt 0.116067 0.091335
vt 0.153193 0.158992
vt 0.133904 0.218678
vt 0.820174 0.958041
vt 0.790703 0.859280
vt 0.668850 0.657916
vt 0.610509 0.629757
vt 0.161893 0.220936
vt 0.114767 0.084063
vt 0.114767 0.252523
vt 0.627270 0.568551
vt 0.679363 0.699483
vt 0.679363 0.524907
vn -0.0277 -0.9504 0.3096
vn 0.0007 0.3097 0.9508
vn 0.9996 -0.0266 0.0079
vn -0.0007 -0.3097 -0.9508
vn -0.9996 0.0266 -0.0079
vn -0.0052 -0.9472 -0.3206
vn 0.0162 -0.3206 0.9471
vn 0.9999 0.0003 -0.0170
vn -0.0162 0.3206 -0.9471
vn -0.9999 -0.0003 0.0170
vn -0.9997 0.0247 -0.0058
vn 0.0244 0.2629 -0.9645
vn 0.9997 -0.0247 0.0061
vn -0.0011 -0.2689 0.9632
vn 0.0223 0.9629 0.2689
vn -0.9999 -0.0018 0.0152
vn -0.0144 -0.2705 -0.9626
vn 0.9999 0.0018 -0.0151
vn 0.0146 0.2565 0.9664
vn -0.0057 0.9640 -0.2659
vn -0.0855 -0.9824 -0.1663
vn 0.0277 0.9504 -0.3096
vn 0.0052 0.9472 0.3206
vn 0.0028 -0.9876 0.1570
vn 0.0023 -0.9531 0.3027
vn 0.0112 0.3027 0.9530
vn -0.9999 0.0012 0.0114
vn -0.0112 -0.3027 -0.9530
vn 0.9999 -0.0012 -0.0114
vn 0.0073 -0.9580 -0.2866
vn -0.0230 -0.2867 0.9577
vn -0.9997 -0.0004 -0.0241
vn 0.0230 0.2867 -0.9577
vn 0.9997 0.0004 0.0241
vn 1.0000 -0.0033 -0.0091
vn -0.0075 0.3254 -0.9455
vn -1.0000 0.0033 0.0094
vn 0.0075 -0.3313 0.9435
vn 0.0061 0.9453 0.3262
vn 0.9998 -0.0013 0.0223
vn 0.0205 -0.3079 -0.9512
vn -0.9998 0.0013 -0.0220
vn -0.0207 0.2934 0.9558
vn 0.0079 0.9529 -0.3031
vn 1.0000 0.0000 0.0000
vn 0.0000 0.0000 -1.0000
vn -1.0000 0.0000 0.0000
vn 0.0000 0.0000 1.0000
vn 0.0000 -1.0000 0.0000
vn 0.0000 1.0000 0.0000
vn 0.9890 0.0773 -0.1264
vn -0.1403 0.2144 -0.9666
vn -0.9890 -0.0773 0.1264
vn 0.1403 -0.2144 0.9666
vn 0.0476 -0.9737 -0.2229
vn -0.0476 0.9737 0.2229
vn -0.0414 -0.9755 -0.2159
vn -0.0023 0.9531 -0.3027
vn -0.0073 0.9580 0.2866
vn -0.0063 -0.9813 0.1925
vn 0.0122 0.2680 -0.9633
vn 0.9997 -0.0248 0.0057
vn -0.0123 -0.2730 0.9619
vn -0.9999 -0.0018 0.0148
vn -0.0138 -0.2707 -0.9626
vn 0.9999 0.0018 -0.0148
vn 0.0139 0.2562 0.9665
vn 0.0102 -0.9656 -0.2597
vn 0.0049 -0.9879 0.1548
vn -0.0226 0.3197 -0.9473
vn -1.0000 0.0032 0.0091
vn -0.0054 -0.3262 0.9453
vn 0.9998 -0.0013 0.0220
vn 0.0211 -0.3077 -0.9512
vn -0.9998 0.0013 -0.0223
vn -0.0214 0.2937 0.9557
vn 0.0602 -0.9466 -0.3167
vn -0.0042 -0.9809 0.1947
s off
f 4/1/1 1/2/1 2/3/1
f 8/4/2 1/2/2 3/5/2
f 4/1/3 8/6/3 3/7/3
f 6/8/4 4/1/4 2/3/4
f 5/9/5 2/3/5 1/10/5
f 10/11/6 11/12/6 9/13/6
f 16/14/7 9/13/7 11/12/7
f 12/15/8 16/16/8 11/17/8
f 10/11/9 15/18/9 12/15/9
f 13/19/10 10/11/10 9/20/10
f 25/21/11 18/22/11 26/23/11
f 26/23/12 20/24/12 27/25/12
f 20/24/13 28/26/13 27/25/13
f 28/27/14 17/28/14 25/29/14
f 20/24/15 17/30/15 19/31/15
f 21/32/16 30/33/16 29/34/16
f 30/33/17 24/35/17 31/36/17
f 31/36/18 23/37/18 32/38/18
f 32/39/19 21/40/19 29/41/19
f 22/42/20 23/43/20 24/35/20
f 28/27/21 26/23/21 27/25/21
f 8/44/22 6/8/22 5/45/22
f 16/46/23 14/47/23 13/48/23
f 32/39/24 30/33/24 31/36/24
f 33/49/25 36/50/25 34/51/25
f 33/49/26 40/52/26 35/53/26
f 36/50/27 40/54/27 39/55/27
f 34/51/28 39/55/28 38/56/28
f 34/51/29 37/57/29 33/58/29
f 42/59/30 43/60/30 44/61/30
f 43/60/31 45/62/31 48/63/31
f 44/61/32 48/64/32 47/65/32
f 44/61/33 46/66/33 42/59/33
f 42/59/34 45/67/34 41/68/34
f 57/69/35 50/70/35 49/71/35
f 58/72/36 52/73/36 50/70/36
f 60/74/37 52/73/37 59/75/37
f 60/76/38 49/77/38 51/78/38
f 51/79/39 50/70/39 52/73/39
f 62/80/40 53/81/40 61/82/40
f 62/80/41 56/83/41 54/84/41
f 63/85/42 55/86/42 56/83/42
f 64/87/43 53/88/43 55/89/43
f 56/83/44 53/90/44 54/84/44
f 67/91/45 66/92/45 65/93/45
f 71/94/46 68/95/46 67/91/46
f 69/96/47 72/97/47 71/94/47
f 65/98/48 70/99/48 69/100/48
f 65/98/49 71/94/49 67/91/49
f 70/101/50 68/95/50 72/97/50
f 75/102/51 74/103/51 73/104/51
f 79/105/52 76/106/52 75/102/52
f 77/107/53 80/108/53 79/105/53
f 73/109/54 78/110/54 77/111/54
f 73/109/55 79/105/55 75/102/55
f 78/112/56 76/106/56 80/108/56
f 59/75/57 57/113/57 60/76/57
f 37/114/58 39/55/58 40/115/58
f 45/116/59 47/65/59 48/117/59
f 64/87/60 62/80/60 61/118/60
f 4/1/1 3/5/1 1/2/1
f 8/4/2 5/119/2 1/2/2
f 4/1/3 7/120/3 8/6/3
f 6/8/4 7/120/4 4/1/4
f 5/9/5 6/8/5 2/3/5
f 10/11/6 12/15/6 11/12/6
f 16/14/7 13/121/7 9/13/7
f 12/15/8 15/18/8 16/16/8
f 10/11/9 14/47/9 15/18/9
f 13/19/10 14/47/10 10/11/10
f 25/21/11 17/122/11 18/22/11
f 26/23/61 18/22/61 20/24/61
f 20/24/62 19/123/62 28/26/62
f 28/27/63 19/124/63 17/28/63
f 20/24/15 18/22/15 17/30/15
f 21/32/64 22/42/64 30/33/64
f 30/33/65 22/42/65 24/35/65
f 31/36/66 24/35/66 23/37/66
f 32/39/67 23/125/67 21/40/67
f 22/42/20 21/126/20 23/43/20
f 28/27/68 25/29/68 26/23/68
f 8/44/22 7/120/22 6/8/22
f 16/46/23 15/18/23 14/47/23
f 32/39/69 29/41/69 30/33/69
f 33/49/25 35/53/25 36/50/25
f 33/49/26 37/127/26 40/52/26
f 36/50/27 35/128/27 40/54/27
f 34/51/28 36/50/28 39/55/28
f 34/51/29 38/56/29 37/57/29
f 42/59/30 41/129/30 43/60/30
f 43/60/31 41/129/31 45/62/31
f 44/61/32 43/130/32 48/64/32
f 44/61/33 47/65/33 46/66/33
f 42/59/34 46/66/34 45/67/34
f 57/69/35 58/72/35 50/70/35
f 58/72/70 59/75/70 52/73/70
f 60/74/71 51/131/71 52/73/71
f 60/76/72 57/113/72 49/77/72
f 51/79/39 49/132/39 50/70/39
f 62/80/73 54/84/73 53/81/73
f 62/80/74 63/85/74 56/83/74
f 63/85/75 64/133/75 55/86/75
f 64/87/76 61/118/76 53/88/76
f 56/83/44 55/134/44 53/90/44
f 67/91/45 68/95/45 66/92/45
f 71/94/46 72/97/46 68/95/46
f 69/96/47 70/135/47 72/97/47
f 65/98/48 66/136/48 70/99/48
f 65/98/49 69/100/49 71/94/49
f 70/101/50 66/137/50 68/95/50
f 75/102/51 76/106/51 74/103/51
f 79/105/52 80/108/52 76/106/52
f 77/107/53 78/138/53 80/108/53
f 73/109/54 74/139/54 78/110/54
f 73/109/55 77/111/55 79/105/55
f 78/112/56 74/140/56 76/106/56
f 59/75/77 58/72/77 57/113/77
f 37/114/58 38/56/58 39/55/58
f 45/116/59 46/66/59 47/65/59
f 64/87/78 63/85/78 62/80/78
