# Blender v2.79 (sub 0) OBJ File: '3DObjectDecoderObjects.blend'
# www.blender.org
o Cube.005_Cube.008
v 0.649256 -0.092144 0.262814
v 0.648856 -0.222125 -0.120332
v 1.053693 -0.102948 0.266057
v 1.053293 -0.232929 -0.117090
v 0.677117 0.854469 -0.058350
v 0.676717 0.724488 -0.441496
v 1.081154 0.713685 -0.438254
v 1.081554 0.843666 -0.055107
v 0.078295 -1.722117 0.104772
v 0.071734 -1.587785 -0.276817
v 0.482830 -1.722002 0.097856
v 0.476269 -1.587670 -0.283733
v 0.083701 -0.778841 0.436742
v 0.077139 -0.644509 0.055153
v 0.481674 -0.644393 0.048237
v 0.488236 -0.778725 0.429826
v 0.696916 1.692549 0.214122
v 0.701979 1.806249 -0.174135
v 1.101379 1.682511 0.216458
v 1.106442 1.796211 -0.171799
v 0.077854 0.300584 0.183511
v 0.072311 0.188130 -0.205105
v 0.482403 0.301362 0.177516
v 0.476860 0.188908 -0.211100
v 0.674731 0.733168 -0.067121
v 0.679711 0.842939 -0.455715
v 1.083608 0.806633 -0.455189
v 1.079523 0.737583 -0.065580
v 0.083911 -0.690382 0.458872
v 0.078192 -0.754108 0.072953
v 0.482742 -0.753920 0.066863
v 0.488452 -0.689350 0.452494
v -0.698377 -0.081273 0.203589
v -0.702915 -0.208087 -0.180584
v -1.102944 -0.080776 0.208205
v -1.107483 -0.207589 -0.175969
v -0.700785 0.868330 -0.109844
v -0.705323 0.741516 -0.494018
v -1.109891 0.742014 -0.489403
v -1.105352 0.868827 -0.105229
v -0.079550 -1.715886 0.177572
v -0.070245 -1.595302 -0.208524
v -0.484026 -1.716029 0.167780
v -0.474721 -1.595445 -0.218316
v -0.087100 -0.761331 0.475513
v -0.077795 -0.640747 0.089417
v -0.482271 -0.640889 0.079625
v -0.491576 -0.761474 0.465721
v -0.695749 1.673640 0.213952
v -0.698738 1.810315 -0.166839
v -1.100324 1.674999 0.217616
v -1.103313 1.811674 -0.163176
v -0.079128 0.307656 0.180721
v -0.070864 0.180131 -0.203162
v -0.483624 0.308213 0.171828
v -0.475360 0.180688 -0.212055
v -0.701968 0.732431 -0.123816
v -0.704988 0.864873 -0.505115
v -1.109764 0.837915 -0.504367
v -1.106458 0.749434 -0.120483
v -0.087446 -0.671967 0.494414
v -0.079010 -0.750453 0.111409
v -0.483507 -0.750492 0.102443
v -0.491931 -0.671169 0.485127
v 0.630000 0.347137 0.420000
v 0.630000 1.747137 0.420000
v 0.630000 0.347137 -0.420000
v 0.630000 1.747137 -0.420000
v -0.630000 0.347137 0.420000
v -0.630000 1.747137 0.420000
v -0.630000 0.347137 -0.420000
v -0.630000 1.747137 -0.420000
v 0.336016 1.804003 0.265979
v 0.307449 2.388209 0.399722
v 0.251850 1.932660 -0.313989
v 0.223283 2.516866 -0.180246
v -0.257364 1.757629 0.341804
v -0.285931 2.341835 0.475547
v -0.341530 1.886286 -0.238164
v -0.370097 2.470492 -0.104421
vt 0.151712 0.164304
vt 0.128453 0.121671
vt 0.152804 0.123501
vt 0.067175 0.157952
vt 0.127361 0.162474
vt 0.211899 0.168826
vt 0.150620 0.205107
vt 0.212991 0.128023
vt 0.214083 0.087220
vt 0.153896 0.082698
vt 0.120318 0.196104
vt 0.141703 0.159716
vt 0.141869 0.195827
vt 0.194969 0.159030
vt 0.120152 0.159993
vt 0.066721 0.124568
vt 0.119987 0.123882
vt 0.066887 0.160679
vt 0.067218 0.232901
vt 0.120483 0.232215
vt 0.893013 0.803206
vt 0.953247 0.844041
vt 0.893013 0.844041
vt 0.953247 0.884875
vt 0.893013 0.884875
vt 0.893013 0.925710
vt 0.868643 0.884875
vt 0.808410 0.844041
vt 0.868643 0.844041
vt 0.977617 0.844041
vt 0.977617 0.884875
vt 0.741845 0.545283
vt 0.663028 0.598717
vt 0.663028 0.545283
vt 0.741845 0.652150
vt 0.663028 0.652150
vt 0.741845 0.705584
vt 0.663028 0.705584
vt 0.631139 0.652150
vt 0.552321 0.598717
vt 0.631139 0.598717
vt 0.741845 0.598717
vt 0.773734 0.652150
vt 0.237342 0.129853
vt 0.236250 0.170656
vt 0.045336 0.160957
vt 0.067052 0.196790
vt 0.045501 0.197068
vt 0.094887 0.153073
vt 0.114964 0.123128
vt 0.113861 0.154921
vt 0.049093 0.116713
vt 0.095990 0.121280
vt 0.162963 0.095902
vt 0.161861 0.127695
vt 0.160758 0.159488
vt 0.159655 0.191281
vt 0.112759 0.186714
vt 0.153193 0.158992
vt 0.134495 0.188340
vt 0.135087 0.158002
vt 0.152601 0.189330
vt 0.197943 0.161440
vt 0.197352 0.191779
vt 0.089154 0.216230
vt 0.089745 0.185892
vt 0.090336 0.155553
vt 0.090927 0.125215
vt 0.135678 0.127663
vt 0.893013 0.809899
vt 0.820174 0.859280
vt 0.820174 0.809899
vt 0.893013 0.859280
vt 0.820174 0.908661
vt 0.893013 0.958041
vt 0.893013 0.908661
vt 0.922484 0.908660
vt 0.995323 0.859280
vt 0.995323 0.908660
vt 0.790703 0.859280
vt 0.668850 0.601598
vt 0.627314 0.573439
vt 0.668850 0.573439
vt 0.627314 0.629757
vt 0.627314 0.601598
vt 0.668850 0.629757
vt 0.627314 0.657916
vt 0.685655 0.629757
vt 0.727191 0.601598
vt 0.727191 0.629757
vt 0.610509 0.629757
vt 0.114767 0.168293
vt 0.095916 0.220936
vt 0.095916 0.168293
vt 0.143042 0.168293
vt 0.114767 0.220936
vt 0.161893 0.168293
vt 0.143042 0.220936
vt 0.114767 0.136707
vt 0.143042 0.084063
vt 0.143042 0.136707
vt 0.143042 0.252523
vt 0.705410 0.612195
vt 0.679363 0.568551
vt 0.705410 0.568551
vt 0.653316 0.612195
vt 0.679363 0.612195
vt 0.627270 0.612195
vt 0.653316 0.568551
vt 0.679363 0.655839
vt 0.653316 0.699483
vt 0.653316 0.655839
vt 0.653316 0.524907
vt 0.922484 0.859280
vt 0.179732 0.161336
vt 0.180835 0.129543
vt 0.071639 0.184901
vt 0.685655 0.601598
vt 0.068267 0.117149
vt 0.210807 0.209629
vt 0.195135 0.195141
vt 0.953247 0.803206
vt 0.953247 0.925710
vt 0.808410 0.884875
vt 0.552321 0.652150
vt 0.773734 0.598717
vt 0.047991 0.148506
vt 0.116067 0.091335
vt 0.133904 0.218678
vt 0.820174 0.958041
vt 0.790703 0.908661
vt 0.668850 0.657916
vt 0.610509 0.601598
vt 0.161893 0.220936
vt 0.114767 0.084063
vt 0.114767 0.252523
vt 0.627270 0.568551
vt 0.679363 0.699483
vt 0.679363 0.524907
vt 0.072230 0.154563
vn -0.0279 -0.9466 0.3212
vn 0.0010 0.3213 0.9470
vn 0.9996 -0.0267 0.0080
vn -0.0010 -0.3213 -0.9470
vn -0.9996 0.0267 -0.0080
vn -0.0054 -0.9433 -0.3320
vn 0.0162 -0.3320 0.9431
vn 0.9999 0.0003 -0.0171
vn -0.0162 0.3320 -0.9431
vn -0.9999 -0.0003 0.0171
vn -0.9997 0.0248 -0.0058
vn 0.0259 0.2747 -0.9612
vn 0.9997 -0.0248 0.0061
vn -0.0006 -0.2813 0.9596
vn 0.0222 0.9594 0.2812
vn -0.9999 -0.0019 0.0151
vn -0.0143 -0.2828 -0.9591
vn 0.9999 0.0019 -0.0151
vn 0.0145 0.2678 0.9634
vn -0.0060 0.9606 -0.2779
vn -0.0879 -0.9807 -0.1747
vn 0.0279 0.9466 -0.3212
vn 0.0054 0.9433 0.3320
vn 0.0029 -0.9863 0.1651
vn 0.0024 -0.9496 0.3134
vn 0.0112 0.3134 0.9495
vn -0.9999 0.0012 0.0114
vn -0.0112 -0.3134 -0.9495
vn 0.9999 -0.0012 -0.0114
vn 0.0076 -0.9546 -0.2979
vn -0.0230 -0.2980 0.9543
vn -0.9997 -0.0004 -0.0242
vn 0.0230 0.2980 -0.9543
vn 0.9997 0.0004 0.0242
vn 1.0000 -0.0034 -0.0091
vn -0.0074 0.3369 -0.9415
vn -1.0000 0.0033 0.0094
vn 0.0074 -0.3431 0.9393
vn 0.0062 0.9412 0.3378
vn 0.9998 -0.0013 0.0223
vn 0.0204 -0.3203 -0.9471
vn -0.9998 0.0013 -0.0220
vn -0.0205 0.3048 0.9522
vn 0.0082 0.9490 -0.3151
vn 1.0000 0.0000 0.0000
vn 0.0000 0.0000 -1.0000
vn -1.0000 0.0000 0.0000
vn 0.0000 0.0000 1.0000
vn 0.0000 -1.0000 0.0000
vn 0.0000 1.0000 0.0000
vn 0.9890 0.0773 -0.1264
vn -0.1403 0.2144 -0.9666
vn -0.9890 -0.0773 0.1264
vn 0.1403 -0.2144 0.9666
vn 0.0476 -0.9737 -0.2229
vn -0.0476 0.9737 0.2229
vn -0.0428 -0.9736 -0.2240
vn -0.0024 0.9496 -0.3134
vn -0.0075 0.9546 0.2979
vn -0.0065 -0.9796 0.2006
vn 0.0125 0.2803 -0.9598
vn 0.9997 -0.0248 0.0058
vn -0.0126 -0.2857 0.9582
vn -0.9999 -0.0019 0.0148
vn -0.0137 -0.2831 -0.9590
vn 0.9999 0.0019 -0.0148
vn 0.0138 0.2675 0.9635
vn 0.0115 -0.9623 -0.2717
vn 0.0051 -0.9866 0.1628
vn -0.0238 0.3307 -0.9434
vn -1.0000 0.0033 0.0090
vn -0.0064 -0.3377 0.9412
vn 0.9998 -0.0013 0.0220
vn 0.0210 -0.3201 -0.9472
vn -0.9998 0.0013 -0.0223
vn -0.0213 0.3051 0.9521
vn 0.0622 -0.9427 -0.3279
vn -0.0044 -0.9792 0.2029
s off
f 4/1/1 1/2/1 2/3/1
f 8/4/2 1/2/2 3/5/2
f 7/6/3 3/7/3 4/1/3
f 6/8/4 4/1/4 2/3/4
f 5/9/5 2/3/5 1/10/5
f 10/11/6 11/12/6 9/13/6
f 16/14/7 9/13/7 11/12/7
f 12/15/8 16/16/8 11/17/8
f 10/11/9 15/18/9 12/15/9
f 13/19/10 10/11/10 9/20/10
f 25/21/11 18/22/11 26/23/11
f 26/23/12 20/24/12 27/25/12
f 20/24/13 28/26/13 27/25/13
f 28/27/14 17/28/14 25/29/14
f 20/24/15 17/30/15 19/31/15
f 21/32/16 30/33/16 29/34/16
f 30/33/17 24/35/17 31/36/17
f 31/36/18 23/37/18 32/38/18
f 32/39/19 21/40/19 29/41/19
f 22/42/20 23/43/20 24/35/20
f 28/27/21 26/23/21 27/25/21
f 7/6/22 5/44/22 8/45/22
f 16/46/23 14/47/23 13/48/23
f 32/39/24 30/33/24 31/36/24
f 33/49/25 36/50/25 34/51/25
f 33/49/26 40/52/26 35/53/26
f 36/50/27 40/54/27 39/55/27
f 36/50/28 38/56/28 34/51/28
f 34/51/29 37/57/29 33/58/29
f 41/59/30 44/60/30 42/61/30
f 43/62/31 45/63/31 48/64/31
f 44/60/32 48/65/32 47/66/32
f 42/61/33 47/66/33 46/67/33
f 42/61/34 45/68/34 41/69/34
f 57/70/35 50/71/35 49/72/35
f 58/73/36 52/74/36 50/71/36
f 60/75/37 52/74/37 59/76/37
f 60/77/38 49/78/38 51/79/38
f 52/74/39 49/80/39 50/71/39
f 62/81/40 53/82/40 61/83/40
f 62/81/41 56/84/41 54/85/41
f 63/86/42 55/87/42 56/84/42
f 64/88/43 53/89/43 55/90/43
f 55/91/44 54/85/44 56/84/44
f 67/92/45 66/93/45 65/94/45
f 71/95/46 68/96/46 67/92/46
f 69/97/47 72/98/47 71/95/47
f 65/99/48 70/100/48 69/101/48
f 65/99/49 71/95/49 67/92/49
f 70/102/50 68/96/50 72/98/50
f 73/103/51 76/104/51 74/105/51
f 79/106/52 76/104/52 75/107/52
f 77/108/53 80/109/53 79/106/53
f 73/110/54 78/111/54 77/112/54
f 73/110/55 79/106/55 75/107/55
f 78/113/56 76/104/56 80/109/56
f 59/76/57 57/114/57 60/77/57
f 37/115/58 39/55/58 40/116/58
f 48/117/59 46/67/59 47/66/59
f 64/88/60 62/81/60 61/118/60
f 4/1/1 3/5/1 1/2/1
f 8/4/2 5/119/2 1/2/2
f 7/6/3 8/120/3 3/7/3
f 6/8/4 7/6/4 4/1/4
f 5/9/5 6/8/5 2/3/5
f 10/11/6 12/15/6 11/12/6
f 16/14/7 13/121/7 9/13/7
f 12/15/8 15/18/8 16/16/8
f 10/11/9 14/47/9 15/18/9
f 13/19/10 14/47/10 10/11/10
f 25/21/11 17/122/11 18/22/11
f 26/23/61 18/22/61 20/24/61
f 20/24/62 19/123/62 28/26/62
f 28/27/63 19/124/63 17/28/63
f 20/24/15 18/22/15 17/30/15
f 21/32/64 22/42/64 30/33/64
f 30/33/65 22/42/65 24/35/65
f 31/36/66 24/35/66 23/37/66
f 32/39/67 23/125/67 21/40/67
f 22/42/20 21/126/20 23/43/20
f 28/27/68 25/29/68 26/23/68
f 7/6/22 6/8/22 5/44/22
f 16/46/23 15/18/23 14/47/23
f 32/39/69 29/41/69 30/33/69
f 33/49/25 35/53/25 36/50/25
f 33/49/26 37/127/26 40/52/26
f 36/50/27 35/128/27 40/54/27
f 36/50/28 39/55/28 38/56/28
f 34/51/29 38/56/29 37/57/29
f 41/59/30 43/62/30 44/60/30
f 43/62/31 41/59/31 45/63/31
f 44/60/32 43/129/32 48/65/32
f 42/61/33 44/60/33 47/66/33
f 42/61/34 46/67/34 45/68/34
f 57/70/35 58/73/35 50/71/35
f 58/73/70 59/76/70 52/74/70
f 60/75/71 51/130/71 52/74/71
f 60/77/72 57/114/72 49/78/72
f 52/74/39 51/131/39 49/80/39
f 62/81/73 54/85/73 53/82/73
f 62/81/74 63/86/74 56/84/74
f 63/86/75 64/132/75 55/87/75
f 64/88/76 61/118/76 53/89/76
f 55/91/44 53/133/44 54/85/44
f 67/92/45 68/96/45 66/93/45
f 71/95/46 72/98/46 68/96/46
f 69/97/47 70/134/47 72/98/47
f 65/99/48 66/135/48 70/100/48
f 65/99/49 69/101/49 71/95/49
f 70/102/50 66/136/50 68/96/50
f 73/103/51 75/107/51 76/104/51
f 79/106/52 80/109/52 76/104/52
f 77/108/53 78/137/53 80/109/53
f 73/110/54 74/138/54 78/111/54
f 73/110/55 77/112/55 79/106/55
f 78/113/56 74/139/56 76/104/56
f 59/76/77 58/73/77 57/114/77
f 37/115/58 38/56/58 39/55/58
f 48/117/59 45/140/59 46/67/59
f 64/88/78 63/86/78 62/81/78
