# Blender v2.79 (sub 0) OBJ File: '3DObjectDecoderObjects.blend'
# www.blender.org
o Cube.005_Cube.008
v 0.648282 -0.145394 0.262241
v 0.650066 -0.174270 -0.141318
v 1.052747 -0.155318 0.264739
v 1.054531 -0.184194 -0.138819
v 0.673188 0.851754 0.191000
v 0.674972 0.822878 -0.212559
v 1.079437 0.812954 -0.210060
v 1.077653 0.841830 0.193498
v 0.078530 -1.677035 0.131654
v 0.072090 -1.640038 -0.271196
v 0.483073 -1.676862 0.125202
v 0.476633 -1.639865 -0.277648
v 0.079562 -0.681224 0.223096
v 0.073122 -0.644227 -0.179755
v 0.477665 -0.644054 -0.186207
v 0.484105 -0.681051 0.216643
v 0.698344 1.886631 0.202048
v 0.700847 1.892099 -0.202501
v 1.102812 1.876814 0.204418
v 1.105315 1.882282 -0.200132
v 0.078455 0.388726 0.204010
v 0.072191 0.378406 -0.200407
v 0.483000 0.389025 0.197735
v 0.476736 0.378705 -0.206682
v 0.674162 0.887017 0.188388
v 0.676654 0.891931 -0.216205
v 1.081048 0.878409 -0.214061
v 1.078673 0.879236 0.190630
v 0.079605 -0.616770 0.228988
v 0.073311 -0.617748 -0.174869
v 0.477856 -0.617562 -0.181162
v 0.484149 -0.616422 0.222640
v -0.698588 -0.126569 0.203361
v -0.702940 -0.166838 -0.199194
v -1.103159 -0.126025 0.207680
v -1.107511 -0.166294 -0.194875
v -0.698314 0.868463 0.103830
v -0.702666 0.828194 -0.298725
v -1.107237 0.828738 -0.294406
v -1.102885 0.869007 0.108149
v -0.079970 -1.670816 0.202455
v -0.070639 -1.646351 -0.201292
v -0.484457 -1.670869 0.193103
v -0.475125 -1.646405 -0.210644
v -0.081501 -0.672644 0.262903
v -0.072169 -0.648180 -0.140844
v -0.476655 -0.648234 -0.150196
v -0.485987 -0.672698 0.253551
v -0.695530 1.861641 0.207077
v -0.699435 1.904992 -0.195163
v -1.100104 1.862455 0.211092
v -1.104008 1.905806 -0.191148
v -0.079895 0.396530 0.203144
v -0.070751 0.370638 -0.200519
v -0.484386 0.396617 0.193975
v -0.475242 0.370725 -0.209687
v -0.698594 0.867400 0.099948
v -0.702507 0.909407 -0.302440
v -1.107140 0.901227 -0.299269
v -1.103143 0.873177 0.103813
v -0.081574 -0.607628 0.266787
v -0.072400 -0.623568 -0.136625
v -0.476890 -0.623602 -0.145809
v -0.486062 -0.607491 0.257539
v 0.630000 0.484183 0.420000
v 0.630000 1.884183 0.420000
v 0.630000 0.484183 -0.420000
v 0.630000 1.884183 -0.420000
v -0.630000 0.484183 0.420000
v -0.630000 1.884183 0.420000
v -0.630000 0.484183 -0.420000
v -0.630000 1.884183 -0.420000
v 0.336016 1.941049 0.265979
v 0.307449 2.525255 0.399722
v 0.251850 2.069706 -0.313989
v 0.223283 2.653912 -0.180246
v -0.257364 1.894675 0.341804
v -0.285931 2.478881 0.475547
v -0.341530 2.023332 -0.238164
v -0.370097 2.607538 -0.104421
vt 0.151712 0.164304
vt 0.128453 0.121671
vt 0.152804 0.123501
vt 0.067175 0.157952
vt 0.127361 0.162474
vt 0.210807 0.209629
vt 0.150620 0.205107
vt 0.212991 0.128023
vt 0.214083 0.087220
vt 0.153896 0.082698
vt 0.120318 0.196104
vt 0.141703 0.159716
vt 0.141869 0.195827
vt 0.194969 0.159030
vt 0.066887 0.160679
vt 0.119987 0.123882
vt 0.120152 0.159993
vt 0.120483 0.232215
vt 0.067052 0.196790
vt 0.893013 0.803206
vt 0.953247 0.844041
vt 0.893013 0.844041
vt 0.953247 0.884875
vt 0.893013 0.884875
vt 0.893013 0.925710
vt 0.868643 0.884875
vt 0.808410 0.844041
vt 0.868643 0.844041
vt 0.977617 0.884875
vt 0.741845 0.545283
vt 0.663028 0.598717
vt 0.663028 0.545283
vt 0.741845 0.652150
vt 0.663028 0.652150
vt 0.741845 0.705584
vt 0.663028 0.705584
vt 0.631139 0.652150
vt 0.552321 0.598717
vt 0.631139 0.598717
vt 0.741845 0.598717
vt 0.773734 0.652150
vt 0.211899 0.168826
vt 0.237342 0.129853
vt 0.236250 0.170656
vt 0.045336 0.160957
vt 0.045501 0.197068
vt 0.094887 0.153073
vt 0.114964 0.123128
vt 0.113861 0.154921
vt 0.049093 0.116713
vt 0.095990 0.121280
vt 0.116067 0.091335
vt 0.161861 0.127695
vt 0.160758 0.159488
vt 0.112759 0.186714
vt 0.159655 0.191281
vt 0.135087 0.158002
vt 0.152601 0.189330
vt 0.134495 0.188340
vt 0.153193 0.158992
vt 0.197352 0.191779
vt 0.133904 0.218678
vt 0.089745 0.185892
vt 0.090336 0.155553
vt 0.135678 0.127663
vt 0.090927 0.125215
vt 0.893013 0.809899
vt 0.820174 0.859280
vt 0.820174 0.809899
vt 0.893013 0.859280
vt 0.820174 0.908661
vt 0.893013 0.958041
vt 0.893013 0.908661
vt 0.922484 0.908660
vt 0.995323 0.859280
vt 0.995323 0.908660
vt 0.790703 0.859280
vt 0.668850 0.601598
vt 0.627314 0.573439
vt 0.668850 0.573439
vt 0.627314 0.629757
vt 0.627314 0.601598
vt 0.668850 0.629757
vt 0.627314 0.657916
vt 0.685655 0.629757
vt 0.727191 0.601598
vt 0.727191 0.629757
vt 0.610509 0.629757
vt 0.114767 0.168293
vt 0.095916 0.220936
vt 0.095916 0.168293
vt 0.143042 0.168293
vt 0.114767 0.220936
vt 0.161893 0.168293
vt 0.143042 0.220936
vt 0.114767 0.136707
vt 0.143042 0.084063
vt 0.143042 0.136707
vt 0.143042 0.252523
vt 0.705410 0.612195
vt 0.679363 0.568551
vt 0.705410 0.568551
vt 0.679363 0.612195
vt 0.653316 0.568551
vt 0.627270 0.612195
vt 0.653316 0.612195
vt 0.653316 0.655839
vt 0.679363 0.699483
vt 0.653316 0.699483
vt 0.679363 0.655839
vt 0.653316 0.524907
vt 0.922484 0.859280
vt 0.179732 0.161336
vt 0.180835 0.129543
vt 0.072230 0.154563
vt 0.071639 0.184901
vt 0.685655 0.601598
vt 0.068267 0.117149
vt 0.195135 0.195141
vt 0.066721 0.124568
vt 0.067218 0.232901
vt 0.953247 0.803206
vt 0.953247 0.925710
vt 0.808410 0.884875
vt 0.977617 0.844041
vt 0.552321 0.652150
vt 0.773734 0.598717
vt 0.047991 0.148506
vt 0.162963 0.095902
vt 0.197943 0.161440
vt 0.089154 0.216230
vt 0.820174 0.958041
vt 0.790703 0.908661
vt 0.668850 0.657916
vt 0.610509 0.601598
vt 0.161893 0.220936
vt 0.114767 0.084063
vt 0.114767 0.252523
vt 0.627270 0.568551
vt 0.679363 0.524907
vn -0.0249 -0.9971 0.0712
vn -0.0044 0.0714 0.9974
vn 0.9997 -0.0245 0.0062
vn 0.0044 -0.0714 -0.9974
vn -0.9997 0.0245 -0.0062
vn -0.0010 -0.9958 -0.0914
vn 0.0159 -0.0914 0.9957
vn 0.9999 0.0004 -0.0159
vn -0.0159 0.0914 -0.9957
vn -0.9999 -0.0004 0.0159
vn -0.9997 0.0243 -0.0059
vn 0.0058 0.0137 -0.9999
vn 0.9997 -0.0242 0.0059
vn -0.0058 -0.0135 0.9999
vn 0.0242 0.9996 0.0137
vn -0.9999 -0.0008 0.0156
vn -0.0155 -0.0256 -0.9996
vn 0.9999 0.0008 -0.0156
vn 0.0157 0.0248 0.9996
vn -0.0011 0.9997 -0.0255
vn -0.0334 -0.9994 0.0018
vn 0.0249 0.9971 -0.0712
vn 0.0010 0.9958 0.0914
vn 0.0005 -1.0000 0.0028
vn -0.0003 -0.9950 0.0995
vn 0.0108 0.0995 0.9950
vn -0.9999 0.0013 0.0107
vn -0.0108 -0.0995 -0.9950
vn 0.9999 -0.0013 -0.0107
vn 0.0015 -0.9982 -0.0604
vn -0.0231 -0.0605 0.9979
vn -0.9997 -0.0001 -0.0231
vn 0.0231 0.0605 -0.9979
vn 0.9997 0.0001 0.0231
vn 0.9999 -0.0020 -0.0099
vn -0.0097 0.1072 -0.9942
vn -0.9999 0.0020 0.0101
vn 0.0096 -0.1078 0.9941
vn 0.0031 0.9942 0.1071
vn 0.9997 -0.0002 0.0227
vn 0.0226 -0.0642 -0.9977
vn -0.9997 0.0002 -0.0227
vn -0.0226 0.0632 0.9977
vn 0.0017 0.9980 -0.0640
vn 1.0000 0.0000 0.0000
vn 0.0000 0.0000 -1.0000
vn -1.0000 0.0000 0.0000
vn 0.0000 0.0000 1.0000
vn 0.0000 -1.0000 0.0000
vn 0.0000 1.0000 0.0000
vn 0.9890 0.0773 -0.1264
vn -0.1403 0.2144 -0.9666
vn -0.9890 -0.0773 0.1264
vn 0.1403 -0.2144 0.9666
vn 0.0476 -0.9737 -0.2229
vn -0.0476 0.9737 0.2229
vn -0.0152 -0.9945 -0.1037
vn 0.0003 0.9950 -0.0995
vn -0.0015 0.9982 0.0604
vn -0.0012 -0.9992 0.0395
vn 0.0062 0.0135 -0.9999
vn 0.9997 -0.0243 0.0059
vn -0.0062 -0.0137 0.9999
vn -0.9999 -0.0007 0.0155
vn 0.9999 0.0007 -0.0155
vn 0.0155 0.0248 0.9996
vn -0.0192 -0.9997 -0.0123
vn 0.0009 -1.0000 0.0024
vn -0.0100 0.1070 -0.9942
vn -0.9999 0.0020 0.0099
vn 0.0080 -0.1071 0.9942
vn 0.0227 -0.0641 -0.9977
vn -0.0228 0.0633 0.9977
vn 0.0196 -0.9974 -0.0696
vn -0.0008 -0.9992 0.0399
s off
f 4/1/1 1/2/1 2/3/1
f 8/4/2 1/2/2 3/5/2
f 4/1/3 8/6/3 3/7/3
f 6/8/4 4/1/4 2/3/4
f 5/9/5 2/3/5 1/10/5
f 10/11/6 11/12/6 9/13/6
f 16/14/7 9/13/7 11/12/7
f 15/15/8 11/16/8 12/17/8
f 10/11/9 15/15/9 12/17/9
f 9/18/10 14/19/10 10/11/10
f 25/20/11 18/21/11 26/22/11
f 26/22/12 20/23/12 27/24/12
f 20/23/13 28/25/13 27/24/13
f 28/26/14 17/27/14 25/28/14
f 18/21/15 19/29/15 20/23/15
f 21/30/16 30/31/16 29/32/16
f 30/31/17 24/33/17 31/34/17
f 31/34/18 23/35/18 32/36/18
f 32/37/19 21/38/19 29/39/19
f 22/40/20 23/41/20 24/33/20
f 28/26/21 26/22/21 27/24/21
f 7/42/22 5/43/22 8/44/22
f 16/45/23 14/19/23 13/46/23
f 32/37/24 30/31/24 31/34/24
f 33/47/25 36/48/25 34/49/25
f 33/47/26 40/50/26 35/51/26
f 35/52/27 39/53/27 36/48/27
f 36/48/28 38/54/28 34/49/28
f 33/55/29 38/54/29 37/56/29
f 42/57/30 43/58/30 44/59/30
f 41/60/31 48/61/31 43/58/31
f 43/62/32 47/63/32 44/59/32
f 44/59/33 46/64/33 42/57/33
f 41/65/34 46/64/34 45/66/34
f 57/67/35 50/68/35 49/69/35
f 58/70/36 52/71/36 50/68/36
f 60/72/37 52/71/37 59/73/37
f 60/74/38 49/75/38 51/76/38
f 52/71/39 49/77/39 50/68/39
f 62/78/40 53/79/40 61/80/40
f 62/78/41 56/81/41 54/82/41
f 63/83/42 55/84/42 56/81/42
f 64/85/43 53/86/43 55/87/43
f 55/88/44 54/82/44 56/81/44
f 67/89/45 66/90/45 65/91/45
f 71/92/46 68/93/46 67/89/46
f 69/94/47 72/95/47 71/92/47
f 65/96/48 70/97/48 69/98/48
f 65/96/49 71/92/49 67/89/49
f 70/99/50 68/93/50 72/95/50
f 73/100/51 76/101/51 74/102/51
f 75/103/52 80/104/52 76/101/52
f 77/105/53 80/104/53 79/106/53
f 77/107/54 74/108/54 78/109/54
f 73/110/55 79/106/55 75/103/55
f 78/111/56 76/101/56 80/104/56
f 60/74/57 58/70/57 57/112/57
f 37/113/58 39/53/58 40/114/58
f 45/115/59 47/63/59 48/116/59
f 64/85/60 62/78/60 61/117/60
f 4/1/1 3/5/1 1/2/1
f 8/4/2 5/118/2 1/2/2
f 4/1/3 7/42/3 8/6/3
f 6/8/4 7/42/4 4/1/4
f 5/9/5 6/8/5 2/3/5
f 10/11/6 12/17/6 11/12/6
f 16/14/7 13/119/7 9/13/7
f 15/15/8 16/120/8 11/16/8
f 10/11/9 14/19/9 15/15/9
f 9/18/10 13/121/10 14/19/10
f 25/20/11 17/122/11 18/21/11
f 26/22/61 18/21/61 20/23/61
f 20/23/62 19/123/62 28/25/62
f 28/26/63 19/124/63 17/27/63
f 18/21/15 17/125/15 19/29/15
f 21/30/64 22/40/64 30/31/64
f 30/31/17 22/40/17 24/33/17
f 31/34/65 24/33/65 23/35/65
f 32/37/66 23/126/66 21/38/66
f 22/40/20 21/127/20 23/41/20
f 28/26/67 25/28/67 26/22/67
f 7/42/22 6/8/22 5/43/22
f 16/45/23 15/15/23 14/19/23
f 32/37/68 29/39/68 30/31/68
f 33/47/25 35/51/25 36/48/25
f 33/47/26 37/128/26 40/50/26
f 35/52/27 40/129/27 39/53/27
f 36/48/28 39/53/28 38/54/28
f 33/55/29 34/49/29 38/54/29
f 42/57/30 41/60/30 43/58/30
f 41/60/31 45/130/31 48/61/31
f 43/62/32 48/131/32 47/63/32
f 44/59/33 47/63/33 46/64/33
f 41/65/34 42/57/34 46/64/34
f 57/67/35 58/70/35 50/68/35
f 58/70/69 59/73/69 52/71/69
f 60/72/70 51/132/70 52/71/70
f 60/74/71 57/112/71 49/75/71
f 52/71/39 51/133/39 49/77/39
f 62/78/40 54/82/40 53/79/40
f 62/78/72 63/83/72 56/81/72
f 63/83/42 64/134/42 55/84/42
f 64/85/73 61/117/73 53/86/73
f 55/88/44 53/135/44 54/82/44
f 67/89/45 68/93/45 66/90/45
f 71/92/46 72/95/46 68/93/46
f 69/94/47 70/136/47 72/95/47
f 65/96/48 66/137/48 70/97/48
f 65/96/49 69/98/49 71/92/49
f 70/99/50 66/138/50 68/93/50
f 73/100/51 75/103/51 76/101/51
f 75/103/52 79/106/52 80/104/52
f 77/105/53 78/139/53 80/104/53
f 77/107/54 73/110/54 74/108/54
f 73/110/55 77/107/55 79/106/55
f 78/111/56 74/140/56 76/101/56
f 60/74/74 59/73/74 58/70/74
f 37/113/58 38/54/58 39/53/58
f 45/115/59 46/64/59 47/63/59
f 64/85/75 63/83/75 62/78/75
