# Blender v2.79 (sub 0) OBJ File: '3DObjectDecoderObjects.blend'
# www.blender.org
o Cube.005_Cube.008
v 0.649268 -0.091537 0.262742
v 0.648841 -0.222653 -0.120018
v 1.053705 -0.102354 0.265995
v 1.053277 -0.233470 -0.116764
v 0.677168 0.854119 -0.061229
v 0.676740 0.723002 -0.443988
v 1.081177 0.712185 -0.440735
v 1.081604 0.843301 -0.057975
v 0.078292 -1.722617 0.104383
v 0.071731 -1.587155 -0.276806
v 0.482827 -1.722501 0.097461
v 0.476266 -1.587038 -0.283728
v 0.083748 -0.780329 0.439148
v 0.077187 -0.644866 0.057958
v 0.481722 -0.644750 0.051036
v 0.488283 -0.780213 0.432225
v 0.696898 1.689529 0.214168
v 0.701993 1.804446 -0.173729
v 1.101360 1.679485 0.216507
v 1.106456 1.794402 -0.171391
v 0.077845 0.298784 0.183192
v 0.072314 0.185143 -0.205078
v 0.482394 0.299569 0.177200
v 0.476864 0.185927 -0.211071
v 0.674739 0.731035 -0.070082
v 0.679750 0.841985 -0.458321
v 1.083641 0.805419 -0.457813
v 1.079534 0.735583 -0.068546
v 0.083960 -0.691613 0.461465
v 0.078251 -0.756069 0.075914
v 0.482801 -0.755880 0.069826
v 0.488501 -0.690572 0.455086
v -0.698375 -0.080707 0.203529
v -0.702914 -0.208582 -0.180293
v -1.102943 -0.080208 0.208148
v -1.107482 -0.208084 -0.175674
v -0.700814 0.868026 -0.112530
v -0.705354 0.740150 -0.496351
v -1.109921 0.740648 -0.491733
v -1.105382 0.868524 -0.107911
v -0.079543 -1.716390 0.177209
v -0.070242 -1.594684 -0.208535
v -0.484019 -1.716533 0.167410
v -0.474717 -1.594826 -0.218333
v -0.087164 -0.762705 0.477922
v -0.077862 -0.640998 0.092179
v -0.482338 -0.641141 0.082380
v -0.491639 -0.762847 0.468124
v -0.695753 1.670637 0.213962
v -0.698728 1.808460 -0.166416
v -1.100329 1.672004 0.217621
v -1.103303 1.809827 -0.162757
v -0.079117 0.305851 0.180376
v -0.070868 0.177138 -0.203110
v -0.483613 0.306414 0.171487
v -0.475364 0.177701 -0.212000
v -0.702010 0.730451 -0.126643
v -0.705016 0.864005 -0.507533
v -1.109794 0.836818 -0.506818
v -1.106500 0.747594 -0.123315
v -0.087513 -0.673077 0.496996
v -0.079090 -0.752295 0.114390
v -0.483587 -0.752332 0.105427
v -0.491998 -0.672270 0.487708
v 0.630000 0.344790 0.420000
v 0.630000 1.744789 0.420000
v 0.630000 0.344790 -0.420000
v 0.630000 1.744789 -0.420000
v -0.630000 0.344790 0.420000
v -0.630000 1.744789 0.420000
v -0.630000 0.344790 -0.420000
v -0.630000 1.744789 -0.420000
v 0.336016 1.801655 0.265979
v 0.307449 2.385861 0.399722
v 0.251850 1.930313 -0.313989
v 0.223283 2.514518 -0.180246
v -0.257364 1.755281 0.341804
v -0.285931 2.339487 0.475547
v -0.341530 1.883938 -0.238164
v -0.370097 2.468144 -0.104421
vt 0.151712 0.164304
vt 0.128453 0.121671
vt 0.152804 0.123501
vt 0.067175 0.157952
vt 0.127361 0.162474
vt 0.210807 0.209629
vt 0.150620 0.205107
vt 0.212991 0.128023
vt 0.214083 0.087220
vt 0.153896 0.082698
vt 0.120318 0.196104
vt 0.141703 0.159716
vt 0.141869 0.195827
vt 0.194969 0.159030
vt 0.120152 0.159993
vt 0.066721 0.124568
vt 0.119987 0.123882
vt 0.066887 0.160679
vt 0.067218 0.232901
vt 0.120483 0.232215
vt 0.893013 0.803206
vt 0.953247 0.844041
vt 0.893013 0.844041
vt 0.953247 0.884875
vt 0.893013 0.884875
vt 0.893013 0.925710
vt 0.868643 0.884875
vt 0.808410 0.844041
vt 0.868643 0.844041
vt 0.977617 0.844041
vt 0.977617 0.884875
vt 0.741845 0.545283
vt 0.663028 0.598717
vt 0.663028 0.545283
vt 0.741845 0.652150
vt 0.663028 0.652150
vt 0.741845 0.705584
vt 0.663028 0.705584
vt 0.631139 0.652150
vt 0.552321 0.598717
vt 0.631139 0.598717
vt 0.741845 0.598717
vt 0.773734 0.652150
vt 0.211899 0.168826
vt 0.237342 0.129853
vt 0.236250 0.170656
vt 0.045336 0.160957
vt 0.067052 0.196790
vt 0.045501 0.197068
vt 0.094887 0.153073
vt 0.114964 0.123128
vt 0.113861 0.154921
vt 0.049093 0.116713
vt 0.095990 0.121280
vt 0.162963 0.095902
vt 0.161861 0.127695
vt 0.160758 0.159488
vt 0.159655 0.191281
vt 0.112759 0.186714
vt 0.135087 0.158002
vt 0.152601 0.189330
vt 0.134495 0.188340
vt 0.153193 0.158992
vt 0.197352 0.191779
vt 0.089154 0.216230
vt 0.089745 0.185892
vt 0.090336 0.155553
vt 0.090927 0.125215
vt 0.135678 0.127663
vt 0.893013 0.809899
vt 0.820174 0.859280
vt 0.820174 0.809899
vt 0.893013 0.859280
vt 0.820174 0.908661
vt 0.893013 0.958041
vt 0.893013 0.908661
vt 0.922484 0.908660
vt 0.995323 0.859280
vt 0.995323 0.908660
vt 0.790703 0.859280
vt 0.668850 0.601598
vt 0.627314 0.573439
vt 0.668850 0.573439
vt 0.627314 0.629757
vt 0.627314 0.601598
vt 0.668850 0.629757
vt 0.627314 0.657916
vt 0.685655 0.629757
vt 0.727191 0.601598
vt 0.727191 0.629757
vt 0.610509 0.629757
vt 0.114767 0.168293
vt 0.095916 0.220936
vt 0.095916 0.168293
vt 0.143042 0.168293
vt 0.114767 0.220936
vt 0.161893 0.168293
vt 0.143042 0.220936
vt 0.114767 0.136707
vt 0.143042 0.084063
vt 0.143042 0.136707
vt 0.143042 0.252523
vt 0.679363 0.612195
vt 0.705410 0.568551
vt 0.705410 0.612195
vt 0.653316 0.568551
vt 0.679363 0.568551
vt 0.627270 0.612195
vt 0.653316 0.612195
vt 0.653316 0.655839
vt 0.679363 0.699483
vt 0.653316 0.699483
vt 0.679363 0.655839
vt 0.653316 0.524907
vt 0.922484 0.859280
vt 0.179732 0.161336
vt 0.180835 0.129543
vt 0.072230 0.154563
vt 0.071639 0.184901
vt 0.685655 0.601598
vt 0.068267 0.117149
vt 0.195135 0.195141
vt 0.953247 0.803206
vt 0.953247 0.925710
vt 0.808410 0.884875
vt 0.552321 0.652150
vt 0.773734 0.598717
vt 0.047991 0.148506
vt 0.116067 0.091335
vt 0.197943 0.161440
vt 0.133904 0.218678
vt 0.820174 0.958041
vt 0.790703 0.908661
vt 0.668850 0.657916
vt 0.610509 0.601598
vt 0.161893 0.220936
vt 0.114767 0.084063
vt 0.114767 0.252523
vt 0.627270 0.568551
vt 0.679363 0.524907
vn -0.0279 -0.9457 0.3240
vn 0.0011 0.3241 0.9460
vn 0.9996 -0.0267 0.0080
vn -0.0011 -0.3241 -0.9460
vn -0.9996 0.0267 -0.0080
vn -0.0055 -0.9423 -0.3348
vn 0.0162 -0.3348 0.9421
vn 0.9999 0.0003 -0.0171
vn -0.0162 0.3348 -0.9421
vn -0.9999 -0.0003 0.0171
vn -0.9997 0.0248 -0.0058
vn 0.0263 0.2775 -0.9604
vn 0.9997 -0.0248 0.0061
vn -0.0004 -0.2843 0.9587
vn 0.0222 0.9585 0.2842
vn -0.9999 -0.0019 0.0151
vn -0.0143 -0.2859 -0.9582
vn 0.9999 0.0019 -0.0151
vn 0.0145 0.2706 0.9626
vn -0.0060 0.9597 -0.2808
vn -0.0885 -0.9803 -0.1768
vn 0.0279 0.9457 -0.3240
vn 0.0055 0.9423 0.3348
vn 0.0030 -0.9859 0.1671
vn 0.0024 -0.9487 0.3161
vn 0.0112 0.3161 0.9487
vn -0.9999 0.0012 0.0114
vn -0.0112 -0.3161 -0.9487
vn 0.9999 -0.0012 -0.0114
vn 0.0076 -0.9537 -0.3007
vn -0.0230 -0.3008 0.9534
vn -0.9997 -0.0004 -0.0242
vn 0.0230 0.3008 -0.9534
vn 0.9997 0.0004 0.0242
vn 1.0000 -0.0034 -0.0090
vn -0.0074 0.3397 -0.9405
vn -1.0000 0.0034 0.0094
vn 0.0073 -0.3461 0.9382
vn 0.0063 0.9402 0.3406
vn 0.9998 -0.0014 0.0223
vn 0.0203 -0.3234 -0.9461
vn -0.9998 0.0013 -0.0220
vn -0.0205 0.3076 0.9513
vn 0.0083 0.9480 -0.3180
vn 1.0000 0.0000 0.0000
vn 0.0000 0.0000 -1.0000
vn -1.0000 0.0000 0.0000
vn 0.0000 0.0000 1.0000
vn 0.0000 -1.0000 0.0000
vn 0.0000 1.0000 0.0000
vn 0.9890 0.0773 -0.1264
vn -0.1403 0.2144 -0.9666
vn -0.9890 -0.0773 0.1264
vn 0.1403 -0.2144 0.9666
vn 0.0476 -0.9737 -0.2229
vn -0.0476 0.9737 0.2229
vn -0.0431 -0.9732 -0.2260
vn -0.0024 0.9487 -0.3161
vn -0.0076 0.9537 0.3007
vn -0.0066 -0.9792 0.2026
vn 0.0126 0.2833 -0.9590
vn 0.9997 -0.0249 0.0058
vn -0.0127 -0.2888 0.9573
vn 0.0222 0.9585 0.2843
vn -0.9999 -0.0019 0.0148
vn -0.0136 -0.2861 -0.9581
vn 0.9999 0.0019 -0.0148
vn 0.0137 0.2703 0.9627
vn 0.0118 -0.9615 -0.2746
vn 0.0051 -0.9863 0.1648
vn 1.0000 -0.0034 -0.0091
vn -0.0241 0.3334 -0.9425
vn -1.0000 0.0033 0.0090
vn -0.0067 -0.3406 0.9402
vn 0.9998 -0.0013 0.0220
vn 0.0210 -0.3231 -0.9461
vn -0.9998 0.0014 -0.0223
vn -0.0212 0.3078 0.9512
vn 0.0627 -0.9417 -0.3307
vn -0.0044 -0.9788 0.2049
s off
f 4/1/1 1/2/1 2/3/1
f 8/4/2 1/2/2 3/5/2
f 4/1/3 8/6/3 3/7/3
f 6/8/4 4/1/4 2/3/4
f 5/9/5 2/3/5 1/10/5
f 10/11/6 11/12/6 9/13/6
f 16/14/7 9/13/7 11/12/7
f 12/15/8 16/16/8 11/17/8
f 10/11/9 15/18/9 12/15/9
f 13/19/10 10/11/10 9/20/10
f 25/21/11 18/22/11 26/23/11
f 26/23/12 20/24/12 27/25/12
f 20/24/13 28/26/13 27/25/13
f 28/27/14 17/28/14 25/29/14
f 20/24/15 17/30/15 19/31/15
f 21/32/16 30/33/16 29/34/16
f 30/33/17 24/35/17 31/36/17
f 31/36/18 23/37/18 32/38/18
f 32/39/19 21/40/19 29/41/19
f 22/42/20 23/43/20 24/35/20
f 28/27/21 26/23/21 27/25/21
f 7/44/22 5/45/22 8/46/22
f 16/47/23 14/48/23 13/49/23
f 32/39/24 30/33/24 31/36/24
f 33/50/25 36/51/25 34/52/25
f 33/50/26 40/53/26 35/54/26
f 36/51/27 40/55/27 39/56/27
f 36/51/28 38/57/28 34/52/28
f 34/52/29 37/58/29 33/59/29
f 42/60/30 43/61/30 44/62/30
f 41/63/31 48/64/31 43/61/31
f 44/62/32 48/65/32 47/66/32
f 44/62/33 46/67/33 42/60/33
f 42/60/34 45/68/34 41/69/34
f 57/70/35 50/71/35 49/72/35
f 58/73/36 52/74/36 50/71/36
f 60/75/37 52/74/37 59/76/37
f 60/77/38 49/78/38 51/79/38
f 52/74/39 49/80/39 50/71/39
f 62/81/40 53/82/40 61/83/40
f 62/81/41 56/84/41 54/85/41
f 63/86/42 55/87/42 56/84/42
f 64/88/43 53/89/43 55/90/43
f 55/91/44 54/85/44 56/84/44
f 67/92/45 66/93/45 65/94/45
f 71/95/46 68/96/46 67/92/46
f 69/97/47 72/98/47 71/95/47
f 65/99/48 70/100/48 69/101/48
f 65/99/49 71/95/49 67/92/49
f 70/102/50 68/96/50 72/98/50
f 75/103/51 74/104/51 73/105/51
f 75/103/52 80/106/52 76/107/52
f 77/108/53 80/106/53 79/109/53
f 77/110/54 74/111/54 78/112/54
f 73/113/55 79/109/55 75/103/55
f 78/114/56 76/107/56 80/106/56
f 59/76/57 57/115/57 60/77/57
f 37/116/58 39/56/58 40/117/58
f 45/118/59 47/66/59 48/119/59
f 64/88/60 62/81/60 61/120/60
f 4/1/1 3/5/1 1/2/1
f 8/4/2 5/121/2 1/2/2
f 4/1/3 7/44/3 8/6/3
f 6/8/4 7/44/4 4/1/4
f 5/9/5 6/8/5 2/3/5
f 10/11/6 12/15/6 11/12/6
f 16/14/7 13/122/7 9/13/7
f 12/15/8 15/18/8 16/16/8
f 10/11/9 14/48/9 15/18/9
f 13/19/10 14/48/10 10/11/10
f 25/21/11 17/123/11 18/22/11
f 26/23/61 18/22/61 20/24/61
f 20/24/62 19/124/62 28/26/62
f 28/27/63 19/125/63 17/28/63
f 20/24/64 18/22/64 17/30/64
f 21/32/65 22/42/65 30/33/65
f 30/33/66 22/42/66 24/35/66
f 31/36/67 24/35/67 23/37/67
f 32/39/68 23/126/68 21/40/68
f 22/42/20 21/127/20 23/43/20
f 28/27/69 25/29/69 26/23/69
f 7/44/22 6/8/22 5/45/22
f 16/47/23 15/18/23 14/48/23
f 32/39/70 29/41/70 30/33/70
f 33/50/25 35/54/25 36/51/25
f 33/50/26 37/128/26 40/53/26
f 36/51/27 35/129/27 40/55/27
f 36/51/28 39/56/28 38/57/28
f 34/52/29 38/57/29 37/58/29
f 42/60/30 41/63/30 43/61/30
f 41/63/31 45/130/31 48/64/31
f 44/62/32 43/131/32 48/65/32
f 44/62/33 47/66/33 46/67/33
f 42/60/34 46/67/34 45/68/34
f 57/70/71 58/73/71 50/71/71
f 58/73/72 59/76/72 52/74/72
f 60/75/73 51/132/73 52/74/73
f 60/77/74 57/115/74 49/78/74
f 52/74/39 51/133/39 49/80/39
f 62/81/75 54/85/75 53/82/75
f 62/81/76 63/86/76 56/84/76
f 63/86/77 64/134/77 55/87/77
f 64/88/78 61/120/78 53/89/78
f 55/91/44 53/135/44 54/85/44
f 67/92/45 68/96/45 66/93/45
f 71/95/46 72/98/46 68/96/46
f 69/97/47 70/136/47 72/98/47
f 65/99/48 66/137/48 70/100/48
f 65/99/49 69/101/49 71/95/49
f 70/102/50 66/138/50 68/96/50
f 75/103/51 76/107/51 74/104/51
f 75/103/52 79/109/52 80/106/52
f 77/108/53 78/139/53 80/106/53
f 77/110/54 73/113/54 74/111/54
f 73/113/55 77/110/55 79/109/55
f 78/114/56 74/140/56 76/107/56
f 59/76/79 58/73/79 57/115/79
f 37/116/58 38/57/58 39/56/58
f 45/118/59 46/67/59 47/66/59
f 64/88/80 63/86/80 62/81/80
