# Blender v2.79 (sub 0) OBJ File: '3DObjectDecoderObjects.blend'
# www.blender.org
o Cube.005_Cube.008
v 0.648272 -0.145974 0.262158
v 0.650079 -0.173715 -0.141480
v 1.052737 -0.155891 0.264651
v 1.054544 -0.183633 -0.138987
v 0.673148 0.851371 0.193723
v 0.674955 0.823630 -0.209915
v 1.079420 0.813712 -0.207423
v 1.077613 0.841454 0.196215
v 0.078532 -1.676548 0.131868
v 0.072095 -1.640557 -0.271074
v 0.483075 -1.676374 0.125420
v 0.476638 -1.640382 -0.277522
v 0.079519 -0.680513 0.220826
v 0.073082 -0.644521 -0.182116
v 0.477625 -0.644346 -0.188564
v 0.484062 -0.680338 0.214378
v 0.698359 1.888018 0.201828
v 0.700835 1.892272 -0.202736
v 1.102827 1.878200 0.204200
v 1.105303 1.882455 -0.200364
v 0.078460 0.388981 0.204153
v 0.072191 0.379715 -0.200290
v 0.483005 0.389276 0.197874
v 0.476736 0.380010 -0.206568
v 0.674157 0.888367 0.191166
v 0.676623 0.892106 -0.213438
v 1.081022 0.878837 -0.211276
v 1.078665 0.880447 0.193419
v 0.079560 -0.616325 0.226549
v 0.073262 -0.616656 -0.177357
v 0.477808 -0.616469 -0.183653
v 0.484104 -0.615983 0.220201
v -0.698591 -0.126969 0.203314
v -0.702940 -0.166456 -0.199318
v -1.103162 -0.126424 0.207631
v -1.107511 -0.165911 -0.195002
v -0.698292 0.868254 0.105716
v -0.702641 0.828767 -0.296916
v -1.107212 0.829312 -0.292600
v -1.102863 0.868799 0.110033
v -0.079973 -1.670337 0.202648
v -0.070644 -1.646852 -0.201157
v -0.484460 -1.670389 0.193299
v -0.475130 -1.646903 -0.210506
v -0.081443 -0.672022 0.260677
v -0.072113 -0.648537 -0.143128
v -0.476599 -0.648589 -0.152477
v -0.485929 -0.672074 0.251328
v -0.695530 1.862857 0.206963
v -0.699440 1.905367 -0.195366
v -1.100103 1.863667 0.210981
v -1.104014 1.906177 -0.191348
v -0.079901 0.396800 0.203304
v -0.070752 0.371942 -0.200423
v -0.484392 0.396883 0.194132
v -0.475242 0.372025 -0.209595
v -0.698564 0.868394 0.101914
v -0.702483 0.909586 -0.300561
v -1.107115 0.901576 -0.297369
v -1.103114 0.874071 0.105785
v -0.081513 -0.607271 0.264406
v -0.072334 -0.622575 -0.139080
v -0.476825 -0.622608 -0.148267
v -0.486001 -0.607140 0.255158
v 0.630000 0.484960 0.420000
v 0.630000 1.884960 0.420000
v 0.630000 0.484960 -0.420000
v 0.630000 1.884960 -0.420000
v -0.630000 0.484960 0.420000
v -0.630000 1.884960 0.420000
v -0.630000 0.484960 -0.420000
v -0.630000 1.884960 -0.420000
v 0.336016 1.941826 0.265979
v 0.307449 2.526031 0.399722
v 0.251850 2.070483 -0.313989
v 0.223283 2.654689 -0.180246
v -0.257364 1.895451 0.341804
v -0.285931 2.479657 0.475547
v -0.341530 2.024108 -0.238164
v -0.370097 2.608315 -0.104421
vt 0.151712 0.164304
vt 0.128453 0.121671
vt 0.152804 0.123501
vt 0.067175 0.157952
vt 0.127361 0.162474
vt 0.210807 0.209629
vt 0.150620 0.205107
vt 0.212991 0.128023
vt 0.214083 0.087220
vt 0.153896 0.082698
vt 0.120318 0.196104
vt 0.141703 0.159716
vt 0.141869 0.195827
vt 0.194969 0.159030
vt 0.066887 0.160679
vt 0.119987 0.123882
vt 0.120152 0.159993
vt 0.120483 0.232215
vt 0.067052 0.196790
vt 0.893013 0.803206
vt 0.953247 0.844041
vt 0.893013 0.844041
vt 0.953247 0.884875
vt 0.893013 0.884875
vt 0.893013 0.925710
vt 0.868643 0.884875
vt 0.808410 0.844041
vt 0.868643 0.844041
vt 0.977617 0.844041
vt 0.977617 0.884875
vt 0.741845 0.545283
vt 0.663028 0.598717
vt 0.663028 0.545283
vt 0.741845 0.652150
vt 0.663028 0.652150
vt 0.741845 0.705584
vt 0.663028 0.705584
vt 0.631139 0.652150
vt 0.552321 0.598717
vt 0.631139 0.598717
vt 0.741845 0.598717
vt 0.773734 0.652150
vt 0.236250 0.170656
vt 0.237342 0.129853
vt 0.045336 0.160957
vt 0.045501 0.197068
vt 0.094887 0.153073
vt 0.114964 0.123128
vt 0.113861 0.154921
vt 0.049093 0.116713
vt 0.095990 0.121280
vt 0.116067 0.091335
vt 0.161861 0.127695
vt 0.160758 0.159488
vt 0.112759 0.186714
vt 0.159655 0.191281
vt 0.135087 0.158002
vt 0.152601 0.189330
vt 0.134495 0.188340
vt 0.197943 0.161440
vt 0.197352 0.191779
vt 0.133904 0.218678
vt 0.089745 0.185892
vt 0.090336 0.155553
vt 0.135678 0.127663
vt 0.090927 0.125215
vt 0.893013 0.809899
vt 0.820174 0.859280
vt 0.820174 0.809899
vt 0.893013 0.859280
vt 0.820174 0.908661
vt 0.893013 0.958041
vt 0.893013 0.908661
vt 0.922484 0.908660
vt 0.995323 0.859280
vt 0.995323 0.908660
vt 0.790703 0.859280
vt 0.668850 0.601598
vt 0.627314 0.573439
vt 0.668850 0.573439
vt 0.627314 0.629757
vt 0.627314 0.601598
vt 0.668850 0.629757
vt 0.627314 0.657916
vt 0.685655 0.629757
vt 0.727191 0.601598
vt 0.727191 0.629757
vt 0.610509 0.629757
vt 0.114767 0.168293
vt 0.095916 0.220936
vt 0.095916 0.168293
vt 0.143042 0.168293
vt 0.114767 0.220936
vt 0.161893 0.168293
vt 0.143042 0.220936
vt 0.114767 0.136707
vt 0.143042 0.084063
vt 0.143042 0.136707
vt 0.143042 0.252523
vt 0.705410 0.612195
vt 0.679363 0.568551
vt 0.705410 0.568551
vt 0.653316 0.612195
vt 0.679363 0.612195
vt 0.627270 0.612195
vt 0.653316 0.568551
vt 0.679363 0.655839
vt 0.653316 0.699483
vt 0.653316 0.655839
vt 0.653316 0.524907
vt 0.922484 0.859280
vt 0.179732 0.161336
vt 0.180835 0.129543
vt 0.072230 0.154563
vt 0.071639 0.184901
vt 0.685655 0.601598
vt 0.068267 0.117149
vt 0.211899 0.168826
vt 0.195135 0.195141
vt 0.066721 0.124568
vt 0.067218 0.232901
vt 0.953247 0.803206
vt 0.953247 0.925710
vt 0.808410 0.884875
vt 0.552321 0.652150
vt 0.773734 0.598717
vt 0.047991 0.148506
vt 0.162963 0.095902
vt 0.153193 0.158992
vt 0.089154 0.216230
vt 0.820174 0.958041
vt 0.790703 0.908661
vt 0.668850 0.657916
vt 0.610509 0.601598
vt 0.161893 0.220936
vt 0.114767 0.084063
vt 0.114767 0.252523
vt 0.627270 0.568551
vt 0.679363 0.699483
vt 0.679363 0.524907
vn -0.0249 -0.9973 0.0684
vn -0.0045 0.0686 0.9976
vn 0.9997 -0.0245 0.0062
vn 0.0045 -0.0686 -0.9976
vn -0.9997 0.0245 -0.0062
vn -0.0010 -0.9960 -0.0890
vn 0.0159 -0.0890 0.9959
vn 0.9999 0.0004 -0.0159
vn -0.0159 0.0890 -0.9959
vn -0.9999 -0.0004 0.0159
vn -0.9997 0.0243 -0.0059
vn 0.0057 0.0107 -0.9999
vn 0.9997 -0.0243 0.0059
vn -0.0058 -0.0105 0.9999
vn 0.0242 0.9997 0.0107
vn -0.9999 -0.0007 0.0156
vn -0.0155 -0.0230 -0.9996
vn 0.9999 0.0007 -0.0156
vn 0.0157 0.0223 0.9996
vn -0.0011 0.9997 -0.0229
vn -0.0328 -0.9995 0.0038
vn 0.0249 0.9973 -0.0684
vn 0.0010 0.9960 0.0890
vn 0.0005 -1.0000 0.0012
vn -0.0003 -0.9952 0.0976
vn 0.0107 0.0976 0.9952
vn -0.9999 0.0013 0.0107
vn -0.0107 -0.0976 -0.9952
vn 0.9999 -0.0013 -0.0107
vn 0.0015 -0.9983 -0.0580
vn -0.0231 -0.0580 0.9980
vn -0.9997 -0.0001 -0.0231
vn 0.0231 0.0580 -0.9980
vn 0.9997 0.0001 0.0231
vn 0.9999 -0.0020 -0.0099
vn -0.0097 0.1051 -0.9944
vn -0.9999 0.0020 0.0101
vn 0.0097 -0.1057 0.9943
vn 0.0030 0.9945 0.1050
vn 0.9997 -0.0002 0.0228
vn 0.0226 -0.0616 -0.9978
vn -0.9997 0.0002 -0.0227
vn -0.0226 0.0607 0.9979
vn 0.0016 0.9981 -0.0614
vn 1.0000 0.0000 0.0000
vn 0.0000 0.0000 -1.0000
vn -1.0000 0.0000 0.0000
vn 0.0000 0.0000 1.0000
vn 0.0000 -1.0000 0.0000
vn 0.0000 1.0000 0.0000
vn 0.9890 0.0773 -0.1264
vn -0.1403 0.2144 -0.9666
vn -0.9890 -0.0773 0.1264
vn 0.1403 -0.2144 0.9666
vn 0.0476 -0.9737 -0.2229
vn -0.0476 0.9737 0.2229
vn -0.0149 -0.9947 -0.1017
vn 0.0003 0.9952 -0.0976
vn -0.0015 0.9983 0.0580
vn -0.0012 -0.9993 0.0379
vn 0.0061 0.0106 -0.9999
vn -0.0061 -0.0107 0.9999
vn -0.9999 -0.0007 0.0155
vn 0.9999 0.0007 -0.0155
vn 0.0155 0.0222 0.9996
vn -0.0195 -0.9998 -0.0094
vn 0.0009 -1.0000 0.0008
vn -0.0099 0.1050 -0.9944
vn -0.9999 0.0020 0.0099
vn 0.0080 -0.1051 0.9944
vn 0.9997 -0.0002 0.0227
vn 0.0227 -0.0616 -0.9978
vn -0.0228 0.0608 0.9979
vn 0.0192 -0.9975 -0.0682
vn -0.0008 -0.9993 0.0383
s off
f 4/1/1 1/2/1 2/3/1
f 8/4/2 1/2/2 3/5/2
f 4/1/3 8/6/3 3/7/3
f 6/8/4 4/1/4 2/3/4
f 5/9/5 2/3/5 1/10/5
f 10/11/6 11/12/6 9/13/6
f 16/14/7 9/13/7 11/12/7
f 15/15/8 11/16/8 12/17/8
f 10/11/9 15/15/9 12/17/9
f 9/18/10 14/19/10 10/11/10
f 25/20/11 18/21/11 26/22/11
f 26/22/12 20/23/12 27/24/12
f 20/23/13 28/25/13 27/24/13
f 28/26/14 17/27/14 25/28/14
f 20/23/15 17/29/15 19/30/15
f 21/31/16 30/32/16 29/33/16
f 30/32/17 24/34/17 31/35/17
f 31/35/18 23/36/18 32/37/18
f 32/38/19 21/39/19 29/40/19
f 22/41/20 23/42/20 24/34/20
f 28/26/21 26/22/21 27/24/21
f 8/43/22 6/8/22 5/44/22
f 16/45/23 14/19/23 13/46/23
f 32/38/24 30/32/24 31/35/24
f 33/47/25 36/48/25 34/49/25
f 33/47/26 40/50/26 35/51/26
f 35/52/27 39/53/27 36/48/27
f 36/48/28 38/54/28 34/49/28
f 33/55/29 38/54/29 37/56/29
f 42/57/30 43/58/30 44/59/30
f 43/58/31 45/60/31 48/61/31
f 43/62/32 47/63/32 44/59/32
f 44/59/33 46/64/33 42/57/33
f 41/65/34 46/64/34 45/66/34
f 57/67/35 50/68/35 49/69/35
f 58/70/36 52/71/36 50/68/36
f 60/72/37 52/71/37 59/73/37
f 60/74/38 49/75/38 51/76/38
f 52/71/39 49/77/39 50/68/39
f 62/78/40 53/79/40 61/80/40
f 62/78/41 56/81/41 54/82/41
f 63/83/42 55/84/42 56/81/42
f 64/85/43 53/86/43 55/87/43
f 55/88/44 54/82/44 56/81/44
f 67/89/45 66/90/45 65/91/45
f 71/92/46 68/93/46 67/89/46
f 69/94/47 72/95/47 71/92/47
f 65/96/48 70/97/48 69/98/48
f 65/96/49 71/92/49 67/89/49
f 70/99/50 68/93/50 72/95/50
f 73/100/51 76/101/51 74/102/51
f 79/103/52 76/101/52 75/104/52
f 77/105/53 80/106/53 79/103/53
f 73/107/54 78/108/54 77/109/54
f 73/107/55 79/103/55 75/104/55
f 78/110/56 76/101/56 80/106/56
f 60/74/57 58/70/57 57/111/57
f 37/112/58 39/53/58 40/113/58
f 45/114/59 47/63/59 48/115/59
f 64/85/60 62/78/60 61/116/60
f 4/1/1 3/5/1 1/2/1
f 8/4/2 5/117/2 1/2/2
f 4/1/3 7/118/3 8/6/3
f 6/8/4 7/118/4 4/1/4
f 5/9/5 6/8/5 2/3/5
f 10/11/6 12/17/6 11/12/6
f 16/14/7 13/119/7 9/13/7
f 15/15/8 16/120/8 11/16/8
f 10/11/9 14/19/9 15/15/9
f 9/18/10 13/121/10 14/19/10
f 25/20/11 17/122/11 18/21/11
f 26/22/61 18/21/61 20/23/61
f 20/23/13 19/123/13 28/25/13
f 28/26/62 19/124/62 17/27/62
f 20/23/15 18/21/15 17/29/15
f 21/31/63 22/41/63 30/32/63
f 30/32/17 22/41/17 24/34/17
f 31/35/64 24/34/64 23/36/64
f 32/38/65 23/125/65 21/39/65
f 22/41/20 21/126/20 23/42/20
f 28/26/66 25/28/66 26/22/66
f 8/43/22 7/118/22 6/8/22
f 16/45/23 15/15/23 14/19/23
f 32/38/67 29/40/67 30/32/67
f 33/47/25 35/51/25 36/48/25
f 33/47/26 37/127/26 40/50/26
f 35/52/27 40/128/27 39/53/27
f 36/48/28 39/53/28 38/54/28
f 33/55/29 34/49/29 38/54/29
f 42/57/30 41/129/30 43/58/30
f 43/58/31 41/129/31 45/60/31
f 43/62/32 48/130/32 47/63/32
f 44/59/33 47/63/33 46/64/33
f 41/65/34 42/57/34 46/64/34
f 57/67/35 58/70/35 50/68/35
f 58/70/68 59/73/68 52/71/68
f 60/72/69 51/131/69 52/71/69
f 60/74/70 57/111/70 49/75/70
f 52/71/39 51/132/39 49/77/39
f 62/78/71 54/82/71 53/79/71
f 62/78/72 63/83/72 56/81/72
f 63/83/42 64/133/42 55/84/42
f 64/85/73 61/116/73 53/86/73
f 55/88/44 53/134/44 54/82/44
f 67/89/45 68/93/45 66/90/45
f 71/92/46 72/95/46 68/93/46
f 69/94/47 70/135/47 72/95/47
f 65/96/48 66/136/48 70/97/48
f 65/96/49 69/98/49 71/92/49
f 70/99/50 66/137/50 68/93/50
f 73/100/51 75/104/51 76/101/51
f 79/103/52 80/106/52 76/101/52
f 77/105/53 78/138/53 80/106/53
f 73/107/54 74/139/54 78/108/54
f 73/107/55 77/109/55 79/103/55
f 78/110/56 74/140/56 76/101/56
f 60/74/74 59/73/74 58/70/74
f 37/112/58 38/54/58 39/53/58
f 45/114/59 46/64/59 47/63/59
f 64/85/75 63/83/75 62/78/75
