# Blender v2.79 (sub 0) OBJ File: '3DObjectDecoderObjects.blend'
# www.blender.org
o Cube.005_Cube.008
v 0.648416 -0.137727 0.263173
v 0.649899 -0.181536 -0.139039
v 1.052879 -0.147745 0.265755
v 1.054361 -0.191554 -0.136457
v 0.673721 0.856085 0.155021
v 0.675204 0.812276 -0.247192
v 1.079666 0.802258 -0.244610
v 1.078183 0.846067 0.157603
v 0.078508 -1.683571 0.128641
v 0.072031 -1.632979 -0.272728
v 0.483049 -1.683420 0.122131
v 0.476573 -1.632827 -0.279238
v 0.080148 -0.691420 0.253680
v 0.073671 -0.640827 -0.147689
v 0.478213 -0.640675 -0.154199
v 0.484689 -0.691269 0.247171
v 0.698148 1.866795 0.204778
v 0.701003 1.888229 -0.199238
v 1.102616 1.856981 0.207116
v 1.105471 1.878415 -0.196900
v 0.078387 0.384001 0.201941
v 0.072192 0.359425 -0.201862
v 0.482933 0.384353 0.195712
v 0.476738 0.359777 -0.208091
v 0.674232 0.868495 0.151648
v 0.677066 0.888875 -0.252451
v 1.081392 0.872024 -0.250551
v 1.078783 0.862549 0.153747
v 0.080215 -0.623401 0.261855
v 0.073972 -0.633136 -0.141068
v 0.478519 -0.632964 -0.147326
v 0.484759 -0.622971 0.255510
v -0.698555 -0.120930 0.203930
v -0.702943 -0.172180 -0.197375
v -1.103125 -0.120404 0.208287
v -1.107513 -0.171654 -0.193018
v -0.698629 0.871011 0.077259
v -0.703018 0.819762 -0.324046
v -1.107588 0.820287 -0.319688
v -1.103200 0.871537 0.081616
v -0.079927 -1.677281 0.199717
v -0.070569 -1.639515 -0.203003
v -0.484413 -1.677358 0.190310
v -0.475054 -1.639593 -0.212410
v -0.082289 -0.681645 0.293031
v -0.072931 -0.643879 -0.109689
v -0.477416 -0.643957 -0.119096
v -0.486774 -0.681723 0.283624
v -0.695545 1.843677 0.208582
v -0.699359 1.898851 -0.192208
v -1.100119 1.844547 0.212552
v -1.103933 1.899722 -0.188238
v -0.079811 0.391636 0.200835
v -0.070746 0.351698 -0.201682
v -0.484302 0.391775 0.191712
v -0.475237 0.351837 -0.210805
v -0.699014 0.853021 0.072236
v -0.702840 0.906484 -0.328745
v -1.107490 0.895909 -0.325861
v -1.103557 0.860209 0.076022
v -0.082402 -0.613059 0.299017
v -0.073289 -0.637642 -0.103128
v -0.477781 -0.637689 -0.112276
v -0.486890 -0.612843 0.289770
v 0.630000 0.472431 0.420000
v 0.630000 1.872431 0.420000
v 0.630000 0.472431 -0.420000
v 0.630000 1.872431 -0.420000
v -0.630000 0.472431 0.420000
v -0.630000 1.872431 0.420000
v -0.630000 0.472431 -0.420000
v -0.630000 1.872431 -0.420000
v 0.336016 1.929297 0.265979
v 0.307449 2.513503 0.399722
v 0.251850 2.057954 -0.313989
v 0.223283 2.642160 -0.180246
v -0.257364 1.882923 0.341804
v -0.285931 2.467129 0.475547
v -0.341530 2.011580 -0.238164
v -0.370097 2.595786 -0.104421
vt 0.151712 0.164304
vt 0.128453 0.121671
vt 0.152804 0.123501
vt 0.067175 0.157952
vt 0.127361 0.162474
vt 0.210807 0.209629
vt 0.150620 0.205107
vt 0.212991 0.128023
vt 0.214083 0.087220
vt 0.153896 0.082698
vt 0.120318 0.196104
vt 0.141703 0.159716
vt 0.141869 0.195827
vt 0.194969 0.159030
vt 0.066887 0.160679
vt 0.119987 0.123882
vt 0.120152 0.159993
vt 0.120483 0.232215
vt 0.067052 0.196790
vt 0.893013 0.803206
vt 0.953247 0.844041
vt 0.893013 0.844041
vt 0.953247 0.884875
vt 0.893013 0.884875
vt 0.893013 0.925710
vt 0.868643 0.884875
vt 0.808410 0.844041
vt 0.868643 0.844041
vt 0.977617 0.844041
vt 0.977617 0.884875
vt 0.741845 0.545283
vt 0.663028 0.598717
vt 0.663028 0.545283
vt 0.741845 0.652150
vt 0.663028 0.652150
vt 0.741845 0.705584
vt 0.663028 0.705584
vt 0.631139 0.652150
vt 0.552321 0.598717
vt 0.631139 0.598717
vt 0.741845 0.598717
vt 0.773734 0.652150
vt 0.211899 0.168826
vt 0.237342 0.129853
vt 0.236250 0.170656
vt 0.045336 0.160957
vt 0.045501 0.197068
vt 0.094887 0.153073
vt 0.114964 0.123128
vt 0.113861 0.154921
vt 0.049093 0.116713
vt 0.095990 0.121280
vt 0.116067 0.091335
vt 0.161861 0.127695
vt 0.160758 0.159488
vt 0.112759 0.186714
vt 0.159655 0.191281
vt 0.153193 0.158992
vt 0.134495 0.188340
vt 0.135087 0.158002
vt 0.152601 0.189330
vt 0.197943 0.161440
vt 0.197352 0.191779
vt 0.133904 0.218678
vt 0.089745 0.185892
vt 0.090336 0.155553
vt 0.135678 0.127663
vt 0.090927 0.125215
vt 0.893013 0.809899
vt 0.820174 0.859280
vt 0.820174 0.809899
vt 0.893013 0.859280
vt 0.820174 0.908661
vt 0.893013 0.958041
vt 0.893013 0.908661
vt 0.922484 0.908660
vt 0.995323 0.859280
vt 0.995323 0.908660
vt 0.790703 0.908661
vt 0.668850 0.601598
vt 0.627314 0.573439
vt 0.668850 0.573439
vt 0.627314 0.629757
vt 0.627314 0.601598
vt 0.668850 0.629757
vt 0.627314 0.657916
vt 0.685655 0.629757
vt 0.727191 0.601598
vt 0.727191 0.629757
vt 0.610509 0.629757
vt 0.114767 0.168293
vt 0.095916 0.220936
vt 0.095916 0.168293
vt 0.143042 0.168293
vt 0.114767 0.220936
vt 0.161893 0.168293
vt 0.143042 0.220936
vt 0.114767 0.136707
vt 0.143042 0.084063
vt 0.143042 0.136707
vt 0.143042 0.252523
vt 0.705410 0.612195
vt 0.679363 0.568551
vt 0.705410 0.568551
vt 0.679363 0.612195
vt 0.653316 0.568551
vt 0.627270 0.612195
vt 0.653316 0.612195
vt 0.653316 0.655839
vt 0.679363 0.699483
vt 0.653316 0.699483
vt 0.679363 0.655839
vt 0.653316 0.524907
vt 0.922484 0.859280
vt 0.179732 0.161336
vt 0.180835 0.129543
vt 0.071639 0.184901
vt 0.685655 0.601598
vt 0.068267 0.117149
vt 0.195135 0.195141
vt 0.066721 0.124568
vt 0.067218 0.232901
vt 0.953247 0.803206
vt 0.953247 0.925710
vt 0.808410 0.884875
vt 0.552321 0.652150
vt 0.773734 0.598717
vt 0.047991 0.148506
vt 0.162963 0.095902
vt 0.089154 0.216230
vt 0.820174 0.958041
vt 0.790703 0.859280
vt 0.668850 0.657916
vt 0.610509 0.601598
vt 0.161893 0.220936
vt 0.114767 0.084063
vt 0.114767 0.252523
vt 0.627270 0.568551
vt 0.679363 0.524907
vt 0.072230 0.154563
vn -0.0253 -0.9938 0.1082
vn -0.0037 0.1083 0.9941
vn 0.9997 -0.0248 0.0064
vn 0.0037 -0.1083 -0.9941
vn -0.9997 0.0248 -0.0064
vn -0.0016 -0.9922 -0.1250
vn 0.0160 -0.1250 0.9920
vn 0.9999 0.0004 -0.0161
vn -0.0160 0.1250 -0.9920
vn -0.9999 -0.0004 0.0161
vn -0.9997 0.0243 -0.0058
vn 0.0069 0.0531 -0.9986
vn 0.9997 -0.0242 0.0059
vn -0.0060 -0.0530 0.9986
vn 0.0239 0.9983 0.0531
vn -0.9999 -0.0009 0.0155
vn -0.0154 -0.0611 -0.9980
vn 0.9999 0.0009 -0.0155
vn 0.0156 0.0594 0.9981
vn -0.0018 0.9982 -0.0607
vn -0.0415 -0.9989 -0.0237
vn 0.0253 0.9938 -0.1082
vn 0.0016 0.9922 0.1250
vn 0.0008 -0.9997 0.0248
vn 0.0001 -0.9919 0.1267
vn 0.0108 0.1267 0.9919
vn -0.9999 0.0013 0.0108
vn -0.0108 -0.1267 -0.9919
vn 0.9999 -0.0013 -0.0108
vn 0.0024 -0.9956 -0.0933
vn -0.0231 -0.0933 0.9954
vn -0.9997 -0.0002 -0.0233
vn 0.0231 0.0933 -0.9954
vn 0.9997 0.0002 0.0233
vn 0.9999 -0.0022 -0.0098
vn -0.0094 0.1363 -0.9906
vn -0.9999 0.0022 0.0100
vn 0.0094 -0.1374 0.9905
vn 0.0035 0.9907 0.1363
vn 0.9997 -0.0004 0.0227
vn 0.0224 -0.0992 -0.9948
vn -0.9997 0.0003 -0.0225
vn -0.0224 0.0972 0.9950
vn 0.0026 0.9951 -0.0987
vn 1.0000 0.0000 0.0000
vn 0.0000 0.0000 -1.0000
vn -1.0000 0.0000 0.0000
vn 0.0000 0.0000 1.0000
vn 0.0000 -1.0000 0.0000
vn 0.0000 1.0000 0.0000
vn 0.9890 0.0773 -0.1264
vn -0.1403 0.2144 -0.9666
vn -0.9890 -0.0773 0.1264
vn 0.1403 -0.2144 0.9666
vn 0.0476 -0.9737 -0.2229
vn -0.0476 0.9737 0.2229
vn -0.0188 -0.9911 -0.1320
vn -0.0001 0.9919 -0.1267
vn -0.0024 0.9956 0.0933
vn -0.0019 -0.9981 0.0610
vn 0.0071 0.0530 -0.9986
vn 0.9997 -0.0243 0.0058
vn -0.0071 -0.0534 0.9985
vn -0.9999 -0.0009 0.0154
vn -0.0153 -0.0612 -0.9980
vn 0.9999 0.0009 -0.0154
vn 0.0153 0.0593 0.9981
vn -0.0144 -0.9986 -0.0505
vn 0.0014 -0.9997 0.0241
vn -0.0106 0.1359 -0.9907
vn -0.9999 0.0021 0.0098
vn 0.0068 -0.1364 0.9906
vn 0.9997 -0.0003 0.0225
vn 0.0225 -0.0991 -0.9948
vn -0.9997 0.0004 -0.0227
vn -0.0227 0.0973 0.9950
vn 0.0254 -0.9957 -0.0887
vn -0.0013 -0.9981 0.0617
s off
f 4/1/1 1/2/1 2/3/1
f 8/4/2 1/2/2 3/5/2
f 4/1/3 8/6/3 3/7/3
f 6/8/4 4/1/4 2/3/4
f 5/9/5 2/3/5 1/10/5
f 10/11/6 11/12/6 9/13/6
f 16/14/7 9/13/7 11/12/7
f 15/15/8 11/16/8 12/17/8
f 10/11/9 15/15/9 12/17/9
f 9/18/10 14/19/10 10/11/10
f 25/20/11 18/21/11 26/22/11
f 26/22/12 20/23/12 27/24/12
f 20/23/13 28/25/13 27/24/13
f 28/26/14 17/27/14 25/28/14
f 20/23/15 17/29/15 19/30/15
f 21/31/16 30/32/16 29/33/16
f 30/32/17 24/34/17 31/35/17
f 31/35/18 23/36/18 32/37/18
f 32/38/19 21/39/19 29/40/19
f 22/41/20 23/42/20 24/34/20
f 28/26/21 26/22/21 27/24/21
f 7/43/22 5/44/22 8/45/22
f 16/46/23 14/19/23 13/47/23
f 32/38/24 30/32/24 31/35/24
f 33/48/25 36/49/25 34/50/25
f 33/48/26 40/51/26 35/52/26
f 35/53/27 39/54/27 36/49/27
f 34/50/28 39/54/28 38/55/28
f 33/56/29 38/55/29 37/57/29
f 41/58/30 44/59/30 42/60/30
f 43/61/31 45/62/31 48/63/31
f 43/64/32 47/65/32 44/59/32
f 42/60/33 47/65/33 46/66/33
f 41/67/34 46/66/34 45/68/34
f 57/69/35 50/70/35 49/71/35
f 58/72/36 52/73/36 50/70/36
f 60/74/37 52/73/37 59/75/37
f 60/76/38 49/77/38 51/78/38
f 51/79/39 50/70/39 52/73/39
f 62/80/40 53/81/40 61/82/40
f 62/80/41 56/83/41 54/84/41
f 63/85/42 55/86/42 56/83/42
f 64/87/43 53/88/43 55/89/43
f 55/90/44 54/84/44 56/83/44
f 67/91/45 66/92/45 65/93/45
f 71/94/46 68/95/46 67/91/46
f 69/96/47 72/97/47 71/94/47
f 65/98/48 70/99/48 69/100/48
f 65/98/49 71/94/49 67/91/49
f 70/101/50 68/95/50 72/97/50
f 73/102/51 76/103/51 74/104/51
f 75/105/52 80/106/52 76/103/52
f 77/107/53 80/106/53 79/108/53
f 77/109/54 74/110/54 78/111/54
f 73/112/55 79/108/55 75/105/55
f 78/113/56 76/103/56 80/106/56
f 60/76/57 58/72/57 57/114/57
f 37/115/58 39/54/58 40/116/58
f 48/117/59 46/66/59 47/65/59
f 64/87/60 62/80/60 61/118/60
f 4/1/1 3/5/1 1/2/1
f 8/4/2 5/119/2 1/2/2
f 4/1/3 7/43/3 8/6/3
f 6/8/4 7/43/4 4/1/4
f 5/9/5 6/8/5 2/3/5
f 10/11/6 12/17/6 11/12/6
f 16/14/7 13/120/7 9/13/7
f 15/15/8 16/121/8 11/16/8
f 10/11/9 14/19/9 15/15/9
f 9/18/10 13/122/10 14/19/10
f 25/20/11 17/123/11 18/21/11
f 26/22/61 18/21/61 20/23/61
f 20/23/62 19/124/62 28/25/62
f 28/26/63 19/125/63 17/27/63
f 20/23/15 18/21/15 17/29/15
f 21/31/64 22/41/64 30/32/64
f 30/32/65 22/41/65 24/34/65
f 31/35/66 24/34/66 23/36/66
f 32/38/67 23/126/67 21/39/67
f 22/41/20 21/127/20 23/42/20
f 28/26/68 25/28/68 26/22/68
f 7/43/22 6/8/22 5/44/22
f 16/46/23 15/15/23 14/19/23
f 32/38/69 29/40/69 30/32/69
f 33/48/25 35/52/25 36/49/25
f 33/48/26 37/128/26 40/51/26
f 35/53/27 40/129/27 39/54/27
f 34/50/28 36/49/28 39/54/28
f 33/56/29 34/50/29 38/55/29
f 41/58/30 43/61/30 44/59/30
f 43/61/31 41/58/31 45/62/31
f 43/64/32 48/130/32 47/65/32
f 42/60/33 44/59/33 47/65/33
f 41/67/34 42/60/34 46/66/34
f 57/69/35 58/72/35 50/70/35
f 58/72/70 59/75/70 52/73/70
f 60/74/71 51/131/71 52/73/71
f 60/76/72 57/114/72 49/77/72
f 51/79/39 49/132/39 50/70/39
f 62/80/73 54/84/73 53/81/73
f 62/80/74 63/85/74 56/83/74
f 63/85/75 64/133/75 55/86/75
f 64/87/76 61/118/76 53/88/76
f 55/90/44 53/134/44 54/84/44
f 67/91/45 68/95/45 66/92/45
f 71/94/46 72/97/46 68/95/46
f 69/96/47 70/135/47 72/97/47
f 65/98/48 66/136/48 70/99/48
f 65/98/49 69/100/49 71/94/49
f 70/101/50 66/137/50 68/95/50
f 73/102/51 75/105/51 76/103/51
f 75/105/52 79/108/52 80/106/52
f 77/107/53 78/138/53 80/106/53
f 77/109/54 73/112/54 74/110/54
f 73/112/55 77/109/55 79/108/55
f 78/113/56 74/139/56 76/103/56
f 60/76/77 59/75/77 58/72/77
f 37/115/58 38/55/58 39/54/58
f 48/117/59 45/140/59 46/66/59
f 64/87/78 63/85/78 62/80/78
