# Blender v2.79 (sub 0) OBJ File: '3DObjectDecoderObjects.blend'
# www.blender.org
o Cube.005_Cube.008
v 0.648733 -0.119935 0.264227
v 0.649506 -0.197896 -0.132784
v 1.053187 -0.130210 0.267032
v 1.053960 -0.208170 -0.129979
v 0.674988 0.860996 0.071654
v 0.675761 0.783035 -0.325357
v 1.080215 0.772761 -0.322552
v 1.079442 0.850721 0.074460
v 0.078439 -1.698914 0.120468
v 0.071901 -1.615752 -0.275436
v 0.482979 -1.698798 0.113811
v 0.476441 -1.615636 -0.282093
v 0.081539 -0.720265 0.325992
v 0.075001 -0.637103 -0.069912
v 0.479540 -0.636986 -0.076569
v 0.486078 -0.720149 0.319335
v 0.697684 1.810175 0.209813
v 0.701370 1.868149 -0.190589
v 1.102152 1.800326 0.212111
v 1.105838 1.858300 -0.188291
v 0.078204 0.362886 0.195954
v 0.072215 0.304144 -0.204312
v 0.482751 0.363382 0.189827
v 0.476762 0.304640 -0.210439
v 0.674407 0.820794 0.066345
v 0.678048 0.876576 -0.334237
v 1.082214 0.852068 -0.332891
v 1.079050 0.819005 0.068167
v 0.081664 -0.643979 0.339614
v 0.075581 -0.674703 -0.059038
v 0.480129 -0.674546 -0.065220
v 0.486207 -0.643336 0.333267
v -0.698477 -0.106238 0.204690
v -0.702942 -0.185822 -0.191969
v -1.103046 -0.105743 0.209144
v -1.107511 -0.185326 -0.187514
v -0.699442 0.874221 0.007990
v -0.703907 0.794638 -0.388668
v -1.108477 0.795133 -0.384214
v -1.104012 0.874716 0.012445
v -0.079803 -1.692584 0.192193
v -0.070421 -1.622709 -0.206212
v -0.484285 -1.692706 0.182646
v -0.474903 -1.622830 -0.215759
v -0.084174 -0.707609 0.364844
v -0.074792 -0.637734 -0.033561
v -0.479273 -0.637855 -0.043108
v -0.488656 -0.707731 0.355297
v -0.695598 1.789624 0.211639
v -0.699147 1.875326 -0.183751
v -1.100173 1.790656 0.215494
v -1.103722 1.876358 -0.179896
v -0.079579 0.370248 0.194237
v -0.070759 0.296378 -0.203460
v -0.484073 0.370529 0.185213
v -0.475252 0.296660 -0.212483
v -0.700110 0.812319 -0.000153
v -0.703677 0.895363 -0.395848
v -1.108372 0.878624 -0.393730
v -1.104635 0.823163 0.003444
v -0.084380 -0.630666 0.375874
v -0.075468 -0.676128 -0.021201
v -0.479961 -0.676191 -0.030268
v -0.488867 -0.630244 0.366623
v 0.630000 0.434736 0.420000
v 0.630000 1.834736 0.420000
v 0.630000 0.434736 -0.420000
v 0.630000 1.834736 -0.420000
v -0.630000 0.434736 0.420000
v -0.630000 1.834736 0.420000
v -0.630000 0.434736 -0.420000
v -0.630000 1.834736 -0.420000
v 0.315283 1.915509 0.287533
v 0.301021 2.512733 0.343399
v 0.280760 1.970481 -0.308945
v 0.266498 2.567704 -0.253079
v -0.283553 1.898116 0.320590
v -0.297815 2.495339 0.376456
v -0.318076 1.953088 -0.275888
v -0.332339 2.550311 -0.220022
vt 0.151712 0.164304
vt 0.128453 0.121671
vt 0.152804 0.123501
vt 0.067175 0.157952
vt 0.127361 0.162474
vt 0.210807 0.209629
vt 0.150620 0.205107
vt 0.212991 0.128023
vt 0.214083 0.087220
vt 0.153896 0.082698
vt 0.120318 0.196104
vt 0.141703 0.159716
vt 0.141869 0.195827
vt 0.194969 0.159030
vt 0.066887 0.160679
vt 0.119987 0.123882
vt 0.120152 0.159993
vt 0.120483 0.232215
vt 0.067052 0.196790
vt 0.893013 0.803206
vt 0.953247 0.844041
vt 0.893013 0.844041
vt 0.953247 0.884875
vt 0.893013 0.884875
vt 0.893013 0.925710
vt 0.868643 0.884875
vt 0.808410 0.844041
vt 0.868643 0.844041
vt 0.977617 0.844041
vt 0.977617 0.884875
vt 0.741845 0.545283
vt 0.663028 0.598717
vt 0.663028 0.545283
vt 0.741845 0.652150
vt 0.663028 0.652150
vt 0.741845 0.705584
vt 0.663028 0.705584
vt 0.631139 0.652150
vt 0.552321 0.598717
vt 0.631139 0.598717
vt 0.741845 0.598717
vt 0.773734 0.652150
vt 0.211899 0.168826
vt 0.237342 0.129853
vt 0.236250 0.170656
vt 0.045336 0.160957
vt 0.045501 0.197068
vt 0.094887 0.153073
vt 0.114964 0.123128
vt 0.113861 0.154921
vt 0.049093 0.116713
vt 0.095990 0.121280
vt 0.116067 0.091335
vt 0.161861 0.127695
vt 0.160758 0.159488
vt 0.112759 0.186714
vt 0.159655 0.191281
vt 0.135087 0.158002
vt 0.152601 0.189330
vt 0.134495 0.188340
vt 0.197943 0.161440
vt 0.197352 0.191779
vt 0.133904 0.218678
vt 0.089745 0.185892
vt 0.090336 0.155553
vt 0.135678 0.127663
vt 0.090927 0.125215
vt 0.893013 0.809899
vt 0.820174 0.859280
vt 0.820174 0.809899
vt 0.893013 0.859280
vt 0.820174 0.908661
vt 0.893013 0.958041
vt 0.893013 0.908661
vt 0.922484 0.908660
vt 0.995323 0.859280
vt 0.995323 0.908660
vt 0.790703 0.859280
vt 0.668850 0.601598
vt 0.627314 0.573439
vt 0.668850 0.573439
vt 0.627314 0.629757
vt 0.627314 0.601598
vt 0.668850 0.629757
vt 0.627314 0.657916
vt 0.685655 0.629757
vt 0.727191 0.601598
vt 0.727191 0.629757
vt 0.610509 0.601598
vt 0.114767 0.168293
vt 0.095916 0.220936
vt 0.095916 0.168293
vt 0.143042 0.168293
vt 0.114767 0.220936
vt 0.161893 0.168293
vt 0.143042 0.220936
vt 0.114767 0.136707
vt 0.143042 0.084063
vt 0.143042 0.136707
vt 0.143042 0.252523
vt 0.679363 0.612195
vt 0.705410 0.568551
vt 0.705410 0.612195
vt 0.653316 0.612195
vt 0.679363 0.568551
vt 0.627270 0.612195
vt 0.653316 0.568551
vt 0.679363 0.655839
vt 0.653316 0.699483
vt 0.653316 0.655839
vt 0.653316 0.524907
vt 0.922484 0.859280
vt 0.180835 0.129543
vt 0.072230 0.154563
vt 0.071639 0.184901
vt 0.685655 0.601598
vt 0.068267 0.117149
vt 0.195135 0.195141
vt 0.066721 0.124568
vt 0.067218 0.232901
vt 0.953247 0.803206
vt 0.953247 0.925710
vt 0.808410 0.884875
vt 0.552321 0.652150
vt 0.773734 0.598717
vt 0.047991 0.148506
vt 0.162963 0.095902
vt 0.153193 0.158992
vt 0.089154 0.216230
vt 0.820174 0.958041
vt 0.790703 0.908661
vt 0.668850 0.657916
vt 0.610509 0.629757
vt 0.161893 0.220936
vt 0.114767 0.084063
vt 0.114767 0.252523
vt 0.627270 0.568551
vt 0.679363 0.699483
vt 0.679363 0.524907
vt 0.179732 0.161336
vn -0.0263 -0.9809 0.1926
vn -0.0019 0.1927 0.9813
vn 0.9997 -0.0254 0.0069
vn 0.0019 -0.1927 -0.9813
vn -0.9997 0.0254 -0.0069
vn -0.0031 -0.9786 -0.2055
vn 0.0162 -0.2055 0.9785
vn 0.9999 0.0003 -0.0165
vn -0.0162 0.2055 -0.9785
vn -0.9999 -0.0003 0.0165
vn -0.9997 0.0243 -0.0057
vn 0.0119 0.1420 -0.9898
vn 0.9997 -0.0243 0.0059
vn -0.0051 -0.1434 0.9897
vn 0.0233 0.9894 0.1435
vn -0.9999 -0.0012 0.0154
vn -0.0151 -0.1467 -0.9891
vn 0.9999 0.0012 -0.0153
vn 0.0153 0.1413 0.9899
vn -0.0034 0.9894 -0.1452
vn -0.0600 -0.9948 -0.0825
vn 0.0263 0.9809 -0.1926
vn 0.0031 0.9786 0.2055
vn 0.0016 -0.9969 0.0781
vn 0.0010 -0.9805 0.1967
vn 0.0110 0.1967 0.9804
vn -0.9999 0.0012 0.0110
vn -0.0110 -0.1967 -0.9804
vn 0.9999 -0.0012 -0.0110
vn 0.0044 -0.9850 -0.1726
vn -0.0232 -0.1727 0.9847
vn -0.9997 -0.0003 -0.0236
vn 0.0232 0.1727 -0.9847
vn 0.9997 0.0003 0.0236
vn 1.0000 -0.0026 -0.0095
vn -0.0088 0.2116 -0.9773
vn -0.9999 0.0026 0.0098
vn 0.0088 -0.2141 0.9768
vn 0.0045 0.9773 0.2118
vn 0.9997 -0.0007 0.0225
vn 0.0218 -0.1843 -0.9826
vn -0.9998 0.0007 -0.0223
vn -0.0218 0.1784 0.9837
vn 0.0048 0.9832 -0.1825
vn 1.0000 0.0000 0.0000
vn 0.0000 0.0000 -1.0000
vn -1.0000 0.0000 0.0000
vn 0.0000 0.0000 1.0000
vn 0.0000 -1.0000 0.0000
vn 0.0000 1.0000 0.0000
vn 0.9981 0.0290 -0.0551
vn -0.0575 0.0916 -0.9941
vn -0.9981 -0.0290 0.0551
vn 0.0575 -0.0916 0.9941
vn 0.0238 -0.9954 -0.0931
vn -0.0238 0.9954 0.0931
vn -0.0281 -0.9783 -0.2051
vn -0.0010 0.9805 -0.1967
vn -0.0044 0.9850 0.1726
vn -0.0036 -0.9935 0.1137
vn 0.0091 0.1432 -0.9897
vn 0.9997 -0.0244 0.0057
vn -0.0091 -0.1449 0.9894
vn -0.9999 -0.0012 0.0151
vn -0.0148 -0.1468 -0.9890
vn 0.9999 0.0012 -0.0151
vn 0.0148 0.1411 0.9899
vn -0.0038 -0.9904 -0.1380
vn 0.0028 -0.9970 0.0768
vn 0.0044 -0.9850 -0.1727
vn 1.0000 -0.0026 -0.0096
vn -0.0138 0.2096 -0.9777
vn -1.0000 0.0025 0.0095
vn 0.0030 -0.2118 0.9773
vn 0.9998 -0.0007 0.0223
vn 0.0221 -0.1842 -0.9826
vn -0.9997 0.0007 -0.0225
vn -0.0223 0.1786 0.9837
vn 0.0402 -0.9895 -0.1386
vn -0.0024 -0.9934 0.1149
s off
f 4/1/1 1/2/1 2/3/1
f 8/4/2 1/2/2 3/5/2
f 4/1/3 8/6/3 3/7/3
f 6/8/4 4/1/4 2/3/4
f 5/9/5 2/3/5 1/10/5
f 10/11/6 11/12/6 9/13/6
f 16/14/7 9/13/7 11/12/7
f 15/15/8 11/16/8 12/17/8
f 10/11/9 15/15/9 12/17/9
f 9/18/10 14/19/10 10/11/10
f 25/20/11 18/21/11 26/22/11
f 26/22/12 20/23/12 27/24/12
f 20/23/13 28/25/13 27/24/13
f 28/26/14 17/27/14 25/28/14
f 20/23/15 17/29/15 19/30/15
f 21/31/16 30/32/16 29/33/16
f 30/32/17 24/34/17 31/35/17
f 31/35/18 23/36/18 32/37/18
f 32/38/19 21/39/19 29/40/19
f 22/41/20 23/42/20 24/34/20
f 28/26/21 26/22/21 27/24/21
f 7/43/22 5/44/22 8/45/22
f 16/46/23 14/19/23 13/47/23
f 32/38/24 30/32/24 31/35/24
f 33/48/25 36/49/25 34/50/25
f 33/48/26 40/51/26 35/52/26
f 35/53/27 39/54/27 36/49/27
f 36/49/28 38/55/28 34/50/28
f 33/56/29 38/55/29 37/57/29
f 42/58/30 43/59/30 44/60/30
f 43/59/31 45/61/31 48/62/31
f 43/63/32 47/64/32 44/60/32
f 44/60/33 46/65/33 42/58/33
f 41/66/34 46/65/34 45/67/34
f 57/68/35 50/69/35 49/70/35
f 58/71/36 52/72/36 50/69/36
f 60/73/37 52/72/37 59/74/37
f 60/75/38 49/76/38 51/77/38
f 52/72/39 49/78/39 50/69/39
f 62/79/40 53/80/40 61/81/40
f 62/79/41 56/82/41 54/83/41
f 63/84/42 55/85/42 56/82/42
f 64/86/43 53/87/43 55/88/43
f 56/82/44 53/89/44 54/83/44
f 67/90/45 66/91/45 65/92/45
f 71/93/46 68/94/46 67/90/46
f 69/95/47 72/96/47 71/93/47
f 65/97/48 70/98/48 69/99/48
f 65/97/49 71/93/49 67/90/49
f 70/100/50 68/94/50 72/96/50
f 75/101/51 74/102/51 73/103/51
f 79/104/52 76/105/52 75/101/52
f 77/106/53 80/107/53 79/104/53
f 73/108/54 78/109/54 77/110/54
f 73/108/55 79/104/55 75/101/55
f 78/111/56 76/105/56 80/107/56
f 60/75/57 58/71/57 57/112/57
f 40/113/58 38/55/58 39/54/58
f 45/114/59 47/64/59 48/115/59
f 64/86/60 62/79/60 61/116/60
f 4/1/1 3/5/1 1/2/1
f 8/4/2 5/117/2 1/2/2
f 4/1/3 7/43/3 8/6/3
f 6/8/4 7/43/4 4/1/4
f 5/9/5 6/8/5 2/3/5
f 10/11/6 12/17/6 11/12/6
f 16/14/7 13/118/7 9/13/7
f 15/15/8 16/119/8 11/16/8
f 10/11/9 14/19/9 15/15/9
f 9/18/10 13/120/10 14/19/10
f 25/20/11 17/121/11 18/21/11
f 26/22/61 18/21/61 20/23/61
f 20/23/62 19/122/62 28/25/62
f 28/26/63 19/123/63 17/27/63
f 20/23/15 18/21/15 17/29/15
f 21/31/64 22/41/64 30/32/64
f 30/32/65 22/41/65 24/34/65
f 31/35/66 24/34/66 23/36/66
f 32/38/67 23/124/67 21/39/67
f 22/41/20 21/125/20 23/42/20
f 28/26/68 25/28/68 26/22/68
f 7/43/22 6/8/22 5/44/22
f 16/46/23 15/15/23 14/19/23
f 32/38/69 29/40/69 30/32/69
f 33/48/25 35/52/25 36/49/25
f 33/48/26 37/126/26 40/51/26
f 35/53/27 40/127/27 39/54/27
f 36/49/28 39/54/28 38/55/28
f 33/56/29 34/50/29 38/55/29
f 42/58/70 41/128/70 43/59/70
f 43/59/31 41/128/31 45/61/31
f 43/63/32 48/129/32 47/64/32
f 44/60/33 47/64/33 46/65/33
f 41/66/34 42/58/34 46/65/34
f 57/68/71 58/71/71 50/69/71
f 58/71/72 59/74/72 52/72/72
f 60/73/73 51/130/73 52/72/73
f 60/75/74 57/112/74 49/76/74
f 52/72/39 51/131/39 49/78/39
f 62/79/75 54/83/75 53/80/75
f 62/79/76 63/84/76 56/82/76
f 63/84/77 64/132/77 55/85/77
f 64/86/78 61/116/78 53/87/78
f 56/82/44 55/133/44 53/89/44
f 67/90/45 68/94/45 66/91/45
f 71/93/46 72/96/46 68/94/46
f 69/95/47 70/134/47 72/96/47
f 65/97/48 66/135/48 70/98/48
f 65/97/49 69/99/49 71/93/49
f 70/100/50 66/136/50 68/94/50
f 75/101/51 76/105/51 74/102/51
f 79/104/52 80/107/52 76/105/52
f 77/106/53 78/137/53 80/107/53
f 73/108/54 74/138/54 78/109/54
f 73/108/55 77/110/55 79/104/55
f 78/111/56 74/139/56 76/105/56
f 60/75/79 59/74/79 58/71/79
f 40/113/58 37/140/58 38/55/58
f 45/114/59 46/65/59 47/64/59
f 64/86/80 63/84/80 62/79/80
