# Blender v2.79 (sub 0) OBJ File: '3DObjectDecoderObjects.blend'
# www.blender.org
o Cube.005_Cube.008
v 0.648870 -0.112416 0.264212
v 0.649336 -0.204607 -0.129739
v 1.053320 -0.122817 0.267124
v 1.053786 -0.215008 -0.126826
v 0.675541 0.860938 0.036463
v 0.676007 0.768747 -0.357488
v 1.080457 0.758346 -0.354576
v 1.079991 0.850537 0.039375
v 0.078405 -1.705318 0.116565
v 0.071852 -1.608275 -0.276167
v 0.482943 -1.705209 0.109841
v 0.476390 -1.608166 -0.282890
v 0.082128 -0.734507 0.356390
v 0.075575 -0.637464 -0.036342
v 0.480113 -0.637355 -0.043065
v 0.486666 -0.734398 0.349666
v 0.697483 1.781857 0.211405
v 0.701530 1.855069 -0.186490
v 1.101950 1.771974 0.213700
v 1.105997 1.845186 -0.184195
v 0.078117 0.349592 0.192953
v 0.072233 0.276284 -0.204904
v 0.482665 0.350157 0.186866
v 0.476781 0.276849 -0.210991
v 0.674488 0.798669 0.030267
v 0.678479 0.869212 -0.367849
v 1.082575 0.841495 -0.366732
v 1.079170 0.798594 0.031994
v 0.082277 -0.654817 0.372326
v 0.076278 -0.694491 -0.023616
v 0.480827 -0.694333 -0.029769
v 0.486819 -0.654076 0.365974
v -0.698447 -0.099664 0.204694
v -0.702938 -0.191829 -0.189231
v -1.103016 -0.099175 0.209191
v -1.107507 -0.191340 -0.184734
v -0.699803 0.874039 -0.023105
v -0.704293 0.781874 -0.417030
v -1.108862 0.782363 -0.412532
v -1.104372 0.874528 -0.018607
v -0.079742 -1.699001 0.188571
v -0.070366 -1.615388 -0.207179
v -0.484222 -1.699135 0.178961
v -0.474847 -1.615521 -0.216789
v -0.084972 -0.720587 0.395165
v -0.075597 -0.636974 -0.000585
v -0.480078 -0.637107 -0.010195
v -0.489453 -0.720720 0.385555
v -0.695630 1.761953 0.212605
v -0.699045 1.861223 -0.179600
v -1.100205 1.763065 0.216409
v -1.103620 1.862335 -0.175796
v -0.079468 0.356866 0.190960
v -0.070777 0.268469 -0.203765
v -0.483962 0.357215 0.181975
v -0.475271 0.268819 -0.212750
v -0.700601 0.792524 -0.032719
v -0.704038 0.888717 -0.425282
v -1.108753 0.869249 -0.423516
v -1.105118 0.805001 -0.029199
v -0.085217 -0.640183 0.408340
v -0.076414 -0.694585 0.014324
v -0.480909 -0.694648 0.005288
v -0.489704 -0.639665 0.399082
v 0.630000 0.414486 0.420000
v 0.630000 1.814486 0.420000
v 0.630000 0.414486 -0.420000
v 0.630000 1.814486 -0.420000
v -0.630000 0.414486 0.420000
v -0.630000 1.814486 0.420000
v -0.630000 0.414486 -0.420000
v -0.630000 1.814486 -0.420000
v 0.336016 1.871352 0.265979
v 0.307449 2.455558 0.399722
v 0.251850 2.000009 -0.313989
v 0.223283 2.584215 -0.180246
v -0.257364 1.824978 0.341804
v -0.285931 2.409184 0.475547
v -0.341530 1.953635 -0.238164
v -0.370097 2.537841 -0.104421
vt 0.151712 0.164304
vt 0.128453 0.121671
vt 0.152804 0.123501
vt 0.067175 0.157952
vt 0.127361 0.162474
vt 0.211899 0.168826
vt 0.150620 0.205107
vt 0.212991 0.128023
vt 0.214083 0.087220
vt 0.153896 0.082698
vt 0.120318 0.196104
vt 0.141703 0.159716
vt 0.141869 0.195827
vt 0.194969 0.159030
vt 0.066887 0.160679
vt 0.119987 0.123882
vt 0.120152 0.159993
vt 0.120483 0.232215
vt 0.067052 0.196790
vt 0.893013 0.803206
vt 0.953247 0.844041
vt 0.893013 0.844041
vt 0.953247 0.884875
vt 0.893013 0.884875
vt 0.893013 0.925710
vt 0.868643 0.884875
vt 0.808410 0.844041
vt 0.868643 0.844041
vt 0.977617 0.884875
vt 0.741845 0.545283
vt 0.663028 0.598717
vt 0.663028 0.545283
vt 0.741845 0.652150
vt 0.663028 0.652150
vt 0.741845 0.705584
vt 0.663028 0.705584
vt 0.631139 0.652150
vt 0.552321 0.598717
vt 0.631139 0.598717
vt 0.741845 0.598717
vt 0.773734 0.652150
vt 0.237342 0.129853
vt 0.236250 0.170656
vt 0.045336 0.160957
vt 0.045501 0.197068
vt 0.094887 0.153073
vt 0.114964 0.123128
vt 0.113861 0.154921
vt 0.095990 0.121280
vt 0.047991 0.148506
vt 0.049093 0.116713
vt 0.116067 0.091335
vt 0.161861 0.127695
vt 0.160758 0.159488
vt 0.112759 0.186714
vt 0.159655 0.191281
vt 0.153193 0.158992
vt 0.134495 0.188340
vt 0.135087 0.158002
vt 0.152601 0.189330
vt 0.197943 0.161440
vt 0.197352 0.191779
vt 0.133904 0.218678
vt 0.089745 0.185892
vt 0.090336 0.155553
vt 0.090927 0.125215
vt 0.135678 0.127663
vt 0.893013 0.809899
vt 0.820174 0.859280
vt 0.820174 0.809899
vt 0.893013 0.859280
vt 0.820174 0.908661
vt 0.893013 0.958041
vt 0.893013 0.908661
vt 0.922484 0.908660
vt 0.995323 0.859280
vt 0.995323 0.908660
vt 0.790703 0.859280
vt 0.668850 0.601598
vt 0.627314 0.573439
vt 0.668850 0.573439
vt 0.627314 0.629757
vt 0.627314 0.601598
vt 0.668850 0.629757
vt 0.627314 0.657916
vt 0.685655 0.629757
vt 0.727191 0.601598
vt 0.727191 0.629757
vt 0.610509 0.601598
vt 0.114767 0.168293
vt 0.095916 0.220936
vt 0.095916 0.168293
vt 0.143042 0.168293
vt 0.114767 0.220936
vt 0.161893 0.168293
vt 0.143042 0.220936
vt 0.114767 0.136707
vt 0.143042 0.084063
vt 0.143042 0.136707
vt 0.143042 0.252523
vt 0.705410 0.612195
vt 0.679363 0.568551
vt 0.705410 0.568551
vt 0.653316 0.612195
vt 0.679363 0.612195
vt 0.627270 0.612195
vt 0.653316 0.568551
vt 0.653316 0.655839
vt 0.679363 0.699483
vt 0.653316 0.699483
vt 0.679363 0.655839
vt 0.653316 0.524907
vt 0.922484 0.859280
vt 0.179732 0.161336
vt 0.180835 0.129543
vt 0.072230 0.154563
vt 0.071639 0.184901
vt 0.685655 0.601598
vt 0.068267 0.117149
vt 0.210807 0.209629
vt 0.195135 0.195141
vt 0.066721 0.124568
vt 0.067218 0.232901
vt 0.953247 0.803206
vt 0.953247 0.925710
vt 0.808410 0.884875
vt 0.977617 0.844041
vt 0.552321 0.652150
vt 0.773734 0.598717
vt 0.162963 0.095902
vt 0.089154 0.216230
vt 0.820174 0.958041
vt 0.790703 0.908661
vt 0.668850 0.657916
vt 0.610509 0.629757
vt 0.161893 0.220936
vt 0.114767 0.084063
vt 0.114767 0.252523
vt 0.627270 0.568551
vt 0.679363 0.524907
vn -0.0267 -0.9734 0.2277
vn -0.0012 0.2279 0.9737
vn 0.9996 -0.0257 0.0072
vn 0.0012 -0.2279 -0.9737
vn -0.9996 0.0257 -0.0072
vn -0.0037 -0.9708 -0.2398
vn 0.0162 -0.2399 0.9707
vn 0.9999 0.0003 -0.0166
vn -0.0162 0.2399 -0.9707
vn -0.9999 -0.0003 0.0166
vn -0.9997 0.0244 -0.0057
vn 0.0150 0.1786 -0.9838
vn 0.9997 -0.0244 0.0059
vn -0.0042 -0.1811 0.9835
vn 0.0230 0.9832 0.1811
vn -0.9999 -0.0014 0.0153
vn -0.0149 -0.1835 -0.9829
vn 0.9999 0.0014 -0.0153
vn 0.0151 0.1758 0.9843
vn -0.0041 0.9834 -0.1811
vn -0.0677 -0.9919 -0.1073
vn 0.0267 0.9734 -0.2277
vn 0.0037 0.9708 0.2398
vn 0.0019 -0.9949 0.1012
vn 0.0014 -0.9737 0.2278
vn 0.0111 0.2278 0.9736
vn -0.9999 0.0012 0.0111
vn -0.0111 -0.2278 -0.9736
vn 0.9999 -0.0012 -0.0111
vn 0.0052 -0.9784 -0.2066
vn -0.0232 -0.2067 0.9781
vn -0.9997 -0.0003 -0.0238
vn 0.0232 0.2067 -0.9781
vn 0.9997 0.0003 0.0238
vn 1.0000 -0.0027 -0.0094
vn -0.0084 0.2450 -0.9695
vn -0.9999 0.0028 0.0097
vn 0.0084 -0.2484 0.9686
vn 0.0050 0.9694 0.2453
vn 0.9997 -0.0009 0.0225
vn 0.0215 -0.2209 -0.9751
vn -0.9998 0.0008 -0.0222
vn -0.0215 0.2129 0.9768
vn 0.0057 0.9758 -0.2184
vn 1.0000 0.0000 0.0000
vn 0.0000 0.0000 -1.0000
vn -1.0000 0.0000 0.0000
vn 0.0000 0.0000 1.0000
vn 0.0000 -1.0000 0.0000
vn 0.0000 1.0000 0.0000
vn 0.9890 0.0773 -0.1264
vn -0.1403 0.2144 -0.9666
vn -0.9890 -0.0773 0.1264
vn 0.1403 -0.2144 0.9666
vn 0.0476 -0.9737 -0.2229
vn -0.0476 0.9737 0.2229
vn -0.0320 -0.9708 -0.2376
vn -0.0014 0.9737 -0.2278
vn -0.0052 0.9784 0.2066
vn -0.0044 -0.9906 0.1367
vn 0.0100 0.1807 -0.9835
vn 0.9997 -0.0245 0.0057
vn -0.0101 -0.1833 0.9830
vn -0.9999 -0.0014 0.0150
vn -0.0145 -0.1836 -0.9829
vn 0.9999 0.0014 -0.0150
vn 0.0146 0.1756 0.9843
vn 0.0006 -0.9847 -0.1745
vn 0.0034 -0.9950 0.0997
vn 1.0000 -0.0028 -0.0094
vn -0.0159 0.2421 -0.9701
vn -1.0000 0.0027 0.0094
vn 0.0009 -0.2453 0.9694
vn 0.9998 -0.0008 0.0222
vn 0.0218 -0.2208 -0.9751
vn -0.9997 0.0009 -0.0225
vn -0.0221 0.2131 0.9768
vn 0.0467 -0.9858 -0.1611
vn -0.0029 -0.9904 0.1382
s off
f 4/1/1 1/2/1 2/3/1
f 8/4/2 1/2/2 3/5/2
f 7/6/3 3/7/3 4/1/3
f 6/8/4 4/1/4 2/3/4
f 5/9/5 2/3/5 1/10/5
f 10/11/6 11/12/6 9/13/6
f 16/14/7 9/13/7 11/12/7
f 15/15/8 11/16/8 12/17/8
f 10/11/9 15/15/9 12/17/9
f 9/18/10 14/19/10 10/11/10
f 25/20/11 18/21/11 26/22/11
f 26/22/12 20/23/12 27/24/12
f 20/23/13 28/25/13 27/24/13
f 28/26/14 17/27/14 25/28/14
f 18/21/15 19/29/15 20/23/15
f 21/30/16 30/31/16 29/32/16
f 30/31/17 24/33/17 31/34/17
f 31/34/18 23/35/18 32/36/18
f 32/37/19 21/38/19 29/39/19
f 22/40/20 23/41/20 24/33/20
f 28/26/21 26/22/21 27/24/21
f 7/6/22 5/42/22 8/43/22
f 16/44/23 14/19/23 13/45/23
f 32/37/24 30/31/24 31/34/24
f 33/46/25 36/47/25 34/48/25
f 35/49/26 37/50/26 40/51/26
f 35/52/27 39/53/27 36/47/27
f 36/47/28 38/54/28 34/48/28
f 33/55/29 38/54/29 37/56/29
f 41/57/30 44/58/30 42/59/30
f 43/60/31 45/61/31 48/62/31
f 43/63/32 47/64/32 44/58/32
f 44/58/33 46/65/33 42/59/33
f 42/59/34 45/66/34 41/67/34
f 57/68/35 50/69/35 49/70/35
f 58/71/36 52/72/36 50/69/36
f 60/73/37 52/72/37 59/74/37
f 60/75/38 49/76/38 51/77/38
f 52/72/39 49/78/39 50/69/39
f 62/79/40 53/80/40 61/81/40
f 62/79/41 56/82/41 54/83/41
f 63/84/42 55/85/42 56/82/42
f 64/86/43 53/87/43 55/88/43
f 56/82/44 53/89/44 54/83/44
f 67/90/45 66/91/45 65/92/45
f 71/93/46 68/94/46 67/90/46
f 69/95/47 72/96/47 71/93/47
f 65/97/48 70/98/48 69/99/48
f 65/97/49 71/93/49 67/90/49
f 70/100/50 68/94/50 72/96/50
f 73/101/51 76/102/51 74/103/51
f 79/104/52 76/102/52 75/105/52
f 77/106/53 80/107/53 79/104/53
f 77/108/54 74/109/54 78/110/54
f 73/111/55 79/104/55 75/105/55
f 78/112/56 76/102/56 80/107/56
f 60/75/57 58/71/57 57/113/57
f 37/114/58 39/53/58 40/115/58
f 45/116/59 47/64/59 48/117/59
f 64/86/60 62/79/60 61/118/60
f 4/1/1 3/5/1 1/2/1
f 8/4/2 5/119/2 1/2/2
f 7/6/3 8/120/3 3/7/3
f 6/8/4 7/6/4 4/1/4
f 5/9/5 6/8/5 2/3/5
f 10/11/6 12/17/6 11/12/6
f 16/14/7 13/121/7 9/13/7
f 15/15/8 16/122/8 11/16/8
f 10/11/9 14/19/9 15/15/9
f 9/18/10 13/123/10 14/19/10
f 25/20/11 17/124/11 18/21/11
f 26/22/61 18/21/61 20/23/61
f 20/23/62 19/125/62 28/25/62
f 28/26/63 19/126/63 17/27/63
f 18/21/15 17/127/15 19/29/15
f 21/30/64 22/40/64 30/31/64
f 30/31/65 22/40/65 24/33/65
f 31/34/66 24/33/66 23/35/66
f 32/37/67 23/128/67 21/38/67
f 22/40/20 21/129/20 23/41/20
f 28/26/68 25/28/68 26/22/68
f 7/6/22 6/8/22 5/42/22
f 16/44/23 15/15/23 14/19/23
f 32/37/69 29/39/69 30/31/69
f 33/46/25 35/49/25 36/47/25
f 35/49/26 33/46/26 37/50/26
f 35/52/27 40/130/27 39/53/27
f 36/47/28 39/53/28 38/54/28
f 33/55/29 34/48/29 38/54/29
f 41/57/30 43/60/30 44/58/30
f 43/60/31 41/57/31 45/61/31
f 43/63/32 48/131/32 47/64/32
f 44/58/33 47/64/33 46/65/33
f 42/59/34 46/65/34 45/66/34
f 57/68/70 58/71/70 50/69/70
f 58/71/71 59/74/71 52/72/71
f 60/73/72 51/132/72 52/72/72
f 60/75/73 57/113/73 49/76/73
f 52/72/39 51/133/39 49/78/39
f 62/79/74 54/83/74 53/80/74
f 62/79/75 63/84/75 56/82/75
f 63/84/76 64/134/76 55/85/76
f 64/86/77 61/118/77 53/87/77
f 56/82/44 55/135/44 53/89/44
f 67/90/45 68/94/45 66/91/45
f 71/93/46 72/96/46 68/94/46
f 69/95/47 70/136/47 72/96/47
f 65/97/48 66/137/48 70/98/48
f 65/97/49 69/99/49 71/93/49
f 70/100/50 66/138/50 68/94/50
f 73/101/51 75/105/51 76/102/51
f 79/104/52 80/107/52 76/102/52
f 77/106/53 78/139/53 80/107/53
f 77/108/54 73/111/54 74/109/54
f 73/111/55 77/108/55 79/104/55
f 78/112/56 74/140/56 76/102/56
f 60/75/78 59/74/78 58/71/78
f 37/114/58 38/54/58 39/53/58
f 45/116/59 46/65/59 47/64/59
f 64/86/79 63/84/79 62/79/79
