# Blender v2.79 (sub 0) OBJ File: '3DObjectDecoderObjects.blend'
# www.blender.org
o Cube.005_Cube.008
v 0.649255 -0.092233 0.262825
v 0.648858 -0.222051 -0.120377
v 1.053692 -0.103034 0.266066
v 1.053295 -0.232853 -0.117136
v 0.677110 0.854517 -0.057937
v 0.676714 0.724699 -0.441139
v 1.081151 0.713897 -0.437898
v 1.081547 0.843715 -0.054696
v 0.078296 -1.722046 0.104827
v 0.071734 -1.587875 -0.276819
v 0.482831 -1.721930 0.097912
v 0.476269 -1.587760 -0.283734
v 0.083694 -0.778629 0.436399
v 0.077132 -0.644458 0.054753
v 0.481667 -0.644343 0.047838
v 0.488229 -0.778513 0.429483
v 0.696918 1.692978 0.214115
v 0.701977 1.806504 -0.174193
v 1.101381 1.682942 0.216450
v 1.106440 1.796468 -0.171857
v 0.077855 0.300840 0.183556
v 0.072311 0.188555 -0.205108
v 0.482404 0.301616 0.177561
v 0.476860 0.189331 -0.211104
v 0.674730 0.733472 -0.066696
v 0.679705 0.843074 -0.455341
v 1.083603 0.806805 -0.454813
v 1.079521 0.737867 -0.065155
v 0.083904 -0.690207 0.458502
v 0.078183 -0.753829 0.072531
v 0.482734 -0.753642 0.066440
v 0.488445 -0.689177 0.452124
v -0.698377 -0.081355 0.203598
v -0.702915 -0.208016 -0.180626
v -1.102945 -0.080857 0.208213
v -1.107483 -0.207519 -0.176012
v -0.700780 0.868372 -0.109461
v -0.705319 0.741710 -0.493685
v -1.109886 0.742208 -0.489070
v -1.105348 0.868869 -0.104846
v -0.079551 -1.715815 0.177624
v -0.070245 -1.595390 -0.208522
v -0.484027 -1.715958 0.167832
v -0.474721 -1.595533 -0.218314
v -0.087091 -0.761136 0.475170
v -0.077785 -0.640711 0.089024
v -0.482261 -0.640854 0.079232
v -0.491566 -0.761278 0.465378
v -0.695748 1.674067 0.213951
v -0.698739 1.810579 -0.166899
v -1.100323 1.675425 0.217615
v -1.103315 1.811936 -0.163235
v -0.079130 0.307912 0.180770
v -0.070864 0.180557 -0.203170
v -0.483626 0.308468 0.171877
v -0.475360 0.181112 -0.212062
v -0.701962 0.732713 -0.123412
v -0.704984 0.864996 -0.504770
v -1.109760 0.838070 -0.504017
v -1.106452 0.749696 -0.120079
v -0.087436 -0.671809 0.494046
v -0.078998 -0.750191 0.110983
v -0.483495 -0.750230 0.102018
v -0.491921 -0.671013 0.484759
v 0.630000 0.347471 0.420000
v 0.630000 1.747471 0.420000
v 0.630000 0.347471 -0.420000
v 0.630000 1.747471 -0.420000
v -0.630000 0.347471 0.420000
v -0.630000 1.747471 0.420000
v -0.630000 0.347471 -0.420000
v -0.630000 1.747471 -0.420000
v 0.335244 1.805179 0.266883
v 0.307100 2.390072 0.397682
v 0.252987 1.931113 -0.313956
v 0.224843 2.516006 -0.183158
v -0.258424 1.760001 0.341161
v -0.286568 2.344894 0.471960
v -0.340681 1.885935 -0.239678
v -0.368825 2.470828 -0.108879
vt 0.152804 0.123501
vt 0.127361 0.162474
vt 0.128453 0.121671
vt 0.067175 0.157952
vt 0.211899 0.168826
vt 0.150620 0.205107
vt 0.151712 0.164304
vt 0.212991 0.128023
vt 0.214083 0.087220
vt 0.153896 0.082698
vt 0.120318 0.196104
vt 0.141703 0.159716
vt 0.141869 0.195827
vt 0.194969 0.159030
vt 0.120152 0.159993
vt 0.066721 0.124568
vt 0.119987 0.123882
vt 0.066887 0.160679
vt 0.067218 0.232901
vt 0.120483 0.232215
vt 0.893013 0.803206
vt 0.953247 0.844041
vt 0.893013 0.844041
vt 0.953247 0.884875
vt 0.893013 0.884875
vt 0.893013 0.925710
vt 0.868643 0.884875
vt 0.808410 0.844041
vt 0.868643 0.844041
vt 0.977617 0.844041
vt 0.977617 0.884875
vt 0.741845 0.545283
vt 0.663028 0.598717
vt 0.663028 0.545283
vt 0.741845 0.652150
vt 0.663028 0.652150
vt 0.741845 0.705584
vt 0.663028 0.705584
vt 0.631139 0.652150
vt 0.552321 0.598717
vt 0.631139 0.598717
vt 0.741845 0.598717
vt 0.773734 0.652150
vt 0.237342 0.129853
vt 0.236250 0.170656
vt 0.045336 0.160957
vt 0.067052 0.196790
vt 0.045501 0.197068
vt 0.094887 0.153073
vt 0.114964 0.123128
vt 0.113861 0.154921
vt 0.049093 0.116713
vt 0.095990 0.121280
vt 0.162963 0.095902
vt 0.161861 0.127695
vt 0.160758 0.159488
vt 0.159655 0.191281
vt 0.112759 0.186714
vt 0.153193 0.158992
vt 0.134495 0.188340
vt 0.135087 0.158002
vt 0.152601 0.189330
vt 0.197943 0.161440
vt 0.197352 0.191779
vt 0.089154 0.216230
vt 0.089745 0.185892
vt 0.090336 0.155553
vt 0.090927 0.125215
vt 0.135678 0.127663
vt 0.893013 0.809899
vt 0.820174 0.859280
vt 0.820174 0.809899
vt 0.893013 0.859280
vt 0.820174 0.908661
vt 0.893013 0.958041
vt 0.893013 0.908661
vt 0.922484 0.908660
vt 0.995323 0.859280
vt 0.995323 0.908660
vt 0.790703 0.908661
vt 0.668850 0.601598
vt 0.627314 0.573439
vt 0.668850 0.573439
vt 0.627314 0.629757
vt 0.627314 0.601598
vt 0.668850 0.629757
vt 0.627314 0.657916
vt 0.685655 0.629757
vt 0.727191 0.601598
vt 0.727191 0.629757
vt 0.610509 0.629757
vt 0.114767 0.168293
vt 0.095916 0.220936
vt 0.095916 0.168293
vt 0.143042 0.168293
vt 0.114767 0.220936
vt 0.161893 0.168293
vt 0.143042 0.220936
vt 0.114767 0.136707
vt 0.143042 0.084063
vt 0.143042 0.136707
vt 0.143042 0.252523
vt 0.679363 0.612195
vt 0.705410 0.568551
vt 0.705410 0.612195
vt 0.653316 0.612195
vt 0.679363 0.568551
vt 0.627270 0.612195
vt 0.653316 0.568551
vt 0.653316 0.655839
vt 0.679363 0.699483
vt 0.653316 0.699483
vt 0.679363 0.655839
vt 0.653316 0.524907
vt 0.922484 0.859280
vt 0.179732 0.161336
vt 0.180835 0.129543
vt 0.072230 0.154563
vt 0.071639 0.184901
vt 0.685655 0.601598
vt 0.068267 0.117149
vt 0.210807 0.209629
vt 0.195135 0.195141
vt 0.953247 0.803206
vt 0.953247 0.925710
vt 0.808410 0.884875
vt 0.552321 0.652150
vt 0.773734 0.598717
vt 0.047991 0.148506
vt 0.116067 0.091335
vt 0.133904 0.218678
vt 0.820174 0.958041
vt 0.790703 0.859280
vt 0.668850 0.657916
vt 0.610509 0.601598
vt 0.161893 0.220936
vt 0.114767 0.084063
vt 0.114767 0.252523
vt 0.627270 0.568551
vt 0.679363 0.524907
vn -0.0279 -0.9468 0.3208
vn 0.0010 0.3209 0.9471
vn 0.9996 -0.0267 0.0080
vn -0.0010 -0.3209 -0.9471
vn -0.9996 0.0267 -0.0080
vn -0.0054 -0.9434 -0.3316
vn 0.0162 -0.3316 0.9433
vn 0.9999 0.0003 -0.0171
vn -0.0162 0.3316 -0.9433
vn -0.9999 -0.0003 0.0171
vn -0.9997 0.0248 -0.0058
vn 0.0259 0.2743 -0.9613
vn 0.9997 -0.0248 0.0061
vn -0.0006 -0.2809 0.9597
vn 0.0222 0.9595 0.2808
vn -0.9999 -0.0019 0.0151
vn -0.0143 -0.2824 -0.9592
vn 0.9999 0.0019 -0.0151
vn 0.0145 0.2674 0.9635
vn -0.0060 0.9607 -0.2775
vn -0.0878 -0.9807 -0.1744
vn 0.0279 0.9468 -0.3208
vn 0.0054 0.9434 0.3316
vn 0.0029 -0.9863 0.1648
vn 0.0024 -0.9497 0.3131
vn 0.0112 0.3131 0.9497
vn -0.9999 0.0012 0.0114
vn -0.0112 -0.3131 -0.9497
vn 0.9999 -0.0012 -0.0114
vn 0.0075 -0.9547 -0.2975
vn -0.0230 -0.2976 0.9544
vn -0.9997 -0.0004 -0.0242
vn 0.0230 0.2976 -0.9544
vn 0.9997 0.0004 0.0242
vn 1.0000 -0.0034 -0.0091
vn -0.0074 0.3365 -0.9416
vn -1.0000 0.0033 0.0094
vn 0.0074 -0.3427 0.9394
vn 0.0062 0.9414 0.3374
vn 0.9998 -0.0013 0.0223
vn 0.0204 -0.3199 -0.9472
vn -0.9998 0.0013 -0.0220
vn -0.0205 0.3044 0.9523
vn 0.0082 0.9492 -0.3147
vn 1.0000 0.0000 0.0000
vn 0.0000 0.0000 -1.0000
vn -1.0000 0.0000 0.0000
vn 0.0000 0.0000 1.0000
vn 0.0000 -1.0000 0.0000
vn 0.0000 1.0000 0.0000
vn 0.9894 0.0753 -0.1238
vn -0.1371 0.2099 -0.9681
vn -0.9894 -0.0753 0.1238
vn 0.1371 -0.2099 0.9681
vn 0.0469 -0.9748 -0.2180
vn -0.0469 0.9748 0.2180
vn -0.0427 -0.9737 -0.2238
vn -0.0024 0.9497 -0.3131
vn -0.0075 0.9547 0.2975
vn -0.0065 -0.9797 0.2003
vn 0.0125 0.2798 -0.9600
vn 0.9997 -0.0248 0.0058
vn -0.0126 -0.2853 0.9584
vn -0.9999 -0.0019 0.0148
vn -0.0137 -0.2827 -0.9591
vn 0.9999 0.0019 -0.0148
vn 0.0138 0.2671 0.9636
vn 0.0115 -0.9624 -0.2713
vn 0.0051 -0.9867 0.1626
vn -0.0237 0.3303 -0.9436
vn -1.0000 0.0033 0.0090
vn -0.0064 -0.3373 0.9414
vn 0.9998 -0.0013 0.0220
vn 0.0210 -0.3196 -0.9473
vn -0.9998 0.0013 -0.0223
vn -0.0213 0.3047 0.9522
vn 0.0621 -0.9428 -0.3275
vn -0.0044 -0.9793 0.2026
s off
f 2/1/1 3/2/1 1/3/1
f 8/4/2 1/3/2 3/2/2
f 7/5/3 3/6/3 4/7/3
f 6/8/4 4/7/4 2/1/4
f 5/9/5 2/1/5 1/10/5
f 10/11/6 11/12/6 9/13/6
f 16/14/7 9/13/7 11/12/7
f 12/15/8 16/16/8 11/17/8
f 10/11/9 15/18/9 12/15/9
f 13/19/10 10/11/10 9/20/10
f 25/21/11 18/22/11 26/23/11
f 26/23/12 20/24/12 27/25/12
f 20/24/13 28/26/13 27/25/13
f 28/27/14 17/28/14 25/29/14
f 20/24/15 17/30/15 19/31/15
f 21/32/16 30/33/16 29/34/16
f 30/33/17 24/35/17 31/36/17
f 31/36/18 23/37/18 32/38/18
f 32/39/19 21/40/19 29/41/19
f 22/42/20 23/43/20 24/35/20
f 28/27/21 26/23/21 27/25/21
f 7/5/22 5/44/22 8/45/22
f 16/46/23 14/47/23 13/48/23
f 32/39/24 30/33/24 31/36/24
f 33/49/25 36/50/25 34/51/25
f 33/49/26 40/52/26 35/53/26
f 36/50/27 40/54/27 39/55/27
f 36/50/28 38/56/28 34/51/28
f 34/51/29 37/57/29 33/58/29
f 41/59/30 44/60/30 42/61/30
f 43/62/31 45/63/31 48/64/31
f 44/60/32 48/65/32 47/66/32
f 44/60/33 46/67/33 42/61/33
f 42/61/34 45/68/34 41/69/34
f 57/70/35 50/71/35 49/72/35
f 58/73/36 52/74/36 50/71/36
f 60/75/37 52/74/37 59/76/37
f 60/77/38 49/78/38 51/79/38
f 51/80/39 50/71/39 52/74/39
f 62/81/40 53/82/40 61/83/40
f 62/81/41 56/84/41 54/85/41
f 63/86/42 55/87/42 56/84/42
f 64/88/43 53/89/43 55/90/43
f 55/91/44 54/85/44 56/84/44
f 67/92/45 66/93/45 65/94/45
f 71/95/46 68/96/46 67/92/46
f 69/97/47 72/98/47 71/95/47
f 65/99/48 70/100/48 69/101/48
f 65/99/49 71/95/49 67/92/49
f 70/102/50 68/96/50 72/98/50
f 75/103/51 74/104/51 73/105/51
f 79/106/52 76/107/52 75/103/52
f 77/108/53 80/109/53 79/106/53
f 77/110/54 74/111/54 78/112/54
f 73/113/55 79/106/55 75/103/55
f 78/114/56 76/107/56 80/109/56
f 59/76/57 57/115/57 60/77/57
f 37/116/58 39/55/58 40/117/58
f 45/118/59 47/66/59 48/119/59
f 64/88/60 62/81/60 61/120/60
f 2/1/1 4/7/1 3/2/1
f 8/4/2 5/121/2 1/3/2
f 7/5/3 8/122/3 3/6/3
f 6/8/4 7/5/4 4/7/4
f 5/9/5 6/8/5 2/1/5
f 10/11/6 12/15/6 11/12/6
f 16/14/7 13/123/7 9/13/7
f 12/15/8 15/18/8 16/16/8
f 10/11/9 14/47/9 15/18/9
f 13/19/10 14/47/10 10/11/10
f 25/21/11 17/124/11 18/22/11
f 26/23/61 18/22/61 20/24/61
f 20/24/62 19/125/62 28/26/62
f 28/27/63 19/126/63 17/28/63
f 20/24/15 18/22/15 17/30/15
f 21/32/64 22/42/64 30/33/64
f 30/33/65 22/42/65 24/35/65
f 31/36/66 24/35/66 23/37/66
f 32/39/67 23/127/67 21/40/67
f 22/42/20 21/128/20 23/43/20
f 28/27/68 25/29/68 26/23/68
f 7/5/22 6/8/22 5/44/22
f 16/46/23 15/18/23 14/47/23
f 32/39/69 29/41/69 30/33/69
f 33/49/25 35/53/25 36/50/25
f 33/49/26 37/129/26 40/52/26
f 36/50/27 35/130/27 40/54/27
f 36/50/28 39/55/28 38/56/28
f 34/51/29 38/56/29 37/57/29
f 41/59/30 43/62/30 44/60/30
f 43/62/31 41/59/31 45/63/31
f 44/60/32 43/131/32 48/65/32
f 44/60/33 47/66/33 46/67/33
f 42/61/34 46/67/34 45/68/34
f 57/70/35 58/73/35 50/71/35
f 58/73/70 59/76/70 52/74/70
f 60/75/71 51/132/71 52/74/71
f 60/77/72 57/115/72 49/78/72
f 51/80/39 49/133/39 50/71/39
f 62/81/73 54/85/73 53/82/73
f 62/81/74 63/86/74 56/84/74
f 63/86/75 64/134/75 55/87/75
f 64/88/76 61/120/76 53/89/76
f 55/91/44 53/135/44 54/85/44
f 67/92/45 68/96/45 66/93/45
f 71/95/46 72/98/46 68/96/46
f 69/97/47 70/136/47 72/98/47
f 65/99/48 66/137/48 70/100/48
f 65/99/49 69/101/49 71/95/49
f 70/102/50 66/138/50 68/96/50
f 75/103/51 76/107/51 74/104/51
f 79/106/52 80/109/52 76/107/52
f 77/108/53 78/139/53 80/109/53
f 77/110/54 73/113/54 74/111/54
f 73/113/55 77/110/55 79/106/55
f 78/114/56 74/140/56 76/107/56
f 59/76/77 58/73/77 57/115/77
f 37/116/58 38/56/58 39/55/58
f 45/118/59 46/67/59 47/66/59
f 64/88/78 63/86/78 62/81/78
