# Blender v2.79 (sub 0) OBJ File: '3DObjectDecoderObjects.blend'
# www.blender.org
o Cube.005_Cube.008
v 0.649107 -0.099804 0.263576
v 0.649042 -0.215595 -0.124096
v 1.053550 -0.110444 0.266686
v 1.053484 -0.226235 -0.120985
v 0.676505 0.858007 -0.022513
v 0.676440 0.742216 -0.410185
v 1.080882 0.731576 -0.407074
v 1.080947 0.847367 -0.019403
v 0.078339 -1.715891 0.109450
v 0.071776 -1.595642 -0.276808
v 0.482876 -1.715783 0.102609
v 0.476312 -1.595534 -0.283649
v 0.083108 -0.761076 0.406620
v 0.076544 -0.640827 0.020362
v 0.481081 -0.640718 0.013521
v 0.487644 -0.760968 0.399779
v 0.697135 1.728549 0.213365
v 0.701805 1.827043 -0.179030
v 1.101600 1.718582 0.215677
v 1.106270 1.817076 -0.176718
v 0.077958 0.321380 0.187319
v 0.072277 0.223714 -0.205272
v 0.482507 0.322072 0.181292
v 0.476826 0.224406 -0.211300
v 0.674634 0.758946 -0.030280
v 0.679231 0.853984 -0.422968
v 1.083206 0.820915 -0.422223
v 1.079384 0.761687 -0.028681
v 0.083296 -0.675864 0.426414
v 0.077462 -0.730502 0.036229
v 0.482011 -0.730330 0.030117
v 0.487837 -0.674946 0.420048
v -0.698401 -0.088315 0.204207
v -0.702925 -0.201956 -0.184068
v -1.102970 -0.087826 0.208778
v -1.107494 -0.201466 -0.179497
v -0.700414 0.871423 -0.076668
v -0.704938 0.757782 -0.464943
v -1.109506 0.758272 -0.460372
v -1.104982 0.871912 -0.072097
v -0.079627 -1.709627 0.181944
v -0.070287 -1.603017 -0.208240
v -0.484104 -1.709770 0.172223
v -0.474764 -1.603160 -0.217962
v -0.086299 -0.744965 0.445357
v -0.076959 -0.638355 0.055173
v -0.481437 -0.638498 0.045451
v -0.490777 -0.745108 0.435636
v -0.695698 1.709368 0.213674
v -0.698860 1.831814 -0.171927
v -1.100274 1.710628 0.217391
v -1.103435 1.833073 -0.168210
v -0.079264 0.328522 0.184842
v -0.070824 0.215795 -0.203641
v -0.483759 0.328996 0.175917
v -0.475320 0.216269 -0.212566
v -0.701446 0.756268 -0.088927
v -0.704635 0.874919 -0.474978
v -1.109387 0.850804 -0.473835
v -1.105947 0.771544 -0.085528
v -0.086608 -0.658926 0.462102
v -0.078020 -0.728303 0.074446
v -0.482516 -0.728355 0.065456
v -0.491093 -0.658238 0.452829
v 0.630000 0.374800 0.420000
v 0.630000 1.774800 0.420000
v 0.630000 0.374800 -0.420000
v 0.630000 1.774800 -0.420000
v -0.630000 0.374800 0.420000
v -0.630000 1.774800 0.420000
v -0.630000 0.374800 -0.420000
v -0.630000 1.774800 -0.420000
v 0.329086 1.839366 0.273806
v 0.304625 2.429163 0.381237
v 0.261890 1.943512 -0.313253
v 0.237429 2.533309 -0.205822
v -0.266638 1.803401 0.335613
v -0.291099 2.393198 0.443045
v -0.333834 1.907547 -0.251446
v -0.358295 2.497344 -0.144014
vt 0.151712 0.164304
vt 0.128453 0.121671
vt 0.152804 0.123501
vt 0.067175 0.157952
vt 0.127361 0.162474
vt 0.211899 0.168826
vt 0.150620 0.205107
vt 0.212991 0.128023
vt 0.214083 0.087220
vt 0.153896 0.082698
vt 0.120318 0.196104
vt 0.141703 0.159716
vt 0.141869 0.195827
vt 0.194969 0.159030
vt 0.066887 0.160679
vt 0.119987 0.123882
vt 0.120152 0.159993
vt 0.067218 0.232901
vt 0.120483 0.232215
vt 0.893013 0.803206
vt 0.953247 0.844041
vt 0.893013 0.844041
vt 0.953247 0.884875
vt 0.893013 0.884875
vt 0.893013 0.925710
vt 0.868643 0.884875
vt 0.808410 0.844041
vt 0.868643 0.844041
vt 0.977617 0.844041
vt 0.977617 0.884875
vt 0.741845 0.545283
vt 0.663028 0.598717
vt 0.663028 0.545283
vt 0.741845 0.652150
vt 0.663028 0.652150
vt 0.741845 0.705584
vt 0.663028 0.705584
vt 0.631139 0.652150
vt 0.552321 0.598717
vt 0.631139 0.598717
vt 0.741845 0.598717
vt 0.773734 0.652150
vt 0.236250 0.170656
vt 0.237342 0.129853
vt 0.045336 0.160957
vt 0.067052 0.196790
vt 0.045501 0.197068
vt 0.094887 0.153073
vt 0.114964 0.123128
vt 0.113861 0.154921
vt 0.095990 0.121280
vt 0.047991 0.148506
vt 0.049093 0.116713
vt 0.162963 0.095902
vt 0.161861 0.127695
vt 0.160758 0.159488
vt 0.159655 0.191281
vt 0.112759 0.186714
vt 0.153193 0.158992
vt 0.134495 0.188340
vt 0.135087 0.158002
vt 0.152601 0.189330
vt 0.197943 0.161440
vt 0.197352 0.191779
vt 0.089154 0.216230
vt 0.089745 0.185892
vt 0.090336 0.155553
vt 0.090927 0.125215
vt 0.135678 0.127663
vt 0.893013 0.809899
vt 0.820174 0.859280
vt 0.820174 0.809899
vt 0.893013 0.859280
vt 0.820174 0.908661
vt 0.893013 0.958041
vt 0.893013 0.908661
vt 0.922484 0.908660
vt 0.995323 0.859280
vt 0.995323 0.908660
vt 0.790703 0.908661
vt 0.668850 0.601598
vt 0.627314 0.573439
vt 0.668850 0.573439
vt 0.627314 0.629757
vt 0.627314 0.601598
vt 0.668850 0.629757
vt 0.627314 0.657916
vt 0.685655 0.629757
vt 0.727191 0.601598
vt 0.727191 0.629757
vt 0.610509 0.629757
vt 0.114767 0.168293
vt 0.095916 0.220936
vt 0.095916 0.168293
vt 0.143042 0.168293
vt 0.114767 0.220936
vt 0.161893 0.168293
vt 0.143042 0.220936
vt 0.114767 0.136707
vt 0.143042 0.084063
vt 0.143042 0.136707
vt 0.143042 0.252523
vt 0.705410 0.612195
vt 0.679363 0.568551
vt 0.705410 0.568551
vt 0.679363 0.612195
vt 0.653316 0.568551
vt 0.627270 0.612195
vt 0.653316 0.612195
vt 0.653316 0.655839
vt 0.679363 0.699483
vt 0.653316 0.699483
vt 0.679363 0.524907
vt 0.922484 0.859280
vt 0.179732 0.161336
vt 0.180835 0.129543
vt 0.072230 0.154563
vt 0.071639 0.184901
vt 0.685655 0.601598
vt 0.068267 0.117149
vt 0.210807 0.209629
vt 0.195135 0.195141
vt 0.066721 0.124568
vt 0.953247 0.803206
vt 0.953247 0.925710
vt 0.808410 0.884875
vt 0.552321 0.652150
vt 0.773734 0.598717
vt 0.116067 0.091335
vt 0.133904 0.218678
vt 0.820174 0.958041
vt 0.790703 0.859280
vt 0.668850 0.657916
vt 0.610509 0.601598
vt 0.161893 0.220936
vt 0.114767 0.084063
vt 0.114767 0.252523
vt 0.627270 0.568551
vt 0.679363 0.655839
vt 0.653316 0.524907
vn -0.0274 -0.9578 0.2861
vn 0.0002 0.2862 0.9582
vn 0.9996 -0.0263 0.0077
vn -0.0002 -0.2862 -0.9582
vn -0.9996 0.0263 -0.0077
vn -0.0048 -0.9548 -0.2972
vn 0.0162 -0.2972 0.9547
vn 0.9999 0.0003 -0.0169
vn -0.0162 0.2972 -0.9547
vn -0.9999 -0.0003 0.0169
vn -0.9997 0.0246 -0.0057
vn 0.0213 0.2388 -0.9708
vn 0.9997 -0.0246 0.0060
vn -0.0022 -0.2437 0.9699
vn 0.0225 0.9696 0.2436
vn -0.9999 -0.0017 0.0152
vn -0.0145 -0.2452 -0.9694
vn 0.9999 0.0017 -0.0152
vn 0.0148 0.2332 0.9723
vn -0.0053 0.9704 -0.2413
vn -0.0804 -0.9855 -0.1491
vn 0.0274 0.9578 -0.2861
vn 0.0048 0.9548 0.2972
vn 0.0025 -0.9901 0.1406
vn 0.0020 -0.9597 0.2809
vn 0.0112 0.2809 0.9597
vn -0.9999 0.0012 0.0113
vn -0.0112 -0.2809 -0.9597
vn 0.9999 -0.0012 -0.0113
vn 0.0067 -0.9647 -0.2634
vn -0.0231 -0.2635 0.9644
vn -0.9997 -0.0004 -0.0240
vn 0.0231 0.2635 -0.9644
vn 0.9997 0.0004 0.0240
vn 1.0000 -0.0031 -0.0092
vn -0.0078 0.3020 -0.9533
vn -1.0000 0.0031 0.0095
vn 0.0078 -0.3070 0.9517
vn 0.0057 0.9531 0.3026
vn 0.9997 -0.0012 0.0224
vn 0.0208 -0.2826 -0.9590
vn -0.9998 0.0011 -0.0220
vn -0.0209 0.2702 0.9626
vn 0.0073 0.9604 -0.2785
vn 1.0000 0.0000 0.0000
vn 0.0000 0.0000 -1.0000
vn -1.0000 0.0000 0.0000
vn 0.0000 0.0000 1.0000
vn 0.0000 -1.0000 0.0000
vn 0.0000 1.0000 0.0000
vn 0.9929 0.0599 -0.1030
vn -0.1120 0.1736 -0.9784
vn -0.9929 -0.0599 0.1030
vn 0.1120 -0.1736 0.9784
vn 0.0408 -0.9830 -0.1791
vn -0.0408 0.9830 0.1791
vn -0.0385 -0.9553 -0.2933
vn -0.0020 0.9597 -0.2809
vn -0.0067 0.9647 0.2634
vn -0.0057 -0.9844 0.1760
vn 0.0115 0.2429 -0.9700
vn 0.9997 -0.0247 0.0057
vn -0.0116 -0.2472 0.9689
vn -0.9999 -0.0017 0.0149
vn -0.0140 -0.2454 -0.9693
vn 0.9999 0.0017 -0.0149
vn 0.0141 0.2329 0.9724
vn 0.0075 -0.9719 -0.2351
vn 0.0044 -0.9903 0.1386
vn -0.0204 0.2971 -0.9546
vn -1.0000 0.0031 0.0092
vn -0.0034 -0.3026 0.9531
vn 0.9998 -0.0011 0.0220
vn 0.0214 -0.2824 -0.9591
vn -0.9997 0.0012 -0.0223
vn -0.0216 0.2704 0.9625
vn 0.0577 -0.9781 -0.2001
vn -0.0038 -0.9840 0.1780
s off
f 4/1/1 1/2/1 2/3/1
f 8/4/2 1/2/2 3/5/2
f 7/6/3 3/7/3 4/1/3
f 6/8/4 4/1/4 2/3/4
f 5/9/5 2/3/5 1/10/5
f 10/11/6 11/12/6 9/13/6
f 16/14/7 9/13/7 11/12/7
f 15/15/8 11/16/8 12/17/8
f 10/11/9 15/15/9 12/17/9
f 13/18/10 10/11/10 9/19/10
f 25/20/11 18/21/11 26/22/11
f 26/22/12 20/23/12 27/24/12
f 20/23/13 28/25/13 27/24/13
f 28/26/14 17/27/14 25/28/14
f 20/23/15 17/29/15 19/30/15
f 21/31/16 30/32/16 29/33/16
f 30/32/17 24/34/17 31/35/17
f 31/35/18 23/36/18 32/37/18
f 32/38/19 21/39/19 29/40/19
f 22/41/20 23/42/20 24/34/20
f 28/26/21 26/22/21 27/24/21
f 8/43/22 6/8/22 5/44/22
f 16/45/23 14/46/23 13/47/23
f 32/38/24 30/32/24 31/35/24
f 33/48/25 36/49/25 34/50/25
f 35/51/26 37/52/26 40/53/26
f 36/49/27 40/54/27 39/55/27
f 36/49/28 38/56/28 34/50/28
f 34/50/29 37/57/29 33/58/29
f 41/59/30 44/60/30 42/61/30
f 43/62/31 45/63/31 48/64/31
f 44/60/32 48/65/32 47/66/32
f 44/60/33 46/67/33 42/61/33
f 42/61/34 45/68/34 41/69/34
f 57/70/35 50/71/35 49/72/35
f 58/73/36 52/74/36 50/71/36
f 60/75/37 52/74/37 59/76/37
f 60/77/38 49/78/38 51/79/38
f 51/80/39 50/71/39 52/74/39
f 62/81/40 53/82/40 61/83/40
f 62/81/41 56/84/41 54/85/41
f 63/86/42 55/87/42 56/84/42
f 64/88/43 53/89/43 55/90/43
f 55/91/44 54/85/44 56/84/44
f 67/92/45 66/93/45 65/94/45
f 71/95/46 68/96/46 67/92/46
f 69/97/47 72/98/47 71/95/47
f 65/99/48 70/100/48 69/101/48
f 65/99/49 71/95/49 67/92/49
f 70/102/50 68/96/50 72/98/50
f 73/103/51 76/104/51 74/105/51
f 75/106/52 80/107/52 76/104/52
f 77/108/53 80/107/53 79/109/53
f 77/110/54 74/111/54 78/112/54
f 75/106/55 77/110/55 79/109/55
f 80/107/56 74/113/56 76/104/56
f 60/77/57 58/73/57 57/114/57
f 37/115/58 39/55/58 40/116/58
f 45/117/59 47/66/59 48/118/59
f 64/88/60 62/81/60 61/119/60
f 4/1/1 3/5/1 1/2/1
f 8/4/2 5/120/2 1/2/2
f 7/6/3 8/121/3 3/7/3
f 6/8/4 7/6/4 4/1/4
f 5/9/5 6/8/5 2/3/5
f 10/11/6 12/17/6 11/12/6
f 16/14/7 13/122/7 9/13/7
f 15/15/8 16/123/8 11/16/8
f 10/11/9 14/46/9 15/15/9
f 13/18/10 14/46/10 10/11/10
f 25/20/11 17/124/11 18/21/11
f 26/22/61 18/21/61 20/23/61
f 20/23/62 19/125/62 28/25/62
f 28/26/63 19/126/63 17/27/63
f 20/23/15 18/21/15 17/29/15
f 21/31/64 22/41/64 30/32/64
f 30/32/65 22/41/65 24/34/65
f 31/35/66 24/34/66 23/36/66
f 32/38/67 23/127/67 21/39/67
f 22/41/20 21/128/20 23/42/20
f 28/26/68 25/28/68 26/22/68
f 8/43/22 7/6/22 6/8/22
f 16/45/23 15/15/23 14/46/23
f 32/38/69 29/40/69 30/32/69
f 33/48/25 35/51/25 36/49/25
f 35/51/26 33/48/26 37/52/26
f 36/49/27 35/129/27 40/54/27
f 36/49/28 39/55/28 38/56/28
f 34/50/29 38/56/29 37/57/29
f 41/59/30 43/62/30 44/60/30
f 43/62/31 41/59/31 45/63/31
f 44/60/32 43/130/32 48/65/32
f 44/60/33 47/66/33 46/67/33
f 42/61/34 46/67/34 45/68/34
f 57/70/35 58/73/35 50/71/35
f 58/73/70 59/76/70 52/74/70
f 60/75/71 51/131/71 52/74/71
f 60/77/72 57/114/72 49/78/72
f 51/80/39 49/132/39 50/71/39
f 62/81/73 54/85/73 53/82/73
f 62/81/74 63/86/74 56/84/74
f 63/86/75 64/133/75 55/87/75
f 64/88/76 61/119/76 53/89/76
f 55/91/44 53/134/44 54/85/44
f 67/92/45 68/96/45 66/93/45
f 71/95/46 72/98/46 68/96/46
f 69/97/47 70/135/47 72/98/47
f 65/99/48 66/136/48 70/100/48
f 65/99/49 69/101/49 71/95/49
f 70/102/50 66/137/50 68/96/50
f 73/103/51 75/106/51 76/104/51
f 75/106/52 79/109/52 80/107/52
f 77/108/53 78/138/53 80/107/53
f 77/110/54 73/139/54 74/111/54
f 75/106/55 73/139/55 77/110/55
f 80/107/56 78/140/56 74/113/56
f 60/77/77 59/76/77 58/73/77
f 37/115/58 38/56/58 39/55/58
f 45/117/59 46/67/59 47/66/59
f 64/88/78 63/86/78 62/81/78
