# Blender v2.79 (sub 0) OBJ File: '3DObjectDecoderObjects.blend'
# www.blender.org
o Cube.005_Cube.008
v 0.648794 -0.116571 0.264254
v 0.649430 -0.200915 -0.131451
v 1.053247 -0.126901 0.267106
v 1.053883 -0.211244 -0.128599
v 0.675234 0.861125 0.055903
v 0.675870 0.776782 -0.339802
v 1.080323 0.766452 -0.336950
v 1.079686 0.850795 0.058755
v 0.078424 -1.701791 0.118753
v 0.071879 -1.612417 -0.275795
v 0.482963 -1.701678 0.112067
v 0.476418 -1.612304 -0.282481
v 0.081802 -0.726492 0.339626
v 0.075257 -0.637118 -0.054922
v 0.479796 -0.637006 -0.061608
v 0.486341 -0.726379 0.332940
v 0.697595 1.797822 0.210565
v 0.701441 1.862630 -0.188787
v 1.102062 1.787959 0.212860
v 1.105909 1.852768 -0.186492
v 0.078165 0.357260 0.194644
v 0.072222 0.292000 -0.204611
v 0.482713 0.357786 0.188536
v 0.476770 0.292526 -0.210720
v 0.674442 0.811035 0.050201
v 0.678240 0.873438 -0.349349
v 1.082375 0.847492 -0.348105
v 1.079103 0.810017 0.051979
v 0.081939 -0.648673 0.354284
v 0.075892 -0.683402 -0.043221
v 0.480440 -0.683245 -0.049390
v 0.486481 -0.647987 0.347936
v -0.698463 -0.103317 0.204717
v -0.702940 -0.188503 -0.190776
v -1.103033 -0.102825 0.209191
v -1.107509 -0.188011 -0.186302
v -0.699603 0.874262 -0.005830
v -0.704080 0.789076 -0.401323
v -1.108649 0.789568 -0.396850
v -1.104172 0.874754 -0.001356
v -0.079776 -1.695465 0.190603
v -0.070396 -1.619444 -0.206675
v -0.484257 -1.695592 0.181029
v -0.474877 -1.619571 -0.216250
v -0.084532 -0.713274 0.378437
v -0.075151 -0.637253 -0.018841
v -0.479632 -0.637381 -0.028416
v -0.489013 -0.713401 0.368862
v -0.695612 1.777584 0.212100
v -0.699102 1.869326 -0.181933
v -1.100187 1.778651 0.215932
v -1.103677 1.870394 -0.178101
v -0.079531 0.364581 0.192806
v -0.070766 0.284214 -0.203630
v -0.484024 0.364892 0.183800
v -0.475260 0.284525 -0.212636
v -0.700329 0.803635 -0.014622
v -0.703839 0.892534 -0.408983
v -1.108543 0.874579 -0.407021
v -1.104849 0.815206 -0.011060
v -0.084755 -0.634774 0.390428
v -0.075890 -0.684234 -0.005346
v -0.480384 -0.684298 -0.014399
v -0.489242 -0.634310 0.381174
v 0.630000 0.425988 0.420000
v 0.630000 1.825988 0.420000
v 0.630000 0.425988 -0.420000
v 0.630000 1.825988 -0.420000
v -0.630000 0.425988 0.420000
v -0.630000 1.825988 0.420000
v -0.630000 0.425988 -0.420000
v -0.630000 1.825988 -0.420000
v 0.336016 1.882854 0.265979
v 0.307449 2.467060 0.399722
v 0.251850 2.011511 -0.313989
v 0.223283 2.595717 -0.180246
v -0.257364 1.836480 0.341804
v -0.285931 2.420686 0.475547
v -0.341530 1.965137 -0.238164
v -0.370097 2.549343 -0.104421
vt 0.151712 0.164304
vt 0.128453 0.121671
vt 0.152804 0.123501
vt 0.067175 0.157952
vt 0.127361 0.162474
vt 0.211899 0.168826
vt 0.150620 0.205107
vt 0.212991 0.128023
vt 0.214083 0.087220
vt 0.153896 0.082698
vt 0.120318 0.196104
vt 0.141703 0.159716
vt 0.141869 0.195827
vt 0.194969 0.159030
vt 0.066887 0.160679
vt 0.119987 0.123882
vt 0.120152 0.159993
vt 0.120483 0.232215
vt 0.067052 0.196790
vt 0.893013 0.803206
vt 0.953247 0.844041
vt 0.893013 0.844041
vt 0.953247 0.884875
vt 0.893013 0.884875
vt 0.893013 0.925710
vt 0.868643 0.884875
vt 0.808410 0.844041
vt 0.868643 0.844041
vt 0.977617 0.884875
vt 0.741845 0.545283
vt 0.663028 0.598717
vt 0.663028 0.545283
vt 0.741845 0.652150
vt 0.663028 0.652150
vt 0.741845 0.705584
vt 0.663028 0.705584
vt 0.631139 0.652150
vt 0.552321 0.598717
vt 0.631139 0.598717
vt 0.741845 0.598717
vt 0.773734 0.652150
vt 0.237342 0.129853
vt 0.236250 0.170656
vt 0.045336 0.160957
vt 0.045501 0.197068
vt 0.094887 0.153073
vt 0.114964 0.123128
vt 0.113861 0.154921
vt 0.049093 0.116713
vt 0.095990 0.121280
vt 0.116067 0.091335
vt 0.161861 0.127695
vt 0.160758 0.159488
vt 0.112759 0.186714
vt 0.159655 0.191281
vt 0.153193 0.158992
vt 0.134495 0.188340
vt 0.135087 0.158002
vt 0.152601 0.189330
vt 0.197943 0.161440
vt 0.197352 0.191779
vt 0.089154 0.216230
vt 0.089745 0.185892
vt 0.090336 0.155553
vt 0.135678 0.127663
vt 0.090927 0.125215
vt 0.893013 0.809899
vt 0.820174 0.859280
vt 0.820174 0.809899
vt 0.893013 0.859280
vt 0.820174 0.908661
vt 0.893013 0.958041
vt 0.893013 0.908661
vt 0.922484 0.908660
vt 0.995323 0.859280
vt 0.995323 0.908660
vt 0.790703 0.859280
vt 0.668850 0.601598
vt 0.627314 0.573439
vt 0.668850 0.573439
vt 0.627314 0.629757
vt 0.627314 0.601598
vt 0.668850 0.629757
vt 0.627314 0.657916
vt 0.685655 0.629757
vt 0.727191 0.601598
vt 0.727191 0.629757
vt 0.610509 0.601598
vt 0.114767 0.168293
vt 0.095916 0.220936
vt 0.095916 0.168293
vt 0.143042 0.168293
vt 0.114767 0.220936
vt 0.161893 0.168293
vt 0.143042 0.220936
vt 0.114767 0.136707
vt 0.143042 0.084063
vt 0.143042 0.136707
vt 0.143042 0.252523
vt 0.705410 0.612195
vt 0.679363 0.568551
vt 0.705410 0.568551
vt 0.653316 0.612195
vt 0.679363 0.612195
vt 0.627270 0.612195
vt 0.653316 0.568551
vt 0.653316 0.655839
vt 0.679363 0.699483
vt 0.653316 0.699483
vt 0.679363 0.655839
vt 0.653316 0.524907
vt 0.922484 0.859280
vt 0.179732 0.161336
vt 0.180835 0.129543
vt 0.072230 0.154563
vt 0.071639 0.184901
vt 0.685655 0.601598
vt 0.068267 0.117149
vt 0.210807 0.209629
vt 0.195135 0.195141
vt 0.066721 0.124568
vt 0.067218 0.232901
vt 0.953247 0.803206
vt 0.953247 0.925710
vt 0.808410 0.884875
vt 0.977617 0.844041
vt 0.552321 0.652150
vt 0.773734 0.598717
vt 0.047991 0.148506
vt 0.162963 0.095902
vt 0.133904 0.218678
vt 0.820174 0.958041
vt 0.790703 0.908661
vt 0.668850 0.657916
vt 0.610509 0.629757
vt 0.161893 0.220936
vt 0.114767 0.084063
vt 0.114767 0.252523
vt 0.627270 0.568551
vt 0.679363 0.524907
vn -0.0264 -0.9777 0.2084
vn -0.0016 0.2085 0.9780
vn 0.9996 -0.0255 0.0070
vn 0.0016 -0.2085 -0.9780
vn -0.9996 0.0255 -0.0070
vn -0.0034 -0.9753 -0.2209
vn 0.0162 -0.2209 0.9752
vn 0.9999 0.0003 -0.0165
vn -0.0162 0.2209 -0.9752
vn -0.9999 -0.0003 0.0165
vn -0.9997 0.0244 -0.0057
vn 0.0132 0.1584 -0.9873
vn 0.9997 -0.0244 0.0059
vn -0.0047 -0.1603 0.9871
vn 0.0232 0.9868 0.1604
vn -0.9999 -0.0013 0.0153
vn -0.0150 -0.1632 -0.9865
vn 0.9999 0.0013 -0.0153
vn 0.0152 0.1568 0.9875
vn -0.0037 0.9869 -0.1613
vn -0.0635 -0.9936 -0.0936
vn 0.0264 0.9777 -0.2084
vn 0.0034 0.9753 0.2209
vn 0.0017 -0.9961 0.0884
vn 0.0011 -0.9776 0.2106
vn 0.0111 0.2105 0.9775
vn -0.9999 0.0012 0.0111
vn -0.0111 -0.2105 -0.9775
vn 0.9999 -0.0012 -0.0111
vn 0.0048 -0.9822 -0.1878
vn -0.0232 -0.1879 0.9819
vn -0.9997 -0.0003 -0.0237
vn 0.0232 0.1879 -0.9819
vn 0.9997 0.0003 0.0237
vn 1.0000 -0.0026 -0.0095
vn -0.0086 0.2264 -0.9740
vn -0.9999 0.0027 0.0097
vn 0.0086 -0.2294 0.9733
vn 0.0047 0.9739 0.2267
vn 0.9997 -0.0008 0.0225
vn 0.0217 -0.2006 -0.9794
vn -0.9998 0.0007 -0.0223
vn -0.0217 0.1939 0.9808
vn 0.0052 0.9801 -0.1986
vn 1.0000 0.0000 0.0000
vn 0.0000 0.0000 -1.0000
vn -1.0000 0.0000 0.0000
vn 0.0000 0.0000 1.0000
vn 0.0000 -1.0000 0.0000
vn 0.0000 1.0000 0.0000
vn 0.9890 0.0773 -0.1264
vn -0.1403 0.2144 -0.9666
vn -0.9890 -0.0773 0.1264
vn 0.1403 -0.2144 0.9666
vn 0.0476 -0.9737 -0.2229
vn -0.0476 0.9737 0.2229
vn -0.0298 -0.9751 -0.2196
vn -0.0011 0.9776 -0.2106
vn -0.0048 0.9822 0.1878
vn -0.0040 -0.9923 0.1239
vn 0.0095 0.1600 -0.9871
vn 0.9997 -0.0244 0.0057
vn -0.0096 -0.1621 0.9867
vn -0.9999 -0.0013 0.0151
vn -0.0147 -0.1633 -0.9865
vn 0.9999 0.0013 -0.0151
vn 0.0147 0.1566 0.9876
vn -0.0018 -0.9880 -0.1543
vn 0.0031 -0.9962 0.0870
vn 0.0011 -0.9776 0.2105
vn -0.0147 0.2241 -0.9745
vn -1.0000 0.0026 0.0095
vn 0.0021 -0.2267 0.9740
vn 0.9998 -0.0007 0.0223
vn 0.0220 -0.2005 -0.9794
vn -0.9997 0.0008 -0.0225
vn -0.0222 0.1941 0.9807
vn 0.0431 -0.9880 -0.1485
vn -0.0026 -0.9921 0.1253
s off
f 4/1/1 1/2/1 2/3/1
f 8/4/2 1/2/2 3/5/2
f 7/6/3 3/7/3 4/1/3
f 6/8/4 4/1/4 2/3/4
f 5/9/5 2/3/5 1/10/5
f 10/11/6 11/12/6 9/13/6
f 16/14/7 9/13/7 11/12/7
f 15/15/8 11/16/8 12/17/8
f 10/11/9 15/15/9 12/17/9
f 9/18/10 14/19/10 10/11/10
f 25/20/11 18/21/11 26/22/11
f 26/22/12 20/23/12 27/24/12
f 20/23/13 28/25/13 27/24/13
f 28/26/14 17/27/14 25/28/14
f 18/21/15 19/29/15 20/23/15
f 21/30/16 30/31/16 29/32/16
f 30/31/17 24/33/17 31/34/17
f 31/34/18 23/35/18 32/36/18
f 32/37/19 21/38/19 29/39/19
f 22/40/20 23/41/20 24/33/20
f 28/26/21 26/22/21 27/24/21
f 7/6/22 5/42/22 8/43/22
f 16/44/23 14/19/23 13/45/23
f 32/37/24 30/31/24 31/34/24
f 33/46/25 36/47/25 34/48/25
f 33/46/26 40/49/26 35/50/26
f 35/51/27 39/52/27 36/47/27
f 34/48/28 39/52/28 38/53/28
f 33/54/29 38/53/29 37/55/29
f 41/56/30 44/57/30 42/58/30
f 43/59/31 45/60/31 48/61/31
f 44/57/32 48/62/32 47/63/32
f 44/57/33 46/64/33 42/58/33
f 41/65/34 46/64/34 45/66/34
f 57/67/35 50/68/35 49/69/35
f 58/70/36 52/71/36 50/68/36
f 60/72/37 52/71/37 59/73/37
f 60/74/38 49/75/38 51/76/38
f 52/71/39 49/77/39 50/68/39
f 62/78/40 53/79/40 61/80/40
f 62/78/41 56/81/41 54/82/41
f 63/83/42 55/84/42 56/81/42
f 64/85/43 53/86/43 55/87/43
f 56/81/44 53/88/44 54/82/44
f 67/89/45 66/90/45 65/91/45
f 71/92/46 68/93/46 67/89/46
f 69/94/47 72/95/47 71/92/47
f 65/96/48 70/97/48 69/98/48
f 65/96/49 71/92/49 67/89/49
f 70/99/50 68/93/50 72/95/50
f 73/100/51 76/101/51 74/102/51
f 79/103/52 76/101/52 75/104/52
f 77/105/53 80/106/53 79/103/53
f 77/107/54 74/108/54 78/109/54
f 73/110/55 79/103/55 75/104/55
f 78/111/56 76/101/56 80/106/56
f 60/74/57 58/70/57 57/112/57
f 37/113/58 39/52/58 40/114/58
f 45/115/59 47/63/59 48/116/59
f 64/85/60 62/78/60 61/117/60
f 4/1/1 3/5/1 1/2/1
f 8/4/2 5/118/2 1/2/2
f 7/6/3 8/119/3 3/7/3
f 6/8/4 7/6/4 4/1/4
f 5/9/5 6/8/5 2/3/5
f 10/11/6 12/17/6 11/12/6
f 16/14/7 13/120/7 9/13/7
f 15/15/8 16/121/8 11/16/8
f 10/11/9 14/19/9 15/15/9
f 9/18/10 13/122/10 14/19/10
f 25/20/11 17/123/11 18/21/11
f 26/22/61 18/21/61 20/23/61
f 20/23/62 19/124/62 28/25/62
f 28/26/63 19/125/63 17/27/63
f 18/21/15 17/126/15 19/29/15
f 21/30/64 22/40/64 30/31/64
f 30/31/65 22/40/65 24/33/65
f 31/34/66 24/33/66 23/35/66
f 32/37/67 23/127/67 21/38/67
f 22/40/20 21/128/20 23/41/20
f 28/26/68 25/28/68 26/22/68
f 7/6/22 6/8/22 5/42/22
f 16/44/23 15/15/23 14/19/23
f 32/37/69 29/39/69 30/31/69
f 33/46/70 35/50/70 36/47/70
f 33/46/26 37/129/26 40/49/26
f 35/51/27 40/130/27 39/52/27
f 34/48/28 36/47/28 39/52/28
f 33/54/29 34/48/29 38/53/29
f 41/56/30 43/59/30 44/57/30
f 43/59/31 41/56/31 45/60/31
f 44/57/32 43/131/32 48/62/32
f 44/57/33 47/63/33 46/64/33
f 41/65/34 42/58/34 46/64/34
f 57/67/35 58/70/35 50/68/35
f 58/70/71 59/73/71 52/71/71
f 60/72/72 51/132/72 52/71/72
f 60/74/73 57/112/73 49/75/73
f 52/71/39 51/133/39 49/77/39
f 62/78/74 54/82/74 53/79/74
f 62/78/75 63/83/75 56/81/75
f 63/83/76 64/134/76 55/84/76
f 64/85/77 61/117/77 53/86/77
f 56/81/44 55/135/44 53/88/44
f 67/89/45 68/93/45 66/90/45
f 71/92/46 72/95/46 68/93/46
f 69/94/47 70/136/47 72/95/47
f 65/96/48 66/137/48 70/97/48
f 65/96/49 69/98/49 71/92/49
f 70/99/50 66/138/50 68/93/50
f 73/100/51 75/104/51 76/101/51
f 79/103/52 80/106/52 76/101/52
f 77/105/53 78/139/53 80/106/53
f 77/107/54 73/110/54 74/108/54
f 73/110/55 77/107/55 79/103/55
f 78/111/56 74/140/56 76/101/56
f 60/74/78 59/73/78 58/70/78
f 37/113/58 38/53/58 39/52/58
f 45/115/59 46/64/59 47/63/59
f 64/85/79 63/83/79 62/78/79
