# Blender v2.79 (sub 0) OBJ File: '3DObjectDecoderObjects.blend'
# www.blender.org
o Cube.005_Cube.008
v 0.649232 -0.093391 0.262958
v 0.648887 -0.221074 -0.120961
v 1.053670 -0.104167 0.266178
v 1.053324 -0.231849 -0.117741
v 0.677016 0.855133 -0.052524
v 0.676671 0.727451 -0.436443
v 1.081109 0.716675 -0.433223
v 1.081454 0.844357 -0.049304
v 0.078303 -1.721107 0.105550
v 0.071741 -1.589055 -0.276834
v 0.482838 -1.720993 0.098646
v 0.476276 -1.588941 -0.283738
v 0.083605 -0.775866 0.431886
v 0.077042 -0.643814 0.049502
v 0.481578 -0.643700 0.042598
v 0.488140 -0.775752 0.424982
v 0.696952 1.698585 0.214022
v 0.701951 1.809822 -0.174949
v 1.101415 1.688560 0.216353
v 1.106414 1.799797 -0.172618
v 0.077871 0.304156 0.184148
v 0.072305 0.194096 -0.205152
v 0.482420 0.304919 0.178148
v 0.476854 0.194859 -0.211153
v 0.674715 0.737442 -0.061129
v 0.679631 0.844825 -0.450430
v 1.083541 0.809045 -0.449870
v 1.079500 0.741586 -0.059580
v 0.083812 -0.687927 0.453638
v 0.078073 -0.750183 0.066988
v 0.482623 -0.749998 0.060895
v 0.488353 -0.686914 0.447262
v -0.698380 -0.082415 0.203706
v -0.702917 -0.207088 -0.181168
v -1.102948 -0.081919 0.208314
v -1.107485 -0.206592 -0.176560
v -0.700724 0.868918 -0.104437
v -0.705261 0.744245 -0.489311
v -1.109829 0.744741 -0.484703
v -1.105292 0.869414 -0.099829
v -0.079563 -1.714870 0.178299
v -0.070251 -1.596548 -0.208496
v -0.484039 -1.715013 0.168519
v -0.474727 -1.596691 -0.218276
v -0.086970 -0.758586 0.470651
v -0.077659 -0.640264 0.083856
v -0.482135 -0.640407 0.074075
v -0.491446 -0.758729 0.460870
v -0.695740 1.679637 0.213927
v -0.698758 1.814000 -0.167686
v -1.100316 1.680979 0.217599
v -1.103334 1.815342 -0.164014
v -0.079151 0.311240 0.181409
v -0.070857 0.186111 -0.203261
v -0.483647 0.311782 0.172512
v -0.475353 0.186653 -0.212159
v -0.701883 0.736396 -0.118126
v -0.704931 0.866597 -0.500238
v -1.109703 0.840100 -0.499425
v -1.106375 0.753118 -0.114783
v -0.087310 -0.669755 0.489203
v -0.078849 -0.746767 0.105404
v -0.483345 -0.746808 0.096434
v -0.491795 -0.668975 0.479919
v 0.630000 0.351816 0.420000
v 0.630000 1.751816 0.420000
v 0.630000 0.351816 -0.420000
v 0.630000 1.751816 -0.420000
v -0.630000 0.351816 0.420000
v -0.630000 1.751816 0.420000
v -0.630000 0.351816 -0.420000
v -0.630000 1.751816 -0.420000
v 0.334272 1.810590 0.268010
v 0.306672 2.396325 0.395105
v 0.254413 1.933092 -0.313897
v 0.226813 2.518826 -0.186802
v -0.259749 1.766906 0.340335
v -0.287349 2.352640 0.467430
v -0.339608 1.889408 -0.241572
v -0.367208 2.475142 -0.114477
vt 0.151712 0.164304
vt 0.128453 0.121671
vt 0.152804 0.123501
vt 0.067175 0.157952
vt 0.127361 0.162474
vt 0.211899 0.168826
vt 0.150620 0.205107
vt 0.214083 0.087220
vt 0.153896 0.082698
vt 0.120318 0.196104
vt 0.141703 0.159716
vt 0.141869 0.195827
vt 0.194969 0.159030
vt 0.120152 0.159993
vt 0.066721 0.124568
vt 0.119987 0.123882
vt 0.066887 0.160679
vt 0.067218 0.232901
vt 0.120483 0.232215
vt 0.893013 0.803206
vt 0.953247 0.844041
vt 0.893013 0.844041
vt 0.953247 0.884875
vt 0.893013 0.884875
vt 0.893013 0.925710
vt 0.868643 0.884875
vt 0.808410 0.844041
vt 0.868643 0.844041
vt 0.977617 0.844041
vt 0.977617 0.884875
vt 0.741845 0.545283
vt 0.663028 0.598717
vt 0.663028 0.545283
vt 0.741845 0.652150
vt 0.663028 0.652150
vt 0.741845 0.705584
vt 0.663028 0.705584
vt 0.631139 0.652150
vt 0.552321 0.598717
vt 0.631139 0.598717
vt 0.741845 0.598717
vt 0.773734 0.652150
vt 0.237342 0.129853
vt 0.236250 0.170656
vt 0.045336 0.160957
vt 0.067052 0.196790
vt 0.045501 0.197068
vt 0.094887 0.153073
vt 0.114964 0.123128
vt 0.113861 0.154921
vt 0.049093 0.116713
vt 0.095990 0.121280
vt 0.162963 0.095902
vt 0.161861 0.127695
vt 0.160758 0.159488
vt 0.159655 0.191281
vt 0.112759 0.186714
vt 0.153193 0.158992
vt 0.134495 0.188340
vt 0.135087 0.158002
vt 0.152601 0.189330
vt 0.197943 0.161440
vt 0.197352 0.191779
vt 0.089154 0.216230
vt 0.089745 0.185892
vt 0.090336 0.155553
vt 0.090927 0.125215
vt 0.135678 0.127663
vt 0.893013 0.809899
vt 0.820174 0.859280
vt 0.820174 0.809899
vt 0.893013 0.859280
vt 0.820174 0.908661
vt 0.893013 0.958041
vt 0.893013 0.908661
vt 0.922484 0.908660
vt 0.995323 0.859280
vt 0.995323 0.908660
vt 0.790703 0.908661
vt 0.668850 0.601598
vt 0.627314 0.573439
vt 0.668850 0.573439
vt 0.627314 0.629757
vt 0.627314 0.601598
vt 0.668850 0.629757
vt 0.627314 0.657916
vt 0.685655 0.629757
vt 0.727191 0.601598
vt 0.727191 0.629757
vt 0.610509 0.629757
vt 0.114767 0.168293
vt 0.095916 0.220936
vt 0.095916 0.168293
vt 0.143042 0.168293
vt 0.114767 0.220936
vt 0.161893 0.168293
vt 0.143042 0.220936
vt 0.114767 0.136707
vt 0.143042 0.084063
vt 0.143042 0.136707
vt 0.143042 0.252523
vt 0.679363 0.612195
vt 0.705410 0.568551
vt 0.705410 0.612195
vt 0.653316 0.612195
vt 0.679363 0.568551
vt 0.627270 0.612195
vt 0.653316 0.568551
vt 0.679363 0.655839
vt 0.653316 0.699483
vt 0.653316 0.655839
vt 0.679363 0.524907
vt 0.922484 0.859280
vt 0.180835 0.129543
vt 0.072230 0.154563
vt 0.071639 0.184901
vt 0.685655 0.601598
vt 0.068267 0.117149
vt 0.210807 0.209629
vt 0.212991 0.128023
vt 0.195135 0.195141
vt 0.953247 0.803206
vt 0.953247 0.925710
vt 0.808410 0.884875
vt 0.552321 0.652150
vt 0.773734 0.598717
vt 0.047991 0.148506
vt 0.116067 0.091335
vt 0.133904 0.218678
vt 0.820174 0.958041
vt 0.790703 0.859280
vt 0.668850 0.657916
vt 0.610509 0.601598
vt 0.161893 0.220936
vt 0.114767 0.084063
vt 0.114767 0.252523
vt 0.627270 0.568551
vt 0.679363 0.699483
vt 0.653316 0.524907
vt 0.179732 0.161336
vn -0.0278 -0.9485 0.3155
vn 0.0009 0.3156 0.9489
vn 0.9996 -0.0266 0.0080
vn -0.0009 -0.3156 -0.9489
vn -0.9996 0.0266 -0.0080
vn -0.0053 -0.9452 -0.3263
vn 0.0162 -0.3264 0.9451
vn 0.9999 0.0003 -0.0171
vn -0.0162 0.3264 -0.9451
vn -0.9999 -0.0003 0.0171
vn -0.9997 0.0248 -0.0058
vn 0.0252 0.2689 -0.9628
vn 0.9997 -0.0248 0.0061
vn -0.0009 -0.2752 0.9614
vn 0.0222 0.9611 0.2752
vn -0.9999 -0.0019 0.0151
vn -0.0143 -0.2767 -0.9608
vn 0.9999 0.0019 -0.0151
vn 0.0146 0.2622 0.9649
vn -0.0058 0.9623 -0.2720
vn -0.0867 -0.9815 -0.1705
vn 0.0278 0.9485 -0.3155
vn 0.0053 0.9452 0.3263
vn 0.0029 -0.9869 0.1611
vn 0.0023 -0.9513 0.3081
vn 0.0112 0.3082 0.9513
vn -0.9999 0.0012 0.0114
vn -0.0112 -0.3082 -0.9513
vn 0.9999 -0.0012 -0.0114
vn 0.0074 -0.9563 -0.2924
vn -0.0230 -0.2924 0.9560
vn -0.9997 -0.0004 -0.0242
vn 0.0230 0.2924 -0.9560
vn 0.9997 0.0004 0.0242
vn 1.0000 -0.0033 -0.0091
vn -0.0075 0.3312 -0.9435
vn -1.0000 0.0033 0.0094
vn 0.0074 -0.3373 0.9414
vn 0.0061 0.9432 0.3321
vn 0.9998 -0.0013 0.0223
vn 0.0205 -0.3142 -0.9491
vn -0.9998 0.0013 -0.0220
vn -0.0206 0.2992 0.9540
vn 0.0081 0.9510 -0.3092
vn 1.0000 0.0000 0.0000
vn 0.0000 0.0000 -1.0000
vn -1.0000 0.0000 0.0000
vn 0.0000 0.0000 1.0000
vn 0.0000 -1.0000 0.0000
vn 0.0000 1.0000 0.0000
vn 0.9900 0.0728 -0.1205
vn -0.1331 0.2042 -0.9698
vn -0.9900 -0.0728 0.1205
vn 0.1331 -0.2042 0.9698
vn 0.0460 -0.9762 -0.2118
vn -0.0460 0.9762 0.2118
vn -0.0421 -0.9746 -0.2200
vn -0.0023 0.9513 -0.3081
vn -0.0074 0.9563 0.2924
vn -0.0064 -0.9805 0.1966
vn 0.0123 0.2742 -0.9616
vn 0.9997 -0.0248 0.0058
vn -0.0125 -0.2795 0.9601
vn -0.9999 -0.0018 0.0148
vn -0.0137 -0.2770 -0.9608
vn 0.9999 0.0018 -0.0148
vn 0.0138 0.2619 0.9650
vn 0.0109 -0.9640 -0.2658
vn 0.0050 -0.9873 0.1589
vn -0.0232 0.3253 -0.9453
vn -1.0000 0.0033 0.0091
vn -0.0059 -0.3320 0.9433
vn 0.9998 -0.0013 0.0220
vn 0.0211 -0.3140 -0.9492
vn -0.9998 0.0013 -0.0223
vn -0.0213 0.2995 0.9539
vn 0.0612 -0.9446 -0.3224
vn -0.0043 -0.9800 0.1988
s off
f 4/1/1 1/2/1 2/3/1
f 8/4/2 1/2/2 3/5/2
f 7/6/3 3/7/3 4/1/3
f 2/3/4 7/6/4 4/1/4
f 5/8/5 2/3/5 1/9/5
f 10/10/6 11/11/6 9/12/6
f 16/13/7 9/12/7 11/11/7
f 12/14/8 16/15/8 11/16/8
f 10/10/9 15/17/9 12/14/9
f 13/18/10 10/10/10 9/19/10
f 25/20/11 18/21/11 26/22/11
f 26/22/12 20/23/12 27/24/12
f 20/23/13 28/25/13 27/24/13
f 28/26/14 17/27/14 25/28/14
f 20/23/15 17/29/15 19/30/15
f 21/31/16 30/32/16 29/33/16
f 30/32/17 24/34/17 31/35/17
f 31/35/18 23/36/18 32/37/18
f 32/38/19 21/39/19 29/40/19
f 22/41/20 23/42/20 24/34/20
f 28/26/21 26/22/21 27/24/21
f 7/6/22 5/43/22 8/44/22
f 16/45/23 14/46/23 13/47/23
f 32/38/24 30/32/24 31/35/24
f 33/48/25 36/49/25 34/50/25
f 33/48/26 40/51/26 35/52/26
f 36/49/27 40/53/27 39/54/27
f 36/49/28 38/55/28 34/50/28
f 34/50/29 37/56/29 33/57/29
f 41/58/30 44/59/30 42/60/30
f 43/61/31 45/62/31 48/63/31
f 44/59/32 48/64/32 47/65/32
f 44/59/33 46/66/33 42/60/33
f 42/60/34 45/67/34 41/68/34
f 57/69/35 50/70/35 49/71/35
f 58/72/36 52/73/36 50/70/36
f 60/74/37 52/73/37 59/75/37
f 60/76/38 49/77/38 51/78/38
f 51/79/39 50/70/39 52/73/39
f 62/80/40 53/81/40 61/82/40
f 62/80/41 56/83/41 54/84/41
f 63/85/42 55/86/42 56/83/42
f 64/87/43 53/88/43 55/89/43
f 55/90/44 54/84/44 56/83/44
f 67/91/45 66/92/45 65/93/45
f 71/94/46 68/95/46 67/91/46
f 69/96/47 72/97/47 71/94/47
f 65/98/48 70/99/48 69/100/48
f 65/98/49 71/94/49 67/91/49
f 70/101/50 68/95/50 72/97/50
f 75/102/51 74/103/51 73/104/51
f 79/105/52 76/106/52 75/102/52
f 77/107/53 80/108/53 79/105/53
f 73/109/54 78/110/54 77/111/54
f 73/109/55 79/105/55 75/102/55
f 80/108/56 74/112/56 76/106/56
f 59/75/57 57/113/57 60/76/57
f 40/114/58 38/55/58 39/54/58
f 45/115/59 47/65/59 48/116/59
f 64/87/60 62/80/60 61/117/60
f 4/1/1 3/5/1 1/2/1
f 8/4/2 5/118/2 1/2/2
f 7/6/3 8/119/3 3/7/3
f 2/3/4 6/120/4 7/6/4
f 5/8/5 6/120/5 2/3/5
f 10/10/6 12/14/6 11/11/6
f 16/13/7 13/121/7 9/12/7
f 12/14/8 15/17/8 16/15/8
f 10/10/9 14/46/9 15/17/9
f 13/18/10 14/46/10 10/10/10
f 25/20/11 17/122/11 18/21/11
f 26/22/61 18/21/61 20/23/61
f 20/23/62 19/123/62 28/25/62
f 28/26/63 19/124/63 17/27/63
f 20/23/15 18/21/15 17/29/15
f 21/31/64 22/41/64 30/32/64
f 30/32/65 22/41/65 24/34/65
f 31/35/66 24/34/66 23/36/66
f 32/38/67 23/125/67 21/39/67
f 22/41/20 21/126/20 23/42/20
f 28/26/68 25/28/68 26/22/68
f 7/6/22 6/120/22 5/43/22
f 16/45/23 15/17/23 14/46/23
f 32/38/69 29/40/69 30/32/69
f 33/48/25 35/52/25 36/49/25
f 33/48/26 37/127/26 40/51/26
f 36/49/27 35/128/27 40/53/27
f 36/49/28 39/54/28 38/55/28
f 34/50/29 38/55/29 37/56/29
f 41/58/30 43/61/30 44/59/30
f 43/61/31 41/58/31 45/62/31
f 44/59/32 43/129/32 48/64/32
f 44/59/33 47/65/33 46/66/33
f 42/60/34 46/66/34 45/67/34
f 57/69/35 58/72/35 50/70/35
f 58/72/70 59/75/70 52/73/70
f 60/74/71 51/130/71 52/73/71
f 60/76/72 57/113/72 49/77/72
f 51/79/39 49/131/39 50/70/39
f 62/80/73 54/84/73 53/81/73
f 62/80/74 63/85/74 56/83/74
f 63/85/75 64/132/75 55/86/75
f 64/87/76 61/117/76 53/88/76
f 55/90/44 53/133/44 54/84/44
f 67/91/45 68/95/45 66/92/45
f 71/94/46 72/97/46 68/95/46
f 69/96/47 70/134/47 72/97/47
f 65/98/48 66/135/48 70/99/48
f 65/98/49 69/100/49 71/94/49
f 70/101/50 66/136/50 68/95/50
f 75/102/51 76/106/51 74/103/51
f 79/105/52 80/108/52 76/106/52
f 77/107/53 78/137/53 80/108/53
f 73/109/54 74/138/54 78/110/54
f 73/109/55 77/111/55 79/105/55
f 80/108/56 78/139/56 74/112/56
f 59/75/77 58/72/77 57/113/77
f 40/114/58 37/140/58 38/55/58
f 45/115/59 46/66/59 47/65/59
f 64/87/78 63/85/78 62/80/78
