# Blender v2.79 (sub 0) OBJ File: '3DObjectDecoderObjects.blend'
# www.blender.org
o Cube.005_Cube.008
v 0.648903 -0.110628 0.264169
v 0.649295 -0.206194 -0.128977
v 1.053352 -0.121061 0.267108
v 1.053744 -0.216627 -0.126038
v 0.675675 0.860733 0.028075
v 0.676067 0.765167 -0.365070
v 1.080516 0.754734 -0.362132
v 1.080124 0.850301 0.031014
v 0.078396 -1.706836 0.115596
v 0.071840 -1.606482 -0.276303
v 0.482934 -1.706728 0.108856
v 0.476379 -1.606374 -0.283043
v 0.082268 -0.738083 0.363602
v 0.075712 -0.637729 -0.028297
v 0.480250 -0.637621 -0.035037
v 0.486806 -0.737974 0.356862
v 0.697435 1.774718 0.211738
v 0.701568 1.851545 -0.185474
v 1.101901 1.764826 0.214034
v 1.106035 1.841652 -0.183178
v 0.078095 0.346032 0.192197
v 0.072239 0.269249 -0.205005
v 0.482643 0.346614 0.186118
v 0.476787 0.269831 -0.211083
v 0.674507 0.793217 0.021663
v 0.678584 0.867262 -0.375781
v 1.082663 0.838782 -0.374717
v 1.079199 0.793547 0.023369
v 0.082423 -0.657592 0.380088
v 0.076446 -0.699401 -0.015126
v 0.480994 -0.699241 -0.021273
v 0.486965 -0.656826 0.373735
v -0.698440 -0.098072 0.204663
v -0.702936 -0.193270 -0.188540
v -1.103009 -0.097583 0.209171
v -1.107505 -0.192782 -0.184032
v -0.699889 0.873847 -0.030631
v -0.704385 0.778648 -0.423834
v -1.108954 0.779137 -0.419326
v -1.104458 0.874335 -0.026123
v -0.079726 -1.700525 0.187670
v -0.070354 -1.613633 -0.207373
v -0.484206 -1.700660 0.178045
v -0.474834 -1.613768 -0.216999
v -0.085162 -0.723857 0.402364
v -0.075790 -0.636965 0.007321
v -0.480270 -0.637101 -0.002305
v -0.489642 -0.723992 0.392739
v -0.695639 1.754940 0.212801
v -0.699020 1.857482 -0.178562
v -1.100214 1.756072 0.216593
v -1.103595 1.858613 -0.174770
v -0.079440 0.353285 0.190137
v -0.070782 0.261421 -0.203796
v -0.483935 0.353652 0.181161
v -0.475277 0.261788 -0.212772
v -0.700720 0.787594 -0.040609
v -0.704124 0.886957 -0.432342
v -1.108844 0.866831 -0.430663
v -1.105234 0.800465 -0.037107
v -0.085416 -0.642637 0.416049
v -0.076641 -0.699173 0.022844
v -0.481136 -0.699235 0.013815
v -0.489903 -0.642096 0.406790
v 0.630000 0.409277 0.420000
v 0.630000 1.809277 0.420000
v 0.630000 0.409277 -0.420000
v 0.630000 1.809277 -0.420000
v -0.630000 0.409277 0.420000
v -0.630000 1.809277 0.420000
v -0.630000 0.409277 -0.420000
v -0.630000 1.809277 -0.420000
v 0.321187 1.882980 0.281956
v 0.302242 2.477614 0.359745
v 0.272867 1.959041 -0.311238
v 0.253922 2.553676 -0.233449
v -0.276564 1.857985 0.327442
v -0.295509 2.452619 0.405232
v -0.324884 1.934047 -0.265752
v -0.343829 2.528681 -0.187963
vt 0.151712 0.164304
vt 0.128453 0.121671
vt 0.152804 0.123501
vt 0.067175 0.157952
vt 0.127361 0.162474
vt 0.210807 0.209629
vt 0.150620 0.205107
vt 0.212991 0.128023
vt 0.214083 0.087220
vt 0.153896 0.082698
vt 0.120318 0.196104
vt 0.141703 0.159716
vt 0.141869 0.195827
vt 0.194969 0.159030
vt 0.066887 0.160679
vt 0.119987 0.123882
vt 0.120152 0.159993
vt 0.120483 0.232215
vt 0.067052 0.196790
vt 0.893013 0.803206
vt 0.953247 0.844041
vt 0.893013 0.844041
vt 0.953247 0.884875
vt 0.893013 0.884875
vt 0.893013 0.925710
vt 0.868643 0.884875
vt 0.808410 0.844041
vt 0.868643 0.844041
vt 0.977617 0.884875
vt 0.741845 0.545283
vt 0.663028 0.598717
vt 0.663028 0.545283
vt 0.741845 0.652150
vt 0.663028 0.652150
vt 0.741845 0.705584
vt 0.663028 0.705584
vt 0.631139 0.652150
vt 0.552321 0.598717
vt 0.631139 0.598717
vt 0.741845 0.598717
vt 0.773734 0.652150
vt 0.211899 0.168826
vt 0.237342 0.129853
vt 0.236250 0.170656
vt 0.045336 0.160957
vt 0.045501 0.197068
vt 0.094887 0.153073
vt 0.114964 0.123128
vt 0.113861 0.154921
vt 0.049093 0.116713
vt 0.095990 0.121280
vt 0.116067 0.091335
vt 0.161861 0.127695
vt 0.160758 0.159488
vt 0.112759 0.186714
vt 0.159655 0.191281
vt 0.135087 0.158002
vt 0.152601 0.189330
vt 0.134495 0.188340
vt 0.153193 0.158992
vt 0.197352 0.191779
vt 0.133904 0.218678
vt 0.089745 0.185892
vt 0.090336 0.155553
vt 0.090927 0.125215
vt 0.135678 0.127663
vt 0.893013 0.809899
vt 0.820174 0.859280
vt 0.820174 0.809899
vt 0.893013 0.859280
vt 0.820174 0.908661
vt 0.893013 0.958041
vt 0.893013 0.908661
vt 0.922484 0.908660
vt 0.995323 0.859280
vt 0.995323 0.908660
vt 0.790703 0.908661
vt 0.668850 0.601598
vt 0.627314 0.573439
vt 0.668850 0.573439
vt 0.627314 0.629757
vt 0.627314 0.601598
vt 0.668850 0.629757
vt 0.627314 0.657916
vt 0.685655 0.629757
vt 0.727191 0.601598
vt 0.727191 0.629757
vt 0.610509 0.629757
vt 0.114767 0.168293
vt 0.095916 0.220936
vt 0.095916 0.168293
vt 0.143042 0.168293
vt 0.114767 0.220936
vt 0.161893 0.168293
vt 0.143042 0.220936
vt 0.114767 0.136707
vt 0.143042 0.084063
vt 0.143042 0.136707
vt 0.143042 0.252523
vt 0.705410 0.612195
vt 0.679363 0.568551
vt 0.705410 0.568551
vt 0.653316 0.612195
vt 0.679363 0.612195
vt 0.627270 0.612195
vt 0.653316 0.568551
vt 0.679363 0.655839
vt 0.653316 0.699483
vt 0.653316 0.655839
vt 0.653316 0.524907
vt 0.922484 0.859280
vt 0.179732 0.161336
vt 0.180835 0.129543
vt 0.072230 0.154563
vt 0.071639 0.184901
vt 0.685655 0.601598
vt 0.068267 0.117149
vt 0.195135 0.195141
vt 0.066721 0.124568
vt 0.067218 0.232901
vt 0.953247 0.803206
vt 0.953247 0.925710
vt 0.808410 0.884875
vt 0.977617 0.844041
vt 0.552321 0.652150
vt 0.773734 0.598717
vt 0.047991 0.148506
vt 0.162963 0.095902
vt 0.197943 0.161440
vt 0.089154 0.216230
vt 0.820174 0.958041
vt 0.790703 0.859280
vt 0.668850 0.657916
vt 0.610509 0.601598
vt 0.161893 0.220936
vt 0.114767 0.084063
vt 0.114767 0.252523
vt 0.627270 0.568551
vt 0.679363 0.699483
vt 0.679363 0.524907
vn -0.0268 -0.9714 0.2361
vn -0.0010 0.2362 0.9717
vn 0.9996 -0.0258 0.0073
vn 0.0010 -0.2362 -0.9717
vn -0.9996 0.0258 -0.0073
vn -0.0039 -0.9688 -0.2480
vn 0.0162 -0.2480 0.9686
vn 0.9999 0.0003 -0.0167
vn -0.0162 0.2480 -0.9686
vn -0.9999 -0.0003 0.0167
vn -0.9997 0.0244 -0.0057
vn 0.0158 0.1872 -0.9822
vn 0.9997 -0.0244 0.0059
vn -0.0040 -0.1900 0.9818
vn 0.0229 0.9815 0.1901
vn -0.9999 -0.0015 0.0153
vn -0.0148 -0.1923 -0.9812
vn 0.9999 0.0015 -0.0153
vn 0.0151 0.1841 0.9828
vn -0.0043 0.9818 -0.1897
vn -0.0696 -0.9911 -0.1132
vn 0.0268 0.9714 -0.2361
vn 0.0039 0.9688 0.2480
vn 0.0020 -0.9943 0.1067
vn 0.0014 -0.9719 0.2353
vn 0.0111 0.2353 0.9719
vn -0.9999 0.0012 0.0111
vn -0.0111 -0.2353 -0.9719
vn 0.9999 -0.0012 -0.0111
vn 0.0054 -0.9767 -0.2147
vn -0.0232 -0.2148 0.9764
vn -0.9997 -0.0003 -0.0238
vn 0.0232 0.2148 -0.9764
vn 0.9997 0.0003 0.0238
vn 1.0000 -0.0028 -0.0094
vn -0.0084 0.2530 -0.9674
vn -0.9999 0.0028 0.0096
vn 0.0083 -0.2566 0.9665
vn 0.0051 0.9673 0.2534
vn 0.9997 -0.0009 0.0224
vn 0.0214 -0.2297 -0.9730
vn -0.9998 0.0009 -0.0222
vn -0.0214 0.2211 0.9750
vn 0.0059 0.9739 -0.2270
vn 1.0000 0.0000 0.0000
vn 0.0000 0.0000 -1.0000
vn -1.0000 0.0000 0.0000
vn 0.0000 0.0000 1.0000
vn 0.0000 -1.0000 0.0000
vn 0.0000 1.0000 0.0000
vn 0.9963 0.0417 -0.0758
vn -0.0805 0.1268 -0.9887
vn -0.9963 -0.0417 0.0758
vn 0.0805 -0.1268 0.9887
vn 0.0316 -0.9911 -0.1296
vn -0.0316 0.9911 0.1296
vn -0.0330 -0.9688 -0.2455
vn -0.0014 0.9719 -0.2353
vn -0.0054 0.9767 0.2147
vn -0.0046 -0.9898 0.1422
vn -0.9997 0.0245 -0.0057
vn 0.0102 0.1896 -0.9818
vn 0.9997 -0.0245 0.0057
vn -0.0103 -0.1924 0.9813
vn -0.9999 -0.0014 0.0150
vn -0.0145 -0.1924 -0.9812
vn 0.9999 0.0014 -0.0150
vn 0.0145 0.1838 0.9829
vn 0.0016 -0.9831 -0.1831
vn 0.0035 -0.9945 0.1051
vn -0.0164 0.2499 -0.9681
vn -1.0000 0.0028 0.0094
vn 0.0003 -0.2534 0.9674
vn 0.9998 -0.0009 0.0222
vn 0.0218 -0.2296 -0.9731
vn -0.9997 0.0009 -0.0224
vn -0.0220 0.2213 0.9750
vn 0.0483 -0.9849 -0.1665
vn -0.0031 -0.9896 0.1438
s off
f 4/1/1 1/2/1 2/3/1
f 8/4/2 1/2/2 3/5/2
f 4/1/3 8/6/3 3/7/3
f 6/8/4 4/1/4 2/3/4
f 5/9/5 2/3/5 1/10/5
f 10/11/6 11/12/6 9/13/6
f 16/14/7 9/13/7 11/12/7
f 15/15/8 11/16/8 12/17/8
f 10/11/9 15/15/9 12/17/9
f 9/18/10 14/19/10 10/11/10
f 25/20/11 18/21/11 26/22/11
f 26/22/12 20/23/12 27/24/12
f 20/23/13 28/25/13 27/24/13
f 28/26/14 17/27/14 25/28/14
f 18/21/15 19/29/15 20/23/15
f 21/30/16 30/31/16 29/32/16
f 30/31/17 24/33/17 31/34/17
f 31/34/18 23/35/18 32/36/18
f 32/37/19 21/38/19 29/39/19
f 22/40/20 23/41/20 24/33/20
f 28/26/21 26/22/21 27/24/21
f 7/42/22 5/43/22 8/44/22
f 16/45/23 14/19/23 13/46/23
f 32/37/24 30/31/24 31/34/24
f 33/47/25 36/48/25 34/49/25
f 33/47/26 40/50/26 35/51/26
f 35/52/27 39/53/27 36/48/27
f 36/48/28 38/54/28 34/49/28
f 33/55/29 38/54/29 37/56/29
f 42/57/30 43/58/30 44/59/30
f 41/60/31 48/61/31 43/58/31
f 43/62/32 47/63/32 44/59/32
f 44/59/33 46/64/33 42/57/33
f 42/57/34 45/65/34 41/66/34
f 57/67/35 50/68/35 49/69/35
f 58/70/36 52/71/36 50/68/36
f 60/72/37 52/71/37 59/73/37
f 60/74/38 49/75/38 51/76/38
f 51/77/39 50/68/39 52/71/39
f 62/78/40 53/79/40 61/80/40
f 62/78/41 56/81/41 54/82/41
f 63/83/42 55/84/42 56/81/42
f 64/85/43 53/86/43 55/87/43
f 55/88/44 54/82/44 56/81/44
f 67/89/45 66/90/45 65/91/45
f 71/92/46 68/93/46 67/89/46
f 69/94/47 72/95/47 71/92/47
f 65/96/48 70/97/48 69/98/48
f 65/96/49 71/92/49 67/89/49
f 70/99/50 68/93/50 72/95/50
f 73/100/51 76/101/51 74/102/51
f 79/103/52 76/101/52 75/104/52
f 77/105/53 80/106/53 79/103/53
f 73/107/54 78/108/54 77/109/54
f 73/107/55 79/103/55 75/104/55
f 78/110/56 76/101/56 80/106/56
f 60/74/57 58/70/57 57/111/57
f 37/112/58 39/53/58 40/113/58
f 45/114/59 47/63/59 48/115/59
f 64/85/60 62/78/60 61/116/60
f 4/1/1 3/5/1 1/2/1
f 8/4/2 5/117/2 1/2/2
f 4/1/3 7/42/3 8/6/3
f 6/8/4 7/42/4 4/1/4
f 5/9/5 6/8/5 2/3/5
f 10/11/6 12/17/6 11/12/6
f 16/14/7 13/118/7 9/13/7
f 15/15/8 16/119/8 11/16/8
f 10/11/9 14/19/9 15/15/9
f 9/18/10 13/120/10 14/19/10
f 25/20/61 17/121/61 18/21/61
f 26/22/62 18/21/62 20/23/62
f 20/23/63 19/122/63 28/25/63
f 28/26/64 19/123/64 17/27/64
f 18/21/15 17/124/15 19/29/15
f 21/30/65 22/40/65 30/31/65
f 30/31/66 22/40/66 24/33/66
f 31/34/67 24/33/67 23/35/67
f 32/37/68 23/125/68 21/38/68
f 22/40/20 21/126/20 23/41/20
f 28/26/69 25/28/69 26/22/69
f 7/42/22 6/8/22 5/43/22
f 16/45/23 15/15/23 14/19/23
f 32/37/70 29/39/70 30/31/70
f 33/47/25 35/51/25 36/48/25
f 33/47/26 37/127/26 40/50/26
f 35/52/27 40/128/27 39/53/27
f 36/48/28 39/53/28 38/54/28
f 33/55/29 34/49/29 38/54/29
f 42/57/30 41/60/30 43/58/30
f 41/60/31 45/129/31 48/61/31
f 43/62/32 48/130/32 47/63/32
f 44/59/33 47/63/33 46/64/33
f 42/57/34 46/64/34 45/65/34
f 57/67/35 58/70/35 50/68/35
f 58/70/71 59/73/71 52/71/71
f 60/72/72 51/131/72 52/71/72
f 60/74/73 57/111/73 49/75/73
f 51/77/39 49/132/39 50/68/39
f 62/78/74 54/82/74 53/79/74
f 62/78/75 63/83/75 56/81/75
f 63/83/76 64/133/76 55/84/76
f 64/85/77 61/116/77 53/86/77
f 55/88/44 53/134/44 54/82/44
f 67/89/45 68/93/45 66/90/45
f 71/92/46 72/95/46 68/93/46
f 69/94/47 70/135/47 72/95/47
f 65/96/48 66/136/48 70/97/48
f 65/96/49 69/98/49 71/92/49
f 70/99/50 66/137/50 68/93/50
f 73/100/51 75/104/51 76/101/51
f 79/103/52 80/106/52 76/101/52
f 77/105/53 78/138/53 80/106/53
f 73/107/54 74/139/54 78/108/54
f 73/107/55 77/109/55 79/103/55
f 78/110/56 74/140/56 76/101/56
f 60/74/78 59/73/78 58/70/78
f 37/112/58 38/54/58 39/53/58
f 45/114/59 46/64/59 47/63/59
f 64/85/79 63/83/79 62/78/79
