# Blender v2.79 (sub 0) OBJ File: '3DObjectDecoderObjects.blend'
# www.blender.org
o Cube.005_Cube.008
v 0.649236 -0.093189 0.262935
v 0.648882 -0.221244 -0.120860
v 1.053674 -0.103970 0.266159
v 1.053319 -0.232024 -0.117636
v 0.677033 0.855028 -0.053467
v 0.676679 0.726973 -0.437262
v 1.081116 0.716193 -0.434038
v 1.081470 0.844248 -0.050243
v 0.078302 -1.721271 0.105425
v 0.071739 -1.588850 -0.276832
v 0.482837 -1.721157 0.098519
v 0.476275 -1.588736 -0.283738
v 0.083620 -0.776345 0.432673
v 0.077058 -0.643924 0.050416
v 0.481593 -0.643810 0.043510
v 0.488155 -0.776231 0.425767
v 0.696946 1.697613 0.214038
v 0.701955 1.809249 -0.174818
v 1.101409 1.687586 0.216370
v 1.106418 1.799222 -0.172486
v 0.077868 0.303583 0.184045
v 0.072306 0.193136 -0.205145
v 0.482417 0.304348 0.178046
v 0.476855 0.193901 -0.211145
v 0.674717 0.736752 -0.062099
v 0.679644 0.844523 -0.451287
v 1.083552 0.808657 -0.450732
v 1.079503 0.740940 -0.060551
v 0.083828 -0.688322 0.454486
v 0.078092 -0.750816 0.067953
v 0.482642 -0.750630 0.061860
v 0.488369 -0.687306 0.448109
v -0.698380 -0.082230 0.203687
v -0.702917 -0.207250 -0.181074
v -1.102948 -0.081734 0.208297
v -1.107484 -0.206754 -0.176465
v -0.700734 0.868825 -0.105312
v -0.705271 0.743806 -0.490073
v -1.109839 0.744302 -0.485464
v -1.105302 0.869321 -0.100703
v -0.079561 -1.715035 0.178182
v -0.070250 -1.596346 -0.208501
v -0.484037 -1.715177 0.168399
v -0.474726 -1.596489 -0.218283
v -0.086991 -0.759028 0.471438
v -0.077681 -0.640340 0.084756
v -0.482157 -0.640483 0.074973
v -0.491467 -0.759171 0.461656
v -0.695742 1.678672 0.213932
v -0.698755 1.813408 -0.167550
v -1.100317 1.680016 0.217603
v -1.103330 1.814753 -0.163879
v -0.079147 0.310665 0.181298
v -0.070858 0.185148 -0.203246
v -0.483643 0.311209 0.172402
v -0.475354 0.185693 -0.212142
v -0.701897 0.735757 -0.119046
v -0.704941 0.866320 -0.501028
v -1.109713 0.839748 -0.500225
v -1.106389 0.752524 -0.115705
v -0.087332 -0.670111 0.490047
v -0.078875 -0.747361 0.106375
v -0.483371 -0.747402 0.097407
v -0.491817 -0.669328 0.480763
v 0.630000 0.351063 0.420000
v 0.630000 1.751063 0.420000
v 0.630000 0.351063 -0.420000
v 0.630000 1.751063 -0.420000
v -0.630000 0.351063 0.420000
v -0.630000 1.751063 0.420000
v -0.630000 0.351063 -0.420000
v -0.630000 1.751063 -0.420000
v 0.336016 1.807929 0.265979
v 0.307449 2.392135 0.399722
v 0.251850 1.936586 -0.313989
v 0.223283 2.520792 -0.180246
v -0.257364 1.761555 0.341804
v -0.285931 2.345761 0.475547
v -0.341530 1.890212 -0.238164
v -0.370097 2.474418 -0.104421
vt 0.151712 0.164304
vt 0.128453 0.121671
vt 0.152804 0.123501
vt 0.127361 0.162474
vt 0.068267 0.117149
vt 0.211899 0.168826
vt 0.150620 0.205107
vt 0.214083 0.087220
vt 0.153896 0.082698
vt 0.120318 0.196104
vt 0.141703 0.159716
vt 0.141869 0.195827
vt 0.194969 0.159030
vt 0.120152 0.159993
vt 0.066721 0.124568
vt 0.119987 0.123882
vt 0.066887 0.160679
vt 0.067218 0.232901
vt 0.120483 0.232215
vt 0.893013 0.803206
vt 0.953247 0.844041
vt 0.893013 0.844041
vt 0.953247 0.884875
vt 0.893013 0.884875
vt 0.893013 0.925710
vt 0.868643 0.884875
vt 0.808410 0.844041
vt 0.868643 0.844041
vt 0.977617 0.844041
vt 0.977617 0.884875
vt 0.741845 0.545283
vt 0.663028 0.598717
vt 0.663028 0.545283
vt 0.741845 0.652150
vt 0.663028 0.652150
vt 0.741845 0.705584
vt 0.663028 0.705584
vt 0.631139 0.652150
vt 0.552321 0.598717
vt 0.631139 0.598717
vt 0.741845 0.598717
vt 0.773734 0.652150
vt 0.237342 0.129853
vt 0.236250 0.170656
vt 0.045336 0.160957
vt 0.067052 0.196790
vt 0.045501 0.197068
vt 0.094887 0.153073
vt 0.114964 0.123128
vt 0.113861 0.154921
vt 0.049093 0.116713
vt 0.095990 0.121280
vt 0.162963 0.095902
vt 0.161861 0.127695
vt 0.160758 0.159488
vt 0.159655 0.191281
vt 0.112759 0.186714
vt 0.153193 0.158992
vt 0.134495 0.188340
vt 0.135087 0.158002
vt 0.152601 0.189330
vt 0.197943 0.161440
vt 0.197352 0.191779
vt 0.133904 0.218678
vt 0.089745 0.185892
vt 0.090336 0.155553
vt 0.090927 0.125215
vt 0.135678 0.127663
vt 0.893013 0.809899
vt 0.820174 0.859280
vt 0.820174 0.809899
vt 0.893013 0.859280
vt 0.820174 0.908661
vt 0.893013 0.958041
vt 0.893013 0.908661
vt 0.922484 0.908660
vt 0.995323 0.859280
vt 0.995323 0.908660
vt 0.790703 0.908661
vt 0.668850 0.601598
vt 0.627314 0.573439
vt 0.668850 0.573439
vt 0.627314 0.629757
vt 0.627314 0.601598
vt 0.668850 0.629757
vt 0.627314 0.657916
vt 0.685655 0.629757
vt 0.727191 0.601598
vt 0.727191 0.629757
vt 0.610509 0.629757
vt 0.114767 0.168293
vt 0.095916 0.220936
vt 0.095916 0.168293
vt 0.143042 0.168293
vt 0.114767 0.220936
vt 0.161893 0.168293
vt 0.143042 0.220936
vt 0.114767 0.136707
vt 0.143042 0.084063
vt 0.143042 0.136707
vt 0.143042 0.252523
vt 0.705410 0.612195
vt 0.679363 0.568551
vt 0.705410 0.568551
vt 0.653316 0.612195
vt 0.679363 0.612195
vt 0.627270 0.612195
vt 0.653316 0.568551
vt 0.679363 0.655839
vt 0.653316 0.699483
vt 0.653316 0.655839
vt 0.653316 0.524907
vt 0.922484 0.859280
vt 0.179732 0.161336
vt 0.180835 0.129543
vt 0.071639 0.184901
vt 0.685655 0.601598
vt 0.067175 0.157952
vt 0.210807 0.209629
vt 0.212991 0.128023
vt 0.195135 0.195141
vt 0.953247 0.803206
vt 0.953247 0.925710
vt 0.808410 0.884875
vt 0.552321 0.652150
vt 0.773734 0.598717
vt 0.047991 0.148506
vt 0.116067 0.091335
vt 0.089154 0.216230
vt 0.820174 0.958041
vt 0.790703 0.859280
vt 0.668850 0.657916
vt 0.610509 0.601598
vt 0.161893 0.220936
vt 0.114767 0.084063
vt 0.114767 0.252523
vt 0.627270 0.568551
vt 0.679363 0.699483
vt 0.679363 0.524907
vt 0.072230 0.154563
vn -0.0278 -0.9482 0.3164
vn 0.0009 0.3165 0.9486
vn 0.9996 -0.0266 0.0080
vn -0.0009 -0.3165 -0.9486
vn -0.9996 0.0266 -0.0080
vn -0.0053 -0.9449 -0.3272
vn 0.0162 -0.3273 0.9448
vn 0.9999 0.0003 -0.0171
vn -0.0162 0.3273 -0.9448
vn -0.9999 -0.0003 0.0171
vn -0.9997 0.0248 -0.0058
vn 0.0253 0.2698 -0.9626
vn 0.9997 -0.0248 0.0061
vn -0.0008 -0.2762 0.9611
vn 0.0222 0.9609 0.2761
vn -0.9999 -0.0019 0.0151
vn -0.0143 -0.2777 -0.9606
vn 0.9999 0.0019 -0.0151
vn 0.0145 0.2631 0.9647
vn -0.0059 0.9620 -0.2729
vn -0.0869 -0.9814 -0.1712
vn 0.0278 0.9482 -0.3164
vn 0.0053 0.9449 0.3272
vn 0.0029 -0.9868 0.1617
vn 0.0024 -0.9511 0.3090
vn 0.0112 0.3090 0.9510
vn -0.9999 0.0012 0.0114
vn -0.0112 -0.3090 -0.9510
vn 0.9999 -0.0012 -0.0114
vn 0.0074 -0.9560 -0.2933
vn -0.0230 -0.2933 0.9557
vn -0.9997 -0.0004 -0.0242
vn 0.0230 0.2933 -0.9557
vn 0.9997 0.0004 0.0242
vn 1.0000 -0.0033 -0.0091
vn -0.0075 0.3322 -0.9432
vn -1.0000 0.0033 0.0094
vn 0.0074 -0.3382 0.9410
vn 0.0062 0.9429 0.3330
vn 0.9998 -0.0013 0.0223
vn 0.0204 -0.3152 -0.9488
vn -0.9998 0.0013 -0.0220
vn -0.0206 0.3001 0.9537
vn 0.0081 0.9507 -0.3101
vn 1.0000 0.0000 0.0000
vn 0.0000 0.0000 -1.0000
vn -1.0000 0.0000 0.0000
vn 0.0000 0.0000 1.0000
vn 0.0000 -1.0000 0.0000
vn 0.0000 1.0000 0.0000
vn 0.9890 0.0773 -0.1264
vn -0.1403 0.2144 -0.9666
vn -0.9890 -0.0773 0.1264
vn 0.1403 -0.2144 0.9666
vn 0.0476 -0.9737 -0.2229
vn -0.0476 0.9737 0.2229
vn -0.0422 -0.9744 -0.2207
vn -0.0024 0.9511 -0.3090
vn -0.0074 0.9560 0.2933
vn -0.0064 -0.9803 0.1972
vn 0.0124 0.2752 -0.9613
vn 0.9997 -0.0248 0.0058
vn -0.0125 -0.2805 0.9598
vn -0.9999 -0.0018 0.0148
vn -0.0137 -0.2780 -0.9605
vn 0.9999 0.0018 -0.0148
vn 0.0138 0.2628 0.9647
vn 0.0110 -0.9637 -0.2667
vn 0.0050 -0.9872 0.1595
vn -0.0233 0.3262 -0.9450
vn -1.0000 0.0033 0.0091
vn -0.0060 -0.3329 0.9429
vn 0.9998 -0.0013 0.0220
vn 0.0211 -0.3150 -0.9489
vn -0.9998 0.0013 -0.0223
vn -0.0213 0.3004 0.9536
vn 0.0613 -0.9443 -0.3233
vn -0.0043 -0.9799 0.1995
s off
f 4/1/1 1/2/1 2/3/1
f 3/4/2 5/5/2 1/2/2
f 7/6/3 3/7/3 4/1/3
f 2/3/4 7/6/4 4/1/4
f 5/8/5 2/3/5 1/9/5
f 10/10/6 11/11/6 9/12/6
f 16/13/7 9/12/7 11/11/7
f 12/14/8 16/15/8 11/16/8
f 10/10/9 15/17/9 12/14/9
f 13/18/10 10/10/10 9/19/10
f 25/20/11 18/21/11 26/22/11
f 26/22/12 20/23/12 27/24/12
f 20/23/13 28/25/13 27/24/13
f 28/26/14 17/27/14 25/28/14
f 20/23/15 17/29/15 19/30/15
f 21/31/16 30/32/16 29/33/16
f 30/32/17 24/34/17 31/35/17
f 31/35/18 23/36/18 32/37/18
f 32/38/19 21/39/19 29/40/19
f 22/41/20 23/42/20 24/34/20
f 28/26/21 26/22/21 27/24/21
f 7/6/22 5/43/22 8/44/22
f 16/45/23 14/46/23 13/47/23
f 32/38/24 30/32/24 31/35/24
f 33/48/25 36/49/25 34/50/25
f 33/48/26 40/51/26 35/52/26
f 36/49/27 40/53/27 39/54/27
f 36/49/28 38/55/28 34/50/28
f 34/50/29 37/56/29 33/57/29
f 41/58/30 44/59/30 42/60/30
f 43/61/31 45/62/31 48/63/31
f 43/64/32 47/65/32 44/59/32
f 42/60/33 47/65/33 46/66/33
f 42/60/34 45/67/34 41/68/34
f 57/69/35 50/70/35 49/71/35
f 58/72/36 52/73/36 50/70/36
f 60/74/37 52/73/37 59/75/37
f 60/76/38 49/77/38 51/78/38
f 51/79/39 50/70/39 52/73/39
f 62/80/40 53/81/40 61/82/40
f 62/80/41 56/83/41 54/84/41
f 63/85/42 55/86/42 56/83/42
f 64/87/43 53/88/43 55/89/43
f 55/90/44 54/84/44 56/83/44
f 67/91/45 66/92/45 65/93/45
f 71/94/46 68/95/46 67/91/46
f 69/96/47 72/97/47 71/94/47
f 65/98/48 70/99/48 69/100/48
f 65/98/49 71/94/49 67/91/49
f 70/101/50 68/95/50 72/97/50
f 73/102/51 76/103/51 74/104/51
f 79/105/52 76/103/52 75/106/52
f 77/107/53 80/108/53 79/105/53
f 73/109/54 78/110/54 77/111/54
f 73/109/55 79/105/55 75/106/55
f 78/112/56 76/103/56 80/108/56
f 59/75/57 57/113/57 60/76/57
f 37/114/58 39/54/58 40/115/58
f 48/116/59 46/66/59 47/65/59
f 64/87/60 62/80/60 61/117/60
f 4/1/1 3/4/1 1/2/1
f 3/4/2 8/118/2 5/5/2
f 7/6/3 8/119/3 3/7/3
f 2/3/4 6/120/4 7/6/4
f 5/8/5 6/120/5 2/3/5
f 10/10/6 12/14/6 11/11/6
f 16/13/7 13/121/7 9/12/7
f 12/14/8 15/17/8 16/15/8
f 10/10/9 14/46/9 15/17/9
f 13/18/10 14/46/10 10/10/10
f 25/20/11 17/122/11 18/21/11
f 26/22/61 18/21/61 20/23/61
f 20/23/62 19/123/62 28/25/62
f 28/26/63 19/124/63 17/27/63
f 20/23/15 18/21/15 17/29/15
f 21/31/64 22/41/64 30/32/64
f 30/32/65 22/41/65 24/34/65
f 31/35/66 24/34/66 23/36/66
f 32/38/67 23/125/67 21/39/67
f 22/41/20 21/126/20 23/42/20
f 28/26/68 25/28/68 26/22/68
f 7/6/22 6/120/22 5/43/22
f 16/45/23 15/17/23 14/46/23
f 32/38/69 29/40/69 30/32/69
f 33/48/25 35/52/25 36/49/25
f 33/48/26 37/127/26 40/51/26
f 36/49/27 35/128/27 40/53/27
f 36/49/28 39/54/28 38/55/28
f 34/50/29 38/55/29 37/56/29
f 41/58/30 43/61/30 44/59/30
f 43/61/31 41/58/31 45/62/31
f 43/64/32 48/129/32 47/65/32
f 42/60/33 44/59/33 47/65/33
f 42/60/34 46/66/34 45/67/34
f 57/69/35 58/72/35 50/70/35
f 58/72/70 59/75/70 52/73/70
f 60/74/71 51/130/71 52/73/71
f 60/76/72 57/113/72 49/77/72
f 51/79/39 49/131/39 50/70/39
f 62/80/73 54/84/73 53/81/73
f 62/80/74 63/85/74 56/83/74
f 63/85/75 64/132/75 55/86/75
f 64/87/76 61/117/76 53/88/76
f 55/90/44 53/133/44 54/84/44
f 67/91/45 68/95/45 66/92/45
f 71/94/46 72/97/46 68/95/46
f 69/96/47 70/134/47 72/97/47
f 65/98/48 66/135/48 70/99/48
f 65/98/49 69/100/49 71/94/49
f 70/101/50 66/136/50 68/95/50
f 73/102/51 75/106/51 76/103/51
f 79/105/52 80/108/52 76/103/52
f 77/107/53 78/137/53 80/108/53
f 73/109/54 74/138/54 78/110/54
f 73/109/55 77/111/55 79/105/55
f 78/112/56 74/139/56 76/103/56
f 59/75/77 58/72/77 57/113/77
f 37/114/58 38/55/58 39/54/58
f 48/116/59 45/140/59 46/66/59
f 64/87/78 63/85/78 62/80/78
