# Blender v2.79 (sub 0) OBJ File: '3DObjectDecoderObjects.blend'
# www.blender.org
o Cube.005_Cube.008
v 0.648716 -0.120898 0.264209
v 0.649528 -0.197029 -0.133157
v 1.053170 -0.131157 0.267001
v 1.053982 -0.207288 -0.130365
v 0.674918 0.860912 0.076158
v 0.675730 0.784781 -0.321208
v 1.080184 0.774522 -0.318416
v 1.079372 0.850653 0.078950
v 0.078444 -1.698090 0.120949
v 0.071908 -1.616702 -0.275324
v 0.482983 -1.697972 0.114300
v 0.476448 -1.616584 -0.281973
v 0.081463 -0.718530 0.322087
v 0.074928 -0.637142 -0.074186
v 0.479467 -0.637024 -0.080835
v 0.486003 -0.718412 0.315438
v 0.697710 1.813610 0.209587
v 0.701350 1.869627 -0.191094
v 1.102178 1.803765 0.211885
v 1.105818 1.859781 -0.188796
v 0.078214 0.364398 0.196318
v 0.072213 0.307519 -0.204217
v 0.482762 0.364886 0.190186
v 0.476760 0.308006 -0.210348
v 0.674397 0.823540 0.070959
v 0.677994 0.877425 -0.329896
v 1.082169 0.853329 -0.328521
v 1.079035 0.821531 0.072794
v 0.081586 -0.642683 0.335412
v 0.075492 -0.672264 -0.063547
v 0.480040 -0.672107 -0.069732
v 0.486129 -0.642053 0.329066
v -0.698481 -0.107070 0.204674
v -0.702942 -0.185060 -0.192301
v -1.103050 -0.106574 0.209124
v -1.107512 -0.184564 -0.187852
v -0.699397 0.874171 0.011913
v -0.703858 0.796181 -0.385062
v -1.108428 0.796677 -0.380613
v -1.103966 0.874667 0.016362
v -0.079811 -1.691759 0.192638
v -0.070428 -1.623638 -0.206071
v -0.484293 -1.691878 0.183099
v -0.474910 -1.623757 -0.215609
v -0.084072 -0.706033 0.360953
v -0.074689 -0.637912 -0.037756
v -0.479171 -0.638032 -0.047294
v -0.488553 -0.706153 0.351414
v -0.695595 1.792962 0.211499
v -0.699160 1.876947 -0.184259
v -1.100169 1.793985 0.215361
v -1.103734 1.877969 -0.180398
v -0.079593 0.371772 0.194636
v -0.070757 0.299758 -0.203401
v -0.484087 0.372045 0.185607
v -0.475250 0.300031 -0.212429
v -0.700048 0.814747 0.003952
v -0.703631 0.896127 -0.392105
v -1.108323 0.879735 -0.389943
v -1.104574 0.825385 0.007559
v -0.084272 -0.629537 0.371709
v -0.075347 -0.673857 -0.025718
v -0.479841 -0.673920 -0.034789
v -0.488760 -0.629127 0.362458
v 0.630000 0.437142 0.420000
v 0.630000 1.837142 0.420000
v 0.630000 0.437142 -0.420000
v 0.630000 1.837142 -0.420000
v -0.630000 0.437142 0.420000
v -0.630000 1.837142 0.420000
v -0.630000 0.437142 -0.420000
v -0.630000 1.837142 -0.420000
v 0.336016 1.894008 0.265979
v 0.307449 2.478214 0.399722
v 0.251850 2.022665 -0.313989
v 0.223283 2.606871 -0.180246
v -0.257364 1.847633 0.341804
v -0.285931 2.431839 0.475547
v -0.341530 1.976290 -0.238164
v -0.370097 2.560497 -0.104421
vt 0.151712 0.164304
vt 0.128453 0.121671
vt 0.152804 0.123501
vt 0.067175 0.157952
vt 0.127361 0.162474
vt 0.211899 0.168826
vt 0.150620 0.205107
vt 0.214083 0.087220
vt 0.153896 0.082698
vt 0.120318 0.196104
vt 0.141703 0.159716
vt 0.141869 0.195827
vt 0.194969 0.159030
vt 0.066887 0.160679
vt 0.119987 0.123882
vt 0.120152 0.159993
vt 0.120483 0.232215
vt 0.067052 0.196790
vt 0.893013 0.803206
vt 0.953247 0.844041
vt 0.893013 0.844041
vt 0.953247 0.884875
vt 0.893013 0.884875
vt 0.893013 0.925710
vt 0.868643 0.884875
vt 0.808410 0.844041
vt 0.868643 0.844041
vt 0.977617 0.844041
vt 0.977617 0.884875
vt 0.741845 0.545283
vt 0.663028 0.598717
vt 0.663028 0.545283
vt 0.741845 0.652150
vt 0.663028 0.652150
vt 0.741845 0.705584
vt 0.663028 0.705584
vt 0.631139 0.652150
vt 0.552321 0.598717
vt 0.631139 0.598717
vt 0.741845 0.598717
vt 0.773734 0.652150
vt 0.237342 0.129853
vt 0.236250 0.170656
vt 0.045336 0.160957
vt 0.045501 0.197068
vt 0.094887 0.153073
vt 0.114964 0.123128
vt 0.113861 0.154921
vt 0.095990 0.121280
vt 0.047991 0.148506
vt 0.049093 0.116713
vt 0.116067 0.091335
vt 0.161861 0.127695
vt 0.160758 0.159488
vt 0.112759 0.186714
vt 0.159655 0.191281
vt 0.153193 0.158992
vt 0.134495 0.188340
vt 0.135087 0.158002
vt 0.152601 0.189330
vt 0.197943 0.161440
vt 0.197352 0.191779
vt 0.133904 0.218678
vt 0.089745 0.185892
vt 0.090336 0.155553
vt 0.090927 0.125215
vt 0.135678 0.127663
vt 0.893013 0.809899
vt 0.820174 0.859280
vt 0.820174 0.809899
vt 0.893013 0.859280
vt 0.820174 0.908661
vt 0.893013 0.958041
vt 0.893013 0.908661
vt 0.922484 0.908660
vt 0.995323 0.859280
vt 0.995323 0.908660
vt 0.790703 0.908661
vt 0.668850 0.601598
vt 0.627314 0.573439
vt 0.668850 0.573439
vt 0.627314 0.629757
vt 0.627314 0.601598
vt 0.668850 0.629757
vt 0.627314 0.657916
vt 0.685655 0.629757
vt 0.727191 0.601598
vt 0.727191 0.629757
vt 0.610509 0.629757
vt 0.114767 0.168293
vt 0.095916 0.220936
vt 0.095916 0.168293
vt 0.143042 0.168293
vt 0.114767 0.220936
vt 0.161893 0.168293
vt 0.143042 0.220936
vt 0.114767 0.136707
vt 0.143042 0.084063
vt 0.143042 0.136707
vt 0.143042 0.252523
vt 0.705410 0.612195
vt 0.679363 0.568551
vt 0.705410 0.568551
vt 0.653316 0.612195
vt 0.679363 0.612195
vt 0.627270 0.612195
vt 0.653316 0.568551
vt 0.653316 0.655839
vt 0.679363 0.699483
vt 0.653316 0.699483
vt 0.679363 0.655839
vt 0.653316 0.524907
vt 0.922484 0.859280
vt 0.179732 0.161336
vt 0.180835 0.129543
vt 0.071639 0.184901
vt 0.685655 0.601598
vt 0.068267 0.117149
vt 0.210807 0.209629
vt 0.212991 0.128023
vt 0.195135 0.195141
vt 0.066721 0.124568
vt 0.067218 0.232901
vt 0.953247 0.803206
vt 0.953247 0.925710
vt 0.808410 0.884875
vt 0.552321 0.652150
vt 0.773734 0.598717
vt 0.162963 0.095902
vt 0.089154 0.216230
vt 0.820174 0.958041
vt 0.790703 0.859280
vt 0.668850 0.657916
vt 0.610509 0.601598
vt 0.161893 0.220936
vt 0.114767 0.084063
vt 0.114767 0.252523
vt 0.627270 0.568551
vt 0.679363 0.524907
vt 0.072230 0.154563
vn -0.0262 -0.9818 0.1881
vn -0.0020 0.1882 0.9821
vn 0.9997 -0.0254 0.0069
vn 0.0020 -0.1882 -0.9821
vn -0.9997 0.0254 -0.0069
vn -0.0030 -0.9796 -0.2011
vn 0.0162 -0.2012 0.9794
vn 0.9999 0.0003 -0.0164
vn -0.0162 0.2012 -0.9794
vn -0.9999 -0.0003 0.0164
vn -0.9997 0.0243 -0.0057
vn 0.0116 0.1372 -0.9905
vn 0.9997 -0.0243 0.0059
vn -0.0052 -0.1385 0.9903
vn 0.0233 0.9901 0.1386
vn -0.9999 -0.0012 0.0154
vn -0.0151 -0.1420 -0.9897
vn 0.9999 0.0012 -0.0154
vn 0.0153 0.1369 0.9905
vn -0.0033 0.9901 -0.1405
vn -0.0591 -0.9951 -0.0793
vn 0.0262 0.9818 -0.1881
vn 0.0030 0.9796 0.2011
vn 0.0015 -0.9972 0.0751
vn 0.0009 -0.9812 0.1928
vn 0.0110 0.1928 0.9812
vn -0.9999 0.0012 0.0110
vn -0.0110 -0.1928 -0.9812
vn 0.9999 -0.0012 -0.0110
vn 0.0043 -0.9857 -0.1683
vn -0.0232 -0.1684 0.9855
vn -0.9997 -0.0003 -0.0236
vn 0.0232 0.1684 -0.9855
vn 0.9997 0.0003 0.0236
vn 1.0000 -0.0025 -0.0095
vn -0.0088 0.2073 -0.9782
vn -0.9999 0.0025 0.0098
vn 0.0088 -0.2098 0.9777
vn 0.0045 0.9782 0.2075
vn 0.9997 -0.0007 0.0225
vn 0.0218 -0.1796 -0.9835
vn -0.9998 0.0006 -0.0223
vn -0.0219 0.1740 0.9845
vn 0.0046 0.9840 -0.1779
vn 1.0000 0.0000 0.0000
vn 0.0000 0.0000 -1.0000
vn -1.0000 0.0000 0.0000
vn 0.0000 0.0000 1.0000
vn 0.0000 -1.0000 0.0000
vn 0.0000 1.0000 0.0000
vn 0.9890 0.0773 -0.1264
vn -0.1403 0.2144 -0.9666
vn -0.9890 -0.0773 0.1264
vn 0.1403 -0.2144 0.9666
vn 0.0476 -0.9737 -0.2229
vn -0.0476 0.9737 0.2229
vn -0.0275 -0.9792 -0.2010
vn -0.0009 0.9812 -0.1928
vn -0.0043 0.9857 0.1683
vn -0.0035 -0.9938 0.1108
vn 0.0090 0.1383 -0.9903
vn 0.9997 -0.0244 0.0057
vn -0.0090 -0.1400 0.9901
vn -0.9999 -0.0012 0.0151
vn -0.0148 -0.1421 -0.9897
vn 0.9999 0.0012 -0.0151
vn 0.0148 0.1367 0.9905
vn -0.0043 -0.9911 -0.1333
vn 0.0027 -0.9973 0.0739
vn 1.0000 -0.0025 -0.0096
vn -0.0136 0.2055 -0.9786
vn -1.0000 0.0025 0.0095
vn 0.0033 -0.2076 0.9782
vn 0.9998 -0.0006 0.0223
vn 0.0221 -0.1795 -0.9835
vn -0.9997 0.0007 -0.0225
vn -0.0223 0.1742 0.9845
vn 0.0394 -0.9900 -0.1357
vn -0.0024 -0.9937 0.1120
s off
f 4/1/1 1/2/1 2/3/1
f 8/4/2 1/2/2 3/5/2
f 7/6/3 3/7/3 4/1/3
f 2/3/4 7/6/4 4/1/4
f 5/8/5 2/3/5 1/9/5
f 10/10/6 11/11/6 9/12/6
f 16/13/7 9/12/7 11/11/7
f 15/14/8 11/15/8 12/16/8
f 10/10/9 15/14/9 12/16/9
f 9/17/10 14/18/10 10/10/10
f 25/19/11 18/20/11 26/21/11
f 26/21/12 20/22/12 27/23/12
f 20/22/13 28/24/13 27/23/13
f 28/25/14 17/26/14 25/27/14
f 20/22/15 17/28/15 19/29/15
f 21/30/16 30/31/16 29/32/16
f 30/31/17 24/33/17 31/34/17
f 31/34/18 23/35/18 32/36/18
f 32/37/19 21/38/19 29/39/19
f 22/40/20 23/41/20 24/33/20
f 28/25/21 26/21/21 27/23/21
f 7/6/22 5/42/22 8/43/22
f 16/44/23 14/18/23 13/45/23
f 32/37/24 30/31/24 31/34/24
f 33/46/25 36/47/25 34/48/25
f 35/49/26 37/50/26 40/51/26
f 35/52/27 39/53/27 36/47/27
f 36/47/28 38/54/28 34/48/28
f 33/55/29 38/54/29 37/56/29
f 41/57/30 44/58/30 42/59/30
f 43/60/31 45/61/31 48/62/31
f 43/63/32 47/64/32 44/58/32
f 44/58/33 46/65/33 42/59/33
f 42/59/34 45/66/34 41/67/34
f 57/68/35 50/69/35 49/70/35
f 58/71/36 52/72/36 50/69/36
f 60/73/37 52/72/37 59/74/37
f 60/75/38 49/76/38 51/77/38
f 51/78/39 50/69/39 52/72/39
f 62/79/40 53/80/40 61/81/40
f 62/79/41 56/82/41 54/83/41
f 63/84/42 55/85/42 56/82/42
f 64/86/43 53/87/43 55/88/43
f 55/89/44 54/83/44 56/82/44
f 67/90/45 66/91/45 65/92/45
f 71/93/46 68/94/46 67/90/46
f 69/95/47 72/96/47 71/93/47
f 65/97/48 70/98/48 69/99/48
f 65/97/49 71/93/49 67/90/49
f 70/100/50 68/94/50 72/96/50
f 73/101/51 76/102/51 74/103/51
f 79/104/52 76/102/52 75/105/52
f 77/106/53 80/107/53 79/104/53
f 77/108/54 74/109/54 78/110/54
f 73/111/55 79/104/55 75/105/55
f 78/112/56 76/102/56 80/107/56
f 60/75/57 58/71/57 57/113/57
f 37/114/58 39/53/58 40/115/58
f 48/116/59 46/65/59 47/64/59
f 64/86/60 62/79/60 61/117/60
f 4/1/1 3/5/1 1/2/1
f 8/4/2 5/118/2 1/2/2
f 7/6/3 8/119/3 3/7/3
f 2/3/4 6/120/4 7/6/4
f 5/8/5 6/120/5 2/3/5
f 10/10/6 12/16/6 11/11/6
f 16/13/7 13/121/7 9/12/7
f 15/14/8 16/122/8 11/15/8
f 10/10/9 14/18/9 15/14/9
f 9/17/10 13/123/10 14/18/10
f 25/19/11 17/124/11 18/20/11
f 26/21/61 18/20/61 20/22/61
f 20/22/62 19/125/62 28/24/62
f 28/25/63 19/126/63 17/26/63
f 20/22/15 18/20/15 17/28/15
f 21/30/64 22/40/64 30/31/64
f 30/31/65 22/40/65 24/33/65
f 31/34/66 24/33/66 23/35/66
f 32/37/67 23/127/67 21/38/67
f 22/40/20 21/128/20 23/41/20
f 28/25/68 25/27/68 26/21/68
f 7/6/22 6/120/22 5/42/22
f 16/44/23 15/14/23 14/18/23
f 32/37/69 29/39/69 30/31/69
f 33/46/25 35/49/25 36/47/25
f 35/49/26 33/46/26 37/50/26
f 35/52/27 40/129/27 39/53/27
f 36/47/28 39/53/28 38/54/28
f 33/55/29 34/48/29 38/54/29
f 41/57/30 43/60/30 44/58/30
f 43/60/31 41/57/31 45/61/31
f 43/63/32 48/130/32 47/64/32
f 44/58/33 47/64/33 46/65/33
f 42/59/34 46/65/34 45/66/34
f 57/68/70 58/71/70 50/69/70
f 58/71/71 59/74/71 52/72/71
f 60/73/72 51/131/72 52/72/72
f 60/75/73 57/113/73 49/76/73
f 51/78/39 49/132/39 50/69/39
f 62/79/74 54/83/74 53/80/74
f 62/79/75 63/84/75 56/82/75
f 63/84/76 64/133/76 55/85/76
f 64/86/77 61/117/77 53/87/77
f 55/89/44 53/134/44 54/83/44
f 67/90/45 68/94/45 66/91/45
f 71/93/46 72/96/46 68/94/46
f 69/95/47 70/135/47 72/96/47
f 65/97/48 66/136/48 70/98/48
f 65/97/49 69/99/49 71/93/49
f 70/100/50 66/137/50 68/94/50
f 73/101/51 75/105/51 76/102/51
f 79/104/52 80/107/52 76/102/52
f 77/106/53 78/138/53 80/107/53
f 77/108/54 73/111/54 74/109/54
f 73/111/55 77/108/55 79/104/55
f 78/112/56 74/139/56 76/102/56
f 60/75/78 59/74/78 58/71/78
f 37/114/58 38/54/58 39/53/58
f 48/116/59 45/140/59 46/65/59
f 64/86/79 63/84/79 62/79/79
