# Blender v2.79 (sub 0) OBJ File: '3DObjectDecoderObjects.blend'
# www.blender.org
o Cube.005_Cube.008
v 0.648018 -0.160472 0.259542
v 0.650395 -0.159591 -0.145044
v 1.052487 -0.170241 0.261898
v 1.054864 -0.169360 -0.142689
v 0.672149 0.839234 0.261860
v 0.674526 0.840115 -0.142726
v 1.078995 0.830346 -0.140371
v 1.076618 0.829465 0.264215
v 0.078562 -1.665460 0.136358
v 0.072203 -1.652160 -0.267971
v 0.483106 -1.665240 0.130001
v 0.476747 -1.651940 -0.274328
v 0.078535 -0.666000 0.169238
v 0.072175 -0.652701 -0.235090
v 0.476720 -0.652481 -0.241447
v 0.483079 -0.665780 0.162882
v 0.698729 1.917351 0.195659
v 0.700541 1.891025 -0.208074
v 1.103196 1.907498 0.198117
v 1.105008 1.881172 -0.205616
v 0.078563 0.391288 0.207017
v 0.072199 0.405807 -0.197269
v 0.483107 0.391505 0.200656
v 0.476743 0.406023 -0.203630
v 0.674033 0.919768 0.260599
v 0.675853 0.893881 -0.143101
v 1.080379 0.886963 -0.140472
v 1.078466 0.908302 0.263162
v 0.078534 -0.607918 0.171140
v 0.072171 -0.593640 -0.233161
v 0.476715 -0.593420 -0.239522
v 0.483078 -0.607702 0.164781
v -0.698644 -0.135137 0.202197
v -0.702932 -0.158600 -0.201687
v -1.103215 -0.134561 0.206458
v -1.107503 -0.158024 -0.197425
v -0.697833 0.863178 0.144204
v -0.702121 0.839716 -0.259680
v -1.106693 0.840292 -0.255418
v -1.102405 0.863754 0.148466
v -0.080033 -1.659571 0.206638
v -0.070770 -1.657895 -0.197848
v -0.484521 -1.659575 0.197375
v -0.475258 -1.657900 -0.207111
v -0.080138 -0.659579 0.210779
v -0.070876 -0.657903 -0.193706
v -0.475364 -0.657907 -0.202969
v -0.484627 -0.659583 0.201517
v -0.695515 1.885970 0.204435
v -0.699545 1.911237 -0.199343
v -1.100088 1.886703 0.208519
v -1.104118 1.911971 -0.195259
v -0.080026 0.399601 0.206529
v -0.070776 0.397763 -0.197956
v -0.484514 0.399606 0.197279
v -0.475264 0.397768 -0.207206
v -0.697955 0.887924 0.142000
v -0.701990 0.912407 -0.261864
v -1.106597 0.907899 -0.258263
v -1.102514 0.891549 0.145992
v -0.080144 -0.600822 0.211047
v -0.070892 -0.601966 -0.193420
v -0.475380 -0.601969 -0.202671
v -0.484632 -0.600813 0.201791
v 0.630000 0.499140 0.420000
v 0.630000 1.899140 0.420000
v 0.630000 0.499140 -0.420000
v 0.630000 1.899140 -0.420000
v -0.630000 0.499140 0.420000
v -0.630000 1.899140 0.420000
v -0.630000 0.499140 -0.420000
v -0.630000 1.899140 -0.420000
v 0.300202 1.998878 0.299854
v 0.299994 2.598877 0.300583
v 0.299757 1.999607 -0.300146
v 0.299549 2.599607 -0.299416
v -0.299798 1.998669 0.300298
v -0.300006 2.598669 0.301028
v -0.300243 1.999399 -0.299701
v -0.300451 2.599398 -0.298972
vt 0.151712 0.164304
vt 0.128453 0.121671
vt 0.152804 0.123501
vt 0.067175 0.157952
vt 0.127361 0.162474
vt 0.210807 0.209629
vt 0.150620 0.205107
vt 0.212991 0.128023
vt 0.214083 0.087220
vt 0.153896 0.082698
vt 0.120318 0.196104
vt 0.141703 0.159716
vt 0.141869 0.195827
vt 0.194969 0.159030
vt 0.066887 0.160679
vt 0.119987 0.123882
vt 0.120152 0.159993
vt 0.120483 0.232215
vt 0.067052 0.196790
vt 0.953247 0.803206
vt 0.893013 0.844041
vt 0.893013 0.803206
vt 0.953247 0.844041
vt 0.893013 0.884875
vt 0.953247 0.925710
vt 0.893013 0.925710
vt 0.808410 0.884875
vt 0.868643 0.844041
vt 0.868643 0.884875
vt 0.953247 0.884875
vt 0.977617 0.844041
vt 0.977617 0.884875
vt 0.663028 0.545283
vt 0.741845 0.598717
vt 0.663028 0.598717
vt 0.663028 0.652150
vt 0.741845 0.652150
vt 0.663028 0.705584
vt 0.552321 0.652150
vt 0.631139 0.598717
vt 0.631139 0.652150
vt 0.773734 0.652150
vt 0.211899 0.168826
vt 0.237342 0.129853
vt 0.236250 0.170656
vt 0.045336 0.160957
vt 0.045501 0.197068
vt 0.094887 0.153073
vt 0.114964 0.123128
vt 0.113861 0.154921
vt 0.095990 0.121280
vt 0.047991 0.148506
vt 0.049093 0.116713
vt 0.116067 0.091335
vt 0.161861 0.127695
vt 0.160758 0.159488
vt 0.112759 0.186714
vt 0.159655 0.191281
vt 0.153193 0.158992
vt 0.134495 0.188340
vt 0.135087 0.158002
vt 0.152601 0.189330
vt 0.197943 0.161440
vt 0.197352 0.191779
vt 0.133904 0.218678
vt 0.089745 0.185892
vt 0.090336 0.155553
vt 0.135678 0.127663
vt 0.090927 0.125215
vt 0.893013 0.809899
vt 0.820174 0.859280
vt 0.820174 0.809899
vt 0.893013 0.859280
vt 0.820174 0.908661
vt 0.893013 0.958041
vt 0.893013 0.908661
vt 0.922484 0.908660
vt 0.995323 0.859280
vt 0.995323 0.908660
vt 0.790703 0.859280
vt 0.668850 0.601598
vt 0.627314 0.573439
vt 0.668850 0.573439
vt 0.627314 0.629757
vt 0.627314 0.601598
vt 0.668850 0.629757
vt 0.627314 0.657916
vt 0.685655 0.629757
vt 0.727191 0.601598
vt 0.727191 0.629757
vt 0.610509 0.629757
vt 0.114767 0.168293
vt 0.095916 0.220936
vt 0.095916 0.168293
vt 0.143042 0.168293
vt 0.114767 0.220936
vt 0.161893 0.168293
vt 0.143042 0.220936
vt 0.114767 0.136707
vt 0.143042 0.084063
vt 0.143042 0.136707
vt 0.143042 0.252523
vt 0.705410 0.612195
vt 0.679363 0.568551
vt 0.705410 0.568551
vt 0.653316 0.612195
vt 0.679363 0.612195
vt 0.627270 0.568551
vt 0.653316 0.568551
vt 0.679363 0.655839
vt 0.653316 0.699483
vt 0.653316 0.655839
vt 0.653316 0.524907
vt 0.922484 0.859280
vt 0.179732 0.161336
vt 0.180835 0.129543
vt 0.072230 0.154563
vt 0.071639 0.184901
vt 0.685655 0.601598
vt 0.068267 0.117149
vt 0.195135 0.195141
vt 0.066721 0.124568
vt 0.067218 0.232901
vt 0.808410 0.844041
vt 0.741845 0.545283
vt 0.741845 0.705584
vt 0.552321 0.598717
vt 0.773734 0.598717
vt 0.162963 0.095902
vt 0.089154 0.216230
vt 0.820174 0.958041
vt 0.790703 0.908661
vt 0.668850 0.657916
vt 0.610509 0.601598
vt 0.161893 0.220936
vt 0.114767 0.084063
vt 0.114767 0.252523
vt 0.627270 0.612195
vt 0.679363 0.699483
vt 0.679363 0.524907
vn -0.0241 -0.9997 -0.0023
vn -0.0059 -0.0022 1.0000
vn 0.9997 -0.0241 0.0058
vn 0.0059 0.0022 -1.0000
vn -0.9997 0.0241 -0.0058
vn 0.0000 -0.9995 -0.0329
vn 0.0157 -0.0329 0.9993
vn 0.9999 0.0005 -0.0157
vn -0.0157 0.0329 -0.9993
vn -0.9999 -0.0005 0.0157
vn -0.9997 0.0244 -0.0061
vn 0.0054 -0.0652 -0.9979
vn 0.9997 -0.0244 0.0060
vn -0.0045 0.0651 0.9979
vn 0.0247 0.9976 -0.0649
vn -0.0157 0.0359 -0.9992
vn 0.0157 -0.0359 0.9992
vn 0.0000 0.9994 0.0359
vn -0.0286 -0.9982 0.0526
vn 0.0241 0.9997 0.0023
vn -0.0000 0.9995 0.0329
vn -0.0000 -0.9994 -0.0353
vn -0.0008 -0.9983 0.0580
vn 0.0106 0.0580 0.9983
vn -0.9999 0.0014 0.0105
vn -0.0106 -0.0580 -0.9983
vn 0.9999 -0.0014 -0.0105
vn 0.0001 -1.0000 -0.0041
vn -0.0229 -0.0041 0.9997
vn -0.9997 -0.0000 -0.0229
vn 0.0229 0.0041 -0.9997
vn 0.9997 0.0000 0.0229
vn 0.9999 -0.0018 -0.0101
vn -0.0100 0.0625 -0.9980
vn -0.9999 0.0018 0.0102
vn 0.0100 -0.0627 0.9980
vn 0.0024 0.9980 0.0624
vn 0.0229 -0.0045 -0.9997
vn -0.0229 0.0045 0.9997
vn 0.0001 1.0000 -0.0045
vn 1.0000 0.0000 0.0000
vn 0.0000 0.0000 -1.0000
vn -1.0000 0.0000 0.0000
vn 0.0000 0.0000 1.0000
vn 0.0000 -1.0000 0.0000
vn 0.0000 1.0000 0.0000
vn 1.0000 0.0003 -0.0007
vn -0.0007 0.0012 -1.0000
vn -1.0000 -0.0003 0.0007
vn 0.0007 -0.0012 1.0000
vn 0.0003 -1.0000 -0.0012
vn -0.0003 1.0000 0.0012
vn -0.0095 -0.9981 -0.0604
vn 0.0008 0.9983 -0.0580
vn -0.0001 1.0000 0.0041
vn -0.0001 -1.0000 0.0028
vn 0.0045 -0.0655 -0.9978
vn 0.9997 -0.0244 0.0061
vn -0.0175 -0.9978 0.0639
vn -0.0096 0.0626 -0.9980
vn -0.9999 0.0018 0.0101
vn 0.0093 -0.0625 0.9980
vn 0.0108 -0.9991 -0.0405
vn -0.0001 -1.0000 0.0029
s off
f 4/1/1 1/2/1 2/3/1
f 8/4/2 1/2/2 3/5/2
f 4/1/3 8/6/3 3/7/3
f 6/8/4 4/1/4 2/3/4
f 5/9/5 2/3/5 1/10/5
f 10/11/6 11/12/6 9/13/6
f 16/14/7 9/13/7 11/12/7
f 15/15/8 11/16/8 12/17/8
f 10/11/9 15/15/9 12/17/9
f 9/18/10 14/19/10 10/11/10
f 17/20/11 26/21/11 25/22/11
f 18/23/12 27/24/12 26/21/12
f 27/24/13 19/25/13 28/26/13
f 19/27/14 25/28/14 28/29/14
f 20/30/15 17/31/15 19/32/15
f 29/33/10 22/34/10 30/35/10
f 22/34/16 31/36/16 30/35/16
f 24/37/8 32/38/8 31/36/8
f 23/39/17 29/40/17 32/41/17
f 22/34/18 23/42/18 24/37/18
f 25/28/19 27/24/19 28/29/19
f 7/43/20 5/44/20 8/45/20
f 16/46/21 14/19/21 13/47/21
f 32/41/22 30/35/22 31/36/22
f 33/48/23 36/49/23 34/50/23
f 35/51/24 37/52/24 40/53/24
f 35/54/25 39/55/25 36/49/25
f 36/49/26 38/56/26 34/50/26
f 33/57/27 38/56/27 37/58/27
f 41/59/28 44/60/28 42/61/28
f 43/62/29 45/63/29 48/64/29
f 43/65/30 47/66/30 44/60/30
f 42/61/31 47/66/31 46/67/31
f 41/68/32 46/67/32 45/69/32
f 57/70/33 50/71/33 49/72/33
f 58/73/34 52/74/34 50/71/34
f 60/75/35 52/74/35 59/76/35
f 60/77/36 49/78/36 51/79/36
f 52/74/37 49/80/37 50/71/37
f 62/81/32 53/82/32 61/83/32
f 62/81/38 56/84/38 54/85/38
f 63/86/30 55/87/30 56/84/30
f 64/88/39 53/89/39 55/90/39
f 55/91/40 54/85/40 56/84/40
f 67/92/41 66/93/41 65/94/41
f 71/95/42 68/96/42 67/92/42
f 69/97/43 72/98/43 71/95/43
f 65/99/44 70/100/44 69/101/44
f 65/99/45 71/95/45 67/92/45
f 70/102/46 68/96/46 72/98/46
f 73/103/47 76/104/47 74/105/47
f 79/106/48 76/104/48 75/107/48
f 79/106/49 78/108/49 80/109/49
f 73/110/50 78/111/50 77/112/50
f 73/110/51 79/106/51 75/107/51
f 78/113/52 76/104/52 80/109/52
f 60/77/53 58/73/53 57/114/53
f 37/115/54 39/55/54 40/116/54
f 45/117/55 47/66/55 48/118/55
f 64/88/56 62/81/56 61/119/56
f 4/1/1 3/5/1 1/2/1
f 8/4/2 5/120/2 1/2/2
f 4/1/3 7/43/3 8/6/3
f 6/8/4 7/43/4 4/1/4
f 5/9/5 6/8/5 2/3/5
f 10/11/6 12/17/6 11/12/6
f 16/14/7 13/121/7 9/13/7
f 15/15/8 16/122/8 11/16/8
f 10/11/9 14/19/9 15/15/9
f 9/18/10 13/123/10 14/19/10
f 17/20/11 18/23/11 26/21/11
f 18/23/57 20/30/57 27/24/57
f 27/24/58 20/30/58 19/25/58
f 19/27/14 17/124/14 25/28/14
f 20/30/15 18/23/15 17/31/15
f 29/33/10 21/125/10 22/34/10
f 22/34/16 24/37/16 31/36/16
f 24/37/8 23/126/8 32/38/8
f 23/39/17 21/127/17 29/40/17
f 22/34/18 21/128/18 23/42/18
f 25/28/59 26/21/59 27/24/59
f 7/43/20 6/8/20 5/44/20
f 16/46/21 15/15/21 14/19/21
f 32/41/22 29/40/22 30/35/22
f 33/48/23 35/51/23 36/49/23
f 35/51/24 33/48/24 37/52/24
f 35/54/25 40/129/25 39/55/25
f 36/49/26 39/55/26 38/56/26
f 33/57/27 34/50/27 38/56/27
f 41/59/28 43/62/28 44/60/28
f 43/62/29 41/59/29 45/63/29
f 43/65/30 48/130/30 47/66/30
f 42/61/31 44/60/31 47/66/31
f 41/68/32 42/61/32 46/67/32
f 57/70/33 58/73/33 50/71/33
f 58/73/60 59/76/60 52/74/60
f 60/75/61 51/131/61 52/74/61
f 60/77/62 57/114/62 49/78/62
f 52/74/37 51/132/37 49/80/37
f 62/81/32 54/85/32 53/82/32
f 62/81/38 63/86/38 56/84/38
f 63/86/30 64/133/30 55/87/30
f 64/88/39 61/119/39 53/89/39
f 55/91/40 53/134/40 54/85/40
f 67/92/41 68/96/41 66/93/41
f 71/95/42 72/98/42 68/96/42
f 69/97/43 70/135/43 72/98/43
f 65/99/44 66/136/44 70/100/44
f 65/99/45 69/101/45 71/95/45
f 70/102/46 66/137/46 68/96/46
f 73/103/47 75/107/47 76/104/47
f 79/106/48 80/109/48 76/104/48
f 79/106/49 77/138/49 78/108/49
f 73/110/50 74/139/50 78/111/50
f 73/110/51 77/112/51 79/106/51
f 78/113/52 74/140/52 76/104/52
f 60/77/63 59/76/63 58/73/63
f 37/115/54 38/56/54 39/55/54
f 45/117/55 46/67/55 47/66/55
f 64/88/64 63/86/64 62/81/64
