# Blender v2.79 (sub 0) OBJ File: '3DObjectDecoderObjects.blend'
# www.blender.org
o Cube.005_Cube.008
v 0.648165 -0.152107 0.261183
v 0.650212 -0.167800 -0.143102
v 1.052632 -0.161957 0.263614
v 1.054679 -0.177650 -0.140671
v 0.672725 0.846844 0.222531
v 0.674772 0.831151 -0.181753
v 1.079239 0.821301 -0.179322
v 1.077192 0.836993 0.224962
v 0.078547 -1.671538 0.133986
v 0.072143 -1.645854 -0.269744
v 0.483090 -1.671343 0.127581
v 0.476686 -1.645660 -0.276150
v 0.079073 -0.673555 0.197471
v 0.072669 -0.647871 -0.206260
v 0.477212 -0.647677 -0.212665
v 0.483616 -0.673361 0.191065
v 0.698516 1.901686 0.199373
v 0.700711 1.893063 -0.205123
v 1.102983 1.891858 0.201778
v 1.105178 1.883235 -0.202719
v 0.078508 0.390846 0.205540
v 0.072193 0.392385 -0.199005
v 0.483053 0.391104 0.199225
v 0.476738 0.392643 -0.205320
v 0.674103 0.902208 0.220546
v 0.676296 0.893472 -0.183960
v 1.080749 0.882881 -0.181601
v 1.078580 0.892799 0.222923
v 0.079095 -0.612118 0.201460
v 0.072765 -0.605811 -0.202796
v 0.477309 -0.605611 -0.209121
v 0.483639 -0.611834 0.195108
v -0.698616 -0.130908 0.202816
v -0.702936 -0.162684 -0.200498
v -1.103187 -0.130349 0.207107
v -1.107508 -0.162125 -0.196208
v -0.698071 0.866001 0.124276
v -0.702392 0.834225 -0.279038
v -1.106963 0.834784 -0.274748
v -1.102642 0.866560 0.128566
v -0.080002 -1.665429 0.204548
v -0.070700 -1.651935 -0.199715
v -0.484490 -1.665460 0.195240
v -0.475187 -1.651966 -0.209023
v -0.080847 -0.665984 0.237890
v -0.071544 -0.652491 -0.166373
v -0.476032 -0.652522 -0.175682
v -0.485334 -0.666015 0.228581
v -0.695522 1.874411 0.205793
v -0.699491 1.908622 -0.197326
v -1.100095 1.875183 0.209842
v -1.104065 1.909395 -0.193277
v -0.079960 0.398843 0.204863
v -0.070761 0.384533 -0.199375
v -0.484450 0.398889 0.195656
v -0.475250 0.384579 -0.208582
v -0.698270 0.877994 0.121253
v -0.702247 0.911145 -0.281983
v -1.106867 0.904819 -0.278594
v -1.102824 0.882683 0.125181
v -0.080887 -0.603958 0.240035
v -0.071671 -0.612774 -0.164060
v -0.476161 -0.612795 -0.173275
v -0.485376 -0.603885 0.230784
v 0.630000 0.492197 0.420000
v 0.630000 1.892197 0.420000
v 0.630000 0.492197 -0.420000
v 0.630000 1.892197 -0.420000
v -0.630000 0.492197 0.420000
v -0.630000 1.892197 0.420000
v -0.630000 0.492197 -0.420000
v -0.630000 1.892197 -0.420000
v 0.301832 1.989823 0.298653
v 0.299963 2.589783 0.305284
v 0.297783 1.996441 -0.301297
v 0.295913 2.596401 -0.294666
v -0.298151 1.987909 0.302681
v -0.300021 2.587869 0.309312
v -0.302201 1.994527 -0.297269
v -0.304071 2.594487 -0.290638
vt 0.151712 0.164304
vt 0.128453 0.121671
vt 0.152804 0.123501
vt 0.067175 0.157952
vt 0.127361 0.162474
vt 0.210807 0.209629
vt 0.150620 0.205107
vt 0.212991 0.128023
vt 0.214083 0.087220
vt 0.153896 0.082698
vt 0.120318 0.196104
vt 0.141703 0.159716
vt 0.141869 0.195827
vt 0.194969 0.159030
vt 0.066887 0.160679
vt 0.119987 0.123882
vt 0.120152 0.159993
vt 0.120483 0.232215
vt 0.067052 0.196790
vt 0.893013 0.803206
vt 0.953247 0.844041
vt 0.893013 0.844041
vt 0.953247 0.884875
vt 0.893013 0.884875
vt 0.893013 0.925710
vt 0.868643 0.884875
vt 0.808410 0.844041
vt 0.868643 0.844041
vt 0.977617 0.844041
vt 0.977617 0.884875
vt 0.741845 0.545283
vt 0.663028 0.598717
vt 0.663028 0.545283
vt 0.741845 0.652150
vt 0.663028 0.652150
vt 0.741845 0.705584
vt 0.663028 0.705584
vt 0.631139 0.652150
vt 0.552321 0.598717
vt 0.631139 0.598717
vt 0.741845 0.598717
vt 0.773734 0.652150
vt 0.211899 0.168826
vt 0.237342 0.129853
vt 0.236250 0.170656
vt 0.045336 0.160957
vt 0.045501 0.197068
vt 0.094887 0.153073
vt 0.114964 0.123128
vt 0.113861 0.154921
vt 0.049093 0.116713
vt 0.095990 0.121280
vt 0.116067 0.091335
vt 0.161861 0.127695
vt 0.160758 0.159488
vt 0.112759 0.186714
vt 0.159655 0.191281
vt 0.153193 0.158992
vt 0.134495 0.188340
vt 0.135087 0.158002
vt 0.197352 0.191779
vt 0.152601 0.189330
vt 0.133904 0.218678
vt 0.089745 0.185892
vt 0.090336 0.155553
vt 0.135678 0.127663
vt 0.090927 0.125215
vt 0.893013 0.809899
vt 0.820174 0.859280
vt 0.820174 0.809899
vt 0.893013 0.859280
vt 0.820174 0.908661
vt 0.893013 0.958041
vt 0.893013 0.908661
vt 0.922484 0.908660
vt 0.995323 0.859280
vt 0.995323 0.908660
vt 0.790703 0.908661
vt 0.668850 0.601598
vt 0.627314 0.573439
vt 0.668850 0.573439
vt 0.627314 0.629757
vt 0.627314 0.601598
vt 0.668850 0.629757
vt 0.627314 0.657916
vt 0.685655 0.629757
vt 0.727191 0.601598
vt 0.727191 0.629757
vt 0.610509 0.601598
vt 0.114767 0.168293
vt 0.095916 0.220936
vt 0.095916 0.168293
vt 0.143042 0.168293
vt 0.114767 0.220936
vt 0.161893 0.168293
vt 0.143042 0.220936
vt 0.114767 0.136707
vt 0.143042 0.084063
vt 0.143042 0.136707
vt 0.143042 0.252523
vt 0.679363 0.612195
vt 0.705410 0.568551
vt 0.705410 0.612195
vt 0.653316 0.612195
vt 0.679363 0.568551
vt 0.627270 0.568551
vt 0.653316 0.568551
vt 0.679363 0.655839
vt 0.653316 0.699483
vt 0.653316 0.655839
vt 0.653316 0.524907
vt 0.922484 0.859280
vt 0.179732 0.161336
vt 0.180835 0.129543
vt 0.072230 0.154563
vt 0.071639 0.184901
vt 0.685655 0.601598
vt 0.068267 0.117149
vt 0.195135 0.195141
vt 0.066721 0.124568
vt 0.067218 0.232901
vt 0.953247 0.803206
vt 0.953247 0.925710
vt 0.808410 0.884875
vt 0.552321 0.652150
vt 0.773734 0.598717
vt 0.047991 0.148506
vt 0.162963 0.095902
vt 0.197943 0.161440
vt 0.089154 0.216230
vt 0.820174 0.958041
vt 0.790703 0.859280
vt 0.668850 0.657916
vt 0.610509 0.629757
vt 0.161893 0.220936
vt 0.114767 0.084063
vt 0.114767 0.252523
vt 0.627270 0.612195
vt 0.679363 0.699483
vt 0.679363 0.524907
vn -0.0246 -0.9990 0.0387
vn -0.0051 0.0388 0.9992
vn 0.9997 -0.0243 0.0060
vn 0.0051 -0.0388 -0.9992
vn -0.9997 0.0243 -0.0060
vn -0.0005 -0.9980 -0.0635
vn 0.0158 -0.0635 0.9979
vn 0.9999 0.0005 -0.0158
vn -0.0158 0.0635 -0.9979
vn -0.9999 -0.0005 0.0158
vn -0.9997 0.0243 -0.0059
vn 0.0053 -0.0212 -0.9998
vn -0.0054 0.0213 0.9998
vn 0.0244 0.9995 -0.0212
vn -0.9999 -0.0006 0.0156
vn -0.0156 0.0038 -0.9999
vn 0.9999 0.0006 -0.0156
vn 0.0157 -0.0041 0.9999
vn -0.0006 1.0000 0.0038
vn -0.0263 -0.9994 0.0244
vn 0.0246 0.9990 -0.0387
vn 0.0005 0.9980 0.0635
vn 0.0003 -0.9999 -0.0154
vn -0.0005 -0.9969 0.0785
vn 0.0107 0.0785 0.9969
vn -0.9999 0.0014 0.0106
vn -0.0107 -0.0785 -0.9969
vn 0.9999 -0.0014 -0.0106
vn 0.0008 -0.9994 -0.0333
vn -0.0230 -0.0334 0.9992
vn -0.9997 -0.0001 -0.0230
vn 0.0230 0.0334 -0.9992
vn 0.9997 0.0001 0.0230
vn 0.9999 -0.0019 -0.0100
vn -0.0098 0.0846 -0.9964
vn -0.9999 0.0019 0.0101
vn 0.0098 -0.0850 0.9963
vn 0.0027 0.9964 0.0845
vn 0.9997 -0.0001 0.0228
vn 0.0227 -0.0354 -0.9991
vn -0.9997 0.0001 -0.0228
vn -0.0227 0.0350 0.9991
vn 0.0009 0.9994 -0.0354
vn 1.0000 0.0000 0.0000
vn 0.0000 0.0000 -1.0000
vn -1.0000 0.0000 0.0000
vn 0.0000 0.0000 1.0000
vn 0.0000 -1.0000 0.0000
vn 0.0000 1.0000 0.0000
vn 1.0000 0.0032 -0.0067
vn -0.0067 0.0110 -0.9999
vn -1.0000 -0.0032 0.0067
vn 0.0067 -0.0110 0.9999
vn 0.0031 -0.9999 -0.0111
vn -0.0031 0.9999 0.0111
vn -0.0123 -0.9966 -0.0818
vn 0.0005 0.9969 -0.0785
vn -0.0008 0.9994 0.0333
vn -0.0007 -0.9998 0.0218
vn 0.0054 -0.0213 -0.9998
vn 0.9997 -0.0243 0.0059
vn 0.0156 -0.0041 0.9999
vn -0.0234 -0.9995 0.0215
vn 0.0005 -0.9999 -0.0156
vn -0.0005 -0.9969 0.0786
vn -0.0097 0.0846 -0.9964
vn -0.9999 0.0019 0.0100
vn 0.0087 -0.0846 0.9964
vn 0.0228 -0.0354 -0.9991
vn -0.0228 0.0351 0.9991
vn 0.0151 -0.9984 -0.0549
vn 0.0005 0.9969 -0.0786
vn -0.0005 -0.9998 0.0220
s off
f 4/1/1 1/2/1 2/3/1
f 8/4/2 1/2/2 3/5/2
f 4/1/3 8/6/3 3/7/3
f 6/8/4 4/1/4 2/3/4
f 5/9/5 2/3/5 1/10/5
f 10/11/6 11/12/6 9/13/6
f 16/14/7 9/13/7 11/12/7
f 15/15/8 11/16/8 12/17/8
f 10/11/9 15/15/9 12/17/9
f 9/18/10 14/19/10 10/11/10
f 25/20/11 18/21/11 26/22/11
f 26/22/12 20/23/12 27/24/12
f 20/23/3 28/25/3 27/24/3
f 28/26/13 17/27/13 25/28/13
f 20/23/14 17/29/14 19/30/14
f 21/31/15 30/32/15 29/33/15
f 30/32/16 24/34/16 31/35/16
f 31/35/17 23/36/17 32/37/17
f 32/38/18 21/39/18 29/40/18
f 22/41/19 23/42/19 24/34/19
f 28/26/20 26/22/20 27/24/20
f 7/43/21 5/44/21 8/45/21
f 16/46/22 14/19/22 13/47/22
f 32/38/23 30/32/23 31/35/23
f 33/48/24 36/49/24 34/50/24
f 33/48/25 40/51/25 35/52/25
f 35/53/26 39/54/26 36/49/26
f 36/49/27 38/55/27 34/50/27
f 33/56/28 38/55/28 37/57/28
f 41/58/29 44/59/29 42/60/29
f 41/58/30 48/61/30 43/62/30
f 43/63/31 47/64/31 44/59/31
f 44/59/32 46/65/32 42/60/32
f 41/66/33 46/65/33 45/67/33
f 57/68/34 50/69/34 49/70/34
f 58/71/35 52/72/35 50/69/35
f 60/73/36 52/72/36 59/74/36
f 60/75/37 49/76/37 51/77/37
f 51/78/38 50/69/38 52/72/38
f 62/79/39 53/80/39 61/81/39
f 62/79/40 56/82/40 54/83/40
f 63/84/41 55/85/41 56/82/41
f 64/86/42 53/87/42 55/88/42
f 56/82/43 53/89/43 54/83/43
f 67/90/44 66/91/44 65/92/44
f 71/93/45 68/94/45 67/90/45
f 69/95/46 72/96/46 71/93/46
f 65/97/47 70/98/47 69/99/47
f 65/97/48 71/93/48 67/90/48
f 70/100/49 68/94/49 72/96/49
f 75/101/50 74/102/50 73/103/50
f 79/104/51 76/105/51 75/101/51
f 79/104/52 78/106/52 80/107/52
f 73/108/53 78/109/53 77/110/53
f 73/108/54 79/104/54 75/101/54
f 78/111/55 76/105/55 80/107/55
f 60/75/56 58/71/56 57/112/56
f 37/113/57 39/54/57 40/114/57
f 45/115/58 47/64/58 48/116/58
f 64/86/59 62/79/59 61/117/59
f 4/1/1 3/5/1 1/2/1
f 8/4/2 5/118/2 1/2/2
f 4/1/3 7/43/3 8/6/3
f 6/8/4 7/43/4 4/1/4
f 5/9/5 6/8/5 2/3/5
f 10/11/6 12/17/6 11/12/6
f 16/14/7 13/119/7 9/13/7
f 15/15/8 16/120/8 11/16/8
f 10/11/9 14/19/9 15/15/9
f 9/18/10 13/121/10 14/19/10
f 25/20/11 17/122/11 18/21/11
f 26/22/60 18/21/60 20/23/60
f 20/23/61 19/123/61 28/25/61
f 28/26/13 19/124/13 17/27/13
f 20/23/14 18/21/14 17/29/14
f 21/31/15 22/41/15 30/32/15
f 30/32/16 22/41/16 24/34/16
f 31/35/17 24/34/17 23/36/17
f 32/38/62 23/125/62 21/39/62
f 22/41/19 21/126/19 23/42/19
f 28/26/63 25/28/63 26/22/63
f 7/43/21 6/8/21 5/44/21
f 16/46/22 15/15/22 14/19/22
f 32/38/64 29/40/64 30/32/64
f 33/48/65 35/52/65 36/49/65
f 33/48/25 37/127/25 40/51/25
f 35/53/26 40/128/26 39/54/26
f 36/49/27 39/54/27 38/55/27
f 33/56/28 34/50/28 38/55/28
f 41/58/29 43/62/29 44/59/29
f 41/58/30 45/129/30 48/61/30
f 43/63/31 48/130/31 47/64/31
f 44/59/32 47/64/32 46/65/32
f 41/66/33 42/60/33 46/65/33
f 57/68/34 58/71/34 50/69/34
f 58/71/66 59/74/66 52/72/66
f 60/73/67 51/131/67 52/72/67
f 60/75/68 57/112/68 49/76/68
f 51/78/38 49/132/38 50/69/38
f 62/79/39 54/83/39 53/80/39
f 62/79/69 63/84/69 56/82/69
f 63/84/41 64/133/41 55/85/41
f 64/86/70 61/117/70 53/87/70
f 56/82/43 55/134/43 53/89/43
f 67/90/44 68/94/44 66/91/44
f 71/93/45 72/96/45 68/94/45
f 69/95/46 70/135/46 72/96/46
f 65/97/47 66/136/47 70/98/47
f 65/97/48 69/99/48 71/93/48
f 70/100/49 66/137/49 68/94/49
f 75/101/50 76/105/50 74/102/50
f 79/104/51 80/107/51 76/105/51
f 79/104/52 77/138/52 78/106/52
f 73/108/53 74/139/53 78/109/53
f 73/108/54 77/110/54 79/104/54
f 78/111/55 74/140/55 76/105/55
f 60/75/71 59/74/71 58/71/71
f 37/113/72 38/55/72 39/54/72
f 45/115/58 46/65/58 47/64/58
f 64/86/73 63/84/73 62/79/73
