# Blender v2.79 (sub 0) OBJ File: '3DObjectDecoderObjects.blend'
# www.blender.org
o Cube.005_Cube.008
v 0.649047 -0.102964 0.263808
v 0.649116 -0.212909 -0.125561
v 1.053491 -0.113541 0.266867
v 1.053560 -0.223487 -0.122502
v 0.676260 0.859050 -0.007829
v 0.676329 0.749105 -0.397199
v 1.080773 0.738528 -0.394140
v 1.080704 0.848473 -0.004771
v 0.078356 -1.713274 0.111284
v 0.071794 -1.598773 -0.276717
v 0.482893 -1.713167 0.104473
v 0.476331 -1.598665 -0.283528
v 0.082865 -0.754153 0.394252
v 0.076303 -0.639651 0.006251
v 0.480840 -0.639544 -0.000561
v 0.487402 -0.754046 0.387440
v 0.697223 1.742488 0.212960
v 0.701736 1.834717 -0.180956
v 1.101689 1.732545 0.215265
v 1.106201 1.824774 -0.178651
v 0.077999 0.329093 0.188787
v 0.072265 0.237459 -0.205255
v 0.482548 0.329752 0.182746
v 0.476813 0.238118 -0.211297
v 0.674596 0.769127 -0.015195
v 0.679040 0.858094 -0.409386
v 1.083045 0.826355 -0.408550
v 1.079329 0.771173 -0.013567
v 0.083044 -0.670288 0.413091
v 0.077166 -0.721221 0.021335
v 0.481716 -0.721054 0.015214
v 0.487586 -0.669416 0.406729
v -0.698412 -0.091154 0.204387
v -0.702929 -0.199433 -0.185417
v -1.102980 -0.090666 0.208939
v -1.107498 -0.198945 -0.180865
v -0.700262 0.872363 -0.063237
v -0.704779 0.764084 -0.453041
v -1.109347 0.764572 -0.448488
v -1.104830 0.872851 -0.058684
v -0.079657 -1.706991 0.183654
v -0.070305 -1.606077 -0.208042
v -0.484135 -1.707133 0.173961
v -0.474783 -1.606218 -0.217735
v -0.085972 -0.738594 0.432995
v -0.076620 -0.637680 0.041298
v -0.481099 -0.637822 0.031605
v -0.490450 -0.738736 0.423301
v -0.695680 1.723152 0.213477
v -0.698908 1.839810 -0.173914
v -1.100255 1.724374 0.217216
v -1.103483 1.841031 -0.170175
v -0.079317 0.336267 0.186432
v -0.070810 0.229567 -0.203747
v -0.483812 0.336709 0.177493
v -0.475306 0.230009 -0.212686
v -0.701235 0.765627 -0.074819
v -0.704488 0.878669 -0.462636
v -1.109231 0.855712 -0.461335
v -1.105739 0.780203 -0.071391
v -0.086265 -0.653932 0.448858
v -0.077620 -0.719599 0.059479
v -0.482115 -0.719655 0.050478
v -0.490751 -0.653287 0.439589
v 0.630000 0.385336 0.420000
v 0.630000 1.785336 0.420000
v 0.630000 0.385336 -0.420000
v 0.630000 1.785336 -0.420000
v -0.630000 0.385336 0.420000
v -0.630000 1.785336 0.420000
v -0.630000 0.385336 -0.420000
v -0.630000 1.785336 -0.420000
v 0.326686 1.852638 0.276367
v 0.303808 2.444074 0.374754
v 0.265277 1.948267 -0.312771
v 0.242399 2.539703 -0.214384
v -0.269725 1.820105 0.333254
v -0.292602 2.411541 0.431641
v -0.331134 1.915734 -0.255885
v -0.354011 2.507170 -0.157498
vt 0.151712 0.164304
vt 0.128453 0.121671
vt 0.152804 0.123501
vt 0.127361 0.162474
vt 0.068267 0.117149
vt 0.211899 0.168826
vt 0.150620 0.205107
vt 0.214083 0.087220
vt 0.153896 0.082698
vt 0.120318 0.196104
vt 0.141703 0.159716
vt 0.141869 0.195827
vt 0.194969 0.159030
vt 0.066887 0.160679
vt 0.119987 0.123882
vt 0.120152 0.159993
vt 0.120483 0.232215
vt 0.067052 0.196790
vt 0.893013 0.803206
vt 0.953247 0.844041
vt 0.893013 0.844041
vt 0.953247 0.884875
vt 0.893013 0.884875
vt 0.893013 0.925710
vt 0.868643 0.884875
vt 0.808410 0.844041
vt 0.868643 0.844041
vt 0.977617 0.844041
vt 0.977617 0.884875
vt 0.741845 0.545283
vt 0.663028 0.598717
vt 0.663028 0.545283
vt 0.741845 0.652150
vt 0.663028 0.652150
vt 0.741845 0.705584
vt 0.663028 0.705584
vt 0.631139 0.652150
vt 0.552321 0.598717
vt 0.631139 0.598717
vt 0.741845 0.598717
vt 0.773734 0.652150
vt 0.237342 0.129853
vt 0.236250 0.170656
vt 0.045336 0.160957
vt 0.045501 0.197068
vt 0.094887 0.153073
vt 0.114964 0.123128
vt 0.113861 0.154921
vt 0.049093 0.116713
vt 0.095990 0.121280
vt 0.162963 0.095902
vt 0.161861 0.127695
vt 0.160758 0.159488
vt 0.159655 0.191281
vt 0.112759 0.186714
vt 0.153193 0.158992
vt 0.134495 0.188340
vt 0.135087 0.158002
vt 0.197352 0.191779
vt 0.152601 0.189330
vt 0.089154 0.216230
vt 0.089745 0.185892
vt 0.090336 0.155553
vt 0.090927 0.125215
vt 0.135678 0.127663
vt 0.893013 0.809899
vt 0.820174 0.859280
vt 0.820174 0.809899
vt 0.893013 0.859280
vt 0.820174 0.908661
vt 0.893013 0.958041
vt 0.893013 0.908661
vt 0.922484 0.908660
vt 0.995323 0.859280
vt 0.995323 0.908660
vt 0.790703 0.908661
vt 0.668850 0.601598
vt 0.627314 0.573439
vt 0.668850 0.573439
vt 0.627314 0.629757
vt 0.627314 0.601598
vt 0.668850 0.629757
vt 0.627314 0.657916
vt 0.685655 0.629757
vt 0.727191 0.601598
vt 0.727191 0.629757
vt 0.610509 0.629757
vt 0.114767 0.168293
vt 0.095916 0.220936
vt 0.095916 0.168293
vt 0.143042 0.168293
vt 0.114767 0.220936
vt 0.161893 0.168293
vt 0.143042 0.220936
vt 0.114767 0.136707
vt 0.143042 0.084063
vt 0.143042 0.136707
vt 0.143042 0.252523
vt 0.679363 0.612195
vt 0.705410 0.568551
vt 0.705410 0.612195
vt 0.653316 0.612195
vt 0.679363 0.568551
vt 0.627270 0.568551
vt 0.653316 0.568551
vt 0.679363 0.655839
vt 0.653316 0.699483
vt 0.653316 0.655839
vt 0.679363 0.524907
vt 0.922484 0.859280
vt 0.179732 0.161336
vt 0.180835 0.129543
vt 0.072230 0.154563
vt 0.071639 0.184901
vt 0.685655 0.601598
vt 0.067175 0.157952
vt 0.210807 0.209629
vt 0.212991 0.128023
vt 0.195135 0.195141
vt 0.066721 0.124568
vt 0.067218 0.232901
vt 0.953247 0.803206
vt 0.953247 0.925710
vt 0.808410 0.884875
vt 0.552321 0.652150
vt 0.773734 0.598717
vt 0.047991 0.148506
vt 0.116067 0.091335
vt 0.197943 0.161440
vt 0.133904 0.218678
vt 0.820174 0.958041
vt 0.790703 0.859280
vt 0.668850 0.657916
vt 0.610509 0.601598
vt 0.161893 0.220936
vt 0.114767 0.084063
vt 0.114767 0.252523
vt 0.627270 0.612195
vt 0.679363 0.699483
vt 0.653316 0.524907
vn -0.0272 -0.9620 0.2716
vn -0.0002 0.2717 0.9624
vn 0.9996 -0.0261 0.0076
vn 0.0002 -0.2717 -0.9624
vn -0.9996 0.0261 -0.0076
vn -0.0045 -0.9591 -0.2830
vn 0.0162 -0.2830 0.9590
vn 0.9999 0.0003 -0.0168
vn -0.0162 0.2830 -0.9590
vn -0.9999 -0.0003 0.0168
vn -0.9997 0.0246 -0.0057
vn 0.0196 0.2239 -0.9744
vn 0.9997 -0.0246 0.0060
vn -0.0028 -0.2282 0.9736
vn 0.0226 0.9734 0.2282
vn -0.9999 -0.0016 0.0152
vn -0.0146 -0.2299 -0.9731
vn 0.9999 0.0016 -0.0152
vn 0.0149 0.2190 0.9756
vn -0.0050 0.9740 -0.2264
vn -0.0773 -0.9873 -0.1387
vn 0.0272 0.9620 -0.2716
vn 0.0045 0.9591 0.2830
vn 0.0024 -0.9914 0.1307
vn 0.0018 -0.9635 0.2676
vn 0.0112 0.2676 0.9635
vn -0.9999 0.0012 0.0113
vn -0.0112 -0.2676 -0.9635
vn 0.9999 -0.0012 -0.0113
vn 0.0063 -0.9684 -0.2493
vn -0.0231 -0.2494 0.9681
vn -0.9997 -0.0004 -0.0240
vn 0.0231 0.2494 -0.9681
vn 0.9997 0.0004 0.0240
vn 1.0000 -0.0030 -0.0092
vn -0.0080 0.2877 -0.9577
vn -0.9999 0.0030 0.0095
vn 0.0080 -0.2924 0.9563
vn 0.0056 0.9575 0.2883
vn 0.9997 -0.0011 0.0224
vn 0.0210 -0.2673 -0.9634
vn -0.9998 0.0010 -0.0221
vn -0.0211 0.2560 0.9664
vn 0.0069 0.9646 -0.2636
vn 1.0000 0.0000 0.0000
vn 0.0000 0.0000 -1.0000
vn -1.0000 0.0000 0.0000
vn 0.0000 0.0000 1.0000
vn 0.0000 -1.0000 0.0000
vn 0.0000 1.0000 0.0000
vn 0.9940 0.0542 -0.0948
vn -0.1023 0.1594 -0.9819
vn -0.9940 -0.0542 0.0948
vn 0.1023 -0.1594 0.9819
vn 0.0381 -0.9857 -0.1640
vn -0.0381 0.9857 0.1640
vn -0.0369 -0.9595 -0.2794
vn -0.0018 0.9635 -0.2676
vn -0.0063 0.9684 0.2493
vn -0.0054 -0.9861 0.1662
vn 0.0111 0.2275 -0.9737
vn 0.9997 -0.0246 0.0057
vn -0.0112 -0.2313 0.9728
vn -0.9999 -0.0016 0.0149
vn -0.0142 -0.2301 -0.9731
vn 0.9999 0.0016 -0.0149
vn 0.0142 0.2188 0.9757
vn 0.0058 -0.9755 -0.2201
vn 0.0042 -0.9917 0.1289
vn 1.0000 -0.0030 -0.0093
vn -0.0192 0.2834 -0.9588
vn -1.0000 0.0030 0.0092
vn -0.0023 -0.2883 0.9575
vn 0.9998 -0.0010 0.0221
vn 0.0215 -0.2671 -0.9634
vn -0.9997 0.0011 -0.0224
vn -0.0217 0.2563 0.9664
vn 0.0550 -0.9802 -0.1903
vn -0.0036 -0.9858 0.1681
s off
f 4/1/1 1/2/1 2/3/1
f 3/4/2 5/5/2 1/2/2
f 7/6/3 3/7/3 4/1/3
f 2/3/4 7/6/4 4/1/4
f 5/8/5 2/3/5 1/9/5
f 10/10/6 11/11/6 9/12/6
f 16/13/7 9/12/7 11/11/7
f 15/14/8 11/15/8 12/16/8
f 10/10/9 15/14/9 12/16/9
f 9/17/10 14/18/10 10/10/10
f 25/19/11 18/20/11 26/21/11
f 26/21/12 20/22/12 27/23/12
f 20/22/13 28/24/13 27/23/13
f 28/25/14 17/26/14 25/27/14
f 20/22/15 17/28/15 19/29/15
f 21/30/16 30/31/16 29/32/16
f 30/31/17 24/33/17 31/34/17
f 31/34/18 23/35/18 32/36/18
f 32/37/19 21/38/19 29/39/19
f 22/40/20 23/41/20 24/33/20
f 28/25/21 26/21/21 27/23/21
f 7/6/22 5/42/22 8/43/22
f 16/44/23 14/18/23 13/45/23
f 32/37/24 30/31/24 31/34/24
f 33/46/25 36/47/25 34/48/25
f 33/46/26 40/49/26 35/50/26
f 36/47/27 40/51/27 39/52/27
f 36/47/28 38/53/28 34/48/28
f 34/48/29 37/54/29 33/55/29
f 41/56/30 44/57/30 42/58/30
f 41/56/31 48/59/31 43/60/31
f 44/57/32 48/61/32 47/62/32
f 44/57/33 46/63/33 42/58/33
f 42/58/34 45/64/34 41/65/34
f 57/66/35 50/67/35 49/68/35
f 58/69/36 52/70/36 50/67/36
f 60/71/37 52/70/37 59/72/37
f 60/73/38 49/74/38 51/75/38
f 51/76/39 50/67/39 52/70/39
f 62/77/40 53/78/40 61/79/40
f 62/77/41 56/80/41 54/81/41
f 63/82/42 55/83/42 56/80/42
f 64/84/43 53/85/43 55/86/43
f 55/87/44 54/81/44 56/80/44
f 67/88/45 66/89/45 65/90/45
f 71/91/46 68/92/46 67/88/46
f 69/93/47 72/94/47 71/91/47
f 65/95/48 70/96/48 69/97/48
f 65/95/49 71/91/49 67/88/49
f 70/98/50 68/92/50 72/94/50
f 75/99/51 74/100/51 73/101/51
f 79/102/52 76/103/52 75/99/52
f 79/102/53 78/104/53 80/105/53
f 73/106/54 78/107/54 77/108/54
f 73/106/55 79/102/55 75/99/55
f 80/105/56 74/109/56 76/103/56
f 60/73/57 58/69/57 57/110/57
f 37/111/58 39/52/58 40/112/58
f 45/113/59 47/62/59 48/114/59
f 64/84/60 62/77/60 61/115/60
f 4/1/1 3/4/1 1/2/1
f 3/4/2 8/116/2 5/5/2
f 7/6/3 8/117/3 3/7/3
f 2/3/4 6/118/4 7/6/4
f 5/8/5 6/118/5 2/3/5
f 10/10/6 12/16/6 11/11/6
f 16/13/7 13/119/7 9/12/7
f 15/14/8 16/120/8 11/15/8
f 10/10/9 14/18/9 15/14/9
f 9/17/10 13/121/10 14/18/10
f 25/19/11 17/122/11 18/20/11
f 26/21/61 18/20/61 20/22/61
f 20/22/62 19/123/62 28/24/62
f 28/25/63 19/124/63 17/26/63
f 20/22/15 18/20/15 17/28/15
f 21/30/64 22/40/64 30/31/64
f 30/31/65 22/40/65 24/33/65
f 31/34/66 24/33/66 23/35/66
f 32/37/67 23/125/67 21/38/67
f 22/40/20 21/126/20 23/41/20
f 28/25/68 25/27/68 26/21/68
f 7/6/22 6/118/22 5/42/22
f 16/44/23 15/14/23 14/18/23
f 32/37/69 29/39/69 30/31/69
f 33/46/25 35/50/25 36/47/25
f 33/46/26 37/127/26 40/49/26
f 36/47/27 35/128/27 40/51/27
f 36/47/28 39/52/28 38/53/28
f 34/48/29 38/53/29 37/54/29
f 41/56/30 43/60/30 44/57/30
f 41/56/31 45/129/31 48/59/31
f 44/57/32 43/130/32 48/61/32
f 44/57/33 47/62/33 46/63/33
f 42/58/34 46/63/34 45/64/34
f 57/66/70 58/69/70 50/67/70
f 58/69/71 59/72/71 52/70/71
f 60/71/72 51/131/72 52/70/72
f 60/73/73 57/110/73 49/74/73
f 51/76/39 49/132/39 50/67/39
f 62/77/74 54/81/74 53/78/74
f 62/77/75 63/82/75 56/80/75
f 63/82/76 64/133/76 55/83/76
f 64/84/77 61/115/77 53/85/77
f 55/87/44 53/134/44 54/81/44
f 67/88/45 68/92/45 66/89/45
f 71/91/46 72/94/46 68/92/46
f 69/93/47 70/135/47 72/94/47
f 65/95/48 66/136/48 70/96/48
f 65/95/49 69/97/49 71/91/49
f 70/98/50 66/137/50 68/92/50
f 75/99/51 76/103/51 74/100/51
f 79/102/52 80/105/52 76/103/52
f 79/102/53 77/138/53 78/104/53
f 73/106/54 74/139/54 78/107/54
f 73/106/55 77/108/55 79/102/55
f 80/105/56 78/140/56 74/109/56
f 60/73/78 59/72/78 58/69/78
f 37/111/58 38/53/58 39/52/58
f 45/113/59 46/63/59 47/62/59
f 64/84/79 63/82/79 62/77/79
