# Blender v2.79 (sub 0) OBJ File: '3DObjectDecoderObjects.blend'
# www.blender.org
o Cube.005_Cube.008
v 0.660850 -0.574490 0.247032
v 0.663438 -0.579646 -0.157521
v 1.065358 -0.582382 0.249721
v 1.067946 -0.587538 -0.154832
v 0.680438 0.425238 0.234415
v 0.683026 0.420082 -0.170138
v 1.087534 0.412190 -0.167449
v 1.084946 0.417346 0.237104
v 0.078850 -2.083132 0.153839
v 0.071901 -2.073371 -0.250561
v 0.483385 -2.082932 0.146897
v 0.476435 -2.073172 -0.257503
v 0.078772 -1.083421 0.177937
v 0.071823 -1.073661 -0.226462
v 0.476358 -1.073461 -0.233404
v 0.483307 -1.083222 0.170996
v 0.701613 1.492222 0.191075
v 0.704039 1.476962 -0.213225
v 1.106120 1.484298 0.193801
v 1.108546 1.469038 -0.210498
v 0.078884 -0.026570 0.212955
v 0.071923 -0.013530 -0.191353
v 0.483419 -0.026379 0.206001
v 0.476457 -0.013340 -0.198307
v 0.681789 0.493125 0.228665
v 0.684215 0.478036 -0.175348
v 1.088722 0.471247 -0.170752
v 1.086283 0.484612 0.231794
v 0.078784 -1.025626 0.180074
v 0.071836 -1.013249 -0.223719
v 0.476371 -1.013050 -0.230668
v 0.483319 -1.025438 0.173138
v -0.698495 -0.555359 0.192144
v -0.702778 -0.577710 -0.211823
v -1.103066 -0.554781 0.196401
v -1.107350 -0.577132 -0.207565
v -0.697649 0.443115 0.136870
v -0.701932 0.420763 -0.267097
v -1.106504 0.421342 -0.262839
v -1.102220 0.443693 0.141128
v -0.080036 -2.078104 0.206912
v -0.070780 -2.078132 -0.197557
v -0.484525 -2.078104 0.197655
v -0.475269 -2.078133 -0.206814
v -0.080035 -1.078102 0.206804
v -0.070779 -1.078131 -0.197664
v -0.475267 -1.078132 -0.206921
v -0.484523 -1.078103 0.197548
v -0.695081 1.467733 0.215004
v -0.699119 1.491820 -0.188865
v -1.099654 1.468461 0.219092
v -1.103692 1.492548 -0.184777
v -0.080034 -0.019827 0.206732
v -0.070778 -0.019849 -0.197738
v -0.484523 -0.019827 0.197476
v -0.475267 -0.019849 -0.206994
v -0.697479 0.469507 0.155502
v -0.701539 0.492850 -0.249702
v -1.106256 0.488601 -0.254338
v -1.102062 0.472996 0.157819
v -0.080035 -1.019824 0.206802
v -0.070779 -1.019847 -0.197666
v -0.475267 -1.019848 -0.206922
v -0.484523 -1.019824 0.197545
v 0.630000 0.080618 0.420000
v 0.630000 1.480618 0.420000
v 0.630000 0.080618 -0.420000
v 0.630000 1.480618 -0.420000
v -0.630000 0.080618 0.420000
v -0.630000 1.480618 0.420000
v -0.630000 0.080618 -0.420000
v -0.630000 1.480618 -0.420000
v 0.300000 1.580617 0.300000
v 0.300000 2.180617 0.300000
v 0.300000 1.580617 -0.300000
v 0.300000 2.180617 -0.300000
v -0.300000 1.580617 0.300000
v -0.300000 2.180617 0.300000
v -0.300000 1.580617 -0.300000
v -0.300000 2.180617 -0.300000
vt 0.151712 0.164304
vt 0.128453 0.121671
vt 0.152804 0.123501
vt 0.067175 0.157952
vt 0.127361 0.162474
vt 0.210807 0.209629
vt 0.150620 0.205107
vt 0.211899 0.168826
vt 0.214083 0.087220
vt 0.153896 0.082698
vt 0.120152 0.159993
vt 0.141869 0.195827
vt 0.120318 0.196104
vt 0.141703 0.159716
vt 0.195135 0.195141
vt 0.066721 0.124568
vt 0.119987 0.123882
vt 0.067052 0.196790
vt 0.067218 0.232901
vt 0.120483 0.232215
vt 0.953247 0.803206
vt 0.893013 0.844041
vt 0.893013 0.803206
vt 0.953247 0.844041
vt 0.893013 0.884875
vt 0.953247 0.925710
vt 0.893013 0.925710
vt 0.808410 0.884875
vt 0.868643 0.844041
vt 0.868643 0.884875
vt 0.953247 0.884875
vt 0.977617 0.844041
vt 0.977617 0.884875
vt 0.663028 0.545283
vt 0.741845 0.598717
vt 0.663028 0.598717
vt 0.663028 0.652150
vt 0.741845 0.652150
vt 0.663028 0.705584
vt 0.631139 0.652150
vt 0.552321 0.598717
vt 0.631139 0.598717
vt 0.773734 0.598717
vt 0.773734 0.652150
vt 0.237342 0.129853
vt 0.236250 0.170656
vt 0.066887 0.160679
vt 0.045501 0.197068
vt 0.045336 0.160957
vt 0.113861 0.154921
vt 0.095990 0.121280
vt 0.114964 0.123128
vt 0.094887 0.153073
vt 0.049093 0.116713
vt 0.162963 0.095902
vt 0.161861 0.127695
vt 0.160758 0.159488
vt 0.159655 0.191281
vt 0.112759 0.186714
vt 0.135087 0.158002
vt 0.152601 0.189330
vt 0.134495 0.188340
vt 0.197943 0.161440
vt 0.197352 0.191779
vt 0.089154 0.216230
vt 0.089745 0.185892
vt 0.090336 0.155553
vt 0.090927 0.125215
vt 0.135678 0.127663
vt 0.893013 0.809899
vt 0.820174 0.859280
vt 0.820174 0.809899
vt 0.893013 0.859280
vt 0.820174 0.908661
vt 0.893013 0.958041
vt 0.893013 0.908661
vt 0.922484 0.908660
vt 0.995323 0.859280
vt 0.995323 0.908660
vt 0.790703 0.908661
vt 0.668850 0.601598
vt 0.627314 0.573439
vt 0.668850 0.573439
vt 0.668850 0.629757
vt 0.627314 0.601598
vt 0.627314 0.657916
vt 0.627314 0.629757
vt 0.685655 0.629757
vt 0.727191 0.601598
vt 0.727191 0.629757
vt 0.610509 0.629757
vt 0.114767 0.168293
vt 0.095916 0.220936
vt 0.095916 0.168293
vt 0.143042 0.168293
vt 0.114767 0.220936
vt 0.161893 0.168293
vt 0.143042 0.220936
vt 0.114767 0.136707
vt 0.143042 0.084063
vt 0.143042 0.136707
vt 0.143042 0.252523
vt 0.679363 0.612195
vt 0.705410 0.568551
vt 0.705410 0.612195
vt 0.653316 0.612195
vt 0.679363 0.568551
vt 0.627270 0.612195
vt 0.653316 0.568551
vt 0.679363 0.655839
vt 0.653316 0.699483
vt 0.653316 0.655839
vt 0.653316 0.524907
vt 0.922484 0.859280
vt 0.179732 0.161336
vt 0.180835 0.129543
vt 0.071639 0.184901
vt 0.685655 0.601598
vt 0.068267 0.117149
vt 0.212991 0.128023
vt 0.194969 0.159030
vt 0.808410 0.844041
vt 0.741845 0.545283
vt 0.741845 0.705584
vt 0.552321 0.652150
vt 0.047991 0.148506
vt 0.116067 0.091335
vt 0.153193 0.158992
vt 0.133904 0.218678
vt 0.820174 0.958041
vt 0.790703 0.859280
vt 0.668850 0.657916
vt 0.610509 0.601598
vt 0.161893 0.220936
vt 0.114767 0.084063
vt 0.114767 0.252523
vt 0.627270 0.568551
vt 0.679363 0.699483
vt 0.679363 0.524907
vt 0.072230 0.154563
vn -0.0196 -0.9997 0.0126
vn -0.0064 0.0127 0.9999
vn 0.9998 -0.0195 0.0066
vn 0.0064 -0.0127 -0.9999
vn -0.9998 0.0195 -0.0066
vn 0.0001 -0.9997 -0.0241
vn 0.0172 -0.0241 0.9996
vn 0.9999 0.0005 -0.0172
vn -0.0172 0.0241 -0.9996
vn -0.9999 -0.0005 0.0172
vn -0.9998 0.0196 -0.0067
vn 0.0107 -0.0381 -0.9992
vn 0.9998 -0.0196 0.0067
vn -0.0069 0.0381 0.9992
vn 0.0198 0.9991 -0.0376
vn -0.0172 0.0324 -0.9993
vn 0.0171 -0.0329 0.9993
vn 0.0001 0.9995 0.0322
vn -0.0213 -0.9992 0.0330
vn 0.0196 0.9997 -0.0126
vn -0.0001 0.9997 0.0241
vn -0.0001 -0.9995 -0.0307
vn -0.0008 -0.9985 0.0553
vn 0.0106 0.0553 0.9984
vn -0.9999 0.0014 0.0105
vn -0.0106 -0.0553 -0.9984
vn 0.9999 -0.0014 -0.0105
vn -0.0000 -1.0000 0.0001
vn -0.0229 0.0001 0.9997
vn -0.9997 -0.0000 -0.0229
vn 0.0229 -0.0001 -0.9997
vn 0.9997 0.0000 0.0229
vn 0.9999 -0.0018 -0.0101
vn -0.0100 0.0608 -0.9981
vn -0.9999 0.0018 0.0102
vn 0.0100 -0.0615 0.9981
vn 0.0024 0.9982 0.0595
vn 0.0000 1.0000 -0.0001
vn 1.0000 0.0000 0.0000
vn 0.0000 0.0000 -1.0000
vn -1.0000 0.0000 0.0000
vn 0.0000 0.0000 1.0000
vn 0.0000 -1.0000 0.0000
vn 0.0000 1.0000 0.0000
vn -0.0089 -0.9983 -0.0574
vn 0.0008 0.9985 -0.0553
vn 0.0060 -0.0399 -0.9992
vn -0.0060 0.0377 0.9993
vn -0.0172 0.0323 -0.9993
vn 0.0172 -0.0329 0.9993
vn -0.0172 -0.9992 0.0372
vn -0.0000 -0.9995 -0.0306
vn 0.0107 0.0691 -0.9976
vn -0.9999 0.0018 0.0101
vn 0.0052 -0.0595 0.9982
vn 0.0109 -0.9992 -0.0379
s off
f 4/1/1 1/2/1 2/3/1
f 8/4/2 1/2/2 3/5/2
f 4/1/3 8/6/3 3/7/3
f 2/3/4 7/8/4 4/1/4
f 5/9/5 2/3/5 1/10/5
f 12/11/6 9/12/6 10/13/6
f 11/14/7 13/15/7 9/12/7
f 12/11/8 16/16/8 11/17/8
f 14/18/9 12/11/9 10/13/9
f 13/19/10 10/13/10 9/20/10
f 17/21/11 26/22/11 25/23/11
f 18/24/12 27/25/12 26/22/12
f 27/25/13 19/26/13 28/27/13
f 19/28/14 25/29/14 28/30/14
f 20/31/15 17/32/15 19/33/15
f 29/34/10 22/35/10 30/36/10
f 22/35/16 31/37/16 30/36/16
f 24/38/8 32/39/8 31/37/8
f 32/40/17 21/41/17 29/42/17
f 24/38/18 21/43/18 23/44/18
f 25/29/19 27/25/19 28/30/19
f 7/8/20 5/45/20 8/46/20
f 15/47/21 13/48/21 16/49/21
f 29/42/22 31/37/22 32/40/22
f 34/50/23 35/51/23 36/52/23
f 33/53/24 40/54/24 35/51/24
f 36/52/25 40/55/25 39/56/25
f 36/52/26 38/57/26 34/50/26
f 34/50/27 37/58/27 33/59/27
f 42/60/28 43/61/28 44/62/28
f 43/61/29 45/63/29 48/64/29
f 44/62/30 48/65/30 47/66/30
f 44/62/31 46/67/31 42/60/31
f 42/60/32 45/68/32 41/69/32
f 57/70/33 50/71/33 49/72/33
f 58/73/34 52/74/34 50/71/34
f 60/75/35 52/74/35 59/76/35
f 60/77/36 49/78/36 51/79/36
f 51/80/37 50/71/37 52/74/37
f 62/81/32 53/82/32 61/83/32
f 63/84/31 54/85/31 62/81/31
f 63/84/30 55/86/30 56/87/30
f 64/88/29 53/89/29 55/90/29
f 55/91/38 54/85/38 56/87/38
f 67/92/39 66/93/39 65/94/39
f 71/95/40 68/96/40 67/92/40
f 69/97/41 72/98/41 71/95/41
f 65/99/42 70/100/42 69/101/42
f 65/99/43 71/95/43 67/92/43
f 70/102/44 68/96/44 72/98/44
f 75/103/39 74/104/39 73/105/39
f 79/106/40 76/107/40 75/103/40
f 77/108/41 80/109/41 79/106/41
f 73/110/42 78/111/42 77/112/42
f 73/110/43 79/106/43 75/103/43
f 78/113/44 76/107/44 80/109/44
f 60/77/45 58/73/45 57/114/45
f 37/115/46 39/56/46 40/116/46
f 48/117/38 46/67/38 47/66/38
f 64/88/28 62/81/28 61/118/28
f 4/1/1 3/5/1 1/2/1
f 8/4/2 5/119/2 1/2/2
f 4/1/3 7/8/3 8/6/3
f 2/3/4 6/120/4 7/8/4
f 5/9/5 6/120/5 2/3/5
f 12/11/6 11/14/6 9/12/6
f 11/14/7 16/121/7 13/15/7
f 12/11/8 15/47/8 16/16/8
f 14/18/9 15/47/9 12/11/9
f 13/19/10 14/18/10 10/13/10
f 17/21/11 18/24/11 26/22/11
f 18/24/47 20/31/47 27/25/47
f 27/25/13 20/31/13 19/26/13
f 19/28/48 17/122/48 25/29/48
f 20/31/15 18/24/15 17/32/15
f 29/34/10 21/123/10 22/35/10
f 22/35/49 24/38/49 31/37/49
f 24/38/8 23/124/8 32/39/8
f 32/40/50 23/125/50 21/41/50
f 24/38/18 22/35/18 21/43/18
f 25/29/51 26/22/51 27/25/51
f 7/8/20 6/120/20 5/45/20
f 15/47/21 14/18/21 13/48/21
f 29/42/52 30/36/52 31/37/52
f 34/50/23 33/53/23 35/51/23
f 33/53/24 37/126/24 40/54/24
f 36/52/25 35/127/25 40/55/25
f 36/52/26 39/56/26 38/57/26
f 34/50/27 38/57/27 37/58/27
f 42/60/28 41/128/28 43/61/28
f 43/61/29 41/128/29 45/63/29
f 44/62/30 43/129/30 48/65/30
f 44/62/31 47/66/31 46/67/31
f 42/60/32 46/67/32 45/68/32
f 57/70/33 58/73/33 50/71/33
f 58/73/53 59/76/53 52/74/53
f 60/75/54 51/130/54 52/74/54
f 60/77/55 57/114/55 49/78/55
f 51/80/37 49/131/37 50/71/37
f 62/81/32 54/85/32 53/82/32
f 63/84/31 56/87/31 54/85/31
f 63/84/30 64/132/30 55/86/30
f 64/88/29 61/118/29 53/89/29
f 55/91/38 53/133/38 54/85/38
f 67/92/39 68/96/39 66/93/39
f 71/95/40 72/98/40 68/96/40
f 69/97/41 70/134/41 72/98/41
f 65/99/42 66/135/42 70/100/42
f 65/99/43 69/101/43 71/95/43
f 70/102/44 66/136/44 68/96/44
f 75/103/39 76/107/39 74/104/39
f 79/106/40 80/109/40 76/107/40
f 77/108/41 78/137/41 80/109/41
f 73/110/42 74/138/42 78/111/42
f 73/110/43 77/112/43 79/106/43
f 78/113/44 74/139/44 76/107/44
f 60/77/56 59/76/56 58/73/56
f 37/115/46 38/57/46 39/56/46
f 48/117/38 45/140/38 46/67/38
f 64/88/28 63/84/28 62/81/28
