# Blender v2.79 (sub 0) OBJ File: '3DObjectDecoderObjects.blend'
# www.blender.org
o Cube.005_Cube.008
v 0.649268 -0.091558 0.262744
v 0.648841 -0.222634 -0.120029
v 1.053704 -0.102375 0.265997
v 1.053277 -0.233451 -0.116776
v 0.677166 0.854131 -0.061128
v 0.676739 0.723055 -0.443901
v 1.081175 0.712238 -0.440648
v 1.081602 0.843315 -0.057874
v 0.078292 -1.722599 0.104397
v 0.071731 -1.587177 -0.276806
v 0.482827 -1.722483 0.097475
v 0.476266 -1.587060 -0.283729
v 0.083746 -0.780276 0.439063
v 0.077185 -0.644853 0.057860
v 0.481720 -0.644737 0.050937
v 0.488281 -0.780160 0.432141
v 0.696898 1.689635 0.214167
v 0.701993 1.804510 -0.173744
v 1.101361 1.679592 0.216505
v 1.106456 1.794466 -0.171406
v 0.077845 0.298848 0.183204
v 0.072314 0.185249 -0.205079
v 0.482394 0.299632 0.177211
v 0.476864 0.186033 -0.211072
v 0.674738 0.731110 -0.069978
v 0.679748 0.842018 -0.458229
v 1.083640 0.805462 -0.457721
v 1.079534 0.735653 -0.068441
v 0.083959 -0.691570 0.461374
v 0.078249 -0.756000 0.075810
v 0.482799 -0.755810 0.069722
v 0.488499 -0.690529 0.454994
v -0.698375 -0.080726 0.203531
v -0.702914 -0.208565 -0.180303
v -1.102943 -0.080228 0.208150
v -1.107482 -0.208067 -0.175684
v -0.700813 0.868037 -0.112435
v -0.705353 0.740198 -0.496270
v -1.109920 0.740697 -0.491651
v -1.105381 0.868535 -0.107817
v -0.079544 -1.716372 0.177221
v -0.070242 -1.594705 -0.208535
v -0.484019 -1.716514 0.167423
v -0.474718 -1.594848 -0.218333
v -0.087162 -0.762656 0.477837
v -0.077860 -0.640989 0.092081
v -0.482336 -0.641131 0.082283
v -0.491637 -0.762798 0.468039
v -0.695753 1.670743 0.213962
v -0.698728 1.808525 -0.166431
v -1.100328 1.672109 0.217621
v -1.103304 1.809892 -0.162771
v -0.079117 0.305915 0.180389
v -0.070868 0.177243 -0.203112
v -0.483613 0.306477 0.171499
v -0.475364 0.177806 -0.212002
v -0.702009 0.730521 -0.126543
v -0.705015 0.864036 -0.507449
v -1.109793 0.836857 -0.506732
v -1.106498 0.747659 -0.123216
v -0.087510 -0.673038 0.496905
v -0.079087 -0.752230 0.114285
v -0.483584 -0.752268 0.105322
v -0.491995 -0.672231 0.487617
v 0.630000 0.344872 0.420000
v 0.630000 1.744872 0.420000
v 0.630000 0.344872 -0.420000
v 0.630000 1.744872 -0.420000
v -0.630000 0.344872 0.420000
v -0.630000 1.744872 0.420000
v -0.630000 0.344872 -0.420000
v -0.630000 1.744872 -0.420000
v 0.335824 1.801947 0.266204
v 0.307361 2.386325 0.399216
v 0.252133 1.929928 -0.313982
v 0.223670 2.514306 -0.180971
v -0.257628 1.755871 0.341646
v -0.286091 2.340249 0.474657
v -0.341319 1.883852 -0.238541
v -0.369782 2.468230 -0.105530
vt 0.151712 0.164304
vt 0.128453 0.121671
vt 0.152804 0.123501
vt 0.127361 0.162474
vt 0.068267 0.117149
vt 0.211899 0.168826
vt 0.150620 0.205107
vt 0.214083 0.087220
vt 0.153896 0.082698
vt 0.120318 0.196104
vt 0.141703 0.159716
vt 0.141869 0.195827
vt 0.194969 0.159030
vt 0.120152 0.159993
vt 0.066721 0.124568
vt 0.119987 0.123882
vt 0.066887 0.160679
vt 0.067218 0.232901
vt 0.120483 0.232215
vt 0.893013 0.803206
vt 0.953247 0.844041
vt 0.893013 0.844041
vt 0.953247 0.884875
vt 0.893013 0.884875
vt 0.893013 0.925710
vt 0.868643 0.884875
vt 0.808410 0.844041
vt 0.868643 0.844041
vt 0.977617 0.844041
vt 0.977617 0.884875
vt 0.741845 0.545283
vt 0.663028 0.598717
vt 0.663028 0.545283
vt 0.741845 0.652150
vt 0.663028 0.652150
vt 0.741845 0.705584
vt 0.663028 0.705584
vt 0.631139 0.652150
vt 0.552321 0.598717
vt 0.631139 0.598717
vt 0.741845 0.598717
vt 0.773734 0.652150
vt 0.237342 0.129853
vt 0.236250 0.170656
vt 0.045336 0.160957
vt 0.067052 0.196790
vt 0.045501 0.197068
vt 0.113861 0.154921
vt 0.095990 0.121280
vt 0.114964 0.123128
vt 0.094887 0.153073
vt 0.049093 0.116713
vt 0.162963 0.095902
vt 0.161861 0.127695
vt 0.160758 0.159488
vt 0.159655 0.191281
vt 0.112759 0.186714
vt 0.153193 0.158992
vt 0.134495 0.188340
vt 0.135087 0.158002
vt 0.152601 0.189330
vt 0.197943 0.161440
vt 0.197352 0.191779
vt 0.089154 0.216230
vt 0.089745 0.185892
vt 0.090336 0.155553
vt 0.090927 0.125215
vt 0.135678 0.127663
vt 0.893013 0.809899
vt 0.820174 0.859280
vt 0.820174 0.809899
vt 0.893013 0.859280
vt 0.820174 0.908661
vt 0.893013 0.958041
vt 0.893013 0.908661
vt 0.922484 0.908660
vt 0.995323 0.859280
vt 0.995323 0.908660
vt 0.790703 0.908661
vt 0.668850 0.601598
vt 0.627314 0.573439
vt 0.668850 0.573439
vt 0.627314 0.629757
vt 0.627314 0.601598
vt 0.668850 0.629757
vt 0.627314 0.657916
vt 0.685655 0.629757
vt 0.727191 0.601598
vt 0.727191 0.629757
vt 0.610509 0.601598
vt 0.114767 0.168293
vt 0.095916 0.220936
vt 0.095916 0.168293
vt 0.143042 0.168293
vt 0.114767 0.220936
vt 0.161893 0.168293
vt 0.143042 0.220936
vt 0.114767 0.136707
vt 0.143042 0.084063
vt 0.143042 0.136707
vt 0.143042 0.252523
vt 0.705410 0.612195
vt 0.679363 0.568551
vt 0.705410 0.568551
vt 0.653316 0.612195
vt 0.679363 0.612195
vt 0.627270 0.568551
vt 0.653316 0.568551
vt 0.653316 0.655839
vt 0.679363 0.699483
vt 0.653316 0.699483
vt 0.679363 0.655839
vt 0.653316 0.524907
vt 0.922484 0.859280
vt 0.180835 0.129543
vt 0.072230 0.154563
vt 0.071639 0.184901
vt 0.685655 0.601598
vt 0.067175 0.157952
vt 0.210807 0.209629
vt 0.212991 0.128023
vt 0.195135 0.195141
vt 0.953247 0.803206
vt 0.953247 0.925710
vt 0.808410 0.884875
vt 0.552321 0.652150
vt 0.773734 0.598717
vt 0.047991 0.148506
vt 0.116067 0.091335
vt 0.133904 0.218678
vt 0.820174 0.958041
vt 0.790703 0.859280
vt 0.668850 0.657916
vt 0.610509 0.629757
vt 0.161893 0.220936
vt 0.114767 0.084063
vt 0.114767 0.252523
vt 0.627270 0.612195
vt 0.679363 0.524907
vt 0.179732 0.161336
vn -0.0279 -0.9457 0.3239
vn 0.0011 0.3240 0.9461
vn 0.9996 -0.0267 0.0080
vn -0.0011 -0.3240 -0.9461
vn -0.9996 0.0267 -0.0080
vn -0.0055 -0.9423 -0.3347
vn 0.0162 -0.3347 0.9422
vn 0.9999 0.0003 -0.0171
vn -0.0162 0.3347 -0.9422
vn -0.9999 -0.0003 0.0171
vn -0.9997 0.0248 -0.0058
vn 0.0263 0.2774 -0.9604
vn 0.9997 -0.0248 0.0061
vn -0.0005 -0.2842 0.9588
vn 0.0222 0.9585 0.2841
vn -0.9999 -0.0019 0.0151
vn -0.0143 -0.2858 -0.9582
vn 0.9999 0.0019 -0.0151
vn 0.0145 0.2705 0.9626
vn -0.0060 0.9598 -0.2807
vn -0.0885 -0.9803 -0.1767
vn 0.0279 0.9457 -0.3239
vn 0.0055 0.9423 0.3347
vn 0.0030 -0.9859 0.1670
vn 0.0024 -0.9488 0.3160
vn 0.0112 0.3160 0.9487
vn -0.9999 0.0012 0.0114
vn -0.0112 -0.3160 -0.9487
vn 0.9999 -0.0012 -0.0114
vn 0.0076 -0.9537 -0.3006
vn -0.0230 -0.3007 0.9534
vn -0.9997 -0.0004 -0.0242
vn 0.0230 0.3007 -0.9534
vn 0.9997 0.0004 0.0242
vn 1.0000 -0.0034 -0.0090
vn -0.0074 0.3396 -0.9405
vn -1.0000 0.0034 0.0094
vn 0.0073 -0.3460 0.9382
vn 0.0063 0.9402 0.3405
vn 0.9998 -0.0014 0.0223
vn 0.0203 -0.3233 -0.9461
vn -0.9998 0.0013 -0.0220
vn -0.0205 0.3075 0.9513
vn 0.0083 0.9481 -0.3179
vn 1.0000 0.0000 0.0000
vn 0.0000 0.0000 -1.0000
vn -1.0000 0.0000 0.0000
vn 0.0000 0.0000 1.0000
vn 0.0000 -1.0000 0.0000
vn 0.0000 1.0000 0.0000
vn 0.9891 0.0768 -0.1257
vn -0.1395 0.2133 -0.9670
vn -0.9891 -0.0768 0.1257
vn 0.1395 -0.2133 0.9670
vn 0.0474 -0.9740 -0.2217
vn -0.0474 0.9740 0.2217
vn -0.0431 -0.9732 -0.2260
vn -0.0024 0.9488 -0.3160
vn -0.0076 0.9537 0.3006
vn -0.0066 -0.9793 0.2025
vn 0.0126 0.2832 -0.9590
vn 0.9997 -0.0249 0.0058
vn -0.0127 -0.2887 0.9573
vn -0.9999 -0.0019 0.0148
vn -0.0136 -0.2860 -0.9581
vn 0.9999 0.0019 -0.0148
vn 0.0137 0.2702 0.9627
vn 0.0118 -0.9615 -0.2745
vn 0.0051 -0.9863 0.1647
vn 1.0000 -0.0034 -0.0091
vn -0.0241 0.3333 -0.9425
vn -1.0000 0.0033 0.0090
vn -0.0067 -0.3405 0.9402
vn 0.9998 -0.0013 0.0220
vn 0.0210 -0.3230 -0.9462
vn -0.9998 0.0014 -0.0223
vn -0.0212 0.3077 0.9512
vn 0.0626 -0.9417 -0.3306
vn -0.0044 -0.9788 0.2048
s off
f 4/1/1 1/2/1 2/3/1
f 3/4/2 5/5/2 1/2/2
f 7/6/3 3/7/3 4/1/3
f 2/3/4 7/6/4 4/1/4
f 5/8/5 2/3/5 1/9/5
f 10/10/6 11/11/6 9/12/6
f 16/13/7 9/12/7 11/11/7
f 12/14/8 16/15/8 11/16/8
f 10/10/9 15/17/9 12/14/9
f 13/18/10 10/10/10 9/19/10
f 25/20/11 18/21/11 26/22/11
f 26/22/12 20/23/12 27/24/12
f 20/23/13 28/25/13 27/24/13
f 28/26/14 17/27/14 25/28/14
f 20/23/15 17/29/15 19/30/15
f 21/31/16 30/32/16 29/33/16
f 30/32/17 24/34/17 31/35/17
f 31/35/18 23/36/18 32/37/18
f 32/38/19 21/39/19 29/40/19
f 22/41/20 23/42/20 24/34/20
f 28/26/21 26/22/21 27/24/21
f 7/6/22 5/43/22 8/44/22
f 16/45/23 14/46/23 13/47/23
f 32/38/24 30/32/24 31/35/24
f 34/48/25 35/49/25 36/50/25
f 33/51/26 40/52/26 35/49/26
f 36/50/27 40/53/27 39/54/27
f 34/48/28 39/54/28 38/55/28
f 34/48/29 37/56/29 33/57/29
f 41/58/30 44/59/30 42/60/30
f 43/61/31 45/62/31 48/63/31
f 44/59/32 48/64/32 47/65/32
f 42/60/33 47/65/33 46/66/33
f 42/60/34 45/67/34 41/68/34
f 57/69/35 50/70/35 49/71/35
f 58/72/36 52/73/36 50/70/36
f 60/74/37 52/73/37 59/75/37
f 60/76/38 49/77/38 51/78/38
f 51/79/39 50/70/39 52/73/39
f 62/80/40 53/81/40 61/82/40
f 62/80/41 56/83/41 54/84/41
f 63/85/42 55/86/42 56/83/42
f 64/87/43 53/88/43 55/89/43
f 56/83/44 53/90/44 54/84/44
f 67/91/45 66/92/45 65/93/45
f 71/94/46 68/95/46 67/91/46
f 69/96/47 72/97/47 71/94/47
f 65/98/48 70/99/48 69/100/48
f 65/98/49 71/94/49 67/91/49
f 70/101/50 68/95/50 72/97/50
f 73/102/51 76/103/51 74/104/51
f 79/105/52 76/103/52 75/106/52
f 79/105/53 78/107/53 80/108/53
f 77/109/54 74/110/54 78/111/54
f 73/112/55 79/105/55 75/106/55
f 78/113/56 76/103/56 80/108/56
f 59/75/57 57/114/57 60/76/57
f 40/115/58 38/55/58 39/54/58
f 45/116/59 47/65/59 48/117/59
f 64/87/60 62/80/60 61/118/60
f 4/1/1 3/4/1 1/2/1
f 3/4/2 8/119/2 5/5/2
f 7/6/3 8/120/3 3/7/3
f 2/3/4 6/121/4 7/6/4
f 5/8/5 6/121/5 2/3/5
f 10/10/6 12/14/6 11/11/6
f 16/13/7 13/122/7 9/12/7
f 12/14/8 15/17/8 16/15/8
f 10/10/9 14/46/9 15/17/9
f 13/18/10 14/46/10 10/10/10
f 25/20/11 17/123/11 18/21/11
f 26/22/61 18/21/61 20/23/61
f 20/23/62 19/124/62 28/25/62
f 28/26/63 19/125/63 17/27/63
f 20/23/15 18/21/15 17/29/15
f 21/31/64 22/41/64 30/32/64
f 30/32/65 22/41/65 24/34/65
f 31/35/66 24/34/66 23/36/66
f 32/38/67 23/126/67 21/39/67
f 22/41/20 21/127/20 23/42/20
f 28/26/68 25/28/68 26/22/68
f 7/6/22 6/121/22 5/43/22
f 16/45/23 15/17/23 14/46/23
f 32/38/69 29/40/69 30/32/69
f 34/48/25 33/51/25 35/49/25
f 33/51/26 37/128/26 40/52/26
f 36/50/27 35/129/27 40/53/27
f 34/48/28 36/50/28 39/54/28
f 34/48/29 38/55/29 37/56/29
f 41/58/30 43/61/30 44/59/30
f 43/61/31 41/58/31 45/62/31
f 44/59/32 43/130/32 48/64/32
f 42/60/33 44/59/33 47/65/33
f 42/60/34 46/66/34 45/67/34
f 57/69/70 58/72/70 50/70/70
f 58/72/71 59/75/71 52/73/71
f 60/74/72 51/131/72 52/73/72
f 60/76/73 57/114/73 49/77/73
f 51/79/39 49/132/39 50/70/39
f 62/80/74 54/84/74 53/81/74
f 62/80/75 63/85/75 56/83/75
f 63/85/76 64/133/76 55/86/76
f 64/87/77 61/118/77 53/88/77
f 56/83/44 55/134/44 53/90/44
f 67/91/45 68/95/45 66/92/45
f 71/94/46 72/97/46 68/95/46
f 69/96/47 70/135/47 72/97/47
f 65/98/48 66/136/48 70/99/48
f 65/98/49 69/100/49 71/94/49
f 70/101/50 66/137/50 68/95/50
f 73/102/51 75/106/51 76/103/51
f 79/105/52 80/108/52 76/103/52
f 79/105/53 77/138/53 78/107/53
f 77/109/54 73/112/54 74/110/54
f 73/112/55 77/109/55 79/105/55
f 78/113/56 74/139/56 76/103/56
f 59/75/78 58/72/78 57/114/78
f 40/115/58 37/140/58 38/55/58
f 45/116/59 46/66/59 47/65/59
f 64/87/79 63/85/79 62/80/79
