# Blender v2.79 (sub 0) OBJ File: '3DObjectDecoderObjects.blend'
# www.blender.org
o Cube.005_Cube.008
v 0.649272 -0.091339 0.262718
v 0.648835 -0.222828 -0.119914
v 1.053708 -0.102161 0.265975
v 1.053272 -0.233650 -0.116657
v 0.677184 0.854000 -0.062174
v 0.676747 0.722511 -0.444806
v 1.081184 0.711689 -0.441548
v 1.081620 0.843178 -0.058917
v 0.078290 -1.722781 0.104255
v 0.071730 -1.586946 -0.276802
v 0.482825 -1.722665 0.097331
v 0.476265 -1.586830 -0.283726
v 0.083764 -0.780821 0.439939
v 0.077203 -0.644985 0.058882
v 0.481738 -0.644869 0.051958
v 0.488299 -0.780704 0.433015
v 0.696892 1.688532 0.214183
v 0.701998 1.803848 -0.173596
v 1.101355 1.678486 0.216522
v 1.106461 1.793802 -0.171257
v 0.077842 0.298188 0.183087
v 0.072315 0.184156 -0.205069
v 0.482391 0.298975 0.177095
v 0.476865 0.184943 -0.211061
v 0.674741 0.730331 -0.071054
v 0.679763 0.841667 -0.459176
v 1.083652 0.805016 -0.458674
v 1.079538 0.734922 -0.069519
v 0.083977 -0.692021 0.462318
v 0.078270 -0.756716 0.076889
v 0.482821 -0.756526 0.070802
v 0.488517 -0.690976 0.455938
v -0.698374 -0.080520 0.203509
v -0.702914 -0.208745 -0.180196
v -1.102942 -0.080021 0.208129
v -1.107481 -0.208247 -0.175576
v -0.700824 0.867924 -0.113414
v -0.705364 0.739698 -0.497119
v -1.109931 0.740197 -0.492500
v -1.105392 0.868423 -0.108795
v -0.079541 -1.716555 0.177088
v -0.070241 -1.594480 -0.208538
v -0.484017 -1.716698 0.167288
v -0.474716 -1.594622 -0.218339
v -0.087185 -0.763158 0.478715
v -0.077884 -0.641083 0.093088
v -0.482360 -0.641225 0.083288
v -0.491661 -0.763301 0.468915
v -0.695755 1.669644 0.213965
v -0.698724 1.807845 -0.166276
v -1.100330 1.671014 0.217622
v -1.103300 1.809214 -0.162618
v -0.079113 0.305252 0.180263
v -0.070869 0.176148 -0.203093
v -0.483609 0.305818 0.171374
v -0.475365 0.176714 -0.211982
v -0.702024 0.729797 -0.127574
v -0.705025 0.863717 -0.508329
v -1.109804 0.836455 -0.507624
v -1.106514 0.746986 -0.124248
v -0.087535 -0.673444 0.497845
v -0.079116 -0.752903 0.115372
v -0.483613 -0.752940 0.106409
v -0.492020 -0.672634 0.488557
v 0.630000 0.344013 0.420000
v 0.630000 1.744013 0.420000
v 0.630000 0.344013 -0.420000
v 0.630000 1.744013 -0.420000
v -0.630000 0.344013 0.420000
v -0.630000 1.744013 0.420000
v -0.630000 0.344013 -0.420000
v -0.630000 1.744013 -0.420000
v 0.336016 1.800878 0.265979
v 0.307449 2.385084 0.399722
v 0.251850 1.929536 -0.313989
v 0.223283 2.513742 -0.180246
v -0.257364 1.754504 0.341804
v -0.285931 2.338710 0.475547
v -0.341530 1.883161 -0.238164
v -0.370097 2.467367 -0.104421
vt 0.151712 0.164304
vt 0.128453 0.121671
vt 0.152804 0.123501
vt 0.127361 0.162474
vt 0.068267 0.117149
vt 0.210807 0.209629
vt 0.150620 0.205107
vt 0.211899 0.168826
vt 0.214083 0.087220
vt 0.153896 0.082698
vt 0.120318 0.196104
vt 0.141703 0.159716
vt 0.141869 0.195827
vt 0.194969 0.159030
vt 0.120152 0.159993
vt 0.066721 0.124568
vt 0.119987 0.123882
vt 0.066887 0.160679
vt 0.067218 0.232901
vt 0.120483 0.232215
vt 0.893013 0.803206
vt 0.953247 0.844041
vt 0.893013 0.844041
vt 0.953247 0.884875
vt 0.893013 0.884875
vt 0.893013 0.925710
vt 0.868643 0.884875
vt 0.808410 0.844041
vt 0.868643 0.844041
vt 0.977617 0.884875
vt 0.741845 0.545283
vt 0.663028 0.598717
vt 0.663028 0.545283
vt 0.741845 0.652150
vt 0.663028 0.652150
vt 0.741845 0.705584
vt 0.663028 0.705584
vt 0.631139 0.652150
vt 0.552321 0.598717
vt 0.631139 0.598717
vt 0.741845 0.598717
vt 0.773734 0.652150
vt 0.237342 0.129853
vt 0.236250 0.170656
vt 0.045336 0.160957
vt 0.067052 0.196790
vt 0.045501 0.197068
vt 0.094887 0.153073
vt 0.114964 0.123128
vt 0.113861 0.154921
vt 0.049093 0.116713
vt 0.095990 0.121280
vt 0.162963 0.095902
vt 0.161861 0.127695
vt 0.160758 0.159488
vt 0.159655 0.191281
vt 0.112759 0.186714
vt 0.135087 0.158002
vt 0.152601 0.189330
vt 0.134495 0.188340
vt 0.197943 0.161440
vt 0.197352 0.191779
vt 0.089154 0.216230
vt 0.089745 0.185892
vt 0.090336 0.155553
vt 0.090927 0.125215
vt 0.135678 0.127663
vt 0.893013 0.809899
vt 0.820174 0.859280
vt 0.820174 0.809899
vt 0.893013 0.859280
vt 0.820174 0.908661
vt 0.893013 0.958041
vt 0.893013 0.908661
vt 0.922484 0.908660
vt 0.995323 0.859280
vt 0.995323 0.908660
vt 0.790703 0.859280
vt 0.668850 0.601598
vt 0.627314 0.573439
vt 0.668850 0.573439
vt 0.627314 0.629757
vt 0.627314 0.601598
vt 0.668850 0.629757
vt 0.627314 0.657916
vt 0.685655 0.629757
vt 0.727191 0.601598
vt 0.727191 0.629757
vt 0.610509 0.629757
vt 0.114767 0.168293
vt 0.095916 0.220936
vt 0.095916 0.168293
vt 0.143042 0.168293
vt 0.114767 0.220936
vt 0.161893 0.168293
vt 0.143042 0.220936
vt 0.114767 0.136707
vt 0.143042 0.084063
vt 0.143042 0.136707
vt 0.143042 0.252523
vt 0.679363 0.612195
vt 0.705410 0.568551
vt 0.705410 0.612195
vt 0.653316 0.612195
vt 0.679363 0.568551
vt 0.627270 0.612195
vt 0.653316 0.568551
vt 0.679363 0.655839
vt 0.653316 0.699483
vt 0.653316 0.655839
vt 0.679363 0.524907
vt 0.922484 0.859280
vt 0.179732 0.161336
vt 0.180835 0.129543
vt 0.072230 0.154563
vt 0.071639 0.184901
vt 0.685655 0.601598
vt 0.067175 0.157952
vt 0.212991 0.128023
vt 0.195135 0.195141
vt 0.953247 0.803206
vt 0.953247 0.925710
vt 0.808410 0.884875
vt 0.977617 0.844041
vt 0.552321 0.652150
vt 0.773734 0.598717
vt 0.047991 0.148506
vt 0.116067 0.091335
vt 0.153193 0.158992
vt 0.133904 0.218678
vt 0.820174 0.958041
vt 0.790703 0.908661
vt 0.668850 0.657916
vt 0.610509 0.601598
vt 0.161893 0.220936
vt 0.114767 0.084063
vt 0.114767 0.252523
vt 0.627270 0.568551
vt 0.679363 0.699483
vt 0.653316 0.524907
vn -0.0279 -0.9453 0.3249
vn 0.0011 0.3250 0.9457
vn 0.9996 -0.0267 0.0081
vn -0.0011 -0.3250 -0.9457
vn -0.9996 0.0267 -0.0081
vn -0.0055 -0.9420 -0.3357
vn 0.0162 -0.3357 0.9418
vn 0.9999 0.0003 -0.0171
vn -0.0162 0.3357 -0.9418
vn -0.9999 -0.0003 0.0171
vn -0.9997 0.0248 -0.0058
vn 0.0265 0.2785 -0.9601
vn 0.9997 -0.0248 0.0061
vn -0.0004 -0.2853 0.9584
vn 0.0222 0.9582 0.2852
vn -0.9999 -0.0019 0.0151
vn -0.0143 -0.2869 -0.9579
vn 0.9999 0.0019 -0.0151
vn 0.0145 0.2715 0.9623
vn -0.0060 0.9595 -0.2818
vn 0.0118 -0.9841 -0.1771
vn 0.0279 0.9453 -0.3249
vn 0.0055 0.9420 0.3357
vn 0.0030 -0.9858 0.1677
vn 0.0024 -0.9484 0.3169
vn 0.0112 0.3169 0.9484
vn -0.9999 0.0012 0.0114
vn -0.0112 -0.3169 -0.9484
vn 0.9999 -0.0012 -0.0114
vn 0.0076 -0.9534 -0.3016
vn -0.0230 -0.3017 0.9531
vn -0.9997 -0.0004 -0.0242
vn 0.0230 0.3017 -0.9531
vn 0.9997 0.0004 0.0242
vn 1.0000 -0.0034 -0.0090
vn -0.0073 0.3407 -0.9402
vn -1.0000 0.0034 0.0094
vn 0.0073 -0.3470 0.9378
vn 0.0063 0.9398 0.3415
vn 0.9998 -0.0014 0.0223
vn 0.0203 -0.3244 -0.9457
vn -0.9998 0.0014 -0.0220
vn -0.0205 0.3085 0.9510
vn 0.0083 0.9477 -0.3190
vn 1.0000 0.0000 0.0000
vn 0.0000 0.0000 -1.0000
vn -1.0000 0.0000 0.0000
vn 0.0000 0.0000 1.0000
vn 0.0000 -1.0000 0.0000
vn 0.0000 1.0000 0.0000
vn 0.9890 0.0773 -0.1264
vn -0.1403 0.2144 -0.9666
vn -0.9890 -0.0773 0.1264
vn 0.1403 -0.2144 0.9666
vn 0.0476 -0.9737 -0.2229
vn -0.0476 0.9737 0.2229
vn -0.0432 -0.9730 -0.2267
vn -0.0024 0.9484 -0.3169
vn -0.0076 0.9534 0.3016
vn -0.0066 -0.9791 0.2033
vn 0.0126 0.2842 -0.9587
vn 0.9997 -0.0249 0.0058
vn -0.0127 -0.2898 0.9570
vn -0.9999 -0.0019 0.0148
vn -0.0136 -0.2871 -0.9578
vn 0.9999 0.0019 -0.0148
vn 0.0137 0.2712 0.9624
vn -0.0865 -0.9573 -0.2757
vn 0.0052 -0.9862 0.1655
vn 1.0000 -0.0034 -0.0091
vn -0.0242 0.3343 -0.9422
vn -1.0000 0.0034 0.0090
vn -0.0068 -0.3415 0.9399
vn 0.9998 -0.0013 0.0220
vn 0.0210 -0.3241 -0.9458
vn -0.9998 0.0014 -0.0223
vn -0.0212 0.3087 0.9509
vn 0.0628 -0.9413 -0.3316
vn -0.0045 -0.9786 0.2056
s off
f 4/1/1 1/2/1 2/3/1
f 3/4/2 5/5/2 1/2/2
f 4/1/3 8/6/3 3/7/3
f 2/3/4 7/8/4 4/1/4
f 5/9/5 2/3/5 1/10/5
f 10/11/6 11/12/6 9/13/6
f 16/14/7 9/13/7 11/12/7
f 12/15/8 16/16/8 11/17/8
f 10/11/9 15/18/9 12/15/9
f 13/19/10 10/11/10 9/20/10
f 25/21/11 18/22/11 26/23/11
f 26/23/12 20/24/12 27/25/12
f 20/24/13 28/26/13 27/25/13
f 28/27/14 17/28/14 25/29/14
f 18/22/15 19/30/15 20/24/15
f 21/31/16 30/32/16 29/33/16
f 30/32/17 24/34/17 31/35/17
f 31/35/18 23/36/18 32/37/18
f 32/38/19 21/39/19 29/40/19
f 22/41/20 23/42/20 24/34/20
f 25/29/21 27/25/21 28/27/21
f 7/8/22 5/43/22 8/44/22
f 16/45/23 14/46/23 13/47/23
f 32/38/24 30/32/24 31/35/24
f 33/48/25 36/49/25 34/50/25
f 33/48/26 40/51/26 35/52/26
f 36/49/27 40/53/27 39/54/27
f 36/49/28 38/55/28 34/50/28
f 34/50/29 37/56/29 33/57/29
f 42/58/30 43/59/30 44/60/30
f 43/59/31 45/61/31 48/62/31
f 44/60/32 48/63/32 47/64/32
f 44/60/33 46/65/33 42/58/33
f 42/58/34 45/66/34 41/67/34
f 57/68/35 50/69/35 49/70/35
f 58/71/36 52/72/36 50/69/36
f 60/73/37 52/72/37 59/74/37
f 60/75/38 49/76/38 51/77/38
f 52/72/39 49/78/39 50/69/39
f 62/79/40 53/80/40 61/81/40
f 62/79/41 56/82/41 54/83/41
f 63/84/42 55/85/42 56/82/42
f 64/86/43 53/87/43 55/88/43
f 55/89/44 54/83/44 56/82/44
f 67/90/45 66/91/45 65/92/45
f 71/93/46 68/94/46 67/90/46
f 69/95/47 72/96/47 71/93/47
f 65/97/48 70/98/48 69/99/48
f 65/97/49 71/93/49 67/90/49
f 70/100/50 68/94/50 72/96/50
f 75/101/51 74/102/51 73/103/51
f 79/104/52 76/105/52 75/101/52
f 77/106/53 80/107/53 79/104/53
f 73/108/54 78/109/54 77/110/54
f 73/108/55 79/104/55 75/101/55
f 80/107/56 74/111/56 76/105/56
f 59/74/57 57/112/57 60/75/57
f 37/113/58 39/54/58 40/114/58
f 45/115/59 47/64/59 48/116/59
f 64/86/60 62/79/60 61/117/60
f 4/1/1 3/4/1 1/2/1
f 3/4/2 8/118/2 5/5/2
f 4/1/3 7/8/3 8/6/3
f 2/3/4 6/119/4 7/8/4
f 5/9/5 6/119/5 2/3/5
f 10/11/6 12/15/6 11/12/6
f 16/14/7 13/120/7 9/13/7
f 12/15/8 15/18/8 16/16/8
f 10/11/9 14/46/9 15/18/9
f 13/19/10 14/46/10 10/11/10
f 25/21/11 17/121/11 18/22/11
f 26/23/61 18/22/61 20/24/61
f 20/24/62 19/122/62 28/26/62
f 28/27/63 19/123/63 17/28/63
f 18/22/15 17/124/15 19/30/15
f 21/31/64 22/41/64 30/32/64
f 30/32/65 22/41/65 24/34/65
f 31/35/66 24/34/66 23/36/66
f 32/38/67 23/125/67 21/39/67
f 22/41/20 21/126/20 23/42/20
f 25/29/68 26/23/68 27/25/68
f 7/8/22 6/119/22 5/43/22
f 16/45/23 15/18/23 14/46/23
f 32/38/69 29/40/69 30/32/69
f 33/48/25 35/52/25 36/49/25
f 33/48/26 37/127/26 40/51/26
f 36/49/27 35/128/27 40/53/27
f 36/49/28 39/54/28 38/55/28
f 34/50/29 38/55/29 37/56/29
f 42/58/30 41/129/30 43/59/30
f 43/59/31 41/129/31 45/61/31
f 44/60/32 43/130/32 48/63/32
f 44/60/33 47/64/33 46/65/33
f 42/58/34 46/65/34 45/66/34
f 57/68/70 58/71/70 50/69/70
f 58/71/71 59/74/71 52/72/71
f 60/73/72 51/131/72 52/72/72
f 60/75/73 57/112/73 49/76/73
f 52/72/39 51/132/39 49/78/39
f 62/79/74 54/83/74 53/80/74
f 62/79/75 63/84/75 56/82/75
f 63/84/76 64/133/76 55/85/76
f 64/86/77 61/117/77 53/87/77
f 55/89/44 53/134/44 54/83/44
f 67/90/45 68/94/45 66/91/45
f 71/93/46 72/96/46 68/94/46
f 69/95/47 70/135/47 72/96/47
f 65/97/48 66/136/48 70/98/48
f 65/97/49 69/99/49 71/93/49
f 70/100/50 66/137/50 68/94/50
f 75/101/51 76/105/51 74/102/51
f 79/104/52 80/107/52 76/105/52
f 77/106/53 78/138/53 80/107/53
f 73/108/54 74/139/54 78/109/54
f 73/108/55 77/110/55 79/104/55
f 80/107/56 78/140/56 74/111/56
f 59/74/78 58/71/78 57/112/78
f 37/113/58 38/55/58 39/54/58
f 45/115/59 46/65/59 47/64/59
f 64/86/79 63/84/79 62/79/79
