# Blender v2.79 (sub 0) OBJ File: '3DObjectDecoderObjects.blend'
# www.blender.org
o Cube.005_Cube.008
v 0.649169 -0.096589 0.263291
v 0.648964 -0.218356 -0.122545
v 1.053609 -0.107296 0.266455
v 1.053405 -0.229063 -0.119381
v 0.676759 0.856680 -0.037569
v 0.676555 0.734913 -0.423405
v 1.080995 0.724206 -0.420240
v 1.081199 0.845973 -0.034404
v 0.078321 -1.718497 0.107516
v 0.071758 -1.592307 -0.276843
v 0.482857 -1.718387 0.100643
v 0.476294 -1.592196 -0.283715
v 0.083358 -0.768377 0.419366
v 0.076795 -0.642187 0.035008
v 0.481330 -0.642076 0.028135
v 0.487894 -0.768266 0.412494
v 0.697044 1.713755 0.213723
v 0.701878 1.818652 -0.177007
v 1.101508 1.703761 0.216044
v 1.106342 1.808657 -0.174686
v 0.077915 0.312990 0.185749
v 0.072291 0.209084 -0.205238
v 0.482464 0.313718 0.179735
v 0.476840 0.209812 -0.211252
v 0.674674 0.748265 -0.045752
v 0.679430 0.849506 -0.436794
v 1.083373 0.815076 -0.436142
v 1.079441 0.751713 -0.044180
v 0.083556 -0.681785 0.440146
v 0.077769 -0.740259 0.051689
v 0.482318 -0.740081 0.045587
v 0.488097 -0.680820 0.433776
v -0.698391 -0.085402 0.203982
v -0.702922 -0.204559 -0.182636
v -1.102959 -0.084909 0.208571
v -1.107490 -0.204067 -0.178046
v -0.700569 0.870240 -0.090528
v -0.705100 0.751083 -0.477146
v -1.109668 0.751575 -0.472556
v -1.105137 0.870732 -0.085939
v -0.079595 -1.712243 0.180136
v -0.070268 -1.599737 -0.208390
v -0.484072 -1.712387 0.170385
v -0.474745 -1.599881 -0.218141
v -0.086638 -0.751682 0.458118
v -0.077311 -0.639175 0.069592
v -0.481788 -0.639319 0.059841
v -0.491114 -0.751825 0.448367
v -0.695719 1.694709 0.213826
v -0.698810 1.823111 -0.169833
v -1.100294 1.696010 0.217521
v -1.103385 1.824412 -0.166139
v -0.079208 0.320103 0.183140
v -0.070840 0.201132 -0.203477
v -0.483703 0.320611 0.174229
v -0.475336 0.201640 -0.212388
v -0.701664 0.746410 -0.103495
v -0.704784 0.870834 -0.487629
v -1.109546 0.845527 -0.486650
v -1.106161 0.762408 -0.100125
v -0.086962 -0.664230 0.475774
v -0.078436 -0.737451 0.090006
v -0.482932 -0.737498 0.081027
v -0.491447 -0.663496 0.466495
v 0.630000 0.363504 0.420000
v 0.630000 1.763504 0.420000
v 0.630000 0.363504 -0.420000
v 0.630000 1.763504 -0.420000
v -0.630000 0.363504 0.420000
v -0.630000 1.763504 0.420000
v -0.630000 0.363504 -0.420000
v -0.630000 1.763504 -0.420000
v 0.336016 1.820369 0.265979
v 0.307449 2.404575 0.399722
v 0.251850 1.949026 -0.313989
v 0.223283 2.533232 -0.180246
v -0.257364 1.773995 0.341804
v -0.285931 2.358201 0.475547
v -0.341530 1.902652 -0.238164
v -0.370097 2.486858 -0.104421
vt 0.151712 0.164304
vt 0.128453 0.121671
vt 0.152804 0.123501
vt 0.067175 0.157952
vt 0.127361 0.162474
vt 0.210807 0.209629
vt 0.150620 0.205107
vt 0.212991 0.128023
vt 0.214083 0.087220
vt 0.153896 0.082698
vt 0.120318 0.196104
vt 0.141703 0.159716
vt 0.141869 0.195827
vt 0.194969 0.159030
vt 0.120152 0.159993
vt 0.066721 0.124568
vt 0.119987 0.123882
vt 0.066887 0.160679
vt 0.067218 0.232901
vt 0.120483 0.232215
vt 0.893013 0.803206
vt 0.953247 0.844041
vt 0.893013 0.844041
vt 0.953247 0.884875
vt 0.893013 0.884875
vt 0.893013 0.925710
vt 0.868643 0.884875
vt 0.808410 0.844041
vt 0.868643 0.844041
vt 0.977617 0.844041
vt 0.977617 0.884875
vt 0.741845 0.545283
vt 0.663028 0.598717
vt 0.663028 0.545283
vt 0.741845 0.652150
vt 0.663028 0.652150
vt 0.741845 0.705584
vt 0.663028 0.705584
vt 0.631139 0.652150
vt 0.552321 0.598717
vt 0.631139 0.598717
vt 0.741845 0.598717
vt 0.773734 0.652150
vt 0.211899 0.168826
vt 0.237342 0.129853
vt 0.236250 0.170656
vt 0.045336 0.160957
vt 0.067052 0.196790
vt 0.045501 0.197068
vt 0.113861 0.154921
vt 0.095990 0.121280
vt 0.114964 0.123128
vt 0.047991 0.148506
vt 0.049093 0.116713
vt 0.162963 0.095902
vt 0.161861 0.127695
vt 0.160758 0.159488
vt 0.159655 0.191281
vt 0.112759 0.186714
vt 0.153193 0.158992
vt 0.134495 0.188340
vt 0.135087 0.158002
vt 0.197352 0.191779
vt 0.152601 0.189330
vt 0.089154 0.216230
vt 0.089745 0.185892
vt 0.090336 0.155553
vt 0.090927 0.125215
vt 0.135678 0.127663
vt 0.893013 0.809899
vt 0.820174 0.859280
vt 0.820174 0.809899
vt 0.893013 0.859280
vt 0.820174 0.908661
vt 0.893013 0.958041
vt 0.893013 0.908661
vt 0.922484 0.908660
vt 0.995323 0.859280
vt 0.995323 0.908660
vt 0.790703 0.859280
vt 0.668850 0.601598
vt 0.627314 0.573439
vt 0.668850 0.573439
vt 0.627314 0.629757
vt 0.627314 0.601598
vt 0.668850 0.629757
vt 0.627314 0.657916
vt 0.685655 0.629757
vt 0.727191 0.601598
vt 0.727191 0.629757
vt 0.610509 0.629757
vt 0.114767 0.168293
vt 0.095916 0.220936
vt 0.095916 0.168293
vt 0.143042 0.168293
vt 0.114767 0.220936
vt 0.161893 0.168293
vt 0.143042 0.220936
vt 0.114767 0.136707
vt 0.143042 0.084063
vt 0.143042 0.136707
vt 0.143042 0.252523
vt 0.705410 0.612195
vt 0.679363 0.568551
vt 0.705410 0.568551
vt 0.653316 0.612195
vt 0.679363 0.612195
vt 0.627270 0.612195
vt 0.653316 0.568551
vt 0.653316 0.655839
vt 0.679363 0.699483
vt 0.653316 0.699483
vt 0.679363 0.655839
vt 0.653316 0.524907
vt 0.922484 0.859280
vt 0.179732 0.161336
vt 0.180835 0.129543
vt 0.072230 0.154563
vt 0.071639 0.184901
vt 0.685655 0.601598
vt 0.068267 0.117149
vt 0.195135 0.195141
vt 0.953247 0.803206
vt 0.953247 0.925710
vt 0.808410 0.884875
vt 0.552321 0.652150
vt 0.773734 0.598717
vt 0.094887 0.153073
vt 0.116067 0.091335
vt 0.197943 0.161440
vt 0.133904 0.218678
vt 0.820174 0.958041
vt 0.790703 0.908661
vt 0.668850 0.657916
vt 0.610509 0.601598
vt 0.161893 0.220936
vt 0.114767 0.084063
vt 0.114767 0.252523
vt 0.627270 0.568551
vt 0.679363 0.524907
vn -0.0276 -0.9533 0.3009
vn 0.0005 0.3010 0.9536
vn 0.9996 -0.0265 0.0078
vn -0.0005 -0.3010 -0.9536
vn -0.9996 0.0265 -0.0078
vn -0.0050 -0.9501 -0.3119
vn 0.0162 -0.3119 0.9500
vn 0.9999 0.0003 -0.0170
vn -0.0162 0.3119 -0.9500
vn -0.9999 -0.0003 0.0170
vn -0.9997 0.0247 -0.0058
vn 0.0232 0.2539 -0.9669
vn 0.9997 -0.0247 0.0060
vn -0.0015 -0.2595 0.9657
vn 0.0224 0.9655 0.2595
vn -0.9999 -0.0018 0.0152
vn -0.0144 -0.2611 -0.9652
vn 0.9999 0.0018 -0.0152
vn 0.0147 0.2478 0.9687
vn -0.0056 0.9665 -0.2568
vn -0.0836 -0.9836 -0.1598
vn 0.0276 0.9533 -0.3009
vn 0.0050 0.9501 0.3119
vn 0.0027 -0.9885 0.1509
vn 0.0022 -0.9556 0.2945
vn 0.0112 0.2945 0.9556
vn -0.9999 0.0012 0.0113
vn -0.0112 -0.2945 -0.9556
vn 0.9999 -0.0012 -0.0113
vn 0.0070 -0.9606 -0.2780
vn -0.0231 -0.2781 0.9603
vn -0.9997 -0.0004 -0.0241
vn 0.0231 0.2781 -0.9603
vn 0.9997 0.0004 0.0241
vn 1.0000 -0.0032 -0.0091
vn -0.0076 0.3166 -0.9485
vn -1.0000 0.0032 0.0094
vn 0.0076 -0.3221 0.9467
vn 0.0059 0.9483 0.3173
vn 0.9997 -0.0012 0.0223
vn 0.0206 -0.2985 -0.9542
vn -0.9998 0.0012 -0.0220
vn -0.0208 0.2848 0.9584
vn 0.0077 0.9558 -0.2940
vn 1.0000 0.0000 0.0000
vn 0.0000 0.0000 -1.0000
vn -1.0000 0.0000 0.0000
vn 0.0000 0.0000 1.0000
vn 0.0000 -1.0000 0.0000
vn 0.0000 1.0000 0.0000
vn 0.9890 0.0773 -0.1264
vn -0.1403 0.2144 -0.9666
vn -0.9890 -0.0773 0.1264
vn 0.1403 -0.2144 0.9666
vn 0.0476 -0.9737 -0.2229
vn -0.0476 0.9737 0.2229
vn -0.0404 -0.9769 -0.2097
vn -0.0022 0.9556 -0.2945
vn -0.0070 0.9606 0.2780
vn -0.0061 -0.9825 0.1863
vn -0.9997 0.0247 -0.0057
vn 0.0119 0.2586 -0.9659
vn 0.9997 -0.0247 0.0057
vn -0.0120 -0.2634 0.9646
vn -0.9999 -0.0018 0.0148
vn -0.0139 -0.2613 -0.9652
vn 0.9999 0.0018 -0.0148
vn 0.0140 0.2475 0.9688
vn 0.0092 -0.9681 -0.2505
vn 0.0047 -0.9889 0.1488
vn 1.0000 -0.0032 -0.0092
vn -0.0218 0.3112 -0.9501
vn -1.0000 0.0032 0.0091
vn -0.0046 -0.3173 0.9483
vn 0.9998 -0.0012 0.0220
vn 0.0212 -0.2983 -0.9542
vn -0.9998 0.0012 -0.0223
vn -0.0215 0.2851 0.9583
vn 0.0586 -0.9496 -0.3080
vn -0.0041 -0.9821 0.1884
s off
f 4/1/1 1/2/1 2/3/1
f 8/4/2 1/2/2 3/5/2
f 4/1/3 8/6/3 3/7/3
f 6/8/4 4/1/4 2/3/4
f 5/9/5 2/3/5 1/10/5
f 10/11/6 11/12/6 9/13/6
f 16/14/7 9/13/7 11/12/7
f 12/15/8 16/16/8 11/17/8
f 10/11/9 15/18/9 12/15/9
f 13/19/10 10/11/10 9/20/10
f 25/21/11 18/22/11 26/23/11
f 26/23/12 20/24/12 27/25/12
f 20/24/13 28/26/13 27/25/13
f 28/27/14 17/28/14 25/29/14
f 20/24/15 17/30/15 19/31/15
f 21/32/16 30/33/16 29/34/16
f 30/33/17 24/35/17 31/36/17
f 31/36/18 23/37/18 32/38/18
f 32/39/19 21/40/19 29/41/19
f 22/42/20 23/43/20 24/35/20
f 28/27/21 26/23/21 27/25/21
f 7/44/22 5/45/22 8/46/22
f 16/47/23 14/48/23 13/49/23
f 32/39/24 30/33/24 31/36/24
f 34/50/25 35/51/25 36/52/25
f 35/51/26 37/53/26 40/54/26
f 36/52/27 40/55/27 39/56/27
f 36/52/28 38/57/28 34/50/28
f 34/50/29 37/58/29 33/59/29
f 41/60/30 44/61/30 42/62/30
f 41/60/31 48/63/31 43/64/31
f 44/61/32 48/65/32 47/66/32
f 44/61/33 46/67/33 42/62/33
f 42/62/34 45/68/34 41/69/34
f 57/70/35 50/71/35 49/72/35
f 58/73/36 52/74/36 50/71/36
f 60/75/37 52/74/37 59/76/37
f 60/77/38 49/78/38 51/79/38
f 52/74/39 49/80/39 50/71/39
f 62/81/40 53/82/40 61/83/40
f 62/81/41 56/84/41 54/85/41
f 63/86/42 55/87/42 56/84/42
f 64/88/43 53/89/43 55/90/43
f 55/91/44 54/85/44 56/84/44
f 67/92/45 66/93/45 65/94/45
f 71/95/46 68/96/46 67/92/46
f 69/97/47 72/98/47 71/95/47
f 65/99/48 70/100/48 69/101/48
f 65/99/49 71/95/49 67/92/49
f 70/102/50 68/96/50 72/98/50
f 73/103/51 76/104/51 74/105/51
f 79/106/52 76/104/52 75/107/52
f 77/108/53 80/109/53 79/106/53
f 77/110/54 74/111/54 78/112/54
f 73/113/55 79/106/55 75/107/55
f 78/114/56 76/104/56 80/109/56
f 59/76/57 57/115/57 60/77/57
f 37/116/58 39/56/58 40/117/58
f 45/118/59 47/66/59 48/119/59
f 64/88/60 62/81/60 61/120/60
f 4/1/1 3/5/1 1/2/1
f 8/4/2 5/121/2 1/2/2
f 4/1/3 7/44/3 8/6/3
f 6/8/4 7/44/4 4/1/4
f 5/9/5 6/8/5 2/3/5
f 10/11/6 12/15/6 11/12/6
f 16/14/7 13/122/7 9/13/7
f 12/15/8 15/18/8 16/16/8
f 10/11/9 14/48/9 15/18/9
f 13/19/10 14/48/10 10/11/10
f 25/21/61 17/123/61 18/22/61
f 26/23/62 18/22/62 20/24/62
f 20/24/63 19/124/63 28/26/63
f 28/27/64 19/125/64 17/28/64
f 20/24/15 18/22/15 17/30/15
f 21/32/65 22/42/65 30/33/65
f 30/33/66 22/42/66 24/35/66
f 31/36/67 24/35/67 23/37/67
f 32/39/68 23/126/68 21/40/68
f 22/42/20 21/127/20 23/43/20
f 28/27/69 25/29/69 26/23/69
f 7/44/22 6/8/22 5/45/22
f 16/47/23 15/18/23 14/48/23
f 32/39/70 29/41/70 30/33/70
f 34/50/25 33/128/25 35/51/25
f 35/51/26 33/128/26 37/53/26
f 36/52/27 35/129/27 40/55/27
f 36/52/28 39/56/28 38/57/28
f 34/50/29 38/57/29 37/58/29
f 41/60/30 43/64/30 44/61/30
f 41/60/31 45/130/31 48/63/31
f 44/61/32 43/131/32 48/65/32
f 44/61/33 47/66/33 46/67/33
f 42/62/34 46/67/34 45/68/34
f 57/70/71 58/73/71 50/71/71
f 58/73/72 59/76/72 52/74/72
f 60/75/73 51/132/73 52/74/73
f 60/77/74 57/115/74 49/78/74
f 52/74/39 51/133/39 49/80/39
f 62/81/75 54/85/75 53/82/75
f 62/81/76 63/86/76 56/84/76
f 63/86/77 64/134/77 55/87/77
f 64/88/78 61/120/78 53/89/78
f 55/91/44 53/135/44 54/85/44
f 67/92/45 68/96/45 66/93/45
f 71/95/46 72/98/46 68/96/46
f 69/97/47 70/136/47 72/98/47
f 65/99/48 66/137/48 70/100/48
f 65/99/49 69/101/49 71/95/49
f 70/102/50 66/138/50 68/96/50
f 73/103/51 75/107/51 76/104/51
f 79/106/52 80/109/52 76/104/52
f 77/108/53 78/139/53 80/109/53
f 77/110/54 73/113/54 74/111/54
f 73/113/55 77/110/55 79/106/55
f 78/114/56 74/140/56 76/104/56
f 59/76/79 58/73/79 57/115/79
f 37/116/58 38/57/58 39/56/58
f 45/118/59 46/67/59 47/66/59
f 64/88/80 63/86/80 62/81/80
