# Blender v2.79 (sub 0) OBJ File: '3DObjectDecoderObjects.blend'
# www.blender.org
o Cube.005_Cube.008
v 0.648256 -0.146874 0.262027
v 0.650098 -0.172852 -0.141728
v 1.052722 -0.156781 0.264510
v 1.054564 -0.182759 -0.139245
v 0.673086 0.850761 0.197952
v 0.674928 0.824784 -0.205804
v 1.079393 0.814877 -0.203321
v 1.077551 0.840854 0.200435
v 0.078534 -1.675797 0.132195
v 0.072102 -1.641357 -0.270882
v 0.483077 -1.675619 0.125754
v 0.476645 -1.641180 -0.277323
v 0.079452 -0.679426 0.217317
v 0.073020 -0.644986 -0.185760
v 0.477563 -0.644809 -0.192202
v 0.483995 -0.679249 0.210876
v 0.698382 1.890138 0.201481
v 0.700817 1.892508 -0.203099
v 1.102850 1.880319 0.203858
v 1.105285 1.882689 -0.200722
v 0.078467 0.389348 0.204371
v 0.072191 0.381710 -0.200105
v 0.483012 0.389638 0.198087
v 0.476736 0.381999 -0.206389
v 0.674149 0.890450 0.195481
v 0.676575 0.892362 -0.209134
v 1.080981 0.879485 -0.206944
v 1.078653 0.882312 0.197752
v 0.079490 -0.615650 0.222780
v 0.073187 -0.614982 -0.181197
v 0.477732 -0.614792 -0.187498
v 0.484034 -0.615317 0.216431
v -0.698594 -0.127581 0.203242
v -0.702939 -0.165871 -0.199506
v -1.103165 -0.127035 0.207554
v -1.107510 -0.165324 -0.195194
v -0.698258 0.867928 0.108604
v -0.702602 0.829638 -0.294145
v -1.107173 0.830185 -0.289832
v -1.102828 0.868475 0.112916
v -0.079978 -1.669598 0.202943
v -0.070652 -1.647623 -0.200947
v -0.484464 -1.669646 0.193601
v -0.475139 -1.647672 -0.210289
v -0.081353 -0.671073 0.257240
v -0.072027 -0.649098 -0.146650
v -0.476513 -0.649146 -0.155992
v -0.485839 -0.671121 0.247898
v -0.695528 1.864704 0.206787
v -0.699448 1.905925 -0.195676
v -1.100102 1.865508 0.210810
v -1.104022 1.906729 -0.191653
v -0.079911 0.397191 0.203548
v -0.070753 0.373928 -0.200274
v -0.484401 0.397269 0.194371
v -0.475243 0.374006 -0.209451
v -0.698518 0.869910 0.104924
v -0.702447 0.909852 -0.297681
v -1.107076 0.902104 -0.294458
v -1.103069 0.875434 0.108803
v -0.081419 -0.606731 0.260730
v -0.072234 -0.621055 -0.142865
v -0.476724 -0.621085 -0.152057
v -0.485907 -0.606609 0.251481
v 0.630000 0.486134 0.420000
v 0.630000 1.886135 0.420000
v 0.630000 0.486134 -0.420000
v 0.630000 1.886135 -0.420000
v -0.630000 0.486134 0.420000
v -0.630000 1.886135 0.420000
v -0.630000 0.486134 -0.420000
v -0.630000 1.886135 -0.420000
v 0.303255 1.981929 0.297578
v 0.299963 2.581804 0.309373
v 0.296043 1.993683 -0.302263
v 0.292751 2.593559 -0.290468
v -0.296692 1.978496 0.304725
v -0.299984 2.578371 0.316519
v -0.303904 1.990250 -0.295117
v -0.307197 2.590125 -0.283322
vt 0.151712 0.164304
vt 0.128453 0.121671
vt 0.152804 0.123501
vt 0.067175 0.157952
vt 0.127361 0.162474
vt 0.210807 0.209629
vt 0.150620 0.205107
vt 0.212991 0.128023
vt 0.214083 0.087220
vt 0.153896 0.082698
vt 0.120318 0.196104
vt 0.141703 0.159716
vt 0.141869 0.195827
vt 0.194969 0.159030
vt 0.066887 0.160679
vt 0.119987 0.123882
vt 0.120152 0.159993
vt 0.120483 0.232215
vt 0.067052 0.196790
vt 0.893013 0.803206
vt 0.953247 0.844041
vt 0.893013 0.844041
vt 0.953247 0.884875
vt 0.893013 0.884875
vt 0.893013 0.925710
vt 0.868643 0.884875
vt 0.808410 0.844041
vt 0.868643 0.844041
vt 0.977617 0.844041
vt 0.977617 0.884875
vt 0.741845 0.545283
vt 0.663028 0.598717
vt 0.663028 0.545283
vt 0.741845 0.652150
vt 0.663028 0.652150
vt 0.741845 0.705584
vt 0.663028 0.705584
vt 0.631139 0.652150
vt 0.552321 0.598717
vt 0.631139 0.598717
vt 0.741845 0.598717
vt 0.773734 0.652150
vt 0.211899 0.168826
vt 0.237342 0.129853
vt 0.236250 0.170656
vt 0.045336 0.160957
vt 0.045501 0.197068
vt 0.094887 0.153073
vt 0.114964 0.123128
vt 0.113861 0.154921
vt 0.049093 0.116713
vt 0.095990 0.121280
vt 0.116067 0.091335
vt 0.161861 0.127695
vt 0.160758 0.159488
vt 0.112759 0.186714
vt 0.159655 0.191281
vt 0.153193 0.158992
vt 0.134495 0.188340
vt 0.135087 0.158002
vt 0.152601 0.189330
vt 0.197943 0.161440
vt 0.197352 0.191779
vt 0.133904 0.218678
vt 0.089745 0.185892
vt 0.090336 0.155553
vt 0.135678 0.127663
vt 0.090927 0.125215
vt 0.893013 0.809899
vt 0.820174 0.859280
vt 0.820174 0.809899
vt 0.893013 0.859280
vt 0.820174 0.908661
vt 0.893013 0.958041
vt 0.893013 0.908661
vt 0.922484 0.908660
vt 0.995323 0.859280
vt 0.995323 0.908660
vt 0.790703 0.859280
vt 0.668850 0.601598
vt 0.627314 0.573439
vt 0.668850 0.573439
vt 0.627314 0.629757
vt 0.627314 0.601598
vt 0.668850 0.629757
vt 0.627314 0.657916
vt 0.685655 0.629757
vt 0.727191 0.601598
vt 0.727191 0.629757
vt 0.610509 0.629757
vt 0.114767 0.168293
vt 0.095916 0.220936
vt 0.095916 0.168293
vt 0.143042 0.168293
vt 0.114767 0.220936
vt 0.161893 0.168293
vt 0.143042 0.220936
vt 0.114767 0.136707
vt 0.143042 0.084063
vt 0.143042 0.136707
vt 0.143042 0.252523
vt 0.705410 0.612195
vt 0.679363 0.568551
vt 0.705410 0.568551
vt 0.653316 0.612195
vt 0.679363 0.612195
vt 0.627270 0.612195
vt 0.653316 0.568551
vt 0.653316 0.655839
vt 0.679363 0.699483
vt 0.653316 0.699483
vt 0.679363 0.655839
vt 0.653316 0.524907
vt 0.922484 0.859280
vt 0.179732 0.161336
vt 0.180835 0.129543
vt 0.072230 0.154563
vt 0.071639 0.184901
vt 0.685655 0.601598
vt 0.068267 0.117149
vt 0.195135 0.195141
vt 0.066721 0.124568
vt 0.067218 0.232901
vt 0.953247 0.803206
vt 0.953247 0.925710
vt 0.808410 0.884875
vt 0.552321 0.652150
vt 0.773734 0.598717
vt 0.047991 0.148506
vt 0.162963 0.095902
vt 0.089154 0.216230
vt 0.820174 0.958041
vt 0.790703 0.908661
vt 0.668850 0.657916
vt 0.610509 0.601598
vt 0.161893 0.220936
vt 0.114767 0.084063
vt 0.114767 0.252523
vt 0.627270 0.568551
vt 0.679363 0.524907
vn -0.0248 -0.9976 0.0641
vn -0.0046 0.0642 0.9979
vn 0.9997 -0.0245 0.0061
vn 0.0046 -0.0642 -0.9979
vn -0.9997 0.0245 -0.0061
vn -0.0009 -0.9964 -0.0851
vn 0.0159 -0.0851 0.9962
vn 0.9999 0.0004 -0.0159
vn -0.0159 0.0851 -0.9962
vn -0.9999 -0.0004 0.0159
vn -0.9997 0.0243 -0.0059
vn 0.0056 0.0061 -1.0000
vn 0.9997 -0.0243 0.0059
vn -0.0057 -0.0059 1.0000
vn 0.0242 0.9997 0.0060
vn -0.9999 -0.0007 0.0156
vn -0.0156 -0.0190 -0.9997
vn 0.9999 0.0007 -0.0156
vn 0.0157 0.0183 0.9997
vn -0.0010 0.9998 -0.0189
vn -0.0319 -0.9995 0.0068
vn 0.0248 0.9976 -0.0641
vn 0.0009 0.9964 0.0851
vn 0.0004 -1.0000 -0.0013
vn -0.0003 -0.9955 0.0946
vn 0.0107 0.0946 0.9955
vn -0.9999 0.0014 0.0107
vn -0.0107 -0.0946 -0.9955
vn 0.9999 -0.0014 -0.0107
vn 0.0014 -0.9985 -0.0543
vn -0.0230 -0.0543 0.9983
vn -0.9997 -0.0001 -0.0231
vn 0.0230 0.0543 -0.9983
vn 0.9997 0.0001 0.0231
vn 0.9999 -0.0020 -0.0099
vn -0.0097 0.1019 -0.9947
vn -0.9999 0.0020 0.0101
vn 0.0097 -0.1025 0.9947
vn 0.0030 0.9948 0.1019
vn 0.9997 -0.0002 0.0228
vn 0.0226 -0.0576 -0.9981
vn -0.9997 0.0002 -0.0227
vn -0.0226 0.0568 0.9981
vn 0.0015 0.9983 -0.0575
vn 1.0000 0.0000 0.0000
vn 0.0000 0.0000 -1.0000
vn -1.0000 0.0000 0.0000
vn 0.0000 0.0000 1.0000
vn 0.0000 -1.0000 0.0000
vn 0.0000 1.0000 0.0000
vn 0.9999 0.0057 -0.0119
vn -0.0120 0.0196 -0.9997
vn -0.9999 -0.0057 0.0119
vn 0.0120 -0.0196 0.9997
vn 0.0055 -0.9998 -0.0197
vn -0.0055 0.9998 0.0197
vn -0.0145 -0.9950 -0.0986
vn 0.0003 0.9955 -0.0946
vn -0.0014 0.9985 0.0543
vn -0.0011 -0.9994 0.0354
vn 0.0060 0.0059 -1.0000
vn -0.0060 -0.0060 1.0000
vn -0.9999 -0.0007 0.0155
vn -0.0155 -0.0190 -0.9997
vn 0.9999 0.0007 -0.0155
vn 0.0155 0.0183 0.9997
vn -0.0201 -0.9998 -0.0048
vn 0.0008 -1.0000 -0.0017
vn 0.9999 -0.0020 -0.0100
vn -0.0099 0.1018 -0.9948
vn -0.9999 0.0020 0.0099
vn 0.0081 -0.1019 0.9948
vn 0.9997 -0.0002 0.0227
vn 0.0227 -0.0576 -0.9981
vn -0.9997 0.0002 -0.0228
vn -0.0228 0.0569 0.9981
vn 0.0186 -0.9976 -0.0662
vn -0.0007 -0.9994 0.0358
s off
f 4/1/1 1/2/1 2/3/1
f 8/4/2 1/2/2 3/5/2
f 4/1/3 8/6/3 3/7/3
f 6/8/4 4/1/4 2/3/4
f 5/9/5 2/3/5 1/10/5
f 10/11/6 11/12/6 9/13/6
f 16/14/7 9/13/7 11/12/7
f 15/15/8 11/16/8 12/17/8
f 10/11/9 15/15/9 12/17/9
f 9/18/10 14/19/10 10/11/10
f 25/20/11 18/21/11 26/22/11
f 26/22/12 20/23/12 27/24/12
f 20/23/13 28/25/13 27/24/13
f 28/26/14 17/27/14 25/28/14
f 20/23/15 17/29/15 19/30/15
f 21/31/16 30/32/16 29/33/16
f 30/32/17 24/34/17 31/35/17
f 31/35/18 23/36/18 32/37/18
f 32/38/19 21/39/19 29/40/19
f 22/41/20 23/42/20 24/34/20
f 28/26/21 26/22/21 27/24/21
f 7/43/22 5/44/22 8/45/22
f 16/46/23 14/19/23 13/47/23
f 32/38/24 30/32/24 31/35/24
f 33/48/25 36/49/25 34/50/25
f 33/48/26 40/51/26 35/52/26
f 35/53/27 39/54/27 36/49/27
f 36/49/28 38/55/28 34/50/28
f 33/56/29 38/55/29 37/57/29
f 41/58/30 44/59/30 42/60/30
f 43/61/31 45/62/31 48/63/31
f 43/64/32 47/65/32 44/59/32
f 44/59/33 46/66/33 42/60/33
f 41/67/34 46/66/34 45/68/34
f 57/69/35 50/70/35 49/71/35
f 58/72/36 52/73/36 50/70/36
f 60/74/37 52/73/37 59/75/37
f 60/76/38 49/77/38 51/78/38
f 52/73/39 49/79/39 50/70/39
f 62/80/40 53/81/40 61/82/40
f 62/80/41 56/83/41 54/84/41
f 63/85/42 55/86/42 56/83/42
f 64/87/43 53/88/43 55/89/43
f 55/90/44 54/84/44 56/83/44
f 67/91/45 66/92/45 65/93/45
f 71/94/46 68/95/46 67/91/46
f 69/96/47 72/97/47 71/94/47
f 65/98/48 70/99/48 69/100/48
f 65/98/49 71/94/49 67/91/49
f 70/101/50 68/95/50 72/97/50
f 73/102/51 76/103/51 74/104/51
f 79/105/52 76/103/52 75/106/52
f 77/107/53 80/108/53 79/105/53
f 77/109/54 74/110/54 78/111/54
f 73/112/55 79/105/55 75/106/55
f 78/113/56 76/103/56 80/108/56
f 60/76/57 58/72/57 57/114/57
f 37/115/58 39/54/58 40/116/58
f 45/117/59 47/65/59 48/118/59
f 64/87/60 62/80/60 61/119/60
f 4/1/1 3/5/1 1/2/1
f 8/4/2 5/120/2 1/2/2
f 4/1/3 7/43/3 8/6/3
f 6/8/4 7/43/4 4/1/4
f 5/9/5 6/8/5 2/3/5
f 10/11/6 12/17/6 11/12/6
f 16/14/7 13/121/7 9/13/7
f 15/15/8 16/122/8 11/16/8
f 10/11/9 14/19/9 15/15/9
f 9/18/10 13/123/10 14/19/10
f 25/20/11 17/124/11 18/21/11
f 26/22/61 18/21/61 20/23/61
f 20/23/13 19/125/13 28/25/13
f 28/26/62 19/126/62 17/27/62
f 20/23/15 18/21/15 17/29/15
f 21/31/63 22/41/63 30/32/63
f 30/32/64 22/41/64 24/34/64
f 31/35/65 24/34/65 23/36/65
f 32/38/66 23/127/66 21/39/66
f 22/41/20 21/128/20 23/42/20
f 28/26/67 25/28/67 26/22/67
f 7/43/22 6/8/22 5/44/22
f 16/46/23 15/15/23 14/19/23
f 32/38/68 29/40/68 30/32/68
f 33/48/25 35/52/25 36/49/25
f 33/48/26 37/129/26 40/51/26
f 35/53/27 40/130/27 39/54/27
f 36/49/28 39/54/28 38/55/28
f 33/56/29 34/50/29 38/55/29
f 41/58/30 43/61/30 44/59/30
f 43/61/31 41/58/31 45/62/31
f 43/64/32 48/131/32 47/65/32
f 44/59/33 47/65/33 46/66/33
f 41/67/34 42/60/34 46/66/34
f 57/69/69 58/72/69 50/70/69
f 58/72/70 59/75/70 52/73/70
f 60/74/71 51/132/71 52/73/71
f 60/76/72 57/114/72 49/77/72
f 52/73/39 51/133/39 49/79/39
f 62/80/73 54/84/73 53/81/73
f 62/80/74 63/85/74 56/83/74
f 63/85/75 64/134/75 55/86/75
f 64/87/76 61/119/76 53/88/76
f 55/90/44 53/135/44 54/84/44
f 67/91/45 68/95/45 66/92/45
f 71/94/46 72/97/46 68/95/46
f 69/96/47 70/136/47 72/97/47
f 65/98/48 66/137/48 70/99/48
f 65/98/49 69/100/49 71/94/49
f 70/101/50 66/138/50 68/95/50
f 73/102/51 75/106/51 76/103/51
f 79/105/52 80/108/52 76/103/52
f 77/107/53 78/139/53 80/108/53
f 77/109/54 73/112/54 74/110/54
f 73/112/55 77/109/55 79/105/55
f 78/113/56 74/140/56 76/103/56
f 60/76/77 59/75/77 58/72/77
f 37/115/58 38/55/58 39/54/58
f 45/117/59 46/66/59 47/65/59
f 64/87/78 63/85/78 62/80/78
