# Blender v2.79 (sub 0) OBJ File: 'RickForAndroid.blend'
# www.blender.org
o Cylinder
v 0.000000 -4.040753 -2.406761
v 0.000000 4.040753 -2.406761
v 1.326897 -4.040753 -2.361629
v 1.326897 4.040753 -2.361629
v 2.624152 -4.040753 -2.227242
v 2.624152 4.040753 -2.227242
v 3.862789 -4.040753 -2.006601
v 3.862789 4.040753 -2.006601
v 5.015137 -4.040753 -1.704635
v 5.015137 4.040753 -1.704635
v 6.055456 -4.040753 -1.328090
v 6.055456 4.040753 -1.328090
v 6.960504 -4.040753 -0.885376
v 6.960504 4.040753 -0.885376
v 7.710068 -4.040753 -0.386385
v 7.710068 4.040753 -0.386385
v 8.287401 -4.040753 0.157739
v 8.287401 4.040753 0.157739
v 8.679606 -4.040753 0.734840
v 8.679606 4.040753 0.734840
v 8.877926 -4.040753 1.332026
v 8.877926 4.040753 1.332026
v -8.877926 -4.040753 1.332033
v -8.877926 4.040753 1.332033
v -8.679609 -4.040753 0.734847
v -8.679609 4.040753 0.734847
v -8.287405 -4.040753 0.157746
v -8.287405 4.040753 0.157746
v -7.710075 -4.040753 -0.386378
v -7.710075 4.040753 -0.386378
v -6.960515 -4.040753 -0.885370
v -6.960515 4.040753 -0.885370
v -6.055468 -4.040753 -1.328084
v -6.055468 4.040753 -1.328084
v -5.015152 -4.040753 -1.704630
v -5.015152 4.040753 -1.704630
v -3.862807 -4.040753 -2.006597
v -3.862807 4.040753 -2.006597
v -2.624172 -4.040753 -2.227239
v -2.624172 4.040753 -2.227239
v -1.326919 -4.040753 -2.361628
v -1.326919 4.040753 -2.361628
vt 0.561637 0.111184
vt 0.496666 0.638484
vt 0.496667 0.111184
vt 0.625459 0.111184
vt 0.561637 0.638484
vt 0.687027 0.111184
vt 0.625459 0.638484
vt 0.745322 0.111184
vt 0.687027 0.638484
vt 0.799463 0.111184
vt 0.745322 0.638484
vt 0.848767 0.111184
vt 0.799463 0.638484
vt 0.892832 0.111184
vt 0.848767 0.638484
vt 0.931655 0.111184
vt 0.892832 0.638484
vt 0.965800 0.111184
vt 0.931655 0.638484
vt 0.996593 0.111184
vt 0.965800 0.638484
vt 0.027533 0.111184
vt -0.003261 0.638484
vt -0.003261 0.111184
vt 0.061678 0.111184
vt 0.027532 0.638484
vt 0.100501 0.111184
vt 0.061678 0.638484
vt 0.144565 0.111184
vt 0.100500 0.638484
vt 0.193870 0.111184
vt 0.144565 0.638484
vt 0.248010 0.111184
vt 0.193869 0.638484
vt 0.306305 0.111184
vt 0.248010 0.638484
vt 0.367873 0.111184
vt 0.306305 0.638484
vt 0.431695 0.111184
vt 0.367873 0.638484
vt 0.431695 0.638484
vt 0.996594 0.638484
vn -0.0685 0.0000 0.9976
vn 0.0000 0.0000 1.0000
vn -0.1393 0.0000 0.9902
vn -0.2146 0.0000 0.9767
vn -0.2972 0.0000 0.9548
vn -0.3904 0.0000 0.9206
vn -0.4978 0.0000 0.8672
vn -0.6222 0.0000 0.7828
vn -0.7610 0.0000 0.6488
vn -0.8966 0.0000 0.4428
vn -0.9490 0.0000 0.3152
vn 0.8966 0.0000 0.4428
vn 0.9490 0.0000 0.3151
vn 0.7610 0.0000 0.6487
vn 0.6222 0.0000 0.7828
vn 0.4978 0.0000 0.8672
vn 0.3904 0.0000 0.9206
vn 0.2972 0.0000 0.9548
vn 0.2146 0.0000 0.9767
vn 0.1393 0.0000 0.9902
vn 0.0685 0.0000 0.9976
s 1
f 3/1/1 2/2/2 1/3/2
f 5/4/3 4/5/1 3/1/1
f 7/6/4 6/7/3 5/4/3
f 9/8/5 8/9/4 7/6/4
f 11/10/6 10/11/5 9/8/5
f 13/12/7 12/13/6 11/10/6
f 15/14/8 14/15/7 13/12/7
f 17/16/9 16/17/8 15/14/8
f 19/18/10 18/19/9 17/16/9
f 21/20/11 20/21/10 19/18/10
f 25/22/12 24/23/13 23/24/13
f 27/25/14 26/26/12 25/22/12
f 29/27/15 28/28/14 27/25/14
f 31/29/16 30/30/15 29/27/15
f 33/31/17 32/32/16 31/29/16
f 35/33/18 34/34/17 33/31/17
f 37/35/19 36/36/18 35/33/18
f 39/37/20 38/38/19 37/35/19
f 41/39/21 40/40/20 39/37/20
f 1/3/2 42/41/21 41/39/21
f 3/1/1 4/5/1 2/2/2
f 5/4/3 6/7/3 4/5/1
f 7/6/4 8/9/4 6/7/3
f 9/8/5 10/11/5 8/9/4
f 11/10/6 12/13/6 10/11/5
f 13/12/7 14/15/7 12/13/6
f 15/14/8 16/17/8 14/15/7
f 17/16/9 18/19/9 16/17/8
f 19/18/10 20/21/10 18/19/9
f 21/20/11 22/42/11 20/21/10
f 25/22/12 26/26/12 24/23/13
f 27/25/14 28/28/14 26/26/12
f 29/27/15 30/30/15 28/28/14
f 31/29/16 32/32/16 30/30/15
f 33/31/17 34/34/17 32/32/16
f 35/33/18 36/36/18 34/34/17
f 37/35/19 38/38/19 36/36/18
f 39/37/20 40/40/20 38/38/19
f 41/39/21 42/41/21 40/40/20
f 1/3/2 2/2/2 42/41/21
