# Blender v2.79 (sub 0) OBJ File: ''
# www.blender.org
o Cone
v 0.000000 -1.000000 -1.000000
v 0.000000 1.000000 0.000000
v 0.707107 -1.000000 -0.707107
v 1.000000 -1.000000 0.000000
v 0.707107 -1.000000 0.707107
v -0.000000 -1.000000 1.000000
v -0.707107 -1.000000 0.707107
v -1.000000 -1.000000 -0.000000
v -0.707107 -1.000000 -0.707107
vt 0.418898 0.527629
vt 0.519478 0.000117
vt 0.596620 0.531844
vt 0.765304 0.473764
vt 0.905188 0.360191
vt 0.999883 0.204434
vt 0.000117 0.000117
vt 0.030540 0.181444
vt 0.118246 0.341528
vt 0.252960 0.461612
vt 0.303586 0.976396
vt 0.000117 0.846258
vt 0.125818 0.532078
vt 0.303586 0.532078
vt 0.429288 0.662216
vt 0.429288 0.846258
vt 0.125818 0.976396
vt 0.000117 0.662216
vn 0.3474 0.4194 -0.8387
vn 0.8387 0.4194 -0.3474
vn 0.8387 0.4194 0.3474
vn 0.3474 0.4194 0.8387
vn -0.3474 0.4194 0.8387
vn -0.8387 0.4194 0.3474
vn -0.8387 0.4194 -0.3474
vn -0.3474 0.4194 -0.8387
vn 0.0000 -1.0000 0.0000
s off
f 1/1/1 2/2/1 3/3/1
f 3/3/2 2/2/2 4/4/2
f 4/4/3 2/2/3 5/5/3
f 5/5/4 2/2/4 6/6/4
f 6/7/5 2/2/5 7/8/5
f 7/8/6 2/2/6 8/9/6
f 8/9/7 2/2/7 9/10/7
f 9/10/8 2/2/8 1/1/8
f 5/11/9 7/12/9 9/13/9
f 9/13/9 1/14/9 3/15/9
f 3/15/9 4/16/9 9/13/9
f 5/11/9 6/17/9 7/12/9
f 7/12/9 8/18/9 9/13/9
f 9/13/9 4/16/9 5/11/9
