# Blender v2.79 (sub 0) OBJ File: '3DObjectDecoderObjects.blend'
# www.blender.org
o Icosphere
v -0.859087 -1.554464 0.013086
v -0.694144 -1.351832 0.313411
v -0.895327 -1.430696 0.631912
v -1.361287 -1.504040 0.127831
v -1.016946 -1.540028 -0.555248
v -0.825218 -1.320018 -0.334350
v -0.781440 -1.254083 0.417844
v -1.277753 -1.317183 0.220445
v -1.372961 -1.264987 -0.087257
v -0.921421 -1.281688 -0.242079
v -0.818308 -1.039620 -0.051538
v -1.111859 -1.122539 -0.073775
v 0.068801 -1.498003 1.016383
v 0.227022 -1.404006 1.001236
v 0.325786 -1.440589 1.145404
v 0.025510 -1.474612 1.251394
v -0.202298 -1.491307 0.979321
v -0.073000 -1.389248 0.938184
v 0.255490 -1.358662 1.057594
v 0.080298 -1.387932 1.232805
v -0.068266 -1.363720 1.216889
v -0.051347 -1.371467 0.996105
v 0.048754 -1.259176 0.987149
v -0.014599 -1.297641 1.108128
v 0.920729 -1.403134 0.591207
v 0.789571 -1.604910 0.472932
v 0.837080 -1.605632 0.377928
v 1.046169 -1.381634 0.482170
v 0.975731 -1.162368 0.615491
v 0.823770 -1.231542 0.579780
v 0.891121 -1.287001 0.428422
v 1.025501 -1.231874 0.456686
v 0.982221 -1.131448 0.530336
v 0.840766 -1.148883 0.521631
v 0.883946 -1.285439 0.451036
v 0.859950 -0.949432 0.453244
vt 0.634612 0.134431
vt 0.619684 0.156770
vt 0.586493 0.146089
vt 0.651371 0.158599
vt 0.630492 0.092007
vt 0.681065 0.138474
vt 0.635337 0.177164
vt 0.613101 0.169061
vt 0.617154 0.076579
vt 0.644912 0.062089
vt 0.651328 0.173477
vt 0.612833 0.245228
vt 0.654469 0.245228
vt 0.639551 0.203373
vt 0.634612 0.134431
vt 0.619684 0.156770
vt 0.586493 0.146089
vt 0.651371 0.158599
vt 0.630492 0.092007
vt 0.681065 0.138474
vt 0.635337 0.177164
vt 0.613101 0.169061
vt 0.617154 0.076579
vt 0.644912 0.062089
vt 0.651328 0.173477
vt 0.612833 0.245228
vt 0.654469 0.245228
vt 0.639551 0.203373
vt 0.634612 0.134431
vt 0.619684 0.156770
vt 0.586493 0.146089
vt 0.651371 0.158599
vt 0.630492 0.092007
vt 0.681065 0.138474
vt 0.635337 0.177164
vt 0.613101 0.169061
vt 0.617154 0.076579
vt 0.644912 0.062089
vt 0.651328 0.173477
vt 0.612833 0.245228
vt 0.654469 0.245228
vt 0.639551 0.203373
vn 0.4777 -0.8778 -0.0345
vn 0.9692 -0.1534 0.1924
vn 0.0834 -0.1964 0.9770
vn 0.6340 0.3175 -0.7051
vn -0.7834 -0.5767 0.2315
vn 0.0071 -0.3433 -0.9392
vn 0.3980 0.8990 -0.1823
vn 0.4143 0.7138 0.5646
vn -0.6699 0.5063 0.5430
vn -0.8549 0.4333 -0.2853
vn -0.2456 0.7075 -0.6626
vn -0.3421 0.9060 -0.2493
vn 0.1573 -0.8778 -0.4523
vn 0.5602 -0.1534 -0.8140
vn 0.9302 -0.1964 0.3099
vn -0.3967 0.3175 -0.8613
vn -0.0973 -0.5767 0.8112
vn -0.8597 -0.3433 -0.3782
vn -0.0099 0.8990 -0.4377
vn 0.6825 0.7138 -0.1570
vn 0.2336 0.5063 0.8301
vn -0.6003 0.4333 0.6722
vn -0.7057 0.7075 -0.0366
vn -0.3643 0.9060 0.2156
vn 0.1705 -0.4195 0.8916
vn -0.5554 -0.8015 0.2215
vn -0.1220 -0.7573 -0.6415
vn -0.8514 0.1563 0.5006
vn 0.9381 -0.3353 -0.0866
vn 0.3870 0.4807 0.7869
vn -0.9199 0.0965 -0.3801
vn -0.4752 0.1438 -0.8680
vn 0.8329 0.2173 -0.5089
vn 0.6810 0.6652 0.3060
vn -0.9066 0.3554 0.2273
vn -0.2606 0.9503 -0.1700
s 1
f 1/1/1 2/2/2 3/3/3
f 2/2/2 1/1/1 6/4/4
f 1/1/1 3/3/3 4/5/5
f 1/1/1 4/5/5 5/6/6
f 1/1/1 5/6/6 6/4/4
f 2/2/2 6/4/4 11/7/7
f 3/3/3 2/2/2 7/8/8
f 4/5/5 3/3/3 8/9/9
f 5/6/6 4/5/5 9/10/10
f 6/4/4 5/6/6 10/11/11
f 2/2/2 11/7/7 7/8/8
f 3/3/3 7/8/8 8/12/9
f 4/5/5 8/9/9 9/10/10
f 5/6/6 9/13/10 10/11/11
f 6/4/4 10/11/11 11/7/7
f 7/8/8 11/7/7 12/14/12
f 8/12/9 7/8/8 12/14/12
f 9/13/10 8/12/9 12/14/12
f 10/11/11 9/13/10 12/14/12
f 11/7/7 10/11/11 12/14/12
f 13/15/13 14/16/14 15/17/15
f 14/16/14 13/15/13 18/18/16
f 13/15/13 15/17/15 16/19/17
f 13/15/13 16/19/17 17/20/18
f 13/15/13 17/20/18 18/18/16
f 14/16/14 18/18/16 23/21/19
f 15/17/15 14/16/14 19/22/20
f 16/19/17 15/17/15 20/23/21
f 17/20/18 16/19/17 21/24/22
f 18/18/16 17/20/18 22/25/23
f 14/16/14 23/21/19 19/22/20
f 15/17/15 19/22/20 20/26/21
f 16/19/17 20/23/21 21/24/22
f 17/20/18 21/27/22 22/25/23
f 18/18/16 22/25/23 23/21/19
f 19/22/20 23/21/19 24/28/24
f 20/26/21 19/22/20 24/28/24
f 21/27/22 20/26/21 24/28/24
f 22/25/23 21/27/22 24/28/24
f 23/21/19 22/25/23 24/28/24
f 25/29/25 26/30/26 27/31/27
f 26/30/26 25/29/25 30/32/28
f 25/29/25 27/31/27 28/33/29
f 25/29/25 28/33/29 29/34/30
f 25/29/25 29/34/30 30/32/28
f 26/30/26 30/32/28 35/35/31
f 27/31/27 26/30/26 31/36/32
f 28/33/29 27/31/27 32/37/33
f 29/34/30 28/33/29 33/38/34
f 30/32/28 29/34/30 34/39/35
f 26/30/26 35/35/31 31/36/32
f 27/31/27 31/36/32 32/40/33
f 28/33/29 32/37/33 33/38/34
f 29/34/30 33/41/34 34/39/35
f 30/32/28 34/39/35 35/35/31
f 31/36/32 35/35/31 36/42/36
f 32/40/33 31/36/32 36/42/36
f 33/41/34 32/40/33 36/42/36
f 34/39/35 33/41/34 36/42/36
f 35/35/31 34/39/35 36/42/36
