# Blender v2.79 (sub 0) OBJ File: '3DObjectDecoder2.blend'
# www.blender.org
o Sphere.001
v 0.239375 24.557007 -0.116883
v -0.000000 -0.309017 -0.364330
v 0.000000 20.952816 -0.294931
v 0.000000 24.557007 -0.255086
v 0.333983 0.309017 -0.171505
v 0.333983 -0.309017 -0.171505
v 0.000000 9.028502 -0.364330
v 0.273881 20.952816 -0.136805
v 0.333983 0.309017 0.214146
v 0.333983 -0.309017 0.214146
v -0.333983 9.028502 -0.171505
v 0.273881 20.952816 0.179446
v -0.000000 0.309017 0.406971
v -0.000000 -0.309017 0.406971
v -0.333983 9.028502 0.214146
v -0.000000 9.028502 0.406971
v -0.000000 20.952816 0.337572
v -0.273881 20.952816 0.179446
v -0.333983 0.309017 0.214146
v -0.333983 -0.309017 0.214146
v 0.333983 9.028502 0.214146
v -0.273881 20.952816 -0.136805
v -0.333983 0.309017 -0.171505
v -0.333983 -0.309017 -0.171505
v 0.333983 9.028502 -0.171505
v 0.000000 0.309017 -0.364330
v 0.239375 24.557007 0.159524
v -0.000000 24.557007 0.297727
v -0.239375 24.557007 0.159523
v -0.239375 24.557007 -0.116883
v 0.213671 26.558634 -0.004988
v 0.000000 26.677475 -0.118549
v 0.213671 26.320951 0.222135
v -0.000000 26.202112 0.335696
v -0.213671 26.320951 0.222135
v -0.213671 26.558634 -0.004988
v 0.215557 27.344984 0.772289
v 0.000000 27.453852 0.648013
v 0.215557 27.127249 1.020840
v -0.000000 27.018379 1.145117
v -0.215557 27.127249 1.020840
v -0.215557 27.344984 0.772289
v 0.189053 27.677629 3.039809
v 0.000000 27.784178 2.990973
v 0.189053 27.464537 3.137484
v -0.000000 27.357990 3.186321
v -0.189053 27.464537 3.137484
v -0.189053 27.677629 3.039809
v 0.526936 28.049156 5.285858
v 0.000000 28.206085 5.546490
v 0.526936 27.735302 4.764601
v -0.000000 27.578375 4.503973
v -0.526936 27.735302 4.764601
v -0.526936 28.049156 5.285858
v 0.847230 27.988890 5.755586
v 0.000000 28.241207 6.174641
v 0.847230 27.484261 4.917487
v -0.000000 27.231947 4.498437
v -0.847230 27.484261 4.917487
v -0.847230 27.988890 5.755586
v 0.716406 27.949930 5.657154
v 0.000000 28.163286 6.011501
v 0.716406 27.523222 4.948468
v -0.000000 27.309868 4.594126
v -0.716406 27.523222 4.948468
v -0.716406 27.949930 5.657154
v 0.975674 27.560183 6.148582
v 0.000000 27.850752 6.631167
v 0.975674 26.979048 5.183423
v -0.000000 26.688480 4.700844
v -0.975674 26.979048 5.183423
v -0.975674 27.560183 6.148582
v 0.010874 26.728067 6.008633
v 0.000000 26.731306 6.014010
v 0.010874 26.721590 5.997875
v -0.000000 26.718351 5.992497
v -0.010874 26.721590 5.997875
v -0.010874 26.728067 6.008633
vt 0.669369 0.586449
vt 0.620620 0.624360
vt 0.668598 0.583838
vt 0.706212 0.562711
vt 0.707952 0.558034
vt 0.708718 0.560655
vt 0.607873 0.642298
vt 0.600308 0.649959
vt 0.599739 0.648660
vt 0.619967 0.622239
vt 0.667822 0.581231
vt 0.605651 0.634977
vt 0.599225 0.642923
vt 0.598389 0.641420
vt 0.672409 0.596931
vt 0.623127 0.632941
vt 0.671656 0.594304
vt 0.705446 0.560091
vt 0.707186 0.555414
vt 0.607310 0.640359
vt 0.599498 0.644892
vt 0.606744 0.638538
vt 0.622515 0.630772
vt 0.670898 0.591681
vt 0.606191 0.636766
vt 0.704680 0.557471
vt 0.703914 0.554851
vt 0.706420 0.552794
vt 0.621261 0.626483
vt 0.707743 0.567952
vt 0.706977 0.565332
vt 0.705654 0.550175
vt 0.621892 0.628619
vt 0.670136 0.589064
vt 0.709484 0.563275
vt 0.710250 0.565896
vt 0.623726 0.635115
vt 0.608389 0.644273
vt 0.703149 0.552232
vt 0.599506 0.647093
vt 0.601296 0.651379
vt 0.596872 0.650928
vt 0.597087 0.652426
vt 0.596299 0.649706
vt 0.595370 0.648481
vt 0.594371 0.645374
vt 0.594666 0.647124
vt 0.587809 0.656382
vt 0.587170 0.655185
vt 0.586605 0.652559
vt 0.586766 0.653912
vt 0.588423 0.657706
vt 0.597088 0.654408
vt 0.588751 0.659291
vt 0.580844 0.668921
vt 0.579510 0.666889
vt 0.583112 0.668397
vt 0.579136 0.663984
vt 0.580298 0.660870
vt 0.580546 0.656171
vt 0.579732 0.652196
vt 0.579814 0.670646
vt 0.578063 0.668232
vt 0.583121 0.672217
vt 0.577761 0.664524
vt 0.578633 0.660844
vt 0.579303 0.656353
vt 0.578063 0.651305
vt 0.577305 0.664234
vt 0.578290 0.660495
vt 0.577789 0.652207
vt 0.578952 0.656407
vt 0.577442 0.668816
vt 0.579695 0.671437
vt 0.864390 0.884209
vt 0.853420 0.851235
vt 0.869438 0.867559
vt 0.880930 0.894114
vt 0.902271 0.868714
vt 0.899675 0.894114
vt 0.930968 0.918887
vt 0.923439 0.887113
vt 0.935021 0.888308
vt 0.931257 0.834181
vt 0.924421 0.863646
vt 0.917010 0.834181
vt 0.934114 0.861599
vt 0.882372 0.871502
vt 0.902644 0.873484
vt 0.902360 0.872736
vt 0.880179 0.834929
vt 0.880692 0.835251
vt 0.879849 0.834181
vt 0.881168 0.834799
vt 0.914497 0.917784
vt 0.902689 0.874391
vt 0.608862 0.646222
vt 0.589039 0.660935
vt 0.582801 0.672961
vt 0.849256 0.872081
vt 0.902340 0.875100
vn 0.8660 0.0029 0.5000
vn 0.0000 0.0084 0.9999
vn 0.0000 0.0029 1.0000
vn 0.0000 0.0000 -1.0000
vn 0.8660 0.0000 -0.5000
vn 0.0000 0.0369 -0.9993
vn -0.8417 0.1906 -0.5052
vn 0.0000 0.4485 -0.8938
vn -0.8660 0.0084 0.5000
vn -0.8660 0.0029 0.5000
vn -0.8687 0.0041 0.4952
vn 0.0000 -0.3277 0.9447
vn -0.9310 -0.1530 0.3313
vn -0.8660 0.0084 -0.5000
vn -0.8660 0.0029 -0.5000
vn 0.8660 0.0000 0.5000
vn 0.8626 0.0256 -0.5052
vn 0.9310 -0.1530 0.3313
vn 0.8687 0.0041 0.4952
vn 0.0000 0.0084 -0.9999
vn 0.0000 0.0029 -1.0000
vn 0.0000 -0.0060 1.0000
vn 0.0000 0.0000 1.0000
vn 0.8660 0.0084 0.5000
vn -0.8660 0.0000 0.5000
vn -0.8660 0.0000 -0.5000
vn 0.8660 0.0084 -0.5000
vn 0.8660 0.0029 -0.5000
vn -0.8626 0.0256 -0.5052
vn 0.8417 0.1906 -0.5052
vn 0.0000 0.8745 -0.4850
vn -0.8469 0.4883 -0.2105
vn 0.8469 0.4883 -0.2105
vn 0.9273 -0.3228 0.1894
vn -0.9273 -0.3228 0.1894
vn 0.0000 -0.9110 0.4123
vn 0.8647 0.4816 -0.1421
vn 0.8411 -0.5403 0.0236
vn -0.8411 -0.5403 0.0236
vn 0.0000 -0.9864 0.1646
vn 0.0000 0.9830 -0.1836
vn -0.8647 0.4816 -0.1421
vn -0.4700 0.8531 -0.2265
vn 0.0000 0.9956 -0.0936
vn -0.8315 0.1700 -0.5289
vn 0.4700 0.8531 -0.2265
vn 0.8315 0.1700 -0.5289
vn 0.0000 -0.8091 -0.5876
vn -0.7993 0.0606 0.5978
vn 0.0000 0.3081 0.9513
vn -0.8535 -0.5005 -0.1450
vn 0.7993 0.0606 0.5978
vn 0.8535 -0.5005 -0.1450
vn 0.0000 -0.8430 -0.5378
vn 0.6010 -0.4575 0.6553
vn 0.5414 -0.8324 0.1186
vn -0.5414 -0.8324 0.1186
vn 0.0000 -0.9939 -0.1099
vn 0.0000 -0.2409 0.9705
vn -0.6010 -0.4575 0.6553
vn -0.8443 -0.4638 -0.2683
vn -0.8379 0.0717 0.5410
vn 0.8379 0.0717 0.5410
vn 0.8443 -0.4638 -0.2683
vn 0.0000 -0.7366 -0.6764
vn 0.0000 0.3348 0.9423
vn 0.0000 -0.9997 0.0230
vn -0.4313 -0.8709 0.2355
vn -0.4322 -0.6124 0.6619
vn 0.0000 -0.4828 0.8757
vn 0.4322 -0.6124 0.6619
vn 0.4313 -0.8709 0.2355
s 1
f 21/1/1 17/2/2 16/3/3
f 26/4/4 6/5/5 2/6/4
f 4/7/6 36/8/7 32/9/8
f 16/3/3 18/10/9 15/11/10
f 29/12/11 34/13/12 35/14/13
f 15/15/10 22/16/14 11/17/15
f 5/18/5 10/19/16 6/5/5
f 1/20/17 33/21/18 27/22/19
f 11/17/15 3/23/20 7/24/21
f 27/22/19 34/13/12 28/25/22
f 9/26/16 16/3/3 13/27/23
f 9/26/16 14/28/23 10/19/16
f 17/2/2 29/12/11 18/10/9
f 5/18/5 21/1/1 9/26/16
f 12/29/24 28/25/22 17/2/2
f 19/30/25 11/17/15 23/31/26
f 13/27/23 20/32/25 14/28/23
f 8/33/27 27/22/19 12/29/24
f 26/4/4 25/34/28 5/18/5
f 3/23/20 1/20/17 8/33/27
f 23/31/26 7/24/21 26/4/4
f 19/30/25 24/35/26 20/36/25
f 18/37/9 30/38/29 22/16/14
f 13/27/23 15/11/10 19/39/25
f 22/16/14 4/7/6 3/23/20
f 7/24/21 8/33/27 25/34/28
f 23/31/26 2/6/4 24/35/26
f 4/7/6 31/40/30 1/20/17
f 25/34/28 12/29/24 21/1/1
f 30/38/29 35/41/13 36/8/7
f 36/8/7 38/42/31 32/9/8
f 35/41/13 42/43/32 36/8/7
f 31/40/30 38/42/31 37/44/33
f 33/21/18 37/44/33 39/45/34
f 34/13/12 41/46/35 35/14/13
f 34/13/12 39/45/34 40/47/36
f 39/45/34 43/48/37 45/49/38
f 40/47/36 47/50/39 41/46/35
f 40/47/36 45/49/38 46/51/40
f 42/43/32 44/52/41 38/42/31
f 41/53/35 48/54/42 42/43/32
f 37/44/33 44/52/41 43/48/37
f 44/52/41 54/55/43 50/56/44
f 48/54/42 53/57/45 54/55/43
f 44/52/41 49/58/46 43/48/37
f 43/48/37 51/59/47 45/49/38
f 47/50/39 52/60/48 53/61/45
f 45/49/38 52/60/48 46/51/40
f 50/56/44 60/62/49 56/63/50
f 54/55/43 59/64/51 60/62/49
f 50/56/44 55/65/52 49/58/46
f 49/58/46 57/66/53 51/59/47
f 53/61/45 58/67/54 59/68/51
f 51/59/47 58/67/54 52/60/48
f 57/66/53 61/69/55 63/70/56
f 58/67/54 65/71/57 59/68/51
f 58/67/54 63/70/56 64/72/58
f 60/62/49 62/73/59 56/63/50
f 59/64/51 66/74/60 60/62/49
f 55/65/52 62/73/59 61/69/55
f 66/75/60 71/76/61 72/77/62
f 62/78/59 67/79/63 61/80/55
f 61/81/55 69/82/64 63/83/56
f 65/84/57 70/85/65 71/86/61
f 63/83/56 70/85/65 64/87/58
f 62/78/59 72/77/62 68/88/66
f 71/86/61 76/89/67 77/90/68
f 69/82/64 76/89/67 70/85/65
f 68/88/66 78/91/69 74/92/70
f 72/77/62 77/93/68 78/91/69
f 68/88/66 73/94/71 67/79/63
f 67/95/63 75/96/72 69/82/64
f 21/1/1 12/29/24 17/2/2
f 26/4/4 5/18/5 6/5/5
f 4/7/6 30/38/29 36/8/7
f 16/3/3 17/2/2 18/10/9
f 29/12/11 28/25/22 34/13/12
f 15/15/10 18/37/9 22/16/14
f 5/18/5 9/26/16 10/19/16
f 1/20/17 31/40/30 33/21/18
f 11/17/15 22/16/14 3/23/20
f 27/22/19 33/21/18 34/13/12
f 9/26/16 21/1/1 16/3/3
f 9/26/16 13/27/23 14/28/23
f 17/2/2 28/25/22 29/12/11
f 5/18/5 25/34/28 21/1/1
f 12/29/24 27/22/19 28/25/22
f 19/30/25 15/15/10 11/17/15
f 13/27/23 19/39/25 20/32/25
f 8/33/27 1/20/17 27/22/19
f 26/4/4 7/24/21 25/34/28
f 3/23/20 4/7/6 1/20/17
f 23/31/26 11/17/15 7/24/21
f 19/30/25 23/31/26 24/35/26
f 18/37/9 29/97/11 30/38/29
f 13/27/23 16/3/3 15/11/10
f 22/16/14 30/38/29 4/7/6
f 7/24/21 3/23/20 8/33/27
f 23/31/26 26/4/4 2/6/4
f 4/7/6 32/9/8 31/40/30
f 25/34/28 8/33/27 12/29/24
f 30/38/29 29/97/11 35/41/13
f 36/8/7 42/43/32 38/42/31
f 35/41/13 41/53/35 42/43/32
f 31/40/30 32/9/8 38/42/31
f 33/21/18 31/40/30 37/44/33
f 34/13/12 40/47/36 41/46/35
f 34/13/12 33/21/18 39/45/34
f 39/45/34 37/44/33 43/48/37
f 40/47/36 46/51/40 47/50/39
f 40/47/36 39/45/34 45/49/38
f 42/43/32 48/54/42 44/52/41
f 41/53/35 47/98/39 48/54/42
f 37/44/33 38/42/31 44/52/41
f 44/52/41 48/54/42 54/55/43
f 48/54/42 47/98/39 53/57/45
f 44/52/41 50/56/44 49/58/46
f 43/48/37 49/58/46 51/59/47
f 47/50/39 46/51/40 52/60/48
f 45/49/38 51/59/47 52/60/48
f 50/56/44 54/55/43 60/62/49
f 54/55/43 53/57/45 59/64/51
f 50/56/44 56/63/50 55/65/52
f 49/58/46 55/65/52 57/66/53
f 53/61/45 52/60/48 58/67/54
f 51/59/47 57/66/53 58/67/54
f 57/66/53 55/65/52 61/69/55
f 58/67/54 64/72/58 65/71/57
f 58/67/54 57/66/53 63/70/56
f 60/62/49 66/74/60 62/73/59
f 59/64/51 65/99/57 66/74/60
f 55/65/52 56/63/50 62/73/59
f 66/75/60 65/100/57 71/76/61
f 62/78/59 68/88/66 67/79/63
f 61/81/55 67/95/63 69/82/64
f 65/84/57 64/87/58 70/85/65
f 63/83/56 69/82/64 70/85/65
f 62/78/59 66/75/60 72/77/62
f 71/86/61 70/85/65 76/89/67
f 69/82/64 75/96/72 76/89/67
f 68/88/66 72/77/62 78/91/69
f 72/77/62 71/76/61 77/93/68
f 68/88/66 74/92/70 73/94/71
f 67/95/63 73/101/71 75/96/72
