# Blender v2.79 (sub 0) OBJ File: ''
# www.blender.org
mtllib map_v_i.mtl
o Cube_Cube.001
v 0.017843 0.075440 -1.625937
v 0.017843 2.075440 -1.625937
v 0.017843 0.075440 -3.625937
v 0.017843 2.075440 -3.625937
v 2.017843 0.075440 -1.625937
v 2.017843 2.075440 -1.625937
v 2.017843 0.075440 -3.625937
v 2.017843 2.075440 -3.625937
vt 0.654940 0.994487
vt 0.404983 0.744530
vt 0.654940 0.744530
vt 0.155026 0.244616
vt 0.404983 0.494573
vt 0.155026 0.494573
vt 0.404983 0.244616
vt 0.654940 0.494573
vt 0.654940 0.244616
vt 0.904897 0.494573
vt 0.404983 -0.005340
vt 0.404983 0.994487
vt 0.904896 0.244616
vt 0.654940 -0.005340
vn -1.0000 0.0000 0.0000
vn 0.0000 0.0000 -1.0000
vn 1.0000 0.0000 0.0000
vn 0.0000 0.0000 1.0000
vn 0.0000 -1.0000 0.0000
vn 0.0000 1.0000 0.0000
usemtl Material.002
s off
f 2/1/1 3/2/1 1/3/1
f 4/4/2 7/5/2 3/6/2
f 8/7/3 5/8/3 7/5/3
f 6/9/4 1/10/4 5/8/4
f 7/5/5 1/3/5 3/2/5
f 4/11/6 6/9/6 8/7/6
f 2/1/1 4/12/1 3/2/1
f 4/4/2 8/7/2 7/5/2
f 8/7/3 6/9/3 5/8/3
f 6/9/4 2/13/4 1/10/4
f 7/5/5 5/8/5 1/3/5
f 4/11/6 2/14/6 6/9/6
o Plane.001
v -9.211045 0.000000 9.211045
v 9.211045 0.000000 9.211045
v -9.211045 0.000000 -9.211045
v 9.211045 0.000000 -9.211045
vt 0.714021 0.049011
vt 0.310004 0.799032
vt 0.310004 0.049011
vt 0.714021 0.799032
vn 0.0000 1.0000 0.0000
usemtl Material.001
s off
f 10/15/7 11/16/7 9/17/7
f 10/15/7 12/18/7 11/16/7
