# Blender v2.79 (sub 0) OBJ File: '3DObjectDecoderObjects.blend'
# www.blender.org
o Cylinder.012
v -1.000000 -3.032424 -0.090374
v -1.000000 0.575945 -0.090374
v -0.921734 -3.032424 -0.045187
v -0.921734 0.575945 -0.045187
v -0.921734 -3.032424 0.045187
v -0.921734 0.575945 0.045187
v -1.000000 -3.032424 0.090374
v -1.000000 0.575945 0.090374
v -1.078266 -3.032424 0.045187
v -1.078266 0.575945 0.045187
v -1.078266 -3.032424 -0.045187
v -1.078266 0.575945 -0.045187
vt 0.982823 0.763376
vt 0.797381 0.948819
vt 0.797381 0.763376
vt 0.982823 0.763376
vt 0.797381 0.948819
vt 0.797381 0.763376
vt 0.982823 0.763376
vt 0.797381 0.948819
vt 0.797381 0.763376
vt 0.982823 0.763376
vt 0.797381 0.948819
vt 0.797381 0.763376
vt 0.970401 0.902458
vt 0.890102 0.763376
vt 0.809803 0.902458
vt 0.982823 0.763376
vt 0.797381 0.948819
vt 0.797381 0.763376
vt 0.982823 0.763376
vt 0.797381 0.948819
vt 0.797381 0.763376
vt 0.809803 0.809737
vt 0.809803 0.902458
vt 0.970401 0.902458
vt 0.982823 0.948819
vt 0.982823 0.948819
vt 0.982823 0.948819
vt 0.982823 0.948819
vt 0.890102 0.948819
vt 0.970401 0.809737
vt 0.809803 0.809737
vt 0.982823 0.948819
vt 0.982823 0.948819
vt 0.890102 0.948819
vt 0.970401 0.809737
vt 0.890102 0.763376
vn 0.5000 0.0000 -0.8660
vn 1.0000 0.0000 0.0000
vn 0.5000 0.0000 0.8660
vn -0.5000 0.0000 0.8660
vn 0.0000 1.0000 0.0000
vn -1.0000 0.0000 0.0000
vn -0.5000 0.0000 -0.8660
vn 0.0000 -1.0000 0.0000
s off
f 2/1/1 3/2/1 1/3/1
f 4/4/2 5/5/2 3/6/2
f 6/7/3 7/8/3 5/9/3
f 8/10/4 9/11/4 7/12/4
f 2/13/5 10/14/5 6/15/5
f 10/16/6 11/17/6 9/18/6
f 12/19/7 1/20/7 11/21/7
f 9/22/8 11/23/8 3/24/8
f 2/1/1 4/25/1 3/2/1
f 4/4/2 6/26/2 5/5/2
f 6/7/3 8/27/3 7/8/3
f 8/10/4 10/28/4 9/11/4
f 6/15/5 4/29/5 2/13/5
f 2/13/5 12/30/5 10/14/5
f 10/14/5 8/31/5 6/15/5
f 10/16/6 12/32/6 11/17/6
f 12/19/7 2/33/7 1/20/7
f 11/23/8 1/34/8 3/24/8
f 3/24/8 5/35/8 7/36/8
f 7/36/8 9/22/8 3/24/8
o Cylinder.011
v -3.000000 -3.032424 -0.090374
v -3.000000 0.575945 -0.090374
v -2.921734 -3.032424 -0.045187
v -2.921734 0.575945 -0.045187
v -2.921734 -3.032424 0.045187
v -2.921734 0.575945 0.045187
v -3.000000 -3.032424 0.090374
v -3.000000 0.575945 0.090374
v -3.078266 -3.032424 0.045187
v -3.078266 0.575945 0.045187
v -3.078266 -3.032424 -0.045187
v -3.078266 0.575945 -0.045187
vt 0.958882 0.781417
vt 0.838789 0.901510
vt 0.838789 0.781417
vt 0.958882 0.781417
vt 0.838789 0.901510
vt 0.838789 0.781417
vt 0.958882 0.781417
vt 0.838789 0.901510
vt 0.838789 0.781417
vt 0.958882 0.781417
vt 0.838789 0.901510
vt 0.838789 0.781417
vt 0.950837 0.871487
vt 0.898835 0.781417
vt 0.846834 0.871487
vt 0.958882 0.781417
vt 0.838789 0.901510
vt 0.838789 0.781417
vt 0.958882 0.781417
vt 0.838789 0.901510
vt 0.838789 0.781417
vt 0.846834 0.811440
vt 0.846834 0.871487
vt 0.950837 0.871487
vt 0.958882 0.901510
vt 0.958882 0.901510
vt 0.958882 0.901510
vt 0.958882 0.901510
vt 0.898835 0.901510
vt 0.950837 0.811440
vt 0.846834 0.811440
vt 0.958882 0.901510
vt 0.958882 0.901510
vt 0.898835 0.901510
vt 0.950837 0.811440
vt 0.898835 0.781417
vn 0.5000 0.0000 -0.8660
vn 1.0000 0.0000 0.0000
vn 0.5000 0.0000 0.8660
vn -0.5000 0.0000 0.8660
vn 0.0000 1.0000 0.0000
vn -1.0000 0.0000 0.0000
vn -0.5000 0.0000 -0.8660
vn 0.0000 -1.0000 0.0000
s off
f 14/37/9 15/38/9 13/39/9
f 16/40/10 17/41/10 15/42/10
f 18/43/11 19/44/11 17/45/11
f 20/46/12 21/47/12 19/48/12
f 14/49/13 22/50/13 18/51/13
f 22/52/14 23/53/14 21/54/14
f 24/55/15 13/56/15 23/57/15
f 21/58/16 23/59/16 15/60/16
f 14/37/9 16/61/9 15/38/9
f 16/40/10 18/62/10 17/41/10
f 18/43/11 20/63/11 19/44/11
f 20/46/12 22/64/12 21/47/12
f 18/51/13 16/65/13 14/49/13
f 14/49/13 24/66/13 22/50/13
f 22/50/13 20/67/13 18/51/13
f 22/52/14 24/68/14 23/53/14
f 24/55/15 14/69/15 13/56/15
f 23/59/16 13/70/16 15/60/16
f 15/60/16 17/71/16 19/72/16
f 19/72/16 21/58/16 15/60/16
o Cylinder.010
v 3.000000 -3.032424 -0.090374
v 3.000000 0.575945 -0.090374
v 3.078266 -3.032424 -0.045187
v 3.078266 0.575945 -0.045187
v 3.078266 -3.032424 0.045187
v 3.078266 0.575945 0.045187
v 3.000000 -3.032424 0.090374
v 3.000000 0.575945 0.090374
v 2.921734 -3.032424 0.045187
v 2.921734 0.575945 0.045187
v 2.921734 -3.032424 -0.045187
v 2.921734 0.575945 -0.045187
vt 0.931272 0.846162
vt 0.843109 0.934325
vt 0.843109 0.846162
vt 0.931272 0.846162
vt 0.843109 0.934325
vt 0.843109 0.846162
vt 0.931272 0.846162
vt 0.843109 0.934325
vt 0.843109 0.846162
vt 0.931272 0.846162
vt 0.843109 0.934325
vt 0.843109 0.846162
vt 0.925366 0.912285
vt 0.887191 0.846162
vt 0.849015 0.912285
vt 0.931272 0.846162
vt 0.843109 0.934325
vt 0.843109 0.846162
vt 0.931272 0.846162
vt 0.843109 0.934325
vt 0.843109 0.846162
vt 0.849015 0.868203
vt 0.849015 0.912285
vt 0.925366 0.912285
vt 0.931272 0.934325
vt 0.931272 0.934325
vt 0.931272 0.934325
vt 0.931272 0.934325
vt 0.887191 0.934325
vt 0.925366 0.868203
vt 0.849015 0.868203
vt 0.931272 0.934325
vt 0.931272 0.934325
vt 0.887191 0.934325
vt 0.925366 0.868203
vt 0.887191 0.846162
vn 0.5000 0.0000 -0.8660
vn 1.0000 0.0000 0.0000
vn 0.5000 0.0000 0.8660
vn -0.5000 0.0000 0.8660
vn 0.0000 1.0000 0.0000
vn -1.0000 0.0000 0.0000
vn -0.5000 0.0000 -0.8660
vn 0.0000 -1.0000 0.0000
s off
f 26/73/17 27/74/17 25/75/17
f 28/76/18 29/77/18 27/78/18
f 30/79/19 31/80/19 29/81/19
f 32/82/20 33/83/20 31/84/20
f 26/85/21 34/86/21 30/87/21
f 34/88/22 35/89/22 33/90/22
f 36/91/23 25/92/23 35/93/23
f 33/94/24 35/95/24 27/96/24
f 26/73/17 28/97/17 27/74/17
f 28/76/18 30/98/18 29/77/18
f 30/79/19 32/99/19 31/80/19
f 32/82/20 34/100/20 33/83/20
f 30/87/21 28/101/21 26/85/21
f 26/85/21 36/102/21 34/86/21
f 34/86/21 32/103/21 30/87/21
f 34/88/22 36/104/22 35/89/22
f 36/91/23 26/105/23 25/92/23
f 35/95/24 25/106/24 27/96/24
f 27/96/24 29/107/24 31/108/24
f 31/108/24 33/94/24 27/96/24
o Cylinder.009
v 1.000000 -3.032424 -0.090374
v 1.000000 0.575945 -0.090374
v 1.078266 -3.032424 -0.045187
v 1.078266 0.575945 -0.045187
v 1.078266 -3.032424 0.045187
v 1.078266 0.575945 0.045187
v 1.000000 -3.032424 0.090374
v 1.000000 0.575945 0.090374
v 0.921734 -3.032424 0.045187
v 0.921734 0.575945 0.045187
v 0.921734 -3.032424 -0.045187
v 0.921734 0.575945 -0.045187
vt 0.923038 0.819306
vt 0.839698 0.902645
vt 0.839698 0.819306
vt 0.923038 0.819306
vt 0.839698 0.902645
vt 0.839698 0.819306
vt 0.923038 0.819306
vt 0.839698 0.902645
vt 0.839698 0.819306
vt 0.923038 0.819306
vt 0.839698 0.902645
vt 0.839698 0.819306
vt 0.917455 0.881811
vt 0.881368 0.819306
vt 0.845281 0.881811
vt 0.923038 0.819306
vt 0.839698 0.902645
vt 0.839698 0.819306
vt 0.923038 0.819306
vt 0.839698 0.902645
vt 0.839698 0.819306
vt 0.845281 0.840141
vt 0.845281 0.881811
vt 0.917455 0.881811
vt 0.923038 0.902645
vt 0.923038 0.902645
vt 0.923038 0.902645
vt 0.923038 0.902645
vt 0.881368 0.902645
vt 0.917455 0.840141
vt 0.845281 0.840141
vt 0.923038 0.902645
vt 0.923038 0.902645
vt 0.881368 0.902645
vt 0.917455 0.840141
vt 0.881368 0.819306
vn 0.5000 0.0000 -0.8660
vn 1.0000 0.0000 0.0000
vn 0.5000 0.0000 0.8660
vn -0.5000 0.0000 0.8660
vn 0.0000 1.0000 0.0000
vn -1.0000 0.0000 0.0000
vn -0.5000 0.0000 -0.8660
vn 0.0000 -1.0000 0.0000
s off
f 38/109/25 39/110/25 37/111/25
f 40/112/26 41/113/26 39/114/26
f 42/115/27 43/116/27 41/117/27
f 44/118/28 45/119/28 43/120/28
f 38/121/29 46/122/29 42/123/29
f 46/124/30 47/125/30 45/126/30
f 48/127/31 37/128/31 47/129/31
f 45/130/32 47/131/32 39/132/32
f 38/109/25 40/133/25 39/110/25
f 40/112/26 42/134/26 41/113/26
f 42/115/27 44/135/27 43/116/27
f 44/118/28 46/136/28 45/119/28
f 42/123/29 40/137/29 38/121/29
f 38/121/29 48/138/29 46/122/29
f 46/122/29 44/139/29 42/123/29
f 46/124/30 48/140/30 47/125/30
f 48/127/31 38/141/31 37/128/31
f 47/131/32 37/142/32 39/132/32
f 39/132/32 41/143/32 43/144/32
f 43/144/32 45/130/32 39/132/32
o Cylinder.008
v -5.111856 3.000000 -0.090374
v 5.111856 3.000000 -0.090374
v -5.111856 2.921734 -0.045187
v 5.111856 2.921735 -0.045187
v -5.111856 2.921734 0.045187
v 5.111856 2.921735 0.045187
v -5.111856 3.000000 0.090374
v 5.111856 3.000000 0.090374
v -5.111856 3.078265 0.045187
v 5.111856 3.078266 0.045187
v -5.111856 3.078265 -0.045187
v 5.111856 3.078266 -0.045187
vt 0.972007 0.767348
vt 0.814019 0.925335
vt 0.814019 0.767348
vt 0.972007 0.767348
vt 0.814019 0.925335
vt 0.814019 0.767348
vt 0.972007 0.767348
vt 0.814019 0.925335
vt 0.814019 0.767348
vt 0.972007 0.767348
vt 0.814019 0.925335
vt 0.814019 0.767348
vt 0.961424 0.885838
vt 0.893013 0.767348
vt 0.824603 0.885838
vt 0.972007 0.767348
vt 0.814019 0.925335
vt 0.814019 0.767348
vt 0.972007 0.767348
vt 0.814019 0.925335
vt 0.814019 0.767348
vt 0.824603 0.806845
vt 0.824603 0.885838
vt 0.961424 0.885838
vt 0.972007 0.925335
vt 0.972007 0.925335
vt 0.972007 0.925335
vt 0.972007 0.925335
vt 0.893013 0.925335
vt 0.961424 0.806845
vt 0.824603 0.806845
vt 0.972007 0.925335
vt 0.972007 0.925335
vt 0.893013 0.925335
vt 0.961424 0.806845
vt 0.893013 0.767348
vn 0.0000 -0.5000 -0.8660
vn 0.0000 -1.0000 0.0000
vn 0.0000 -0.5000 0.8660
vn -0.0000 0.5000 0.8660
vn 1.0000 0.0000 0.0000
vn -0.0000 1.0000 0.0000
vn -0.0000 0.5000 -0.8660
vn -1.0000 -0.0000 0.0000
s off
f 50/145/33 51/146/33 49/147/33
f 52/148/34 53/149/34 51/150/34
f 54/151/35 55/152/35 53/153/35
f 56/154/36 57/155/36 55/156/36
f 50/157/37 58/158/37 54/159/37
f 58/160/38 59/161/38 57/162/38
f 60/163/39 49/164/39 59/165/39
f 57/166/40 59/167/40 51/168/40
f 50/145/33 52/169/33 51/146/33
f 52/148/34 54/170/34 53/149/34
f 54/151/35 56/171/35 55/152/35
f 56/154/36 58/172/36 57/155/36
f 54/159/37 52/173/37 50/157/37
f 50/157/37 60/174/37 58/158/37
f 58/158/37 56/175/37 54/159/37
f 58/160/38 60/176/38 59/161/38
f 60/163/39 50/177/39 49/164/39
f 59/167/40 49/178/40 51/168/40
f 51/168/40 53/179/40 55/180/40
f 55/180/40 57/166/40 51/168/40
o Cylinder.007
v -4.000000 -3.006974 -0.090374
v -4.000000 3.006974 -0.090374
v -3.921734 -3.006974 -0.045187
v -3.921734 3.006974 -0.045187
v -3.921734 -3.006974 0.045187
v -3.921734 3.006974 0.045187
v -4.000000 -3.006974 0.090374
v -4.000000 3.006974 0.090374
v -4.078266 -3.006974 0.045187
v -4.078266 3.006974 0.045187
v -4.078266 -3.006974 -0.045187
v -4.078266 3.006974 -0.045187
vt 0.954957 0.803909
vt 0.831069 0.927798
vt 0.831069 0.803909
vt 0.954957 0.803909
vt 0.831069 0.927798
vt 0.831069 0.803909
vt 0.954957 0.803909
vt 0.831069 0.927798
vt 0.831069 0.803909
vt 0.954957 0.803909
vt 0.831069 0.927798
vt 0.831069 0.803909
vt 0.946658 0.896826
vt 0.893013 0.803909
vt 0.839368 0.896826
vt 0.954957 0.803909
vt 0.831069 0.927798
vt 0.831069 0.803909
vt 0.954957 0.803909
vt 0.831069 0.927798
vt 0.831069 0.803909
vt 0.839368 0.834881
vt 0.839368 0.896826
vt 0.946658 0.896826
vt 0.954957 0.927798
vt 0.954957 0.927798
vt 0.954957 0.927798
vt 0.954957 0.927798
vt 0.893013 0.927798
vt 0.946658 0.834881
vt 0.839368 0.834881
vt 0.954957 0.927798
vt 0.954957 0.927798
vt 0.893013 0.927798
vt 0.946658 0.834881
vt 0.893013 0.803909
vn 0.5000 0.0000 -0.8660
vn 1.0000 0.0000 0.0000
vn 0.5000 0.0000 0.8660
vn -0.5000 0.0000 0.8660
vn 0.0000 1.0000 0.0000
vn -1.0000 0.0000 0.0000
vn -0.5000 0.0000 -0.8660
vn 0.0000 -1.0000 0.0000
s off
f 62/181/41 63/182/41 61/183/41
f 64/184/42 65/185/42 63/186/42
f 66/187/43 67/188/43 65/189/43
f 68/190/44 69/191/44 67/192/44
f 62/193/45 70/194/45 66/195/45
f 70/196/46 71/197/46 69/198/46
f 72/199/47 61/200/47 71/201/47
f 69/202/48 71/203/48 63/204/48
f 62/181/41 64/205/41 63/182/41
f 64/184/42 66/206/42 65/185/42
f 66/187/43 68/207/43 67/188/43
f 68/190/44 70/208/44 69/191/44
f 66/195/45 64/209/45 62/193/45
f 62/193/45 72/210/45 70/194/45
f 70/194/45 68/211/45 66/195/45
f 70/196/46 72/212/46 71/197/46
f 72/199/47 62/213/47 61/200/47
f 71/203/48 61/214/48 63/204/48
f 63/204/48 65/215/48 67/216/48
f 67/216/48 69/202/48 63/204/48
o Cylinder.006
v -2.000000 -3.006974 -0.090374
v -2.000000 3.006974 -0.090374
v -1.921734 -3.006974 -0.045187
v -1.921734 3.006974 -0.045187
v -1.921734 -3.006974 0.045187
v -1.921734 3.006974 0.045187
v -2.000000 -3.006974 0.090374
v -2.000000 3.006974 0.090374
v -2.078266 -3.006974 0.045187
v -2.078266 3.006974 0.045187
v -2.078266 -3.006974 -0.045187
v -2.078266 3.006974 -0.045187
vt 0.964714 0.785419
vt 0.803845 0.946288
vt 0.803845 0.785419
vt 0.964714 0.785419
vt 0.803845 0.946288
vt 0.803845 0.785419
vt 0.964714 0.785419
vt 0.803845 0.946288
vt 0.803845 0.785419
vt 0.964714 0.785419
vt 0.803845 0.946288
vt 0.803845 0.785419
vt 0.953937 0.906071
vt 0.884279 0.785419
vt 0.814621 0.906071
vt 0.964714 0.785419
vt 0.803845 0.946288
vt 0.803845 0.785419
vt 0.964714 0.785419
vt 0.803845 0.946288
vt 0.803845 0.785419
vt 0.814621 0.825637
vt 0.814621 0.906071
vt 0.953937 0.906071
vt 0.964714 0.946288
vt 0.964714 0.946288
vt 0.964714 0.946288
vt 0.964714 0.946288
vt 0.884279 0.946288
vt 0.953937 0.825637
vt 0.814621 0.825637
vt 0.964714 0.946288
vt 0.964714 0.946288
vt 0.884279 0.946288
vt 0.953937 0.825637
vt 0.884279 0.785419
vn 0.5000 0.0000 -0.8660
vn 1.0000 0.0000 0.0000
vn 0.5000 0.0000 0.8660
vn -0.5000 0.0000 0.8660
vn 0.0000 1.0000 0.0000
vn -1.0000 0.0000 0.0000
vn -0.5000 0.0000 -0.8660
vn 0.0000 -1.0000 0.0000
s off
f 74/217/49 75/218/49 73/219/49
f 76/220/50 77/221/50 75/222/50
f 78/223/51 79/224/51 77/225/51
f 80/226/52 81/227/52 79/228/52
f 74/229/53 82/230/53 78/231/53
f 82/232/54 83/233/54 81/234/54
f 84/235/55 73/236/55 83/237/55
f 81/238/56 83/239/56 75/240/56
f 74/217/49 76/241/49 75/218/49
f 76/220/50 78/242/50 77/221/50
f 78/223/51 80/243/51 79/224/51
f 80/226/52 82/244/52 81/227/52
f 78/231/53 76/245/53 74/229/53
f 74/229/53 84/246/53 82/230/53
f 82/230/53 80/247/53 78/231/53
f 82/232/54 84/248/54 83/233/54
f 84/235/55 74/249/55 73/236/55
f 83/239/56 73/250/56 75/240/56
f 75/240/56 77/251/56 79/252/56
f 79/252/56 81/238/56 75/240/56
o Cylinder.005
v 4.000000 -3.006974 -0.090374
v 4.000000 3.006974 -0.090374
v 4.078266 -3.006974 -0.045187
v 4.078266 3.006974 -0.045187
v 4.078266 -3.006974 0.045187
v 4.078266 3.006974 0.045187
v 4.000000 -3.006974 0.090374
v 4.000000 3.006974 0.090374
v 3.921734 -3.006974 0.045187
v 3.921734 3.006974 0.045187
v 3.921734 -3.006974 -0.045187
v 3.921734 3.006974 -0.045187
vt 0.941666 0.819246
vt 0.809426 0.951486
vt 0.809426 0.819246
vt 0.941666 0.819246
vt 0.809426 0.951486
vt 0.809426 0.819246
vt 0.941666 0.819246
vt 0.809426 0.951486
vt 0.809426 0.819246
vt 0.941666 0.819246
vt 0.809426 0.951486
vt 0.809426 0.819246
vt 0.932807 0.918426
vt 0.875546 0.819246
vt 0.818284 0.918426
vt 0.941666 0.819246
vt 0.809426 0.951486
vt 0.809426 0.819246
vt 0.941666 0.819246
vt 0.809426 0.951486
vt 0.809426 0.819246
vt 0.818284 0.852306
vt 0.818284 0.918426
vt 0.932807 0.918426
vt 0.941666 0.951486
vt 0.941666 0.951486
vt 0.941666 0.951486
vt 0.941666 0.951486
vt 0.875546 0.951486
vt 0.932807 0.852306
vt 0.818284 0.852306
vt 0.941666 0.951486
vt 0.941666 0.951486
vt 0.875546 0.951486
vt 0.932807 0.852306
vt 0.875546 0.819246
vn 0.5000 0.0000 -0.8660
vn 1.0000 0.0000 0.0000
vn 0.5000 0.0000 0.8660
vn -0.5000 0.0000 0.8660
vn 0.0000 1.0000 0.0000
vn -1.0000 0.0000 0.0000
vn -0.5000 0.0000 -0.8660
vn 0.0000 -1.0000 0.0000
s off
f 86/253/57 87/254/57 85/255/57
f 88/256/58 89/257/58 87/258/58
f 90/259/59 91/260/59 89/261/59
f 92/262/60 93/263/60 91/264/60
f 86/265/61 94/266/61 90/267/61
f 94/268/62 95/269/62 93/270/62
f 96/271/63 85/272/63 95/273/63
f 93/274/64 95/275/64 87/276/64
f 86/253/57 88/277/57 87/254/57
f 88/256/58 90/278/58 89/257/58
f 90/259/59 92/279/59 91/260/59
f 92/262/60 94/280/60 93/263/60
f 90/267/61 88/281/61 86/265/61
f 86/265/61 96/282/61 94/266/61
f 94/266/61 92/283/61 90/267/61
f 94/268/62 96/284/62 95/269/62
f 96/271/63 86/285/63 85/272/63
f 95/275/64 85/286/64 87/276/64
f 87/276/64 89/287/64 91/288/64
f 91/288/64 93/274/64 87/276/64
o Cylinder.004
v 2.000000 -3.006974 -0.090374
v 2.000000 3.006974 -0.090374
v 2.078266 -3.006974 -0.045187
v 2.078266 3.006974 -0.045187
v 2.078266 -3.006974 0.045187
v 2.078266 3.006974 0.045187
v 2.000000 -3.006974 0.090374
v 2.000000 3.006974 0.090374
v 1.921734 -3.006974 0.045187
v 1.921734 3.006974 0.045187
v 1.921734 -3.006974 -0.045187
v 1.921734 3.006974 -0.045187
vt 0.978938 0.787718
vt 0.812911 0.953745
vt 0.812911 0.787718
vt 0.978938 0.787718
vt 0.812911 0.953745
vt 0.812911 0.787718
vt 0.978938 0.787718
vt 0.812911 0.953745
vt 0.812911 0.787718
vt 0.978938 0.787718
vt 0.812911 0.953745
vt 0.812911 0.787718
vt 0.967816 0.912238
vt 0.895924 0.787718
vt 0.824032 0.912238
vt 0.978938 0.787718
vt 0.812911 0.953745
vt 0.812911 0.787718
vt 0.978938 0.787718
vt 0.812911 0.953745
vt 0.812911 0.787718
vt 0.824032 0.829225
vt 0.824032 0.912238
vt 0.967816 0.912238
vt 0.978938 0.953745
vt 0.978938 0.953745
vt 0.978938 0.953745
vt 0.978938 0.953745
vt 0.895924 0.953745
vt 0.967816 0.829225
vt 0.824032 0.829225
vt 0.978938 0.953745
vt 0.978938 0.953745
vt 0.895924 0.953745
vt 0.967816 0.829225
vt 0.895924 0.787718
vn 0.5000 0.0000 -0.8660
vn 1.0000 0.0000 0.0000
vn 0.5000 0.0000 0.8660
vn -0.5000 0.0000 0.8660
vn 0.0000 1.0000 0.0000
vn -1.0000 0.0000 0.0000
vn -0.5000 0.0000 -0.8660
vn 0.0000 -1.0000 0.0000
s off
f 98/289/65 99/290/65 97/291/65
f 100/292/66 101/293/66 99/294/66
f 102/295/67 103/296/67 101/297/67
f 104/298/68 105/299/68 103/300/68
f 98/301/69 106/302/69 102/303/69
f 106/304/70 107/305/70 105/306/70
f 108/307/71 97/308/71 107/309/71
f 105/310/72 107/311/72 99/312/72
f 98/289/65 100/313/65 99/290/65
f 100/292/66 102/314/66 101/293/66
f 102/295/67 104/315/67 103/296/67
f 104/298/68 106/316/68 105/299/68
f 102/303/69 100/317/69 98/301/69
f 98/301/69 108/318/69 106/302/69
f 106/302/69 104/319/69 102/303/69
f 106/304/70 108/320/70 107/305/70
f 108/307/71 98/321/71 97/308/71
f 107/311/72 97/322/72 99/312/72
f 99/312/72 101/323/72 103/324/72
f 103/324/72 105/310/72 99/312/72
o Cylinder.003
v 0.000000 -3.006974 -0.090374
v 0.000000 3.006974 -0.090374
v 0.078266 -3.006974 -0.045187
v 0.078266 3.006974 -0.045187
v 0.078266 -3.006974 0.045187
v 0.078266 3.006974 0.045187
v -0.000000 -3.006974 0.090374
v -0.000000 3.006974 0.090374
v -0.078266 -3.006974 0.045187
v -0.078266 3.006974 0.045187
v -0.078266 -3.006974 -0.045187
v -0.078266 3.006974 -0.045187
vt 0.978954 0.800369
vt 0.818717 0.960607
vt 0.818717 0.800369
vt 0.978954 0.800369
vt 0.818717 0.960607
vt 0.818717 0.800369
vt 0.978954 0.800369
vt 0.818717 0.960607
vt 0.818717 0.800369
vt 0.978954 0.800369
vt 0.818717 0.960607
vt 0.818717 0.800369
vt 0.968220 0.920547
vt 0.898835 0.800369
vt 0.829451 0.920547
vt 0.978954 0.800369
vt 0.818717 0.960607
vt 0.818717 0.800369
vt 0.978954 0.800369
vt 0.818717 0.960607
vt 0.818717 0.800369
vt 0.829451 0.840428
vt 0.829451 0.920547
vt 0.968220 0.920547
vt 0.978954 0.960607
vt 0.978954 0.960607
vt 0.978954 0.960607
vt 0.978954 0.960607
vt 0.898835 0.960607
vt 0.968220 0.840428
vt 0.829451 0.840428
vt 0.978954 0.960607
vt 0.978954 0.960607
vt 0.898835 0.960607
vt 0.968220 0.840428
vt 0.898835 0.800369
vn 0.5000 0.0000 -0.8660
vn 1.0000 0.0000 0.0000
vn 0.5000 0.0000 0.8660
vn -0.5000 0.0000 0.8660
vn 0.0000 1.0000 0.0000
vn -1.0000 0.0000 0.0000
vn -0.5000 0.0000 -0.8660
vn 0.0000 -1.0000 0.0000
s off
f 110/325/73 111/326/73 109/327/73
f 112/328/74 113/329/74 111/330/74
f 114/331/75 115/332/75 113/333/75
f 116/334/76 117/335/76 115/336/76
f 110/337/77 118/338/77 114/339/77
f 118/340/78 119/341/78 117/342/78
f 120/343/79 109/344/79 119/345/79
f 117/346/80 119/347/80 111/348/80
f 110/325/73 112/349/73 111/326/73
f 112/328/74 114/350/74 113/329/74
f 114/331/75 116/351/75 115/332/75
f 116/334/76 118/352/76 117/335/76
f 114/339/77 112/353/77 110/337/77
f 110/337/77 120/354/77 118/338/77
f 118/338/77 116/355/77 114/339/77
f 118/340/78 120/356/78 119/341/78
f 120/343/79 110/357/79 109/344/79
f 119/347/80 109/358/80 111/348/80
f 111/348/80 113/359/80 115/360/80
f 115/360/80 117/346/80 111/348/80
