# Blender v2.79 (sub 0) OBJ File: 'android_experiment.blend'
# www.blender.org
o Sphere.002
v 0.000000 0.526774 -1.429834
v 0.000000 0.247827 -1.402361
v 0.278947 0.526774 -1.402361
v 0.273587 0.247827 -1.375415
v 0.257713 -0.020400 -1.295612
v 0.547174 0.526774 -1.320995
v 0.536660 0.247827 -1.295612
v 0.505523 -0.020400 -1.220440
v 0.794374 0.526774 -1.188864
v 0.779110 0.247827 -1.166020
v 0.733906 -0.020400 -1.098367
v 1.011046 0.526774 -1.011045
v 0.991619 0.247827 -0.991618
v 0.934085 -0.020400 -0.934084
v 1.188864 0.526774 -0.794373
v 1.166020 0.247827 -0.779109
v 1.098367 -0.020400 -0.733905
v 1.320995 0.526774 -0.547174
v 1.295612 0.247827 -0.536660
v 1.220440 -0.020400 -0.505523
v 1.402361 0.526774 -0.278946
v 1.375415 0.247827 -0.273586
v 1.295612 -0.020400 -0.257713
v 1.429835 0.526774 0.000001
v 1.402361 0.247827 0.000001
v 1.320995 -0.020400 0.000000
v 1.402361 0.526774 0.278947
v 1.375414 0.247827 0.273588
v 1.295612 -0.020400 0.257714
v 1.320995 0.526774 0.547175
v 1.295612 0.247827 0.536661
v 1.220440 -0.020400 0.505523
v 1.188864 0.526774 0.794374
v 1.166020 0.247827 0.779110
v 1.098367 -0.020400 0.733906
v 1.011046 0.526774 1.011046
v 0.991619 0.247827 0.991619
v 0.934085 -0.020400 0.934085
v 0.794374 0.526774 1.188865
v 0.779110 0.247827 1.166021
v 0.733906 -0.020400 1.098368
v 0.547174 0.526774 1.320995
v 0.536660 0.247827 1.295613
v 0.505523 -0.020400 1.220441
v 0.278947 0.526774 1.402361
v 0.273587 0.247827 1.375415
v 0.257713 -0.020400 1.295613
v -0.000000 0.526774 1.429835
v -0.000000 0.247827 1.402361
v 0.000000 -0.020400 1.320995
v -0.278947 0.526774 1.402361
v -0.273587 0.247827 1.375415
v -0.257713 -0.020400 1.295613
v -0.547174 0.526774 1.320995
v -0.536660 0.247827 1.295612
v -0.505523 -0.020400 1.220441
v -0.794374 0.526774 1.188864
v -0.779110 0.247827 1.166020
v -0.733905 -0.020400 1.098367
v -1.011046 0.526774 1.011046
v -0.991619 0.247827 0.991619
v -0.934084 -0.020400 0.934085
v -1.188864 0.526774 0.794374
v -1.166020 0.247827 0.779110
v -1.098367 -0.020400 0.733906
v -1.320995 0.526774 0.547174
v -1.295612 0.247827 0.536660
v -1.220440 -0.020400 0.505523
v -1.402360 0.526774 0.278947
v -1.375414 0.247827 0.273587
v -1.295612 -0.020400 0.257714
v -1.429834 0.526774 0.000000
v -1.402360 0.247827 0.000000
v -1.320995 -0.020400 0.000000
v -1.402360 0.526774 -0.278947
v -1.375414 0.247827 -0.273587
v -1.295612 -0.020400 -0.257713
v -1.320994 0.526774 -0.547174
v -1.295611 0.247827 -0.536660
v -1.220440 -0.020400 -0.505522
v -1.188863 0.526774 -0.794373
v -1.166019 0.247827 -0.779109
v -1.098367 -0.020400 -0.733905
v -1.011045 0.526774 -1.011045
v -0.991618 0.247827 -0.991618
v -0.934084 -0.020400 -0.934084
v -0.794373 0.526774 -1.188863
v -0.779109 0.247827 -1.166019
v -0.733905 -0.020400 -1.098366
v -0.547173 0.526774 -1.320994
v -0.536659 0.247827 -1.295611
v -0.505523 -0.020400 -1.220439
v -0.278946 0.526774 -1.402360
v -0.273586 0.247827 -1.375413
v -0.257713 -0.020400 -1.295612
v 0.000000 -0.020400 -1.320994
vt 0.975763 0.854768
vt 0.974097 0.868735
vt 0.970858 0.860273
vt 0.972204 0.846490
vt 0.967561 0.851804
vt 0.805551 0.860207
vt 0.797233 0.863042
vt 0.800677 0.854641
vt 0.804251 0.846490
vt 0.810505 0.865393
vt 0.802289 0.868703
vt 0.813574 0.856769
vt 0.808837 0.851805
vt 0.815567 0.870234
vt 0.807444 0.874052
vt 0.820733 0.874737
vt 0.812708 0.879070
vt 0.823390 0.865734
vt 0.818430 0.861411
vt 0.825998 0.878903
vt 0.818080 0.883746
vt 0.828447 0.869735
vt 0.831355 0.882726
vt 0.823553 0.888074
vt 0.833592 0.873407
vt 0.836795 0.886203
vt 0.829122 0.892048
vt 0.838817 0.876746
vt 0.842311 0.889327
vt 0.834777 0.895661
vt 0.844115 0.879747
vt 0.847894 0.892095
vt 0.840510 0.898908
vt 0.849478 0.882406
vt 0.852180 0.904287
vt 0.846314 0.901785
vt 0.854898 0.884718
vt 0.860368 0.886681
vt 0.853537 0.894502
vt 0.859231 0.896545
vt 0.864062 0.908152
vt 0.858099 0.906410
vt 0.865878 0.888291
vt 0.871421 0.889546
vt 0.864968 0.898221
vt 0.870739 0.899528
vt 0.876536 0.900462
vt 0.870061 0.909509
vt 0.876989 0.890444
vt 0.882350 0.901024
vt 0.876086 0.910481
vt 0.882573 0.890983
vt 0.888173 0.901212
vt 0.882130 0.911064
vt 0.888166 0.891164
vt 0.893996 0.901026
vt 0.888183 0.911259
vt 0.893760 0.890985
vt 0.899810 0.900466
vt 0.894235 0.911065
vt 0.899345 0.890447
vt 0.905608 0.899533
vt 0.900280 0.910483
vt 0.904914 0.889551
vt 0.911380 0.898228
vt 0.906306 0.909512
vt 0.910458 0.888298
vt 0.917119 0.896553
vt 0.912306 0.908155
vt 0.915970 0.886689
vt 0.924192 0.904291
vt 0.918271 0.906414
vt 0.921441 0.884728
vt 0.922815 0.894511
vt 0.930060 0.901789
vt 0.926864 0.882417
vt 0.932229 0.879759
vt 0.928460 0.892104
vt 0.935867 0.898912
vt 0.939565 0.886213
vt 0.934046 0.889337
vt 0.937531 0.876758
vt 0.942759 0.873419
vt 0.947262 0.892050
vt 0.941603 0.895664
vt 0.945009 0.882736
vt 0.952834 0.888076
vt 0.947908 0.869746
vt 0.955639 0.874748
vt 0.950370 0.878913
vt 0.952970 0.865744
vt 0.960812 0.870249
vt 0.958310 0.883747
vt 0.957937 0.861419
vt 0.965883 0.865422
vt 0.963684 0.879071
vt 0.962802 0.856773
vt 0.968948 0.874060
vt 0.349499 0.671072
vt 0.357257 0.539089
vt 0.436024 0.552088
vt 0.979138 0.863161
vt 0.428266 0.684071
vt 0.419143 0.694285
vt 0.409007 0.701320
vt 0.398247 0.704906
vt 0.387275 0.704906
vt 0.376515 0.701320
vt 0.366379 0.694284
vt 0.357256 0.684071
vt 0.343403 0.655786
vt 0.337064 0.602388
vt 0.339205 0.638802
vt 0.337064 0.620772
vt 0.339205 0.584358
vt 0.343403 0.567373
vt 0.349499 0.552088
vt 0.366379 0.528875
vt 0.398247 0.518254
vt 0.376515 0.521840
vt 0.387275 0.518254
vt 0.409007 0.521840
vt 0.419143 0.528875
vt 0.428266 0.539089
vt 0.442119 0.567374
vt 0.446318 0.584358
vt 0.448458 0.602389
vt 0.448458 0.620772
vt 0.446318 0.638803
vt 0.442119 0.655787
vt 0.436024 0.671072
vn -0.0975 0.0975 0.9904
vn -0.0938 0.2890 0.9527
vn -0.2889 0.0975 0.9524
vn -0.2779 0.2890 0.9161
vn -0.4691 0.0976 0.8777
vn -0.4513 0.2890 0.8443
vn -0.6314 0.0975 0.7693
vn -0.6073 0.2890 0.7400
vn -0.7693 0.0975 0.6314
vn -0.7400 0.2890 0.6073
vn -0.8777 0.0976 0.4691
vn -0.8443 0.2890 0.4513
vn -0.9524 0.0975 0.2889
vn -0.9161 0.2890 0.2779
vn -0.9904 0.0976 0.0975
vn -0.9527 0.2890 0.0938
vn -0.9904 0.0976 -0.0976
vn -0.9527 0.2890 -0.0938
vn -0.9524 0.0976 -0.2889
vn -0.9161 0.2890 -0.2779
vn -0.8777 0.0976 -0.4691
vn -0.8443 0.2890 -0.4513
vn -0.7400 0.2890 -0.6073
vn -0.7693 0.0976 -0.6314
vn -0.6314 0.0976 -0.7693
vn -0.6073 0.2890 -0.7400
vn -0.4513 0.2890 -0.8443
vn -0.4691 0.0976 -0.8777
vn -0.2889 0.0976 -0.9524
vn -0.2779 0.2890 -0.9161
vn -0.0975 0.0976 -0.9904
vn -0.0938 0.2890 -0.9527
vn 0.0975 0.0976 -0.9904
vn 0.0938 0.2890 -0.9527
vn 0.2889 0.0976 -0.9524
vn 0.2779 0.2890 -0.9161
vn 0.4691 0.0976 -0.8777
vn 0.4513 0.2890 -0.8443
vn 0.6314 0.0976 -0.7693
vn 0.6073 0.2890 -0.7400
vn 0.7693 0.0976 -0.6314
vn 0.7400 0.2890 -0.6073
vn 0.8777 0.0976 -0.4691
vn 0.8443 0.2890 -0.4513
vn 0.9524 0.0976 -0.2889
vn 0.9161 0.2890 -0.2779
vn 0.9904 0.0976 -0.0975
vn 0.9527 0.2890 -0.0938
vn 0.9527 0.2890 0.0938
vn 0.9904 0.0976 0.0976
vn 0.9524 0.0976 0.2889
vn 0.9161 0.2890 0.2779
vn 0.8443 0.2890 0.4513
vn 0.8777 0.0976 0.4691
vn 0.7693 0.0976 0.6314
vn 0.7400 0.2890 0.6073
vn 0.6314 0.0976 0.7693
vn 0.6073 0.2890 0.7400
vn 0.4691 0.0976 0.8777
vn 0.4513 0.2890 0.8443
vn 0.2889 0.0976 0.9524
vn 0.2779 0.2890 0.9161
vn 0.0976 0.0976 0.9904
vn 0.0938 0.2890 0.9527
vn 0.0000 1.0000 0.0000
vn -0.0976 0.0975 0.9904
vn -0.4691 0.0975 0.8777
vn -0.7693 0.0976 0.6314
vn -0.9524 0.0976 0.2889
vn -0.9904 0.0976 -0.0975
vn 0.0976 0.0976 -0.9904
vn 0.0976 0.0975 0.9904
s off
f 4/1/1 1/2/1 2/3/1
f 5/4/2 2/3/2 96/5/2
f 7/6/3 3/7/3 4/8/3
f 5/9/4 7/6/4 4/8/4
f 10/10/5 6/11/5 7/6/5
f 11/12/6 7/6/6 8/13/6
f 13/14/7 9/15/7 10/10/7
f 11/12/8 13/14/8 10/10/8
f 16/16/9 12/17/9 13/14/9
f 17/18/10 13/14/10 14/19/10
f 19/20/11 15/21/11 16/16/11
f 20/22/12 16/16/12 17/18/12
f 22/23/13 18/24/13 19/20/13
f 23/25/14 19/20/14 20/22/14
f 25/26/15 21/27/15 22/23/15
f 26/28/16 22/23/16 23/25/16
f 28/29/17 24/30/17 25/26/17
f 29/31/18 25/26/18 26/28/18
f 31/32/19 27/33/19 28/29/19
f 32/34/20 28/29/20 29/31/20
f 31/32/21 33/35/21 30/36/21
f 35/37/22 31/32/22 32/34/22
f 38/38/23 34/39/23 35/37/23
f 37/40/24 33/35/24 34/39/24
f 37/40/25 39/41/25 36/42/25
f 41/43/26 37/40/26 38/38/26
f 44/44/27 40/45/27 41/43/27
f 43/46/28 39/41/28 40/45/28
f 46/47/29 42/48/29 43/46/29
f 47/49/30 43/46/30 44/44/30
f 49/50/31 45/51/31 46/47/31
f 50/52/32 46/47/32 47/49/32
f 52/53/33 48/54/33 49/50/33
f 53/55/34 49/50/34 50/52/34
f 55/56/35 51/57/35 52/53/35
f 56/58/36 52/53/36 53/55/36
f 58/59/37 54/60/37 55/56/37
f 59/61/38 55/56/38 56/58/38
f 61/62/39 57/63/39 58/59/39
f 62/64/40 58/59/40 59/61/40
f 64/65/41 60/66/41 61/62/41
f 65/67/42 61/62/42 62/64/42
f 67/68/43 63/69/43 64/65/43
f 68/70/44 64/65/44 65/67/44
f 67/68/45 69/71/45 66/72/45
f 71/73/46 67/68/46 68/70/46
f 70/74/47 72/75/47 69/71/47
f 74/76/48 70/74/48 71/73/48
f 77/77/49 73/78/49 74/76/49
f 73/78/50 75/79/50 72/75/50
f 79/80/51 75/79/51 76/81/51
f 80/82/52 76/81/52 77/77/52
f 83/83/53 79/80/53 80/82/53
f 79/80/54 81/84/54 78/85/54
f 82/86/55 84/87/55 81/84/55
f 86/88/56 82/86/56 83/83/56
f 88/89/57 84/87/57 85/90/57
f 89/91/58 85/90/58 86/88/58
f 91/92/59 87/93/59 88/89/59
f 92/94/60 88/89/60 89/91/60
f 94/95/61 90/96/61 91/92/61
f 95/97/62 91/92/62 92/94/62
f 2/3/63 93/98/63 94/95/63
f 96/5/64 94/95/64 95/97/64
f 80/99/65 56/100/65 32/101/65
f 4/1/66 3/102/66 1/2/66
f 5/4/2 4/1/2 2/3/2
f 7/6/3 6/11/3 3/7/3
f 5/9/4 8/13/4 7/6/4
f 10/10/67 9/15/67 6/11/67
f 11/12/6 10/10/6 7/6/6
f 13/14/7 12/17/7 9/15/7
f 11/12/8 14/19/8 13/14/8
f 16/16/68 15/21/68 12/17/68
f 17/18/10 16/16/10 13/14/10
f 19/20/11 18/24/11 15/21/11
f 20/22/12 19/20/12 16/16/12
f 22/23/69 21/27/69 18/24/69
f 23/25/14 22/23/14 19/20/14
f 25/26/15 24/30/15 21/27/15
f 26/28/16 25/26/16 22/23/16
f 28/29/70 27/33/70 24/30/70
f 29/31/18 28/29/18 25/26/18
f 31/32/19 30/36/19 27/33/19
f 32/34/20 31/32/20 28/29/20
f 31/32/21 34/39/21 33/35/21
f 35/37/22 34/39/22 31/32/22
f 38/38/23 37/40/23 34/39/23
f 37/40/24 36/42/24 33/35/24
f 37/40/25 40/45/25 39/41/25
f 41/43/26 40/45/26 37/40/26
f 44/44/27 43/46/27 40/45/27
f 43/46/28 42/48/28 39/41/28
f 46/47/29 45/51/29 42/48/29
f 47/49/30 46/47/30 43/46/30
f 49/50/31 48/54/31 45/51/31
f 50/52/32 49/50/32 46/47/32
f 52/53/71 51/57/71 48/54/71
f 53/55/34 52/53/34 49/50/34
f 55/56/35 54/60/35 51/57/35
f 56/58/36 55/56/36 52/53/36
f 58/59/37 57/63/37 54/60/37
f 59/61/38 58/59/38 55/56/38
f 61/62/39 60/66/39 57/63/39
f 62/64/40 61/62/40 58/59/40
f 64/65/41 63/69/41 60/66/41
f 65/67/42 64/65/42 61/62/42
f 67/68/43 66/72/43 63/69/43
f 68/70/44 67/68/44 64/65/44
f 67/68/45 70/74/45 69/71/45
f 71/73/46 70/74/46 67/68/46
f 70/74/47 73/78/47 72/75/47
f 74/76/48 73/78/48 70/74/48
f 77/77/49 76/81/49 73/78/49
f 73/78/50 76/81/50 75/79/50
f 79/80/51 78/85/51 75/79/51
f 80/82/52 79/80/52 76/81/52
f 83/83/53 82/86/53 79/80/53
f 79/80/54 82/86/54 81/84/54
f 82/86/55 85/90/55 84/87/55
f 86/88/56 85/90/56 82/86/56
f 88/89/57 87/93/57 84/87/57
f 89/91/58 88/89/58 85/90/58
f 91/92/59 90/96/59 87/93/59
f 92/94/60 91/92/60 88/89/60
f 94/95/61 93/98/61 90/96/61
f 95/97/62 94/95/62 91/92/62
f 2/3/72 1/2/72 93/98/72
f 96/5/64 2/3/64 94/95/64
f 8/103/65 5/104/65 96/105/65
f 96/105/65 95/106/65 92/107/65
f 92/107/65 89/108/65 80/99/65
f 89/108/65 86/109/65 80/99/65
f 86/109/65 83/110/65 80/99/65
f 80/99/65 77/111/65 68/112/65
f 77/111/65 74/113/65 68/112/65
f 74/113/65 71/114/65 68/112/65
f 68/112/65 65/115/65 62/116/65
f 62/116/65 59/117/65 56/100/65
f 56/100/65 53/118/65 44/119/65
f 53/118/65 50/120/65 44/119/65
f 50/120/65 47/121/65 44/119/65
f 44/119/65 41/122/65 38/123/65
f 38/123/65 35/124/65 32/101/65
f 32/101/65 29/125/65 26/126/65
f 26/126/65 23/127/65 20/128/65
f 20/128/65 17/129/65 14/130/65
f 14/130/65 11/131/65 8/103/65
f 8/103/65 96/105/65 80/99/65
f 96/105/65 92/107/65 80/99/65
f 68/112/65 62/116/65 80/99/65
f 62/116/65 56/100/65 80/99/65
f 44/119/65 38/123/65 56/100/65
f 38/123/65 32/101/65 56/100/65
f 32/101/65 26/126/65 8/103/65
f 26/126/65 20/128/65 8/103/65
f 20/128/65 14/130/65 8/103/65
f 8/103/65 80/99/65 32/101/65
