# Blender v2.79 (sub 0) OBJ File: '3DObjectDecoder2.blend'
# www.blender.org
o Plane.003
v -3.923356 0.000000 3.923356
v 3.923356 0.000000 3.923356
v -3.923356 0.000000 -3.923356
v 3.923356 0.000000 -3.923356
v -3.923356 0.000000 -3.073296
v -3.923356 0.000000 2.851135
v 3.923356 0.000000 2.851135
v 3.923356 0.000000 -3.073296
v -3.923356 0.000000 -0.090721
v -3.923356 0.000000 0.078666
v 3.923356 0.000000 0.078666
v 3.923356 0.000000 -0.090722
v -3.051499 0.000000 3.923356
v -2.179642 0.000000 3.923356
v -1.307786 0.000000 3.923356
v -0.435928 0.000000 3.923356
v 0.435929 0.000000 3.923356
v 1.307786 0.000000 3.923356
v 2.179642 0.000000 3.923356
v 3.051499 0.000000 3.923356
v 3.051499 0.000000 -3.923356
v 2.179642 0.000000 -3.923356
v 1.307786 0.000000 -3.923356
v 0.435928 0.000000 -3.923356
v -0.435929 0.000000 -3.923356
v -1.307786 0.000000 -3.923356
v -2.179642 0.000000 -3.923356
v -3.051499 0.000000 -3.923356
v 3.051499 0.000000 2.851135
v 2.179642 0.000000 2.851135
v 1.307786 0.000000 2.851135
v 0.435928 0.000000 2.851135
v -0.435929 0.000000 2.851135
v -1.307786 0.000000 2.851135
v -2.179642 0.000000 2.851135
v -3.051499 0.000000 2.851135
v 3.051499 0.000000 -3.073296
v 2.179642 0.000000 -3.073296
v 1.307786 0.000000 -3.073296
v 0.435928 0.000000 -3.073296
v -0.435929 0.000000 -3.073296
v -1.307786 0.000000 -3.073296
v -2.179642 0.000000 -3.073296
v -3.051499 0.000000 -3.073296
v 3.051499 0.000000 0.078666
v 2.179642 0.000000 0.078666
v 1.307786 0.000000 0.078666
v 0.435928 0.000000 0.078666
v -0.435929 0.000000 0.078666
v -1.307786 0.000000 0.078666
v -2.179642 0.000000 0.078666
v -3.051499 0.000000 0.078666
v 3.051499 0.000000 -0.090722
v 2.179642 0.000000 -0.090722
v 1.307786 0.000000 -0.090722
v 0.435928 0.000000 -0.090722
v -0.435929 0.000000 -0.090722
v -1.307786 0.000000 -0.090722
v -2.179642 0.000000 -0.090722
v -3.051499 0.000000 -0.090722
vt 0.927127 0.884182
vt 0.862577 0.989640
vt 0.862577 0.884182
vt 0.927127 0.016186
vt 0.862577 0.149205
vt 0.862577 0.016186
vt 0.927127 0.514168
vt 0.862577 0.514168
vt 0.927127 0.149205
vt 0.862577 0.493154
vt 1.544525 1.507776
vt 1.479974 1.528791
vt 1.479974 1.507776
vt 1.693011 1.627145
vt 1.628459 1.648159
vt 1.628459 1.627145
vt 0.475274 0.493154
vt 0.410723 0.514168
vt 0.410723 0.493154
vt 1.638830 1.726617
vt 1.703381 1.747631
vt 1.638830 1.747631
vt 0.604375 0.493154
vt 0.539824 0.514168
vt 0.539824 0.493154
vt 1.690007 1.527671
vt 1.625455 1.548685
vt 1.625455 1.527671
vt 0.668926 0.493154
vt 0.733476 0.514168
vt 0.668926 0.514168
vt 1.837668 1.865879
vt 1.902218 1.886893
vt 1.837668 1.886893
vt 0.798026 0.514168
vt 0.798026 0.493154
vt 0.410723 0.149205
vt 0.346173 0.493154
vt 0.346173 0.149205
vt 0.475274 0.149205
vt 0.539824 0.149205
vt 0.604374 0.149205
vt 0.668926 0.149205
vt 0.733476 0.149205
vt 0.798026 0.149205
vt 0.733476 0.493154
vt 0.346173 0.884183
vt 0.346173 0.514169
vt 0.475274 0.514168
vt 0.410724 0.884183
vt 0.475274 0.884183
vt 0.604375 0.514168
vt 0.539824 0.884183
vt 0.604375 0.884183
vt 0.668926 0.884182
vt 0.733476 0.884182
vt 0.798026 0.884182
vt 0.410723 0.016187
vt 0.346173 0.016187
vt 0.475274 0.016187
vt 0.539824 0.016187
vt 0.604374 0.016186
vt 0.668926 0.016186
vt 0.733476 0.016186
vt 0.798026 0.016186
vt 0.346173 0.989640
vt 0.410724 0.989640
vt 0.475274 0.989640
vt 0.539824 0.989640
vt 0.604375 0.989640
vt 0.668926 0.989640
vt 0.733476 0.989640
vt 0.798026 0.989640
vt 0.927127 0.989640
vt 0.927127 0.493154
vt 1.544525 1.528791
vt 1.693011 1.648158
vt 1.703381 1.726617
vt 1.690007 1.548685
vt 1.902218 1.865879
vn 0.0000 1.0000 0.0000
s off
f 8/1/1 21/2/1 37/3/1
f 2/4/1 29/5/1 20/6/1
f 12/7/1 37/3/1 53/8/1
f 7/9/1 45/10/1 29/5/1
f 11/11/1 53/12/1 45/13/1
f 52/14/1 9/15/1 10/16/1
f 51/17/1 60/18/1 52/19/1
f 51/20/1 58/21/1 59/22/1
f 49/23/1 58/24/1 50/25/1
f 48/26/1 57/27/1 49/28/1
f 48/29/1 55/30/1 56/31/1
f 47/32/1 54/33/1 55/34/1
f 45/10/1 54/35/1 46/36/1
f 36/37/1 10/38/1 6/39/1
f 35/40/1 52/19/1 36/37/1
f 34/41/1 51/17/1 35/40/1
f 33/42/1 50/25/1 34/41/1
f 32/43/1 49/23/1 33/42/1
f 31/44/1 48/29/1 32/43/1
f 30/45/1 47/46/1 31/44/1
f 29/5/1 46/36/1 30/45/1
f 60/18/1 5/47/1 9/48/1
f 59/49/1 44/50/1 60/18/1
f 58/24/1 43/51/1 59/49/1
f 57/52/1 42/53/1 58/24/1
f 56/31/1 41/54/1 57/52/1
f 55/30/1 40/55/1 56/31/1
f 54/35/1 39/56/1 55/30/1
f 53/8/1 38/57/1 54/35/1
f 13/58/1 6/39/1 1/59/1
f 14/60/1 36/37/1 13/58/1
f 15/61/1 35/40/1 14/60/1
f 16/62/1 34/41/1 15/61/1
f 17/63/1 33/42/1 16/62/1
f 18/64/1 32/43/1 17/63/1
f 19/65/1 31/44/1 18/64/1
f 20/6/1 30/45/1 19/65/1
f 44/50/1 3/66/1 5/47/1
f 43/51/1 28/67/1 44/50/1
f 42/53/1 27/68/1 43/51/1
f 41/54/1 26/69/1 42/53/1
f 40/55/1 25/70/1 41/54/1
f 39/56/1 24/71/1 40/55/1
f 38/57/1 23/72/1 39/56/1
f 37/3/1 22/73/1 38/57/1
f 8/1/1 4/74/1 21/2/1
f 2/4/1 7/9/1 29/5/1
f 12/7/1 8/1/1 37/3/1
f 7/9/1 11/75/1 45/10/1
f 11/11/1 12/76/1 53/12/1
f 52/14/1 60/77/1 9/15/1
f 51/17/1 59/49/1 60/18/1
f 51/20/1 50/78/1 58/21/1
f 49/23/1 57/52/1 58/24/1
f 48/26/1 56/79/1 57/27/1
f 48/29/1 47/46/1 55/30/1
f 47/32/1 46/80/1 54/33/1
f 45/10/1 53/8/1 54/35/1
f 36/37/1 52/19/1 10/38/1
f 35/40/1 51/17/1 52/19/1
f 34/41/1 50/25/1 51/17/1
f 33/42/1 49/23/1 50/25/1
f 32/43/1 48/29/1 49/23/1
f 31/44/1 47/46/1 48/29/1
f 30/45/1 46/36/1 47/46/1
f 29/5/1 45/10/1 46/36/1
f 60/18/1 44/50/1 5/47/1
f 59/49/1 43/51/1 44/50/1
f 58/24/1 42/53/1 43/51/1
f 57/52/1 41/54/1 42/53/1
f 56/31/1 40/55/1 41/54/1
f 55/30/1 39/56/1 40/55/1
f 54/35/1 38/57/1 39/56/1
f 53/8/1 37/3/1 38/57/1
f 13/58/1 36/37/1 6/39/1
f 14/60/1 35/40/1 36/37/1
f 15/61/1 34/41/1 35/40/1
f 16/62/1 33/42/1 34/41/1
f 17/63/1 32/43/1 33/42/1
f 18/64/1 31/44/1 32/43/1
f 19/65/1 30/45/1 31/44/1
f 20/6/1 29/5/1 30/45/1
f 44/50/1 28/67/1 3/66/1
f 43/51/1 27/68/1 28/67/1
f 42/53/1 26/69/1 27/68/1
f 41/54/1 25/70/1 26/69/1
f 40/55/1 24/71/1 25/70/1
f 39/56/1 23/72/1 24/71/1
f 38/57/1 22/73/1 23/72/1
f 37/3/1 21/2/1 22/73/1
