# Blender v2.79 (sub 0) OBJ File: ''
# www.blender.org
o Cube_Cube.002
v -1.000000 -0.414409 1.000000
v -1.000000 0.414409 1.000000
v -1.000000 -0.414409 -1.000000
v -1.000000 0.414409 -1.000000
v 1.000000 -0.414409 1.000000
v 1.000000 0.414409 1.000000
v 1.000000 -0.414409 -1.000000
v 1.000000 0.414409 -1.000000
v 0.666667 -0.414409 -1.000000
v 0.095868 -0.414409 -1.000000
v -0.000000 -0.376078 -0.907506
v -0.098976 -0.414409 -1.000000
v -0.666667 -0.414409 -1.000000
v -0.666667 0.414409 -1.000000
v -0.098976 0.414409 -1.000000
v 0.000000 0.376078 -0.907506
v 0.095868 0.414409 -1.000000
v 0.666667 0.414409 -1.000000
v -0.666667 -0.414409 1.000000
v -0.098976 -0.414409 1.000000
v 0.000000 -0.376078 0.907506
v 0.095868 -0.414409 1.000000
v 0.666667 -0.414409 1.000000
v 0.666667 0.414409 1.000000
v 0.095868 0.414409 1.000000
v -0.000000 0.376078 0.907506
v -0.098976 0.414409 1.000000
v -0.666667 0.414409 1.000000
vt 0.000094 0.666635
vt 0.222136 0.333365
vt 0.222136 0.666635
vt 0.407170 0.000094
vt 0.444177 0.333365
vt 0.407170 0.333365
vt 0.666219 0.333365
vt 0.444177 0.666635
vt 0.259143 0.999906
vt 0.259143 0.666635
vt 0.407170 0.666635
vt 0.500760 0.496791
vt 0.463753 0.968500
vt 0.463753 0.496791
vt 0.315726 0.496791
vt 0.278719 0.968500
vt 0.278719 0.496791
vt 0.352732 0.496791
vt 0.315726 0.968500
vt 0.389739 0.496791
vt 0.352732 0.968500
vt 0.426746 0.496791
vt 0.389739 0.968500
vt 0.426746 0.968500
vt 0.259143 0.333365
vt 0.296150 0.333365
vt 0.333157 0.333365
vt 0.296150 0.666635
vt 0.370163 0.333365
vt 0.333156 0.666635
vt 0.370163 0.666635
vt 0.444177 0.999906
vt 0.370163 0.999906
vt 0.333156 0.999906
vt 0.296150 0.999906
vt 0.222136 0.000094
vt 0.259143 0.000094
vt 0.296150 0.000094
vt 0.370163 0.000094
vt 0.000094 0.333365
vt 0.444177 0.000094
vt 0.666219 0.666635
vt 0.222136 0.999906
vt 0.500760 0.968500
vt 0.407170 0.999906
vt 0.333157 0.000094
vn -1.0000 0.0000 0.0000
vn 0.0000 0.0000 -1.0000
vn 1.0000 0.0000 0.0000
vn 0.0000 0.0000 1.0000
vn 0.0000 -1.0000 -0.0000
vn 0.0000 1.0000 -0.0000
vn -0.3712 0.9285 0.0000
vn 0.3611 0.9325 0.0000
vn 0.3611 -0.9325 -0.0000
vn -0.3712 -0.9285 0.0000
vn -0.6943 -0.0000 0.7197
vn 0.6828 0.0000 0.7306
vn 0.6828 -0.0000 -0.7306
vn -0.6943 0.0000 -0.7197
s off
f 2/1/1 3/2/1 1/3/1
f 18/4/2 7/5/2 9/6/2
f 8/7/3 5/8/3 7/5/3
f 28/9/4 1/3/4 19/10/4
f 7/5/5 23/11/5 9/6/5
f 4/12/6 28/13/6 14/14/6
f 18/15/6 6/16/6 8/17/6
f 17/18/6 24/19/6 18/15/6
f 16/20/7 25/21/7 17/18/7
f 15/22/8 26/23/8 16/20/8
f 14/14/6 27/24/6 15/22/6
f 13/25/5 1/3/5 3/2/5
f 12/26/5 19/10/5 13/25/5
f 11/27/9 20/28/9 12/26/9
f 10/29/10 21/30/10 11/27/10
f 9/6/5 22/31/5 10/29/5
f 6/32/4 23/11/4 5/8/4
f 23/11/4 25/33/4 22/31/4
f 25/33/11 21/30/11 22/31/11
f 26/34/12 20/28/12 21/30/12
f 27/35/4 19/10/4 20/28/4
f 4/36/2 13/25/2 3/2/2
f 14/37/2 12/26/2 13/25/2
f 15/38/13 11/27/13 12/26/13
f 11/27/14 17/39/14 10/29/14
f 10/29/2 18/4/2 9/6/2
f 2/1/1 4/40/1 3/2/1
f 18/4/2 8/41/2 7/5/2
f 8/7/3 6/42/3 5/8/3
f 28/9/4 2/43/4 1/3/4
f 7/5/5 5/8/5 23/11/5
f 4/12/6 2/44/6 28/13/6
f 18/15/6 24/19/6 6/16/6
f 17/18/6 25/21/6 24/19/6
f 16/20/7 26/23/7 25/21/7
f 15/22/8 27/24/8 26/23/8
f 14/14/6 28/13/6 27/24/6
f 13/25/5 19/10/5 1/3/5
f 12/26/5 20/28/5 19/10/5
f 11/27/9 21/30/9 20/28/9
f 10/29/10 22/31/10 21/30/10
f 9/6/5 23/11/5 22/31/5
f 6/32/4 24/45/4 23/11/4
f 23/11/4 24/45/4 25/33/4
f 25/33/11 26/34/11 21/30/11
f 26/34/12 27/35/12 20/28/12
f 27/35/4 28/9/4 19/10/4
f 4/36/2 14/37/2 13/25/2
f 14/37/2 15/38/2 12/26/2
f 15/38/13 16/46/13 11/27/13
f 11/27/14 16/46/14 17/39/14
f 10/29/2 17/39/2 18/4/2
