# Blender v2.79 (sub 0) OBJ File: '3DObjectDecoderObjects.blend'
# www.blender.org
o Cube_Cube.002
v -1.000000 -0.414409 1.000000
v -1.000000 0.414409 1.000000
v -1.000000 -0.414409 -1.000000
v -1.000000 0.414409 -1.000000
v 1.000000 -0.414409 1.000000
v 1.000000 0.414409 1.000000
v 1.000000 -0.414409 -1.000000
v 1.000000 0.414409 -1.000000
v 0.666667 -0.414409 -1.000000
v 0.095868 -0.414409 -1.000000
v -0.000000 -0.376078 -0.907506
v -0.098976 -0.414409 -1.000000
v -0.666667 -0.414409 -1.000000
v -0.666667 0.414409 -1.000000
v -0.098976 0.414409 -1.000000
v 0.000000 0.376078 -0.907506
v 0.095868 0.414409 -1.000000
v 0.666667 0.414409 -1.000000
v -0.666667 -0.414409 1.000000
v -0.098976 -0.414409 1.000000
v 0.000000 -0.376078 0.907506
v 0.095868 -0.414409 1.000000
v 0.666667 -0.414409 1.000000
v 0.666667 0.414409 1.000000
v 0.095868 0.414409 1.000000
v -0.000000 0.376078 0.907506
v -0.098976 0.414409 1.000000
v -0.666667 0.414409 1.000000
v -1.000000 -0.414409 -1.000000
v -1.000000 0.414409 -1.000000
v 1.000000 -0.414409 -1.000000
v 1.000000 0.414409 -1.000000
v 0.666667 0.414409 -1.000000
v 0.095868 0.414409 -1.000000
v 0.000000 0.376078 -0.907506
v -0.098976 0.414409 -1.000000
v -0.666667 0.414409 -1.000000
v -0.666667 -0.414409 -1.000000
v -0.098976 -0.414409 -1.000000
v -0.000000 -0.376078 -0.907506
v 0.095868 -0.414409 -1.000000
v 0.666667 -0.414409 -1.000000
v -1.000000 -0.414409 1.000000
v 1.000000 0.414409 1.000000
v 0.666667 0.414409 1.000000
v 0.095868 0.414409 1.000000
v -0.000000 0.376078 0.907506
v -0.098976 0.414409 1.000000
v -0.666667 0.414409 1.000000
v -0.666667 -0.414409 1.000000
v -0.098976 -0.414409 1.000000
v 0.000000 -0.376078 0.907506
v 0.095868 -0.414409 1.000000
v 0.666667 -0.414409 1.000000
v -1.000000 0.414409 1.000000
v 1.000000 -0.414409 1.000000
v -1.000000 0.368363 1.000000
v -1.000000 0.368363 -1.000000
v 1.000000 0.368363 -1.000000
v 1.000000 0.368363 1.000000
v 0.666667 0.368363 1.000000
v 0.095868 0.368363 1.000000
v -0.000000 0.334292 0.907506
v -0.098976 0.368363 1.000000
v -0.666667 0.368363 1.000000
v -0.666667 0.368363 -1.000000
v -0.098976 0.368363 -1.000000
v 0.000000 0.334292 -0.907506
v 0.095868 0.368363 -1.000000
v 0.666667 0.368363 -1.000000
v 1.000000 0.368363 -1.000000
v -1.000000 0.368363 -1.000000
v -1.000000 0.368363 1.000000
v 1.000000 0.368363 1.000000
v -1.000000 -0.391386 -1.000000
v 1.000000 -0.391386 -1.000000
v 1.000000 -0.391386 1.000000
v 0.666667 -0.391386 1.000000
v 0.095868 -0.391386 1.000000
v 0.000000 -0.355185 0.907506
v -0.098976 -0.391386 1.000000
v -0.666667 -0.391386 1.000000
v -0.666667 -0.391386 -1.000000
v -0.098976 -0.391386 -1.000000
v -0.000000 -0.355185 -0.907506
v 0.095868 -0.391386 -1.000000
v 0.666667 -0.391386 -1.000000
v 1.000000 -0.391386 -1.000000
v -1.000000 -0.391386 -1.000000
v -1.000000 -0.391386 1.000000
v 1.000000 -0.391386 1.000000
v -1.000000 -0.391386 1.000000
v -0.147887 -0.414409 -1.000000
v -0.147886 0.414409 -1.000000
v -0.147886 -0.414409 1.000000
v -0.147887 0.414409 1.000000
v -0.147887 -0.414409 -1.000000
v -0.147886 0.414409 -1.000000
v -0.147886 -0.414409 1.000000
v -0.147887 0.414409 1.000000
v -0.147886 0.368363 -1.000000
v -0.147887 0.368363 1.000000
v -0.147886 -0.391386 1.000000
v -0.147887 -0.391386 -1.000000
v 0.134064 -0.414409 -1.000000
v 0.134064 0.414409 -1.000000
v 0.134064 -0.414409 1.000000
v 0.134064 0.414409 1.000000
v 0.134064 -0.414409 -1.000000
v 0.134064 0.414409 -1.000000
v 0.134064 -0.414409 1.000000
v 0.134064 0.414409 1.000000
v 0.134064 0.368363 -1.000000
v 0.134064 0.368363 1.000000
v 0.134064 -0.391386 1.000000
v 0.134064 -0.391386 -1.000000
vt 0.619926 0.616151
vt 0.600412 0.586862
vt 0.619926 0.586862
vt 0.671964 0.528282
vt 0.678469 0.557572
vt 0.671964 0.557572
vt 0.697983 0.630796
vt 0.717498 0.645441
vt 0.697983 0.645441
vt 0.645945 0.704020
vt 0.639441 0.674731
vt 0.645945 0.674731
vt 0.671964 0.630796
vt 0.678469 0.645441
vt 0.671964 0.645441
vt 0.681910 0.677772
vt 0.688415 0.698500
vt 0.681910 0.698500
vt 0.649386 0.677772
vt 0.655891 0.698500
vt 0.649386 0.698500
vt 0.659143 0.677772
vt 0.662396 0.698500
vt 0.659143 0.698500
vt 0.662396 0.677772
vt 0.668901 0.698500
vt 0.668901 0.677772
vt 0.675405 0.698500
vt 0.678658 0.677772
vt 0.678658 0.698500
vt 0.639441 0.630796
vt 0.645945 0.645441
vt 0.639441 0.645441
vt 0.649198 0.630796
vt 0.652450 0.645441
vt 0.649198 0.645441
vt 0.652450 0.630796
vt 0.658955 0.645441
vt 0.658955 0.630796
vt 0.665460 0.645441
vt 0.668712 0.630796
vt 0.668712 0.645441
vt 0.678469 0.704020
vt 0.671964 0.674731
vt 0.678469 0.674731
vt 0.668712 0.704020
vt 0.665460 0.674731
vt 0.668712 0.674731
vt 0.658955 0.704020
vt 0.658955 0.674731
vt 0.652450 0.674731
vt 0.649198 0.704020
vt 0.649198 0.674731
vt 0.639441 0.528282
vt 0.645945 0.557572
vt 0.639441 0.557572
vt 0.649198 0.528282
vt 0.652450 0.557572
vt 0.649198 0.557572
vt 0.658955 0.528282
vt 0.658955 0.557572
vt 0.665460 0.557572
vt 0.668712 0.528282
vt 0.668712 0.557572
vt 0.668712 0.586862
vt 0.671964 0.616151
vt 0.668712 0.616151
vt 0.658955 0.586862
vt 0.665460 0.616151
vt 0.658955 0.616151
vt 0.652450 0.586862
vt 0.652450 0.616151
vt 0.649198 0.586862
vt 0.649198 0.616151
vt 0.639441 0.586862
vt 0.645945 0.616151
vt 0.639441 0.616151
vt 0.678658 0.615587
vt 0.681910 0.657044
vt 0.678658 0.657044
vt 0.668901 0.615587
vt 0.675405 0.657044
vt 0.668901 0.657044
vt 0.662396 0.615587
vt 0.662396 0.657044
vt 0.659143 0.615587
vt 0.659143 0.657044
vt 0.649386 0.615587
vt 0.655891 0.657044
vt 0.649386 0.657044
vt 0.681910 0.615587
vt 0.688415 0.657044
vt 0.671964 0.586862
vt 0.678469 0.616151
vt 0.697983 0.586862
vt 0.717498 0.616151
vt 0.697983 0.616151
vt 0.600412 0.630796
vt 0.619926 0.630796
vt 0.619926 0.645441
vt 0.688226 0.630796
vt 0.688226 0.616151
vt 0.629683 0.645441
vt 0.629683 0.630796
vt 0.629683 0.616151
vt 0.688226 0.586862
vt 0.671964 0.572217
vt 0.668712 0.572217
vt 0.658955 0.572217
vt 0.665460 0.572217
vt 0.652450 0.572217
vt 0.649198 0.572217
vt 0.645945 0.572217
vt 0.639441 0.572217
vt 0.645945 0.660086
vt 0.649198 0.660086
vt 0.658955 0.660086
vt 0.652450 0.660086
vt 0.665460 0.660086
vt 0.668712 0.660086
vt 0.671964 0.660086
vt 0.678469 0.660086
vt 0.639441 0.660086
vt 0.688226 0.645441
vt 0.678469 0.572217
vt 0.629683 0.586862
vt 0.678469 0.586862
vt 0.678469 0.630796
vt 0.645945 0.586862
vt 0.665460 0.586862
vt 0.675405 0.677772
vt 0.645945 0.630796
vt 0.675405 0.615587
vt 0.645945 0.528282
vt 0.652450 0.704020
vt 0.655891 0.677772
vt 0.665460 0.630796
vt 0.655891 0.615587
vt 0.665460 0.528282
vt 0.671964 0.704020
vt 0.600412 0.616151
vt 0.678469 0.528282
vt 0.717498 0.630796
vt 0.639441 0.704020
vt 0.688415 0.677772
vt 0.665460 0.704020
vt 0.652450 0.528282
vt 0.688415 0.615587
vt 0.717498 0.586862
vt 0.600412 0.645441
vn 0.0000 0.0000 1.0000
vn 0.0000 0.0000 -1.0000
vn -0.6943 0.0000 0.7197
vn 0.6828 0.0000 0.7306
vn 0.6828 -0.0000 -0.7306
vn -0.6943 0.0000 -0.7197
vn -1.0000 0.0000 0.0000
vn 0.0000 -1.0000 -0.0000
vn -0.3712 -0.9285 0.0000
vn 0.3611 -0.9325 -0.0000
vn 0.0000 1.0000 0.0000
vn 0.3611 0.9325 0.0000
vn -0.3712 0.9285 0.0000
vn 1.0000 0.0000 0.0000
s off
f 72/1/1 4/2/1 58/3/1
f 18/4/2 59/5/2 70/6/2
f 74/7/1 6/8/1 60/9/1
f 28/10/1 57/11/1 65/12/1
f 54/13/1 5/14/1 23/15/1
f 49/16/1 2/17/1 28/18/1
f 44/19/1 24/20/1 6/21/1
f 112/22/1 25/23/1 108/24/1
f 46/25/1 26/26/1 25/23/1
f 47/27/1 27/28/1 26/26/1
f 100/29/1 28/18/1 96/30/1
f 43/31/1 19/32/1 1/33/1
f 99/34/1 20/35/1 95/36/1
f 51/37/1 21/38/1 20/35/1
f 52/39/1 22/40/1 21/38/1
f 111/41/1 23/15/1 107/42/1
f 6/43/1 61/44/1 60/45/1
f 108/46/1 62/47/1 114/48/1
f 62/47/3 26/49/3 63/50/3
f 26/49/4 64/51/4 63/50/4
f 96/52/1 65/12/1 102/53/1
f 4/54/2 66/55/2 58/56/2
f 94/57/2 67/58/2 101/59/2
f 67/58/5 16/60/5 68/61/5
f 16/60/6 69/62/6 68/61/6
f 106/63/2 70/6/2 113/64/2
f 105/65/1 42/66/1 109/67/1
f 11/68/1 41/69/1 40/70/1
f 12/71/1 40/70/1 39/72/1
f 93/73/1 39/72/1 97/74/1
f 3/75/1 38/76/1 29/77/1
f 94/78/1 37/79/1 98/80/1
f 16/81/1 36/82/1 35/83/1
f 17/84/1 35/83/1 34/85/1
f 106/86/1 34/85/1 110/87/1
f 8/88/1 33/89/1 32/90/1
f 14/91/1 30/92/1 37/79/1
f 9/93/1 31/94/1 42/66/1
f 59/95/1 32/96/1 71/97/1
f 55/98/7 72/1/7 73/99/7
f 57/100/1 55/98/1 73/99/1
f 42/66/8 111/41/8 109/67/8
f 41/69/9 52/39/9 40/70/9
f 40/70/10 51/37/10 39/72/10
f 39/72/8 99/34/8 97/74/8
f 38/76/8 43/31/8 29/77/8
f 37/79/11 100/29/11 98/80/11
f 36/82/12 47/27/12 35/83/12
f 35/83/13 46/25/13 34/85/13
f 34/85/11 112/22/11 110/87/11
f 33/89/11 44/19/11 32/90/11
f 30/92/11 49/16/11 37/79/11
f 31/94/8 54/13/8 42/66/8
f 32/96/14 74/7/14 71/97/14
f 71/97/14 91/101/14 88/102/14
f 92/103/1 73/99/1 90/104/1
f 73/99/7 89/105/7 90/104/7
f 76/106/1 71/97/1 88/102/1
f 113/64/2 87/107/2 116/108/2
f 85/109/6 69/62/6 86/110/6
f 67/58/5 85/109/5 84/111/5
f 101/59/2 84/111/2 104/112/2
f 58/56/2 83/113/2 75/114/2
f 102/53/1 82/115/1 103/116/1
f 80/117/4 64/51/4 81/118/4
f 62/47/3 80/117/3 79/119/3
f 114/48/1 79/119/1 115/120/1
f 60/45/1 78/121/1 77/122/1
f 65/12/1 92/123/1 82/115/1
f 91/101/1 60/9/1 77/124/1
f 70/6/2 76/125/2 87/107/2
f 89/105/1 58/3/1 75/126/1
f 29/77/1 75/126/1 3/75/1
f 87/107/2 7/127/2 9/93/2
f 56/128/1 77/124/1 5/14/1
f 82/115/1 1/33/1 19/32/1
f 77/122/1 23/15/1 5/14/1
f 115/120/1 22/40/1 107/42/1
f 79/119/3 21/38/3 22/40/3
f 21/38/4 81/118/4 20/35/4
f 103/116/1 19/32/1 95/36/1
f 75/114/2 13/129/2 3/75/2
f 104/112/2 12/71/2 93/73/2
f 84/111/5 11/68/5 12/71/5
f 11/68/6 86/110/6 10/130/6
f 116/108/2 9/93/2 105/65/2
f 7/127/1 88/102/1 31/94/1
f 90/104/7 29/77/7 43/31/7
f 1/33/1 90/104/1 43/31/1
f 88/102/14 56/128/14 31/94/14
f 83/113/2 93/73/2 13/129/2
f 81/118/1 95/36/1 20/35/1
f 64/51/1 103/116/1 81/118/1
f 66/55/2 104/112/2 83/113/2
f 98/80/11 48/131/11 36/82/11
f 97/74/8 50/132/8 38/76/8
f 15/133/1 98/80/1 36/82/1
f 13/129/1 97/74/1 38/76/1
f 14/134/2 101/59/2 66/55/2
f 27/135/1 102/53/1 64/51/1
f 50/132/1 95/36/1 19/32/1
f 48/131/1 96/30/1 27/28/1
f 86/110/2 105/65/2 10/130/2
f 78/121/1 107/42/1 23/15/1
f 61/44/1 115/120/1 78/121/1
f 69/62/2 116/108/2 86/110/2
f 110/87/11 45/136/11 33/89/11
f 109/67/8 53/137/8 41/69/8
f 18/138/1 110/87/1 33/89/1
f 10/130/1 109/67/1 41/69/1
f 17/139/2 113/64/2 69/62/2
f 24/140/1 114/48/1 61/44/1
f 53/137/1 107/42/1 22/40/1
f 45/136/1 108/24/1 24/20/1
f 72/1/1 30/141/1 4/2/1
f 18/4/2 8/142/2 59/5/2
f 74/7/1 44/143/1 6/8/1
f 28/10/1 2/144/1 57/11/1
f 54/13/1 56/128/1 5/14/1
f 49/16/1 55/145/1 2/17/1
f 44/19/1 45/136/1 24/20/1
f 112/22/1 46/25/1 25/23/1
f 46/25/1 47/27/1 26/26/1
f 47/27/1 48/131/1 27/28/1
f 100/29/1 49/16/1 28/18/1
f 43/31/1 50/132/1 19/32/1
f 99/34/1 51/37/1 20/35/1
f 51/37/1 52/39/1 21/38/1
f 52/39/1 53/137/1 22/40/1
f 111/41/1 54/13/1 23/15/1
f 6/43/1 24/140/1 61/44/1
f 108/46/1 25/146/1 62/47/1
f 62/47/3 25/146/3 26/49/3
f 26/49/4 27/135/4 64/51/4
f 96/52/1 28/10/1 65/12/1
f 4/54/2 14/134/2 66/55/2
f 94/57/2 15/147/2 67/58/2
f 67/58/5 15/147/5 16/60/5
f 16/60/6 17/139/6 69/62/6
f 106/63/2 18/4/2 70/6/2
f 105/65/1 9/93/1 42/66/1
f 11/68/1 10/130/1 41/69/1
f 12/71/1 11/68/1 40/70/1
f 93/73/1 12/71/1 39/72/1
f 3/75/1 13/129/1 38/76/1
f 94/78/1 14/91/1 37/79/1
f 16/81/1 15/133/1 36/82/1
f 17/84/1 16/81/1 35/83/1
f 106/86/1 17/84/1 34/85/1
f 8/88/1 18/138/1 33/89/1
f 14/91/1 4/148/1 30/92/1
f 9/93/1 7/127/1 31/94/1
f 59/95/1 8/149/1 32/96/1
f 55/98/7 30/141/7 72/1/7
f 57/100/1 2/150/1 55/98/1
f 42/66/8 54/13/8 111/41/8
f 41/69/9 53/137/9 52/39/9
f 40/70/10 52/39/10 51/37/10
f 39/72/8 51/37/8 99/34/8
f 38/76/8 50/132/8 43/31/8
f 37/79/11 49/16/11 100/29/11
f 36/82/12 48/131/12 47/27/12
f 35/83/13 47/27/13 46/25/13
f 34/85/11 46/25/11 112/22/11
f 33/89/11 45/136/11 44/19/11
f 30/92/11 55/145/11 49/16/11
f 31/94/8 56/128/8 54/13/8
f 32/96/14 44/143/14 74/7/14
f 71/97/14 74/7/14 91/101/14
f 92/103/1 57/100/1 73/99/1
f 73/99/7 72/1/7 89/105/7
f 76/106/1 59/95/1 71/97/1
f 113/64/2 70/6/2 87/107/2
f 85/109/6 68/61/6 69/62/6
f 67/58/5 68/61/5 85/109/5
f 101/59/2 67/58/2 84/111/2
f 58/56/2 66/55/2 83/113/2
f 102/53/1 65/12/1 82/115/1
f 80/117/4 63/50/4 64/51/4
f 62/47/3 63/50/3 80/117/3
f 114/48/1 62/47/1 79/119/1
f 60/45/1 61/44/1 78/121/1
f 65/12/1 57/11/1 92/123/1
f 91/101/1 74/7/1 60/9/1
f 70/6/2 59/5/2 76/125/2
f 89/105/1 72/1/1 58/3/1
f 29/77/1 89/105/1 75/126/1
f 87/107/2 76/125/2 7/127/2
f 56/128/1 91/101/1 77/124/1
f 82/115/1 92/123/1 1/33/1
f 77/122/1 78/121/1 23/15/1
f 115/120/1 79/119/1 22/40/1
f 79/119/3 80/117/3 21/38/3
f 21/38/4 80/117/4 81/118/4
f 103/116/1 82/115/1 19/32/1
f 75/114/2 83/113/2 13/129/2
f 104/112/2 84/111/2 12/71/2
f 84/111/5 85/109/5 11/68/5
f 11/68/6 85/109/6 86/110/6
f 116/108/2 87/107/2 9/93/2
f 7/127/1 76/106/1 88/102/1
f 90/104/7 89/105/7 29/77/7
f 1/33/1 92/103/1 90/104/1
f 88/102/14 91/101/14 56/128/14
f 83/113/2 104/112/2 93/73/2
f 81/118/1 103/116/1 95/36/1
f 64/51/1 102/53/1 103/116/1
f 66/55/2 101/59/2 104/112/2
f 98/80/11 100/29/11 48/131/11
f 97/74/8 99/34/8 50/132/8
f 15/133/1 94/78/1 98/80/1
f 13/129/1 93/73/1 97/74/1
f 14/134/2 94/57/2 101/59/2
f 27/135/1 96/52/1 102/53/1
f 50/132/1 99/34/1 95/36/1
f 48/131/1 100/29/1 96/30/1
f 86/110/2 116/108/2 105/65/2
f 78/121/1 115/120/1 107/42/1
f 61/44/1 114/48/1 115/120/1
f 69/62/2 113/64/2 116/108/2
f 110/87/11 112/22/11 45/136/11
f 109/67/8 111/41/8 53/137/8
f 18/138/1 106/86/1 110/87/1
f 10/130/1 105/65/1 109/67/1
f 17/139/2 106/63/2 113/64/2
f 24/140/1 108/46/1 114/48/1
f 53/137/1 111/41/1 107/42/1
f 45/136/1 112/22/1 108/24/1
